<?xml version="1.0" encoding="UTF-8"?>
<svg id="Layer_1" xmlns="http://www.w3.org/2000/svg" version="1.1" viewBox="0 0 1080 1080">
  <!-- Generator: Adobe Illustrator 29.2.0, SVG Export Plug-In . SVG Version: 2.1.0 Build 108)  -->
  <defs>
    <style>
      .st0 {
        fill: #fff;
      }

      .st1 {
        fill: #161616;
      }
    </style>
  </defs>
  <circle class="st1" cx="540" cy="540" r="540"/>
  <g>
    <path class="st0" d="M247.02,641.77c-2.16-4.91-2.77-9.5-2.77-13.81,0-16.57,11.98-26.41,28.55-26.41,11.06,0,20.56,5.22,28.86,17.51,16.57,26.09,35.93,37.76,74.29,37.76s63.25-16.28,63.25-42.98c0-21.19-12.58-32.54-47.28-40.84l-50.96-11.98c-62.63-14.74-93.34-45.43-93.34-91.49,0-58.34,50.67-97.02,127.42-97.02,58.34,0,106.23,29.78,115.44,67.85.62,3.68,1.23,6.76,1.23,9.83,0,14.72-9.21,24.56-25.78,24.56-10.75,0-20.27-3.68-26.72-14.12-14.43-24.57-34.08-37.47-66.62-37.47-35.62,0-60.17,17.51-60.17,42.69,0,20.25,15.66,34.39,49.74,42.36l50.05,11.68c67.85,15.66,93.94,39.9,93.94,87.79,0,59.88-53.73,99.78-133.55,99.78-63.56,0-110.22-26.09-125.57-65.7Z"/>
    <path class="st0" d="M557.29,672.17v-266.18c0-20.25,12.29-33.46,31.62-33.46s32.23,13.2,32.23,33.77v25.49h1.54c17.51-36.84,51.27-58.95,101.01-58.95,71.23,0,112.05,45.43,112.05,119.43v179.9c0,21.81-13.81,35.01-33.46,35.01s-33.16-13.2-33.16-35.01v-167.01c0-48.51-22.71-75.23-68.76-75.23s-76.76,33.16-76.76,83.21v159.02c0,21.81-13.81,35.01-33.14,35.01s-33.16-13.2-33.16-35.01Z"/>
  </g>
</svg>