<?xml version="1.0" encoding="UTF-8"?>
<svg id="Layer_1" xmlns="http://www.w3.org/2000/svg" version="1.1" viewBox="0 0 1265.39 707.05">
  <!-- Generator: Adobe Illustrator 29.2.1, SVG Export Plug-In . SVG Version: 2.1.0 Build 116)  -->
  <defs>
    <style>
      .st0 {
        stroke: #008138;
      }

      .st0, .st1, .st2, .st3, .st4, .st5 {
        fill: none;
      }

      .st0, .st1, .st2, .st4, .st5 {
        stroke-miterlimit: 10;
      }

      .st1 {
        stroke: #fff;
      }

      .st2 {
        stroke-dasharray: 3.01 3.01;
      }

      .st2, .st3, .st4, .st5 {
        stroke: #008136;
        stroke-linecap: round;
      }

      .st6, .st7 {
        fill: #008138;
      }

      .st8, .st7, .st9 {
        isolation: isolate;
      }

      .st3 {
        stroke-linejoin: round;
      }

      .st7 {
        font-family: Poppins-Bold, Poppins;
        font-size: 20px;
        font-weight: 700;
      }

      .st5 {
        stroke-dasharray: 2.99 2.99;
      }

      .st10, .st9 {
        fill: #fff;
      }

      .st9 {
        font-family: Poppins-Regular, Poppins;
        font-size: 18px;
      }

      .st11 {
        fill: #008136;
      }

      .st12 {
        fill: #00721a;
      }
    </style>
  </defs>
  <path class="st10" d="M1045.27,596.88c-2.11-12.66-4.2-25.32-6.29-37.98-.51-3.12-.97-6.26-1.45-9.38,2.72-.4,3.76-1.78,3.79-4.78.05-3.43-1.37-4.89-5.53-5.56-.51-2.98-1.04-6-1.53-9.03-1.35-8.29-2.69-16.58-4.02-24.87-.41-2.58-1.82-4.31-4.3-5.15-6.03-2.05-11.79-1.24-17.28,1.79-4.31,2.39-5.35,4.43-4.69,9.3,1.18,8.73,2.46,17.45,3.7,26.18.52,3.69,1.07,7.38,1.52,11.08.09.76.57,1.79-.76,2.21-3.83,1.18-7.56.82-11.33-.41-2.84-.92-3.55-3.57-5.13-5.53,15.35-12.35,11.01-31.29,2.63-39.12-10.05-9.39-24.24-8.44-33.41-.27-5.36,4.77-7.55,11.07-7.93,18.04-.49,9.09,3.64,16.04,10.58,21.6-.54.97-1.07,1.82-1.52,2.71-8.3,16.51-10.92,33.87-7.78,52.1.28,1.64,1.25,1.99,2.54,2.11,3.59.35,7.18.76,10.78.93,1.48.07,1.9.51,1.94,1.95.13,4.85.41,9.7.64,14.55.1,2.22.23,4.43.34,6.34-2.58.47-4.81.73-6.96,1.31-1.45.39-1.8,2.08-.71,2.89,1.79,1.33,3.82,1.27,5.72.33,1.85-.92,3.71-1.92,3.53-4.56-.34-4.67-.57-9.34-.83-14.01-.16-2.88-.27-5.76-.39-8.33,7.53-1.06,14.75-2.07,22.08-3.1.08.79.21,1.72.27,2.66.5,7.44.96,14.89,1.52,22.33.05.69.56,1.71,1.11,1.93,2.47.98,5.07,1.14,7.64.34.45-.14,1.05-.77,1.05-1.17-.01-.52-.45-1.35-.88-1.49-1.11-.35-2.3-.53-3.46-.53-1.33-.01-2.66.25-4.12.4-.1-1.46-.17-2.75-.26-4.05-.44-6.55-.87-13.11-1.35-19.67-.09-1.23.39-1.75,1.51-2.19,2.35-.93,4.66-1.98,6.91-3.13,1.44-.73,2.41-1.96,2.31-3.7-.32-5.49-.58-11-1.07-16.47-.23-2.57-.95-5.08-1.46-7.7,1.15-.34,2.23-.64,3.29-.98.94-.31,1.64-.26,2.18.77.69,1.35,1.91,1.87,3.65,1.47,1.35,9.66,2.76,19.07,3.95,28.52.78,6.27,1.74,12.37,5.65,17.67,3.24,4.38,6,9.11,10.35,12.55,2.78,2.19,4.93,1.75,6.38-1.43,1.55-3.39,3.09-6.8,4.23-10.33,2-6.2,3.75-12.48,2.65-19.14h0ZM1007.38,564.1c.02.33-.42.88-.75.99-1.27.43-2.59.72-4,1.1-1.92-4.72-3.78-9.29-5.75-14.14,1.74.28,3.18.68,4.63.7,2.3.02,4.59-.26,6.89-.31.48,0,1.33.42,1.39.75.41,2.2.64,4.43.95,6.79-2.3.47-3.48,1.77-3.36,4.12h0Z"/>
  <path class="st10" d="M677.04,493.33c.03-.5.47-.5.87-.53,2.26-.17,4.52-.35,6.77-.56.96-.08,1.92-.23,2.87-.34.48-.05,1.06-.17,1.15.51.08.66-.52.75-.98.83-.9.15-1.81.28-2.72.36-1.83.14-3.66.24-5.49.36.01.02.01.04.01.06-.53,0-1.06.01-1.59,0-.46,0-.94-.1-.89-.69h0Z"/>
  <path class="st10" d="M678.94,480.31c-.16-.19-.34-.53-.27-.71.06-.18.42-.33.66-.36.22-.02.46.12.69.2,2.97,1,5.94,1.98,8.89,3.01.29.1.47.51.7.77-.31.23-.61.46-.81.61-.64-.18-1.06-.28-1.47-.42-2.58-.93-5.16-1.86-7.75-2.8-.22-.08-.49-.14-.64-.3h0Z"/>
  <path class="st10" d="M689.46,501.15c.4-.22.84-.39,1.15.09.32.5-.07.8-.44,1.04-1.25.81-2.49,1.63-3.76,2.42-1.02.64-2.06,1.24-3.09,1.85-.25.14-.52.25-.83.41-.18-.13-.45-.23-.52-.41-.07-.17-.01-.48.11-.63.18-.22.45-.35.7-.51,1.93-1.25,3.87-2.5,5.81-3.75.29-.18.58-.35.87-.51h0Z"/>
  <path class="st10" d="M695.79,495.77c-1.76-6.79.41-12.49,5.54-17.06,4.03-3.58,8.9-5.11,14.72-5.15,5.06.1,9.98,1.78,14.05,5.6,7.08,6.65,7.23,17.17.34,24.02-1.12,1.11-2.41,2.08-3.74,2.94-.9.58-1.45,1.23-1.54,2.27-.23,2.64-.47,5.28-.66,7.93-.06.81-.01,1.64.03,2.45.18,4.35-2.66,7.8-6.97,8.36-2.22.28-4.21-.42-5.93-1.81-2.33-1.87-3.33-4.36-3.43-7.34-.11-3.08-.43-6.15-1.41-9.12-.31-.93-.83-1.51-1.72-1.98-4.61-2.41-7.96-6-9.28-11.11h0Z"/>
  <path class="st10" d="M738,502.1c.41-.65.96-.14,1.37.13,2.05,1.33,4.1,2.68,6.13,4.05.33.23.57.58,1.01,1.03-.46.24-.72.47-.98.47s-.52-.22-.75-.38c-2.03-1.37-4.05-2.75-6.08-4.13-.41-.29-1.11-.51-.7-1.17h0Z"/>
  <path class="st10" d="M739.49,487.53c-.29-.07-.6-.22-.8-.43-.06-.06.15-.54.34-.67,1.37-.89,2.76-1.74,4.15-2.6.9-.55,1.8-1.11,2.71-1.64.24-.15.53-.35.78-.33.26.02.5.28.87.5-.34.38-.51.68-.76.84-2.25,1.39-4.51,2.76-6.77,4.13-.16.1-.37.24-.52.2h0Z"/>
  <path class="st10" d="M747.43,494.75s.1-.01.15,0c.47.02,1.08-.04,1.07.64-.01.66-.62.64-1.09.64-1.21.02-2.42.01-3.62.01v.18h-2.75c-.34,0-.71.07-1-.05-.26-.11-.42-.44-.63-.67.22-.16.41-.42.65-.46.56-.11,1.15-.15,1.72-.17,1.84-.05,3.67-.08,5.5-.12h0Z"/>
  <path class="st10" d="M754.47,563.15c-.35,7.13-1.64,14.09-3.98,20.84-1.19,3.43-2.62,6.75-4.54,9.84-.36.58-.42,1.1-.22,1.76.43,1.43.89,2.86,1.28,4.3.03.09.06.19.08.28.17.66.33,1.31.46,1.97.34,1.69.61,3.39.85,5.1.09.17.12.35.07.55.14,1.02.27,2.05.4,3.07.12,1,.22,2,.33,3,.53.43.65,1.11.24,1.65-.01.02-.04.03-.06.05.19,1.84.36,3.68.5,5.53.14,1.91.08,3.85.1,5.78,0,.46-.1.91-.67.93-.45.02-.63-.25-.7-.57-.31.02-.63,0-.92-.13l-20.15-8.59,17.26,9.07c.75.39.99,1.2.53,1.82-.46.63-1.44.85-2.24.51l-25.89-11.07,16.09,9.15c.72.41.93,1.2.47,1.81s-1.42.83-2.2.5l-18.09-7.43,9.05,5.12c.71.4.92,1.18.49,1.78-.44.61-1.38.85-2.17.55l-14.16-5.31,5.79,3.47c.69.41.88,1.17.45,1.76-.43.6-1.34.84-2.13.57l-8.81-3.1,1.47.98c.64.42.8,1.15.39,1.73-.31.42-.87.67-1.46.67-.2,0-.41-.03-.6-.09l-5.32-1.66c-.04.35-.25.69-.62.94-.72.47-1.78.38-2.36-.2l-2.43-2.41c-.04.07-.09.14-.12.21-.31-.17-.64-.31-.93-.5-.09-.06-.11-.27-.11-.41-.06-1.49-.23-2.99-.15-4.47.48-7.96,2.28-15.67,4.64-23.25-.09-.33-.03-.68.21-.99.01-.02.03-.02.04-.04.2-1.28-.17-2.21-1.29-3.31-8.64-8.52-14.59-18.66-17.61-30.44-1.32-5.13-1.68-10.38-1.51-15.66.01-.39.05-.78-.02-1.15-.51-2.62.09-5.08,1.07-7.47.17-.43.5-.84.84-1.16.54-.5,1.18-.87,1.97-.56.78.3,1.04.97,1.09,1.73.12,1.72-.15,3.38-1.09,4.86-.49.77-1.02,1.52-1.59,2.24-.67.83-.98,1.72-.99,2.79-.07,10.68,2.53,20.66,8.05,29.8,2,3.3,4.2,6.48,6.52,9.56,1.55,2.07,3.46,3.86,5.37,5.95,1.17-2.69,2.23-5.13,3.34-7.68-.38-.25-.82-.53-1.25-.8-7.1-4.51-11.9-10.74-13.65-19-2.17-10.26.58-19.29,7.96-26.7,13.78-13.82,36.99-11.89,48.4,3.34,7.83,10.47,7.75,24.5-.18,34.9-.29.38-.58.77-.85,1.12,1.3,2.68,2.6,5.35,3.91,8.05l.64.45c.6.41.76,1.1.39,1.66h-.01c.3.63.6,1.24.9,1.86.26-.41.54-.82.77-1.26,2.67-5.02,4.43-10.37,5.64-15.91,1.35-6.16,1.96-12.39,1.57-18.7-.17-2.8-.57-5.57-1.48-8.24-.22-.65-.71-1.21-1.05-1.84-.55-1-1.18-1.99-1.56-3.06-.23-.63-.14-1.43-.02-2.13.15-.86.73-1.48,1.64-1.62.94-.14,1.58.41,2,1.16.26.44.43.99.46,1.5.06,1,.11,2.04-.07,3.03-.23,1.28-.09,2.45.26,3.69,1.26,4.56,1.49,9.24,1.27,13.93h0Z"/>
  <path class="st10" d="M487.95,543.86c.17.64-.42.87-.94.88-1.85.03-3.71.01-5.56.01v.03c-1.52,0-3.04.01-4.55,0-.34,0-.7.06-.99-.05-.21-.07-.44-.39-.45-.6,0-.22.21-.57.41-.63.41-.13.88-.14,1.32-.15,3.09-.07,6.18-.12,9.27-.17.17,0,.37-.07.5,0,.36.2.91.39.99.68h0Z"/>
  <path class="st10" d="M489.18,530.74c-.29.92-1.11.46-1.72.26-3.31-1.06-6.62-2.14-9.92-3.22-.37-.12-.78-.24-1.06-.49-.19-.17-.3-.58-.26-.85.03-.19.38-.32.56-.46.31.1.52.17.73.24,3.48,1.1,6.96,2.19,10.43,3.3.62.19,1.55.29,1.24,1.22h0Z"/>
  <path class="st10" d="M485.18,510.88c-.41-.45-1-.93-.38-1.56.58-.57,1.01.01,1.42.37,2.6,2.31,5.21,4.61,7.8,6.92.24.21.42.49.77.89-.39.23-.72.58-.97.53-.41-.07-.83-.35-1.16-.63-2.47-2.12-4.91-4.26-7.36-6.4-.05-.04-.08-.08-.12-.12h0Z"/>
  <path class="st10" d="M572.64,589.73c-.83.72-1.07,1.42-1.05,2.44.05,3.59.05,7.19.04,10.79,0,1.98-.16,2.2-1.98,2.76.02.31-.06.63-.27.91-.38.5-1.04.77-1.72.76.13.64.25,1.25.31,1.87.04.35.07.71.11,1.06l1.95,1.08c.86.47,1.11,1.41.57,2.12-.46.6-1.33.87-2.14.7.03.41.07.82.11,1.23.03.33.07.71-.05,1-.06.13-.14.27-.23.4l1.06.58c.86.47,1.11,1.4.58,2.12-.54.72-1.68.97-2.6.58l-22.81-9.73s-.06.01-.1.02l19.55,10.26c.88.46,1.15,1.4.62,2.13-.53.72-1.68.98-2.61.59l-28.01-11.98c-.22-.02-.44-.05-.66-.08l17.27,9.82c.84.48,1.07,1.4.54,2.1-.53.71-1.65.97-2.56.59l-21.06-8.64,10.54,5.95c.83.47,1.07,1.37.57,2.08-.51.71-1.61.98-2.53.64l-16.47-6.19,6.73,4.04c.8.48,1.03,1.36.53,2.05-.5.7-1.57.98-2.48.66l-10.25-3.6,1.71,1.13c.74.5.93,1.35.44,2.02-.36.49-1.01.78-1.69.78-.23,0-.47-.04-.7-.11l-6.19-1.93c-.05.41-.29.81-.72,1.09-.84.55-2.07.45-2.75-.23l-3.2-3.16c-.56-.56-.59-1.35-.06-1.93.52-.58,1.46-.8,2.29-.54l.69.22-3.14-2.09c-.75-.5-.93-1.37-.42-2.04.17-.22.4-.37.66-.5.09-1.02.19-2.03.29-3.05-.33-.48-.35-1.08.02-1.58.05-.06.1-.11.15-.17.14-1.28.28-2.57.42-3.86.01-.11.03-.23.04-.35-.3-.33-.43-.73-.38-1.13-.23-.09-.47-.19-.71-.25-1.68-.45-3.37-.87-5.06-1.31-1.49-.39-1.5-.43-1.45-1.94.09-2.92.18-5.84.27-8.76.02-.44,0-.89,0-1.28-.14-.13-.21-.25-.31-.28-2.58-.69-3.33-3.1-2.88-5.33.4-2.02,1.22-3.75,3.39-4.43.61-.19.65-.68.71-1.2.34-3.35.67-6.7,1.04-10.05.24-2.18.51-4.35.81-6.52.17-1.24.56-1.46,1.86-1.15,2.07.5,4.14,1.04,6.21,1.55.36.09.74.13,1.49.26-.67-.69-1.09-1.12-1.5-1.56-6.48-6.88-9.82-15.03-9.4-24.48.41-9.31,4.28-17.13,11.14-23.42,15.01-13.74,39.21-12.83,52.96,2.01,6.42,6.93,9.45,15.19,8.93,24.65-.33,6.07-2.36,11.63-5.79,16.67-.3.44-.59.9-.88,1.35.05.07.1.14.16.21l5.22-2.16c2.37-.97,2.55-.88,2.66,1.7.2,4.21.32,8.42.48,12.64.12,3.03.23,6.06.36,9.09.02.54.03,1.02.64,1.42,2.98,1.95,3.36,6.53.69,8.89h0Z"/>
  <path class="st10" d="M582.27,511.9c-2.03,1.77-4.05,3.54-6.08,5.31-.25.21-.52.39-.94.7-.21-.39-.53-.71-.49-.98.05-.34.34-.7.62-.95,1.99-1.81,4.01-3.59,6.01-5.38.13-.11.25-.28.4-.3.35-.06.71-.04,1.07-.05-.03.4-.02.81-.12,1.19-.04.18-.3.31-.47.46h0Z"/>
  <path class="st10" d="M591.35,541.28c-.1.33-.52.56-.69.72-.43-.08-.6-.09-.76-.14-3.27-.99-6.54-1.99-9.8-2.99-.21-.06-.46-.16-.58-.32-.14-.2-.28-.53-.21-.73.06-.19.4-.42.61-.41.38,0,.76.16,1.13.27,3.07.89,6.13,1.79,9.2,2.68.16.04.38.01.48.11.25.24.68.61.62.81h0Z"/>
  <path class="st10" d="M592.22,524.81c.04.24-.21.62-.44.78-.26.18-.63.22-.96.27-3.54.54-7.09,1.08-10.63,1.61-.11.02-.22.04-.54.1-.17-.14-.57-.33-.66-.62-.18-.57.34-.78.78-.86,2.03-.4,4.07-.8,6.11-1.14,1.49-.26,2.99-.44,4.49-.65.39-.05.8-.13,1.17-.05.27.06.64.33.68.56Z"/>
  <line class="st4" x1="1121.82" y1="324.96" x2="1234.25" y2="324.96"/>
  <line class="st4" x1="30.31" y1="324.96" x2="142.74" y2="324.96"/>
  <g>
    <line class="st4" x1="396.88" y1="8.81" x2="396.88" y2="10.31"/>
    <line class="st2" x1="396.88" y1="13.32" x2="396.88" y2="637.37"/>
    <line class="st4" x1="396.88" y1="638.87" x2="396.88" y2="640.37"/>
  </g>
  <g>
    <line class="st3" x1="391.15" y1="645.1" x2="162.32" y2="645.1"/>
    <rect class="st11" x="390.65" y="641.85" width="1" height="6.5"/>
    <rect class="st11" x="161.82" y="641.85" width="1" height="6.5"/>
  </g>
  <g>
    <line class="st3" x1="632.77" y1="645.1" x2="404.06" y2="645.1"/>
    <rect class="st11" x="632.27" y="641.85" width="1" height="6.5"/>
    <rect class="st11" x="403.56" y="641.85" width="1" height="6.5"/>
  </g>
  <g>
    <line class="st3" x1="862.3" y1="645.1" x2="631.61" y2="645.1"/>
    <rect class="st11" x="861.8" y="641.85" width="1" height="6.5"/>
    <rect class="st11" x="631.11" y="641.85" width="1" height="6.5"/>
  </g>
  <g>
    <line class="st3" x1="1103.86" y1="645.1" x2="875.31" y2="645.1"/>
    <rect class="st11" x="1103.36" y="641.85" width="1" height="6.5"/>
    <rect class="st11" x="874.81" y="641.85" width="1" height="6.5"/>
  </g>
  <g>
    <line class="st4" x1="868.16" y1="8.81" x2="868.16" y2="10.31"/>
    <line class="st2" x1="868.16" y1="13.32" x2="868.16" y2="637.37"/>
    <line class="st4" x1="868.16" y1="638.87" x2="868.16" y2="640.37"/>
  </g>
  <polygon class="st6" points="162.1 325.9 391.65 557.34 391.65 94.47 162.1 325.9"/>
  <polygon class="st12" points="633.21 325.9 403.66 94.47 403.66 557.34 633.21 325.9"/>
  <polygon class="st6" points="633.25 325.9 862.8 557.34 862.8 94.47 633.25 325.9"/>
  <polygon class="st12" points="1104.36 325.9 874.81 94.47 874.81 557.34 1104.36 325.9"/>
  <polygon class="st4" points="1121.82 324.82 867.86 70.86 632.28 306.44 396.7 70.86 142.74 324.82 396.7 578.78 632.28 343.2 867.86 578.78 1121.82 324.82"/>
  <circle class="st0" cx="19.75" cy="324.96" r="10.56"/>
  <circle class="st0" cx="1245.65" cy="324.96" r="10.56"/>
  <g>
    <path class="st6" d="M1045.27,596.88c-2.11-12.66-4.2-25.32-6.29-37.98-.51-3.12-.97-6.26-1.45-9.38,2.72-.4,3.76-1.78,3.79-4.78.05-3.43-1.37-4.89-5.53-5.56-.51-2.98-1.04-6-1.53-9.03-1.35-8.29-2.69-16.58-4.02-24.87-.41-2.58-1.82-4.31-4.3-5.15-6.03-2.05-11.79-1.24-17.28,1.79-4.31,2.39-5.35,4.43-4.69,9.3,1.18,8.73,2.46,17.45,3.7,26.18.52,3.69,1.07,7.38,1.52,11.08.09.76.57,1.79-.76,2.21-3.83,1.18-7.56.82-11.33-.41-2.84-.92-3.55-3.57-5.13-5.53,15.35-12.35,11.01-31.29,2.63-39.12-10.05-9.39-24.24-8.44-33.41-.27-5.36,4.77-7.55,11.07-7.93,18.04-.49,9.09,3.64,16.04,10.58,21.6-.54.97-1.07,1.82-1.52,2.71-8.3,16.51-10.92,33.87-7.78,52.1.28,1.64,1.25,1.99,2.54,2.11,3.59.35,7.18.76,10.78.93,1.48.07,1.9.51,1.94,1.95.13,4.85.41,9.7.64,14.55.1,2.22.23,4.43.34,6.34-2.58.47-4.81.73-6.96,1.31-1.45.39-1.8,2.08-.71,2.89,1.79,1.33,3.82,1.27,5.72.33,1.85-.92,3.71-1.92,3.53-4.56-.34-4.67-.57-9.34-.83-14.01-.16-2.88-.27-5.76-.39-8.33,7.53-1.06,14.75-2.07,22.08-3.1.08.79.21,1.72.27,2.66.5,7.44.96,14.89,1.52,22.33.05.69.56,1.71,1.11,1.93,2.47.98,5.07,1.14,7.64.34.45-.14,1.05-.77,1.05-1.17-.01-.52-.45-1.35-.88-1.49-1.11-.35-2.3-.53-3.46-.53-1.33-.01-2.66.25-4.12.4-.1-1.46-.17-2.75-.26-4.05-.44-6.55-.87-13.11-1.35-19.67-.09-1.23.39-1.75,1.51-2.19,2.35-.93,4.66-1.98,6.91-3.13,1.44-.73,2.41-1.96,2.31-3.7-.32-5.49-.58-11-1.07-16.47-.23-2.57-.95-5.08-1.46-7.7,1.15-.34,2.23-.64,3.29-.98.94-.31,1.64-.26,2.18.77.69,1.35,1.91,1.87,3.65,1.47,1.35,9.66,2.76,19.07,3.95,28.52.78,6.27,1.74,12.37,5.65,17.67,3.24,4.38,6,9.11,10.35,12.55,2.78,2.19,4.93,1.75,6.38-1.43,1.55-3.39,3.09-6.8,4.23-10.33,2-6.2,3.75-12.48,2.65-19.14h0ZM1037.4,540.99c2.74,1.35,3.25,4.04,1.35,6.66-2.11-1.39-2.69-4.12-1.35-6.66ZM1030.89,518.92c1.58,9.38,3.11,18.77,4.66,28.15,2.68,16.33,5.35,32.67,8.09,48.99.32,1.9.14,3.4-1.32,4.8-1.35,1.3-2.48,2.83-3.99,4.59-4.51-29.7-8.96-58.95-13.47-88.65,1.91.26,3.58.41,5.21.76.36.08.74.85.82,1.36ZM1036.84,605.67c-.2.16-.4.32-.6.49-.96-1.15-1.89-2.33-2.9-3.44-2.32-2.59-2.5-2.55-4.33.47-.81,1.35-1.69,2.65-2.84,4.44-.69-4.38-1.3-8.2-1.89-12.02-2.22-14.25-4.45-28.51-6.66-42.77-1.62-10.53-3.25-21.05-4.8-31.58-.08-.49.39-1.42.81-1.57,3.1-1.07,6.25-2,9.7-3.06,4.57,30.12,9.04,59.58,13.51,89.04h0ZM1007.36,504.66c3.32-2.77,7.26-3.85,11.49-4.09,2.65-.15,5.2.18,7.56,1.48,1.84,1.02,2.56,2.55,2.18,4.9-8.15-1.67-15.71-.22-22.54,4.61-1.58-2.51-1.12-4.88,1.31-6.9h0ZM1007.17,512.76c5.97-4.31,12.58-5.87,19.83-4.56,1.4.26,2.9.7,2.32,3.02-8.12-.65-15.66,1.21-22.85,5.01-.78-1.47-.56-2.56.7-3.47ZM1008.54,516.97c5.92-3.13,12.25-4.64,18.96-4.36,2.13.09,2.51.65,2.71,3.23-8.49-1.24-16.05.93-22.95,5.63-1.1-2.59-1.01-3.28,1.28-4.5ZM996.02,555.83c.23.15.5.21.77.2,1.55,3.24,2.89,6.6,3.52,9.08l-12.52-14.54,8.23,5.26h0ZM985.65,566.79l2.96,3.23-4.01-3.53s.02.01.03.01c.34.11.68.2,1.02.29h0ZM985.4,563.2l2.78,2.5c-.21-.05-.41-.1-.62-.15l-2.16-2.35h0ZM972.6,548.68c1.69.38,3.38.58,5.07.58l14.29,16.87-19.36-17.45ZM986.91,556.68l11.41,9.89c-1,.07-1.98.11-2.97.07l-8.44-9.96ZM981.38,548.96c.59-.09,1.17-.21,1.75-.35l6.37,7.39-8.12-7.04h0ZM999.69,568.18c1.16-.1,1.76.31,2.02,1.43.45,1.96.83,3.92,1.16,5.9l-6.11-7.21c.98-.01,1.95-.04,2.93-.12ZM986.87,547.41c.43-.17.86-.37,1.3-.56l2.71,3.13-4.01-2.57ZM992.75,548.69l-2.51-2.89s.08-.04.12-.06c.66.53,1.49,1.58,2.39,2.95ZM954.71,524.13c-.1-12.82,10.35-23.67,22.9-23.77,12.52-.11,22.87,10.38,23.13,23.3.26,13.15-11.04,24.4-22.6,23.86-13.03.16-23.32-10.11-23.43-23.39h0ZM964.65,546.56c.14-.25.33-.46.53-.75.92.51,1.84.95,2.76,1.35.02.18.1.36.23.51l15.22,16.65c-.77-.28-1.53-.58-2.28-.91l-17.3-15.28c.28-.52.56-1.04.84-1.57ZM962.35,550.96c.08-.17.18-.34.26-.51l21.49,22.48-22.56-20.14c.27-.61.53-1.23.81-1.83h0ZM960.49,555.31l22.27,23.56-23.3-20.8c.32-.93.67-1.85,1.03-2.76h0ZM958.53,560.84l20.34,22.68-21.27-19.4c.29-1.1.6-2.19.93-3.28h0ZM956.85,567.2l16.07,18.76-16.7-15.66c.19-1.04.4-2.07.63-3.1h0ZM955.65,573.63l10.34,13.76-10.7-11.12c.11-.89.23-1.77.36-2.64ZM954.9,580.06l8.08,12.06-8.27-8.41c.03-1.22.09-2.44.19-3.65ZM954.87,590.46c-.04-.67-.08-1.34-.11-2.01l3.19,5.13-3.08-3.12ZM957.99,600.53c-1.45-.27-2.09-.86-2.3-2.32-.12-.81-.22-1.63-.32-2.45l2.84,4.81c-.07-.01-.15-.02-.22-.04h0ZM960.53,600.94c.17-.29.2-.63.02-.93l-.93-1.58,2.69,2.72c-.59-.05-1.19-.13-1.78-.21h0ZM965.42,601.36c-.02-.11-.06-.22-.12-.33l-5.72-9.18,9.41,9.57c-1.19.01-2.38,0-3.57-.06ZM974.75,601.18c-.98.07-1.96.12-2.94.17-.02-.13-.07-.25-.14-.36l-9.87-14.73,14.24,14.8c-.43.04-.86.1-1.29.12ZM978.87,600.76l-15.69-20.9,21.41,20.08c-1.91.29-3.81.57-5.72.82ZM987.49,599.49l-20.07-23.41,24.6,22.43c-1.49.41-3,.73-4.53.98h0ZM994.62,597.72l-23.81-26.55,27.92,24.92c-1.35.61-2.72,1.15-4.11,1.63ZM1001.76,594.63c-.23.12-.47.23-.7.35l-23.83-25.22,26.2,23.39c-.37.59-.92,1.09-1.67,1.48ZM1003.98,590.48l-24.15-25.26,22.77,20.1c.35.32.88.37,1.32.19.08,1.65.09,3.31.06,4.97h0ZM1003.38,579.06c.17,1.42.32,2.84.42,4.26l-14.29-15.63c.36.07.73.13,1.09.19l12.09,10.89c.19.17.43.26.69.29h0ZM1007.38,564.1c.02.33-.42.88-.75.99-1.27.43-2.59.72-4,1.1-1.92-4.72-3.78-9.29-5.75-14.14,1.74.28,3.18.68,4.63.7,2.3.02,4.59-.26,6.89-.31.48,0,1.33.42,1.39.75.41,2.2.64,4.43.95,6.79-2.3.47-3.48,1.77-3.36,4.12h0ZM1008.89,562.97c.19-.47.85-.82,1.37-1.06.11-.04.77.64.81,1.03.16,1.52.18,3.05.26,4.57-1.99-.86-2.97-3.19-2.44-4.54h0ZM1013.47,568.28c-2.01-14.52-4.1-29.03-6.03-43.56-.1-.73.92-1.69,1.57-2.41.45-.51,1.15-.79,2.17-1.45,4.45,28.87,8.84,57.42,13.24,85.98l-.51.21c-1.71-1.51-3.6-2.86-5.07-4.58-.79-.94-1.05-2.47-1.23-3.78-1.42-10.13-2.73-20.28-4.14-30.41h0ZM1043.26,607.86c-.89,3.55-1.96,7.06-3.08,10.55-.14.44-.98.98-1.46.94-3.39-.24-6.73-.2-10.02.83-.54.17-1.53.02-1.86-.37-3.49-4.09-6.21-8.63-7.87-13.77-.11-.32-.11-.68-.22-1.47,2.07,1.84,3.76,3.4,5.52,4.89,1.38,1.18,2,1.04,2.94-.5,1.25-2.05,2.49-4.11,3.88-6.39,2.15,2.29,4.12,4.39,6.25,6.66,2.25-2.76,4.25-5.2,6.24-7.64.19.06.37.12.56.18-.28,2.03-.39,4.11-.88,6.09h0Z"/>
    <path class="st6" d="M979.51,534.83c1.79,1.37,3.82,2.09,5.15,2.12,5.29.02,9.22-3.45,9.54-7.6.04-.57.19-1.31-.67-1.37-.68-.05-.75.57-.88,1.11-1.48,6.23-6.87,8.2-12.17,4.48-.44-.31-.95-1-1.49-.36-.55.64-.02,1.2.52,1.62h0Z"/>
    <path class="st6" d="M976.38,526.6c-.82,0-1.24.62-1.21,1.42.03.88.55,1.42,1.45,1.42.81,0,1.08-.57,1.09-1.32-.06-.83-.42-1.52-1.33-1.52h0Z"/>
  </g>
  <path class="st6" d="M992.56,524.46c-.68-.19-1.26-.47-1.18-1.29.09-.89.67-1.42,1.53-1.4.75.02,1.06.57,1.03,1.35-.04.93-.69,1.12-1.38,1.34h0Z"/>
  <g>
    <path class="st6" d="M753.2,549.22c-.35-1.24-.49-2.41-.26-3.69.18-.99.13-2.03.07-3.03-.03-.51-.2-1.06-.46-1.5-.42-.75-1.06-1.3-2-1.16-.91.14-1.49.76-1.64,1.62-.12.7-.21,1.5.02,2.13.38,1.07,1.01,2.06,1.56,3.06.34.63.83,1.19,1.05,1.84.91,2.67,1.31,5.44,1.48,8.24.39,6.31-.22,12.54-1.57,18.7-1.21,5.54-2.97,10.89-5.64,15.91-.23.44-.51.85-.77,1.26-.3-.62-.6-1.23-.9-1.85h.01c.37-.57.21-1.26-.39-1.67l-.64-.45c-1.31-2.7-2.61-5.37-3.91-8.05.27-.35.56-.74.85-1.12,7.93-10.4,8.01-24.43.18-34.9-11.41-15.23-34.62-17.16-48.4-3.34-7.38,7.41-10.13,16.44-7.96,26.7,1.75,8.26,6.55,14.49,13.65,19,.43.27.87.55,1.25.8-1.11,2.55-2.17,4.99-3.34,7.68-1.91-2.09-3.82-3.88-5.37-5.95-2.32-3.08-4.52-6.26-6.52-9.56-5.52-9.14-8.12-19.12-8.05-29.8.01-1.07.32-1.96.99-2.79.57-.72,1.1-1.47,1.59-2.24.94-1.48,1.21-3.14,1.09-4.86-.05-.76-.31-1.43-1.09-1.73-.79-.31-1.43.06-1.97.56-.34.32-.67.73-.84,1.16-.98,2.39-1.58,4.85-1.07,7.47.07.37.03.76.02,1.15-.17,5.28.19,10.53,1.51,15.66,3.02,11.78,8.97,21.92,17.61,30.44,1.12,1.1,1.49,2.03,1.29,3.31-.01.02-.03.02-.04.04-.24.31-.3.66-.21.99-2.36,7.58-4.16,15.29-4.64,23.25-.08,1.48.09,2.98.15,4.47,0,.14.02.35.11.41.29.19.62.33.93.5.03-.07.08-.14.12-.21l2.43,2.41c.58.58,1.64.67,2.36.2.37-.25.58-.59.62-.94l5.32,1.66c.19.06.4.09.6.09.59,0,1.15-.25,1.46-.67.41-.58.25-1.31-.39-1.73l-1.47-.98,8.81,3.1c.79.27,1.7.03,2.13-.57.43-.59.24-1.35-.45-1.76l-5.79-3.47,14.16,5.31c.79.3,1.73.06,2.17-.55.43-.6.22-1.38-.49-1.78l-9.05-5.12,18.09,7.43c.78.33,1.74.11,2.2-.5s.25-1.4-.47-1.81l-16.09-9.15,25.89,11.07c.8.34,1.78.12,2.24-.51.46-.62.22-1.43-.53-1.82l-17.26-9.07,20.15,8.59c.29.13.61.15.92.13.07.32.25.59.7.57.57-.02.68-.47.67-.93-.02-1.93.04-3.87-.1-5.78-.14-1.85-.31-3.69-.5-5.53.02-.02.05-.03.06-.05.41-.54.29-1.22-.24-1.65-.11-1-.21-2-.33-3-.13-1.02-.26-2.05-.4-3.07.05-.2.02-.38-.07-.55-.24-1.71-.51-3.41-.85-5.1-.13-.66-.29-1.31-.46-1.97-.02-.09-.05-.19-.08-.28-.39-1.44-.85-2.87-1.28-4.3-.2-.66-.14-1.18.22-1.76,1.92-3.09,3.35-6.41,4.54-9.84,2.34-6.75,3.63-13.71,3.98-20.84.22-4.69-.01-9.37-1.27-13.93h0ZM751.54,545.47c-1.58-1.36-1.87-3.11-.74-4.35,1.53,1.25.57,2.9.74,4.35ZM676.37,540.97c.22-.52.49-1.04,1.15-1.14.68,2.12-.01,4.23-2.17,6.48-.08-1.97.32-3.68,1.02-5.34h0ZM744.5,595.96c.29.91.55,1.83.8,2.76l-9.55-4.16,6.97,1.75c.64.19,1.33.03,1.78-.35h0ZM742.9,591.43c.28.72.56,1.45.82,2.17l-5.1-2.98,3.61.79c.22.05.45.05.67.02ZM740.72,586.59c.1.19.18.39.28.58l-.61-.42c.12-.04.23-.1.33-.16h0ZM739.48,584.13l-3.49-.33c.78-.64,1.55-1.3,2.31-2.01.4.79.79,1.57,1.18,2.34ZM685.48,568.64c-.6-2.22-.77-4.55-.99-5.92.26-9.76,3.77-17.03,10.6-22.59,11.32-9.23,28.1-9.07,39.33.28,14.3,11.92,13.57,33.48-1.68,44.17-4.92,3.45-10.06,5.38-15.35,5.82l-.4-.11h-5.43c-3.21-.38-6.47-1.28-9.75-2.72-8.36-3.67-13.94-10.02-16.33-18.93h0ZM734.91,587.22l-2.8-.61c.33-.21.66-.43.98-.66.03.03.05.06.09.08l1.73,1.19h0ZM731.59,590.45l-4.65-1.11c.52-.22,1.03-.46,1.54-.71l3.11,1.82h0ZM724.74,592.41l-4.25-1.16c.37-.07.73-.15,1.09-.23l3.16,1.39h0ZM714.95,593.95c-6.62-2.55-14.05-4.08-14.51-4.28l-.03.04c-.36-.16-.66-.25-.93-.29.17-.33.34-.65.5-.96,1.61.67,3.19,1.21,4.76,1.67-.16-.02-.33-.04-.49-.07,3.38,1.17,7.56,2.38,10.7,3.89h0ZM698.39,591.81c.06.04.12.08.19.12h.01c.18.1,7.42,2.26,14.07,5.78l-13.93-4.66c-.25-.11-.52-.14-.78-.14.14-.37.29-.74.44-1.1h0ZM697.02,595.38l23.99,11.52-24.18-9.13c-.18-.08-.37-.12-.56-.14.24-.75.49-1.5.75-2.25ZM694.36,604.25c.1.1.21.18.35.26l16.83,8.84-16.18-6.92c-.51-.22-1.1-.19-1.58.02.19-.73.38-1.47.58-2.2h0ZM692.65,625.24c-.53-.16-1.1-.1-1.54.14-.03-.47-.05-.94-.05-1.4l2.18,1.44-.59-.18ZM692.29,621.35c-.36-.13-.73-.13-1.08-.06.06-.69.13-1.38.2-2.07,0,.01.03.03.04.04l7.25,4.34-6.41-2.25ZM693.17,616.94c-.5-.19-1.05-.14-1.51.06.13-.97.28-1.93.45-2.89l12.81,7.24-11.75-4.41ZM693.65,611.69c-.34-.14-.71-.16-1.05-.11.21-1.04.44-2.07.68-3.09.09.09.2.17.32.24l18.59,10.58-18.54-7.62h0ZM696.41,602.17c-.48-.2-1.03-.18-1.49,0,.17-.64.36-1.27.54-1.9l26.55,12.82-25.6-10.92ZM748.52,621.99c.01.76-.01,1.53-.01,2.3l-20.9-11.42,20.64,9.04c.09.04.18.06.27.08ZM748.27,618.64l-19.49-10.74,18.41,8.1c.27.12.56.15.84.14.08.84.16,1.67.24,2.5ZM747.27,608.95c.17,1.36.32,2.73.46,4.09l-24.02-12.72c4.54,1.75,9.99,3.84,16.52,6.35,3.38,1.3,5.6,2.15,5.75,2.21.42.16.88.18,1.29.07h0ZM745.99,601.58c.26,1.15.49,2.3.69,3.46.07.37.11.74.17,1.11-.32-.17-.67-.34-1.09-.54l-4.85-2.34c-4.02-1.93-9.38-4.51-14.74-7.09l-2.47-1.18,21.08,6.57c.4.13.83.12,1.21.01h0Z"/>
    <path class="st6" d="M730.1,479.16c-4.07-3.82-8.99-5.5-14.05-5.6-5.82.04-10.69,1.57-14.72,5.15-5.13,4.57-7.3,10.27-5.54,17.06,1.32,5.11,4.67,8.7,9.28,11.11.89.47,1.41,1.05,1.72,1.98.98,2.97,1.3,6.04,1.41,9.12.1,2.98,1.1,5.47,3.43,7.34,1.72,1.39,3.71,2.09,5.93,1.81,4.31-.56,7.15-4.01,6.97-8.36-.04-.81-.09-1.64-.03-2.45.19-2.65.43-5.29.66-7.93.09-1.04.64-1.69,1.54-2.27,1.33-.86,2.62-1.83,3.74-2.94,6.89-6.85,6.74-17.37-.34-24.02h0ZM713.18,499.38c.92-1.03,1.72-1.92,2.51-2.81.79.44,1.62.91,2.47,1.38-.34,2.95-.94,5.94-.96,8.94-.01,3,.56,6.01.88,9.11h-3.8c.19-5.78,1.51-11.53-1.1-16.62ZM723.12,517.05c-.18.98-.8,1.06-1.26,1.13-1.67.25-3.34.53-5.02.56-2.08.03-4.13-.33-6.11-1-.57-.18-1.28-.28-1.04-1.3,4.4,1.21,8.85,1.21,13.43.61ZM717.66,525.75c-2.72.39-5.57-1.1-6.89-3.69,6.37,1.2,6.18,1.08,11.48.03-.32,1.73-2.32,3.33-4.59,3.66h0ZM722.47,520.32c-1.04.37-2.09.78-3.17.97-3,.54-5.94.21-8.81-.82-.75-.27-.83-.81-.78-1.7,4.51,1.51,8.91,1.71,13.37.61.05.1.09.21.14.31-.25.22-.47.53-.75.63h0ZM725.66,505.15c-.8.44-1.29,1.01-1.46,1.84-.25,1.28-.48,2.56-.64,3.85-.19,1.52-.29,3.06-.44,4.73-.81.13-1.48.25-2.14.33-.38.05-.76.01-1.11.01-1.76-4.55-1.74-12.92.03-17.91.38-.13.79-.25,1.19-.41,1.53-.63,2.78-1.62,3.35-3.21.27-.73.37-1.62.23-2.38-.24-1.37-1.44-1.82-2.64-1.13-1.01.58-1.64,1.5-2.09,2.53-.45,1-.83,2.03-1.29,3.18-.58-.3-1.11-.51-1.57-.83-.56-.39-.74-.9-.52-1.63.29-.96.41-1.98.59-2.97.03-.19.01-.39-.01-.58-.08-1.17-.61-1.9-1.37-1.93-.75-.04-1.27.46-1.4,1.71-.11,1.13-.16,2.34.14,3.42.29,1.04.09,1.78-.56,2.49-.48.52-1.02.97-1.6,1.51-.51-.59-.88-1.09-1.33-1.51-.45-.43-.93-.84-1.46-1.16-.57-.34-1.22-.37-1.78.06-.6.47-.7,1.12-.56,1.83.2,1.05.85,1.76,1.81,2.09.8.29,1.67.38,2.61.58,1.04,1.54,1.61,3.4,1.62,5.35.02,3.27-.14,6.55-.24,9.82-.01.27-.15.54-.28,1.01-.98-.26-1.9-.49-2.81-.75-.71-.2-.66-.87-.78-1.42-.36-1.64-.64-3.31-1.06-4.94-.39-1.5-1.24-2.6-2.75-3.3-1.99-.91-3.64-2.36-5.06-4.03-5.1-6.03-4.93-14.35.44-20.19,3.02-3.29,6.79-5.22,11.15-5.96,5.3-.91,10.3,0,14.82,2.98,4.25,2.8,6.88,6.69,7.39,11.86.32,3.33-.54,6.41-2.3,9.23-1.53,2.47-3.59,4.42-6.12,5.83h0ZM720.61,496.2c-.09-1.63,1.05-3.54,2.49-4.18.76,1.58-.24,3.25-2.49,4.18ZM710.51,497.86c-1.39.01-1.74-.29-1.81-1.56.89.21,1.33.86,1.81,1.56Z"/>
    <path class="st6" d="M688.7,492.41c.08.66-.52.75-.98.83-.9.15-1.81.28-2.72.36-1.83.14-3.66.24-5.49.36.01.02.01.04.01.06-.53,0-1.06.01-1.59,0-.46,0-.94-.1-.89-.69.03-.5.47-.5.87-.53,2.26-.17,4.52-.35,6.77-.56.96-.08,1.92-.23,2.87-.34.48-.05,1.06-.17,1.15.51h0Z"/>
    <path class="st6" d="M689.61,483.22c-.31.23-.61.46-.81.61-.64-.18-1.06-.28-1.47-.42-2.58-.93-5.16-1.86-7.75-2.8-.22-.08-.49-.14-.64-.3-.16-.19-.34-.53-.27-.71.06-.18.42-.33.66-.36.22-.02.46.12.69.2,2.97,1,5.94,1.98,8.89,3.01.29.1.47.51.7.77h0Z"/>
    <path class="st6" d="M690.17,502.28c-1.25.81-2.49,1.63-3.76,2.42-1.02.64-2.06,1.24-3.09,1.85-.25.14-.52.25-.83.41-.18-.13-.45-.23-.52-.41-.07-.17-.01-.48.11-.63.18-.22.45-.35.7-.51,1.93-1.25,3.87-2.5,5.81-3.75.29-.18.58-.35.87-.51.4-.22.84-.39,1.15.09.32.5-.07.8-.44,1.04h0Z"/>
    <path class="st6" d="M746.51,507.31c-.46.24-.72.47-.98.47s-.52-.22-.75-.38c-2.03-1.37-4.05-2.75-6.08-4.13-.41-.29-1.11-.51-.7-1.17.41-.65.96-.14,1.37.13,2.05,1.33,4.1,2.68,6.13,4.05.33.23.57.58,1.01,1.03h0Z"/>
    <path class="st6" d="M747.54,482.36c-.34.38-.51.68-.76.84-2.25,1.39-4.51,2.76-6.77,4.13-.16.1-.37.24-.52.2-.29-.07-.6-.22-.8-.43-.06-.06.15-.54.34-.67,1.37-.89,2.76-1.74,4.15-2.6.9-.55,1.8-1.11,2.71-1.64.24-.15.53-.35.78-.33.26.02.5.28.87.5h0Z"/>
    <path class="st6" d="M748.65,495.39c-.01.66-.62.64-1.09.64-1.21.02-2.42.01-3.62.01v.18h-2.75c-.34,0-.71.07-1-.05-.26-.11-.42-.44-.63-.67.22-.16.41-.42.65-.46.56-.11,1.15-.15,1.72-.17,1.84-.05,3.67-.08,5.5-.12.05-.01.1-.01.15,0,.47.02,1.08-.04,1.07.64h0Z"/>
    <path class="st6" d="M728.39,551.93c-.26-.17-.86.11-1.26.3-1.32.59-2.57,1.34-3.92,1.83-3.94,1.4-8.03,1.62-12.15,1.23-2.61-.24-5.13-.87-7.38-2.32-.47-.31-.88-.54-1.43-.12-.6.44-.53.93-.35,1.53,1.86,5.97,8.08,10.53,14.4,10.66,1.32-.25,2.67-.4,3.95-.78,4.84-1.45,8.52-6.25,8.55-11.08.01-.43-.12-1.07-.41-1.25h0ZM727.14,555.15c-1.56,6.07-7.46,9.53-13.84,8-4.39-1.06-7.52-3.77-9.51-7.81-.06-.13-.09-.27-.13-.41-.01-.03.04-.08.11-.23,3.72,1.77,7.7,2.27,11.78,2.11,4.04-.16,7.92-.99,11.8-3.04-.1.65-.12,1.02-.21,1.38h0Z"/>
    <path class="st6" d="M702.97,547.95c-.03-1.25-.93-2.26-2-2.21-.9.04-1.63,1.05-1.62,2.23.02,1.3.86,2.27,1.95,2.27,1.02,0,1.7-.93,1.68-2.28h-.01Z"/>
    <path class="st6" d="M727.85,548.99c.7-.03,1.34-.28,1.67-.94.17-.33.2-.73.31-1.14-.16-.44-.26-.92-.48-1.33-.28-.53-.75-.91-1.4-.84-.69.07-1.2.49-1.28,1.17-.08.64-.07,1.33.06,1.96.11.54.37,1.15,1.11,1.12h.01Z"/>
  </g>
  <g class="st8">
    <text class="st7" transform="translate(231.52 686.04)"><tspan x="0" y="0">Discover</tspan></text>
  </g>
  <g class="st8">
    <text class="st7" transform="translate(485.53 686.04)"><tspan x="0" y="0">Define</tspan></text>
  </g>
  <g class="st8">
    <text class="st7" transform="translate(713.95 686.04)"><tspan x="0" y="0">Ideate</tspan></text>
  </g>
  <g class="st8">
    <text class="st7" transform="translate(954.22 686.04)"><tspan x="0" y="0">Design</tspan></text>
  </g>
  <g>
    <path class="st10" d="M297.24,511.57c-.49-2.51-1.34-4.9-3.07-6.87-1.73-1.96-3.47-2.42-5.85-1.47-5.16,2.07-10.32,4.15-15.45,6.29-.61.25-1.39.85-1.5,1.41-.28,1.43-1.28,1.75-2.39,2.09-5.14,1.59-10.27,3.21-15.41,4.78-1.49.45-2.94.84-3.09,2.91-4.08-6.87-9.46-12.18-16.51-15.71-7.14-3.56-14.68-4.75-22.56-3.66-7.85,1.09-14.68,4.43-20.43,9.83-7.58,7.11-11.71,15.92-12.06,26.34-.45,13.41,5.04,24.09,15.64,32.45-1.29.84-2.42,1.64-3.61,2.32-5.44,3.09-10.55,6.64-15.39,10.57-1.72,1.41-3.25,3.07-4.78,4.69-1.57,1.65-1.71,3.61-.62,5.53.96,1.66,1.99,3.35,3.3,4.74,2.27,2.42,4.76,4.63,7.19,6.9.33.32.8.49,1.13.69-1.42,1.53-2.61,2.66-3.6,3.94-.61.79-1.01,1.78-1.34,2.73-.26.78-.05,1.58.66,2.12.7.52,1.53.65,2.21.15.91-.66,1.71-1.48,2.5-2.29.38-.39.64-.91,1.02-1.48,0,1.92,0,3.6,0,5.29v.96c-.07.07-.14.14-.2.21-.49.65-.38,1.47.23,2.02,0,.57.02,1.14.05,1.71.02.56.1.97.22,1.27-.4.6-.35,1.33.19,1.86l3.44,3.41c.74.73,2.06.84,2.97.25.46-.3.72-.73.77-1.18l6.66,2.08c.25.08.51.12.76.12.73,0,1.43-.31,1.82-.84.52-.72.32-1.64-.48-2.17l-1.84-1.22,11.03,3.87c.98.35,2.13.05,2.67-.7s.29-1.7-.57-2.21l-7.24-4.35,17.73,6.66c.99.37,2.16.07,2.71-.69s.28-1.73-.61-2.24l-11.34-6.4,22.66,9.3c.98.41,2.19.13,2.76-.63s.32-1.75-.59-2.26l-20.15-11.47,32.43,13.87c1,.43,2.23.15,2.81-.64.57-.78.28-1.78-.67-2.28l-21.62-11.35,25.24,10.76c.98.42,2.21.14,2.79-.63.41-.55.38-1.21.01-1.73.13-.62.2-1.27.25-1.91.07-.85.13-1.7.17-2.55.11-.09.21-.19.29-.3.48-.63.38-1.43-.2-1.97.2-6.74-.38-13.44-1.61-20.09-1.44-7.87-3.47-15.57-6.9-22.85-.09-.19-.1-.43-.2-.86.62.26,1.03.47,1.45.63,1.93.71,3.81,1.57,5.79,2.1,3.67.97,6.13-.45,7.37-3.99.08-.23.18-.46.22-.69.53-2.97,1.25-5.93,1.54-8.92.7-7.3.05-14.62.12-21.94.02-2.34.2-4.39,1.94-6.06.37-.37.77-.79,1.24-.95,2.11-.74,4.25-1.39,6.38-2.1.57-.19,1.06-.18,1.46.32.74.94,1.68.81,2.64.5,4.21-1.34,8.4-2.69,12.6-4.04.46-.15,1-.28,1.31-.6,1.78-1.84,3.21-3.87,3.62-6.52.35-2.31.33-4.58-.12-6.86h0ZM182.56,604.02c-3.5-2.8-6.84-5.77-9.48-9.42-2.62-3.59-2.54-4.7.63-7.72,1.88-1.78,3.89-3.45,5.94-5.02,4.18-3.2,8.53-6.14,13.1-8.76.18-.1.4-.16.96-.38-4.69,10.33-8.07,20.72-9.72,31.89-.62-.25-1.1-.33-1.43-.59h0ZM264.57,556.58c-.06,3.51-.56,6.99-1.38,10.41-.21.87-.46,1.76-.82,2.59-.74,1.76-1.94,2.52-3.85,2.34-3.19-.29-6-1.72-8.81-3.14-2.12-1.08-2.53-3.25-3.74-5.12,7.21-8.9,10-18.92,8.67-30.05.23-.09.4-.2.43-.17,1.06.97,2.25.92,3.52.52,1.44-.45,2.9-.83,4.4-1.26.96.61,1.45,1.47,1.45,2.67,0,2.42.11,4.84.13,7.25.02,4.66.08,9.31,0,13.96h0Z"/>
    <g>
      <path class="st6" d="M297.24,511.57c-.49-2.51-1.34-4.9-3.07-6.87-1.73-1.96-3.47-2.42-5.85-1.47-5.16,2.07-10.32,4.15-15.45,6.29-.61.25-1.39.85-1.5,1.41-.28,1.43-1.28,1.75-2.39,2.09-5.14,1.59-10.27,3.21-15.41,4.78-1.49.45-2.94.84-3.09,2.91-4.08-6.87-9.46-12.18-16.51-15.71-7.14-3.56-14.68-4.75-22.56-3.66-7.85,1.09-14.68,4.43-20.43,9.83-7.58,7.11-11.71,15.92-12.06,26.34-.45,13.41,5.04,24.09,15.64,32.45-1.29.84-2.42,1.64-3.61,2.32-5.44,3.09-10.55,6.64-15.39,10.57-1.72,1.41-3.25,3.07-4.78,4.69-1.57,1.65-1.71,3.61-.62,5.53.96,1.66,1.99,3.35,3.3,4.74,2.27,2.42,4.76,4.63,7.19,6.9.33.32.8.49,1.13.69-1.42,1.53-2.61,2.66-3.6,3.94-.61.79-1.01,1.78-1.34,2.73-.26.78-.05,1.58.66,2.12.7.52,1.53.65,2.21.15.91-.66,1.71-1.48,2.5-2.29.38-.39.64-.91,1.02-1.48,0,1.92,0,3.6,0,5.29v.96c-.07.07-.14.14-.2.21-.49.65-.38,1.47.23,2.02,0,.57.02,1.14.05,1.71.02.56.1.97.22,1.27-.4.6-.35,1.33.19,1.86l3.44,3.41c.74.73,2.06.84,2.97.25.46-.3.72-.73.77-1.18l6.66,2.08c.25.08.51.12.76.12.73,0,1.43-.31,1.82-.84.52-.72.32-1.64-.48-2.17l-1.84-1.22,11.03,3.87c.98.35,2.13.05,2.67-.7s.29-1.7-.57-2.21l-7.24-4.35,17.73,6.66c.99.37,2.16.07,2.71-.69s.28-1.73-.61-2.24l-11.34-6.4,22.66,9.3c.98.41,2.19.13,2.76-.63s.32-1.75-.59-2.26l-20.15-11.47,32.43,13.87c1,.43,2.23.15,2.81-.64.57-.78.28-1.78-.67-2.28l-21.62-11.35,25.24,10.76c.98.42,2.21.14,2.79-.63.41-.55.38-1.21.01-1.73.13-.62.2-1.27.25-1.91.07-.85.13-1.7.17-2.55.11-.09.21-.19.29-.3.48-.63.38-1.43-.2-1.97.2-6.74-.38-13.44-1.61-20.09-1.44-7.87-3.47-15.57-6.9-22.85-.09-.19-.1-.43-.2-.86.62.26,1.03.47,1.45.63,1.93.71,3.81,1.57,5.79,2.1,3.67.97,6.13-.45,7.37-3.99.08-.23.18-.46.22-.69.53-2.97,1.25-5.93,1.54-8.92.7-7.3.05-14.62.12-21.94.02-2.34.2-4.39,1.94-6.06.37-.37.77-.79,1.24-.95,2.11-.74,4.25-1.39,6.38-2.1.57-.19,1.06-.18,1.46.32.74.94,1.68.81,2.64.5,4.21-1.34,8.4-2.69,12.6-4.04.46-.15,1-.28,1.31-.6,1.78-1.84,3.21-3.87,3.62-6.52.35-2.31.33-4.58-.12-6.86h0ZM250.49,522.56c.48,1.81.78,3.35,1.3,4.8.52,1.47,1.26,2.85,1.97,4.44-1.71.69-3.41,1.4-5.13,2.07-.89.36-1.8.67-2.71.98-1.78.61-2.63.41-3.74-1.07-1.36-1.81-2.05-3.91-2.29-6.36,3.5-1.61,6.97-3.2,10.6-4.86ZM183.12,552.43c-7.28-18.41,1.38-38.93,19.09-46.61,20-8.67,39.26,1.72,46.46,15.8-2.94,1.31-5.75,2.56-8.56,3.82-1.79.79-2.08,1.13-1.67,3.05.39,1.76.94,3.51,1.7,5.14.46.98,1.39,1.79,2.23,2.55.96.86,2.05.99,3.34.46,2.28-.93,4.63-1.68,7.16-2.57,1.02,7.33-.07,14.19-3.23,20.69-3.9,8.01-9.87,13.83-17.82,17.38-.6.02-1.14.26-1.51.63-.33.13-.65.27-.98.39-2.06.76-4.15,1.31-6.24,1.67h-.04c-.74-.23-1.55-.08-2.11.32-15.89,1.8-31.68-7.21-37.82-22.72h0ZM234.55,572.64c.61-.34,1.23-.68,1.84-1.05.12.2.29.39.51.54l2.17,1.49-4.52-.98h0ZM234.91,577.66l-7.96-1.9c1.06-.31,2.12-.66,3.17-1.07.14.19.33.37.57.51l4.22,2.46ZM221.66,598.26l-30.29-11.43c-.41-.18-.87-.23-1.31-.18.35-1.05.71-2.1,1.09-3.14.12.11.25.22.41.31l30.1,14.44ZM192.16,580.79c.24-.63.48-1.25.73-1.87.16.23.38.44.67.59.19.1.2.1.02,0,.22.12,9.29,2.83,17.62,7.24l-17.44-5.84c-.51-.22-1.08-.25-1.6-.13h0ZM215.07,577.04c1.78.12,3.54.1,5.28-.05.16.36.46.68.9.89l5.08,2.24-11.26-3.08ZM195.79,571.94c.11-.26.3-.5.41-.68.94.49,1.86.95,2.79,1.39l-.82-.22c-1.02-.34-2.19.02-2.68.81-.49.8-.14,1.76.81,2.22,4.29,2.06,12.3,3.96,17.77,6.59-8.29-3.2-17.6-5.11-18.17-5.36l-.04.04c-.86-.37-1.45-.48-1.97-.3.62-1.5,1.25-2.99,1.9-4.49h0ZM178.41,612.79c.43-2.31,1.94-3.68,3.61-5.25-.41,2.94-1.66,4.75-3.61,5.25ZM182.56,604.02c-3.5-2.8-6.84-5.77-9.48-9.42-2.62-3.59-2.54-4.7.63-7.72,1.88-1.78,3.89-3.45,5.94-5.02,4.18-3.2,8.53-6.14,13.1-8.76.18-.1.4-.16.96-.38-4.69,10.33-8.07,20.72-9.72,31.89-.62-.25-1.1-.33-1.43-.59h0ZM188.71,595.27l21.09,11.07-20.27-8.66c-.89-.38-1.96-.2-2.59.4.19-.91.39-1.82.61-2.74.09-.35.19-.71.28-1.07.13.4.43.76.88,1h0ZM186.13,621.24c-.35-.11-.71-.12-1.06-.07-.02-.16-.04-.32-.05-.47-.02-.16-.03-.32-.04-.48l1.9,1.25-.75-.23h0ZM185.68,616.37c-.25-.09-.51-.13-.76-.14,0-.76.03-1.52.06-2.28l8.74,5.24-8.04-2.82h0ZM186.79,610.85c-.53-.2-1.11-.2-1.63-.05.09-1.16.19-2.33.32-3.48l16.02,9.05-14.71-5.52ZM187.39,604.27c-.49-.2-1.03-.23-1.52-.13.21-1.44.46-2.88.73-4.31.15.28.39.54.73.73l23.29,13.25-23.23-9.54ZM190.85,592.35c-.91-.39-2.02-.18-2.64.46.28-1.05.58-2.09.89-3.13.03.01.05.04.08.05l33.73,16.29-32.06-13.67ZM256.27,620.14l-26.34-14.39,25.85,11.32c.26.11.54.18.82.2-.08.96-.19,1.91-.33,2.87h0ZM256.74,613.5l-25.35-13.98,23.07,10.15c.72.31,1.58.25,2.21-.11.05,1.31.08,2.62.07,3.94h0ZM255.9,599.76c.3,2.3.51,4.62.64,6.95l-31.5-16.68c5.69,2.19,12.52,4.81,20.7,7.95,4.23,1.63,7.01,2.69,7.2,2.77,1.01.4,2.25.09,2.79-.71.07-.1.12-.19.17-.28ZM254.26,590.45c.59,2.62,1.07,5.26,1.44,7.92-.21-.2-.5-.41-.89-.63v-.03s-.07-.03-.19-.08c-.52-.28-1.17-.6-1.95-.98l-6.09-2.93c-5.03-2.42-11.74-5.65-18.46-8.88l-3.08-1.48,26.39,8.23c1.02.33,2.19-.02,2.68-.82.07-.1.11-.21.15-.32h0ZM250.65,578.03s0-.02,0-.03c.07.18.14.35.21.53,1.21,3.47,2.24,6.98,3.08,10.52-.16-.19-.38-.36-.64-.49l-13.19-5.75,8.74,2.19c.99.3,2.09-.05,2.58-.79.5-.75.23-1.68-.62-2.17l-7.11-4.16,4.52.99c.95.21,1.96-.14,2.42-.84h0ZM249.8,575.7l-3.86-2.67c.64-.23,1.12-.71,1.23-1.31.16-.93-.64-1.79-1.79-1.92l-5.52-.52c1.72-1.25,3.42-2.64,5.1-4.19,1.79,3.47,3.43,6.99,4.84,10.61ZM264.57,556.58c-.06,3.51-.56,6.99-1.38,10.41-.21.87-.46,1.76-.82,2.59-.74,1.76-1.94,2.52-3.85,2.34-3.19-.29-6-1.72-8.81-3.14-2.12-1.08-2.53-3.25-3.74-5.12,7.21-8.9,10-18.92,8.67-30.05.23-.09.4-.2.43-.17,1.06.97,2.25.92,3.52.52,1.44-.45,2.9-.83,4.4-1.26.96.61,1.45,1.47,1.45,2.67,0,2.42.11,4.84.13,7.25.02,4.66.08,9.31,0,13.96h0ZM274.32,527.44c-5.01,1.58-10.03,3.14-15.05,4.71-.23.07-.47.11-.7.17-1.67.4-1.89.36-2.87-1.06-1.5-2.16-2.59-4.52-3.02-7.13-.21-1.29-.24-2.61-.37-4.09,6.33-2.03,12.35-3.97,18.61-5.98.27,4.76,2.14,8.84,4.62,12.83-.5.23-.85.43-1.22.55ZM280.35,527.81c-.46.13-.93.24-1.37.35-3.6-2.69-6.76-11.05-6.26-16.73.67-.27,1.43-.57,2.45-.98.11,1,.21,1.86.31,2.73.36,3.32,1.07,6.55,2.68,9.5.88,1.63,1.97,3.14,3.05,4.82-.3.11-.58.23-.86.31h0ZM284.11,526.56c-.36.11-.98-.1-1.26-.38-.85-.85-1.73-1.72-2.34-2.74-2.25-3.75-3.39-7.85-3.58-12.22-.04-1.02.21-1.66,1.28-2.05,2.21-.82,4.36-1.78,6.54-2.68.31-.13.65-.21,1.22-.4-2.19,7.18-.85,13.03,4.15,18.47-2.05.7-4.02,1.4-6.01,2ZM292.02,522.94c-1.43-.18-2.22-1.09-2.91-2.08-1.13-1.6-1.75-3.43-2.09-5.34-.46-2.51-.53-5.04.25-7.5.32-1.01.87-1.93,1.34-2.93,4.06,2.87,5.83,12.38,3.41,17.85h0ZM295.25,519.56c-.03.14-.2.24-.5.58.38-5.61-.33-10.73-3.68-15.18.11-.12.22-.24.33-.36.6.54,1.33.98,1.76,1.63,2.75,4.11,3.37,8.58,2.09,13.33h0Z"/>
      <path class="st6" d="M236.88,550.85c3.86-.03,8.01-2.4,9.93-5.37.32-.49.58-1.01,0-1.43-.57-.41-1,0-1.39.42-.75.79-1.45,1.63-2.28,2.32-3.88,3.22-8.44,3.07-12.11-.38-.61-.58-1.15-1.24-1.71-1.87-.38-.42-.79-.86-1.37-.41-.56.43-.37.96,0,1.43,2.41,3.08,5.35,5.21,8.96,5.29h-.03Z"/>
      <path class="st6" d="M221.6,537.28c.86-.25,1.35-1.08,1.34-2.3,0-1.11-.28-1.82-.96-2.42-.62-.55-1.33-.87-2.14-.52-.78.34-1.27,1.02-1.22,1.84.04.75.24,1.54.59,2.2.53,1.01,1.56,1.43,2.39,1.19h0Z"/>
      <path class="st6" d="M288.59,507.29c-.2.12-.31.64-.23.91.41,1.43.91,2.83,1.34,4.25.15.49.31,1.04.89.87.33-.1.55-.62.82-.96-.39-1.36-.69-2.58-1.09-3.77-.15-.44-.44-.87-.79-1.18-.21-.19-.73-.26-.94-.13h0Z"/>
    </g>
  </g>
  <g>
    <path class="st6" d="M571.95,580.84c-.61-.4-.62-.88-.64-1.42-.13-3.03-.24-6.06-.36-9.09-.16-4.22-.28-8.43-.48-12.64-.11-2.58-.29-2.67-2.66-1.7l-5.22,2.16c-.06-.07-.11-.14-.16-.21.29-.45.58-.91.88-1.35,3.43-5.04,5.46-10.6,5.79-16.67.52-9.46-2.51-17.72-8.93-24.65-13.75-14.84-37.95-15.75-52.96-2.01-6.86,6.29-10.73,14.11-11.14,23.42-.42,9.45,2.92,17.6,9.4,24.48.41.44.83.87,1.5,1.56-.75-.13-1.13-.17-1.49-.26-2.07-.51-4.14-1.05-6.21-1.55-1.3-.31-1.69-.09-1.86,1.15-.3,2.17-.57,4.34-.81,6.52-.37,3.35-.7,6.7-1.04,10.05-.06.52-.1,1.01-.71,1.2-2.17.68-2.99,2.41-3.39,4.43-.45,2.23.3,4.64,2.88,5.33.1.03.17.15.31.28,0,.39.02.84,0,1.28-.09,2.92-.18,5.84-.27,8.76-.05,1.51-.04,1.55,1.45,1.94,1.69.44,3.38.86,5.06,1.31.24.06.48.16.71.25-.05.4.08.8.38,1.13-.01.12-.03.24-.04.35-.14,1.29-.28,2.58-.42,3.86-.05.06-.1.11-.15.17-.37.5-.35,1.1-.02,1.58-.1,1.02-.2,2.03-.29,3.05-.26.13-.49.28-.66.5-.51.67-.33,1.54.42,2.04l3.14,2.09-.69-.22c-.83-.26-1.77-.04-2.29.54-.53.58-.5,1.37.06,1.93l3.2,3.16c.68.68,1.91.78,2.75.23.43-.28.67-.68.72-1.09l6.19,1.93c.23.07.47.11.7.11.68,0,1.33-.29,1.69-.78.49-.67.3-1.52-.44-2.02l-1.71-1.13,10.25,3.6c.91.32,1.98.04,2.48-.66.5-.69.27-1.57-.53-2.05l-6.73-4.04,16.47,6.19c.92.34,2.02.07,2.53-.64.5-.71.26-1.61-.57-2.08l-10.54-5.95,21.06,8.64c.91.38,2.03.12,2.56-.59.53-.7.3-1.62-.54-2.1l-17.27-9.82c.22.03.44.06.66.08l28.01,11.98c.93.39,2.08.13,2.61-.59.53-.73.26-1.67-.62-2.13l-19.55-10.26s.07-.01.1-.02l22.81,9.73c.92.39,2.06.14,2.6-.58.53-.72.28-1.65-.58-2.12l-1.06-.58c.09-.13.17-.27.23-.4.12-.29.08-.67.05-1-.04-.41-.08-.82-.11-1.23.81.17,1.68-.1,2.14-.7.54-.71.29-1.65-.57-2.12l-1.95-1.08c-.04-.35-.07-.71-.11-1.06-.06-.62-.18-1.23-.31-1.87.68.01,1.34-.26,1.72-.76.21-.28.29-.6.27-.91,1.82-.56,1.98-.78,1.98-2.76.01-3.6.01-7.2-.04-10.79-.02-1.02.22-1.72,1.05-2.44,2.67-2.36,2.29-6.94-.69-8.89h0ZM495.6,587.48c-.66.64-1.23.66-1.89.02-.27-.26-.56-.6-.64-.95-.39-1.67-.13-3.24,1.01-4.56.9-1.04,1.93-.91,2.54.32.28.58.36,1.26.54,1.9.05,1.4-.65,2.39-1.56,3.27h0ZM502.85,613.43c-.08-.03-.16-.03-.24-.04.06-.62.12-1.24.18-1.85l7.53,4.51-7.47-2.62h0ZM503.88,608.3c-.25-.09-.51-.14-.77-.14.09-.91.17-1.82.27-2.73l14.17,8.01-13.67-5.14h0ZM516.52,607.15c1.61.41,3.22.83,4.83,1.25l4.67,2.66-9.5-3.91ZM533.23,609.56c-.65-.05-1.31-.12-1.98-.23-3.97-1.02-7.95-2.05-11.92-3.07-.05-.02-.1-.04-.15-.05-.03-.01-.06-.01-.1-.02-4.39-1.13-8.78-2.27-13.18-3.4l-1.47-.6c-.43-.18-.9-.21-1.34-.13-2.32-.59-4.63-1.19-6.95-1.79,0-2.32-.01-4.54.01-6.77,0-.67.12-1.35.11-2.02-.02-1.42.23-2.63,1.11-3.9,1.36-1.97,1.34-4.22.16-6.4-.27-.51-.51-1.15-.45-1.71.53-5.47,1.13-10.94,1.72-16.42.01-.1.09-.2.26-.53,11.59,2.94,23.11,5.86,34.54,8.76-.12,12.82-.24,25.46-.37,38.28h0ZM532.99,569.47c-7.06-1.84-14.14-3.62-21.22-5.39-.9-.23-1.66-.55-2.27-1.3-.45-.56-1.07-.98-1.6-1.48-13.92-13.08-13.67-34.3.58-47.02,6.02-5.38,13.11-8.39,21.16-9,11.16-.85,20.87,2.53,28.78,10.5,6.04,6.09,9.07,13.54,9.14,21.31-.05,8.26-2.54,14.78-7.05,20.63-1.1,1.43-2.41,2.34-4.06,3.01-6.93,2.79-13.82,5.66-20.71,8.55-.93.39-1.76.44-2.75.19ZM553.93,609.01c.59-.1,1.17-.21,1.76-.31l11.29,4.94c.03.52.06,1.04.08,1.56.01.33,0,.66.01.99l-13.14-7.18ZM562.69,607.35c.63-.13,1.26-.25,1.89-.38.4-.09.82-.11,1.29-.15l.09.03c.22.87.4,1.74.54,2.6l-3.81-2.1ZM570.02,603.93c-.5.14-1,.29-1.51.44l-.29-.16c-.73.12-1.46.2-2.18.28-.7.35-1.42.67-2.14.96-6.22,1.34-12.48,2.43-18.78,3.29-.74-.06-1.48-.14-2.22-.25-2.49.77-5.13,1.17-7.85,1.15-.06-.96-.12-1.8-.12-2.65-.04-5.28-.12-10.56-.07-15.85.05-6.06.23-12.13.32-18.2.01-1.2.37-1.91,1.58-2.4,10.3-4.2,20.56-8.47,30.84-12.72.36-.14.74-.25,1.28-.44.08.55.2,1.02.22,1.5.11,3.26.2,6.51.31,9.77.11,3.43.21,6.85.35,10.28.04.93-.11,1.67-.79,2.43-1.35,1.48-1.75,3.36-1.64,5.33.1,1.79,1.1,3.01,2.69,3.88v13.36h0ZM569.6,588.42c-1-1.23-1.03-4.17-.06-5.42.86-1.09,2.05-.99,2.64.28.35.75.53,1.58.78,2.37-.3.93-.49,1.82-.89,2.61-.54,1.07-1.7,1.1-2.47.16h0Z"/>
    <path class="st6" d="M489.18,530.74c-.29.92-1.11.46-1.72.26-3.31-1.06-6.62-2.14-9.92-3.22-.37-.12-.78-.24-1.06-.49-.19-.17-.3-.58-.26-.85.03-.19.38-.32.56-.46.31.1.52.17.73.24,3.48,1.1,6.96,2.19,10.43,3.3.62.19,1.55.29,1.24,1.22h0Z"/>
    <path class="st6" d="M592.22,524.81c.04.24-.21.62-.44.78-.26.18-.63.22-.96.27-3.54.54-7.09,1.08-10.63,1.61-.11.02-.22.04-.54.1-.17-.14-.57-.33-.66-.62-.18-.57.34-.78.78-.86,2.03-.4,4.07-.8,6.11-1.14,1.49-.26,2.99-.44,4.49-.65.39-.05.8-.13,1.17-.05.27.06.64.33.68.56Z"/>
    <path class="st6" d="M494.79,517.5c-.39.23-.72.58-.97.53-.41-.07-.83-.35-1.16-.63-2.47-2.12-4.91-4.26-7.36-6.4-.05-.04-.08-.08-.12-.12-.41-.45-1-.93-.38-1.56.58-.57,1.01.01,1.42.37,2.6,2.31,5.21,4.61,7.8,6.92.24.21.42.49.77.89h0Z"/>
    <path class="st6" d="M591.35,541.28c-.1.33-.52.56-.69.72-.43-.08-.6-.09-.76-.14-3.27-.99-6.54-1.99-9.8-2.99-.21-.06-.46-.16-.58-.32-.14-.2-.28-.53-.21-.73.06-.19.4-.42.61-.41.38,0,.76.16,1.13.27,3.07.89,6.13,1.79,9.2,2.68.16.04.38.01.48.11.25.24.68.61.62.81h0Z"/>
    <path class="st6" d="M487.01,544.74c-1.85.03-3.71.01-5.56.01v.03c-1.52,0-3.04.01-4.55,0-.34,0-.7.06-.99-.05-.21-.07-.44-.39-.45-.6,0-.22.21-.57.41-.63.41-.13.88-.14,1.32-.15,3.09-.07,6.18-.12,9.27-.17.17,0,.37-.07.5,0,.36.2.91.39.99.68.17.64-.42.87-.94.88h0Z"/>
    <path class="st6" d="M582.86,510.25c-.03.4-.02.81-.12,1.19-.04.18-.3.31-.47.46-2.03,1.77-4.05,3.54-6.08,5.31-.25.21-.52.39-.94.7-.21-.39-.53-.71-.49-.98.05-.34.34-.7.62-.95,1.99-1.81,4.01-3.59,6.01-5.38.13-.11.25-.28.4-.3.35-.06.71-.04,1.07-.05h0Z"/>
    <path class="st6" d="M521.85,545.43c-.25.11-.53.69-.43.92.44,1.08.87,2.22,1.55,3.15,2.98,4.12,7.18,5.94,11.42,6.16,3.57.02,6.2-.64,8.5-2.36,2.23-1.67,3.54-3.89,3.72-6.7.04-.63.25-1.53-.73-1.59-.89-.06-.77.8-.83,1.38-.37,3.78-2.63,6-6.05,7.1-6.33,2.04-13.78-1.49-15.92-7.09-.08-.21-.11-.5-.27-.6-.29-.2-.73-.47-.95-.37h0Z"/>
    <path class="st6" d="M546.49,541.05c1.1-.02,2.08-1.18,2.08-2.46,0-1.14-.91-2.07-2.01-2.06-1.18,0-2.19.98-2.2,2.1,0,1.24,1.05,2.43,2.13,2.41h0Z"/>
    <path class="st6" d="M520.36,541.1c1.1,0,1.97-.95,1.94-2.11-.03-1.17-.93-2.15-1.96-2.13-.95.02-1.69.96-1.7,2.15,0,1.22.71,2.09,1.72,2.09h0Z"/>
  </g>
  <line class="st1" x1="287.72" y1="199.76" x2="287.72" y2="452.55"/>
  <line class="st1" x1="966.19" y1="186.6" x2="966.19" y2="465.2"/>
  <line class="st1" x1="391.62" y1="325.9" x2="287.72" y2="325.9"/>
  <line class="st1" x1="631.93" y1="325.9" x2="403.66" y2="325.9"/>
  <line class="st1" x1="862.8" y1="325.9" x2="632.7" y2="325.9"/>
  <g>
    <line class="st4" x1="632.28" y1="148.23" x2="632.28" y2="149.73"/>
    <line class="st5" x1="632.28" y1="152.72" x2="632.28" y2="497.96"/>
    <line class="st4" x1="632.28" y1="499.45" x2="632.28" y2="500.95"/>
  </g>
  <g class="st8">
    <text class="st9" transform="translate(252.31 380.23) rotate(-90)"><tspan x="0" y="0">Background</tspan></text>
    <text class="st9" transform="translate(278.71 364.94) rotate(-90)"><tspan x="0" y="0">Research</tspan></text>
  </g>
  <g class="st8">
    <text class="st9" transform="translate(331.64 424.29) rotate(-90)"><tspan x="0" y="0">User</tspan></text>
    <text class="st9" transform="translate(358.04 451.53) rotate(-90)"><tspan x="0" y="0">Research</tspan></text>
  </g>
  <g class="st8">
    <text class="st9" transform="translate(331.64 262.16) rotate(-90)"><tspan x="0" y="0">User</tspan></text>
    <text class="st9" transform="translate(358.04 287.46) rotate(-90)"><tspan x="0" y="0">Interview</tspan></text>
  </g>
  <g class="st8">
    <text class="st9" transform="translate(468.22 254.04)"><tspan x="0" y="0">User</tspan></text>
    <text class="st9" transform="translate(447.76 280.44)"><tspan x="0" y="0">Persona</tspan></text>
  </g>
  <g class="st8">
    <text class="st9" transform="translate(757.53 266.79)"><tspan x="0" y="0">User</tspan></text>
    <text class="st9" transform="translate(757.31 293.19)"><tspan x="0" y="0">Flow</tspan></text>
  </g>
  <g class="st8">
    <text class="st9" transform="translate(927.77 368.84) rotate(-90)"><tspan x="0" y="0">Wireframe</tspan></text>
  </g>
  <g class="st8">
    <text class="st9" transform="translate(1011.66 367.17) rotate(-90)"><tspan x="0" y="0">Hi-fidelity</tspan></text>
    <text class="st9" transform="translate(1038.06 367.61) rotate(-90)"><tspan x="0" y="0">Prototype</tspan></text>
  </g>
  <g class="st8">
    <text class="st9" transform="translate(726.75 374.26)"><tspan x="0" y="0">Storyboard</tspan></text>
  </g>
  <g class="st8">
    <text class="st9" transform="translate(468.22 364.54)"><tspan x="0" y="0">User</tspan></text>
    <text class="st9" transform="translate(448.24 390.94)"><tspan x="0" y="0">Journey</tspan></text>
    <text class="st9" transform="translate(467.97 417.34)"><tspan x="0" y="0">Map</tspan></text>
  </g>
</svg>