<?xml version="1.0" encoding="UTF-8"?>
<svg id="Layer_1" xmlns="http://www.w3.org/2000/svg" xmlns:xlink="http://www.w3.org/1999/xlink" version="1.1" viewBox="0 0 1080 1080">
  <!-- Generator: Adobe Illustrator 29.2.1, SVG Export Plug-In . SVG Version: 2.1.0 Build 116)  -->
  <defs>
    <style>
      .st0 {
        fill: #fff;
      }

      .st1 {
        fill: #ababab;
      }
    </style>
  </defs>
  <g>
    <rect class="st0" x="3" y="3" width="1074" height="1074" rx="27" ry="27"/>
    <path class="st1" d="M1050,6c13.23,0,24,10.77,24,24v1020c0,13.23-10.77,24-24,24H30c-13.23,0-24-10.77-24-24V30c0-13.23,10.77-24,24-24h1020M1050,0H30C13.43,0,0,13.43,0,30v1020c0,16.57,13.43,30,30,30h1020c16.57,0,30-13.43,30-30V30C1080,13.43,1066.57,0,1050,0h0Z"/>
  </g>
  <path d="M967,964.21h-34.24v-.58h34.24v.58Z"/>
  <path class="st0" d="M898.43,658.28c-.49,3.12-.83,5.27-1.24,7.88-2.44,0-4.74.06-7.04-.01-8.87-.28-17.74-.56-26.61-.99-1.03-.05-2.01-1.04-3.01-1.59,1.05-.54,2.08-1.53,3.14-1.56,8.87-.26,17.75-.34,26.63-.47,1.51-.02,3.02,0,4.52,0,0-.48-.02-.97-.03-1.45-5.8,0-11.6-.03-17.4,0-5.57.04-11.2,1.03-16.7.08l.08-1.89h37.66Z"/>
  <path class="st0" d="M861.11,680.93c-.62-.94-1.34-2.05-2.5-3.81h36.85v5.32c-4.27.2-8.36.33-12.44.58-7.04.44-14.08,1.03-21.12,1.35-1.05.05-2.16-.99-3.24-1.52.92-.72,1.84-1.44,2.45-1.92h0Z"/>
  <path class="st0" d="M896.03,674.35c-1.02.48-2.04,1.36-3.06,1.38-10.03.11-20.07.13-30.11.02-1.01-.01-2-1.04-3.01-1.6.67-.55,1.34-1.57,2.02-1.57,11.19-.1,22.38-.07,33.57-.07.19.62.39,1.24.58,1.85h0Z"/>
  <path class="st0" d="M859.93,669.26c1.14-.37,2.28-1.07,3.41-1.06,9.88.09,19.77.26,29.65.55.98.03,1.93,1.05,2.9,1.6-.97.35-1.93.99-2.9.99-9.59-.03-19.18-.15-28.77-.28-1.28-.02-2.56-.24-3.84-.36-.15-.48-.3-.96-.45-1.44h0Z"/>
  <path class="st0" d="M890.45,685.76h-18.84v-1.12h23.03v4.41h-22.35c.79-1.45,6.85-2.55,18.16-3.29Z"/>
  <path class="st0" d="M914.38,674.57c-4.46,1.1-8.91,2.2-14.13,3.49.37-2.98.64-5.19,1.03-8.32,4.73,1.05,8.94,1.98,13.16,2.91-.02.64-.04,1.28-.06,1.92h0Z"/>
  <path class="st0" d="M859.52,685.5c3.33,1.61,8.03-2.38,10.89,3.1-7.66,2.05-11.28,1.1-10.89-3.1Z"/>
  <path d="M333.09,536.75c5.84-2.97,11.65-6.01,17.55-8.88,1.8-.88,3.84-1.28,5.89-2.78-3.57-1.04-7.14-2.12-10.72-3.11-21.34-5.91-41.21-14.97-58.88-28.39-31.84-24.2-45.06-56.72-42.29-96.21.6-8.58,1.18-17.15,1.65-25.74.05-.91-.69-1.86-1.06-2.78l.09.07c6.15-34.22,16.62-66.74,39.59-93.7,6.54-7.67,14.55-14.44,22.9-20.14,12.19-8.32,25.1-15.65,38.04-22.79,24.82-13.69,51.11-16.83,78.66-9.93,9.04,2.26,18.25,3.79,27.33,5.93,30.93,7.29,55.73,23.93,74.62,49.43-2.57-2.55-5.31-4.96-7.69-7.68-13.36-15.27-30.71-24.8-48.33-33.99-.5-.26-1.15-.22-2.64-.48,15.83,9.56,30.6,19.14,41.75,32.79,10.99,13.46,20.79,27.9,31.02,41.78.05-.94.12-2.25.18-3.56.9,2.9,2.55,3.83,5.83,3.6,35.79-2.5,71.58-4.98,107.4-7.07,35.22-2.06,70.47-3.63,105.71-5.49,4.73-.25,9.45-.83,14.14-1.5,1.26-.18,2.38-1.27,3.53-1.92,4.67,1.26,6.45,5.03,6.19,10.34.52-1.23,1.04-2.46,1.26-3-1.29,13.09-2.8,26.76-3.97,40.47-2.32,27.18-4.05,54.42-6.75,81.56-4.47,44.99-9.51,89.92-14.35,134.87-.6,5.53-1.41,7-4.79,8.96,5.8-62,11.54-123.42,17.29-184.85-.2-.02-.4-.05-.6-.07-4.67,30.43-9.4,60.84-14,91.28-4.62,30.6-9.92,61.12-10.93,92.22,2.72.73,5.05,1.36,7.58,2.05-.96,5.97-7.89.22-8.82,3.78-19.69-1-39.21-.74-58.32-1.11,5.75,6.97,11.95,13.52,16.99,20.86,5.04,7.33,8.94,15.46,13.34,23.24-.44.29-.89.59-1.33.88-1.6-2.15-3.32-4.21-4.78-6.45-7.95-12.17-15.82-24.34-26.69-34.29-3.64-3.33-7.23-5.27-12.2-4.91-3.66.27-7.35.05-11.68.05-.98,15.52-1.94,30.65-2.92,46.22,7.42.35,14.12.67,20.81.98,0,.37-.01.73-.02,1.1h-19.51c-.02.41-.03.82-.05,1.23,9.93,1.53,20.47-1.52,30.44,3.35-1.83.57-3.25,1.01-4.66,1.45-.04.41-.09.82-.13,1.23,4.28,1.02,8.55,2.08,12.85,2.99.52.11,1.33-.53,1.82-1.02,14.88-14.99,32.77-16.32,51.93-11.22,8.79,2.34,16.62,6.79,22.28,13.93,3.21,4.05,5.03,9.21,7.95,14.77,23.72,1.26,48.67,2.58,73.62,3.91-.02.33-.03.65-.05.98-25.11-1.02-50.22-2.03-75.49-3.06-.27,1.86-.48,3.28-.87,6.01,13.52,0,26.7-.26,39.86.05,25.79.61,51.6,1.24,77.36,2.53,7.75.39,15.39,3.01,23.08,4.6-.06.38-.11.76-.17,1.14-5.37-.84-10.73-1.69-16.14-2.54-.28.51-.59.85-.65,1.23-.96,6.92-.94,6.89,5.64,8.83,2.12.62,4.32,1.21,6.25,2.25,2.92,1.58,2.86,3.89-.21,5.12-2.86,1.15-5.93,1.97-8.98,2.39-3.26.45-5.08,1.62-5.07,5.2,0,2.16-.61,4.32-1,6.86,6.89-.37,13.49-.71,20.09-1.06.01.16.02.32.04.48-5.87.64-11.74,1.43-17.63,1.86-2.66.19-3.57,1.19-3.65,3.78-.08,2.47-.7,4.93-1.67,7.34.2-3.28.4-6.56.6-9.78-7.75,0-15.12.03-22.49-.02-2.75-.02-3.03,1.77-3.08,3.84-.21,9.34-.45,18.68-.63,28.02-1.17,59.63-5.3,119.09-10.31,178.5-1.24,14.76-2.88,29.48-4.38,44.68h68.13v1.52c-21.05,0-42.1.1-63.15-.09-3.8-.03-5.66.66-5.93,4.87-.35,5.59-1.39,11.13-2.2,17.22,38.48.74,76.62,1.48,114.76,2.22,0,.39-.01.78-.02,1.16-37.84-.7-75.68-1.4-113.67-2.1-.08,1.68-.15,2.95-.17,3.39,2.32.89,4.71,1.35,6.44,2.66.94.71,1.31,3.05.92,4.36-.29.96-2.2,1.96-3.42,2.02-5.02.22-10.05.09-15.76.09.21-4.04.42-8.05.66-12.64h-23.03c.21,1.34.5,3.23.79,5.12-.34.06-.69.12-1.03.18-.56-1.01-1.12-2.02-1.68-3.03v-3.56h26.91c.73-7.19,1.43-14.01,2.15-21.11h-6.21c-.29,1.31-.56,2.57-.94,4.32-.25-1.85-.44-3.22-.66-4.8h-20.31c.39-1.69,1.03-3.26,1.07-4.85.29-13.63.5-27.27.69-40.9.38-27.27.8-54.54,1.07-81.81.15-14.66.03-29.33.03-43.99-1.64,27.73-5.12,55.41-6,83.16-1.13,35.67-.2,71.4,0,107.11.01,2.12,1.5,4.22,2.3,6.34.77,11.46-1.92,13.15-13.34,11.87-13.37-1.5-26.9-1.57-40.37-2.22-2.17-.1-4.34,0-6.51,0,.01-.38.03-.77.04-1.15h43.25v-11.31h-36.5v-.99h41.17c-.4-7.01-.78-13.72-1.18-20.91h-30.68v-1.07h30.56c.77-72.8,4.92-145,.92-217.24-2,38.14-4,76.27-6,114.41-.17,0-.34-.01-.51-.02,1.75-51.22,3.5-102.45,5.25-153.9-102.45-2.64-203.64-5.25-305.23-7.88.1,1.73.18,3.09.26,4.54,96.55,4.58,192.71,9.14,288.88,13.7-.02.52-.05,1.03-.07,1.55-96.01-4.54-192.01-9.08-288.13-13.62.51,19.05,1,37.49,1.49,55.93h-.45c-.97-18.63-1.95-37.26-2.95-56.36-2.36-.12-4.18-.22-6.55-.34,1.15,21.94,1.52,43.53-3.46,65.04.87-2.11,1.81-4.19,2.59-6.34.8-2.19,1.45-4.43,2.9-6.5-.63,4.12-1.25,8.24-2.04,13.42,3.31-3.45,5.64-1.98,8.67-1.08,7.01,2.07,14.33,3.34,21.62,4.21,8.79,1.05,17.74.86,26.47,2.22,4.15.65,7.83,3.88,11.89,5.55,10.29,4.23,15.06,13.02,19.11,22.49.16.38.21.81-.04,1.39-1.95-3.41-3.91-6.81-5.86-10.22-.29.13-.58.26-.86.39,1.27,3.66,2.55,7.31,3.82,10.97-.19.06-.39.12-.58.19-2.23-4.61-4.47-9.21-6.88-14.19,1.99,9.74,4.92,18.9,5.55,28.22,1.53,22.46,3.11,45.03,2.52,67.5-.47,18.21.53,36.02,4.02,53.8.51,2.61.89,5.24.48,8.03-1.73-9.75-3.46-19.51-5.19-29.26-.43.07-.86.14-1.3.21,1.89,12.71,3.77,25.41,5.71,38.48,4.89-1.11,9.17-2.1,13.45-3.05,9.7-2.15,19.45-2.96,29.36-1.6,8.54,1.17,12.24,5.09,11.76,13.81-.3,5.55-1.4,11.06-2.23,17.19,5.45.37,11.58.59,17.67,1.23,11.19,1.17,22.38,2.4,33.52,4,2.95.42,5.69,2.31,8.52,3.52l-.32,1.77c-1.75.35-3.5,1.01-5.24,1-20.61-.06-41.22-.28-61.84-.31-3.29,0-6.58.71-11.09,1.24,1.89,1.23,2.72,1.77,3.54,2.3.02.37.05.73.07,1.1-13.29-2.08-23.44,7.49-35.94,8.55,6.2-2.52,12.4-5.04,18.6-7.57-.12-.4-.23-.8-.35-1.2-25.72,8.38-52.14,11.97-79.08,11.88,21.21-1.89,42.35-4.2,63.11-9.49-17.05,1.94-34.11,5-50.19-5.62v4.85c-.77-.33-1.37-.4-1.47-.67-2.32-5.74-6.83-4.88-11.68-4.44-7.33.67-14.73.96-22.09.78-8.02-.19-16.03-1.1-24.04-1.69-.03.51-.07,1.01-.1,1.52,14.22.79,28.45,1.58,42.67,2.38-.01.52-.03,1.05-.04,1.57h-46.75c1.3,2.86,2.11,4.65,2.89,6.39-1.09.46-2.21.93-3.34,1.4,1.2.52,2.35,1.29,3.6,1.5,3.11.53,6.25.81,9.32,1.91-17.85,1.05-35.63,1.4-53.35-.55v-1.32h29.39c-2.14-1.62-4.2-3.18-6.27-4.74,1.11-1.28,2.21-2.57,3.28-3.8-8.15-1.06-16.96-2.2-25.77-3.34,0-.49,0-.98.01-1.47,7.92-2.42,16.2,1.55,24.62-.31-1.04-1.89-1.94-3.51-2.86-5.12-9.1-8.73-19.39-15.2-32.29-16.8,1.03.56,2.06,1.11,2.44,1.32-.75,2.95-1.36,5.32-2.02,7.91,7.05,2.24,14.01,4.74,21.14,6.6,3.45.9,7.21.61,10.83.85-1.58.52-3.22,1.63-4.73,1.46-9.03-1.01-18.04-2.3-27.04-3.5v23.96h3.35c-1.26,1.24-2.48,2.45-4.5,4.44h13.62v9.52c15.55.67,31.48,1.35,47.42,2.03-.02.5-.03,1-.05,1.49-4.02,0-8.03.02-12.05,0-12.01-.08-24.01-.21-36.02-.23-.87,0-1.72.82-2.63,1.11-1.52.48-3.07,1.19-4.61,1.18-16.13-.13-32.26-.76-48.37-.48-16.6.29-33.2,1.13-49.76,2.28-34.16,2.36-68.28,5.1-102.43,7.62-2.89.21-5.81.03-8.73-.15,61.88-6.88,123.97-10.52,186.34-12.6-1.49-1.84-3.22-3.59-4.46-5.63-1.19-1.98-1.87-4.26-2.93-6.77-19.89-.23-40.19.72-60.34-2.45h70.17c-2.15-7.34-4.02-14.12-6.23-20.78-.33-.99-2.22-1.92-3.48-2.05-5.27-.53-10.57-.74-15.92-1.07,1.63,2.45,3.39,4.43,4.4,6.74,2.12,4.81-.12,8.51-5.33,9.36-.15.02-.29.05-.44.05-17.17-.03-34.34-.04-51.52-.12-1.25,0-2.5-.55-3.74-.84-.04-.38-.07-.76-.11-1.14,2.35-.42,4.7-1.14,7.06-1.21,14.96-.47,29.93-.8,44.9-1.2,1.03-.03,2.2.05,3.03-.42.91-.51,2.12-1.63,2.07-2.4-.06-.88-1.38-1.67-3.02-1.99.08.77.16,1.54.25,2.39-2,.3-4,.62-6.01.88-2.21.28-4.65.09-4.52-2.64.05-1.03,2.59-1.99,4.06-2.88.43-.26,1.08-.17,1.62-.25-.05-.4-.1-.8-.15-1.2-2.8.47-5.6.94-8.68,1.45.26-1.09.51-2.11.84-3.51-19.91,2.92-38.24,9.68-56.26,17.41.02.49.05.99.07,1.48h75.05c0,.79,0,1.59.01,2.38h-74.7c2.86,4.57,4.84,7.74,6.82,10.9-.21.23-.41.45-.62.68-1.55-2.17-3.1-4.34-4.65-6.52-.24.61-.49,1.22-.73,1.83-3.71.77-7.65,2.7-11.06,1.99-3.33-.69-6.05-4.15-9.18-6.18-.97-.63-2.41-.85-3.6-.76-16.99,1.33-33.99,2.66-50.97,4.18-8.67.78-17.31,1.95-26.09,1.95,31.2-4.07,62.41-8.14,93.61-12.21,0-.47.02-.93.03-1.4-3.44-.71-6.87-1.42-11.27-2.33,3.82-3.78,7.67-7.59,11.52-11.4-.12-.28-.24-.57-.36-.85-5.35,2.33-10.7,4.66-16.71,7.28,1.61-1.51,2.79-3.34,4.44-4.03,3.67-1.53,7.63-2.36,11.38-3.71,3.41-1.23,7.02-2.29,10.01-4.24,20.51-13.34,43.19-19.88,67.3-22.3,2.06-.21,4.04-1.17,6.06-1.78-.13-.67-.25-1.33-.38-2-89.89.82-179.79,1.64-269.68,2.46,0-.4,0-.81-.01-1.21,90.1-.84,180.19-1.68,270.72-2.52v-42.97c-2.9-.36-5.18-.64-7.83-.98v4.92c-.38.26-.75.51-1.13.77-.93-1.1-2.26-2.07-2.69-3.34-.55-1.64-.43-3.51-.5-5.29-.17-4.15-.37-7.96-4.47-10.83-1.82-1.28-2.69-4.57-3.09-7.1-.84-5.26-1.39-10.61-1.46-15.93-.06-4.18-2.26-5.14-5.7-5.62-10.26-1.42-20.6-2.55-30.73-4.65-9.32-1.93-18.41-4.96-27.63-8.07,1.8,1.33,3.61,2.66,5.41,3.99-.13.25-.26.5-.4.76-4.05-2.42-8.1-4.83-12.55-7.48,6.64,9.17,15.53,14.85,24.54,20.41-12.98-5.41-23.57-14.07-33.24-24.88-.22,1.86-.37,3.1-.46,3.82-2.52-12.62-5.13-25.7-7.74-38.78,1.06,5.27,3.41,8.41,9.53,6.32-.36-10.14,7.7-12.28,14.75-14.83-.66-2.37-1.71-4.66-1.89-7.02-.81-10.79-1.47-21.6-1.97-32.41-.14-3.03-.86-4.56-4.24-4.72-2.6-.13-5.12-1.38-7.73-1.89-1.46-.28-3.01-.05-3.8-.05-6.53-5.13-14.84-5.85-21.94-9.54.58,1.04,1.16,2.07,1.74,3.11-3.66,2.65-22.68-34.03-26.07-50.57,3.43,8.36,6.54,16.38,10.02,24.24,1.85,4.18,4.57,7.98,6.48,12.14,5.08,11.07,15.82,12.68,25.37,16.34.31-.35.62-.7.94-1.04-.85-.91-1.53-2.27-2.57-2.67-6.03-2.3-9.59-7.12-13.27-12.04-12.63-16.91-24.74-44.48-27.37-63.97,2.38,5.95,4.77,11.91,7.15,17.86-5.8-22-15.24-42.83-19.26-65.3,3.16,10.29,6.33,20.59,9.49,30.88.38-.08.76-.16,1.13-.24-4.93-28.01-8.58-56.13-7.26-85.06-2.36.25-4.32.45-6.27.65l-.44-1.23c6.4-2.69,12.81-5.39,20.13-8.47-7.06,1.3-13.19,2.44-19.32,3.57-.06-.33-.12-.66-.19-.98,5-1.08,10.09-1.87,14.98-3.31,6.95-2.05,14.2-1.79,21.23-3.45,7.46-1.76,15.19-2.53,22.85-3.2,7.52-.65,15.1-.69,22.65-.87,4.51-.11,9.03-.17,13.52.12,3.39.22,5.94-.72,8.21-3.26,1.43-1.6,3.38-2.73,5.1-4.06-1.99,2.14-3.98,4.29-5.96,6.43,4.82-.21,9.8-.08,13.26-2.31,9.59-6.2,18.53-13.39,26.84-19.52-8.02,3.26-17.27,7.01-26.51,10.77l.04-.05ZM492.16,893.26c.54.34,1.08.67,2.05,1.28.31-3.87.57-7.19.83-10.51-.43-.04-.86-.08-1.3-.12-.53,3.12-1.05,6.24-1.58,9.37-.34,5.8-.67,11.6-1.01,17.4.33,0,.67.02,1,.03v-17.45h.01ZM625.56,972.19c-.95.14-2.22-.06-2.79.48-3,2.88-5.82,5.94-9.54,9.8,3.22-1.55,5.8-2.21,7.53-3.79,1.94-1.77,3.12-4.38,4.63-6.63,3.73-2.54,5.29-6.23,5.09-10.85-1.65,3.66-3.29,7.33-4.94,10.99h.02ZM515.35,794.82c-10.41-2.66-20.86-5.08-31.76-4.93.31,1.07.75,1.8,1.29,1.87,4.67.59,9.35,1.11,14.04,1.56,5.51.52,11.02.94,16.53,1.41v5.97c2.79.35,5.43.67,8.08,1,1.51,1.27,3.23,1.96,4.98,2.05,3.16.16,5.8,2.94,5.27,7.34,1.78-1.28,3.8-2.04,3.85-2.92.09-1.51-.61-3.63-1.75-4.55-2.84-2.3-6.12-4.07-9.3-6.1.43-1.18.8-2.21,1.27-3.52-1.36.1-2.32.17-3.6.26.16-1.33.29-2.38.51-4.17-3.42,1.95-4.41,7.85-9.43,4.73h.02ZM378.27,619.38c1,6.38,2.01,12.76,3.01,19.14.39-.07.78-.15,1.17-.22-1.4-6.29-2.8-12.59-4.2-18.88-.25-4.13-.17-8.32-.82-12.39-1.59-10.03-3.31-20.04-5.43-29.97-.74-3.48-1.34-3.35-4.18-3.12,2.53,12,5.04,24.13,7.7,36.23.68,3.11,1.83,6.12,2.75,9.2h0ZM327.51,784.53c2.34,1.74,4.69,3.48,7.03,5.22-1.69-9.79-4.12-18.92-6.43-28.07-.66-2.63-1.87-3.51-5.28-1.61,1.62,7.93,3.3,16.13,4.97,24.33-.47.37-1.37.8-1.33,1.11.54,4.66,1.09,9.33,1.97,13.94.14.74,1.91,1.18,2.92,1.75.25-.28.5-.56.76-.85-1.54-5.27-3.08-10.54-4.62-15.81h0ZM315.52,493.47c1.98,1.74,3.85,3.63,5.96,5.2,4.84,3.6,9.43,7.77,14.76,10.42,14.51,7.22,30.26,9.89,46.32,10.84.41.02.85-.3,1.69-.62-10.35-2.48-20.19-4.55-29.84-7.26-5.4-1.52-10.51-4.1-15.75-6.21,15.39,5.51,31.19,9.15,48.42,11.24-1.16-1.25-1.48-1.54-1.73-1.89-.17-.23-.23-.54-.26-.62,31,3.85,59.5-3.88,87.97-16.95-1.31-.22-1.64-.39-1.85-.3-23.53,10.71-48.4,11.67-73.55,9.63-9.39-.76-18.67-2.89-28.02-4.27-1.39-.21-2.88.23-5.08.44-2.22-1.29-5.39-3.14-8.56-4.98-1.4-2.01-2.81-4.02-4.91-7.04,1.81,1.54,2.87,2.22,3.65,3.14,3.39,4.02,7.65,5.98,12.84,7.12,28.2,6.17,56.36,7.3,84.55.19,27.98-7.06,50.97-20.87,65.57-46.9,11.38-20.28,21.58-40.92,25.23-64.13,3.12-19.87,1.16-39.6-2.68-59.21-.05-.25-.34-.45-.6-.79-1.03.06-2.13.13-3.49.21.86-2.14,1.6-3.97,2.29-5.7-2.12-1.27-3.78-2.26-6.08-3.64,2.28-.77,3.64-1.23,4.91-1.66-.14-3.87-1.81-5.42-5.44-4.43-.56.15-1.27.34-1.75.13-.96-.41-1.82-1.07-2.71-1.63.73-.78,1.33-1.89,2.22-2.25,1.33-.53,2.87-.51,4.78-.8-19.31-37.64-47.06-65.47-87.69-79.09,3.36,1.94,6.72,3.87,10.08,5.81-1.98-.05-3.48-.99-5.1-1.56-6.66-2.33-13.21-5.44-20.09-6.63-23.39-4.06-46.43-1.02-68.99,5.53-11.91,3.46-23.47,8.08-33.74,15.47,17.37-6.98,35.22-11.72,54.02-12.14-3.53.77-7.13,1.2-10.71,1.74-19.37,2.91-37.47,9.32-54.93,18.31-14.04,7.24-23.63,19.04-33.4,30.41-28.92,33.71-38.11,73.09-30.56,116.51,5.36,30.82,17.18,58.48,41,79.89.97.87,2.33,1.32,3.5,1.96,1.99,1.41,4.13,2.66,5.96,4.25,7.11,6.18,14.9,11.27,22.43,15.15-3.28-3.97-6.97-8.44-10.66-12.9h.02ZM385.73,955.96c-1.46,1.22-2.92,2.45-4.81,4.03.12-1.69.22-3,.38-5.22-4.66,1.62-8.77,3.04-12.89,4.45-9.87.4-19.2,3.13-28.25,7.09,9.39-2.39,18.78-4.77,28.17-7.16,2.61-.33,5.22-.66,7.84-.99.1.37.2.74.31,1.11-21.44,3.96-42.04,10.46-61.85,19.46,2.97-2.01,6.05-3.76,9.21-5.34,3.03-1.52,6.15-2.88,9.23-4.31-.17-.32-.34-.65-.51-.97-14.34,4.24-25.34,14.05-38.11,22.68,10.75.83,19.95-1.24,28.56-6.11-2.8.86-5.61,1.73-8.41,2.59,10.69-6.06,21.44-11.73,33.99-12.5,2.6-.16,5.44-.88,7.61-2.24,3.37-2.11,6-1,9.81.86-4.21.85-7.53,1.52-10.65,2.15,10.6-.65,21.31-1.3,32.47-1.98-.4-2.67-.9-6.03-1.41-9.4-.42.06-.84.12-1.26.18.35,1.73.98,3.47.94,5.19-.03,1.11-1.01,3.12-1.65,3.15-4.87.27-9.75.15-15.27.15,1.64-2.67,2.74-4.45,3.88-6.32-1.65-.64-2.72-1.06-3.8-1.48.07-.43.13-.87.2-1.3,2.3,0,4.68-.38,6.89.08,5.31,1.11,7.16-3.88,10.74-5.78.07-.04-.59-1.45-.9-2.21,2.54-.43,5.09-.87,7.63-1.3-.06-.41-.11-.83-.17-1.25-1.12-.31-2.24-.62-3.37-.92,5.13-.65,6.37-3.64,6.23-8.23-.18-5.76.17-11.53.36-17.3.03-.99.15-2.67.65-2.84,2.9-1,1.97-3.18,1.9-5.13-.08-2.22-.14-4.44-.28-6.65-.61-9.36,1.67-8.43-8.83-7.4-.23.02-.43.35-.53.43-.56,12.35-.96,24.6-1.76,36.82-.23,3.45-1.75,6.81-2.48,10.25-.24,1.14.12,2.42.2,3.63v.03ZM311.32,806.5c4.2.2,8.4.39,12.69.6-2.06-15.26-3.97-29.78-6.08-44.26-.21-1.45-1.45-3.53-2.66-3.9-4.32-1.33-8.82-2.05-12.59-2.86v24.48c1.29-.54,2.4-1.01,4.51-1.89-6.44,5.96-6.36,9.39-1.07,13.83-1.21,2.2-3.52,4.45-3.17,6.15.85,4.07,2.95,7.88,4.58,11.78.06.13.53.09,1.58.24v-11.97c.99,3.33,1.66,5.58,2.36,7.84-1.58,2.2,1.36,6.85-3.9,7.44,6.19.89,12.39,1.78,18.95,2.73-.58-1.84-1.25-3.07-1.31-4.33-.21-4.33-2.85-5.14-6.52-5.1-2.46.02-4.92-.48-7.37-.75v-.03ZM373.67,799.84c2.75,1.08,5.44,2.34,8.25,3.19,12.02,3.63,23.94,8.04,36.72,2.84,7.09-2.88,14.4-5.23,21.61-7.82-.13-.37-.27-.74-.4-1.12-2.87.88-5.74,1.76-8.61,2.63,4.45-3.11,9.28-5.32,13.91-7.88,3.18-1.76,6.82-3.42,9-6.14,8.74-10.9,22.33-17.43,27.87-31.2,1.41-3.52,4.44-6.53,2.58-10.79.54-4.05,1.66-8.11,1.5-12.13-.52-13.32-1.45-26.63-2.42-39.93-.1-1.35-1.52-2.61-1.91-3.23.54-1.57,1.12-3.27,1.83-5.36-6.08-.38-11.27-.71-16.47-1.04.05-.38.09-.76.14-1.14h15.69c.25-4.25.93-8.47.62-12.62-.34-4.39-1.72-8.68-2.46-13.05-.47-2.79-1.78-3.95-4.71-3.91-9.47.13-18.94.05-28.42.05v-1.89h30.01c.01-.54.02-1.08.03-1.62-.92-.22-1.83-.44-1.68-.4-.5-2.97-.93-5.51-1.4-8.24,1.44-.15,3.97-.42,6.55-.69-1.41-4.3-3.66-5.33-8.24-4.54-2.51.43-5.12.31-7.68.44,1.61-.97,3.23-1.04,4.83-1.28,1.55-.24,3.08-.66,5.5-1.19h-19.95c1.7-1.33,3.43-1.91,5.02-2.76,2.28-1.21,4.32-3.01,6.71-3.83,3.16-1.08,6.56-1.45,10.43-2.25-2.58-6.96-5.48-13.48-7.36-20.27-1.31-4.71-3.83-5.93-8.21-5.82-4.14.1-8.29-.37-12.44-.58.02-.33.05-.65.07-.98h17.53c-4.33-8.09-8.38-15.64-12.42-23.2.14-.08.29-.16.43-.24,3.89,4.57,7.79,9.13,11.68,13.7.34-.29.68-.58,1.02-.87-2.82-4.73-5.64-9.46-8.46-14.18,2.38,2.08,4.46,4.37,6.13,6.92,5.01,7.65,10.45,14.67,19.58,17.92,3.11,1.11,5.87,3.24,8.77,4.93.63.37,1.17.9,1.8,1.27,5.54,3.3,10.85,7.1,16.7,9.74,8.58,3.87,17.58,6.79,26.29,10.4,1.31.54,1.99,2.61,2.96,3.98l.08-.1c-2.03-.55-3.15-.3-3.35.73,4.34,1.63,8.52,3.23,12.72,4.75,1.28.46,3.2,1.44,3.89.92,3.49-2.63,6.94-1.18,10.51-.63s7.2.76,11.51,1.19c-1.12-.81-1.58-1.15-2.25-1.64,6.24.02,6.48.25,7.03,6.11.37,3.91,2.94,5.39,6.62,4.29,5.03-1.51,10.17-2.65,15.27-3.96,2.71-.69,4.15.67,5.14,3,2.53,5.95,2.92,6.12,10.48,4.1-1.35-3.41-2.75-6.69-3.92-10.04-.42-1.2-.33-2.59-.47-3.9,1.19-.02,2.53-.4,3.56,0,3.6,1.41,7.32.67,7.08-1.98-.3-3.22-2.3-6.29-3.56-9.43-3.43,1.57-4.18-1.67-5.89-3.25-1.01-.94-2.15-1.75-3.15-2.56-1.84,2.2-3.33,3.99-4.83,5.78-.28-.18-.55-.36-.83-.54.11-2.12.23-4.25.35-6.65-6.74-.1-13.19-1-18.9,3.68-.83-.24-2.18-.85-3.58-.98-4.78-.45-9.65-.28-14.34-1.16-7.53-1.43-15.57-2.23-22.24-5.6-11.59-5.86-22.21-13.61-33.39-20.31-18.05-10.81-36.16-21.52-54.36-32.07-10.28-5.95-21.62-7.72-33.33-7.51-.25,1.12-.46,2.07-.93,4.18-.76-2.96-1.3-4.64-1.62-6.36-.85-4.66-3.17-7.72-8.23-8.18-7.95-.73-15.88-1.65-23.83-2.28-3.54-.28-7.12-.05-10.68-.05.04-.6.08-1.2.12-1.81,13.14,1.08,26.28,2.17,40.18,3.31-1.45-1.01-2.55-2.3-3.9-2.65-7.74-2.02-15.52-3.86-23.31-5.66-11.84-2.74-22.59-.57-32.03,7.3h.06c-6.07,3.13-12.15,6.27-18.64,9.62,11.08,1.48,20.99,2.75,30.88,4.14,3.01.42,5.85,1.31,6.51,4.93-3.62-4.2-8.66-4.2-13.75-4.28,4.29,2.55,8.58,5.11,13.23,7.87.19-1.73.3-2.72.41-3.71.88,4.47,1.46,9.19,7.67,9.4-1.66-.14-3.32-.28-5.68-.47,15.43,47.98,22.68,96.93,26.38,146.82,2.15-1.09,3.43-1.74,5.26-2.67-.39,2.06-.67,3.59-.96,5.12-.11-.67-.22-1.35-.57-3.41-3.8,7.91-7.13,14.6-10.26,21.38-8.42,18.24-21.81,28.4-42.71,27.61-8.92-.33-17.89.7-26.98,1.12-.1,4.33.13,8.05,4.14,10.24-.9-.17-1.79-.35-3.67-.71,1.31,3.93,2.39,7.17,3.47,10.41-.37.47-1.16,1.07-1.06,1.38,1.54,4.77,3.2,9.51,5.06,14.89,4.38-4.22-1.37-6.93.27-10.29.65,1.01,1.48,1.8,1.7,2.74,1.35,5.89,5.36,8.69,10.88,10.3,9.32,2.73,18.53,5.85,27.82,8.66,2.06.62,4.29.67,5.53.85-4.62-2.39-9.88-5.1-15.14-7.82v.02ZM486.76,561.84c-.19-1.12-.61-2.25-.55-3.36.51-8.58.96-17.17,1.71-25.73,1.06-12.16,2.37-24.29,3.63-37.08-21.6,16.39-44.6,27.47-72.38,30.29,2.45,1.71,3.71,3.02,5.25,3.56,3.49,1.22,7.11,2.03,10.67,3.06,6.31,1.82,12.6,3.68,18.9,5.52-.08.28-.16.55-.24.83-9.46-2.37-18.91-4.73-28.37-7.1-.21.57-.42,1.14-.62,1.7,4.36,1.82,8.71,3.65,13.07,5.47-.07.19-.14.39-.2.58-3.73-1.04-7.46-2.08-11.71-3.27.68,2.5,1.53,4.31,1.59,6.15.1,3.36,1.9,4.33,4.8,4.24,15.99-.53,30.56,4.58,44.76,11.23,3.17,1.49,6.54,2.55,9.82,3.81,1.04,1.08,1.89,2.55,3.16,3.18,15.22,7.65,30.47,15.24,45.79,22.7,7.94,3.87,16.01,7.45,24.02,11.16-.16.36-.33.72-.49,1.08-19.63-8.9-39.25-17.81-58.88-26.71,19.06,12.33,37.93,24.96,59.29,33.01,8.63,3.25,17.83,5.17,26.8,3.4,7.3-1.44,14.08-5.51,22.24-2.55.87-13.15,1.69-25.5,2.53-38.1-1.87-.15-3.17-.3-4.48-.35-32.89-1.34-65.78-2.55-98.66-4.08-7.17-.33-14.3-1.76-21.46-2.66v.02ZM503.36,545.48c8.25,0,15.78-.21,23.3.04,29.94.96,59.87,2.92,89.8,2.91,40.32,0,80.63-1.48,120.95-2.33.52-.01,1.03-.18,1.39-.25-1.14-3.95-3.21-7.64-3.06-11.23.67-15.67,1.31-31.4,3.23-46.95,2.62-21.16,6.92-42.12,9.54-63.28,2.3-18.51,3.25-37.2,4.86-55.8,1.36-15.78,2.81-31.54,4.29-48.08-69.52,3.24-138.81,6.46-208.14,9.69.51,7.13,2.2,12.89,2.8,18.92,1.64,16.55,1.63,32.9-1.4,49.13-5.62,30.2-17.8,57.32-39.27,79.82-1.44,1.51-2.98,3.62-3.15,5.56-1.86,20.51-3.46,41.04-5.15,61.83v.02ZM820.34,949.33c5.29,0,10.04-.28,14.76.09,3.6.28,4.52-1.11,4.81-4.42,1.48-17.13,3.27-34.23,4.76-51.35,2.27-25.99,5.29-51.96,6.36-78,1.51-36.88,1.54-73.83,2.19-110.75.07-3.8,0-7.6,0-11.79h-27.1c-1.92,85.25-3.85,170.42-5.78,256.22ZM467.36,859.04c-16.27,1.17-31.99,2.3-48.18,3.46v5.48c-.03,6.96.64,14.03-.34,20.85-.63,4.34-3.68,8.35-5.75,12.45-.28.55-1.21,1.05-1.86,1.09-2.41.13-4.83.05-7.74.05,1.36,17.33,3.75,34.27,8.39,50.84.31,1.11,1.86,2.41,3.03,2.66,11.58,2.41,23.2,4.65,34.83,6.84,2.82.53,5.7.69,8.62,1.03,3.03-35.23,5.99-69.72,9-104.74h0ZM858.69,659.43l-.16-1.75c-108.65,1.25-217.4-3.37-325.92,6.37,24.04-2.36,48.08-4.36,72.17-5.51,24.28-1.16,48.59-1.75,72.89-2.1,23.98-.34,47.97-.08,66.34-.08-32.9-1.33-71.37-2.94-109.86-4.36-2.82-.1-5.66,1.55-8.54,1.79-7.35.59-14.73.78-22.09,1.23-32.72,2.01-65.44,3.78-98.24,2.18-2.94-.14-5.87-.58-8.81-.89,18.6-.96,37.1-.74,55.6-1.02,18.42-.28,36.89-.21,55.15-3.02-38.11,2.35-76.22-1.01-114.78-.71,1.41,8.31,2.69,15.83,3.99,23.54,2.08,0,3.69.06,5.29,0,13.03-.59,26.06-1.38,39.1-1.79,37.05-1.16,74.1-2.28,111.16-3.22,53.37-1.34,106.74-2.47,160.11-3.76,13.34-.32,26.68-.85,40.01-1.43,1.44-.06,2.84-1.16,4.25-1.77-.56-1.07-1.12-2.13-1.64-3.12,1.1-.16,2.53-.36,3.96-.57h.02ZM743.19,564.49c-2.04-8.49-2.04-8.58-10.39-8.67-13.49-.14-26.99.13-40.48-.28-28.31-.86-56.6-2.36-84.92-3.04-32.76-.78-65.54-.97-98.31-1.4-2.45-.03-5.16-.53-5.69,3.12-.05.33-1.21.5-2.21.88.32-1.06.53-1.73.74-2.44-1.68-.29-3.08-.53-4.59-.79,1.99-21.95,3.96-43.6,5.96-65.65-6.04,3.48-8.9,7.73-9.23,14.24-.46,9.01-1.98,17.97-2.94,26.96-1.16,10.86-2.2,21.74-3.37,33.43h178.87v.62h-96.33v.47c58.34,1.47,116.68,2.94,175.38,4.41.21-3.94.4-7.54.6-11.15l-1.41-.12c-.53,2.99-1.07,5.98-1.68,9.41h0ZM259.52,569.39c5.25.63,9.44,1.43,13.66,1.59,17.62.66,35.25,1.42,52.88,1.56,9.04.07,14.54,4.01,17.42,12.24.73,2.1,1.62,4.16,2.12,6.31,4.08,17.45,8.15,34.9,11.99,52.39.33,1.52-.6,3.67-1.61,5.05-1.82,2.48-1.95,4.37.42,6.52,2.05,1.85,4.79,3.68,5.57,6.07,3.23,9.79,5.83,19.79,8.79,30.18-1.98-.97-3.59-1.75-6.17-3.01.69,1.79.86,2.74,1.36,3.45,1.63,2.3,3.95,4.29,4.93,6.82,1.27,3.26,3.57,3.99,6.16,3.29,3.55-.96,4.17.77,4.35,3.5.17,2.45.32,4.89.49,7.34.46.17.92.33,1.38.5.61-.97,1.76-1.95,1.75-2.92-.05-4.78,1.86-10.09-3.21-13.75-.37-.27-.34-1.1-.47-1.68-3.21-14.15-6.25-28.35-9.67-42.45-6.1-25.16-8.9-51.14-18.62-75.39-.76-1.9-1.48-3.93-2.72-5.49-5.17-6.48-12.29-9.09-20.32-9.26-19.41-.41-38.83-.55-58.24-1.02-5.53-.13-8.64,2.85-12.24,8.17h0ZM473.29,858.79c-1.13,22.69-2.23,45.02-3.34,67.36.31.02.61.03.92.05,2.32-16.07,4.65-32.14,6.97-48.21-3.49,28.61-4.28,57.36-5.45,86.5h13.7c.21-9.9.82-19.33-1.29-28.9-2.03-9.21-2.24-18.83-3.25-28.27.19-.01.38-.03.57-.04,1.44,10.48,2.87,20.97,4.4,32.14,2.33-21.93,4.57-43.02,6.81-64.11.3.03.59.05.89.08.29.74.58,1.47.87,2.21.4.02.8.05,1.2.07,1.12-7.82,2.25-15.64,3.42-23.77-9.11,1.69-17.52,3.25-26.44,4.9h.02ZM522.49,772.91c16.78,13.87,31.07,28.29,32.33,50.93,2.65-12.75-.96-24.32-6.67-35.6,1.41,1.35,2.51,2.81,3.35,4.41,3.83,7.25,5.25,15.13,5.03,23.19-.25,9.01-1.3,18-1.67,27.01-.62,14.95-1.56,29.93-1.27,44.87.35,17.74,1.69,35.46,3.02,53.17.23,3.13,2.49,6.12,3.81,9.17.42-.18.83-.36,1.25-.54-.41-21.68-.98-43.36-1.19-65.04-.21-21.66-.05-43.33-.05-64.99,4.8,33.53-1.45,67.26,3.08,100.81v-70.47h1.35c0,6.15-.19,12.3.05,18.44.25,6.14.94,12.27,1.44,18.4,1.35-30.87,2.51-61.71-5.57-91.93.18,1.99.36,3.98.54,5.96-1.56-3.54-2.18-7.5-4.14-10.59-1.77-2.78-4.76-5.99-7.69-6.56-4.3-.83-6-2.35-5.63-5.61-7.77,2.07-13.1-6.49-21.37-5.03h0ZM848.07,974.82c8.33-10.48,22.5-239.05,20.16-264.81-.55,2.73-.87,5.49-1.22,8.24-2.86,22.34-5.64,44.69-8.6,67.02-4.53,34.19-4.01,68.63-5.3,102.99-.74,19.69-1.48,39.38-2.51,59.06-.48,9.19-1.66,18.34-2.52,27.5h-.01ZM541.04,314.8c3.16,6.22,8.58,4.25,13.26,4.06,16.89-.69,33.77-1.54,50.64-2.5,47.52-2.69,95.04-5.36,142.54-8.35,6.43-.4,13.27.83,19.33-3,1.15-.73,3.15-.1,4.76-.1-7.47,2.13-9.11,5.93-5.39,10.98-.9,2.76-2.1,4.98-2.3,7.29-1.15,12.84-2.09,25.71-3.02,38.57-.19,2.68-.03,5.39-.03,8.08.11,0,.22.02.32.03,4.42-23.01,8.84-46.02,13.45-70.01-3.25,1.66-6.66.37-8.53,2.87-1.4-.35-3.12-1.19-4.82-1.14-5.33.13-10.66.61-15.99.93-61.42,3.69-122.84,7.38-184.25,11.07-6.64.4-13.28.82-19.96,1.23h0ZM621.4,610.95c.51-12.88,1.01-25.19,1.5-37.5.09,6.99.06,13.93.1,20.88.03,5.47-.04,10.96.34,16.41.1,1.45,1.7,2.8,2.62,4.2l1.31-.66c.42-2.71.84-5.42,1.26-8.12h.23v8.28h8.16c1.97-13.25,3.88-26.11,5.8-38.97.53.07,1.07.14,1.6.21-1.45,12.97-2.91,25.94-4.38,39.01h8.88c.75-14.89,1.5-29.6,2.29-45.17h-35.65c-.5,11.63-1.05,23.72-1.48,35.82-.03.74.79,1.75,1.49,2.23,1.7,1.15,3.56,2.06,5.93,3.39h0ZM774.71,310.12c-9.28,26.61-27.5,173.58-24.53,202.71,9.96-67.18,19.91-134.36,29.89-201.65-2.56-.51-3.98-.79-5.36-1.06h0ZM774.04,643.33c-3.79-13.78-22.67-24.78-40.83-23.86-18.08.92-33.1,11.04-35.18,23.86h76.01ZM813.32,856.6c4.45-54.42,8.38-108.86,9.7-163.57h-7.41c-3.13,54.59-6.22,109.02-2.28,163.57h-.01ZM559.58,681.12c4.72.22,9.46.76,14.17.62,25.34-.73,50.7-1.19,76-2.55,46.04-2.47,92.04-5.73,138.08-8.2,15.65-.84,31.37-.28,47.06-.38,5.64-.03,11.27-.02,16.9-.22.84-.03,1.65-1.07,2.47-1.64-98.86-.49-196.71,7.02-294.68,12.36h0ZM246.86,402.86c-.09.64-.25,1.29-.26,1.93-.84,39.12,15.77,69.04,47.89,90.78,16.57,11.22,34.84,18.9,53.69,25.22,5.26,1.77,10.88,2.48,16.34,3.68.15-.45.3-.9.45-1.35-65.03-14.91-105.6-53.69-118.1-120.27h0ZM676.47,671.73c0-.26-.01-.51-.02-.77-59.69,1.7-119.38,3.41-179.02,5.11-1.11,3.71.86,4.22,3.67,4.17,14.38-.25,28.79.04,43.14-.74,44.09-2.38,88.15-5.15,132.23-7.77h0ZM856.9,778.06c.17.02.33.04.5.05,3.76-28.09,7.52-56.17,11.34-84.68-3.72-.24-6.75-.43-10.44-.67-.47,28.8-.93,57.05-1.4,85.3h0ZM601.82,683.39c6.83,0,17.5.01,28.16,0,19.33-.03,38.62,1.69,58-.72,17.75-2.2,35.69-2.85,53.56-4.02,19.78-1.3,39.57-2.4,59.35-3.62.41-.03.79-.41,1.68-.91-68.63,3.17-136.61,6.31-200.76,9.28h.01ZM546.49,324.28l-.1,1.52c1.73.19,3.48.61,5.2.53,23.97-1.13,47.95-2.32,71.92-3.51,44.24-2.2,88.49-4.4,132.73-6.68,1.19-.06,2.34-.91,3.51-1.4-.14-.15-.28-.3-.42-.45-70.94,3.33-141.88,6.66-212.83,9.99h-.01ZM400.53,977.03c2.33,8.35,4.64,16.65,7.01,25.12,2.07-.76,3.56-1.47,5.12-1.85,3.66-.89,5.05-3.04,4.52-6.78-.76-5.41-1.19-10.87-2-16.27-.15-1-1.57-2.71-2.16-2.61-6.31,1.06-7.37-3.44-8.49-7.79-1.05-4.1-3.6-3.69-7.17-2.55,2.12,1.79,3.83,3.23,6.44,5.43h-5.07c.39.86.82,1.61,1.07,2.42.23.75.28,1.56.43,2.53-4.71-1.52-7.8-.97-9.25,1.65,3.08.23,5.98.45,9.54.71h.01ZM514.29,463.12c38.23-40.96,40.24-98.34,27.32-130.79,12.36,48.1-1.18,90.74-27.32,130.79ZM749.96,437.24c-.27-.04-.53-.07-.8-.11-2.25,12.92-5.01,25.78-6.64,38.79-2.34,18.63-4.01,37.35-5.62,56.06-.29,3.33,1.07,6.79,1.67,10.2.43-.08.86-.17,1.3-.25,3.37-34.89,6.74-69.79,10.11-104.68h-.02ZM605.63,641.22c-6.57,1.36-12.71,3.64-18.88,3.72-19.69.27-39.4-.14-59.09-.57-12.54-.27-25.08-1.04-37.69-1.59-.14,3.63,1.13,4.74,4.44,4.71,22.81-.23,45.62-.28,68.44-.34,14.49-.04,28.98,0,43.82,0-.3-1.72-.72-4.1-1.04-5.93h0ZM687.64,980.12c.03-.19.06-.38.09-.56-1.07-.33-2.13-.84-3.23-.97-16.02-1.83-32.09-3.26-48.04-5.58-6.77-.98-9.43,3.06-13.03,7.11h64.21ZM418.23,222.87c-24.33-7.32-69.73,2.62-85.02,19.72,13.62-7.17,27.44-12.55,42.09-14.87,14.69-2.33,29.59-3.39,42.94-4.85h-.01ZM478.39,597.85c-.29.29-.58.58-.87.86,2.12,7.59,4.24,15.18,6.47,23.18,7.16-2.31,13.84-4.47,21.28-6.87-9.36-5.98-18.12-11.57-26.89-17.17h.01ZM390.46,597.43c5.26,35.01,10.69,71.11,16.11,107.2l1.14-.18c-1.75-36.67-8.33-72.59-17.26-107.02h0ZM898.43,658.28h-37.66l-.08,1.89c5.5.95,11.13-.04,16.7-.08,5.8-.04,11.6,0,17.4,0,0,.48.02.97.03,1.45-1.51,0-3.02-.02-4.52,0-8.88.13-17.75.21-26.63.47-1.06.03-2.1,1.02-3.14,1.56,1,.55,1.99,1.54,3.01,1.59,8.87.43,17.74.71,26.61.99,2.3.07,4.6.01,7.04.01.41-2.61.75-4.76,1.24-7.88ZM861.11,680.93c-.61.48-1.53,1.2-2.45,1.92,1.08.53,2.19,1.57,3.24,1.52,7.05-.33,14.08-.92,21.12-1.35,4.08-.25,8.17-.39,12.44-.58v-5.32h-36.85c1.16,1.76,1.88,2.88,2.5,3.81h0ZM483.24,974.3c-.03.44-.07.87-.1,1.31-6.12.71-12.23,1.43-16.83,1.96,2.38,1.06,5.7,3.47,9.26,3.91,5.98.73,12.12.2,17.63.2-2.06-4.41-4.11-8.94-6.31-13.38-.44-.88-1.47-2.02-2.29-2.07-3.61-.23-7.23-.1-11.07-.1-.16,2.51-.29,4.36-.4,6.14,3.66.73,6.89,1.38,10.11,2.03h0ZM846.42,949.04c.79-23.65,1.57-46.95,2.36-70.26-.28-.02-.55-.04-.83-.06-2.42,23.38-4.84,46.76-7.28,70.32h5.76,0ZM814.21,692.79h-6.56c.77,19.36,1.54,38.55,2.31,57.86,1.42-19.26,2.83-38.41,4.26-57.86h-.01ZM608.09,953.64c.1-.4.19-.8.29-1.2-1.71-.34-3.5-1.19-5.13-.95-7.9,1.2-15.81,2.42-23.6,4.15-7.44,1.65-14.73,3.93-22.88,6.15,1.57,2.1,2.63,3.51,3.69,4.93.04-.5.08-.99.12-1.49,15.15-6.39,31.48-8.45,47.51-11.6h0ZM730.04,684.36c.15.87.3,1.75.46,2.62,13.43,0,26.85-.1,40.28.06,3.94.05,7.43-.05,9.01-4.33-1.88.1-3.78.28-5.69.29-12.9.08-25.81.08-38.71.23-1.79.02-3.57.73-5.35,1.12h0ZM660.45,636.01c.02.2.04.4.06.6-3.72.59-7.43,1.18-11.15,1.77.09.44.17.88.26,1.33,10.48-1.18,20.96-2.35,31.47-3.53v-5.19c-9.73.83-19.23,1.57-28.72,2.53-1.12.11-2.11,1.48-3.15,2.27.27.4.54.79.8,1.19,3.48-.32,6.96-.65,10.43-.97h0ZM570.41,898.53c2.44-20.67,4.3-41.61,1.33-62.66v13.19c-.16,0-.32,0-.49-.01-.15-2.72-.3-5.44-.45-8.16-.13,0-.27.02-.4.02v57.61h.01ZM826.17,688.44h26.4v-5.66h-26.4v5.66ZM470.71,859.51c-6.36,35.03-6.82,70.41-6.19,105.83.97-17.53.61-35.11,1.51-52.63.91-17.77,3.07-35.47,4.69-53.21h-.01ZM826.16,681.25c9.15-.47,17.91-.93,26.82-1.39v-4.15h-27.57c.27,1.98.46,3.4.76,5.54h-.01ZM522.88,776.59c.18-.41.36-.83.54-1.24-2.35-1.68-4.48-4.14-7.1-4.88-6.74-1.92-13.66-3.36-20.59-4.38-1.81-.27-3.94,1.72-6.59,2.98,11.98,2.67,22.86,5.09,33.75,7.52h-.01ZM740.07,551.58c-2.2-3.5-49.73-4.49-71.71-1.91,23.64.63,47.29,1.26,71.71,1.91ZM737.44,681.22c4.12,0,8.25.17,12.36-.03,17.18-.82,34.35-1.74,51.52-2.65.41-.02.81-.24,1.21-.37-.19-.45-.39-.9-.58-1.35-21.6-.61-42.99,3.12-64.51,4.4h0ZM438.5,962.78c6.55,5.4,12.87,10.6,19.32,15.92v-13.44c-6.26-.8-12.64-1.62-19.32-2.48ZM681.5,641.23l-1.09-1.14c-10.32,1.41-20.64,2.83-30.9,4.23v4.48c10.15-1.65,20.01-3.2,29.84-4.96.85-.15,1.44-1.71,2.15-2.62h0ZM896.03,674.35c-.19-.62-.39-1.24-.58-1.85-11.19,0-22.38-.03-33.57.07-.68,0-1.35,1.03-2.02,1.57,1,.56,2,1.59,3.01,1.6,10.03.11,20.07.1,30.11-.02,1.03-.01,2.04-.9,3.06-1.38h0ZM650.84,614.14c.54.05,1.08.09,1.63.14.23-3.24.42-6.49.68-9.72.83-10.45,1.73-20.9,2.47-31.36.08-1.2-.74-2.45-1.15-3.68-.62.14-1.24.28-1.85.43l-1.77,44.21v-.02ZM775.07,650.56c-.01-.27-.03-.54-.04-.81h-78.63v.81h78.67ZM467.95,853.97c-16.95,1.16-33.41,2.29-49.86,3.42,8.3,2.9,46.55.02,49.86-3.42ZM424.33,521.91c17.9-3.36,34.12-8.71,48.5-18.81-15.91,6.17-31.82,12.34-48.5,18.81ZM859.93,669.26c.15.48.3.96.45,1.44,1.28.13,2.56.35,3.84.36,9.59.13,19.18.25,28.77.28.97,0,1.93-.65,2.9-.99-.97-.56-1.92-1.57-2.9-1.6-9.88-.29-19.76-.46-29.65-.55-1.13-.01-2.27.69-3.41,1.06h0ZM890.45,685.76c-11.31.74-17.37,1.84-18.16,3.29h22.35v-4.41h-23.03v1.12h18.84ZM630.99,648.96h13.88c-.19-2.4-.35-4.47-.5-6.38h-12.37c-.35,2.21-.66,4.2-1,6.38h-.01ZM413.61,517.73c-.24.25-.48.5-.72.75,1.98.59,4.2,2.1,5.89,1.63,10.05-2.78,19.98-6.01,29.95-9.08-.1-.33-.21-.66-.31-.99-11.6,2.56-23.2,5.12-34.8,7.69h-.01ZM281.87,833.95c.49-.07.99-.13,1.48-.2v-18.78h-6.76c1.84,6.6,3.56,12.79,5.28,18.98ZM374.36,629.58c-.49.05-.98.11-1.47.16.64,4.72,1.07,9.49,1.97,14.16.91,4.73,2.86,9.32,3.3,14.06.37,3.97,1.98,10.55,4.88,12.98-2.92-13.93-5.8-27.64-8.68-41.36h0ZM307.43,616.28c6.15-9.09,4.55-14.82-4.72-16.21,1.59,5.48,3.04,10.46,4.72,16.21ZM458.3,795.51c-11.02,4.35-21.9,8.65-32.28,12.75,11.65-1.03,23.39-3.33,32.28-12.75ZM530.7,627.79c.05-.43.09-.85.14-1.28-4.94-.54-9.88-1.09-14.97-1.65.95-1.08,1.78-2.02,2.6-2.95-.15-.17-.3-.34-.45-.51-5.45,2.11-10.9,4.22-16.53,6.39h29.22-.01ZM812.21,912.34c-.37-.07-.73-.15-1.1-.22-.62,11.46-1.25,22.92-1.83,34.38-.04.83.29,1.68.45,2.53.34.12.69.25,1.03.37.48-1,1.38-2,1.38-3.01.1-11.35.06-22.7.06-34.05h0ZM382.62,718.52c0,3.45-.32,6.13.15,8.65.2,1.07,1.97,2.18,3.24,2.57.57.18,1.97-1.21,2.47-2.16,1.08-2.09,1.82-4.35,2.8-6.79-2.42-.63-5.06-1.33-8.65-2.27h0ZM810.24,897.47c2.49-16,1.81-42.4,0-46.51v46.51ZM405.43,863.07c-.7.08-1.39.15-2.09.23.83,9.82,1.66,19.63,2.5,29.45.54-.05,1.07-.09,1.61-.14.35-9.93-.21-19.78-2.02-29.54ZM853.27,674.17c-.03-.34-.06-.67-.09-1.01h-46.16v1.01h46.25ZM809.96,972.33c.72-.06,1.45-.13,2.17-.19,0-6.69.08-13.39-.11-20.08-.02-.8-1.49-1.55-3.25-3.25.06,8.85-.51,16.28,1.18,23.53h.01ZM492.9,675.4c.43-.33.86-.66,1.3-.99-1.53-7.52-3.06-15.04-4.6-22.56-.48.08-.96.17-1.44.25.46,6.73.76,13.47,1.51,20.16.13,1.15,2.11,2.1,3.23,3.14ZM781.04,682.59l.22,1.27h21.53c-1.12-1.48-1.78-3.06-2.4-3.05-6.5.1-13.28-1.75-19.35,1.79h0ZM914.38,674.57c.02-.64.04-1.28.06-1.92-4.22-.93-8.43-1.87-13.16-2.91-.39,3.13-.66,5.34-1.03,8.32,5.22-1.29,9.67-2.39,14.13-3.49h0ZM688.87,683.74c-.07.45-.14.91-.21,1.36,11.98.32,23.95.68,35.93.9,1.03.02,2.09-.94,3.13-1.44-.13-.27-.27-.54-.4-.82h-38.45ZM388.82,892.52c.73-.25,1.45-.5,2.18-.75v-24.05c-1.74,6.85-2.86,13.81-3.68,20.8-.15,1.26.97,2.66,1.5,4ZM540.05,979.25c-3.65-4.76-7.1-9.27-10.72-13.99.45,13.54.6,13.74,10.72,13.99ZM304.93,260.47c-13.04,9.38-23.08,21.25-32.56,35.33,11.35-12.32,21.86-23.73,32.56-35.33ZM351.21,652.61c-1.61,2.17-4.25,4.26-3.92,5.59.62,2.45,2.89,4.54,4.71,6.57.48.54,1.81.32,2.74.45.05-.95.37-1.99.1-2.84-.91-2.8-2.04-5.54-3.63-9.77h0ZM374.93,864.21c.6,5.36,1.14,10.28,1.69,15.2.61.02,1.22.03,1.83.05.91-4.89,1.82-9.78,2.78-14.93-2.17-.11-3.89-.2-6.3-.32ZM305.64,585.56c-1.14-.36-2.74-.87-5.44-1.72.47,4.12.7,7.41,1.32,10.62.15.79,1.57,1.33,2.4,1.98.57-.89,1.55-1.74,1.64-2.67.24-2.41.08-4.85.08-8.21ZM575.63,944.78c-2.49-2.41-.19-8.02-6.1-7.56-.85,3.7-1.67,7.24-2.58,11.21,3.01-1.27,5.54-2.34,8.68-3.66h0ZM535.19,761.14c11.64,2.94,23.33,5.76,29.1,18.2-2.09-10.74-12.1-17.01-29.1-18.2ZM487.35,690.06c-.7.02-1.41.03-2.11.05.69,10.45,1.37,20.89,2.11,32.21v-32.26h0ZM525.61,979.33c0-.56.02-1.12.03-1.68-2.15,0-4.3-.11-6.44.02-4.52.27-9.03.93-13.54.88-2.11-.02-4.2-1.33-6.34-2.07-.09.26-.63,1.7-1.05,2.84h27.34,0ZM802.12,687.53c-5.13-2.78-20.65-2.54-23.22,0h23.22ZM485.71,674.85c.55-.09,1.09-.18,1.64-.27-.95-7.24-1.85-14.5-2.94-21.72-.08-.51-1.62-.81-2.51-1.22,1.34,8.14,2.58,15.68,3.82,23.21h-.01ZM642.83,634.56c.01-.42.02-.84.03-1.26-3.25-.76-6.5-1.52-9.82-2.3.92-1.59,1.63-2.81,1.8-3.09-1.79-2.21-3.22-3.96-4.64-5.71-.17.07-.34.13-.51.2,1.44,3.9,2.88,7.81,4.34,11.78.4-.23,0,0-.41.24l.21.72c3-.19,6-.39,9.01-.58h-.01ZM395.03,812.02c.07-.41.14-.82.22-1.23-11.85-2-23.7-4.01-35.55-6.01-.06.35-.12.69-.19,1.04,11.84,2.07,23.68,4.13,35.52,6.2ZM452.47,803.27c.1.21.23.6.29.59,6.27-.95,12.53-1.92,18.79-2.9-2.46-.54-5.06.14-7.05-.67-4.95-2.01-8.44.34-12.03,2.97h0ZM687.08,630.66c-.09,1.74-.16,3-.22,4.24,7.84,1.53,8.11,1.41,9.45-4.24h-9.23ZM779.58,309.28c.2-3.86.38-7.2.58-11.04-6.05,1.97-3.67,7.08-5.71,10.75,2.05.12,3.32.19,5.13.29ZM486.83,631.68c-.05.79-.11,1.59-.16,2.38,8.75.46,17.54-.03,26.87-.27-9.28-.73-18-1.42-26.71-2.11ZM629.4,619.15c-.03.51-.05,1.02-.08,1.53,7.04,1.25,14.05-.01,21.06-.22,0-.44,0-.87-.01-1.31h-20.97ZM501.25,481.4c.29.26.58.52.87.79,7.08-7.75,14.16-15.5,21.24-23.25-.32-.29-.64-.58-.95-.87-7.05,7.78-14.11,15.55-21.16,23.33h0ZM818.26,678.59c-3.95.36-7.56.68-12.67,1.14,1.67,1.61,2.49,3.08,3.29,3.07,3.38-.06,7.66,1.77,9.38-4.22h0ZM369.73,885.94c.57-.08,1.15-.16,1.72-.23-.93-7.53-1.87-15.05-2.8-22.58-.54.07-1.07.15-1.61.22.9,7.53,1.79,15.06,2.69,22.59h0ZM382.75,695.46c2.35-7.11.87-13.84-3.49-17.34,1.14,5.65,2.22,11.04,3.49,17.34h0ZM478.23,767.49c-.27-.23-.55-.47-.82-.7-7.07,6.3-14.13,12.6-21.2,18.91l.93,1.02c7.03-6.41,14.06-12.81,21.09-19.22h0ZM859.52,685.5c-.39,4.2,3.23,5.15,10.89,3.1-2.85-5.47-7.56-1.49-10.89-3.1ZM517.83,634.49c-.03.31-.07.61-.1.92,12.05.67,24.1,1.34,36.15,2.01.02-.32.03-.65.05-.97-12.03-.65-24.07-1.3-36.1-1.96h0ZM299,755.03c-.56-.03-1.12-.05-1.68-.08.51,12.9,1.03,25.81,1.54,38.71.05,0,.09-.02.14-.03v-38.6h0ZM462.06,808.47c0,.14-.02.27-.03.41h23.37c0-.14,0-.27.01-.41h-23.36.01ZM415.92,891.06l.76-.05v-28.39c-.25.02-.51.04-.76.05v28.39h0ZM634.93,639.27c.02-.42.04-.85.05-1.27h8.89l-.02-1.38c-3.67-.2-7.34-.4-11.47-.63.15,1.73.25,2.93.36,4.12h7.76l.02-.43-5.6-.41h0ZM511.69,618.91c-7.81-5.18-12.37,2.27-18.18,3.58,5.84-1.15,11.68-2.3,18.18-3.58ZM686.35,638.83v4.35h5.92c.56-1.71,1.12-3.43,1.85-5.64-2.81.47-5.07.84-7.77,1.29h0ZM814.78,688.21c-.53-6.72-4.92-3.12-8.32-4.18,1.18,6.18,5.37,3.06,8.32,4.18ZM511,636.62h-23.48c.02.4.03.81.05,1.21,8.61-.44,17.22-.89,23.43-1.21h0ZM407.2,947.89c.33-.41.65-.82.98-1.23-1.03-4.68-2.06-9.36-3.09-14.04-.46,4.34-.6,8.6-.34,12.84.05.86,1.6,1.62,2.45,2.43h0ZM387.13,576.38c-2.38-7.55-4.39-14.74-11.02-18.5,3.46,5.82,7.12,11.95,11.02,18.5ZM352,538.14l-.68-1.04c-5.01,3.31-10.03,6.62-15.04,9.93.29.44.58.88.87,1.33,4.95-3.4,9.9-6.81,14.85-10.21h0ZM420.87,531.58c-3.76-6.67-5.37-7.22-10.73-3.98,3.39,1.25,7,2.59,10.73,3.98ZM292.77,803.38c-6,.89-8.36,4.35-5.97,8.44,1.96-2.77,3.82-5.4,5.97-8.44ZM431.97,832.25c-.01-.33-.03-.66-.04-.98l-19.79.87c.01.36.03.72.04,1.08,6.59-.32,13.19-.64,19.78-.96h.01ZM284.11,550.83c-.02-.26-.04-.53-.07-.79-7.42.64-14.83,1.29-22.25,1.93.04.43.08.86.12,1.29l22.19-2.43h.01ZM574.44,643.01c-3.17-3.14-6.6-4.73-10.65-1.39,3.55.46,7.1.93,10.65,1.39ZM609.29,975.63c-2.67,1.25-5.33,2.5-8.9,4.17,5.86,2.78,6.84-2.1,8.9-4.17ZM332.28,828.13c4.63,2.15,5.45,2.03,8.23-2.13-4.94,3.18-5.03-.45-5.94-3.19-.88,2.04-1.52,3.53-2.29,5.32ZM381.43,890.82c.32-3.93.61-7.61.91-11.3-.22-.02-.44-.05-.65-.07-.47,3.27-.93,6.53-1.55,10.86-1.1-2.75-1.81-4.52-2.52-6.29-.12,2.94-1.42,6.58,3.81,6.8h0ZM490.57,683.88c.21,1.84.37,3.19.53,4.65h5.19c-.21-1.51-.38-2.76-.57-4.17-1.64-.15-3.07-.29-5.16-.48h.01ZM482.35,648.05c1.46-5.19-.46-6.4-5.65-5.19,2.33,2.14,3.99,3.66,5.65,5.19ZM606.57,981.14c.33.34.66.69.99,1.03l11.4-10.05c-.31-.37-.63-.73-.94-1.1-3.82,3.37-7.63,6.74-11.45,10.12h0ZM807.18,676.26c.01.26.02.53.04.79h13.23c-.03-.26-.05-.53-.08-.79h-13.19,0ZM278.07,745.27c1.73,3.28,9.16,5.71,12.42,4.51-4.06-1.47-7.86-2.85-12.42-4.51ZM529.14,786.5c-.63.38-1.27.76-1.9,1.15.73,1.12,1.76,3.3,2.15,3.19,2.13-.59,4.09-1.75,6.12-2.71-.27-.47-.55-.94-.82-1.41-1.11.78-2.21,1.56-3.99,2.82-.51-.99-1.03-2.01-1.55-3.04h-.01ZM612.88,941.13c.03.33.05.65.08.98,3.68.52,7.37,1.04,11.05,1.55l.16-1.21c-3.76-.44-7.53-.88-11.29-1.32h0ZM822.96,688.56c-.39-2.52-.65-4.21-.92-5.91-.37-.05-.73-.11-1.1-.16-1.02,1.61-2.05,3.22-3.41,5.37,2.01.26,3.26.42,5.43.7h0ZM410.9,521.45c.13-.77.26-1.53.4-2.3-2.68-.37-5.35-.74-8.03-1.1l-.33,1.87c2.65.51,5.31,1.02,7.96,1.53h0ZM681.25,649.79c0-.3-.01-.59-.02-.89-5.56.29-11.12.57-17.26.89h17.28ZM394.97,828.52v.34h18.32v-.34h-18.32ZM490.52,674.88c-.93,5.54,1.15,5.64,4.89,3.44-1.42-1-2.85-2-4.89-3.44Z"/>
  <path d="M817.04,1018.65c-5.61,0-11.22.22-16.82-.03-67.76-3.03-135.53-1.7-203.27.15-57.95,1.58-115.87,4.45-173.81,6.65-29.49,1.12-58.98,2.16-88.47,2.99-44.91,1.25-89.82,2.28-134.73,3.39-1.77.04-3.54,0-5.31,0v-1.42c5.73.2,11.45.41,17.18.6,1.18.04,2.37.04,3.56,0,44.46-1.5,88.92-2.86,133.37-4.55,32.3-1.23,64.57-3.06,96.87-4.36,52.6-2.12,105.19-4.67,157.81-5.85,50.84-1.14,101.72-1,152.58-.94,18.96.02,37.92,1.39,56.88,2.16,1.44.06,2.87.29,4.3.45-.04.26-.09.52-.13.79v-.03Z"/>
  <path class="st0" d="M540.74,306.59c-.07,1.31-.13,2.62-.18,3.56-10.23-13.88-20.03-28.32-31.02-41.78-11.15-13.65-25.91-23.23-41.75-32.79,1.49.26,2.14.22,2.64.48,17.62,9.18,34.97,18.72,48.33,33.99,2.38,2.72,5.12,5.13,7.69,7.68,1.93,3.39,3.85,6.78,5.78,10.17,2.71,5.37,5.41,10.74,8.12,16.11.13.86.26,1.72.39,2.58h0Z"/>
  <path d="M641.48,1022.88c81.73,1.28,163.46,2.55,245.19,3.83,0,.44-.01.88-.02,1.31-81.71-1.29-163.42-2.59-245.14-3.88,0-.42-.02-.84-.03-1.26h0Z"/>
  <path d="M594.89,301.91c57-3,113.99-6,170.94-9-4.62,2.43-160.52,11.37-170.94,9Z"/>
  <path d="M929.25,997.73c-65.72-.58-131.45-1.16-197.17-1.74,0-.49.02-.98.02-1.47,65.85.74,131.7,1.47,197.55,2.21-.13.34-.27.67-.4,1.01h0Z"/>
  <path class="st0" d="M333.09,536.75c9.24-3.75,18.49-7.51,26.51-10.77-8.3,6.13-17.25,13.32-26.84,19.52-3.45,2.24-8.44,2.11-13.26,2.31,1.99-2.14,3.98-4.29,5.96-6.43,2.54-1.54,5.08-3.09,7.62-4.63h.01Z"/>
  <path d="M892.8,989.23h-55.64v-.95h55.57c.02.32.04.63.06.95h.01Z"/>
  <path d="M622.04,984.07h37.82l-.03.75h-37.82c0-.25.02-.5.03-.75Z"/>
  <path d="M726.67,987.64h-30.55c0-.13-.02-.27-.02-.4h30.56c0,.13,0,.27.01.4Z"/>
  <path d="M276.13,851.83c-8.7-10.04-8.91-22.83-11.03-35.03,3.27,11.77,3.87,24.38,11.03,35.03Z"/>
  <path d="M305.17,976h-45.51v-.25h45.51v.25Z"/>
  <path d="M189.82,709.23c4.9,11.93,9.47,23.08,14.53,35.4-7.19-11.46-11.48-22.72-14.53-35.4Z"/>
  <path d="M340.95,994.87h31.67c0,.3-.01.6-.02.89h-31.55c-.03-.3-.07-.6-.1-.89h0Z"/>
  <path d="M667.18,958.34h41.63v.39h-41.58c-.02-.13-.03-.26-.05-.39Z"/>
  <path d="M245.22,368.85c-.99,4.87-2.03,9.74-2.95,14.63-1.03,5.48-1.94,10.98-3.62,16.37,1.21-7.17,2.29-14.37,3.7-21.5.64-3.21,1.95-6.29,2.96-9.43l-.09-.07h0Z"/>
  <path d="M547.8,257.04c2.45,4.88,4.9,9.75,7.34,14.63-.27.13-.54.27-.81.4-2.45-4.88-4.9-9.75-7.35-14.63.27-.14.55-.27.82-.41h0Z"/>
  <path d="M765.27,950.5h-17.13v-.13h17.27s-.09.08-.14.13Z"/>
  <path d="M540.36,304c-2.71-5.37-5.41-10.74-8.12-16.11,2.49,4.51,5.01,9.01,7.45,13.55.41.76.46,1.7.67,2.56Z"/>
  <path class="st0" d="M297.79,486.98c-1.18-.64-2.53-1.09-3.5-1.96-23.82-21.41-35.64-49.07-41-79.89-7.55-43.42,1.63-82.81,30.56-116.51,9.76-11.38,19.35-23.18,33.4-30.41,17.45-8.99,35.56-15.4,54.93-18.31,3.58-.54,7.18-.97,10.71-1.74-18.8.42-36.64,5.17-54.02,12.14,10.27-7.39,21.83-12.01,33.74-15.47,22.56-6.55,45.61-9.59,68.99-5.53,6.87,1.19,13.42,4.31,20.09,6.63,1.63.57,3.12,1.51,5.1,1.56-3.36-1.94-6.72-3.87-10.08-5.81,40.63,13.62,68.38,41.45,87.69,79.09-1.91.28-3.45.27-4.78.8-.9.36-1.49,1.47-2.22,2.25.9.56,1.75,1.22,2.71,1.63.48.2,1.19.02,1.75-.13,3.63-.98,5.3.56,5.44,4.43-1.28.43-2.63.89-4.91,1.66,2.3,1.38,3.96,2.37,6.08,3.64-.7,1.73-1.43,3.56-2.29,5.7,1.36-.08,2.46-.15,3.49-.21.27.34.55.54.6.79,3.84,19.6,5.8,39.34,2.68,59.21-3.64,23.21-13.85,43.85-25.23,64.13-14.61,26.04-37.59,39.84-65.57,46.9-28.2,7.11-56.35,5.98-84.55-.19-5.19-1.13-9.45-3.09-12.84-7.12-.78-.92-1.84-1.6-3.65-3.14,2.11,3.02,3.51,5.03,4.92,7.04-3.89-1.28-7.88-2.33-11.67-3.89-18.23-7.51-34.11-18.64-48.55-31.95-1.32-1.75-2.82-3.39-3.92-5.27-2.04-3.47-3.84-7.07-5.74-10.62-2.04-5.76-4.08-11.52-6.13-17.28-.46.19-.93.37-1.39.56,2.53,5.55,5.07,11.1,7.6,16.65-.02,1.76-.05,3.52-.07,5.28l.15.12c-4.64-8.3-9.41-16.54-13.87-24.94-2.79-5.26-5.1-10.78-7.63-16.18l.13.2c-5.48-15.58-4.82-32.02-6.86-48.09.77,15.43.49,30.98,5.12,45.98.55,3.17,1.1,6.33,1.65,9.5,2.4,8.52,4.8,17.04,7.2,25.55l-.12-.21c3.31,7.18,6.62,14.36,9.92,21.54l-.13-.18c3.88,5.84,7.77,11.67,11.65,17.51,1.47,1.51,2.95,3.02,4.42,4.53h0ZM271.77,349.62v-25.55h.07v25.46c-1.4,8.46,2.79,15.93,4.08,23.93-.58-5.66-1.57-11.26-2.62-16.84-.44-2.34-1.02-4.66-1.53-7ZM490.51,397.08c1.64,5.22,2.43,9.82,4.47,13.78,3.19,6.18,9.98,6.35,13.32.27,5.29-9.63,6.52-19.97,2.24-30.33-1-2.42-3.88-5.69-5.89-5.68-2.67,0-6.55,2.21-7.76,4.57-2.83,5.51-4.38,11.69-6.38,17.38h0ZM262.74,329.94c.35.23.69.45,1.04.68,5.15-10.18,10.31-20.35,15.46-30.53-.33-.17-.66-.34-.99-.5-5.17,10.12-10.34,20.23-15.51,30.35h0ZM262.29,332.89c-5.78,7.26-6.52,15.6-4.61,24.43-1.53-8.69.73-16.64,4.61-24.43Z"/>
  <path class="st0" d="M503.36,545.48c1.69-20.79,3.28-41.32,5.15-61.83.18-1.95,1.71-4.05,3.15-5.56,21.47-22.5,33.65-49.62,39.27-79.82,3.02-16.24,3.04-32.59,1.4-49.13-.6-6.03-2.29-11.79-2.8-18.92,69.33-3.23,138.63-6.46,208.14-9.69-1.48,16.53-2.93,32.3-4.29,48.08-1.61,18.6-2.56,37.28-4.86,55.8-2.63,21.16-6.92,42.12-9.54,63.28-1.93,15.55-2.56,31.28-3.23,46.95-.15,3.59,1.92,7.28,3.06,11.23-.36.07-.88.23-1.39.25-40.32.85-80.63,2.33-120.95,2.33-29.93,0-59.86-1.95-89.8-2.91-7.52-.24-15.05-.04-23.3-.04v-.02Z"/>
  <path class="st0" d="M382.66,554.42c-.67-3.63-3.51-4.52-6.52-4.94-9.89-1.39-19.8-2.66-30.88-4.14,6.49-3.36,12.57-6.49,18.67-9.64,6.04.02,12.05.05,18.06.07.79.51,1.52,1.26,2.38,1.51,9.64,2.71,19.28,5.39,28.96,7.95,2.76.73,5.62,1.07,8.43,1.59.1-.46.21-.92.31-1.38-13.4-3.19-26.81-6.37-40.23-9.54-1.83-.43-3.65-1.3-5.45-1.25-4.19.12-8.37.69-12.55,1.07,9.44-7.87,20.19-10.04,32.03-7.3,7.79,1.8,15.57,3.65,23.31,5.66,1.35.35,2.46,1.64,3.9,2.65-13.91-1.15-27.05-2.23-40.18-3.31-.04.6-.08,1.2-.12,1.81,3.56,0,7.14-.23,10.68.05,7.95.63,15.88,1.56,23.83,2.28,5.06.46,7.38,3.52,8.23,8.18.32,1.72.86,3.4,1.62,6.36.47-2.11.68-3.06.93-4.18,11.71-.21,23.05,1.55,33.33,7.51,18.2,10.55,36.31,21.25,54.36,32.07,11.18,6.7,21.8,14.45,33.39,20.31,6.66,3.37,14.71,4.17,22.24,5.6,4.68.89,9.56.72,14.34,1.16,1.4.13,2.75.74,3.58.98,5.71-4.68,12.16-3.78,18.9-3.68-.13,2.4-.24,4.52-.35,6.65.28.18.55.36.83.54,1.49-1.79,2.99-3.58,4.83-5.78,1,.81,2.13,1.62,3.15,2.56,1.7,1.58,2.45,4.82,5.89,3.25,1.26,3.14,3.26,6.2,3.56,9.43.24,2.65-3.48,3.39-7.08,1.98-1.03-.4-2.36-.02-3.56,0,.14,1.3.04,2.69.47,3.9,1.18,3.35,2.57,6.63,3.92,10.04-7.57,2.02-7.96,1.86-10.48-4.1-.99-2.33-2.43-3.69-5.14-3-5.09,1.31-10.23,2.45-15.27,3.96-3.68,1.1-6.25-.38-6.62-4.29-.55-5.86-.8-6.08-7.03-6.11.66.48,1.13.82,2.25,1.64-4.3-.43-7.93-.64-11.51-1.19-3.57-.55-7.02-2-10.51.63-.68.51-2.6-.46-3.89-.92-4.21-1.52-8.38-3.12-12.72-4.75.2-1.03,1.32-1.28,3.36-.74,4.69,2.46,9.58,3.24,14.74,1.74-5.05.41-9.42-5.28-14.83-1.62-.97-1.36-1.65-3.43-2.96-3.98-8.71-3.61-17.71-6.53-26.29-10.4-5.84-2.63-11.16-6.44-16.7-9.74-.63-.38-1.17-.9-1.8-1.27-2.9-1.69-5.65-3.82-8.77-4.93-9.13-3.25-14.57-10.26-19.58-17.92-1.67-2.55-3.75-4.84-6.13-6.92,2.82,4.73,5.64,9.46,8.46,14.18-.34.29-.68.58-1.02.87-3.89-4.57-7.79-9.13-11.68-13.7-.14.08-.29.16-.43.24,4.05,7.56,8.09,15.11,12.42,23.2h-17.53c-.02.33-.05.65-.07.98,4.15.22,8.3.68,12.44.58,4.38-.11,6.9,1.12,8.21,5.82,1.88,6.79,4.78,13.31,7.36,20.27-3.88.8-7.27,1.17-10.43,2.25-2.39.82-4.43,2.62-6.71,3.83-1.59.84-3.32,1.42-5.02,2.76h19.95c-2.42.53-3.94.96-5.5,1.19-1.6.24-3.23.3-4.83,1.28,2.56-.13,5.17,0,7.68-.44,4.58-.79,6.83.23,8.24,4.54-2.58.27-5.1.54-6.55.69.46,2.73.89,5.27,1.4,8.24-.15-.04.77.18,1.68.4-.01.54-.02,1.08-.03,1.62h-30.01v1.89c9.47,0,18.95.08,28.42-.05,2.92-.04,4.23,1.11,4.71,3.91.74,4.37,2.13,8.67,2.46,13.05.32,4.15-.37,8.37-.62,12.62h-15.69c-.05.38-.09.76-.14,1.14,5.19.33,10.39.65,16.47,1.04-.71,2.09-1.29,3.78-1.83,5.36.39.63,1.81,1.88,1.91,3.23.97,13.3,1.89,26.61,2.42,39.93.16,4.02-.97,8.09-1.5,12.13l.15-.07c-.35.22-.83.36-1.04.67-10.09,14.97-22.6,27.68-36.67,38.87-1.46,1.16-4.13,1.97-5.84,1.49-10.51-2.91-20.9-6.23-31.33-9.41-10.38-5-20.76-10.01-31.13-15.01,21.25-8.98,33.29-25.02,36.58-47.77l-.11.14c.29-1.53.57-3.06.96-5.12-1.83.93-3.1,1.57-5.26,2.67-3.71-49.88-10.96-98.84-26.38-146.82,2.36.2,4.02.34,5.68.47-6.21-.21-6.79-4.93-7.67-9.4l.12.13h-.03ZM367.03,542.83c12.16,2.05,24.31,4.1,36.47,6.15-11.7-4.58-23.97-5.73-36.47-6.15Z"/>
  <path class="st0" d="M820.34,949.33c1.94-85.8,3.86-170.97,5.78-256.22h27.1c0,4.19.06,7.99,0,11.79-.64,36.92-.67,73.86-2.19,110.75-1.07,26.04-4.09,52.01-6.36,78-1.5,17.12-3.29,34.22-4.76,51.35-.29,3.31-1.21,4.7-4.81,4.42-4.71-.36-9.47-.09-14.76-.09h0Z"/>
  <path class="st0" d="M858.69,659.43c-1.43.21-2.86.41-3.96.57.52.99,1.08,2.06,1.64,3.12-1.42.62-2.81,1.71-4.25,1.77-13.33.59-26.67,1.11-40.01,1.43-53.37,1.29-106.74,2.42-160.11,3.76-37.06.93-74.11,2.05-111.16,3.22-13.04.41-26.07,1.19-39.1,1.79-1.61.07-3.22,0-5.29,0-1.31-7.7-2.58-15.23-3.99-23.54,38.56-.3,76.66,3.06,114.78.71-18.26,2.81-36.73,2.75-55.15,3.02-18.5.28-37,.06-55.6,1.02,2.94.3,5.86.74,8.81.89,32.8,1.6,65.52-.17,98.24-2.18,7.36-.45,14.74-.64,22.09-1.23,2.88-.23,5.72-1.89,8.54-1.79,38.49,1.41,76.96,3.02,109.86,4.36-18.37,0-42.36-.27-66.34.08-24.3.35-48.62.94-72.89,2.1-24.09,1.15-48.14,3.15-72.17,5.51,108.52-9.74,217.27-5.12,325.92-6.37l.16,1.75h-.02Z"/>
  <path class="st0" d="M743.19,564.49c.61-3.43,1.15-6.42,1.68-9.41l1.41.12c-.19,3.6-.39,7.21-.6,11.15-58.7-1.48-117.04-2.94-175.38-4.41v-.47h96.32v-.62h-178.87c1.17-11.69,2.21-22.56,3.37-33.43.96-8.99,2.48-17.94,2.94-26.96.33-6.5,3.19-10.76,9.23-14.24-2,22.05-3.97,43.7-5.96,65.65,1.51.26,2.91.5,4.59.79-.22.71-.42,1.39-.74,2.44,1-.38,2.16-.55,2.21-.88.53-3.65,3.24-3.16,5.69-3.12,32.77.43,65.55.62,98.31,1.4,28.31.68,56.61,2.17,84.92,3.04,13.48.41,26.99.13,40.48.28,8.35.09,8.35.18,10.39,8.67h.01Z"/>
  <path class="st0" d="M378.75,760.11c10.38,5,20.76,10.01,31.13,15.01,1.68,1.06,3.23,2.53,5.06,3.11,8.15,2.57,16.38,4.86,24.56,7.33,1.17.35,3.7-.2,2.38,2.58l.17-.14c-1.67.86-3.39,1.63-5,2.6-5.93,3.55-11.66,7.46-17.76,10.67-5.59,2.94-11.5,5.67-17.97,2-.25-.14-.78.22-1.19.34-.59-.3-1.18-.6-1.77-.89-2.5-1.31-4.99-2.62-7.49-3.93-8.27-3.88-16.54-7.77-24.81-11.65-9.08-5.9-18.15-11.8-27.23-17.7-4.01-2.19-4.24-5.91-4.14-10.24,9.09-.42,18.06-1.46,26.98-1.12,20.91.78,34.29-9.37,42.71-27.61,3.13-6.78,6.46-13.47,10.26-21.38.34,2.06.46,2.73.57,3.41l.11-.14c-2.96,5.74-5.85,11.51-8.89,17.21-6.24,11.68-12.61,23.26-26.17,28.2-.7.25-1.02,1.55-1.52,2.36v-.02ZM413.22,796.85c-13.56-5.93-27.12-11.86-40.68-17.8,13.12,6.96,25.99,14.5,40.68,17.8ZM404.59,783.86c.14-.3.27-.61.41-.91-6.59-3.04-13.18-6.07-19.77-9.11-.14.31-.27.61-.41.92,6.59,3.03,13.18,6.06,19.77,9.1h0ZM428.43,791.89c.09-.3.18-.6.27-.9-5.95-1.84-11.91-3.68-17.86-5.52-.1.33-.19.66-.29.99,5.96,1.81,11.92,3.62,17.88,5.43h0Z"/>
  <path class="st0" d="M259.52,569.39c3.6-5.31,6.7-8.3,12.24-8.17,19.41.47,38.83.61,58.24,1.02,8.03.17,15.15,2.78,20.32,9.26,1.25,1.56,1.96,3.6,2.72,5.49,9.73,24.26,12.53,50.23,18.62,75.39,3.42,14.1,6.46,28.3,9.67,42.45.13.58.1,1.41.47,1.68,5.07,3.66,3.16,8.97,3.21,13.75.01.97-1.13,1.95-1.75,2.92-.46-.17-.92-.33-1.38-.5-.16-2.45-.32-4.89-.49-7.34-.18-2.73-.8-4.46-4.35-3.5-2.59.7-4.89-.03-6.16-3.29-.98-2.53-3.3-4.52-4.93-6.82-.5-.71-.67-1.65-1.36-3.45,2.59,1.26,4.19,2.04,6.17,3.01-2.96-10.39-5.56-20.39-8.79-30.18-.79-2.38-3.52-4.21-5.57-6.07-2.37-2.15-2.24-4.04-.42-6.52,1.01-1.38,1.94-3.53,1.61-5.05-3.84-17.5-7.91-34.95-11.99-52.39-.5-2.15-1.39-4.22-2.12-6.31-2.89-8.24-8.39-12.17-17.42-12.24-17.63-.14-35.26-.9-52.88-1.56-4.22-.16-8.41-.96-13.66-1.59h0Z"/>
  <path class="st0" d="M473.29,858.79c8.92-1.65,17.34-3.21,26.44-4.9-1.17,8.13-2.29,15.95-3.42,23.77-.4-.02-.8-.05-1.2-.07-.29-.74-.58-1.47-.87-2.21-.3-.03-.59-.05-.89-.08-2.24,21.09-4.48,42.18-6.81,64.11-1.53-11.18-2.97-21.66-4.4-32.14-.19.01-.38.03-.57.04,1.01,9.44,1.22,19.05,3.25,28.27,2.11,9.57,1.5,19,1.29,28.9h-13.7c1.17-29.14,1.96-57.89,5.45-86.5-2.32,16.07-4.65,32.14-6.97,48.21-.31-.02-.61-.03-.92-.05,1.11-22.33,2.22-44.66,3.34-67.36h-.02Z"/>
  <path class="st0" d="M522.49,772.91c8.27-1.46,13.6,7.1,21.37,5.03-.38,3.26,1.33,4.77,5.63,5.61,2.93.57,5.92,3.77,7.69,6.56,1.97,3.09,2.58,7.04,4.14,10.59-.18-1.99-.36-3.98-.54-5.96,8.08,30.22,6.92,61.06,5.57,91.93-.5-6.13-1.19-12.26-1.44-18.4-.25-6.14-.05-12.29-.05-18.44h-1.35v70.47c-4.52-33.55,1.72-67.28-3.08-100.81,0,21.66-.16,43.33.05,64.99.21,21.68.78,43.36,1.19,65.04-.42.18-.83.36-1.25.54-1.32-3.05-3.58-6.03-3.81-9.17-1.33-17.7-2.67-35.43-3.02-53.17-.29-14.94.66-29.92,1.27-44.87.37-9.01,1.42-18,1.67-27.01.22-8.06-1.2-15.94-5.03-23.19-.85-1.6-1.94-3.06-3.35-4.41,5.7,11.28,9.32,22.84,6.67,35.6-1.26-22.64-15.55-37.06-32.33-50.93Z"/>
  <path class="st0" d="M848.07,974.82c.86-9.17,2.04-18.32,2.52-27.5,1.03-19.68,1.77-39.37,2.51-59.06,1.3-34.35.78-68.79,5.3-102.99,2.96-22.33,5.74-44.68,8.6-67.02.35-2.75.67-5.51,1.22-8.24,2.34,25.76-11.82,254.33-20.16,264.81h.01Z"/>
  <path class="st0" d="M295.81,462.31c14.43,13.31,30.32,24.43,48.55,31.95,3.78,1.56,7.77,2.61,11.67,3.89,3.17,1.85,6.34,3.69,8.55,4.98,2.2-.21,3.69-.64,5.08-.44,9.35,1.39,18.63,3.51,28.02,4.27,25.15,2.03,50.02,1.08,73.55-9.63.21-.09.54.07,1.85.3-28.47,13.07-56.97,20.8-87.97,16.95.03.07.09.38.26.62.25.34.57.64,1.73,1.89-17.23-2.08-33.03-5.73-48.42-11.24l.17.17c-6.4-3.89-12.79-7.79-19.19-11.68-1.55-1.14-3.11-2.28-4.66-3.42-3.19-3.88-6.38-7.75-9.56-11.63-1.67-2.56-3.47-5.05-4.97-7.71-1.69-3.01-3.11-6.18-4.65-9.28h-.01ZM396.85,513.37c.02.2.04.41.07.61,6.18-.65,12.37-1.3,18.55-1.95-.03-.3-.06-.59-.09-.89-6.17.74-12.35,1.48-18.52,2.23h-.01Z"/>
  <path class="st0" d="M541.04,314.8c6.68-.41,13.32-.83,19.96-1.23,61.42-3.69,122.84-7.38,184.25-11.07,5.33-.32,10.65-.8,15.99-.93,1.7-.04,3.43.79,4.82,1.14,1.87-2.5,5.28-1.21,8.53-2.87-4.61,24-9.03,47.01-13.45,70.01-.11,0-.22-.02-.32-.03,0-2.69-.17-5.4.03-8.08.93-12.86,1.87-25.73,3.02-38.57.21-2.31,1.4-4.53,2.3-7.29-3.71-5.05-2.07-8.85,5.39-10.98-1.61,0-3.61-.62-4.76.1-6.06,3.83-12.9,2.6-19.33,3-47.5,2.99-95.02,5.65-142.54,8.35-16.87.96-33.76,1.81-50.64,2.5-4.67.19-10.1,2.15-13.26-4.06h0Z"/>
  <path class="st0" d="M621.4,610.95c-2.37-1.33-4.23-2.24-5.93-3.39-.7-.48-1.52-1.49-1.49-2.23.42-12.1.98-24.2,1.48-35.82h35.65c-.79,15.58-1.53,30.28-2.29,45.17h-8.88c1.47-13.07,2.92-26.04,4.38-39.01-.53-.07-1.07-.14-1.6-.21-1.91,12.86-3.83,25.72-5.8,38.97h-8.16v-8.28h-.23c-.42,2.71-.84,5.42-1.26,8.12l-1.31.66c-.91-1.4-2.52-2.74-2.62-4.2-.38-5.45-.31-10.94-.34-16.41-.04-6.95,0-13.89-.1-20.88-.49,12.31-.98,24.62-1.5,37.5h0Z"/>
  <path class="st0" d="M817.39,975.09c-.8-2.11-2.29-4.22-2.3-6.34-.21-35.71-1.13-71.44,0-107.11.88-27.76,4.36-55.43,6-83.16,0,14.66.12,29.33-.03,43.99-.27,27.27-.69,54.54-1.07,81.81-.19,13.63-.4,27.27-.69,40.9-.03,1.59-.68,3.16-1.07,4.85h20.31c.22,1.58.41,2.95.66,4.8.38-1.75.65-3,.94-4.32h6.21c-.72,7.1-1.42,13.93-2.15,21.11h-26.91v3.56l.1-.09h0Z"/>
  <path class="st0" d="M774.71,310.12c1.38.27,2.79.55,5.36,1.06-9.97,67.29-19.93,134.47-29.89,201.65-2.97-29.13,15.25-176.1,24.53-202.71h0Z"/>
  <path class="st0" d="M774.04,643.33h-76.01c2.08-12.82,17.1-22.94,35.18-23.86,18.17-.93,37.04,10.08,40.83,23.86ZM724.92,639.95l.99.99c4.81-5.17,9.62-10.34,14.44-15.5-.03-.03-.05-.07-.08-.1-5.12,4.87-10.24,9.74-15.35,14.61ZM710.38,638.56c.28.28.55.56.83.84,3.52-4.03,7.03-8.05,10.55-12.08l-.72-.66c-3.55,3.96-7.1,7.93-10.65,11.89h-.01ZM726.15,630.37c-.31-.28-.62-.55-.93-.83-3.14,3.67-6.28,7.34-9.42,11l1.1.92c3.08-3.7,6.16-7.4,9.24-11.09h.01Z"/>
  <path class="st0" d="M813.32,856.6c-3.93-54.55-.84-108.98,2.28-163.57h7.41c-1.32,54.71-5.24,109.15-9.7,163.57h.01Z"/>
  <path class="st0" d="M390.87,798.79c2.5,1.31,4.99,2.62,7.49,3.93-4.8-1.15-9.6-2.3-14.4-3.45,4.28,1.99,8.7,3.61,13.19,4.99.83.25,1.96-.48,2.96-.76,3.3.89,6.79,2.98,9.85,2.47,12.73-2.1,23.08-8.94,32.08-17.96l-.17.14c2.11-1.24,4.56-2.14,6.28-3.79,9.36-8.99,18.79-17.95,27.68-27.4,3.63-3.86,5.98-8.94,8.91-13.46l-.15.07c1.86,4.26-1.17,7.27-2.58,10.79-5.53,13.77-19.13,20.3-27.87,31.2-2.18,2.71-5.82,4.38-9,6.14-4.63,2.56-9.46,4.77-13.91,7.88,2.87-.88,5.74-1.76,8.61-2.63.13.37.27.74.4,1.12-7.21,2.59-14.52,4.93-21.61,7.82-12.79,5.2-24.71.79-36.72-2.84-2.82-.85-5.51-2.12-8.25-3.19-.8-.25-1.7-.35-2.4-.77-10.9-6.62-21.77-13.29-32.65-19.94-1.08-3.24-2.16-6.48-3.47-10.41,1.88.36,2.78.54,3.67.71,9.08,5.9,18.15,11.8,27.23,17.7,8.27,3.88,16.54,7.77,24.81,11.65h.02Z"/>
  <path class="st0" d="M311.43,806.51c-.67-2.25-1.34-4.5-2.33-7.83v11.97c-1.05-.15-1.52-.11-1.58-.24-1.63-3.9-3.73-7.71-4.58-11.78-.35-1.69,1.96-3.94,3.17-6.15-5.29-4.44-5.37-7.88,1.07-13.83-2.11.88-3.22,1.35-4.51,1.89v-24.48c3.77.81,8.28,1.53,12.59,2.86,1.2.37,2.45,2.46,2.66,3.9,2.11,14.49,4.02,29.01,6.08,44.26-4.29-.2-8.49-.4-12.69-.6h.11v.03Z"/>
  <path class="st0" d="M559.58,681.12c97.97-5.34,195.83-12.85,294.68-12.36-.82.57-1.63,1.61-2.47,1.64-5.63.19-11.27.18-16.9.22-15.69.09-31.41-.46-47.06.38-46.04,2.47-92.04,5.73-138.08,8.2-25.31,1.36-50.66,1.82-76,2.55-4.71.14-9.45-.4-14.17-.62h0Z"/>
  <path class="st0" d="M368.43,959.24c4.11-1.43,8.21-2.85,12.88-4.47-.16,2.22-.26,3.53-.38,5.22,1.89-1.58,3.35-2.81,4.81-4.03.13-.05.29-.09.46-.12.32.77.97,2.18.9,2.21-3.57,1.9-5.42,6.88-10.74,5.78-2.21-.46-4.59-.08-6.89-.08-.07.43-.13.87-.2,1.3,1.07.42,2.15.84,3.8,1.48-1.15,1.86-2.24,3.64-3.88,6.32,5.52,0,10.4.12,15.27-.15.64-.03,1.62-2.04,1.65-3.15.05-1.72-.59-3.46-.94-5.19.42-.06.84-.12,1.26-.18.5,3.37,1.01,6.74,1.41,9.4-11.15.68-21.86,1.33-32.47,1.98,3.12-.63,6.44-1.3,10.65-2.15-3.81-1.86-6.45-2.98-9.81-.86-2.17,1.36-5.02,2.09-7.61,2.24-12.55.76-23.3,6.44-33.99,12.5,2.8-.86,5.61-1.73,8.41-2.59-8.61,4.87-17.8,6.94-28.56,6.11,12.77-8.63,23.76-18.44,38.11-22.68.17.32.34.65.51.97-3.08,1.43-6.2,2.79-9.23,4.31-3.16,1.59-6.24,3.33-9.21,5.34,19.81-9.01,40.41-15.5,61.85-19.46-.1-.37-.2-.74-.31-1.11-2.61.33-5.22.66-7.84.99l.09.08h0Z"/>
  <path class="st0" d="M246.86,402.86c12.5,66.59,53.07,105.36,118.1,120.27-.15.45-.3.9-.45,1.35-5.46-1.2-11.07-1.91-16.34-3.68-18.85-6.33-37.12-14-53.69-25.22-32.11-21.74-48.72-51.66-47.89-90.78,0-.65.17-1.29.26-1.93h.01Z"/>
  <path class="st0" d="M305.42,479.3c3.19,3.88,6.38,7.75,9.56,11.63.18.85.36,1.69.53,2.54,3.69,4.47,7.38,8.93,10.66,12.9-7.53-3.88-15.31-8.97-22.43-15.15-1.83-1.59-3.96-2.84-5.96-4.25-1.47-1.51-2.95-3.02-4.42-4.53-3.88-5.84-7.77-11.67-11.65-17.51l.13.18c-3.31-7.18-6.62-14.36-9.92-21.54l.12.21c-2.4-8.52-4.8-17.04-7.2-25.55-.55-3.17-1.1-6.33-1.65-9.5.58.7,1.16,1.41,1.74,2.11l-.13-.2c4.54,10.06,8.86,20.23,13.74,30.12,1.96,3.97,5.14,7.35,7.76,11l-.15-.12c5.54,8.58,11.05,17.18,16.66,25.72.56.85,1.73,1.31,2.61,1.95h0Z"/>
  <path class="st0" d="M676.47,671.73c-44.07,2.62-88.14,5.39-132.23,7.77-14.35.77-28.76.49-43.14.74-2.81.05-4.77-.45-3.67-4.17,59.64-1.7,119.33-3.41,179.02-5.11,0,.26.01.51.02.77h0Z"/>
  <path class="st0" d="M856.9,778.06c.46-28.25.92-56.49,1.4-85.3,3.69.24,6.72.43,10.44.67-3.82,28.51-7.58,56.59-11.34,84.68-.17-.02-.33-.04-.5-.05Z"/>
  <path class="st0" d="M386.19,955.84c-.17.03-.32.07-.46.12-.08-1.21-.44-2.49-.2-3.63.73-3.44,2.26-6.8,2.48-10.25.81-12.22,1.21-24.47,1.76-36.82.09-.08.3-.4.53-.43,10.51-1.03,8.22-1.96,8.83,7.4.15,2.21.2,4.43.28,6.65.07,1.94,1,4.12-1.9,5.13-.49.17-.61,1.85-.65,2.84-.19,5.77-.54,11.54-.36,17.3.14,4.59-1.1,7.58-6.23,8.23,1.12.31,2.24.62,3.37.92.06.42.11.83.17,1.25-2.54.43-5.09.87-7.63,1.3h0Z"/>
  <path class="st0" d="M601.82,683.39c64.14-2.96,132.12-6.11,200.76-9.28-.89.49-1.28.88-1.68.91-19.78,1.22-39.58,2.33-59.35,3.62-17.87,1.17-35.81,1.82-53.56,4.02-19.38,2.4-38.67.69-58,.72-10.67.02-21.33,0-28.16,0h-.01Z"/>
  <path class="st0" d="M546.49,324.28c70.94-3.33,141.88-6.66,212.83-9.99.14.15.28.3.42.45-1.17.48-2.32,1.34-3.51,1.4-44.24,2.27-88.48,4.48-132.73,6.68-23.97,1.19-47.94,2.38-71.92,3.51-1.72.08-3.47-.34-5.2-.53l.1-1.52h.01Z"/>
  <path class="st0" d="M400.53,977.03c-3.56-.27-6.46-.48-9.54-.71,1.45-2.62,4.53-3.17,9.25-1.65-.16-.96-.2-1.78-.43-2.53-.25-.81-.68-1.56-1.07-2.42h5.07c-2.61-2.2-4.32-3.64-6.44-5.43,3.57-1.14,6.12-1.55,7.17,2.55,1.12,4.35,2.18,8.85,8.49,7.79.59-.1,2.01,1.61,2.16,2.61.81,5.4,1.24,10.86,2,16.27.52,3.74-.87,5.89-4.52,6.78-1.56.38-3.04,1.09-5.12,1.85-2.36-8.47-4.68-16.77-7.01-25.12h-.01Z"/>
  <path class="st0" d="M514.29,463.12c26.15-40.04,39.68-82.69,27.32-130.79,12.92,32.45,10.9,89.83-27.32,130.79Z"/>
  <path class="st0" d="M749.96,437.24c-3.37,34.89-6.74,69.79-10.11,104.68-.43.08-.86.17-1.3.25-.6-3.4-1.95-6.87-1.67-10.2,1.62-18.71,3.28-37.43,5.62-56.06,1.64-13,4.39-25.86,6.64-38.79.27.04.53.07.8.11h.02Z"/>
  <path class="st0" d="M605.63,641.22c.32,1.83.74,4.21,1.04,5.93-14.84,0-29.33-.03-43.82,0-22.81.06-45.63.11-68.44.34-3.31.03-4.58-1.08-4.44-4.71,12.61.55,25.14,1.31,37.69,1.59,19.69.43,39.4.84,59.09.57,6.17-.08,12.3-2.36,18.88-3.72h0Z"/>
  <path class="st0" d="M687.64,980.12h-64.2c3.6-4.05,6.25-8.09,13.03-7.11,15.95,2.32,32.02,3.74,48.04,5.58,1.1.13,2.15.64,3.23.97-.03.19-.06.38-.09.56h0Z"/>
  <path class="st0" d="M418.23,222.87c-13.35,1.46-28.24,2.52-42.94,4.85-14.65,2.32-28.47,7.69-42.09,14.87,15.3-17.1,60.69-27.04,85.02-19.72h.01Z"/>
  <path class="st0" d="M478.39,597.85c8.76,5.6,17.52,11.19,26.89,17.17-7.44,2.4-14.12,4.56-21.28,6.87-2.23-8-4.35-15.59-6.47-23.18.29-.29.58-.58.87-.86h-.01Z"/>
  <path class="st0" d="M338.63,779.13c10.88,6.65,21.75,13.32,32.65,19.94.7.42,1.6.52,2.4.77,5.26,2.71,10.52,5.43,15.14,7.82-1.24-.18-3.47-.22-5.53-.85-9.3-2.82-18.5-5.94-27.82-8.66-5.52-1.61-9.53-4.41-10.88-10.3-.21-.93-1.05-1.72-1.7-2.74-1.64,3.36,4.11,6.06-.27,10.29-1.85-5.38-3.51-10.12-5.06-14.89-.1-.31.69-.91,1.06-1.38h.01Z"/>
  <path class="st0" d="M390.46,597.43c8.93,34.43,15.5,70.35,17.26,107.02l-1.14.18c-5.43-36.09-10.85-72.19-16.11-107.2h0Z"/>
  <path class="st0" d="M451.33,978.05c-3.62-.25-7.38.05-10.83-.85-7.13-1.86-14.08-4.36-21.14-6.6.66-2.59,1.27-4.96,2.02-7.91-.38-.21-1.41-.76-2.44-1.32,12.89,1.6,23.19,8.07,32.29,16.8.02-.02.1-.12.1-.12h0Z"/>
  <path class="st0" d="M483.24,974.3c-3.23-.65-6.46-1.29-10.11-2.03.12-1.79.24-3.64.4-6.14,3.83,0,7.46-.13,11.07.1.82.05,1.85,1.19,2.29,2.07,2.21,4.44,4.25,8.96,6.31,13.38-5.51,0-11.65.53-17.63-.2-3.56-.43-6.88-2.85-9.26-3.91,4.59-.54,10.71-1.25,16.83-1.96.03-.44.07-.87.1-1.31h0Z"/>
  <path class="st0" d="M846.42,949.04h-5.76c2.44-23.56,4.86-46.94,7.28-70.32.28.02.55.04.83.06-.78,23.31-1.56,46.61-2.36,70.26h0Z"/>
  <path class="st0" d="M315.52,493.47c-.18-.85-.36-1.7-.53-2.54,1.56,1.14,3.11,2.28,4.66,3.42,5.39,5.54,11.76,9.48,19.19,11.68l-.17-.17c5.24,2.1,10.34,4.69,15.75,6.21,9.66,2.71,19.49,4.78,29.84,7.26-.84.32-1.27.64-1.69.62-16.07-.95-31.81-3.62-46.32-10.84-5.33-2.65-9.92-6.82-14.76-10.42-2.11-1.57-3.98-3.46-5.96-5.2v-.02Z"/>
  <path class="st0" d="M814.21,692.79c-1.43,19.45-2.84,38.6-4.26,57.86-.77-19.31-1.53-38.5-2.31-57.86h6.57Z"/>
  <path class="st0" d="M608.09,953.64c-16.03,3.15-32.36,5.21-47.51,11.6-.04.5-.08.99-.12,1.49-1.06-1.41-2.12-2.83-3.69-4.93,8.15-2.22,15.45-4.5,22.88-6.15,7.79-1.73,15.71-2.95,23.6-4.15,1.62-.25,3.41.6,5.13.95-.1.4-.19.8-.29,1.2h0Z"/>
  <path class="st0" d="M730.04,684.36c1.78-.39,3.56-1.1,5.35-1.12,12.9-.15,25.81-.15,38.71-.23,1.91-.01,3.81-.19,5.69-.29-1.59,4.28-5.07,4.38-9.01,4.33-13.42-.17-26.85-.06-40.28-.06-.15-.87-.3-1.75-.46-2.62h0Z"/>
  <path class="st0" d="M660.45,636.01c-3.48.32-6.96.65-10.43.97-.27-.4-.54-.79-.8-1.19,1.05-.79,2.04-2.16,3.15-2.27,9.49-.97,18.99-1.71,28.72-2.53v5.19c-10.51,1.18-20.99,2.36-31.47,3.53-.09-.44-.17-.88-.26-1.33,3.72-.59,7.43-1.18,11.15-1.77-.02-.2-.04-.4-.06-.6h0Z"/>
  <path class="st0" d="M327.8,784.39c-1.68-8.2-3.35-16.39-4.97-24.33,3.41-1.9,4.61-1.02,5.28,1.61,2.31,9.16,4.75,18.29,6.43,28.07-2.34-1.74-4.69-3.48-7.03-5.21l.3-.15h0Z"/>
  <path class="st0" d="M570.41,898.53v-57.61c.13,0,.27-.02.4-.02.15,2.72.3,5.44.45,8.16.16,0,.32,0,.49.01v-13.19c2.96,21.05,1.11,41.99-1.33,62.66h-.01Z"/>
  <path class="st0" d="M826.17,688.44v-5.66h26.4v5.66h-26.4Z"/>
  <path class="st0" d="M470.71,859.51c-1.61,17.73-3.77,35.44-4.69,53.21-.9,17.52-.54,35.1-1.51,52.63-.63-35.42-.16-70.81,6.19-105.83h.01Z"/>
  <path class="st0" d="M378.29,619.34c-.94-3.05-2.09-6.06-2.77-9.17-2.65-12.1-5.16-24.24-7.7-36.23,2.84-.23,3.44-.36,4.18,3.12,2.12,9.93,3.83,19.94,5.43,29.97.65,4.07.57,8.25.82,12.39l.04-.08Z"/>
  <path class="st0" d="M515.39,794.8c4.98,3.15,5.97-2.75,9.4-4.7-.22,1.8-.35,2.85-.51,4.17,1.28-.09,2.24-.16,3.6-.26-.47,1.31-.85,2.34-1.27,3.52,3.18,2.03,6.45,3.8,9.3,6.1,1.14.92,1.83,3.04,1.75,4.55-.05.88-2.07,1.64-3.85,2.92.53-4.4-2.1-7.17-5.27-7.34-1.75-.09-3.47-.78-4.98-2.05-2.65-.33-5.29-.66-8.08-1v-5.97l-.07.06h-.02Z"/>
  <path class="st0" d="M826.16,681.25c-.29-2.14-.49-3.56-.76-5.54h27.57v4.15c-8.91.46-17.67.92-26.82,1.39h.01Z"/>
  <path class="st0" d="M522.88,776.59c-10.88-2.42-21.77-4.85-33.75-7.52,2.65-1.27,4.79-3.25,6.59-2.98,6.94,1.02,13.85,2.45,20.59,4.38,2.62.75,4.75,3.21,7.1,4.88-.18.41-.36.83-.54,1.24h.01Z"/>
  <path class="st0" d="M740.07,551.58c-24.42-.65-48.06-1.28-71.71-1.91,21.98-2.58,69.51-1.58,71.71,1.91Z"/>
  <path class="st0" d="M737.44,681.22c21.52-1.27,42.91-5.01,64.51-4.4.19.45.39.9.58,1.35-.4.13-.8.35-1.21.37-17.17.9-34.35,1.83-51.52,2.65-4.11.2-8.24.03-12.36.03h0Z"/>
  <path class="st0" d="M438.5,962.78c6.68.86,13.06,1.68,19.32,2.48v13.44c-6.46-5.32-12.77-10.52-19.32-15.92Z"/>
  <path class="st0" d="M681.5,641.23c-.71.91-1.31,2.47-2.15,2.62-9.82,1.76-19.69,3.31-29.84,4.96v-4.48c10.27-1.41,20.59-2.82,30.9-4.23l1.09,1.14h0Z"/>
  <path class="st0" d="M311.32,806.5c2.46.27,4.92.77,7.37.75,3.66-.03,6.3.77,6.52,5.1.06,1.26.73,2.49,1.31,4.33-6.56-.94-12.75-1.84-18.95-2.73,5.26-.58,2.32-5.24,3.88-7.44-.02,0-.13-.02-.13-.02h0Z"/>
  <path class="st0" d="M650.84,614.14l1.77-44.21c.62-.14,1.24-.28,1.85-.43.4,1.23,1.23,2.49,1.15,3.68-.73,10.46-1.63,20.91-2.47,31.36-.26,3.24-.46,6.48-.68,9.72-.54-.05-1.08-.09-1.63-.14v.02Z"/>
  <path class="st0" d="M775.07,650.56h-78.67v-.81h78.63c.01.27.03.54.04.81Z"/>
  <path class="st0" d="M467.95,853.97c-3.31,3.44-41.56,6.32-49.86,3.42,16.45-1.13,32.91-2.26,49.86-3.42Z"/>
  <path class="st0" d="M424.33,521.91c16.68-6.47,32.59-12.64,48.5-18.81-14.38,10.1-30.59,15.46-48.5,18.81Z"/>
  <path class="st0" d="M630.99,648.96c.34-2.18.66-4.18,1-6.38h12.37c.15,1.91.31,3.98.5,6.38h-13.88.01Z"/>
  <path class="st0" d="M413.61,517.73c11.6-2.56,23.2-5.12,34.8-7.69.1.33.21.66.31.99-9.97,3.08-19.9,6.31-29.95,9.08-1.68.46-3.91-1.04-5.89-1.63.24-.25.48-.5.72-.75h.01Z"/>
  <path class="st0" d="M281.87,833.95c-1.72-6.19-3.45-12.39-5.28-18.98h6.76v18.78c-.49.07-.99.13-1.48.2Z"/>
  <path class="st0" d="M374.36,629.58c2.88,13.72,5.76,27.44,8.68,41.36-2.9-2.43-4.51-9.01-4.88-12.98-.44-4.75-2.38-9.33-3.3-14.06-.9-4.67-1.33-9.44-1.97-14.16.49-.05.98-.11,1.47-.16h0Z"/>
  <path class="st0" d="M307.43,616.28c-1.67-5.75-3.12-10.73-4.72-16.21,9.27,1.39,10.86,7.12,4.72,16.21Z"/>
  <path class="st0" d="M458.3,795.51c-8.89,9.43-20.63,11.72-32.28,12.75,10.38-4.1,21.26-8.4,32.28-12.75Z"/>
  <path class="st0" d="M530.7,627.79h-29.22c5.63-2.18,11.08-4.28,16.53-6.39.15.17.3.34.45.51-.82.94-1.65,1.87-2.6,2.95,5.09.56,10.03,1.1,14.97,1.65-.05.43-.09.85-.14,1.28h.01Z"/>
  <path class="st0" d="M812.21,912.34c0,11.35.04,22.7-.06,34.05,0,1.01-.9,2.01-1.38,3.01-.34-.12-.69-.25-1.03-.37-.16-.84-.5-1.69-.45-2.53.58-11.46,1.21-22.92,1.83-34.38.37.07.73.15,1.1.22h0Z"/>
  <path class="st0" d="M382.62,718.52c3.59.94,6.24,1.64,8.65,2.27-.98,2.44-1.72,4.7-2.8,6.79-.49.95-1.9,2.34-2.47,2.16-1.27-.39-3.03-1.5-3.24-2.57-.47-2.52-.15-5.2-.15-8.65h0Z"/>
  <path class="st0" d="M810.24,897.47v-46.51c1.81,4.11,2.49,30.51,0,46.51Z"/>
  <path class="st0" d="M405.43,863.07c1.81,9.76,2.37,19.61,2.02,29.54-.54.05-1.07.09-1.61.14-.83-9.82-1.66-19.63-2.5-29.45.7-.08,1.39-.15,2.09-.23Z"/>
  <path class="st0" d="M853.27,674.17h-46.25v-1.01h46.16c.03.34.06.67.09,1.01Z"/>
  <path class="st0" d="M809.96,972.33c-1.69-7.25-1.11-14.67-1.18-23.53,1.76,1.7,3.22,2.46,3.25,3.25.19,6.69.11,13.39.11,20.08-.72.06-1.45.13-2.17.19h-.01Z"/>
  <path class="st0" d="M492.9,675.4c-1.12-1.04-3.1-1.99-3.23-3.14-.74-6.69-1.05-13.44-1.51-20.16.48-.08.96-.17,1.44-.25,1.53,7.52,3.06,15.04,4.6,22.56-.43.33-.86.66-1.3.99Z"/>
  <path class="st0" d="M781.04,682.59c6.07-3.54,12.85-1.69,19.35-1.79.63,0,1.28,1.57,2.4,3.05h-21.53l-.22-1.27h0Z"/>
  <path class="st0" d="M688.87,683.74h38.44c.13.27.27.54.4.82-1.04.5-2.09,1.46-3.13,1.44-11.98-.21-23.95-.58-35.93-.9.07-.45.14-.91.21-1.36h0Z"/>
  <path class="st0" d="M388.82,892.52c-.53-1.34-1.65-2.74-1.5-4,.82-6.99,1.94-13.95,3.68-20.8v24.05c-.73.25-1.45.5-2.18.75Z"/>
  <path class="st0" d="M540.05,979.25c-10.11-.24-10.27-.45-10.72-13.99,3.61,4.72,7.07,9.23,10.72,13.99Z"/>
  <path class="st0" d="M304.93,260.47c-10.69,11.61-21.2,23.01-32.56,35.33,9.48-14.08,19.52-25.96,32.56-35.33Z"/>
  <path class="st0" d="M515.46,794.74c-5.51-.47-11.03-.89-16.53-1.41-4.69-.44-9.37-.97-14.04-1.56-.53-.07-.98-.8-1.29-1.87,10.9-.16,21.34,2.27,31.77,4.91.02-.01.09-.07.09-.07Z"/>
  <path class="st0" d="M351.21,652.61c1.6,4.23,2.72,6.97,3.63,9.77.27.85-.05,1.89-.1,2.84-.94-.13-2.26.09-2.74-.45-1.82-2.03-4.09-4.12-4.71-6.57-.34-1.34,2.31-3.42,3.92-5.59h0Z"/>
  <path class="st0" d="M374.93,864.21c2.41.12,4.13.21,6.3.32-.96,5.15-1.87,10.04-2.78,14.93-.61-.02-1.22-.03-1.83-.05-.55-4.92-1.09-9.84-1.69-15.2Z"/>
  <path class="st0" d="M305.64,585.56c0,3.36.16,5.81-.08,8.21-.09.94-1.07,1.79-1.64,2.67-.83-.65-2.25-1.2-2.4-1.98-.62-3.22-.85-6.51-1.32-10.62,2.7.85,4.3,1.36,5.44,1.72Z"/>
  <path class="st0" d="M575.63,944.78c-3.13,1.32-5.67,2.39-8.68,3.66.92-3.98,1.73-7.52,2.58-11.21,5.91-.46,3.61,5.14,6.1,7.56h0Z"/>
  <path class="st0" d="M535.19,761.14c17,1.19,27.01,7.46,29.1,18.2-5.77-12.45-17.46-15.27-29.1-18.2Z"/>
  <path class="st0" d="M487.35,690.06v32.26c-.74-11.32-1.43-21.77-2.11-32.21.7-.02,1.41-.03,2.11-.05h0Z"/>
  <path class="st0" d="M525.61,979.33h-27.34c.42-1.14.95-2.59,1.05-2.84,2.14.74,4.23,2.04,6.34,2.07,4.51.05,9.02-.61,13.54-.88,2.14-.13,4.29-.02,6.44-.02,0,.56-.02,1.12-.03,1.68h0Z"/>
  <path class="st0" d="M802.12,687.53h-23.22c2.57-2.54,18.09-2.78,23.22,0Z"/>
  <path class="st0" d="M485.71,674.85c-1.24-7.53-2.48-15.07-3.82-23.21.89.41,2.44.7,2.51,1.22,1.1,7.22,2,14.47,2.94,21.72-.55.09-1.09.18-1.64.27h.01Z"/>
  <path class="st0" d="M642.83,634.56c-3,.19-6,.39-9.01.58l-.21-.72c.41-.23.81-.47.41-.24-1.46-3.97-2.9-7.87-4.34-11.78.17-.07.34-.13.51-.2,1.42,1.75,2.85,3.5,4.64,5.71-.16.28-.87,1.5-1.8,3.09,3.32.78,6.57,1.54,9.82,2.3-.01.42-.02.84-.03,1.26h.01Z"/>
  <path class="st0" d="M395.03,812.02c-11.84-2.07-23.68-4.13-35.52-6.2.06-.35.12-.69.19-1.04,11.85,2,23.7,4.01,35.55,6.01-.07.41-.14.82-.22,1.23Z"/>
  <path class="st0" d="M452.47,803.27c3.59-2.63,7.08-4.98,12.03-2.97,1.99.81,4.59.13,7.05.67-6.26.97-12.53,1.95-18.79,2.9-.07,0-.19-.39-.29-.59h0Z"/>
  <path class="st0" d="M687.08,630.66h9.23c-1.34,5.65-1.6,5.77-9.45,4.24.06-1.23.13-2.5.22-4.24h0Z"/>
  <path class="st0" d="M382.53,554.29c-.11.99-.22,1.98-.41,3.71-4.65-2.77-8.94-5.32-13.23-7.87,5.09.08,10.13.08,13.76,4.29l-.12-.12h0Z"/>
  <path class="st0" d="M779.58,309.28c-1.81-.1-3.07-.18-5.13-.29,2.04-3.67-.34-8.78,5.71-10.75-.2,3.84-.38,7.18-.58,11.04Z"/>
  <path class="st0" d="M327.8,784.39s-.29.15-.3.15c1.54,5.27,3.08,10.54,4.61,15.81-.25.28-.5.56-.76.85-1.02-.58-2.78-1.01-2.92-1.75-.88-4.6-1.43-9.28-1.97-13.94-.04-.31.87-.74,1.33-1.11h.01Z"/>
  <path class="st0" d="M486.83,631.68c8.72.69,17.43,1.38,26.71,2.11-9.33.23-18.12.73-26.87.27.05-.79.11-1.59.16-2.38Z"/>
  <path class="st0" d="M629.4,619.15h20.97c0,.44,0,.87.01,1.31-7.02.21-14.02,1.47-21.06.22.03-.51.05-1.02.08-1.53h0Z"/>
  <path class="st0" d="M501.25,481.4c7.05-7.78,14.11-15.55,21.16-23.33.32.29.64.58.95.87-7.08,7.75-14.16,15.5-21.24,23.25-.29-.26-.58-.52-.87-.79Z"/>
  <path class="st0" d="M818.26,678.59c-1.71,5.98-5.99,4.16-9.38,4.22-.8.01-1.63-1.46-3.29-3.07,5.1-.46,8.72-.79,12.67-1.14h0Z"/>
  <path class="st0" d="M369.73,885.94c-.9-7.53-1.79-15.06-2.69-22.59.54-.07,1.07-.15,1.61-.22.93,7.53,1.87,15.05,2.8,22.58-.57.08-1.15.16-1.72.23h0Z"/>
  <path class="st0" d="M382.75,695.46c-1.27-6.3-2.35-11.69-3.49-17.34,4.36,3.51,5.84,10.23,3.49,17.34h0Z"/>
  <path class="st0" d="M478.23,767.49c-7.03,6.41-14.06,12.81-21.09,19.22l-.93-1.02c7.07-6.3,14.13-12.6,21.2-18.91.27.23.55.47.82.7h0Z"/>
  <path class="st0" d="M625.4,972.06c-1.51,2.24-2.69,4.85-4.63,6.63-1.73,1.58-4.31,2.24-7.53,3.79,3.71-3.86,6.53-6.92,9.54-9.8.56-.54,1.84-.34,2.79-.48l-.16-.14h0Z"/>
  <path class="st0" d="M368.34,959.15c-9.39,2.39-18.78,4.77-28.17,7.16,9.05-3.96,18.38-6.7,28.26-7.09l-.08-.07h-.01Z"/>
  <path class="st0" d="M517.83,634.49c12.03.65,24.07,1.3,36.1,1.96-.02.32-.03.65-.05.97-12.05-.67-24.1-1.34-36.15-2.01.03-.31.07-.61.1-.92h0Z"/>
  <path class="st0" d="M299,755.03v38.6s-.09.02-.14.03c-.51-12.9-1.03-25.81-1.54-38.71.56.03,1.12.05,1.68.08h0Z"/>
  <path class="st0" d="M462.06,808.47h23.36c0,.14,0,.27-.01.41h-23.37c0-.14.02-.27.03-.41h0Z"/>
  <path class="st0" d="M415.92,891.06v-28.39c.25-.02.51-.04.76-.05v28.39l-.76.05h0Z"/>
  <path class="st0" d="M634.93,639.27l5.6.41-.02.43h-7.76c-.1-1.19-.21-2.39-.36-4.12,4.13.23,7.8.43,11.47.63l.02,1.38h-8.89c-.02.42-.04.85-.05,1.27h0Z"/>
  <path class="st0" d="M511.69,618.91c-6.5,1.28-12.34,2.43-18.18,3.58,5.81-1.31,10.37-8.76,18.18-3.58Z"/>
  <path class="st0" d="M686.35,638.83c2.7-.45,4.96-.82,7.77-1.29-.72,2.21-1.29,3.93-1.85,5.64h-5.92v-4.35h0Z"/>
  <path class="st0" d="M814.78,688.21c-2.95-1.12-7.13,2-8.32-4.18,3.39,1.06,7.79-2.54,8.32,4.18Z"/>
  <path class="st0" d="M511,636.62c-6.21.32-14.82.77-23.43,1.21-.02-.4-.03-.81-.05-1.21h23.48,0Z"/>
  <path class="st0" d="M407.2,947.89c-.86-.81-2.4-1.57-2.45-2.43-.26-4.24-.12-8.49.34-12.84,1.03,4.68,2.06,9.36,3.09,14.04-.33.41-.65.82-.98,1.23h0Z"/>
  <path class="st0" d="M387.13,576.38c-3.9-6.54-7.55-12.68-11.02-18.5,6.62,3.76,8.63,10.95,11.02,18.5Z"/>
  <path class="st0" d="M352,538.14c-4.95,3.4-9.9,6.81-14.85,10.21-.29-.44-.58-.88-.87-1.33,5.01-3.31,10.03-6.62,15.04-9.93l.68,1.04h0Z"/>
  <path class="st0" d="M420.87,531.58c-3.73-1.38-7.35-2.72-10.73-3.98,5.36-3.24,6.98-2.69,10.73,3.98Z"/>
  <path class="st0" d="M292.77,803.38c-2.15,3.04-4.02,5.67-5.97,8.44-2.38-4.09-.02-7.55,5.97-8.44Z"/>
  <path class="st0" d="M431.97,832.25c-6.59.32-13.19.64-19.78.96-.01-.36-.03-.72-.04-1.08l19.79-.87c.01.33.03.66.04.98h-.01Z"/>
  <path class="st0" d="M284.11,550.83l-22.19,2.43c-.04-.43-.08-.86-.12-1.29,7.42-.64,14.83-1.29,22.25-1.93.02.26.04.53.07.79h-.01Z"/>
  <path class="st0" d="M574.44,643.01c-3.55-.46-7.1-.93-10.65-1.39,4.04-3.33,7.48-1.74,10.65,1.39Z"/>
  <path class="st0" d="M609.29,975.63c-2.06,2.07-3.04,6.95-8.9,4.17,3.57-1.67,6.24-2.92,8.9-4.17Z"/>
  <path class="st0" d="M332.28,828.13c.77-1.8,1.41-3.28,2.29-5.32.9,2.74,1,6.37,5.94,3.19-2.78,4.16-3.6,4.29-8.23,2.13Z"/>
  <path class="st0" d="M381.43,890.82c-5.23-.21-3.93-3.86-3.81-6.8.71,1.77,1.42,3.54,2.52,6.29.62-4.33,1.08-7.59,1.55-10.86.22.02.44.05.65.07-.3,3.69-.59,7.37-.91,11.3h0Z"/>
  <path class="st0" d="M490.57,683.88c2.09.2,3.52.33,5.16.48.19,1.4.36,2.66.57,4.17h-5.19c-.17-1.46-.32-2.81-.53-4.65h-.01Z"/>
  <path class="st0" d="M482.35,648.05c-1.66-1.52-3.32-3.05-5.65-5.19,5.19-1.22,7.11,0,5.65,5.19Z"/>
  <path class="st0" d="M378.25,619.42c1.4,6.29,2.8,12.59,4.2,18.88-.39.07-.78.15-1.17.22-1-6.38-2-12.76-3-19.16,0-.02-.03.06-.03.06Z"/>
  <path class="st0" d="M606.57,981.14c3.82-3.37,7.63-6.74,11.45-10.12.31.37.63.73.94,1.1l-11.4,10.05c-.33-.34-.66-.69-.99-1.03h0Z"/>
  <path class="st0" d="M807.18,676.26h13.19c.03.26.05.53.08.79h-13.23c-.01-.26-.02-.53-.04-.79h0Z"/>
  <path class="st0" d="M492.17,893.27c.53-3.12,1.05-6.24,1.58-9.36.43.04.86.08,1.3.12-.26,3.32-.53,6.64-.83,10.51-.97-.6-1.51-.94-2.05-1.28h0Z"/>
  <path class="st0" d="M278.07,745.27c4.57,1.66,8.36,3.03,12.42,4.51-3.26,1.2-10.69-1.22-12.42-4.51Z"/>
  <path class="st0" d="M529.14,786.5c.52,1.02,1.05,2.05,1.55,3.04,1.78-1.26,2.88-2.04,3.99-2.82.27.47.55.94.82,1.41-2.02.96-3.99,2.12-6.12,2.71-.39.11-1.42-2.07-2.15-3.19.63-.38,1.27-.76,1.9-1.15h.01Z"/>
  <path class="st0" d="M625.4,972.06l.16.14c1.64-3.66,3.29-7.32,4.94-10.99.2,4.62-1.36,8.31-5.09,10.85h0Z"/>
  <path class="st0" d="M612.88,941.13c3.76.44,7.53.88,11.29,1.32l-.16,1.21c-3.68-.52-7.37-1.04-11.05-1.55-.03-.33-.05-.65-.08-.98h0Z"/>
  <path class="st0" d="M822.96,688.56c-2.17-.28-3.42-.44-5.43-.7,1.37-2.15,2.39-3.76,3.41-5.37.37.05.73.11,1.1.16.26,1.7.53,3.39.92,5.91h0Z"/>
  <path class="st0" d="M492.16,893.26v17.45c-.33,0-.67-.02-1-.03.34-5.8.67-11.6,1.01-17.41h0s-.01-.01-.01-.01Z"/>
  <path class="st0" d="M410.9,521.45c-2.65-.51-5.31-1.02-7.96-1.53l.33-1.87c2.68.37,5.35.74,8.03,1.1-.13.77-.26,1.53-.4,2.3h0Z"/>
  <path class="st0" d="M681.25,649.79h-17.28c6.14-.32,11.7-.6,17.26-.89,0,.3.01.59.02.89Z"/>
  <path class="st0" d="M394.97,828.52h18.32v.34h-18.32v-.34Z"/>
  <path class="st0" d="M490.52,674.88c2.05,1.44,3.47,2.44,4.89,3.44-3.74,2.2-5.83,2.1-4.89-3.44Z"/>
  <path d="M490.51,397.08c0-12.62,2.78-21.96,14.14-21.96,2.01,0,4.88,3.26,5.89,5.68,4.28,10.36,4.67,21.78-2.24,30.33-11.61,14.36-17.79-5.04-17.79-14.05h0ZM508.99,386.31c-.26-1.86-.13-2.89-.57-3.56-.9-1.39-1.87-3.18-3.24-3.7-1.17-.44-3.73.23-4.23,1.17-.64,1.21.06,3.21.41,4.82.18.82.7,1.68,1.32,2.26,1.08,1.01,2.35,1.83,3.54,2.72,1.05-1.41,2.11-2.83,2.76-3.71h0Z"/>
  <path d="M305.42,479.3c-.88-.64-2.05-1.1-2.61-1.95-5.61-8.53-11.12-17.13-16.66-25.72.02-1.76.05-3.52.07-5.28l-.09.07c1.9,3.55,3.71,7.15,5.74,10.61,1.1,1.88,2.6,3.52,3.92,5.27,1.54,3.1,2.96,6.27,4.65,9.28,1.49,2.66,3.3,5.15,4.97,7.71h0Z"/>
  <path d="M286.3,451.76c-2.62-3.65-5.8-7.02-7.76-11-4.88-9.9-9.19-20.06-13.74-30.12,2.53,5.4,4.84,10.92,7.63,16.18,4.45,8.4,9.23,16.63,13.87,24.94Z"/>
  <path d="M264.93,410.84c-.58-.7-1.16-1.41-1.74-2.11-4.63-15-4.35-30.55-5.12-45.98,2.03,16.07,1.38,32.52,6.86,48.09h0Z"/>
  <path d="M262.74,329.94c5.17-10.12,10.34-20.23,15.51-30.35.33.17.66.34.99.5-5.15,10.18-10.31,20.35-15.46,30.53-.35-.23-.69-.45-1.04-.68h0Z"/>
  <path d="M271.76,349.64c.52,2.33,1.1,4.64,1.54,6.99,1.05,5.58,2.04,11.18,2.62,16.84-1.29-7.99-5.48-15.46-4.08-23.93l-.09.1h0Z"/>
  <path d="M262.29,332.89c-3.88,7.79-6.14,15.74-4.61,24.43-1.91-8.83-1.17-17.17,4.61-24.43Z"/>
  <path d="M264.84,418.23c2.4,8.52,4.8,17.04,7.2,25.55-2.4-8.52-4.8-17.04-7.2-25.55Z"/>
  <path d="M271.92,443.57c3.31,7.18,6.62,14.36,9.92,21.54-3.31-7.18-6.62-14.36-9.92-21.54Z"/>
  <path d="M281.72,464.94c3.88,5.84,7.77,11.67,11.65,17.51-3.88-5.84-7.77-11.67-11.65-17.51Z"/>
  <path d="M271.84,349.54v-25.46h-.07v25.56l.08-.09h0Z"/>
  <path d="M286.23,446.36c-2.53-5.55-5.07-11.1-7.6-16.65.46-.19.93-.37,1.39-.56,2.04,5.76,4.08,11.52,6.13,17.28l.09-.07h-.01Z"/>
  <path d="M378.75,760.11c.5-.81.82-2.1,1.52-2.36,13.56-4.94,19.92-16.53,26.17-28.2,3.04-5.69,5.93-11.47,8.89-17.21-3.29,22.74-15.32,38.78-36.58,47.77Z"/>
  <path d="M484.76,743.5c-2.93,4.52-5.28,9.6-8.91,13.46-8.89,9.45-18.31,18.4-27.68,27.4-1.72,1.65-4.17,2.55-6.28,3.79,1.32-2.78-1.2-2.23-2.38-2.58-8.18-2.47-16.42-4.76-24.56-7.33-1.83-.58-3.38-2.05-5.06-3.11,10.43,3.18,20.82,6.5,31.33,9.41,1.71.47,4.37-.33,5.84-1.49,14.07-11.19,26.58-23.9,36.67-38.87.21-.31.69-.45,1.04-.67h0Z"/>
  <path d="M381.85,535.87c13.4,3.19,26.81,6.37,40.21,9.56-.1.46-.21.92-.31,1.38-2.81-.52-5.67-.86-8.43-1.59-9.68-2.57-19.32-5.25-28.96-7.95-.87-.24-1.59-.99-2.4-1.49-.02.02-.11.09-.11.09h0Z"/>
  <path d="M367.03,542.83c12.5.42,24.77,1.57,36.47,6.15-12.16-2.05-24.31-4.1-36.47-6.15Z"/>
  <path d="M542.19,625.67c5.42-3.67,9.79,2.03,14.83,1.62-5.16,1.5-10.05.72-14.74-1.74-.01.01-.09.12-.09.12Z"/>
  <path d="M363.83,535.71c4.18-.39,8.36-.95,12.55-1.07,1.8-.05,3.62.82,5.45,1.25.02-.02.11-.09.13-.11-5.99-.04-12-.07-18.04-.09-.03.01-.09.02-.09.02Z"/>
  <path d="M442.05,788.01c-9,9.03-19.36,15.86-32.08,17.96-3.06.51-6.56-1.58-9.85-2.47v.11c.41-.12.95-.48,1.2-.34,6.48,3.66,12.39.94,17.97-2,6.1-3.21,11.84-7.12,17.76-10.67,1.61-.96,3.33-1.74,5-2.6h0Z"/>
  <path d="M413.22,796.85c-14.69-3.3-27.56-10.84-40.68-17.8,13.56,5.93,27.12,11.86,40.68,17.8Z"/>
  <path d="M390.87,798.79c-8.27-3.88-16.54-7.77-24.81-11.65,8.27,3.88,16.54,7.77,24.81,11.65Z"/>
  <path d="M404.59,783.86c-6.59-3.03-13.18-6.06-19.77-9.1.14-.31.27-.61.41-.92,6.59,3.04,13.18,6.07,19.77,9.11-.14.3-.27.61-.41.91h0Z"/>
  <path d="M428.43,791.89c-5.96-1.81-11.92-3.62-17.88-5.43.1-.33.19-.66.29-.99,5.95,1.84,11.91,3.68,17.86,5.52-.09.3-.18.6-.27.9h0Z"/>
  <path d="M400.13,803.62v-.11c-1,.28-2.14,1.01-2.97.76-4.49-1.38-8.91-3-13.19-4.99,4.8,1.15,9.6,2.3,14.4,3.45.59.3,1.18.59,1.77.89h0Z"/>
  <path d="M338.83,506.03c-7.43-2.2-13.79-6.14-19.19-11.68,6.4,3.89,12.79,7.79,19.19,11.68Z"/>
  <path d="M396.85,513.37c6.17-.74,12.35-1.48,18.52-2.23.03.3.06.59.09.89-6.18.65-12.37,1.3-18.55,1.95-.02-.2-.04-.41-.07-.61h.01Z"/>
  <path d="M724.92,639.95c5.12-4.87,10.24-9.74,15.35-14.61.03.03.05.07.08.1-4.81,5.17-9.62,10.34-14.44,15.5l-.99-.99Z"/>
  <path d="M710.38,638.56c3.55-3.96,7.1-7.93,10.65-11.89l.72.66c-3.52,4.03-7.03,8.05-10.55,12.08-.28-.28-.55-.56-.83-.84h.01Z"/>
  <path d="M726.15,630.37c-3.08,3.7-6.16,7.4-9.24,11.09l-1.1-.92c3.14-3.67,6.28-7.34,9.42-11,.31.28.62.55.93.83h-.01Z"/>
  <path class="st0" d="M508.99,386.31c-.66.88-1.71,2.3-2.76,3.71-1.19-.9-2.46-1.71-3.54-2.72-.62-.58-1.14-1.44-1.32-2.26-.35-1.61-1.05-3.61-.41-4.82.5-.94,3.06-1.62,4.23-1.17,1.36.52,2.34,2.3,3.24,3.7.43.67.3,1.71.57,3.56h0Z"/>
  <path d="M341.43,80.51c-.6-8.67-3.74-17.18-9.82-23.51-8.57-8.93-20.76-9.71-32.38-8.2-13.25,1.72-26.34,5.04-38.86,9.67-24.9,9.2-47.76,23.77-66.52,42.55-8.92,8.92-17,18.85-22.89,30.06-.22.41-.42.84-.63,1.26-1.89,2.47-3.72,4.98-5.46,7.54-6.6,9.7-12.03,20.28-14.89,31.71-.84,3.35-1.46,6.9-1.82,10.49-.87,5.23-1.21,10.52-.65,15.72,1.3,12.14,8.43,22.01,19.71,26.75,11.81,4.96,24.79,3.64,36.79.11,10.26-3.02,20.28-7.19,29.98-11.86,5.74-2.33,11.34-4.95,16.71-7.67,3.5-1.77,6.99-3.62,10.46-5.5,6.81,14.24,17.75,26.86,27.93,38.6.26.3.76-.06.5-.36-10.18-11.91-20.67-24.7-26.79-39.14,17.6-9.63,34.57-20.76,48.91-34.76,8.68-8.48,16.24-18.14,21.87-28.91,4.79-9.16,8.71-21.16,4.69-31.3,1.98-4.92,3.33-10.05,3.64-15.37.16-2.7-.04-5.33-.49-7.87h0ZM234.84,207.2c-15.91,6.75-35.3,12.24-53.01,9.28,11.27-.92,22.44-3.02,33.28-6.22,12.16-3.58,23.87-8.5,35.01-14.51,1.32-.5,2.6-1.03,3.83-1.6,1.38-.64,2.74-1.32,4.08-2.03.27.77.57,1.52.87,2.28-5.85,3.57-11.82,6.91-17.87,10-2.05.95-4.11,1.9-6.19,2.79h0ZM258.2,76.75c10.86-2.84,22.7-4.63,33.93-3.47,10.15,1.04,20.92,5.22,24.46,15.68.15.45.2.92.33,1.38-3.83-.23-7.72.09-11.3.75-.99.19-1.96.45-2.94.68-4.79-.98-9.78-1.15-14.68-.87-8.25-5.51-18.4-7.74-28.21-7.78-9-.04-17.98,1.62-26.66,4.44,3.03-1.89,6.08-3.73,9.18-5.51,5.18-2.09,10.48-3.89,15.89-5.3ZM322.02,115.28c-1.24-.83-2.58-1.5-3.98-2.02.7-1.6,1.3-3.26,1.84-4.94,1.1,2.21,1.77,4.55,2.14,6.96ZM269.44,185.67c5.05-2.92,10.04-5.96,14.93-9.14-7.49,6.05-15.42,11.62-23.63,16.72-.24-.73-.5-1.46-.72-2.19,3.18-1.74,6.3-3.58,9.42-5.39h0ZM257.48,172.76c0-.2.03-.39.04-.58.6.34,1.35.41,2.08-.12,10.89-7.94,21.83-15.86,31.8-24.95,9.27-8.45,18.23-17.98,24.27-29.08,2.29.83,4.39,2.24,5.79,4.12-2.01,2.53-4.11,4.98-6.25,7.35-16.54,18.29-36.41,33.78-57.66,46.27-.03-1-.09-1.99-.07-3h0ZM257.79,168.3c1.11-9.53,5.16-18.24,11.69-25.46,7.69-8.5,17.84-15.42,27.7-21.17,4.22-2.46,9.19-4.65,14.16-4.47-.72,1.24-1.47,2.44-2.24,3.58-13.14,19.54-32.52,33.81-51.32,47.52h0ZM265.11,176.66c11.89-7.27,23.18-15.53,33.73-24.63-8.9,9.49-18.64,18.17-29.18,25.82-2.05,1.49-4.15,2.93-6.26,4.34-1.54.9-3.06,1.83-4.61,2.72-.07.04-.14.08-.21.12-.27-1.38-.49-2.77-.66-4.18,2.41-1.37,4.82-2.75,7.18-4.19h0ZM256.28,186.33c-3.4,1.88-6.88,3.59-10.59,4.8-3.28,1.07-6.94,1.75-10.41,1.2,6.84-3.05,13.55-6.38,20.1-10.01.25,1.35.56,2.69.9,4.02h0ZM319.52,134.34c-.21.58-.4,1.17-.63,1.73-.37.91-.8,1.78-1.22,2.67-1.1,1.42-2.23,2.79-3.27,4.08-3.56,4.44-7.5,8.57-11.73,12.38-.48.43-.98.82-1.47,1.24,6.6-6.95,12.72-14.35,18.31-22.09h.01ZM313.91,112.21c-.16-.02-.32-.06-.47-.08-6.83-.77-13.37,2.16-19.06,5.65-10.26,6.29-20.7,13.87-28.5,23.11-7.7,9.12-11.7,20.19-11.45,32.14.03,1.49.14,2.95.28,4.41-8.06,4.61-16.4,8.86-24.97,12.54-2.74-2.24-4.31-5.7-4.74-9.34-.64-5.39.39-10.96,2.26-16.3,20.32-10.2,38.59-24.48,53.21-41.91,4-4.77,7.8-9.77,11.14-15.02,1.66-2.61,2.59-5.23,2.53-7.71,3.34-1.41,6.78-2.58,10.29-3.39,4.76,1.36,9.11,3.73,12.41,7.53-.68,2.87-1.68,5.68-2.92,8.37h-.01ZM168.43,150.19c.06-.35.17-.69.24-1.03,10.72-17.13,24.81-32.06,40.53-44.69.37-.3.76-.58,1.14-.88,16.1-9.83,35.32-17.14,54.21-15.56,4.9.41,9.76,1.43,14.31,3.31.31.13.66.27,1.02.42-10.31,1.45-20.44,4.27-29.99,8.41-21.04,9.13-39.56,24.27-52.41,43.3-6.23,9.23-12.16,19.93-14.15,31.04-2.45.24-4.87.13-7.08-.76-8.73-3.51-9.28-15.73-7.82-23.56h0ZM288.32,96.99c-6.75,3.25-13.15,7.34-19.25,11.61-19.1,13.38-37.79,30.07-46.23,52.42-.07.18-.13.38-.2.56-4.11,1.97-8.27,3.82-12.53,5.44-5.59,2.12-11.31,3.93-17.11,5.41-1.65.42-3.43.91-5.25,1.33.76-3.45,1.92-6.78,3.11-9.61,4.17-9.86,9.81-19.05,16.62-27.3,13.48-16.32,31.38-28.94,51.32-36.04,8.74-3.11,17.96-5.18,27.24-5.85.87.61,1.66,1.29,2.27,2.02h.01ZM289.27,101.95c-.87,2.47-2.73,4.77-4.2,6.86-1.79,2.56-3.66,5.07-5.61,7.53-3.55,4.48-7.33,8.76-11.34,12.84-11.18,11.38-24.12,21.03-38.14,28.66,1.36-2.83,2.86-5.55,4.4-8.06,5.77-9.39,13.42-17.62,21.69-24.85,8.63-7.54,18.05-14.43,27.97-20.17,1.69-.98,3.44-1.9,5.22-2.8h.01ZM187.02,178.38c11.55-1.9,23.12-6.14,33.7-10.89.02,0,.04-.02.06-.03-2.24,8.52-2.67,18.23,3.15,24.85-1.14.45-2.27.94-3.41,1.37-7.9,2.95-18.36,5.78-26.25,1.33-6.33-3.57-7.84-10.01-7.24-16.63h0ZM314.54,96.48c-.73-.47-1.49-.85-2.25-1.25,1.79-.09,3.59-.05,5.39.12.05,1.18.04,2.35-.05,3.53-.95-.86-1.97-1.67-3.09-2.4h0ZM167.33,211.82c-4.56-2.32-8.66-5.62-11.37-10.01-3.16-5.12-3.64-11.29-2.72-17.11,1.46-9.28,5.63-18.3,10.19-26.62.06,1.65.2,3.29.52,4.94.86,4.5,2.67,8.86,6.09,12.01,3.49,3.22,8.15,4.17,12.75,3.86-.28,4.62.4,9.29,2.79,13.33,2.61,4.41,6.97,7.32,11.88,8.57,10.05,2.55,20.79-1.34,30.01-5.09.12-.05.24-.11.37-.16,2.14,1.34,4.44,2.14,6.84,2.49-8.07,3.56-16.39,6.56-24.93,8.86-10.7,2.88-21.71,4.65-32.78,5.23-2.85.15-5.89.38-8.81.07-.27-.13-.54-.23-.81-.37h-.02ZM326.11,115.85c-.6-4.67-2.19-9.09-4.88-12.88.44-2.33.7-4.67.67-7,4.37,1.07,8.36,3.36,10.71,7.31-1.49,3.61-3.26,7.15-5.2,10.57-.43.67-.86,1.34-1.3,1.99h0ZM334.62,97.78c-3.43-3.82-8.16-5.96-13.26-6.91-.45-2.32-1.14-4.61-2.29-6.79-5.21-9.93-16.31-14.06-26.92-15.03-9.38-.85-18.9-.12-28.25,1.79.59-.28,1.17-.57,1.76-.84,11.29-5.23,23.12-10.49,35.68-11.42,10.29-.76,21.42,2.01,28.79,9.6,4.77,4.9,6.7,11.14,6.8,17.57-.24,4.04-1.06,8.07-2.31,12.03h0ZM207.6,94.28c18.71-15.86,40.63-27.81,64.08-34.99,11.53-3.53,23.94-6.55,36.05-6.76,5.64-.1,11.45.83,16.27,3.93,1.99,1.28,3.73,2.89,5.28,4.68-.69-.51-1.35-1.04-2.1-1.5-22.56-13.93-49.8-.96-70.9,9.54-6.22,3.1-12.39,6.44-18.45,10-5.97,2.58-11.73,5.52-17.18,8.71-9.53,5.57-18.58,12.21-26.99,19.61,4.39-4.67,9.06-9.08,13.93-13.21h.01ZM163.04,216.95c-.88-.64-1.67-1.34-2.42-2.05.33.17.61.39.95.54,1.73.74,3.55,1.15,5.42,1.4,3.26,1.5,6.68,2.66,10.12,3.44,6.72,1.52,13.49,1.93,20.23,1.54-.67.15-1.34.32-2.01.45-10.96,2.12-22.99,1.52-32.29-5.32h0ZM318.63,149.05c-4.31,5.43-9.14,10.4-14.25,15.05,2.08-2.17,4.11-4.38,6.03-6.69,1.58-1.91,3.09-3.9,4.53-5.93,4.26-4.68,8.28-9.81,11.29-15.39,2.37-4.38,3.41-9.42,1.57-14.01.03-.05.07-.11.11-.16.15-.24.29-.49.44-.73,2.36-3.25,4.6-6.66,6.55-10.23.23,2.97-.1,6.01-.72,8.87-2.31,10.75-8.8,20.72-15.55,29.22Z"/>
</svg>