<?xml version="1.0" encoding="UTF-8"?>
<svg id="Layer_1" xmlns="http://www.w3.org/2000/svg" xmlns:xlink="http://www.w3.org/1999/xlink" version="1.1" viewBox="0 0 1080 1080">
  <!-- Generator: Adobe Illustrator 29.2.1, SVG Export Plug-In . SVG Version: 2.1.0 Build 116)  -->
  <defs>
    <style>
      .st0 {
        fill: none;
      }

      .st1 {
        fill: #d8dee8;
      }

      .st2 {
        fill: #4f4f4f;
      }

      .st3 {
        clip-path: url(#clippath-1);
      }

      .st4 {
        fill: #fff;
      }

      .st5 {
        fill: #6b6b6b;
      }

      .st6 {
        fill: #bfc8d6;
      }

      .st7 {
        fill: #ababab;
      }

      .st8 {
        clip-path: url(#clippath);
      }

      .st9 {
        fill: #898989;
      }

      .st10 {
        fill: #b2b2b2;
      }
    </style>
    <clipPath id="clippath">
      <circle class="st0" cx="843.51" cy="208.09" r="70.64" transform="translate(362.22 931.39) rotate(-70.22)"/>
    </clipPath>
    <clipPath id="clippath-1">
      <path class="st0" d="M584.61,507.06l221.25,12.71,41.25-199.42-120.46-35.36v-92.07l-95.52.74v-48.62h-187.54l13.55,235.59s100.61,140.7,127.47,126.44h0Z"/>
    </clipPath>
  </defs>
  <g>
    <rect class="st4" x="3" y="3" width="1074" height="1074" rx="27" ry="27"/>
    <path class="st7" d="M1050,6c13.23,0,24,10.77,24,24v1020c0,13.23-10.77,24-24,24H30c-13.23,0-24-10.77-24-24V30c0-13.23,10.77-24,24-24h1020M1050,0H30C13.43,0,0,13.43,0,30v1020c0,16.57,13.43,30,30,30h1020c16.57,0,30-13.43,30-30V30C1080,13.43,1066.57,0,1050,0h0Z"/>
  </g>
  <path class="st6" d="M525.3,178.98l331.09-10.68c11.31-.36,20.52,8.39,20.52,19.57v322.75c0,11.17-9.22,19.67-20.52,18.97l-331.09-20.24c-9.4-.57-16.99-9.24-16.99-19.35V197.84c0-10.11,7.59-18.56,16.99-18.86h0Z"/>
  <path class="st1" d="M856.39,523.16c7.69.46,13.95-5.32,13.95-12.92V188.04c0-7.59-6.26-13.55-13.95-13.32l-331.09,10.13c-6.41.2-11.58,5.94-11.58,12.84v292.61c0,6.89,5.18,12.79,11.58,13.17l331.09,19.69Z"/>
  <path class="st6" d="M525.3,178.98l331.09-10.68c11.31-.36,20.52,8.39,20.52,19.57v14.51l-368.6,8.6v-13.14c0-10.11,7.59-18.56,16.99-18.86Z"/>
  <path class="st4" d="M840.45,186.91c0,3.62,2.97,6.48,6.64,6.39,3.68-.1,6.66-3.12,6.66-6.75s-2.99-6.49-6.66-6.39c-3.67.11-6.64,3.13-6.64,6.75Z"/>
  <path class="st4" d="M817.32,187.55c0,3.6,2.93,6.44,6.56,6.35,3.63-.09,6.58-3.1,6.58-6.71s-2.95-6.46-6.58-6.35c-3.63.11-6.56,3.11-6.56,6.71Z"/>
  <path class="st4" d="M794.46,188.18c0,3.58,2.9,6.41,6.48,6.31,3.59-.09,6.5-3.08,6.5-6.67s-2.91-6.42-6.5-6.31c-3.58.1-6.48,3.09-6.48,6.67Z"/>
  <path class="st4" d="M652.6,301.65c38.59-55.45,105.78-37.37,148.53-99.08,7.73-11.16,12.98-22.53,16.58-33.01l38.68-1.25c11.31-.36,20.52,8.39,20.52,19.57v322.75c0,11.17-9.22,19.67-20.52,18.97l-319.17-19.51c7.19-10.22,70.05-47.57,86.36-106.45,14.94-53.93,5.81-68.64,29.02-101.98h0Z"/>
  <circle class="st2" cx="852.36" cy="208.87" r="79.52"/>
  <circle class="st5" cx="843.51" cy="208.1" r="79.52" transform="translate(99.91 657.4) rotate(-45)"/>
  <circle class="st10" cx="843.51" cy="208.09" r="70.64" transform="translate(-24.56 243.59) rotate(-16.2)"/>
  <g class="st8">
    <path class="st4" d="M792.88,201.88l.02,20.07c0,1.92.78,3.76,2.17,5.11l17.48,17.14c1.41,1.38,3.32,2.16,5.31,2.16h26.45s18.17,17.54,28.95,27.99c11.67-6.07,21.46-15.16,28.22-26.24-10.89-10.45-29.52-28.4-29.52-28.4l.11-26.02c0-1.97-.81-3.86-2.27-5.24l-18.05-17.13c-1.43-1.36-3.37-2.1-5.38-2.06l-20.95.36c-1.73.03-3.29,1.07-3.96,2.64-.66,1.57-.29,3.36.93,4.53l19.96,19.12c1.78,1.7,1.78,4.49,0,6.22l-7.14,6.99-1.97,1.92-7.11,6.96c-1.76,1.72-4.61,1.72-6.36.02l-19.7-19.12c-1.21-1.17-3.02-1.51-4.6-.86-1.57.65-2.6,2.17-2.59,3.85h0Z"/>
  </g>
  <g class="st3">
    <path d="M517.94,293.39c-2.56-7.37-1.53-11.41,0-13.76,2.14-3.28,7.03-6,16.05-12.61.59-.43,1.61-1.21,1.48-1.63-.32-1.05-5.23-.51-9.51,1.63-6.2,3.1-7.49,3.34-11.17,4.43-6.51,1.94-12.24.32-20.94-2.14-3.59-1.02-8.62-2.73-14.33-5.73,0,0-6.31-2.87-8.03,0l9.17,4.59s-8.03-3.44-12.61-1.15l16.05,6.88s-12.04-3.44-12.61-1.15c7.83,5.58,14.73,7.49,20.07,8.03,8.22.83,14.4-1.41,16.63,1.72,1.8,2.52-.07,7.03-2.29,10.89h12.04Z"/>
    <path class="st2" d="M625.74,347.29c-7.15-10.71-15.94-17.13-22.3-21.01-2.3,1.01-5.82,2.7-9.85,5.25-11.62,7.34-12.89,12.63-22.75,18.75-5.23,3.25-11.7,7.27-20.02,6.72-9.57-.63-16.13-6.96-18.86-9.59-18.7-18.04-11.38-52.21-10.58-55.74-7.07-.19-14.14-.38-21.21-.57-3.72,6.52-24.22,48.12-9.17,90.02,21.55,60.01,109.2,60.53,135.7,32.9,15.78-16.45,15.69-41.8-.96-66.73h0Z"/>
    <path class="st5" d="M617.5,475.67c.13,6.69-.03,12.4-.34,17.33-1.51,24.07-6.74,29.6-1.05,39.73,19.68,35.05,118.22,32.63,145.66-6.33,2.39-3.39,6.6-10.42,9.84-19.57,8.76-24.73,3.99-46.93,2.82-53.21-3.17-16.89-4.19-45.12,2.24-95.36,1.1-8.63,2.43-17.91,4-27.89,1.29-8.18-4.12-15.89-12.24-17.52-22.51-4.51-52.23-7.8-86.69-4.62-32.22,2.97-58.82,10.72-78.29,18.07-.51,35.63,2.37,63.89,5.06,82.96,4.31,30.55,8.51,40.3,8.99,66.43v-.02Z"/>
    <path class="st4" d="M695.96,266.41c1.17,11.08,2.33,22.17,3.5,33.25.32,3,2.72,5.36,5.73,5.6,11.91.98,23.83,1.96,35.74,2.95l-66.07,20.26-30.29-14.44c9.24-2.86,18.48-5.73,27.72-8.59,2.37-.74,4.09-2.8,4.38-5.27.8-6.84,1.61-13.69,2.41-20.53l16.86-13.22h.02Z"/>
    <path class="st4" d="M702.41,261.25c-7.28,16.71-25.51,30.55-34.93,26.44-9.42-4.1-8.42-24.89-1.13-41.61,7.28-16.71,21.23-23.09,30.65-18.98,9.42,4.1,12.69,17.44,5.41,34.15h0Z"/>
    <path d="M690.16,259.74c.92.69,4.51-4.23,6.49-3.35,1.68.74,2.13,5.57.1,8.88-1.73,2.82-4.03,2.54-4.71,4.74-1.1,3.61,3.71,9.01,5.51,8.38,1.16-.41.2-2.99,1.32-5.94,2.21-5.8,9.45-5.13,15.37-9.56,9.31-6.97,11.84-23.95,6.29-30.3-2.11-2.42-4.47-2.25-7.34-6.14-3.1-4.21-1.75-6.33-4.13-9.03-4.05-4.59-12.94-4.17-18.56-2.47-7.07,2.14-7.58,5.87-12.31,5.59-5.6-.33-6.41-5.65-13.09-6.62-.38-.06-6.62-.87-11.32,3.18-6.1,5.27-4.61,14.44-4.39,15.74,1.35,8.31,8.13,15.8,15.64,17.49,1.58.35,1.26.02,17.15-.36,5.25-.13,8.42-.17,9.48,1.68,1.52,2.67-2.42,7.42-1.49,8.11v-.02Z"/>
    <path class="st5" d="M616.1,532.73c19.68,35.05,118.22,32.63,145.66-6.33,2.39-3.39,6.6-10.42,9.84-19.57,8.76-24.73,3.99-46.93,2.82-53.21-3.17-16.89-4.19-45.12,2.24-95.36-1.19-.17-2.41-.26-3.64-.28,0,0-29.66-3.43-38.02,35.1-8.37,38.52-23.66,33.13-53.41,21.58-29.74-11.55-31.1,45.27,4.67,61.15,35.78,15.88,35.78,50.97-31.9,25.9-14.07-5.21-26.51-7.93-37.2-8.7-1.51,24.07-6.74,29.6-1.05,39.73h-.01Z"/>
    <path d="M659.58,414.38c-.72-1.13-11.07-6.27-13.79-14.83-2.72-8.57-25.28-30.29-19.85-20.68s7.52,16.55,7.52,16.55c0,0-7.1,10.6-1.25,15.2,5.85,4.6,18.17,11.91,18.17,11.91,0,0,17.34,4.6,9.19-8.15h.01Z"/>
    <path class="st2" d="M762.52,311.72s75.4,3.84,64.82,82.43c-10.58,78.59-22.02,123.59-96.52,94.96-74.5-28.63-89.17-63.16-89.17-63.16l19.02-22.6s76.3,45.44,87.23,22.6-22.88-115.36,14.64-114.22h-.02Z"/>
    <path class="st2" d="M536.71,164.55l-53.47-.2c-2.94-.01-5.51,2.36-5.74,5.3l-7.43,94.63c-.23,2.94,1.96,5.4,4.89,5.51l53.34,1.95c3.04.11,5.69-2.23,5.93-5.22l7.57-96.51c.24-2.99-2.05-5.43-5.09-5.44v-.02Z"/>
    <path class="st5" d="M535.48,164.64l-53.47-.2c-2.94-.01-5.51,2.36-5.74,5.3l-7.43,94.63c-.23,2.94,1.96,5.4,4.89,5.51l53.34,1.95c3.04.11,5.69-2.23,5.93-5.22l7.57-96.51c.24-2.99-2.05-5.43-5.09-5.44v-.02Z"/>
    <path class="st9" d="M533.08,167.22l-49.14-.23c-2.71-.01-5.07,2.17-5.28,4.87l-6.83,87.03c-.21,2.7,1.8,4.97,4.5,5.06l49.02,1.7c2.79.1,5.22-2.05,5.44-4.8l6.95-88.62c.22-2.75-1.88-4.99-4.67-5h.01Z"/>
    <path class="st4" d="M512.18,213.04l-3.23-.66c-.52-.11-1.02.23-1.12.75l-.37,1.88c-.89-.03-1.77.02-2.63.15l-.61-1.81c-.17-.5-.71-.77-1.21-.6l-3.12,1.05c-.5.17-.77.71-.6,1.21l.6,1.8c-.78.42-1.52.91-2.21,1.47l-1.42-1.26c-.4-.35-1-.31-1.35.08l-2.2,2.49c-.35.4-.32,1.01.08,1.36l1.41,1.26c-.46.76-.86,1.56-1.19,2.41l-1.85-.38c-.52-.11-1.03.23-1.14.76l-.68,3.29c-.11.53.23,1.04.75,1.15l1.86.38c-.03.91.02,1.82.15,2.7l-1.8.61c-.51.17-.78.73-.62,1.24l1.05,3.21c.17.51.72.79,1.22.62l1.82-.62c.43.8.92,1.56,1.48,2.26l-1.28,1.47c-.36.41-.32,1.03.08,1.39l2.51,2.26c.4.36,1.02.32,1.37-.09l1.28-1.48c.76.47,1.56.87,2.4,1.2l-.39,1.95c-.11.54.23,1.06.76,1.17l3.29.67c.53.11,1.04-.24,1.14-.78l.38-1.96c.9.02,1.79-.04,2.66-.18l.63,1.9c.17.52.72.8,1.23.62l3.17-1.1c.51-.18.78-.74.6-1.26l-.64-1.91c.77-.43,1.5-.94,2.19-1.5l1.49,1.33c.4.36,1.01.32,1.36-.09l2.18-2.55c.35-.41.3-1.03-.1-1.39l-1.49-1.33c.44-.76.82-1.56,1.14-2.4l1.94.4c.52.11,1.03-.24,1.12-.77l.62-3.3c.1-.53-.24-1.04-.76-1.15l-1.94-.4c.01-.9-.05-1.78-.19-2.65l1.85-.63c.5-.17.76-.72.59-1.23l-1.09-3.16c-.17-.5-.72-.78-1.22-.61l-1.85.63c-.42-.77-.91-1.51-1.46-2.2l1.27-1.47c.34-.4.3-1-.1-1.36l-2.49-2.19c-.4-.35-1-.31-1.34.08l-1.26,1.45c-.74-.46-1.53-.85-2.35-1.18l.37-1.89c.1-.52-.24-1.02-.75-1.13v.02ZM505.18,239.88c-5.29-1.08-8.7-6.3-7.62-11.63,1.07-5.3,6.18-8.71,11.42-7.64,5.23,1.07,8.66,6.22,7.64,11.53-1.02,5.35-6.14,8.83-11.44,7.75h0Z"/>
    <path class="st4" d="M499.4,184.34l-2.42-.09c-.39-.01-.71.29-.72.68l-.04,1.41c-.65.09-1.28.23-1.89.43l-.66-1.24c-.18-.34-.61-.47-.95-.29l-2.14,1.14c-.34.18-.47.61-.29.95l.65,1.23c-.51.4-.99.85-1.43,1.33l-1.18-.74c-.33-.21-.76-.11-.97.22l-1.3,2.07c-.21.33-.11.77.22.98l1.17.74c-.24.6-.44,1.24-.57,1.89l-1.39-.05c-.39-.01-.72.29-.73.69l-.1,2.47c-.02.4.29.73.68.74l1.39.05c.09.67.23,1.32.43,1.94l-1.23.66c-.35.19-.48.62-.3.97l1.15,2.2c.18.35.61.49.96.3l1.24-.67c.41.53.86,1.02,1.35,1.46l-.75,1.22c-.21.34-.11.79.23,1l2.09,1.33c.33.21.78.11.98-.23l.75-1.23c.6.25,1.23.44,1.89.58l-.04,1.46c-.01.4.3.74.69.75l2.47.09c.39.01.72-.3.73-.7l.04-1.47c.65-.09,1.29-.24,1.91-.45l.69,1.3c.19.36.62.49.97.3l2.16-1.18c.35-.19.47-.63.28-.98l-.7-1.31c.51-.41.98-.86,1.41-1.35l1.24.79c.34.21.77.11.98-.23l1.27-2.12c.2-.34.1-.78-.24-.99l-1.24-.78c.23-.6.41-1.23.54-1.88l1.46.05c.39.01.71-.3.72-.69l.05-2.47c0-.39-.3-.72-.69-.74l-1.45-.05c-.1-.65-.25-1.29-.45-1.9l1.27-.68c.34-.18.47-.61.28-.96l-1.17-2.16c-.19-.34-.61-.48-.96-.29l-1.26.68c-.4-.51-.84-.98-1.33-1.42l.75-1.22c.2-.33.1-.76-.23-.97l-2.07-1.29c-.33-.21-.76-.11-.96.22l-.74,1.2c-.59-.24-1.21-.43-1.85-.57l.04-1.42c.01-.39-.29-.71-.68-.73v.02ZM497.57,204.64c-3.97-.14-7.07-3.52-6.93-7.51.14-3.97,3.43-7.06,7.35-6.92,3.92.14,7.03,3.46,6.93,7.43-.09,4-3.39,7.14-7.35,7Z"/>
  </g>
  <path class="st4" d="M855.98,496.3l-.05.56c-.17,2.01-1.92,3.06-3.4,2.98l-292.45-14.35c-1.66-.08-3.29-1.35-3.1-3.48l.05-.6c.18-2.13,1.78-3.55,3.43-3.47l292.74,14.8c1.47.07,2.94,1.55,2.76,3.56h.02Z"/>
  <path d="M547.91,481.81c-.62,7.25-6.07,12.9-12.25,12.61h-.4c-6.2-.31-10.97-6.45-10.35-13.74l.02-.18c.63-7.28,6.44-12.92,12.64-12.59h.23c6.18.33,10.75,6.47,10.13,13.72l-.02.18h0Z"/>
  <path d="M694.26,488.96l-.02.28c-.1,1.21.15,2.83-.31,2.81l-134.48-6.59c-1.66-.08-2.64-1.32-2.46-3.45l.05-.6c.18-2.13,1.78-3.55,3.43-3.47l133.47,6.74c.78,1.27.46,2.56.31,4.28h.01Z"/>
  <path d="M759.73,558.43c1.29-11.96,2.59-23.92,3.89-35.88-1.49-.02-2.99-.05-4.48-.07-1.4,14.94-2.8,29.91-4.2,44.91,3.39-1.96,4.2-3.44,4.79-8.96h0Z"/>
  <path d="M967.24,975.14c0-.39.01-.78.02-1.16-38.14-.74-76.27-1.48-114.76-2.22.81-6.09,1.85-11.63,2.2-17.22.26-4.21,2.12-4.9,5.93-4.87,21.05.19,42.1.09,63.15.09v-1.52h-68.13c1.5-15.2,3.13-29.92,4.38-44.68,5.01-59.41,9.14-118.87,10.31-178.5.18-9.34.42-18.68.63-28.02.05-2.07.33-3.86,3.08-3.84,7.37.05,14.75.02,22.5.02-.2,3.22-.4,6.5-.6,9.78.97-2.41,1.59-4.87,1.67-7.34.08-2.59.99-3.59,3.65-3.78,5.89-.43,11.75-1.22,17.63-1.86-.01-.16-.02-.32-.04-.48-6.6.35-13.2.7-20.09,1.06.39-2.54,1.01-4.7,1-6.86,0-3.58,1.8-4.74,5.07-5.2,3.05-.42,6.12-1.24,8.98-2.39,3.07-1.23,3.13-3.54.21-5.12-1.93-1.04-4.12-1.62-6.25-2.25q-6.59-1.93-5.64-8.83c.05-.38.37-.72.65-1.23,5.41.85,10.78,1.69,16.14,2.54.06-.38.11-.76.17-1.14-7.69-1.6-15.33-4.21-23.08-4.6-25.76-1.29-51.57-1.92-77.36-2.53-13.17-.31-26.34-.05-39.86-.05.4-2.73.6-4.15.87-6.01,25.26,1.02,50.38,2.04,75.49,3.06.02-.33.03-.65.05-.98-24.95-1.32-49.9-2.65-73.62-3.91-2.92-5.57-4.74-10.72-7.95-14.77-5.66-7.14-13.49-11.59-22.28-13.93-19.16-5.09-37.04-3.76-51.93,11.22-.48.49-1.3,1.12-1.81,1.02-4.3-.91-8.57-1.97-12.85-2.99.04-.41.09-.82.13-1.23,1.42-.44,2.84-.88,4.66-1.45-9.98-4.87-20.51-1.82-30.44-3.35.02-.41.03-.82.05-1.23h19.51c0-.37.01-.73.02-1.1-6.69-.32-13.38-.63-20.81-.98.98-15.57,1.94-30.7,2.92-46.22,4.33,0,8.02.22,11.68-.05,4.96-.37,8.56,1.57,12.2,4.91,10.87,9.95,18.74,22.13,26.69,34.29,1.46,2.24,3.18,4.31,4.78,6.45.44-.29.89-.59,1.33-.88-4.4-7.78-8.3-15.9-13.34-23.24-5.05-7.34-11.24-13.89-17-20.86,19.11.37,38.63.11,58.32,1.11.93-3.55,7.86,2.19,8.82-3.78-2.53-.68-4.86-1.31-7.58-2.05.48-14.65,1.91-29.18,3.77-43.64-2.91-.05-5.81-.08-8.72-.1-.63,6.56-1.27,13.12-1.9,19.69-.43.08-.86.17-1.3.25-.6-3.4-1.95-6.87-1.67-10.2.28-3.26.57-6.52.86-9.79-.49,0-.97-.04-1.45-.09-.2,4.18-.38,8.35-.55,12.52-.15,3.59,1.92,7.28,3.06,11.23-.36.07-.88.23-1.39.25-40.32.85-80.63,2.33-120.95,2.33-29.93,0-59.86-1.95-89.8-2.91-7.52-.24-15.05-.04-23.3-.04,1.69-20.79,3.28-41.32,5.15-61.83.18-1.95,1.71-4.05,3.15-5.56,21.47-22.5,33.65-49.62,39.27-79.82,3.02-16.24,3.04-32.59,1.4-49.13-.6-6.03-2.29-11.79-2.8-18.92.17,0,.34-.02.51-.02-.53-1.37-1.06-2.74-1.58-4.11-.69-.1-1.38-.21-2.07-.29l.1-1.52,1.26-.06c-.66-1.75-1.31-3.49-1.95-5.24-1.82-.49-3.48-1.66-4.76-4.18,1.06-.07,2.11-.13,3.17-.2-.61-1.71-1.23-3.42-1.83-5.13-.03-.09-.05-.17-.08-.26-.69-.58-1.19-1.43-1.56-2.62-.07,1.31-.13,2.62-.18,3.56-10.23-13.88-20.03-28.32-31.02-41.78-11.15-13.65-25.91-23.23-41.75-32.79,1.49.26,2.14.22,2.64.48,17.62,9.18,34.97,18.72,48.33,33.99,2.38,2.72,5.12,5.13,7.69,7.68-18.89-25.5-43.69-42.14-74.62-49.43-9.07-2.14-18.29-3.67-27.33-5.93-27.55-6.9-53.84-3.76-78.66,9.93-12.94,7.14-25.85,14.46-38.04,22.79-8.35,5.7-16.37,12.46-22.9,20.14-22.97,26.96-33.44,59.48-39.59,93.7l-.09-.07c.37.93,1.11,1.88,1.06,2.78-.47,8.58-1.05,17.16-1.65,25.74-2.77,39.49,10.46,72,42.29,96.21,17.67,13.43,37.53,22.48,58.88,28.39,3.59.99,7.15,2.07,10.72,3.11-2.05,1.5-4.08,1.9-5.89,2.78-5.89,2.87-11.7,5.91-17.55,8.88,9.24-3.75,18.49-7.51,26.51-10.77-8.3,6.13-17.25,13.32-26.84,19.52-3.45,2.24-8.44,2.11-13.26,2.31,1.99-2.14,3.98-4.29,5.96-6.43-1.72,1.34-3.67,2.47-5.1,4.06-2.27,2.54-4.82,3.48-8.21,3.26-4.49-.29-9.02-.23-13.52-.12-7.55.18-15.13.22-22.65.87-7.66.66-15.39,1.44-22.85,3.2-7.03,1.66-14.28,1.39-21.23,3.45-4.89,1.45-9.98,2.23-14.98,3.31.06.33.12.66.19.98,6.13-1.13,12.26-2.27,19.32-3.57-7.33,3.08-13.73,5.78-20.13,8.47.15.41.3.82.44,1.23,1.96-.2,3.91-.41,6.27-.65-1.32,28.93,2.33,57.05,7.26,85.06-.38.08-.76.16-1.13.24-3.16-10.29-6.33-20.59-9.49-30.88,4.02,22.48,13.46,43.3,19.26,65.3-2.38-5.95-4.77-11.91-7.15-17.86,2.62,19.49,14.74,47.06,27.37,63.97,3.68,4.92,7.24,9.73,13.27,12.04,1.04.4,1.72,1.76,2.57,2.67-.31.35-.62.7-.94,1.04-9.55-3.66-20.28-5.27-25.37-16.34-1.91-4.16-4.63-7.96-6.48-12.14-3.48-7.86-6.59-15.88-10.02-24.24,3.4,16.54,22.41,53.22,26.07,50.57-.58-1.04-1.16-2.07-1.74-3.11,7.1,3.69,15.41,4.41,21.94,9.54.79,0,2.35-.23,3.8.05,2.61.5,5.13,1.76,7.73,1.89,3.38.17,4.1,1.69,4.24,4.72.49,10.81,1.16,21.62,1.97,32.41.18,2.36,1.23,4.65,1.89,7.02-7.06,2.54-15.11,4.68-14.75,14.83-6.12,2.1-8.47-1.05-9.53-6.32,2.61,13.08,5.22,26.15,7.74,38.78.09-.73.24-1.97.46-3.82,9.67,10.81,20.26,19.47,33.24,24.88-9.02-5.56-17.91-11.24-24.54-20.41,4.45,2.65,8.5,5.07,12.55,7.48.13-.25.26-.5.4-.76-1.8-1.33-3.61-2.66-5.41-3.99,9.22,3.12,18.31,6.14,27.63,8.07,10.13,2.09,20.46,3.23,30.73,4.65,3.44.48,5.65,1.44,5.7,5.62.07,5.32.62,10.67,1.46,15.93.4,2.52,1.27,5.82,3.09,7.1,4.09,2.87,4.3,6.69,4.47,10.83.07,1.78-.05,3.65.5,5.29.43,1.27,1.76,2.24,2.69,3.34.38-.26.75-.51,1.13-.77v-4.92c2.65.33,4.93.61,7.83.97v42.97c-90.53.84-180.62,1.68-270.72,2.52,0,.4,0,.81.01,1.21,89.89-.82,179.79-1.64,269.68-2.46.13.67.25,1.33.38,2-2.02.61-4,1.57-6.06,1.78-24.1,2.42-46.79,8.96-67.3,22.3-2.99,1.95-6.6,3.01-10.01,4.24-3.75,1.35-7.71,2.18-11.38,3.71-1.65.69-2.83,2.51-4.44,4.03,6.01-2.62,11.36-4.95,16.71-7.28.12.28.24.57.35.85-3.85,3.81-7.7,7.62-11.52,11.4,4.39.91,7.83,1.62,11.27,2.33,0,.47-.02.93-.03,1.4l-93.61,12.21c8.78,0,17.42-1.18,26.09-1.95,16.98-1.52,33.97-2.85,50.97-4.18,1.19-.09,2.63.13,3.6.76,3.13,2.03,5.84,5.49,9.18,6.18,3.4.7,7.35-1.22,11.06-1.99.24-.61.49-1.22.73-1.83,1.55,2.17,3.1,4.34,4.65,6.52.21-.23.41-.45.62-.68-1.98-3.16-3.96-6.33-6.82-10.9h74.7c0-.79,0-1.59-.01-2.38h-75.05c-.02-.49-.05-.99-.07-1.48,18.03-7.73,36.36-14.49,56.26-17.41-.34,1.4-.58,2.42-.84,3.51,3.07-.51,5.88-.98,8.68-1.45.05.4.1.8.16,1.2-.55.07-1.19-.02-1.62.25-1.47.89-4.01,1.85-4.06,2.88-.13,2.73,2.32,2.92,4.52,2.64,2.01-.25,4-.58,6.01-.88-.09-.86-.17-1.62-.25-2.39,1.64.32,2.96,1.12,3.02,1.99.05.77-1.16,1.9-2.07,2.4-.83.46-2.01.39-3.03.42-14.97.4-29.93.72-44.9,1.2-2.36.07-4.71.79-7.06,1.22.04.38.07.76.11,1.14,1.25.29,2.5.84,3.74.84,17.17.08,34.34.09,51.52.12.15,0,.3-.03.44-.05,5.2-.85,7.45-4.54,5.33-9.36-1.02-2.31-2.77-4.29-4.4-6.74,5.35.33,10.65.54,15.92,1.07,1.25.13,3.15,1.06,3.48,2.05,2.21,6.67,4.08,13.44,6.23,20.78h-70.17c20.15,3.17,40.46,2.22,60.34,2.45,1.06,2.51,1.73,4.8,2.93,6.77,1.24,2.05,2.97,3.79,4.46,5.64-62.37,2.08-124.46,5.72-186.34,12.6,2.92.18,5.84.36,8.73.15,34.14-2.53,68.27-5.26,102.43-7.62,16.56-1.14,33.17-1.99,49.76-2.28,16.12-.28,32.25.36,48.37.48,1.53,0,3.09-.7,4.61-1.18.91-.29,1.75-1.11,2.63-1.11,12.01.02,24.01.15,36.02.23,4.02.03,8.03,0,12.05,0,.02-.5.03-1,.05-1.49-15.94-.68-31.88-1.37-47.42-2.03v-9.52h-13.62c2.02-1.99,3.25-3.2,4.5-4.44h-3.35v-23.96c9.01,1.2,18.01,2.5,27.04,3.5,1.45.16,3.04-.86,4.57-1.4.02.02.04.04.06.06.91,1.61,1.81,3.23,2.86,5.12-8.41,1.86-16.7-2.11-24.62.31,0,.49,0,.98-.01,1.47,8.81,1.14,17.61,2.29,25.77,3.34-1.07,1.24-2.17,2.52-3.28,3.8,2.06,1.56,4.12,3.12,6.27,4.74h-29.39v1.32c17.72,1.95,35.5,1.6,53.35.55-3.07-1.1-6.21-1.38-9.32-1.91-1.25-.21-2.41-.98-3.6-1.5,1.13-.47,2.26-.95,3.34-1.4-.79-1.74-1.6-3.53-2.89-6.39h46.75c.01-.52.03-1.05.04-1.57-14.22-.79-28.45-1.58-42.67-2.38.03-.51.07-1.01.1-1.52,8.01.59,16.02,1.5,24.04,1.69,7.36.18,14.76-.11,22.09-.78,4.85-.44,9.37-1.3,11.68,4.44.11.27.71.34,1.47.67v-4.85c16.08,10.62,33.14,7.56,50.19,5.62-20.76,5.29-41.9,7.6-63.11,9.49,26.94.09,53.36-3.5,79.08-11.88.12.4.23.8.35,1.2-6.2,2.52-12.4,5.04-18.6,7.57,12.5-1.06,22.64-10.63,35.94-8.55-.02-.37-.05-.73-.07-1.1-.83-.54-1.65-1.07-3.54-2.3,4.51-.53,7.8-1.24,11.09-1.24,20.61.03,41.22.24,61.84.31,1.75,0,3.5-.65,5.24-1,.11-.59.22-1.18.32-1.77-2.83-1.21-5.57-3.1-8.52-3.52-11.13-1.6-22.33-2.83-33.52-4-6.09-.64-12.23-.86-17.67-1.23.82-6.13,1.93-11.64,2.23-17.19.47-8.72-3.22-12.64-11.76-13.81-9.91-1.36-19.66-.55-29.36,1.6-4.28.95-8.56,1.94-13.45,3.05-1.94-13.07-3.83-25.77-5.71-38.48.43-.07.86-.14,1.3-.21,1.73,9.75,3.46,19.51,5.19,29.26.41-2.79.03-5.42-.48-8.03-3.5-17.78-4.5-35.59-4.02-53.8.59-22.47-.99-45.03-2.52-67.5-.63-9.32-3.56-18.48-5.55-28.22,2.41,4.97,4.65,9.58,6.88,14.19.19-.06.39-.12.58-.19-1.27-3.66-2.55-7.31-3.82-10.97.29-.13.58-.26.86-.39,1.95,3.41,3.91,6.81,5.86,10.22.24-.59.2-1.02.04-1.39-4.05-9.46-8.82-18.26-19.11-22.49-4.06-1.67-7.74-4.9-11.89-5.55-8.72-1.36-17.68-1.16-26.47-2.22-7.28-.87-14.6-2.14-21.62-4.21-3.03-.89-5.36-2.37-8.67,1.08.79-5.18,1.41-9.3,2.04-13.42-1.45,2.07-2.1,4.31-2.9,6.5-.78,2.14-1.72,4.23-2.59,6.34,4.98-21.51,4.61-43.1,3.46-65.04,2.37.12,4.19.22,6.55.34,1,19.1,1.97,37.74,2.95,56.37h.45c-.49-18.44-.98-36.88-1.49-55.93,96.12,4.54,192.12,9.08,288.13,13.62.02-.52.05-1.03.07-1.55-96.17-4.56-192.34-9.12-288.88-13.7-.08-1.44-.16-2.81-.26-4.54,101.6,2.62,202.79,5.23,305.23,7.88-1.76,51.45-3.5,102.68-5.25,153.9.17,0,.34.01.51.02,2-38.14,4-76.27,6-114.41,4,72.24-.15,144.44-.92,217.24h-30.56v1.07h30.68c.41,7.18.79,13.89,1.18,20.91h-41.17v.99h36.5v11.31h-43.25c-.01.38-.03.77-.04,1.15,2.17,0,4.35-.09,6.51,0,13.46.65,27,.71,40.37,2.22,11.32,1.27,14.06-.38,13.36-11.56.52.94,1.04,1.88,1.56,2.81.34-.06.69-.12,1.03-.18-.29-1.89-.58-3.78-.79-5.12h23.03c-.24,4.59-.45,8.6-.66,12.64,5.71,0,10.74.13,15.76-.09,1.23-.06,3.14-1.06,3.42-2.02.39-1.3.02-3.64-.92-4.36-1.73-1.31-4.11-1.77-6.44-2.66.02-.44.09-1.72.17-3.39,37.99.7,75.83,1.4,113.67,2.1l-.05.02ZM901.28,669.74c4.73,1.05,8.94,1.98,13.16,2.91-.02.64-.04,1.28-.06,1.92-4.46,1.1-8.91,2.2-14.13,3.49.37-2.98.64-5.19,1.03-8.32h0ZM283.34,833.75c-.49.07-.99.13-1.48.2-1.72-6.19-3.45-12.39-5.28-18.98h6.76v18.78ZM286.79,811.82c-2.38-4.09-.02-7.55,5.97-8.44-2.15,3.04-4.02,5.67-5.97,8.44ZM859.51,685.5c3.33,1.61,8.03-2.38,10.89,3.1-7.66,2.05-11.28,1.1-10.89-3.1ZM868.74,693.43c-3.82,28.51-7.58,56.59-11.34,84.68-.17-.02-.33-.04-.5-.05.46-28.25.92-56.49,1.4-85.3,3.69.24,6.72.43,10.44.67h0ZM894.63,689.05h-22.35c.8-1.45,6.85-2.55,18.16-3.29h-18.84v-1.12h23.03v4.41h0ZM895.45,682.43c-4.27.2-8.36.33-12.44.58-7.04.44-14.08,1.03-21.12,1.35-1.05.05-2.16-.99-3.24-1.52.92-.72,1.84-1.44,2.45-1.92-.62-.94-1.34-2.05-2.5-3.81h36.85v5.32h0ZM894.78,660.09c-5.8,0-11.6-.03-17.4,0-5.57.04-11.2,1.03-16.7.08.03-.63.05-1.26.08-1.89h37.66c-.49,3.12-.83,5.27-1.24,7.88-2.44,0-4.74.06-7.04-.01-8.87-.28-17.74-.56-26.61-.99-1.03-.05-2.01-1.04-3.01-1.59,1.05-.54,2.08-1.53,3.14-1.56,8.87-.26,17.75-.34,26.62-.47,1.51-.02,3.02,0,4.52,0l-.03-1.45h.01ZM863.33,668.2c9.88.09,19.77.26,29.65.55.98.03,1.94,1.05,2.9,1.6-.97.35-1.93.99-2.9.99-9.59-.03-19.18-.15-28.77-.28-1.28-.02-2.56-.24-3.84-.36-.15-.48-.3-.96-.45-1.44,1.14-.37,2.28-1.07,3.41-1.06h0ZM861.87,672.57c11.19-.1,22.38-.07,33.57-.07.19.62.39,1.24.58,1.85-1.02.48-2.04,1.36-3.06,1.38-10.03.11-20.07.13-30.11.02-1.01-.01-2-1.04-3.01-1.6.67-.55,1.34-1.57,2.02-1.57h.01ZM733.21,619.47c18.17-.93,37.04,10.08,40.83,23.86h-76.01c2.08-12.82,17.1-22.94,35.18-23.86ZM696.4,649.74h78.63c.01.27.03.54.04.81h-78.67v-.81ZM687.07,630.66h9.23c-1.34,5.65-1.6,5.77-9.45,4.24.06-1.23.13-2.5.22-4.24ZM686.35,638.83c2.7-.45,4.96-.82,7.77-1.29-.72,2.21-1.29,3.93-1.84,5.64h-5.92v-4.35h-.01ZM679.34,643.85c-9.82,1.76-19.69,3.31-29.84,4.96v-4.48c10.27-1.41,20.59-2.82,30.9-4.23.36.38.72.76,1.09,1.14-.71.91-1.31,2.47-2.15,2.62h0ZM681.25,649.79h-17.28c6.14-.32,11.7-.6,17.26-.89,0,.3.01.59.02.89ZM681.08,630.98v5.19c-10.51,1.18-20.99,2.36-31.47,3.53-.09-.44-.17-.88-.26-1.33,3.72-.59,7.43-1.18,11.15-1.77-.02-.2-.04-.4-.06-.6-3.48.32-6.96.65-10.43.97-.27-.4-.53-.79-.8-1.19,1.05-.79,2.04-2.16,3.15-2.27,9.49-.97,18.99-1.71,28.72-2.53h0ZM642.86,633.31c-.01.42-.02.84-.03,1.26-3,.19-6,.39-9.01.58-.07-.24-.14-.48-.21-.72.15-.09.3-.18.41-.24-1.46-3.97-2.9-7.87-4.34-11.78.17-.07.34-.13.51-.2,1.42,1.75,2.85,3.5,4.64,5.71-.16.28-.87,1.5-1.8,3.09,3.32.78,6.57,1.54,9.82,2.3h.01ZM640.53,639.68c0,.14-.02.28-.02.43h-7.77c-.1-1.19-.21-2.39-.36-4.12,4.13.23,7.8.43,11.47.63,0,.46.01.92.02,1.38h-8.89c-.02.42-.04.85-.05,1.27,1.87.14,3.73.27,5.6.41ZM631.99,642.58h12.37c.15,1.91.31,3.98.5,6.38h-13.88c.34-2.18.66-4.18,1-6.38h0ZM629.32,620.68c.03-.51.05-1.02.08-1.53h20.98c0,.44,0,.87.01,1.31-7.02.21-14.02,1.47-21.06.22h-.01ZM628.52,606.15c-.42,2.71-.84,5.42-1.26,8.12-.44.22-.88.44-1.31.66-.91-1.4-2.52-2.74-2.62-4.2-.38-5.45-.31-10.94-.34-16.41-.04-6.95,0-13.89-.1-20.88-.49,12.31-.98,24.62-1.5,37.5-2.37-1.33-4.23-2.24-5.93-3.39-.7-.48-1.52-1.49-1.49-2.23.42-12.1.98-24.2,1.48-35.82h35.65c-.79,15.58-1.53,30.28-2.29,45.17h-8.88c1.47-13.07,2.92-26.04,4.38-39.01-.53-.07-1.07-.14-1.6-.21-1.91,12.86-3.83,25.72-5.8,38.97h-8.16v-8.28h-.23,0ZM652.61,569.93c.62-.14,1.24-.28,1.85-.43.4,1.23,1.23,2.49,1.15,3.68-.73,10.46-1.63,20.91-2.47,31.36-.26,3.24-.46,6.48-.68,9.72-.54-.05-1.08-.09-1.63-.14.59-14.74,1.18-29.47,1.77-44.21v.02ZM740.07,551.58c-24.42-.65-48.06-1.28-71.71-1.91,21.98-2.58,69.51-1.58,71.71,1.91ZM503.4,554.22c.53-3.65,3.24-3.16,5.69-3.12,32.77.43,65.55.62,98.31,1.4,28.31.68,56.61,2.17,84.92,3.04,13.48.41,26.99.13,40.48.28,8.35.09,8.35.18,10.39,8.67.61-3.43,1.15-6.42,1.68-9.41l1.41.12c-.19,3.6-.39,7.21-.6,11.15-58.7-1.48-117.04-2.94-175.38-4.41v-.47h96.32v-.62h-178.87c1.17-11.69,2.22-22.56,3.37-33.43.96-8.99,2.48-17.94,2.94-26.96.33-6.5,3.19-10.76,9.23-14.24-2,22.05-3.97,43.7-5.96,65.65,1.51.26,2.91.5,4.59.79-.22.71-.42,1.39-.74,2.44,1-.38,2.16-.55,2.21-.88h.01ZM535.84,587.64c-15.31-7.46-30.57-15.05-45.79-22.7-1.22-.61-2.06-2-3.05-3.07,7.09.91,14.13,2.3,21.23,2.63,32.88,1.52,65.77,2.74,98.66,4.08,1.31.05,2.61.2,4.48.35-.84,12.6-1.65,24.95-2.53,38.1-8.16-2.96-14.95,1.11-22.24,2.55-8.97,1.77-18.17-.15-26.8-3.4-21.36-8.05-40.23-20.68-59.29-33.01,19.62,8.9,39.25,17.81,58.88,26.71.16-.36.33-.72.49-1.08-8.01-3.71-16.09-7.3-24.02-11.16h-.02ZM486.73,561.7c-3.23-1.23-6.54-2.29-9.66-3.75-14.2-6.66-28.76-11.76-44.76-11.23-2.9.1-4.7-.88-4.8-4.24-.05-1.84-.91-3.65-1.59-6.15,4.25,1.19,7.98,2.23,11.71,3.27.07-.19.14-.39.2-.58-4.36-1.82-8.71-3.65-13.07-5.47.21-.57.42-1.14.62-1.7,9.46,2.37,18.91,4.73,28.37,7.1.08-.28.16-.55.24-.83-6.3-1.84-12.6-3.7-18.9-5.52-3.56-1.03-7.19-1.84-10.67-3.06-1.54-.54-2.8-1.86-5.25-3.56,27.77-2.82,50.78-13.89,72.38-30.29-1.26,12.79-2.57,24.93-3.63,37.08-.75,8.56-1.2,17.15-1.71,25.73-.06,1.06.31,2.14.52,3.21h0ZM420.87,531.58c-3.73-1.38-7.35-2.72-10.73-3.98,5.36-3.24,6.98-2.69,10.73,3.98ZM402.93,519.92c.11-.62.22-1.25.33-1.87,2.68.37,5.35.74,8.03,1.1-.13.77-.26,1.53-.4,2.3-2.65-.51-5.31-1.02-7.96-1.53h0ZM418.77,520.11c-1.68.46-3.91-1.04-5.89-1.63l.72-.75c11.6-2.56,23.2-5.12,34.8-7.69.1.33.21.66.31.99-9.97,3.08-19.9,6.31-29.95,9.08h0ZM472.82,503.09c-14.38,10.1-30.59,15.46-48.5,18.81,16.68-6.47,32.59-12.64,48.5-18.81ZM502.11,482.18c-.29-.26-.58-.52-.87-.79,7.05-7.78,14.11-15.55,21.16-23.33.32.29.64.58.95.87-7.08,7.75-14.16,15.5-21.24,23.25h0ZM514.29,463.12c26.15-40.04,39.68-82.69,27.32-130.79,12.92,32.45,10.9,89.83-27.32,130.79ZM418.22,222.87c-13.35,1.46-28.24,2.52-42.94,4.85-14.65,2.32-28.47,7.69-42.09,14.87,15.3-17.1,60.69-27.04,85.02-19.72h.01ZM304.93,260.47c-10.69,11.61-21.2,23.01-32.56,35.33,9.48-14.08,19.52-25.96,32.56-35.33ZM283.84,288.62c9.76-11.38,19.35-23.18,33.4-30.41,17.45-8.99,35.56-15.4,54.93-18.31,3.58-.54,7.18-.97,10.71-1.74-18.8.42-36.64,5.17-54.02,12.14,10.27-7.39,21.83-12.01,33.73-15.47,22.56-6.55,45.61-9.59,68.99-5.53,6.87,1.19,13.42,4.31,20.09,6.63,1.63.57,3.12,1.51,5.1,1.56l-10.08-5.81c40.63,13.62,68.38,41.45,87.69,79.09-1.91.28-3.45.27-4.78.8-.9.36-1.49,1.47-2.22,2.25.9.56,1.75,1.22,2.71,1.63.48.2,1.19.02,1.75-.13,3.63-.98,5.3.56,5.44,4.43-1.28.43-2.63.89-4.91,1.66,2.3,1.38,3.96,2.37,6.08,3.64-.7,1.73-1.43,3.56-2.29,5.7,1.36-.08,2.46-.15,3.49-.21.27.34.55.54.6.79,3.84,19.6,5.8,39.34,2.68,59.21-3.64,23.21-13.85,43.85-25.23,64.13-14.61,26.04-37.59,39.84-65.57,46.9-28.2,7.11-56.35,5.98-84.55-.19-5.19-1.13-9.45-3.09-12.84-7.12-.78-.92-1.84-1.6-3.65-3.14,2.11,3.02,3.51,5.03,4.91,7.04,3.17,1.84,6.34,3.69,8.56,4.98,2.2-.21,3.69-.64,5.08-.44,9.35,1.39,18.63,3.51,28.02,4.27,25.15,2.03,50.02,1.08,73.55-9.63.21-.09.54.07,1.85.3-28.47,13.07-56.97,20.8-87.97,16.95.03.07.09.38.26.62.25.34.57.64,1.73,1.89-17.23-2.08-33.03-5.73-48.42-11.24,5.24,2.1,10.34,4.69,15.75,6.21,9.66,2.71,19.49,4.78,29.84,7.26-.84.32-1.27.64-1.69.62-16.07-.95-31.81-3.62-46.32-10.84-5.33-2.65-9.92-6.82-14.76-10.42-2.11-1.57-3.98-3.46-5.96-5.2,3.69,4.47,7.38,8.93,10.66,12.9-7.53-3.88-15.31-8.97-22.43-15.15-1.83-1.59-3.96-2.84-5.96-4.25-1.18-.64-2.53-1.09-3.5-1.96-23.82-21.41-35.64-49.07-41-79.89-7.55-43.42,1.63-82.81,30.56-116.51h-.01ZM348.17,520.8c-18.85-6.33-37.12-14-53.69-25.22-32.11-21.74-48.72-51.66-47.89-90.78.01-.65.17-1.29.26-1.93,12.5,66.59,53.07,105.36,118.1,120.27-.15.45-.3.9-.45,1.35-5.46-1.2-11.07-1.91-16.34-3.68h0ZM351.31,537.1c.23.35.45.69.68,1.04-4.95,3.4-9.9,6.81-14.85,10.21-.29-.44-.58-.88-.87-1.33,5.01-3.31,10.03-6.62,15.04-9.93h0ZM284.04,550.04c.02.26.04.53.07.79-7.4.81-14.8,1.62-22.19,2.43l-.12-1.29c7.42-.64,14.83-1.29,22.25-1.93h-.01ZM278.07,745.27c4.57,1.66,8.36,3.03,12.42,4.51-3.26,1.2-10.69-1.22-12.42-4.51ZM273.18,570.98c-4.22-.16-8.41-.96-13.66-1.59,3.6-5.31,6.7-8.3,12.24-8.17,19.41.47,38.83.61,58.24,1.02,8.03.17,15.15,2.78,20.32,9.26,1.25,1.56,1.96,3.6,2.72,5.49,9.73,24.26,12.53,50.23,18.62,75.39,3.42,14.1,6.46,28.3,9.67,42.45.13.58.1,1.41.47,1.68,5.07,3.66,3.16,8.97,3.21,13.75.01.97-1.13,1.95-1.75,2.92-.46-.17-.92-.33-1.38-.5-.16-2.45-.32-4.89-.49-7.34-.18-2.73-.8-4.46-4.35-3.5-2.59.7-4.89-.03-6.16-3.29-.98-2.53-3.3-4.52-4.93-6.82-.5-.71-.67-1.65-1.36-3.45,2.59,1.26,4.19,2.04,6.17,3.01-2.96-10.39-5.56-20.39-8.79-30.18-.79-2.38-3.52-4.21-5.57-6.07-2.38-2.15-2.24-4.04-.42-6.52,1.01-1.38,1.94-3.53,1.61-5.05-3.84-17.5-7.91-34.95-11.99-52.39-.5-2.15-1.39-4.22-2.12-6.31-2.89-8.24-8.39-12.17-17.42-12.24-17.63-.14-35.26-.9-52.88-1.56h0ZM391.27,720.79c-.98,2.44-1.72,4.7-2.8,6.79-.49.95-1.9,2.34-2.47,2.16-1.27-.39-3.03-1.5-3.24-2.57-.47-2.52-.15-5.2-.15-8.65,3.59.94,6.24,1.64,8.65,2.27h.01ZM390.46,597.43c8.93,34.43,15.5,70.35,17.26,107.02-.38.06-.76.12-1.14.18-5.43-36.09-10.85-72.19-16.11-107.2h-.01ZM383.03,670.94c-2.9-2.43-4.51-9.01-4.88-12.98-.44-4.75-2.38-9.33-3.3-14.06-.9-4.67-1.33-9.44-1.97-14.16.49-.05.98-.11,1.47-.16,2.88,13.72,5.76,27.44,8.68,41.36h0ZM378.33,619.76c1.37,6.18,2.75,12.36,4.12,18.53-.39.07-.78.15-1.17.22-.98-6.25-1.96-12.51-2.95-18.76h0ZM382.74,695.46c-1.27-6.3-2.35-11.69-3.49-17.34,4.36,3.51,5.84,10.23,3.49,17.34h0ZM376.11,557.88c6.62,3.76,8.63,10.95,11.02,18.5-3.9-6.54-7.55-12.68-11.02-18.5ZM368.89,550.12c5.04.08,10.03.08,13.64,4.16-.11.99-.22,1.98-.41,3.71-4.65-2.77-8.94-5.32-13.23-7.87ZM372,577.06c2.12,9.93,3.83,19.94,5.43,29.97.64,4.03.57,8.18.81,12.28-.91-3.06-2.05-6.05-2.73-9.13-2.66-12.1-5.16-24.24-7.7-36.23,2.84-.23,3.44-.36,4.18,3.12h.01ZM354.74,665.22c-.94-.13-2.26.09-2.74-.45-1.82-2.03-4.09-4.12-4.71-6.57-.34-1.34,2.31-3.42,3.92-5.59,1.6,4.23,2.72,6.97,3.63,9.77.27.85-.05,1.89-.1,2.84h0ZM322.82,760.06c3.41-1.9,4.61-1.02,5.28,1.61,2.31,9.16,4.75,18.29,6.43,28.07-2.33-1.73-4.66-3.45-6.99-5.18.09-.06.17-.12.25-.18-1.68-8.2-3.35-16.39-4.97-24.33h0ZM307.42,616.28c-1.67-5.75-3.12-10.73-4.72-16.21,9.27,1.39,10.86,7.12,4.72,16.21ZM299,793.63s-.09.02-.14.03c-.51-12.9-1.03-25.81-1.54-38.71.56.03,1.12.05,1.68.08v38.6ZM301.51,594.47c-.62-3.22-.85-6.51-1.32-10.62,2.7.85,4.3,1.36,5.44,1.72,0,3.36.16,5.81-.08,8.21-.09.94-1.07,1.79-1.64,2.67-.83-.65-2.25-1.2-2.4-1.98ZM302.94,798.63c-.35-1.69,1.96-3.94,3.17-6.15-5.29-4.44-5.37-7.88,1.07-13.83-2.11.88-3.22,1.35-4.51,1.89v-24.48c3.77.81,8.28,1.53,12.59,2.86,1.2.37,2.45,2.46,2.66,3.9,2.11,14.49,4.02,29.01,6.08,44.26-4.24-.2-8.39-.39-12.54-.59-.71-2.26-1.37-4.51-2.36-7.83v11.97c-1.05-.15-1.52-.11-1.58-.24-1.63-3.9-3.73-7.71-4.58-11.78v.02ZM307.56,813.96c5.26-.58,2.32-5.24,3.9-7.44h0c2.41.27,4.82.75,7.22.73,3.66-.03,6.3.77,6.52,5.1.06,1.26.73,2.49,1.31,4.33-6.56-.94-12.75-1.84-18.95-2.73h0ZM331.36,801.19c-1.02-.58-2.78-1.01-2.92-1.75-.88-4.6-1.43-9.28-1.97-13.94-.03-.26.58-.59,1.05-.91,1.53,5.25,3.07,10.5,4.6,15.76-.25.28-.5.56-.76.85h0ZM332.28,828.13c.77-1.8,1.41-3.28,2.29-5.32.9,2.74,1,6.37,5.94,3.19-2.78,4.16-3.6,4.29-8.23,2.13ZM355.46,798.15c-5.52-1.61-9.53-4.41-10.88-10.3-.21-.93-1.05-1.72-1.7-2.74-1.64,3.36,4.11,6.06-.27,10.29-1.85-5.38-3.51-10.12-5.06-14.89-.1-.31.69-.91,1.06-1.38-1.08-3.24-2.16-6.48-3.47-10.41,1.88.36,2.78.54,3.67.71-4.01-2.19-4.24-5.91-4.14-10.24,9.09-.42,18.06-1.46,26.98-1.12,20.91.78,34.29-9.37,42.71-27.61,3.13-6.78,6.46-13.47,10.26-21.38.34,2.06.46,2.73.57,3.41.29-1.53.57-3.06.96-5.12-1.83.93-3.1,1.57-5.26,2.67-3.71-49.88-10.96-98.84-26.38-146.82,1.84.15,3.25.27,4.56.38-5.17-.71-5.73-5.12-6.56-9.3.04.04.07.07.11.12-.65-3.61-3.5-4.51-6.51-4.93-9.89-1.39-19.8-2.66-30.88-4.14,6.49-3.36,12.57-6.49,18.64-9.63h-.06c9.44-7.87,20.19-10.03,32.03-7.29,7.79,1.8,15.57,3.65,23.31,5.66,1.35.35,2.46,1.64,3.9,2.65-13.91-1.15-27.05-2.23-40.18-3.31-.04.6-.08,1.2-.12,1.81,3.56,0,7.14-.23,10.68.05,7.95.63,15.88,1.56,23.83,2.28,5.06.46,7.38,3.52,8.23,8.18.32,1.72.86,3.4,1.62,6.36.47-2.11.68-3.06.93-4.18,11.71-.21,23.05,1.55,33.33,7.51,18.2,10.55,36.31,21.25,54.36,32.07,11.18,6.7,21.8,14.45,33.39,20.31,6.66,3.37,14.71,4.17,22.24,5.6,4.68.89,9.56.72,14.34,1.16,1.4.13,2.75.74,3.58.98,5.71-4.68,12.16-3.78,18.9-3.68-.13,2.4-.24,4.52-.35,6.65.28.18.55.36.83.54,1.49-1.79,2.99-3.58,4.83-5.78,1,.81,2.13,1.62,3.15,2.56,1.7,1.58,2.45,4.82,5.89,3.25,1.26,3.14,3.26,6.2,3.56,9.43.24,2.65-3.48,3.39-7.08,1.98-1.03-.4-2.36-.02-3.56,0,.14,1.3.04,2.69.47,3.9,1.18,3.35,2.57,6.63,3.92,10.04-7.57,2.02-7.96,1.86-10.48-4.1-.99-2.33-2.43-3.69-5.14-3-5.09,1.31-10.23,2.45-15.27,3.96-3.68,1.1-6.25-.38-6.62-4.29-.55-5.86-.8-6.08-7.03-6.11.66.48,1.13.82,2.25,1.64-4.3-.43-7.93-.64-11.51-1.19-3.57-.55-7.02-2-10.51.63-.68.51-2.6-.46-3.89-.92-4.21-1.52-8.38-3.12-12.72-4.75.29-1.52.31-1.55,3.17-.78-.92-1.36-1.6-3.3-2.86-3.83-8.71-3.61-17.71-6.53-26.29-10.4-5.84-2.63-11.16-6.44-16.7-9.74-.63-.38-1.17-.9-1.8-1.27-2.9-1.69-5.65-3.82-8.77-4.93-9.13-3.25-14.57-10.26-19.58-17.92-1.67-2.55-3.75-4.84-6.13-6.92,2.82,4.73,5.64,9.46,8.46,14.18-.34.29-.68.58-1.02.87-3.89-4.57-7.79-9.13-11.68-13.7-.14.08-.29.16-.43.24,4.05,7.56,8.09,15.11,12.42,23.2h-17.53c-.02.33-.05.65-.07.98,4.15.22,8.3.68,12.44.58,4.38-.11,6.9,1.12,8.21,5.82,1.88,6.79,4.78,13.31,7.36,20.27-3.88.8-7.27,1.17-10.43,2.25-2.39.82-4.43,2.62-6.71,3.83-1.59.84-3.32,1.42-5.02,2.76h19.95c-2.42.53-3.94.96-5.5,1.19-1.6.24-3.23.3-4.83,1.28,2.56-.13,5.17,0,7.68-.44,4.58-.79,6.83.23,8.24,4.54-2.58.27-5.1.54-6.54.69.46,2.73.89,5.27,1.4,8.24-.15-.04.77.18,1.68.4-.01.54-.02,1.08-.03,1.62h-30.01v1.89c9.47,0,18.95.08,28.42-.05,2.92-.04,4.23,1.11,4.71,3.9.74,4.37,2.13,8.67,2.46,13.05.32,4.15-.37,8.37-.62,12.62h-15.69c-.05.38-.09.76-.14,1.14,5.2.33,10.39.65,16.47,1.04-.71,2.09-1.29,3.78-1.83,5.36.39.63,1.81,1.88,1.91,3.23.97,13.3,1.89,26.61,2.42,39.93.16,4.02-.97,8.09-1.5,12.13,1.86,4.26-1.17,7.27-2.58,10.79-5.53,13.77-19.13,20.3-27.87,31.2-2.18,2.71-5.82,4.38-9,6.14-4.63,2.56-9.46,4.77-13.91,7.88,2.87-.88,5.74-1.76,8.61-2.63.13.37.27.74.4,1.12-7.21,2.59-14.52,4.93-21.61,7.82-12.79,5.2-24.71.79-36.72-2.84-2.82-.85-5.51-2.12-8.25-3.19,5.26,2.71,10.52,5.43,15.14,7.82-1.24-.18-3.47-.22-5.53-.85-9.3-2.82-18.5-5.94-27.82-8.66v-.02ZM477.52,598.72c.29-.29.58-.58.87-.86,8.76,5.6,17.52,11.19,26.89,17.17-7.44,2.4-14.12,4.56-21.28,6.87-2.23-8-4.35-15.59-6.47-23.18h-.01ZM482.35,648.05c-1.66-1.52-3.32-3.05-5.65-5.19,5.19-1.22,7.11,0,5.65,5.19ZM530.83,626.5c-.05.43-.09.85-.14,1.28h-29.22c5.63-2.18,11.08-4.28,16.53-6.39.15.17.3.34.45.51-.82.94-1.65,1.87-2.6,2.95,5.09.56,10.03,1.1,14.97,1.65h.01ZM553.93,636.45c-.02.32-.03.65-.05.97-12.05-.67-24.1-1.34-36.16-2.01.03-.31.07-.61.1-.92,12.03.65,24.07,1.3,36.1,1.96h0ZM493.51,622.49c5.81-1.31,10.37-8.76,18.18-3.58-6.5,1.28-12.34,2.43-18.18,3.58ZM486.83,631.68c8.72.69,17.43,1.38,26.71,2.11-9.33.23-18.12.73-26.87.27.05-.79.11-1.59.16-2.38h0ZM527.66,644.37c19.69.43,39.4.84,59.09.57,6.17-.08,12.3-2.36,18.88-3.72.32,1.83.74,4.21,1.04,5.93-14.84,0-29.33-.03-43.82,0-22.81.06-45.63.11-68.44.34-3.31.03-4.58-1.08-4.44-4.71,12.61.55,25.14,1.31,37.69,1.59h0ZM563.79,641.62c4.04-3.33,7.48-1.74,10.65,1.39-3.55-.46-7.1-.93-10.65-1.39ZM412.19,833.21c-.01-.36-.03-.72-.04-1.08,6.6-.29,13.19-.58,19.79-.87.01.33.03.66.04.98-6.59.32-13.19.64-19.78.96h-.01ZM416.67,862.62v28.39c-.25.02-.51.03-.76.05v-28.39c.25-.02.51-.04.76-.05h0ZM394.96,828.87v-.34h18.32v.34h-18.32ZM407.44,892.61c-.54.05-1.07.09-1.61.14-.83-9.82-1.66-19.63-2.5-29.45.7-.08,1.39-.15,2.09-.23,1.81,9.76,2.37,19.61,2.02,29.54ZM457.14,786.72c-.31-.34-.62-.68-.93-1.02,7.07-6.3,14.13-12.6,21.2-18.91.27.23.55.47.82.7-7.03,6.41-14.06,12.81-21.09,19.22h0ZM471.55,800.96c-6.26.97-12.53,1.95-18.79,2.9-.07,0-.19-.39-.29-.59,3.6-2.63,7.08-4.98,12.03-2.97,1.99.81,4.59.13,7.05.67h0ZM458.29,795.51c-8.89,9.43-20.63,11.72-32.28,12.75,10.38-4.1,21.26-8.4,32.28-12.75ZM467.94,853.97c-3.31,3.44-41.56,6.32-49.86,3.42,16.45-1.13,32.91-2.26,49.86-3.42ZM462.02,808.88c.01-.14.02-.27.03-.41h23.36c0,.14,0,.27-.01.41h-23.38ZM369.73,885.94c-.9-7.53-1.79-15.06-2.69-22.59.54-.07,1.07-.15,1.61-.22.93,7.53,1.87,15.05,2.8,22.58-.57.08-1.15.16-1.72.23h0ZM374.92,864.21c2.41.12,4.13.21,6.3.32-.96,5.15-1.87,10.04-2.78,14.93-.61-.02-1.22-.03-1.83-.05-.55-4.92-1.09-9.84-1.69-15.2ZM381.43,890.82c-5.23-.21-3.93-3.86-3.81-6.8.71,1.77,1.42,3.54,2.52,6.29.62-4.33,1.08-7.59,1.55-10.86.22.02.44.05.66.07-.3,3.69-.59,7.37-.91,11.3h-.01ZM359.5,805.82c.06-.35.12-.69.19-1.04,11.85,2,23.7,4.01,35.55,6.01-.07.41-.14.82-.22,1.23-11.84-2.07-23.68-4.13-35.52-6.2ZM390.99,867.71v24.05c-.73.25-1.45.5-2.18.75-.53-1.34-1.65-2.74-1.5-4,.82-6.99,1.94-13.95,3.68-20.8ZM367.94,959.25c-9.26,2.35-18.52,4.71-27.78,7.06,8.91-3.9,18.08-6.6,27.78-7.06ZM355.35,975.56c3.12-.63,6.44-1.3,10.65-2.15-3.81-1.86-6.45-2.98-9.81-.86-2.17,1.36-5.02,2.09-7.61,2.24-12.55.76-23.3,6.44-33.99,12.5,2.8-.86,5.61-1.73,8.41-2.59-8.61,4.87-17.8,6.94-28.56,6.11,12.77-8.63,23.76-18.44,38.11-22.68.17.32.34.65.51.97-3.08,1.43-6.2,2.79-9.23,4.31-3.16,1.59-6.24,3.33-9.21,5.34,19.81-9.01,40.41-15.5,61.85-19.46-.1-.37-.2-.74-.31-1.11l-7.41.93c4.01-1.37,8.01-2.76,12.54-4.33-.16,2.22-.26,3.53-.38,5.22,1.89-1.58,3.35-2.81,4.81-4.03-.08-1.21-.45-2.49-.2-3.63.73-3.44,2.26-6.8,2.48-10.25.81-12.22,1.21-24.47,1.76-36.82.09-.08.3-.4.53-.43,10.51-1.03,8.22-1.96,8.83,7.4.15,2.21.2,4.43.28,6.65.07,1.94,1,4.12-1.9,5.13-.49.17-.61,1.85-.65,2.84-.19,5.77-.54,11.54-.36,17.3.14,4.59-1.1,7.58-6.23,8.23,1.12.31,2.24.62,3.37.92.06.42.11.83.17,1.25-2.54.43-5.09.87-7.63,1.3.32.77.97,2.18.9,2.21-3.57,1.9-5.42,6.88-10.74,5.78-2.21-.46-4.59-.08-6.89-.08-.07.43-.13.87-.2,1.3,1.07.42,2.15.84,3.8,1.48-1.15,1.86-2.24,3.64-3.88,6.32,5.52,0,10.4.12,15.27-.15.64-.03,1.62-2.04,1.65-3.15.05-1.72-.59-3.46-.94-5.19.42-.06.84-.12,1.26-.18.5,3.37,1.01,6.74,1.41,9.4-11.15.68-21.86,1.33-32.47,1.98v-.02ZM412.65,1000.3c-1.56.38-3.04,1.09-5.12,1.85-2.36-8.47-4.68-16.77-7.01-25.12-3.56-.27-6.46-.48-9.54-.71,1.45-2.62,4.53-3.17,9.25-1.65-.16-.96-.2-1.78-.43-2.53-.25-.81-.68-1.56-1.07-2.42h5.07c-2.61-2.2-4.32-3.64-6.44-5.43,3.57-1.14,6.12-1.55,7.17,2.55,1.12,4.35,2.18,8.85,8.49,7.79.59-.1,2.01,1.61,2.16,2.61.81,5.4,1.24,10.86,2,16.27.52,3.74-.87,5.89-4.52,6.78h0ZM405.09,932.63c1.03,4.68,2.06,9.36,3.09,14.04-.33.41-.65.82-.98,1.23-.86-.81-2.4-1.57-2.45-2.43-.26-4.24-.12-8.49.34-12.84h0ZM440.49,977.19c-7.13-1.86-14.08-4.36-21.14-6.6.66-2.59,1.27-4.96,2.02-7.91-.38-.21-1.41-.76-2.44-1.32,12.83,1.59,23.08,8.01,32.15,16.67-3.55-.22-7.22.04-10.59-.84h0ZM457.82,978.7c-6.46-5.32-12.77-10.52-19.32-15.92,6.68.86,13.06,1.68,19.32,2.48v13.44ZM449.73,962.76c-11.63-2.19-23.24-4.43-34.83-6.84-1.17-.24-2.72-1.55-3.03-2.66-4.65-16.57-7.03-33.51-8.39-50.84,2.9,0,5.32.08,7.74-.05.65-.03,1.58-.54,1.86-1.09,2.08-4.1,5.12-8.11,5.75-12.45.99-6.82.31-13.89.34-20.85v-5.48c16.19-1.16,31.91-2.29,48.18-3.46-3.01,35.02-5.97,69.51-9,104.74-2.92-.34-5.81-.5-8.62-1.03h0ZM464.51,965.35c-.63-35.42-.16-70.81,6.19-105.83-1.61,17.73-3.77,35.44-4.69,53.21-.9,17.52-.54,35.1-1.51,52.63h.01ZM475.57,981.48c-3.56-.43-6.88-2.85-9.27-3.91,4.59-.54,10.71-1.25,16.83-1.96.03-.44.07-.87.1-1.31-3.23-.65-6.46-1.29-10.11-2.03.12-1.79.24-3.64.4-6.14,3.83,0,7.46-.13,11.07.1.82.05,1.85,1.19,2.29,2.07,2.21,4.44,4.25,8.96,6.31,13.38-5.51,0-11.65.53-17.63-.2h0ZM491.15,910.68c.33-5.75.67-11.49,1-17.24v17.26c-.33,0-.67-.02-1-.03h0ZM494.2,894.54c-.96-.6-1.5-.94-2.04-1.27.53-3.12,1.05-6.24,1.58-9.36.43.04.86.08,1.3.12-.26,3.32-.53,6.64-.83,10.51h-.01ZM496.31,877.67c-.4-.02-.8-.05-1.2-.07-.29-.74-.58-1.47-.87-2.21-.3-.03-.59-.05-.89-.08-2.24,21.09-4.48,42.18-6.81,64.11-1.53-11.18-2.97-21.66-4.41-32.14-.19.01-.38.03-.57.04,1.01,9.44,1.22,19.05,3.25,28.27,2.11,9.57,1.5,19,1.29,28.9h-13.7c1.17-29.14,1.96-57.89,5.45-86.5-2.32,16.07-4.65,32.14-6.97,48.21-.31-.02-.61-.03-.92-.05,1.11-22.33,2.22-44.66,3.34-67.36,8.92-1.65,17.34-3.21,26.44-4.9-1.17,8.13-2.29,15.95-3.42,23.77h-.01ZM525.61,979.33h-27.34c.42-1.14.95-2.59,1.05-2.84,2.14.74,4.23,2.04,6.34,2.07,4.51.05,9.02-.61,13.54-.88,2.14-.13,4.29-.02,6.44-.02,0,.56-.02,1.12-.03,1.68h0ZM523.53,801.71c-2.65-.33-5.29-.66-8.08-1v-5.83c4.92,2.96,5.93-2.85,9.33-4.79-.22,1.8-.35,2.85-.51,4.17,1.28-.09,2.24-.16,3.6-.26-.47,1.31-.85,2.34-1.27,3.52,3.18,2.03,6.45,3.8,9.3,6.1,1.14.92,1.83,3.04,1.75,4.55-.05.88-2.07,1.64-3.85,2.92.53-4.4-2.1-7.17-5.27-7.34-1.75-.09-3.47-.78-4.98-2.05h-.02ZM527.23,787.64c.63-.38,1.27-.76,1.9-1.15.52,1.02,1.05,2.05,1.55,3.04,1.78-1.26,2.88-2.04,3.99-2.82.27.47.55.94.82,1.41-2.02.96-3.99,2.12-6.12,2.71-.39.11-1.42-2.07-2.15-3.19h.01ZM529.33,965.26c3.61,4.72,7.07,9.23,10.72,13.99-10.11-.24-10.27-.45-10.72-13.99ZM636.46,973.01c15.95,2.32,32.02,3.74,48.04,5.58,1.1.13,2.15.64,3.23.97-.03.19-.06.38-.09.56h-64.2c3.6-4.05,6.25-8.09,13.03-7.11h-.01ZM630.49,961.21c.19,4.47-1.28,8.06-4.76,10.59l4.76-10.59ZM620.76,978.68c-1.73,1.58-4.31,2.24-7.53,3.79,3.71-3.86,6.53-6.92,9.54-9.8.51-.49,1.62-.37,2.53-.45-1.46,2.21-2.63,4.73-4.53,6.46h-.01ZM624.17,942.45c-.05.4-.11.81-.16,1.21-3.68-.52-7.37-1.04-11.05-1.55-.03-.33-.05-.65-.08-.98,3.76.44,7.53.88,11.29,1.32h0ZM618.01,971.03c.31.37.63.73.94,1.1-3.8,3.35-7.6,6.7-11.4,10.05-.33-.34-.66-.69-.99-1.03,3.82-3.37,7.63-6.74,11.45-10.12h0ZM600.38,979.8c3.57-1.67,6.24-2.92,8.9-4.17-2.06,2.07-3.04,6.95-8.9,4.17ZM603.24,951.5c1.62-.25,3.41.6,5.13.95-.1.4-.19.8-.29,1.2-16.03,3.15-32.36,5.21-47.51,11.6-.04.5-.08.99-.12,1.49-1.06-1.41-2.12-2.83-3.69-4.93,8.15-2.22,15.45-4.5,22.88-6.15,7.79-1.73,15.71-2.95,23.6-4.15h0ZM570.41,840.92c.13,0,.27-.02.4-.02.15,2.72.3,5.44.45,8.16.16,0,.32,0,.49.01v-13.19c2.96,21.05,1.11,41.99-1.33,62.66v-57.61h0ZM569.53,937.23c5.91-.46,3.61,5.14,6.1,7.56-3.13,1.32-5.67,2.39-8.68,3.66.92-3.98,1.73-7.52,2.58-11.21h0ZM564.29,779.34c-5.77-12.45-17.46-15.27-29.1-18.2,17,1.19,27.01,7.46,29.1,18.2ZM543.85,777.94c-.38,3.26,1.33,4.77,5.62,5.61,2.93.57,5.92,3.77,7.69,6.56,1.97,3.09,2.58,7.04,4.14,10.59-.18-1.99-.36-3.98-.54-5.96,8.08,30.22,6.92,61.06,5.57,91.93-.5-6.13-1.19-12.26-1.44-18.4-.25-6.14-.05-12.29-.05-18.44h-1.35v70.47c-4.52-33.55,1.72-67.28-3.08-100.81,0,21.66-.16,43.33.05,64.99.21,21.68.78,43.36,1.19,65.04-.42.18-.83.36-1.25.54-1.32-3.05-3.58-6.03-3.81-9.17-1.33-17.7-2.67-35.43-3.02-53.17-.29-14.94.66-29.92,1.27-44.87.37-9.01,1.42-18,1.67-27.01.22-8.06-1.2-15.94-5.03-23.19-.84-1.6-1.94-3.06-3.35-4.41,5.7,11.28,9.32,22.84,6.67,35.6-1.26-22.64-15.55-37.06-32.33-50.93,8.27-1.46,13.6,7.1,21.37,5.03h.01ZM495.72,766.09c6.94,1.02,13.85,2.45,20.59,4.38,2.62.75,4.75,3.21,7.1,4.88-.18.41-.36.83-.54,1.24-10.88-2.42-21.77-4.85-33.75-7.52,2.65-1.27,4.79-3.25,6.59-2.98h0ZM514.78,794.68c-5.29-.44-10.58-.85-15.86-1.35-4.69-.44-9.37-.97-14.04-1.56-.53-.07-.98-.8-1.29-1.87,10.7-.15,20.97,2.18,31.19,4.78h0ZM487.34,722.32c-.74-11.32-1.43-21.77-2.11-32.21.7-.02,1.41-.03,2.11-.05v32.26h0ZM485.71,674.85c-1.24-7.53-2.48-15.07-3.82-23.21.89.41,2.44.7,2.51,1.22,1.1,7.22,2,14.47,2.94,21.72-.55.09-1.09.18-1.64.27h.01ZM487.52,636.62h23.48c-6.21.32-14.82.77-23.43,1.21-.02-.4-.03-.81-.05-1.21ZM488.16,652.1c.48-.08.96-.17,1.44-.25,1.53,7.52,3.06,15.04,4.6,22.56-.43.33-.86.66-1.3.99-1.12-1.04-3.1-1.99-3.23-3.14-.74-6.69-1.05-13.44-1.51-20.16ZM490.52,674.88c2.05,1.44,3.47,2.44,4.89,3.44-3.74,2.2-5.83,2.1-4.89-3.44ZM491.1,688.53c-.17-1.46-.32-2.81-.53-4.65,2.09.2,3.52.33,5.16.48.19,1.4.36,2.66.57,4.17h-5.2ZM492.43,651.57c38.56-.3,76.66,3.06,114.78.71-18.26,2.81-36.73,2.75-55.15,3.02-18.5.28-37,.06-55.6,1.02,2.94.3,5.86.74,8.81.89,32.8,1.6,65.52-.17,98.24-2.18,7.36-.45,14.74-.64,22.09-1.23,2.88-.23,5.72-1.89,8.54-1.79,38.49,1.41,76.96,3.02,109.86,4.36-18.37,0-42.36-.27-66.34.08-24.3.35-48.62.94-72.89,2.1-24.09,1.15-48.14,3.15-72.17,5.51,108.52-9.74,217.27-5.12,325.92-6.37.05.58.11,1.17.16,1.75-1.43.21-2.86.41-3.96.57.52.99,1.08,2.06,1.64,3.12-1.42.62-2.81,1.71-4.25,1.77-13.33.59-26.67,1.11-40.01,1.43-53.37,1.29-106.74,2.42-160.11,3.76-37.06.93-74.11,2.05-111.16,3.22-13.04.41-26.07,1.19-39.1,1.79-1.61.07-3.22,0-5.29,0-1.31-7.7-2.58-15.23-3.99-23.54h-.02ZM501.09,680.24c-2.81.05-4.77-.45-3.67-4.17,59.64-1.7,119.33-3.41,179.02-5.11l.02.77c-44.07,2.62-88.14,5.39-132.23,7.77-14.35.77-28.76.49-43.14.74h0ZM629.98,683.39c-10.67.02-21.33,0-28.16,0,64.14-2.96,132.12-6.11,200.76-9.28-.89.49-1.28.88-1.68.91-19.78,1.22-39.58,2.33-59.35,3.62-17.87,1.17-35.81,1.82-53.56,4.02-19.38,2.4-38.67.69-58,.72h-.01ZM802.53,678.17c-.4.13-.8.35-1.21.37-17.17.9-34.35,1.83-51.52,2.65-4.11.2-8.24.03-12.36.03,21.52-1.27,42.91-5.01,64.51-4.4.19.45.39.9.58,1.35h0ZM724.58,686c-11.98-.21-23.95-.58-35.93-.9.07-.45.14-.91.21-1.36h38.44c.14.27.27.54.4.82-1.04.5-2.09,1.46-3.13,1.44h.01ZM770.77,687.04c-13.42-.17-26.85-.06-40.28-.06-.15-.87-.3-1.75-.46-2.62,1.78-.39,3.56-1.1,5.35-1.12,12.9-.15,25.81-.15,38.71-.23,1.91-.01,3.81-.19,5.69-.29-1.59,4.28-5.07,4.38-9.01,4.33h0ZM778.9,687.53c2.57-2.54,18.09-2.78,23.22,0h-23.22ZM781.26,683.86c-.07-.42-.15-.85-.22-1.27,6.07-3.54,12.85-1.69,19.35-1.79.63,0,1.28,1.57,2.4,3.05h-21.53ZM787.82,671c-46.04,2.47-92.04,5.73-138.08,8.2-25.31,1.36-50.66,1.82-76,2.55-4.71.14-9.45-.4-14.17-.62,97.97-5.34,195.83-12.85,294.68-12.36-.82.57-1.63,1.61-2.47,1.64-5.63.19-11.27.18-16.9.22-15.69.09-31.41-.46-47.06.38h0ZM826.16,681.25c-.29-2.14-.49-3.56-.76-5.54h27.57v4.15c-8.91.46-17.67.92-26.82,1.39h.01ZM852.57,682.78v5.66h-26.4v-5.66h26.4ZM826.12,693.12h27.1c0,4.19.06,7.99,0,11.79-.64,36.92-.67,73.86-2.19,110.75-1.07,26.04-4.09,52.01-6.36,78-1.5,17.12-3.29,34.22-4.76,51.35-.29,3.31-1.21,4.7-4.81,4.42-4.71-.36-9.47-.09-14.76-.09,1.94-85.8,3.86-170.97,5.78-256.22h0ZM807.01,674.17v-1.01h46.16c.03.34.06.67.09,1.01h-46.25ZM822.96,688.56c-2.17-.28-3.42-.44-5.43-.7,1.37-2.15,2.39-3.76,3.41-5.37.37.05.73.11,1.1.16.26,1.7.53,3.39.92,5.91ZM820.44,677.05h-13.23c-.01-.26-.02-.53-.04-.79h13.19c.03.26.05.53.08.79ZM805.59,679.73c5.1-.46,8.72-.79,12.67-1.14-1.71,5.98-5.99,4.16-9.38,4.22-.8.01-1.63-1.46-3.29-3.07h0ZM814.77,688.21c-2.95-1.12-7.13,2-8.32-4.18,3.39,1.06,7.79-2.54,8.32,4.18ZM814.21,692.79c-1.43,19.45-2.84,38.6-4.26,57.86-.77-19.31-1.53-38.5-2.31-57.86h6.57ZM810.23,850.95c1.81,4.11,2.49,30.51,0,46.51v-46.51ZM812.13,972.14c-.72.06-1.45.13-2.17.19-1.69-7.25-1.11-14.67-1.18-23.53,1.76,1.7,3.22,2.46,3.25,3.25.19,6.69.11,13.39.11,20.08h-.01ZM812.14,946.39c0,1.01-.9,2.01-1.38,3.01-.34-.12-.69-.25-1.03-.37-.16-.84-.5-1.69-.45-2.53.58-11.46,1.21-22.92,1.83-34.38.37.07.73.15,1.1.22,0,11.35.04,22.7-.06,34.05h-.01ZM815.6,693.03h7.41c-1.32,54.71-5.24,109.15-9.7,163.57-3.93-54.55-.84-108.98,2.28-163.57h.01ZM844.2,971.62h-26.91v3.22c-.82-2.03-2.18-4.06-2.2-6.09-.21-35.71-1.13-71.44,0-107.11.88-27.76,4.36-55.43,6-83.16,0,14.66.12,29.33-.03,43.99-.27,27.27-.69,54.54-1.07,81.81-.19,13.63-.4,27.27-.69,40.9-.03,1.59-.68,3.16-1.07,4.85h20.31c.22,1.58.41,2.95.66,4.8.38-1.75.66-3,.94-4.32h6.21c-.72,7.1-1.42,13.93-2.15,21.11h0ZM840.66,949.04c2.44-23.56,4.86-46.94,7.28-70.32.28.02.55.04.83.06-.78,23.31-1.56,46.61-2.35,70.26h-5.76ZM848.06,974.82c.86-9.17,2.04-18.32,2.52-27.5,1.03-19.68,1.77-39.37,2.51-59.06,1.3-34.35.78-68.79,5.3-102.99,2.96-22.33,5.74-44.68,8.6-67.02.35-2.75.67-5.51,1.22-8.24,2.34,25.76-11.82,254.33-20.16,264.81h0Z"/>
  <path d="M817.04,1018.65c-5.61,0-11.22.22-16.82-.03-67.76-3.03-135.53-1.7-203.27.15-57.95,1.58-115.87,4.45-173.81,6.65-29.49,1.12-58.98,2.16-88.47,2.99-44.91,1.25-89.82,2.28-134.73,3.39-1.77.04-3.54,0-5.31,0v-1.42c5.73.2,11.45.41,17.18.6,1.18.04,2.37.04,3.56,0,44.46-1.5,88.92-2.86,133.37-4.55,32.3-1.23,64.57-3.06,96.87-4.36,52.6-2.12,105.19-4.67,157.81-5.85,50.84-1.14,101.72-1,152.58-.94,18.96.02,37.92,1.39,56.88,2.16,1.44.06,2.87.29,4.3.45-.04.26-.09.52-.13.79v-.03Z"/>
  <path class="st4" d="M540.74,306.59c-.07,1.31-.13,2.62-.18,3.56-10.23-13.88-20.03-28.32-31.02-41.78-11.15-13.65-25.91-23.23-41.75-32.79,1.49.26,2.14.22,2.64.48,17.62,9.18,34.97,18.72,48.33,33.99,2.38,2.72,5.12,5.13,7.69,7.68,1.93,3.39,3.85,6.78,5.78,10.17,2.71,5.37,5.41,10.74,8.12,16.11.13.86.26,1.72.39,2.58h0Z"/>
  <path d="M641.48,1022.88c81.73,1.28,163.46,2.55,245.19,3.83,0,.44-.01.88-.02,1.31-81.71-1.29-163.42-2.59-245.14-3.88,0-.42-.02-.84-.03-1.26Z"/>
  <path d="M929.24,997.73c-65.72-.58-131.45-1.16-197.17-1.74,0-.49.02-.98.02-1.47,65.85.74,131.7,1.47,197.55,2.21-.13.34-.27.67-.4,1.01h0Z"/>
  <path class="st4" d="M333.08,536.75c9.24-3.75,18.49-7.51,26.51-10.77-8.3,6.13-17.25,13.32-26.84,19.52-3.45,2.24-8.44,2.11-13.26,2.31,1.99-2.14,3.98-4.29,5.96-6.43,2.54-1.54,5.08-3.09,7.62-4.63h.01Z"/>
  <path d="M892.79,989.23h-55.64v-.95h55.57c.02.32.04.63.06.95h0Z"/>
  <path d="M622.04,984.07h37.82l-.03.75h-37.82c0-.25.02-.5.03-.75Z"/>
  <path d="M726.66,987.64h-30.55c0-.13-.02-.27-.02-.4h30.56c0,.13,0,.27.01.4Z"/>
  <path d="M276.13,851.83c-8.7-10.04-8.91-22.83-11.03-35.03,3.27,11.77,3.87,24.38,11.03,35.03Z"/>
  <path d="M305.16,976h-45.51v-.25h45.51v.25Z"/>
  <path d="M189.81,709.23c4.9,11.93,9.47,23.08,14.53,35.4-7.19-11.46-11.48-22.72-14.53-35.4Z"/>
  <path d="M340.95,994.87h31.67c0,.3-.01.6-.02.89h-31.55c-.03-.3-.07-.6-.1-.89h0Z"/>
  <path d="M667.18,958.34h41.63v.39h-41.58c-.02-.13-.03-.26-.05-.39h0Z"/>
  <path d="M245.22,368.85c-.99,4.87-2.03,9.74-2.95,14.63-1.03,5.48-1.94,10.98-3.62,16.37,1.21-7.17,2.29-14.37,3.7-21.5.64-3.21,1.95-6.29,2.96-9.43l-.09-.07h0Z"/>
  <path d="M966.99,964.21h-34.24v-.58h34.24v.58Z"/>
  <path d="M765.26,950.5h-17.13v-.13h17.27s-.09.08-.14.13h0Z"/>
  <path d="M540.35,304c-2.71-5.37-5.41-10.74-8.12-16.11,2.49,4.51,5.01,9.01,7.45,13.55.41.76.46,1.7.67,2.56h0Z"/>
  <path class="st4" d="M297.79,486.98c-1.18-.64-2.53-1.09-3.5-1.96-23.82-21.41-35.64-49.07-41-79.89-7.55-43.42,1.63-82.81,30.56-116.51,9.76-11.38,19.35-23.18,33.4-30.41,17.45-8.99,35.56-15.4,54.93-18.31,3.58-.54,7.18-.97,10.71-1.74-18.8.42-36.64,5.17-54.02,12.14,10.27-7.39,21.83-12.01,33.74-15.47,22.56-6.55,45.61-9.59,68.99-5.53,6.87,1.19,13.42,4.31,20.09,6.63,1.63.57,3.12,1.51,5.1,1.56-3.36-1.94-6.72-3.87-10.08-5.81,40.63,13.62,68.38,41.45,87.69,79.09-1.91.28-3.45.27-4.78.8-.9.36-1.49,1.47-2.22,2.25.9.56,1.75,1.22,2.71,1.63.48.2,1.19.02,1.75-.13,3.63-.98,5.3.56,5.44,4.43-1.28.43-2.63.89-4.91,1.66,2.3,1.38,3.96,2.37,6.08,3.64-.7,1.73-1.43,3.56-2.29,5.7,1.36-.08,2.46-.15,3.49-.21.27.34.55.54.6.79,3.84,19.6,5.8,39.34,2.68,59.21-3.64,23.21-13.85,43.85-25.23,64.13-14.61,26.04-37.59,39.84-65.57,46.9-28.2,7.11-56.35,5.98-84.55-.19-5.19-1.13-9.45-3.09-12.84-7.12-.78-.92-1.84-1.6-3.65-3.14,2.11,3.02,3.51,5.03,4.92,7.04-3.89-1.28-7.88-2.33-11.67-3.89-18.23-7.51-34.11-18.64-48.55-31.95-1.32-1.75-2.82-3.39-3.92-5.27-2.04-3.47-3.84-7.07-5.74-10.62-2.04-5.76-4.08-11.52-6.13-17.28-.46.19-.93.37-1.39.56,2.53,5.55,5.07,11.1,7.6,16.65-.02,1.76-.05,3.52-.07,5.28l.15.12c-4.64-8.3-9.41-16.54-13.87-24.94-2.79-5.26-5.1-10.78-7.63-16.18l.13.2c-5.48-15.58-4.82-32.02-6.86-48.09.77,15.43.49,30.98,5.12,45.98.55,3.17,1.1,6.33,1.65,9.5,2.4,8.52,4.8,17.04,7.2,25.55l-.12-.21,9.92,21.54-.13-.18c3.88,5.84,7.77,11.67,11.65,17.51,1.47,1.51,2.95,3.02,4.42,4.53h0ZM271.77,349.62v-25.55h.07v25.46c-1.4,8.46,2.79,15.93,4.08,23.93-.58-5.66-1.57-11.26-2.62-16.84-.44-2.34-1.02-4.66-1.53-7ZM490.51,397.08c1.64,5.22,2.43,9.82,4.47,13.78,3.19,6.18,9.98,6.35,13.32.27,5.29-9.63,6.52-19.97,2.24-30.33-1-2.42-3.88-5.69-5.89-5.68-2.67,0-6.55,2.21-7.76,4.57-2.83,5.51-4.38,11.69-6.38,17.38h0ZM262.73,329.94c.35.23.69.45,1.04.68,5.15-10.18,10.31-20.35,15.46-30.53-.33-.17-.66-.34-.99-.5-5.17,10.12-10.34,20.23-15.51,30.35h0ZM262.29,332.89c-5.78,7.26-6.52,15.6-4.61,24.43-1.53-8.69.73-16.64,4.61-24.43Z"/>
  <path class="st4" d="M382.65,554.42c-.67-3.63-3.51-4.52-6.52-4.94-9.89-1.39-19.8-2.66-30.88-4.14,6.49-3.36,12.57-6.49,18.67-9.64,6.04.02,12.05.05,18.06.07.79.51,1.52,1.26,2.38,1.51,9.64,2.71,19.28,5.39,28.96,7.95,2.76.73,5.62,1.07,8.43,1.59.1-.46.21-.92.31-1.38-13.4-3.19-26.81-6.37-40.23-9.54-1.83-.43-3.65-1.3-5.45-1.25-4.19.12-8.37.69-12.55,1.07,9.44-7.87,20.19-10.04,32.03-7.3,7.79,1.8,15.57,3.65,23.31,5.66,1.35.35,2.46,1.64,3.9,2.65-13.91-1.15-27.05-2.23-40.18-3.31-.04.6-.08,1.2-.12,1.81,3.56,0,7.14-.23,10.68.05,7.95.63,15.88,1.56,23.83,2.28,5.06.46,7.38,3.52,8.23,8.18.32,1.72.86,3.4,1.62,6.36.47-2.11.68-3.06.93-4.18,11.71-.21,23.05,1.55,33.33,7.51,18.2,10.55,36.31,21.25,54.36,32.07,11.18,6.7,21.8,14.45,33.39,20.31,6.66,3.37,14.71,4.17,22.24,5.6,4.68.89,9.56.72,14.34,1.16,1.4.13,2.75.74,3.58.98,5.71-4.68,12.16-3.78,18.9-3.68-.13,2.4-.24,4.52-.35,6.65.28.18.55.36.83.54,1.49-1.79,2.99-3.58,4.83-5.78,1,.81,2.13,1.62,3.15,2.56,1.7,1.58,2.45,4.82,5.89,3.25,1.26,3.14,3.26,6.2,3.56,9.43.24,2.65-3.48,3.39-7.08,1.98-1.03-.4-2.36-.02-3.56,0,.14,1.3.04,2.69.47,3.9,1.18,3.35,2.57,6.63,3.92,10.04-7.57,2.02-7.96,1.86-10.48-4.1-.99-2.33-2.43-3.69-5.14-3-5.09,1.31-10.23,2.45-15.27,3.96-3.68,1.1-6.25-.38-6.62-4.29-.55-5.86-.8-6.08-7.03-6.11.66.48,1.13.82,2.25,1.64-4.3-.43-7.93-.64-11.51-1.19-3.57-.55-7.02-2-10.51.63-.68.51-2.6-.46-3.89-.92-4.21-1.52-8.38-3.12-12.72-4.75.2-1.03,1.32-1.28,3.36-.74,4.69,2.46,9.58,3.24,14.74,1.74-5.05.41-9.42-5.28-14.83-1.62-.97-1.36-1.65-3.43-2.96-3.98-8.71-3.61-17.71-6.53-26.29-10.4-5.84-2.63-11.16-6.44-16.7-9.74-.63-.38-1.17-.9-1.8-1.27-2.9-1.69-5.65-3.82-8.77-4.93-9.13-3.25-14.57-10.26-19.58-17.92-1.67-2.55-3.75-4.84-6.13-6.92,2.82,4.73,5.64,9.46,8.46,14.18-.34.29-.68.58-1.02.87-3.89-4.57-7.79-9.13-11.68-13.7-.14.08-.29.16-.43.24,4.05,7.56,8.09,15.11,12.42,23.2h-17.53c-.02.33-.05.65-.07.98,4.15.22,8.3.68,12.44.58,4.38-.11,6.9,1.12,8.21,5.82,1.88,6.79,4.78,13.31,7.36,20.27-3.88.8-7.27,1.17-10.43,2.25-2.39.82-4.43,2.62-6.71,3.83-1.59.84-3.32,1.42-5.02,2.76h19.95c-2.42.53-3.94.96-5.5,1.19-1.6.24-3.23.3-4.83,1.28,2.56-.13,5.17,0,7.68-.44,4.58-.79,6.83.23,8.24,4.54-2.58.27-5.1.54-6.55.69.46,2.73.89,5.27,1.4,8.24-.15-.04.77.18,1.68.4-.01.54-.02,1.08-.03,1.62h-30.01v1.89c9.47,0,18.95.08,28.42-.05,2.92-.04,4.23,1.11,4.71,3.91.74,4.37,2.13,8.67,2.46,13.05.32,4.15-.37,8.37-.62,12.62h-15.69c-.05.38-.09.76-.14,1.14,5.19.33,10.39.65,16.47,1.04-.71,2.09-1.29,3.78-1.83,5.36.39.63,1.81,1.88,1.91,3.23.97,13.3,1.89,26.61,2.42,39.93.16,4.02-.97,8.09-1.5,12.13l.15-.07c-.35.22-.83.36-1.04.67-10.09,14.97-22.6,27.68-36.67,38.87-1.46,1.16-4.13,1.97-5.84,1.49-10.51-2.91-20.9-6.23-31.33-9.41-10.38-5-20.76-10.01-31.13-15.01,21.25-8.98,33.29-25.02,36.58-47.77l-.11.14c.29-1.53.57-3.06.96-5.12-1.83.93-3.1,1.57-5.26,2.67-3.71-49.88-10.96-98.84-26.38-146.82,2.36.2,4.02.34,5.68.47-6.21-.21-6.79-4.93-7.67-9.4l.12.13h-.03ZM367.03,542.83c12.16,2.05,24.31,4.1,36.47,6.15-11.7-4.58-23.97-5.73-36.47-6.15Z"/>
  <path class="st4" d="M820.34,949.33c1.94-85.8,3.86-170.97,5.78-256.22h27.1c0,4.19.06,7.99,0,11.79-.64,36.92-.67,73.86-2.19,110.75-1.07,26.04-4.09,52.01-6.36,78-1.5,17.12-3.29,34.22-4.76,51.35-.29,3.31-1.21,4.7-4.81,4.42-4.71-.36-9.47-.09-14.76-.09h0Z"/>
  <path class="st4" d="M858.68,659.43c-1.43.21-2.86.41-3.96.57.52.99,1.08,2.06,1.64,3.12-1.42.62-2.81,1.71-4.25,1.77-13.33.59-26.67,1.11-40.01,1.43-53.37,1.29-106.74,2.42-160.11,3.76-37.06.93-74.11,2.05-111.16,3.22-13.04.41-26.07,1.19-39.1,1.79-1.61.07-3.22,0-5.29,0-1.31-7.7-2.58-15.23-3.99-23.54,38.56-.3,76.66,3.06,114.78.71-18.26,2.81-36.73,2.75-55.15,3.02-18.5.28-37,.06-55.6,1.02,2.94.3,5.86.74,8.81.89,32.8,1.6,65.52-.17,98.24-2.18,7.36-.45,14.74-.64,22.09-1.23,2.88-.23,5.72-1.89,8.54-1.79,38.49,1.41,76.96,3.02,109.86,4.36-18.37,0-42.36-.27-66.34.08-24.3.35-48.62.94-72.89,2.1-24.09,1.15-48.14,3.15-72.17,5.51,108.52-9.74,217.27-5.12,325.92-6.37l.16,1.75h-.02Z"/>
  <path class="st4" d="M743.18,564.49c.61-3.43,1.15-6.42,1.68-9.41l1.41.12c-.19,3.6-.39,7.21-.6,11.15-58.7-1.48-117.04-2.94-175.38-4.41v-.47h96.32v-.62h-178.87c1.17-11.69,2.21-22.56,3.37-33.43.96-8.99,2.48-17.94,2.94-26.96.33-6.5,3.19-10.76,9.23-14.24-2,22.05-3.97,43.7-5.96,65.65,1.51.26,2.91.5,4.59.79-.22.71-.42,1.39-.74,2.44,1-.38,2.16-.55,2.21-.88.53-3.65,3.24-3.16,5.69-3.12,32.77.43,65.55.62,98.31,1.4,28.31.68,56.61,2.17,84.92,3.04,13.48.41,26.99.13,40.48.28,8.35.09,8.35.18,10.39,8.67h.01Z"/>
  <path class="st4" d="M378.74,760.11c10.38,5,20.76,10.01,31.13,15.01,1.68,1.06,3.23,2.53,5.06,3.11,8.15,2.57,16.38,4.86,24.56,7.33,1.17.35,3.7-.2,2.38,2.58l.17-.14c-1.67.86-3.39,1.63-5,2.6-5.93,3.55-11.66,7.46-17.76,10.67-5.59,2.94-11.5,5.67-17.97,2-.25-.14-.78.22-1.19.34-.59-.3-1.18-.6-1.77-.89-2.5-1.31-4.99-2.62-7.49-3.93-8.27-3.88-16.54-7.77-24.81-11.65-9.08-5.9-18.15-11.8-27.23-17.7-4.01-2.19-4.24-5.91-4.14-10.24,9.09-.42,18.06-1.46,26.98-1.12,20.91.78,34.29-9.37,42.71-27.61,3.13-6.78,6.46-13.47,10.26-21.38.34,2.06.46,2.73.57,3.41l.11-.14c-2.96,5.74-5.85,11.51-8.89,17.21-6.24,11.68-12.61,23.26-26.17,28.2-.7.25-1.02,1.55-1.52,2.36v-.02ZM413.21,796.85c-13.56-5.93-27.12-11.86-40.68-17.8,13.12,6.96,25.99,14.5,40.68,17.8ZM404.58,783.86c.14-.3.27-.61.41-.91-6.59-3.04-13.18-6.07-19.77-9.11-.14.31-.27.61-.41.92,6.59,3.03,13.18,6.06,19.77,9.1h0ZM428.43,791.89c.09-.3.18-.6.27-.9-5.95-1.84-11.91-3.68-17.86-5.52-.1.33-.19.66-.29.99l17.88,5.43h0Z"/>
  <path class="st4" d="M259.51,569.39c3.6-5.31,6.7-8.3,12.24-8.17,19.41.47,38.83.61,58.24,1.02,8.03.17,15.15,2.78,20.32,9.26,1.25,1.56,1.96,3.6,2.72,5.49,9.73,24.26,12.53,50.23,18.62,75.39,3.42,14.1,6.46,28.3,9.67,42.45.13.58.1,1.41.47,1.68,5.07,3.66,3.16,8.97,3.21,13.75.01.97-1.13,1.95-1.75,2.92-.46-.17-.92-.33-1.38-.5-.16-2.45-.32-4.89-.49-7.34-.18-2.73-.8-4.46-4.35-3.5-2.59.7-4.89-.03-6.16-3.29-.98-2.53-3.3-4.52-4.93-6.82-.5-.71-.67-1.65-1.36-3.45,2.59,1.26,4.19,2.04,6.17,3.01-2.96-10.39-5.56-20.39-8.79-30.18-.79-2.38-3.52-4.21-5.57-6.07-2.37-2.15-2.24-4.04-.42-6.52,1.01-1.38,1.94-3.53,1.61-5.05-3.84-17.5-7.91-34.95-11.99-52.39-.5-2.15-1.39-4.22-2.12-6.31-2.89-8.24-8.39-12.17-17.42-12.24-17.63-.14-35.26-.9-52.88-1.56-4.22-.16-8.41-.96-13.66-1.59h0Z"/>
  <path class="st4" d="M473.28,858.79c8.92-1.65,17.34-3.21,26.44-4.9-1.17,8.13-2.29,15.95-3.42,23.77-.4-.02-.8-.05-1.2-.07-.29-.74-.58-1.47-.87-2.21-.3-.03-.59-.05-.89-.08-2.24,21.09-4.48,42.18-6.81,64.11-1.53-11.18-2.97-21.66-4.4-32.14-.19.01-.38.03-.57.04,1.01,9.44,1.22,19.05,3.25,28.27,2.11,9.57,1.5,19,1.29,28.9h-13.7c1.17-29.14,1.96-57.89,5.45-86.5-2.32,16.07-4.65,32.14-6.97,48.21-.31-.02-.61-.03-.92-.05,1.11-22.33,2.22-44.66,3.34-67.36h-.02Z"/>
  <path class="st4" d="M522.48,772.91c8.27-1.46,13.6,7.1,21.37,5.03-.38,3.26,1.33,4.77,5.63,5.61,2.93.57,5.92,3.77,7.69,6.56,1.97,3.09,2.58,7.04,4.14,10.59-.18-1.99-.36-3.98-.54-5.96,8.08,30.22,6.92,61.06,5.57,91.93-.5-6.13-1.19-12.26-1.44-18.4-.25-6.14-.05-12.29-.05-18.44h-1.35v70.47c-4.52-33.55,1.72-67.28-3.08-100.81,0,21.66-.16,43.33.05,64.99.21,21.68.78,43.36,1.19,65.04-.42.18-.83.36-1.25.54-1.32-3.05-3.58-6.03-3.81-9.17-1.33-17.7-2.67-35.43-3.02-53.17-.29-14.94.66-29.92,1.27-44.87.37-9.01,1.42-18,1.67-27.01.22-8.06-1.2-15.94-5.03-23.19-.85-1.6-1.94-3.06-3.35-4.41,5.7,11.28,9.32,22.84,6.67,35.6-1.26-22.64-15.55-37.06-32.33-50.93h0Z"/>
  <path class="st4" d="M848.06,974.82c.86-9.17,2.04-18.32,2.52-27.5,1.03-19.68,1.77-39.37,2.51-59.06,1.3-34.35.78-68.79,5.3-102.99,2.96-22.33,5.74-44.68,8.6-67.02.35-2.75.67-5.51,1.22-8.24,2.34,25.76-11.82,254.33-20.16,264.81h0Z"/>
  <path class="st4" d="M295.8,462.31c14.43,13.31,30.32,24.43,48.55,31.95,3.78,1.56,7.77,2.61,11.67,3.89,3.17,1.85,6.34,3.69,8.55,4.98,2.2-.21,3.69-.64,5.08-.44,9.35,1.39,18.63,3.51,28.02,4.27,25.15,2.03,50.02,1.08,73.55-9.63.21-.09.54.07,1.85.3-28.47,13.07-56.97,20.8-87.97,16.95.03.07.09.38.26.62.25.34.57.64,1.73,1.89-17.23-2.08-33.03-5.73-48.42-11.24l.17.17c-6.4-3.89-12.79-7.79-19.19-11.68-1.55-1.14-3.11-2.28-4.66-3.42-3.19-3.88-6.38-7.75-9.56-11.63-1.67-2.56-3.47-5.05-4.97-7.71-1.69-3.01-3.11-6.18-4.65-9.28h-.01ZM396.84,513.37c.02.2.04.41.07.61,6.18-.65,12.37-1.3,18.55-1.95-.03-.3-.06-.59-.09-.89-6.17.74-12.35,1.48-18.52,2.23h-.01Z"/>
  <path class="st4" d="M544.21,314.6c-1.06.07-2.11.13-3.17.2,1.28,2.52,2.94,3.68,4.76,4.18-.53-1.46-1.07-2.91-1.59-4.38Z"/>
  <path class="st4" d="M621.4,610.95c-2.37-1.33-4.23-2.24-5.93-3.39-.7-.48-1.52-1.49-1.49-2.23.42-12.1.98-24.2,1.48-35.82h35.65c-.79,15.58-1.53,30.28-2.29,45.17h-8.88c1.47-13.07,2.92-26.04,4.38-39.01-.53-.07-1.07-.14-1.6-.21-1.91,12.86-3.83,25.72-5.8,38.97h-8.16v-8.28h-.23c-.42,2.71-.84,5.42-1.26,8.12l-1.31.66c-.91-1.4-2.52-2.74-2.62-4.2-.38-5.45-.31-10.94-.34-16.41-.04-6.95,0-13.89-.1-20.88-.49,12.31-.98,24.62-1.5,37.5h0Z"/>
  <path class="st4" d="M817.38,975.09c-.8-2.11-2.29-4.22-2.3-6.34-.21-35.71-1.13-71.44,0-107.11.88-27.76,4.36-55.43,6-83.16,0,14.66.12,29.33-.03,43.99-.27,27.27-.69,54.54-1.07,81.81-.19,13.63-.4,27.27-.69,40.9-.03,1.59-.68,3.16-1.07,4.85h20.31c.22,1.58.41,2.95.66,4.8.38-1.75.65-3,.94-4.32h6.21c-.72,7.1-1.42,13.93-2.15,21.11h-26.91v3.56l.1-.09h0Z"/>
  <path class="st4" d="M774.04,643.33h-76.01c2.08-12.82,17.1-22.94,35.18-23.86,18.17-.93,37.04,10.08,40.83,23.86ZM724.91,639.95c.33.33.66.66.99.99,4.81-5.17,9.62-10.34,14.44-15.5-.03-.03-.05-.07-.08-.1-5.12,4.87-10.24,9.74-15.35,14.61h0ZM710.37,638.56c.28.28.55.56.83.84,3.52-4.03,7.03-8.05,10.55-12.08l-.72-.66c-3.55,3.96-7.1,7.93-10.65,11.89h-.01ZM726.15,630.37c-.31-.28-.62-.55-.93-.83-3.14,3.67-6.28,7.34-9.42,11l1.1.92c3.08-3.7,6.16-7.4,9.24-11.09h0Z"/>
  <path class="st4" d="M813.31,856.6c-3.93-54.55-.84-108.98,2.28-163.57h7.41c-1.32,54.71-5.24,109.15-9.7,163.57h.01Z"/>
  <path class="st4" d="M390.87,798.79c2.5,1.31,4.99,2.62,7.49,3.93-4.8-1.15-9.6-2.3-14.4-3.45,4.28,1.99,8.7,3.61,13.19,4.99.83.25,1.96-.48,2.96-.76,3.3.89,6.79,2.98,9.85,2.47,12.73-2.1,23.08-8.94,32.08-17.96l-.17.14c2.11-1.24,4.56-2.14,6.28-3.79,9.36-8.99,18.79-17.95,27.68-27.4,3.63-3.86,5.98-8.94,8.91-13.46l-.15.07c1.86,4.26-1.17,7.27-2.58,10.79-5.53,13.77-19.13,20.3-27.87,31.2-2.18,2.71-5.82,4.38-9,6.14-4.63,2.56-9.46,4.77-13.91,7.88,2.87-.88,5.74-1.76,8.61-2.63.13.37.27.74.4,1.12-7.21,2.59-14.52,4.93-21.61,7.82-12.79,5.2-24.71.79-36.72-2.84-2.82-.85-5.51-2.12-8.25-3.19-.8-.25-1.7-.35-2.4-.77-10.9-6.62-21.77-13.29-32.65-19.94-1.08-3.24-2.16-6.48-3.47-10.41,1.88.36,2.78.54,3.67.71,9.08,5.9,18.15,11.8,27.23,17.7,8.27,3.88,16.54,7.77,24.81,11.65h.02Z"/>
  <path class="st4" d="M311.42,806.51c-.67-2.25-1.34-4.5-2.33-7.83v11.97c-1.05-.15-1.52-.11-1.58-.24-1.63-3.9-3.73-7.71-4.58-11.78-.35-1.69,1.96-3.94,3.17-6.15-5.29-4.44-5.37-7.88,1.07-13.83-2.11.88-3.22,1.35-4.51,1.89v-24.48c3.77.81,8.28,1.53,12.59,2.86,1.2.37,2.45,2.46,2.66,3.9,2.11,14.49,4.02,29.01,6.08,44.26-4.29-.2-8.49-.4-12.69-.6h.11v.03Z"/>
  <path class="st4" d="M559.57,681.12c97.97-5.34,195.83-12.85,294.68-12.36-.82.57-1.63,1.61-2.47,1.64-5.63.19-11.27.18-16.9.22-15.69.09-31.41-.46-47.06.38-46.04,2.47-92.04,5.73-138.08,8.2-25.31,1.36-50.66,1.82-76,2.55-4.71.14-9.45-.4-14.17-.62h0Z"/>
  <path class="st4" d="M368.42,959.24c4.11-1.43,8.21-2.85,12.88-4.47-.16,2.22-.26,3.53-.38,5.22,1.89-1.58,3.35-2.81,4.81-4.03.13-.05.29-.09.46-.12.32.77.97,2.18.9,2.21-3.57,1.9-5.42,6.88-10.74,5.78-2.21-.46-4.59-.08-6.89-.08-.07.43-.13.87-.2,1.3,1.07.42,2.15.84,3.8,1.48-1.15,1.86-2.24,3.64-3.88,6.32,5.52,0,10.4.12,15.27-.15.64-.03,1.62-2.04,1.65-3.15.05-1.72-.59-3.46-.94-5.19.42-.06.84-.12,1.26-.18.5,3.37,1.01,6.74,1.41,9.4-11.15.68-21.86,1.33-32.47,1.98,3.12-.63,6.44-1.3,10.65-2.15-3.81-1.86-6.45-2.98-9.81-.86-2.17,1.36-5.02,2.09-7.61,2.24-12.55.76-23.3,6.44-33.99,12.5,2.8-.86,5.61-1.73,8.41-2.59-8.61,4.87-17.8,6.94-28.56,6.11,12.77-8.63,23.76-18.44,38.11-22.68.17.32.34.65.51.97-3.08,1.43-6.2,2.79-9.23,4.31-3.16,1.59-6.24,3.33-9.21,5.34,19.81-9.01,40.41-15.5,61.85-19.46-.1-.37-.2-.74-.31-1.11-2.61.33-5.22.66-7.84.99l.09.08h0Z"/>
  <path class="st4" d="M246.85,402.86c12.5,66.59,53.07,105.36,118.1,120.27-.15.45-.3.9-.45,1.35-5.46-1.2-11.07-1.91-16.34-3.68-18.85-6.33-37.12-14-53.69-25.22-32.11-21.74-48.72-51.66-47.89-90.78.01-.65.17-1.29.26-1.93h0Z"/>
  <path class="st4" d="M305.42,479.3c3.19,3.88,6.38,7.75,9.56,11.63.18.85.36,1.69.53,2.54,3.69,4.47,7.38,8.93,10.66,12.9-7.53-3.88-15.31-8.97-22.43-15.15-1.83-1.59-3.96-2.84-5.96-4.25-1.47-1.51-2.95-3.02-4.42-4.53-3.88-5.84-7.77-11.67-11.65-17.51l.13.18c-3.31-7.18-6.62-14.36-9.92-21.54l.12.21c-2.4-8.52-4.8-17.04-7.2-25.55-.55-3.17-1.1-6.33-1.65-9.5.58.7,1.16,1.41,1.74,2.11l-.13-.2c4.54,10.06,8.86,20.23,13.74,30.12,1.96,3.97,5.14,7.35,7.76,11l-.15-.12c5.54,8.58,11.05,17.18,16.66,25.72.56.85,1.73,1.31,2.61,1.95h0Z"/>
  <path class="st4" d="M676.46,671.73c-44.07,2.62-88.14,5.39-132.23,7.77-14.35.77-28.76.49-43.14.74-2.81.05-4.77-.45-3.67-4.17,59.64-1.7,119.33-3.41,179.02-5.11,0,.26.01.51.02.77h0Z"/>
  <path class="st4" d="M856.9,778.06c.46-28.25.92-56.49,1.4-85.3,3.69.24,6.72.43,10.44.67-3.82,28.51-7.58,56.59-11.34,84.68-.17-.02-.33-.04-.5-.05h0Z"/>
  <path class="st4" d="M386.19,955.84c-.17.03-.32.07-.46.12-.08-1.21-.44-2.49-.2-3.63.73-3.44,2.26-6.8,2.48-10.25.81-12.22,1.21-24.47,1.76-36.82.09-.08.3-.4.53-.43,10.51-1.03,8.22-1.96,8.83,7.4.15,2.21.2,4.43.28,6.65.07,1.94,1,4.12-1.9,5.13-.49.17-.61,1.85-.65,2.84-.19,5.77-.54,11.54-.36,17.3.14,4.59-1.1,7.58-6.23,8.23,1.12.31,2.24.62,3.37.92.06.42.11.83.17,1.25-2.54.43-5.09.87-7.63,1.3h0Z"/>
  <path class="st4" d="M601.82,683.39c64.14-2.96,132.12-6.11,200.76-9.28-.89.49-1.28.88-1.68.91-19.78,1.22-39.58,2.33-59.35,3.62-17.87,1.17-35.81,1.82-53.56,4.02-19.38,2.4-38.67.69-58,.72-10.67.02-21.33,0-28.16,0h-.01Z"/>
  <path class="st4" d="M400.52,977.03c-3.56-.27-6.46-.48-9.54-.71,1.45-2.62,4.53-3.17,9.25-1.65-.16-.96-.2-1.78-.43-2.53-.25-.81-.68-1.56-1.07-2.42h5.07c-2.61-2.2-4.32-3.64-6.44-5.43,3.57-1.14,6.12-1.55,7.17,2.55,1.12,4.35,2.18,8.85,8.49,7.79.59-.1,2.01,1.61,2.16,2.61.81,5.4,1.24,10.86,2,16.27.52,3.74-.87,5.89-4.52,6.78-1.56.38-3.04,1.09-5.12,1.85-2.36-8.47-4.68-16.77-7.01-25.12h0Z"/>
  <path class="st4" d="M514.29,463.12c26.15-40.04,39.68-82.69,27.32-130.79,12.92,32.45,10.9,89.83-27.32,130.79Z"/>
  <path class="st4" d="M737.91,522.21h-.16c-.29,3.26-.57,6.52-.86,9.79-.29,3.33,1.07,6.79,1.67,10.2.43-.08.86-.17,1.3-.25.63-6.56,1.27-13.12,1.9-19.69-1.28-.01-2.56-.03-3.84-.03v-.02Z"/>
  <path class="st4" d="M605.62,641.22c.32,1.83.74,4.21,1.04,5.93-14.84,0-29.33-.03-43.82,0-22.81.06-45.63.11-68.44.34-3.31.03-4.58-1.08-4.44-4.71,12.61.55,25.14,1.31,37.69,1.59,19.69.43,39.4.84,59.09.57,6.17-.08,12.3-2.36,18.88-3.72h0Z"/>
  <path class="st4" d="M687.63,980.12h-64.2c3.6-4.05,6.25-8.09,13.03-7.11,15.95,2.32,32.02,3.74,48.04,5.58,1.1.13,2.15.64,3.23.97-.03.19-.06.38-.09.56h-.01Z"/>
  <path class="st4" d="M418.22,222.87c-13.35,1.46-28.24,2.52-42.94,4.85-14.65,2.32-28.47,7.69-42.09,14.87,15.3-17.1,60.69-27.04,85.02-19.72h.01Z"/>
  <path class="st4" d="M478.39,597.85c8.76,5.6,17.52,11.19,26.89,17.17-7.44,2.4-14.12,4.56-21.28,6.87-2.23-8-4.35-15.59-6.47-23.18.29-.29.58-.58.87-.86h-.01Z"/>
  <path class="st4" d="M338.63,779.13c10.88,6.65,21.75,13.32,32.65,19.94.7.42,1.6.52,2.4.77,5.26,2.71,10.52,5.43,15.14,7.82-1.24-.18-3.47-.22-5.53-.85-9.3-2.82-18.5-5.94-27.82-8.66-5.52-1.61-9.53-4.41-10.88-10.3-.21-.93-1.05-1.72-1.7-2.74-1.64,3.36,4.11,6.06-.27,10.29-1.85-5.38-3.51-10.12-5.06-14.89-.1-.31.69-.91,1.06-1.38h.01Z"/>
  <path class="st4" d="M390.46,597.43c8.93,34.43,15.5,70.35,17.26,107.02-.38.06-.76.12-1.14.18-5.43-36.09-10.85-72.19-16.11-107.2h-.01Z"/>
  <path class="st4" d="M451.32,978.05c-3.62-.25-7.38.05-10.83-.85-7.13-1.86-14.08-4.36-21.14-6.6.66-2.59,1.27-4.96,2.02-7.91-.38-.21-1.41-.76-2.44-1.32,12.89,1.6,23.19,8.07,32.29,16.8.02-.02.1-.12.1-.12h0Z"/>
  <path class="st4" d="M898.42,658.28c-.49,3.12-.83,5.27-1.24,7.88-2.44,0-4.74.06-7.04-.01-8.87-.28-17.74-.56-26.61-.99-1.03-.05-2.01-1.04-3.01-1.59,1.05-.54,2.08-1.53,3.14-1.56,8.87-.26,17.75-.34,26.63-.47,1.51-.02,3.02,0,4.52,0,0-.48-.02-.97-.03-1.45-5.8,0-11.6-.03-17.4,0-5.57.04-11.2,1.03-16.7.08l.08-1.89h37.66Z"/>
  <path class="st4" d="M861.1,680.93c-.62-.94-1.34-2.05-2.5-3.81h36.85v5.32c-4.27.2-8.36.33-12.44.58-7.04.44-14.08,1.03-21.12,1.35-1.05.05-2.16-.99-3.24-1.52.92-.72,1.84-1.44,2.45-1.92h0Z"/>
  <path class="st4" d="M483.23,974.3c-3.23-.65-6.46-1.29-10.11-2.03.12-1.79.24-3.64.4-6.14,3.83,0,7.46-.13,11.07.1.82.05,1.85,1.19,2.29,2.07,2.21,4.44,4.25,8.96,6.31,13.38-5.51,0-11.65.53-17.63-.2-3.56-.43-6.88-2.85-9.26-3.91,4.59-.54,10.71-1.25,16.83-1.96.03-.44.07-.87.1-1.31h0Z"/>
  <path class="st4" d="M846.41,949.04h-5.76c2.44-23.56,4.86-46.94,7.28-70.32.28.02.55.04.83.06-.78,23.31-1.56,46.61-2.36,70.26h.01Z"/>
  <path class="st4" d="M315.51,493.47c-.18-.85-.36-1.7-.53-2.54,1.56,1.14,3.11,2.28,4.66,3.42,5.39,5.54,11.76,9.48,19.19,11.68l-.17-.17c5.24,2.1,10.34,4.69,15.75,6.21,9.66,2.71,19.49,4.78,29.84,7.26-.84.32-1.27.64-1.69.62-16.07-.95-31.81-3.62-46.32-10.84-5.33-2.65-9.92-6.82-14.76-10.42-2.11-1.57-3.98-3.46-5.96-5.2v-.02Z"/>
  <path class="st4" d="M814.21,692.79c-1.43,19.45-2.84,38.6-4.26,57.86-.77-19.31-1.53-38.5-2.31-57.86h6.57Z"/>
  <path class="st4" d="M608.08,953.64c-16.03,3.15-32.36,5.21-47.51,11.6-.04.5-.08.99-.12,1.49-1.06-1.41-2.12-2.83-3.69-4.93,8.15-2.22,15.45-4.5,22.88-6.15,7.79-1.73,15.71-2.95,23.6-4.15,1.62-.25,3.41.6,5.13.95-.1.4-.19.8-.29,1.2h0Z"/>
  <path class="st4" d="M730.03,684.36c1.78-.39,3.56-1.1,5.35-1.12,12.9-.15,25.81-.15,38.71-.23,1.91-.01,3.81-.19,5.69-.29-1.59,4.28-5.07,4.38-9.01,4.33-13.42-.17-26.85-.06-40.28-.06-.15-.87-.3-1.75-.46-2.62h0Z"/>
  <path class="st4" d="M660.44,636.01c-3.48.32-6.96.65-10.43.97-.27-.4-.54-.79-.8-1.19,1.05-.79,2.04-2.16,3.15-2.27,9.49-.97,18.99-1.71,28.72-2.53v5.19c-10.51,1.18-20.99,2.36-31.47,3.53-.09-.44-.17-.88-.26-1.33,3.72-.59,7.43-1.18,11.15-1.77-.02-.2-.04-.4-.06-.6h0Z"/>
  <path class="st4" d="M327.8,784.39c-1.68-8.2-3.35-16.39-4.97-24.33,3.41-1.9,4.61-1.02,5.28,1.61,2.31,9.16,4.75,18.29,6.43,28.07-2.34-1.74-4.69-3.48-7.03-5.21l.3-.15h-.01Z"/>
  <path class="st4" d="M570.41,898.53v-57.61c.13,0,.27-.02.4-.02.15,2.72.3,5.44.45,8.16.16,0,.32,0,.49.01v-13.19c2.96,21.05,1.11,41.99-1.33,62.66h0Z"/>
  <path class="st4" d="M826.16,688.44v-5.66h26.4v5.66h-26.4Z"/>
  <path class="st4" d="M470.71,859.51c-1.61,17.73-3.77,35.44-4.69,53.21-.9,17.52-.54,35.1-1.51,52.63-.63-35.42-.16-70.81,6.19-105.83h.01Z"/>
  <path class="st4" d="M378.28,619.34c-.94-3.05-2.09-6.06-2.77-9.17-2.65-12.1-5.16-24.24-7.7-36.23,2.84-.23,3.44-.36,4.18,3.12,2.12,9.93,3.83,19.94,5.43,29.97.65,4.07.57,8.25.82,12.39l.04-.08Z"/>
  <path class="st4" d="M515.38,794.8c4.98,3.15,5.97-2.75,9.4-4.7-.22,1.8-.35,2.85-.51,4.17,1.28-.09,2.24-.16,3.6-.26-.47,1.31-.85,2.34-1.27,3.52,3.18,2.03,6.45,3.8,9.3,6.1,1.14.92,1.83,3.04,1.75,4.55-.05.88-2.07,1.64-3.85,2.92.53-4.4-2.1-7.17-5.27-7.34-1.75-.09-3.47-.78-4.98-2.05-2.65-.33-5.29-.66-8.08-1v-5.97l-.07.06h-.02Z"/>
  <path class="st4" d="M826.16,681.25c-.29-2.14-.49-3.56-.76-5.54h27.57v4.15c-8.91.46-17.67.92-26.82,1.39h.01Z"/>
  <path class="st4" d="M522.87,776.59c-10.88-2.42-21.77-4.85-33.75-7.52,2.65-1.27,4.79-3.25,6.59-2.98,6.94,1.02,13.85,2.45,20.59,4.38,2.62.75,4.75,3.21,7.1,4.88-.18.41-.36.83-.54,1.24h0Z"/>
  <path class="st4" d="M740.07,551.58c-24.42-.65-48.06-1.28-71.71-1.91,21.98-2.58,69.51-1.58,71.71,1.91Z"/>
  <path class="st4" d="M737.44,681.22c21.52-1.27,42.91-5.01,64.51-4.4.19.45.39.9.58,1.35-.4.13-.8.35-1.21.37-17.17.9-34.35,1.83-51.52,2.65-4.11.2-8.24.03-12.36.03h0Z"/>
  <path class="st4" d="M438.5,962.78c6.68.86,13.06,1.68,19.32,2.48v13.44c-6.46-5.32-12.77-10.52-19.32-15.92Z"/>
  <path class="st4" d="M681.5,641.23c-.71.91-1.31,2.47-2.15,2.62-9.82,1.76-19.69,3.31-29.84,4.96v-4.48c10.27-1.41,20.59-2.82,30.9-4.23l1.09,1.14h0Z"/>
  <path class="st4" d="M896.03,674.35c-1.02.48-2.04,1.36-3.06,1.38-10.03.11-20.07.13-30.11.02-1.01-.01-2-1.04-3.01-1.6.67-.55,1.34-1.57,2.02-1.57,11.19-.1,22.38-.07,33.57-.07.19.62.39,1.24.58,1.85h.01Z"/>
  <path class="st4" d="M311.31,806.5c2.46.27,4.92.77,7.37.75,3.66-.03,6.3.77,6.52,5.1.06,1.26.73,2.49,1.31,4.33-6.56-.94-12.75-1.84-18.95-2.73,5.26-.58,2.32-5.24,3.88-7.44-.02,0-.13-.02-.13-.02h0Z"/>
  <path class="st4" d="M650.83,614.14c.59-14.74,1.18-29.47,1.77-44.21.62-.14,1.24-.28,1.85-.43.4,1.23,1.23,2.49,1.15,3.68-.73,10.46-1.63,20.91-2.47,31.36-.26,3.24-.46,6.48-.68,9.72-.54-.05-1.08-.09-1.63-.14v.02Z"/>
  <path class="st4" d="M775.07,650.56h-78.67v-.81h78.63c.01.27.03.54.04.81Z"/>
  <path class="st4" d="M467.94,853.97c-3.31,3.44-41.56,6.32-49.86,3.42,16.45-1.13,32.91-2.26,49.86-3.42Z"/>
  <path class="st4" d="M424.32,521.91c16.68-6.47,32.59-12.64,48.5-18.81-14.38,10.1-30.59,15.46-48.5,18.81Z"/>
  <path class="st4" d="M859.92,669.26c1.14-.37,2.28-1.07,3.41-1.06,9.88.09,19.77.26,29.65.55.98.03,1.93,1.05,2.9,1.6-.97.35-1.93.99-2.9.99-9.59-.03-19.18-.15-28.77-.28-1.28-.02-2.56-.24-3.84-.36-.15-.48-.3-.96-.45-1.44h0Z"/>
  <path class="st4" d="M890.44,685.76h-18.84v-1.12h23.03v4.41h-22.35c.79-1.45,6.85-2.55,18.16-3.29h0Z"/>
  <path class="st4" d="M630.99,648.96c.34-2.18.66-4.18,1-6.38h12.37c.15,1.91.31,3.98.5,6.38h-13.88,0Z"/>
  <path class="st4" d="M413.61,517.73c11.6-2.56,23.2-5.12,34.8-7.69.1.33.21.66.31.99-9.97,3.08-19.9,6.31-29.95,9.08-1.68.46-3.91-1.04-5.89-1.63l.72-.75h0Z"/>
  <path class="st4" d="M281.86,833.95c-1.72-6.19-3.45-12.39-5.28-18.98h6.76v18.78c-.49.07-.99.13-1.48.2Z"/>
  <path class="st4" d="M374.35,629.58c2.88,13.72,5.76,27.44,8.68,41.36-2.9-2.43-4.51-9.01-4.88-12.98-.44-4.75-2.38-9.33-3.3-14.06-.9-4.67-1.33-9.44-1.97-14.16.49-.05.98-.11,1.47-.16h0Z"/>
  <path class="st4" d="M307.42,616.28c-1.67-5.75-3.12-10.73-4.72-16.21,9.27,1.39,10.86,7.12,4.72,16.21Z"/>
  <path class="st4" d="M458.29,795.51c-8.89,9.43-20.63,11.72-32.28,12.75,10.38-4.1,21.26-8.4,32.28-12.75Z"/>
  <path class="st4" d="M530.7,627.79h-29.22c5.63-2.18,11.08-4.28,16.53-6.39.15.17.3.34.45.51-.82.94-1.65,1.87-2.6,2.95,5.09.56,10.03,1.1,14.97,1.65-.05.43-.09.85-.14,1.28h.01Z"/>
  <path class="st4" d="M812.2,912.34c0,11.35.04,22.7-.06,34.05,0,1.01-.9,2.01-1.38,3.01-.34-.12-.69-.25-1.03-.37-.16-.84-.5-1.69-.45-2.53.58-11.46,1.21-22.92,1.83-34.38.37.07.73.15,1.1.22h-.01Z"/>
  <path class="st4" d="M382.62,718.52c3.59.94,6.24,1.64,8.65,2.27-.98,2.44-1.72,4.7-2.8,6.79-.49.95-1.9,2.34-2.47,2.16-1.27-.39-3.03-1.5-3.24-2.57-.47-2.52-.15-5.2-.15-8.65h.01Z"/>
  <path class="st4" d="M810.23,897.47v-46.51c1.81,4.11,2.49,30.51,0,46.51Z"/>
  <path class="st4" d="M405.43,863.07c1.81,9.76,2.37,19.61,2.02,29.54-.54.05-1.07.09-1.61.14-.83-9.82-1.66-19.63-2.5-29.45.7-.08,1.39-.15,2.09-.23Z"/>
  <path class="st4" d="M853.26,674.17h-46.25v-1.01h46.16c.03.34.06.67.09,1.01Z"/>
  <path class="st4" d="M809.95,972.33c-1.69-7.25-1.11-14.67-1.18-23.53,1.76,1.7,3.22,2.46,3.25,3.25.19,6.69.11,13.39.11,20.08-.72.06-1.45.13-2.17.19h-.01Z"/>
  <path class="st4" d="M492.9,675.4c-1.12-1.04-3.1-1.99-3.23-3.14-.74-6.69-1.05-13.44-1.51-20.16.48-.08.96-.17,1.44-.25,1.53,7.52,3.06,15.04,4.6,22.56-.43.33-.86.66-1.3.99Z"/>
  <path class="st4" d="M781.04,682.59c6.07-3.54,12.85-1.69,19.35-1.79.63,0,1.28,1.57,2.4,3.05h-21.53l-.22-1.27h0Z"/>
  <path class="st4" d="M914.38,674.57c-4.46,1.1-8.91,2.2-14.13,3.49.37-2.98.64-5.19,1.03-8.32,4.73,1.05,8.94,1.98,13.16,2.91-.02.64-.04,1.28-.06,1.92h0Z"/>
  <path class="st4" d="M688.86,683.74h38.44c.13.27.27.54.4.82-1.04.5-2.09,1.46-3.13,1.44-11.98-.21-23.95-.58-35.93-.9.07-.45.14-.91.21-1.36h.01Z"/>
  <path class="st4" d="M388.81,892.52c-.53-1.34-1.65-2.74-1.5-4,.82-6.99,1.94-13.95,3.68-20.8v24.05c-.73.25-1.45.5-2.18.75Z"/>
  <path class="st4" d="M540.05,979.25c-10.11-.24-10.27-.45-10.72-13.99,3.61,4.72,7.07,9.23,10.72,13.99Z"/>
  <path class="st4" d="M304.93,260.47c-10.69,11.61-21.2,23.01-32.56,35.33,9.48-14.08,19.52-25.96,32.56-35.33Z"/>
  <path class="st4" d="M515.45,794.74c-5.51-.47-11.03-.89-16.53-1.41-4.69-.44-9.37-.97-14.04-1.56-.53-.07-.98-.8-1.29-1.87,10.9-.16,21.34,2.27,31.77,4.91.02-.01.09-.07.09-.07Z"/>
  <path class="st4" d="M351.21,652.61c1.6,4.23,2.72,6.97,3.63,9.77.27.85-.05,1.89-.1,2.84-.94-.13-2.26.09-2.74-.45-1.82-2.03-4.09-4.12-4.71-6.57-.34-1.34,2.31-3.42,3.92-5.59h0Z"/>
  <path class="st4" d="M374.92,864.21c2.41.12,4.13.21,6.3.32-.96,5.15-1.87,10.04-2.78,14.93-.61-.02-1.22-.03-1.83-.05-.55-4.92-1.09-9.84-1.69-15.2Z"/>
  <path class="st4" d="M305.63,585.56c0,3.36.16,5.81-.08,8.21-.09.94-1.07,1.79-1.64,2.67-.83-.65-2.25-1.2-2.4-1.98-.62-3.22-.85-6.51-1.32-10.62,2.7.85,4.3,1.36,5.44,1.72Z"/>
  <path class="st4" d="M575.63,944.78c-3.13,1.32-5.67,2.39-8.68,3.66.92-3.98,1.73-7.52,2.58-11.21,5.91-.46,3.61,5.14,6.1,7.56h0Z"/>
  <path class="st4" d="M535.19,761.14c17,1.19,27.01,7.46,29.1,18.2-5.77-12.45-17.46-15.27-29.1-18.2Z"/>
  <path class="st4" d="M487.34,690.06v32.26c-.74-11.32-1.43-21.77-2.11-32.21.7-.02,1.41-.03,2.11-.05h0Z"/>
  <path class="st4" d="M525.61,979.33h-27.34c.42-1.14.95-2.59,1.05-2.84,2.14.74,4.23,2.04,6.34,2.07,4.51.05,9.02-.61,13.54-.88,2.14-.13,4.29-.02,6.44-.02,0,.56-.02,1.12-.03,1.68h0Z"/>
  <path class="st4" d="M802.12,687.53h-23.22c2.57-2.54,18.09-2.78,23.22,0Z"/>
  <path class="st4" d="M485.71,674.85c-1.24-7.53-2.48-15.07-3.82-23.21.89.41,2.44.7,2.51,1.22,1.1,7.22,2,14.47,2.94,21.72-.55.09-1.09.18-1.64.27h.01Z"/>
  <path class="st4" d="M642.83,634.56c-3,.19-6,.39-9.01.58-.07-.24-.14-.48-.21-.72.41-.23.81-.47.41-.24-1.46-3.97-2.9-7.87-4.34-11.78.17-.07.34-.13.51-.2,1.42,1.75,2.85,3.5,4.64,5.71-.16.28-.87,1.5-1.8,3.09,3.32.78,6.57,1.54,9.82,2.3-.01.42-.02.84-.03,1.26h.01Z"/>
  <path class="st4" d="M395.03,812.02c-11.84-2.07-23.68-4.13-35.52-6.2.06-.35.12-.69.19-1.04,11.85,2,23.7,4.01,35.55,6.01-.07.41-.14.82-.22,1.23Z"/>
  <path class="st4" d="M452.47,803.27c3.59-2.63,7.08-4.98,12.03-2.97,1.99.81,4.59.13,7.05.67-6.26.97-12.53,1.95-18.79,2.9-.07,0-.19-.39-.29-.59h0Z"/>
  <path class="st4" d="M687.07,630.66h9.23c-1.34,5.65-1.6,5.77-9.45,4.24.06-1.23.13-2.5.22-4.24Z"/>
  <path class="st4" d="M382.53,554.29c-.11.99-.22,1.98-.41,3.71-4.65-2.77-8.94-5.32-13.23-7.87,5.09.08,10.13.08,13.76,4.29l-.12-.12h0Z"/>
  <path class="st4" d="M327.8,784.39s-.29.15-.3.15c1.54,5.27,3.08,10.54,4.61,15.81-.25.28-.5.56-.76.85-1.02-.58-2.78-1.01-2.92-1.75-.88-4.6-1.43-9.28-1.97-13.94-.04-.31.87-.74,1.33-1.11h0Z"/>
  <path class="st4" d="M486.83,631.68c8.72.69,17.43,1.38,26.71,2.11-9.33.23-18.12.73-26.87.27.05-.79.11-1.59.16-2.38h0Z"/>
  <path class="st4" d="M629.4,619.15h20.97c0,.44,0,.87.01,1.31-7.02.21-14.02,1.47-21.06.22.03-.51.05-1.02.08-1.53h0Z"/>
  <path class="st4" d="M501.24,481.4c7.05-7.78,14.11-15.55,21.16-23.33.32.29.64.58.95.87-7.08,7.75-14.16,15.5-21.24,23.25-.29-.26-.58-.52-.87-.79h0Z"/>
  <path class="st4" d="M818.26,678.59c-1.71,5.98-5.99,4.16-9.38,4.22-.8.01-1.63-1.46-3.29-3.07,5.1-.46,8.72-.79,12.67-1.14h0Z"/>
  <path class="st4" d="M369.73,885.94c-.9-7.53-1.79-15.06-2.69-22.59.54-.07,1.07-.15,1.61-.22.93,7.53,1.87,15.05,2.8,22.58-.57.08-1.15.16-1.72.23h0Z"/>
  <path class="st4" d="M382.74,695.46c-1.27-6.3-2.35-11.69-3.49-17.34,4.36,3.51,5.84,10.23,3.49,17.34h0Z"/>
  <path class="st4" d="M478.23,767.49c-7.03,6.41-14.06,12.81-21.09,19.22l-.93-1.02c7.07-6.3,14.13-12.6,21.2-18.91.27.23.55.47.82.7h0Z"/>
  <path class="st4" d="M625.39,972.06c-1.51,2.24-2.69,4.85-4.63,6.63-1.73,1.58-4.31,2.24-7.53,3.79,3.71-3.86,6.53-6.92,9.54-9.8.56-.54,1.84-.34,2.79-.48l-.16-.14h-.01Z"/>
  <path class="st4" d="M368.33,959.15c-9.39,2.39-18.78,4.77-28.17,7.16,9.05-3.96,18.38-6.7,28.26-7.09l-.08-.07h-.01Z"/>
  <path class="st4" d="M859.51,685.5c3.33,1.61,8.03-2.38,10.89,3.1-7.66,2.05-11.28,1.1-10.89-3.1Z"/>
  <path class="st4" d="M517.83,634.49c12.03.65,24.07,1.3,36.1,1.96-.02.32-.03.65-.05.97-12.05-.67-24.1-1.34-36.15-2.01.03-.31.07-.61.1-.92h0Z"/>
  <path class="st4" d="M299,755.03v38.6s-.09.02-.14.03c-.51-12.9-1.03-25.81-1.54-38.71.56.03,1.12.05,1.68.08Z"/>
  <path class="st4" d="M462.05,808.47h23.36c0,.14,0,.27-.01.41h-23.37c0-.14.02-.27.03-.41h-.01Z"/>
  <path class="st4" d="M415.91,891.06v-28.39c.25-.02.51-.04.76-.05v28.39l-.76.05h0Z"/>
  <path class="st4" d="M634.93,639.27l5.6.41-.02.43h-7.76c-.1-1.19-.21-2.39-.36-4.12,4.13.23,7.8.43,11.47.63l.02,1.38h-8.89c-.02.42-.04.85-.05,1.27h-.01Z"/>
  <path class="st4" d="M511.69,618.91c-6.5,1.28-12.34,2.43-18.18,3.58,5.81-1.31,10.37-8.76,18.18-3.58Z"/>
  <path class="st4" d="M686.35,638.83c2.7-.45,4.96-.82,7.77-1.29-.72,2.21-1.29,3.93-1.85,5.64h-5.92v-4.35h0Z"/>
  <path class="st4" d="M814.77,688.21c-2.95-1.12-7.13,2-8.32-4.18,3.39,1.06,7.79-2.54,8.32,4.18Z"/>
  <path class="st4" d="M511,636.62c-6.21.32-14.82.77-23.43,1.21-.02-.4-.03-.81-.05-1.21h23.48Z"/>
  <path class="st4" d="M407.2,947.89c-.86-.81-2.4-1.57-2.45-2.43-.26-4.24-.12-8.49.34-12.84,1.03,4.68,2.06,9.36,3.09,14.04-.33.41-.65.82-.98,1.23h0Z"/>
  <path class="st4" d="M387.13,576.38c-3.9-6.54-7.55-12.68-11.02-18.5,6.62,3.76,8.63,10.95,11.02,18.5Z"/>
  <path class="st4" d="M351.99,538.14c-4.95,3.4-9.9,6.81-14.85,10.21-.29-.44-.58-.88-.87-1.33,5.01-3.31,10.03-6.62,15.04-9.93l.68,1.04h0Z"/>
  <path class="st4" d="M420.87,531.58c-3.73-1.38-7.35-2.72-10.73-3.98,5.36-3.24,6.98-2.69,10.73,3.98Z"/>
  <path class="st4" d="M292.76,803.38c-2.15,3.04-4.02,5.67-5.97,8.44-2.38-4.09-.02-7.55,5.97-8.44Z"/>
  <path class="st4" d="M431.97,832.25c-6.59.32-13.19.64-19.78.96-.01-.36-.03-.72-.04-1.08l19.79-.87c.01.33.03.66.04.98h-.01Z"/>
  <path class="st4" d="M284.11,550.83l-22.19,2.43-.12-1.29c7.42-.64,14.83-1.29,22.25-1.93.02.26.04.53.07.79h-.01Z"/>
  <path class="st4" d="M574.43,643.01c-3.55-.46-7.1-.93-10.65-1.39,4.04-3.33,7.48-1.74,10.65,1.39Z"/>
  <path class="st4" d="M609.28,975.63c-2.06,2.07-3.04,6.95-8.9,4.17,3.57-1.67,6.24-2.92,8.9-4.17Z"/>
  <path class="st4" d="M332.28,828.13c.77-1.8,1.41-3.28,2.29-5.32.9,2.74,1,6.37,5.94,3.19-2.78,4.16-3.6,4.29-8.23,2.13Z"/>
  <path class="st4" d="M381.43,890.82c-5.23-.21-3.93-3.86-3.81-6.8.71,1.77,1.42,3.54,2.52,6.29.62-4.33,1.08-7.59,1.55-10.86.22.02.44.05.65.07-.3,3.69-.59,7.37-.91,11.3h0Z"/>
  <path class="st4" d="M490.56,683.88c2.09.2,3.52.33,5.16.48.19,1.4.36,2.66.57,4.17h-5.19c-.17-1.46-.32-2.81-.53-4.65h-.01Z"/>
  <path class="st4" d="M482.35,648.05c-1.66-1.52-3.32-3.05-5.65-5.19,5.19-1.22,7.11,0,5.65,5.19Z"/>
  <path class="st4" d="M378.25,619.42c1.4,6.29,2.8,12.59,4.2,18.88-.39.07-.78.15-1.17.22-1-6.38-2-12.76-3-19.16,0-.02-.03.06-.03.06Z"/>
  <path class="st4" d="M606.57,981.14c3.82-3.37,7.63-6.74,11.45-10.12.31.37.63.73.94,1.1-3.8,3.35-7.6,6.7-11.4,10.05-.33-.34-.66-.69-.99-1.03h0Z"/>
  <path class="st4" d="M807.17,676.26h13.19c.03.26.05.53.08.79h-13.23c-.01-.26-.02-.53-.04-.79Z"/>
  <path class="st4" d="M492.16,893.27c.53-3.12,1.05-6.24,1.58-9.36.43.04.86.08,1.3.12-.26,3.32-.53,6.64-.83,10.51-.97-.6-1.51-.94-2.05-1.28h0Z"/>
  <path class="st4" d="M278.06,745.27c4.57,1.66,8.36,3.03,12.42,4.51-3.26,1.2-10.69-1.22-12.42-4.51Z"/>
  <path class="st4" d="M529.13,786.5c.52,1.02,1.05,2.05,1.55,3.04,1.78-1.26,2.88-2.04,3.99-2.82.27.47.55.94.82,1.41-2.02.96-3.99,2.12-6.12,2.71-.39.11-1.42-2.07-2.15-3.19.63-.38,1.27-.76,1.9-1.15h.01Z"/>
  <path class="st4" d="M625.39,972.06l.16.14c1.64-3.66,3.29-7.32,4.94-10.99.2,4.62-1.36,8.31-5.09,10.85h0Z"/>
  <path class="st4" d="M612.88,941.13c3.76.44,7.53.88,11.29,1.32l-.16,1.21c-3.68-.52-7.37-1.04-11.05-1.55-.03-.33-.05-.65-.08-.98h0Z"/>
  <path class="st4" d="M822.96,688.56c-2.17-.28-3.42-.44-5.43-.7,1.37-2.15,2.39-3.76,3.41-5.37.37.05.73.11,1.1.16.26,1.7.53,3.39.92,5.91Z"/>
  <path class="st4" d="M492.15,893.26v17.45c-.33,0-.67-.02-1-.03.34-5.8.67-11.6,1.01-17.41h0s-.01-.01-.01-.01Z"/>
  <path class="st4" d="M410.89,521.45c-2.65-.51-5.31-1.02-7.96-1.53l.33-1.87,8.03,1.1c-.13.77-.26,1.53-.4,2.3h0Z"/>
  <path class="st4" d="M681.25,649.79h-17.28c6.14-.32,11.7-.6,17.26-.89,0,.3.01.59.02.89Z"/>
  <path class="st4" d="M394.96,828.52h18.32v.34h-18.32v-.34Z"/>
  <path class="st4" d="M490.52,674.88c2.05,1.44,3.47,2.44,4.89,3.44-3.74,2.2-5.83,2.1-4.89-3.44Z"/>
  <path d="M490.51,397.08c0-12.62,2.78-21.96,14.14-21.96,2.01,0,4.88,3.26,5.89,5.68,4.28,10.36,4.67,21.78-2.24,30.33-11.61,14.36-17.79-5.04-17.79-14.05h0ZM508.99,386.31c-.26-1.86-.13-2.89-.57-3.56-.9-1.39-1.87-3.18-3.24-3.7-1.17-.44-3.73.23-4.23,1.17-.64,1.21.06,3.21.41,4.82.18.82.7,1.68,1.32,2.26,1.08,1.01,2.35,1.83,3.54,2.72,1.05-1.41,2.11-2.83,2.76-3.71h.01Z"/>
  <path d="M305.42,479.3c-.88-.64-2.05-1.1-2.61-1.95-5.61-8.53-11.12-17.13-16.66-25.72.02-1.76.05-3.52.07-5.28l-.09.07c1.9,3.55,3.71,7.15,5.74,10.61,1.1,1.88,2.6,3.52,3.92,5.27,1.54,3.1,2.96,6.27,4.65,9.28,1.49,2.66,3.3,5.15,4.97,7.71h.01Z"/>
  <path d="M286.3,451.76c-2.62-3.65-5.8-7.02-7.76-11-4.88-9.9-9.19-20.06-13.74-30.12,2.53,5.4,4.84,10.92,7.63,16.18,4.45,8.4,9.23,16.63,13.87,24.94Z"/>
  <path d="M264.93,410.84c-.58-.7-1.16-1.41-1.74-2.11-4.63-15-4.35-30.55-5.12-45.98,2.03,16.07,1.38,32.52,6.86,48.09h0Z"/>
  <path d="M262.73,329.94c5.17-10.12,10.34-20.23,15.51-30.35.33.17.66.34.99.5-5.15,10.18-10.31,20.35-15.46,30.53-.35-.23-.69-.45-1.04-.68h0Z"/>
  <path d="M271.75,349.64c.52,2.33,1.1,4.64,1.54,6.99,1.05,5.58,2.04,11.18,2.62,16.84-1.29-7.99-5.48-15.46-4.08-23.93l-.09.1h.01Z"/>
  <path d="M262.29,332.89c-3.88,7.79-6.14,15.74-4.61,24.43-1.91-8.83-1.17-17.17,4.61-24.43Z"/>
  <path d="M264.84,418.23c2.4,8.52,4.8,17.04,7.2,25.55-2.4-8.52-4.8-17.04-7.2-25.55Z"/>
  <path d="M271.92,443.57c3.31,7.18,6.62,14.36,9.92,21.54l-9.92-21.54Z"/>
  <path d="M281.71,464.94c3.88,5.84,7.77,11.67,11.65,17.51-3.88-5.84-7.77-11.67-11.65-17.51Z"/>
  <path d="M271.84,349.54v-25.46h-.07v25.56l.08-.09h-.01Z"/>
  <path d="M286.22,446.36c-2.53-5.55-5.07-11.1-7.6-16.65.46-.19.93-.37,1.39-.56,2.04,5.76,4.08,11.52,6.13,17.28l.09-.07h0Z"/>
  <path d="M378.74,760.11c.5-.81.82-2.1,1.52-2.36,13.56-4.94,19.92-16.53,26.17-28.2,3.04-5.69,5.93-11.47,8.89-17.21-3.29,22.74-15.32,38.78-36.58,47.77h0Z"/>
  <path d="M484.75,743.5c-2.93,4.52-5.28,9.6-8.91,13.46-8.89,9.45-18.31,18.4-27.68,27.4-1.72,1.65-4.17,2.55-6.28,3.79,1.32-2.78-1.2-2.23-2.38-2.58-8.18-2.47-16.42-4.76-24.56-7.33-1.83-.58-3.38-2.05-5.06-3.11,10.43,3.18,20.82,6.5,31.33,9.41,1.71.47,4.37-.33,5.84-1.49,14.07-11.19,26.58-23.9,36.67-38.87.21-.31.69-.45,1.04-.67h-.01Z"/>
  <path d="M381.85,535.87c13.4,3.19,26.81,6.37,40.21,9.56-.1.46-.21.92-.31,1.38-2.81-.52-5.67-.86-8.43-1.59-9.68-2.57-19.32-5.25-28.96-7.95-.87-.24-1.59-.99-2.4-1.49-.02.02-.11.09-.11.09Z"/>
  <path d="M367.03,542.83c12.5.42,24.77,1.57,36.47,6.15-12.16-2.05-24.31-4.1-36.47-6.15Z"/>
  <path d="M542.19,625.67c5.42-3.67,9.79,2.03,14.83,1.62-5.16,1.5-10.05.72-14.74-1.74-.01.01-.09.12-.09.12Z"/>
  <path d="M363.83,535.71c4.18-.39,8.36-.95,12.55-1.07,1.8-.05,3.62.82,5.45,1.25.02-.02.11-.09.13-.11-5.99-.04-12-.07-18.04-.09-.03.01-.09.02-.09.02h0Z"/>
  <path d="M442.05,788.01c-9,9.03-19.36,15.86-32.08,17.96-3.06.51-6.56-1.58-9.85-2.47v.11c.41-.12.95-.48,1.2-.34,6.48,3.66,12.39.94,17.97-2,6.1-3.21,11.84-7.12,17.76-10.67,1.61-.96,3.33-1.74,5-2.6h0Z"/>
  <path d="M413.21,796.85c-14.69-3.3-27.56-10.84-40.68-17.8,13.56,5.93,27.12,11.86,40.68,17.8Z"/>
  <path d="M390.87,798.79c-8.27-3.88-16.54-7.77-24.81-11.65,8.27,3.88,16.54,7.77,24.81,11.65Z"/>
  <path d="M404.58,783.86c-6.59-3.03-13.18-6.06-19.77-9.1.14-.31.27-.61.41-.92,6.59,3.04,13.18,6.07,19.77,9.11-.14.3-.27.61-.41.91h0Z"/>
  <path d="M428.43,791.89l-17.88-5.43c.1-.33.19-.66.29-.99,5.95,1.84,11.91,3.68,17.86,5.52-.09.3-.18.6-.27.9h0Z"/>
  <path d="M400.12,803.62v-.11c-1,.28-2.14,1.01-2.97.76-4.49-1.38-8.91-3-13.19-4.99,4.8,1.15,9.6,2.3,14.4,3.45.59.3,1.18.59,1.77.89h-.01Z"/>
  <path d="M338.83,506.03c-7.43-2.2-13.79-6.14-19.19-11.68,6.4,3.89,12.79,7.79,19.19,11.68Z"/>
  <path d="M396.84,513.37c6.17-.74,12.35-1.48,18.52-2.23.03.3.06.59.09.89-6.18.65-12.37,1.3-18.55,1.95-.02-.2-.04-.41-.07-.61h.01Z"/>
  <path d="M724.91,639.95c5.12-4.87,10.24-9.74,15.35-14.61.03.03.05.07.08.1-4.81,5.17-9.62,10.34-14.44,15.5-.33-.33-.66-.66-.99-.99h0Z"/>
  <path d="M710.37,638.56c3.55-3.96,7.1-7.93,10.65-11.89l.72.66c-3.52,4.03-7.03,8.05-10.55,12.08-.28-.28-.55-.56-.83-.84h.01Z"/>
  <path d="M726.15,630.37c-3.08,3.7-6.16,7.4-9.24,11.09l-1.1-.92c3.14-3.67,6.28-7.34,9.42-11,.31.28.62.55.93.83h0Z"/>
  <path class="st4" d="M508.99,386.31c-.66.88-1.71,2.3-2.76,3.71-1.19-.9-2.46-1.71-3.54-2.72-.62-.58-1.14-1.44-1.32-2.26-.35-1.61-1.05-3.61-.41-4.82.5-.94,3.06-1.62,4.23-1.17,1.36.52,2.34,2.3,3.24,3.7.43.67.3,1.71.57,3.56h-.01Z"/>
</svg>