<?xml version="1.0" encoding="UTF-8"?>
<svg id="Layer_1" xmlns="http://www.w3.org/2000/svg" version="1.1" viewBox="0 0 1443.19 900">
  <!-- Generator: Adobe Illustrator 29.2.1, SVG Export Plug-In . SVG Version: 2.1.0 Build 116)  -->
  <defs>
    <style>
      .st0 {
        fill: #f2bd82;
      }

      .st1, .st2 {
        font-family: Poppins-Regular, Poppins;
        font-size: 10px;
      }

      .st3 {
        fill: #008aff;
      }

      .st2, .st4 {
        fill: #fff;
      }

      .st5 {
        fill: #d7b9ff;
      }

      .st6 {
        fill: #ffb700;
      }

      .st4, .st7 {
        font-family: Poppins-SemiBold, Poppins;
        font-size: 12px;
        font-weight: 600;
      }

      .st8 {
        fill: #ffd486;
      }

      .st9 {
        fill: #87e4b0;
      }

      .st10 {
        fill: #ababab;
      }

      .st11 {
        font-family: Poppins-Bold, Poppins;
        font-size: 21px;
        font-weight: 700;
      }

      .st12 {
        fill: #a1d2ff;
      }
    </style>
  </defs>
  <rect class="st6" x="552.58" y="328.67" width="186.79" height="186.79" rx="3.18" ry="3.18"/>
  <rect class="st3" x="497.05" y="145.61" width="135.85" height="135.85" rx="3.18" ry="3.18"/>
  <rect class="st3" x="395.8" y="36.02" width="101.89" height="101.89" rx="3.18" ry="3.18"/>
  <rect class="st12" x="959.33" y="307.65" width="101.89" height="101.89" rx="3.18" ry="3.18"/>
  <rect class="st8" x="254.61" y="468.97" width="101.89" height="101.89" rx="3.18" ry="3.18"/>
  <rect class="st8" x="254.61" y="604.82" width="101.89" height="101.89" rx="3.18" ry="3.18"/>
  <rect class="st5" x="381.97" y="689.72" width="101.89" height="101.89" rx="3.18" ry="3.18"/>
  <rect class="st5" x="530.56" y="753.4" width="101.89" height="101.89" rx="3.18" ry="3.18"/>
  <rect class="st0" x="853.2" y="621.8" width="101.89" height="101.89" rx="3.18" ry="3.18"/>
  <rect class="st0" x="1001.78" y="723.68" width="101.89" height="101.89" rx="3.18" ry="3.18"/>
  <rect class="st0" x="756" y="762.1" width="101.89" height="101.89" rx="3.18" ry="3.18"/>
  <rect class="st8" x="161.74" y="307.83" width="101.89" height="101.89" rx="3.18" ry="3.18"/>
  <rect class="st8" x="84.4" y="435" width="101.89" height="101.89" rx="3.18" ry="3.18"/>
  <rect class="st8" x="16.88" y="307.65" width="101.89" height="101.89" rx="3.18" ry="3.18"/>
  <rect class="st12" x="1027.25" y="443.5" width="101.89" height="101.89" rx="3.18" ry="3.18"/>
  <rect class="st12" x="1188.58" y="443.5" width="101.89" height="101.89" rx="3.18" ry="3.18"/>
  <rect class="st12" x="1324.42" y="356.47" width="101.89" height="101.89" rx="3.18" ry="3.18"/>
  <rect class="st12" x="1324.42" y="530.52" width="101.89" height="101.89" rx="3.18" ry="3.18"/>
  <rect class="st3" x="332.39" y="179.89" width="101.89" height="101.89" rx="3.18" ry="3.18"/>
  <rect class="st5" x="496.59" y="570.85" width="135.85" height="135.85" rx="3.18" ry="3.18"/>
  <rect class="st9" x="697.12" y="161.91" width="135.85" height="135.85" rx="3.18" ry="3.18"/>
  <rect class="st0" x="657.92" y="570.85" width="135.85" height="135.85" rx="3.18" ry="3.18"/>
  <rect class="st12" x="806.5" y="401.04" width="135.85" height="135.85" rx="3.18" ry="3.18"/>
  <rect class="st8" x="349.04" y="307.25" width="135.85" height="135.85" rx="3.18" ry="3.18"/>
  <path class="st10" d="M645.98,318.26c0-7.47-6.06-13.53-13.53-13.53v1.59c6.59,0,11.94,5.35,11.94,11.94h1.59ZM577.25,304.73c-6.59,0-11.94-5.35-11.94-11.94h-1.59c0,7.47,6.06,13.53,13.53,13.53v-1.59ZM565.32,292.79v-8.49h-1.59v8.49h1.59ZM632.44,304.73h-55.19v1.59h55.19v-1.59ZM645.98,326.75v-8.49h-1.59v8.49h1.59ZM565.08,283.73c-.31-.31-.81-.31-1.13,0l-5.07,5.07c-.31.31-.31.81,0,1.13.31.31.81.31,1.13,0l4.5-4.5,4.5,4.5c.31.31.81.31,1.13,0,.31-.31.31-.81,0-1.13l-5.07-5.07ZM644.38,326.75c0,.44.36.8.8.8s.8-.36.8-.8h-1.59Z"/>
  <path class="st10" d="M645.98,326.75c0-6.59,5.35-11.94,11.94-11.94v-1.59c-7.47,0-13.53,6.06-13.53,13.53h1.59ZM751.31,314.81c7.47,0,13.53-6.06,13.53-13.53h-1.59c0,6.59-5.35,11.94-11.94,11.94v1.59ZM657.92,314.81h93.4v-1.59h-93.4v1.59ZM645.18,326.75h.8-.8ZM764.05,301.28h.8-.8ZM764.61,300.72c-.31-.31-.81-.31-1.13,0l-5.07,5.07c-.31.31-.31.81,0,1.13s.81.31,1.13,0l4.5-4.5,4.5,4.5c.31.31.81.31,1.13,0s.31-.81,0-1.13l-5.07-5.07ZM644.38,326.75c0,.44.36.8.8.8s.8-.36.8-.8h-1.59Z"/>
  <path class="st10" d="M530.56,421.47c-6.59,0-11.94-5.35-11.94-11.94h-1.59c0,7.47,6.06,13.53,13.53,13.53v-1.59ZM518.62,388.31c0-7.47-6.06-13.53-13.53-13.53v1.59c6.59,0,11.94,5.35,11.94,11.94h1.59ZM505.09,374.77h-19.1v1.59h19.1v-1.59ZM518.62,409.53v-21.23h-1.59v21.23h1.59ZM549.66,421.47h-19.1v1.59h19.1v-1.59ZM485.42,375.01c-.31.31-.31.81,0,1.13l5.07,5.07c.31.31.81.31,1.13,0,.31-.31.31-.81,0-1.13l-4.5-4.5,4.5-4.5c.31-.31.31-.81,0-1.13-.31-.31-.81-.31-1.13,0l-5.07,5.07ZM549.66,423.07c.44,0,.8-.36.8-.8s-.36-.8-.8-.8v1.59Z"/>
  <path class="st10" d="M759.8,423.07c6.59,0,11.94,5.35,11.94,11.94h1.59c0-7.47-6.06-13.53-13.53-13.53v1.59ZM771.74,456.23c0,7.47,6.06,13.53,13.53,13.53v-1.59c-6.59,0-11.94-5.35-11.94-11.94h-1.59ZM785.27,469.76h19.1v-1.59h-19.1v1.59ZM771.74,435v21.23h1.59v-21.23h-1.59ZM740.7,423.07h19.1v-1.59h-19.1v1.59ZM804.94,469.53c.31-.31.31-.81,0-1.13l-5.07-5.07c-.31-.31-.81-.31-1.13,0-.31.31-.31.81,0,1.13l4.5,4.5-4.5,4.5c-.31.31-.31.81,0,1.13.31.31.81.31,1.13,0l5.07-5.07ZM740.7,421.47c-.44,0-.8.36-.8.8s.36.8.8.8v-1.59Z"/>
  <path class="st10" d="M644.38,530.52c0,6.59-5.35,11.94-11.94,11.94v1.59c7.47,0,13.53-6.06,13.53-13.53h-1.59ZM577.25,542.46c-7.47,0-13.53,6.06-13.53,13.53h1.59c0-6.59,5.35-11.94,11.94-11.94v-1.59ZM563.72,556v12.74h1.59v-12.74h-1.59ZM632.44,542.46h-55.19v1.59h55.19v-1.59ZM644.38,517.79v12.74h1.59v-12.74h-1.59ZM563.96,569.29c.31.31.81.31,1.13,0l5.07-5.07c.31-.31.31-.81,0-1.13-.31-.31-.81-.31-1.13,0l-4.5,4.5-4.5-4.5c-.31-.31-.81-.31-1.13,0-.31.31-.31.81,0,1.13l5.07,5.07ZM645.98,517.79c0-.44-.36-.8-.8-.8s-.8.36-.8.8h1.59Z"/>
  <path class="st10" d="M644.38,530.52c0,7.47,6.06,13.53,13.53,13.53v-1.59c-6.59,0-11.94-5.35-11.94-11.94h-1.59ZM713.1,544.06c6.59,0,11.94,5.35,11.94,11.94h1.59c0-7.47-6.06-13.53-13.53-13.53v1.59ZM725.04,556v12.74h1.59v-12.74h-1.59ZM657.92,544.06h55.19v-1.59h-55.19v1.59ZM644.38,517.79v12.74h1.59v-12.74h-1.59ZM725.28,569.29c.31.31.81.31,1.13,0l5.07-5.07c.31-.31.31-.81,0-1.13-.31-.31-.81-.31-1.13,0l-4.5,4.5-4.5-4.5c-.31-.31-.81-.31-1.13,0-.31.31-.31.81,0,1.13l5.07,5.07ZM645.98,517.79c0-.44-.36-.8-.8-.8s-.8.36-.8.8h1.59Z"/>
  <path class="st10" d="M565.32,99.63c0-7.47-6.06-13.53-13.53-13.53v1.59c6.59,0,11.94,5.35,11.94,11.94h1.59ZM551.78,86.1h-53.07v1.59h53.07v-1.59ZM565.32,144.2v-44.58h-1.59v44.58h1.59ZM498.15,86.33c-.31.31-.31.81,0,1.13l5.07,5.07c.31.31.81.31,1.13,0,.31-.31.31-.81,0-1.13l-4.5-4.5,4.5-4.5c.31-.31.31-.81,0-1.13-.31-.31-.81-.31-1.13,0l-5.07,5.07ZM563.72,144.2c0,.44.36.8.8.8s.8-.36.8-.8h-1.59Z"/>
  <path class="st10" d="M473.25,213.45c-5.13,0-9.29,4.16-9.29,9.29h1.59c0-4.25,3.44-7.69,7.69-7.69v-1.59ZM463.96,222.74c0,4.25-3.44,7.69-7.69,7.69v1.59c5.13,0,9.29-4.16,9.29-9.29h-1.59ZM456.26,230.44h-21.23v1.59h21.23v-1.59ZM494.47,213.45h-21.23v1.59h21.23v-1.59ZM464.75,222.74h.8-.8ZM464.75,222.74h.8-.8ZM434.48,230.67c-.31.31-.31.81,0,1.13l5.07,5.07c.31.31.81.31,1.13,0,.31-.31.31-.81,0-1.13l-4.5-4.5,4.5-4.5c.31-.31.31-.81,0-1.13-.31-.31-.81-.31-1.13,0l-5.07,5.07ZM494.47,215.05c.44,0,.8-.36.8-.8s-.36-.8-.8-.8v1.59Z"/>
  <path class="st10" d="M875.22,371.33c0-6.59,5.35-11.94,11.94-11.94v-1.59c-7.47,0-13.53,6.06-13.53,13.53h1.59ZM887.16,359.39h70.05v-1.59h-70.05v1.59ZM875.22,398.92v-27.59h-1.59v27.59h1.59ZM957.77,359.15c.31-.31.31-.81,0-1.13l-5.07-5.07c-.31-.31-.81-.31-1.13,0s-.31.81,0,1.13l4.5,4.5-4.5,4.5c-.31.31-.31.81,0,1.13s.81.31,1.13,0l5.07-5.07ZM873.63,398.92c0,.44.36.8.8.8s.8-.36.8-.8h-1.59Z"/>
  <path class="st10" d="M1065.46,359.39c6.59,0,11.94,5.35,11.94,11.94h1.59c0-7.47-6.06-13.53-13.53-13.53v1.59ZM1077.4,371.33v70.05h1.59v-70.05h-1.59ZM1063.34,359.39h2.12v-1.59h-2.12v1.59ZM1077.64,441.94c.31.31.81.31,1.13,0l5.07-5.07c.31-.31.31-.81,0-1.13-.31-.31-.81-.31-1.13,0l-4.5,4.5-4.5-4.5c-.31-.31-.81-.31-1.13,0-.31.31-.31.81,0,1.13l5.07,5.07ZM1063.34,357.79c-.44,0-.8.36-.8.8s.36.8.8.8v-1.59Z"/>
  <path class="st10" d="M1131.26,495.23h55.19v-1.59h-55.19v1.59ZM1187.02,495c.31-.31.31-.81,0-1.13l-5.07-5.07c-.31-.31-.81-.31-1.13,0-.31.31-.31.81,0,1.13l4.5,4.5-4.5,4.5c-.31.31-.31.81,0,1.13.31.31.81.31,1.13,0l5.07-5.07ZM1131.26,493.64c-.44,0-.8.36-.8.8s.36.8.8.8v-1.59Z"/>
  <path class="st10" d="M1238.72,568.73c0,7.47,6.06,13.53,13.53,13.53v-1.59c-6.59,0-11.94-5.35-11.94-11.94h-1.59ZM1252.25,582.26h70.05v-1.59h-70.05v1.59ZM1238.72,547.5v21.23h1.59v-21.23h-1.59ZM1322.86,582.03c.31-.31.31-.81,0-1.13l-5.07-5.07c-.31-.31-.81-.31-1.13,0-.31.31-.31.81,0,1.13l4.5,4.5-4.5,4.5c-.31.31-.31.81,0,1.13.31.31.81.31,1.13,0l5.07-5.07ZM1240.32,547.5c0-.44-.36-.8-.8-.8s-.8.36-.8.8h1.59Z"/>
  <path class="st10" d="M1240.32,420.15c0-6.59,5.35-11.94,11.94-11.94v-1.59c-7.47,0-13.53,6.06-13.53,13.53h1.59ZM1252.25,408.21h70.05v-1.59h-70.05v1.59ZM1240.32,441.37v-21.23h-1.59v21.23h1.59ZM1322.86,407.97c.31-.31.31-.81,0-1.13l-5.07-5.07c-.31-.31-.81-.31-1.13,0-.31.31-.31.81,0,1.13l4.5,4.5-4.5,4.5c-.31.31-.31.81,0,1.13.31.31.81.31,1.13,0l5.07-5.07ZM1238.72,441.37c0,.44.36.8.8.8s.8-.36.8-.8h-1.59Z"/>
  <path class="st10" d="M318.29,374.77c-7.47,0-13.53,6.06-13.53,13.53h1.59c0-6.59,5.35-11.94,11.94-11.94v-1.59ZM304.76,388.31v78.54h1.59v-78.54h-1.59ZM345.89,374.77h-27.59v1.59h27.59v-1.59ZM304.99,467.41c.31.31.81.31,1.13,0l5.07-5.07c.31-.31.31-.81,0-1.13s-.81-.31-1.13,0l-4.5,4.5-4.5-4.5c-.31-.31-.81-.31-1.13,0s-.31.81,0,1.13l5.07,5.07ZM345.89,376.37c.44,0,.8-.36.8-.8s-.36-.8-.8-.8v1.59Z"/>
  <path class="st10" d="M304.76,572.98v29.72h1.59v-29.72h-1.59ZM304.99,603.26c.31.31.81.31,1.13,0l5.07-5.07c.31-.31.31-.81,0-1.13-.31-.31-.81-.31-1.13,0l-4.5,4.5-4.5-4.5c-.31-.31-.81-.31-1.13,0-.31.31-.31.81,0,1.13l5.07,5.07ZM306.35,572.98c0-.44-.36-.8-.8-.8s-.8.36-.8.8h1.59Z"/>
  <path class="st10" d="M314.05,374.77c-4.25,0-7.69-3.44-7.69-7.69h-1.59c0,5.13,4.16,9.29,9.29,9.29v-1.59ZM306.35,367.08c0-5.13-4.16-9.29-9.29-9.29v1.59c4.25,0,7.69,3.44,7.69,7.69h1.59ZM297.07,357.79h-31.84v1.59h31.84v-1.59ZM345.89,374.77h-31.84v1.59h31.84v-1.59ZM305.56,367.08h.8-.8ZM305.56,367.08h.8-.8ZM264.66,358.03c-.31.31-.31.81,0,1.13l5.07,5.07c.31.31.81.31,1.13,0,.31-.31.31-.81,0-1.13l-4.5-4.5,4.5-4.5c.31-.31.31-.81,0-1.13-.31-.31-.81-.31-1.13,0l-5.07,5.07ZM345.89,376.37c.44,0,.8-.36.8-.8s-.36-.8-.8-.8v1.59Z"/>
  <path class="st10" d="M159.09,357.79h-38.21v1.59h38.21v-1.59ZM120.32,358.03c-.31.31-.31.81,0,1.13l5.07,5.07c.31.31.81.31,1.13,0,.31-.31.31-.81,0-1.13l-4.5-4.5,4.5-4.5c.31-.31.31-.81,0-1.13s-.81-.31-1.13,0l-5.07,5.07ZM159.09,359.39c.44,0,.8-.36.8-.8s-.36-.8-.8-.8v1.59Z"/>
  <path class="st10" d="M148.48,357.79c-7.47,0-13.53,6.06-13.53,13.53h1.59c0-6.59,5.35-11.94,11.94-11.94v-1.59ZM134.95,371.33v61.56h1.59v-61.56h-1.59ZM159.09,357.79h-10.61v1.59h10.61v-1.59ZM135.18,433.45c.31.31.81.31,1.13,0l5.07-5.07c.31-.31.31-.81,0-1.13-.31-.31-.81-.31-1.13,0l-4.5,4.5-4.5-4.5c-.31-.31-.81-.31-1.13,0-.31.31-.31.81,0,1.13l5.07,5.07ZM159.09,359.39c.44,0,.8-.36.8-.8s-.36-.8-.8-.8v1.59Z"/>
  <path class="st10" d="M445.65,637.98c-7.47,0-13.53,6.06-13.53,13.53h1.59c0-6.59,5.35-11.94,11.94-11.94v-1.59ZM432.12,651.51v36.08h1.59v-36.08h-1.59ZM494.47,637.98h-48.82v1.59h48.82v-1.59ZM432.35,688.16c.31.31.81.31,1.13,0l5.07-5.07c.31-.31.31-.81,0-1.13-.31-.31-.81-.31-1.13,0l-4.5,4.5-4.5-4.5c-.31-.31-.81-.31-1.13,0-.31.31-.31.81,0,1.13l5.07,5.07ZM494.47,639.57c.44,0,.8-.36.8-.8s-.36-.8-.8-.8v1.59Z"/>
  <path class="st10" d="M563.72,721.56c0,5.13,4.16,9.29,9.29,9.29v-1.59c-4.25,0-7.69-3.44-7.69-7.69h-1.59ZM573.01,730.85c4.25,0,7.69,3.44,7.69,7.69h1.59c0-5.13-4.16-9.29-9.29-9.29v1.59ZM580.7,738.54v12.74h1.59v-12.74h-1.59ZM563.72,708.83v12.74h1.59v-12.74h-1.59ZM580.94,751.84c.31.31.81.31,1.13,0l5.07-5.07c.31-.31.31-.81,0-1.13-.31-.31-.81-.31-1.13,0l-4.5,4.5-4.5-4.5c-.31-.31-.81-.31-1.13,0-.31.31-.31.81,0,1.13l5.07,5.07ZM565.32,708.83c0-.44-.36-.8-.8-.8s-.8.36-.8.8h1.59Z"/>
  <path class="st10" d="M725.04,800.1c0,7.47,6.06,13.53,13.53,13.53v-1.59c-6.59,0-11.94-5.35-11.94-11.94h-1.59ZM738.58,813.63h14.86v-1.59h-14.86v1.59ZM725.04,708.83v91.27h1.59v-91.27h-1.59ZM754,813.4c.31-.31.31-.81,0-1.13l-5.07-5.07c-.31-.31-.81-.31-1.13,0-.31.31-.31.81,0,1.13l4.5,4.5-4.5,4.5c-.31.31-.31.81,0,1.13.31.31.81.31,1.13,0l5.07-5.07ZM726.64,708.83c0-.44-.36-.8-.8-.8s-.8.36-.8.8h1.59Z"/>
  <path class="st10" d="M810.75,639.57c6.59,0,11.94,5.35,11.94,11.94h1.59c0-7.47-6.06-13.53-13.53-13.53v1.59ZM822.69,660c0,7.47,6.06,13.53,13.53,13.53v-1.59c-6.59,0-11.94-5.35-11.94-11.94h-1.59ZM836.22,673.54h14.86v-1.59h-14.86v1.59ZM822.69,651.51v8.49h1.59v-8.49h-1.59ZM795.89,639.57h14.86v-1.59h-14.86v1.59ZM851.64,673.3c.31-.31.31-.81,0-1.13l-5.07-5.07c-.31-.31-.81-.31-1.13,0s-.31.81,0,1.13l4.5,4.5-4.5,4.5c-.31.31-.31.81,0,1.13s.81.31,1.13,0l5.07-5.07ZM795.89,637.98c-.44,0-.8.36-.8.8s.36.8.8.8v-1.59Z"/>
  <path class="st10" d="M938.1,813.63c7.47,0,13.53-6.06,13.53-13.53h-1.59c0,6.59-5.35,11.94-11.94,11.94v1.59ZM951.64,787.36c0-6.59,5.35-11.94,11.94-11.94v-1.59c-7.47,0-13.53,6.06-13.53,13.53h1.59ZM963.58,775.42h36.08v-1.59h-36.08v1.59ZM951.64,800.1v-12.74h-1.59v12.74h1.59ZM859.33,813.63h78.77v-1.59h-78.77v1.59ZM1000.22,775.19c.31-.31.31-.81,0-1.13l-5.07-5.07c-.31-.31-.81-.31-1.13,0s-.31.81,0,1.13l4.5,4.5-4.5,4.5c-.31.31-.31.81,0,1.13s.81.31,1.13,0l5.07-5.07ZM859.33,812.04c-.44,0-.8.36-.8.8s.36.8.8.8v-1.59Z"/>
  <path class="st10" d="M965.7,673.54c6.59,0,11.94,5.35,11.94,11.94h1.59c0-7.47-6.06-13.53-13.53-13.53v1.59ZM977.64,761.89c0,7.47,6.06,13.53,13.53,13.53v-1.59c-6.59,0-11.94-5.35-11.94-11.94h-1.59ZM991.17,775.42h8.49v-1.59h-8.49v1.59ZM977.64,685.48v76.42h1.59v-76.42h-1.59ZM957.21,673.54h8.49v-1.59h-8.49v1.59ZM1000.22,775.19c.31-.31.31-.81,0-1.13l-5.07-5.07c-.31-.31-.81-.31-1.13,0s-.31.81,0,1.13l4.5,4.5-4.5,4.5c-.31.31-.31.81,0,1.13s.81.31,1.13,0l5.07-5.07ZM957.21,671.94c-.44,0-.8.36-.8.8s.36.8.8.8v-1.59Z"/>
  <text class="st11" transform="translate(583.17 429.84)"><tspan x="0" y="0">Application</tspan></text>
  <text class="st2" transform="translate(418 60.66)"><tspan x="0" y="0">People who </tspan><tspan x="-7.91" y="15">own electronic </tspan><tspan x="-1.81" y="30">devices and </tspan><tspan x="-2.07" y="45">smart home </tspan><tspan x="9.48" y="60">devices</tspan></text>
  <text class="st1" transform="translate(183.62 362.48)"><tspan x="0" y="0">Technology</tspan></text>
  <text class="st1" transform="translate(280.94 516.11)"><tspan x="0" y="0">Economic </tspan><tspan x="8.85" y="15">Status</tspan></text>
  <text class="st1" transform="translate(286.67 651.96)"><tspan x="0" y="0">Carbon </tspan><tspan x="-5.52" y="15">Emissions</tspan></text>
  <text class="st1" transform="translate(396.93 744.37)"><tspan x="0" y="0">Mobile Phones</tspan></text>
  <text class="st1" transform="translate(779.3 779.24)"><tspan x="0" y="0">Household:</tspan><tspan x="1.85" y="15">TV, laptop, </tspan><tspan x="-6.86" y="30">smartphones, </tspan><tspan x="12.67" y="45">ipads, </tspan><tspan x="-3.71" y="60">smartwatch, </tspan><tspan x="14.16" y="75">alexa</tspan></text>
  <text class="st1" transform="translate(877.5 669.15)"><tspan x="0" y="0">Workplace </tspan><tspan x="-9.13" y="15">laptop and PC</tspan></text>
  <text class="st1" transform="translate(1060.5 489.84)"><tspan x="0" y="0">Weekly </tspan><tspan x="-1.08" y="15">contest</tspan></text>
  <text class="st1" transform="translate(1218.25 498.34)"><tspan x="0" y="0">Rewards</tspan></text>
  <text class="st1" transform="translate(1347.22 411.23)"><tspan x="0" y="0">Cashbacks</tspan></text>
  <text class="st1" transform="translate(1351.6 585.37)"><tspan x="0" y="0">Vouchers</tspan></text>
  <text class="st1" transform="translate(977.88 362.09)"><tspan x="0" y="0">Gamification</tspan></text>
  <text class="st1" transform="translate(1031.5 770.62)"><tspan x="0" y="0">Location</tspan><tspan x="-16.33" y="15">(Google Maps)</tspan></text>
  <text class="st1" transform="translate(550.61 808.04)"><tspan x="0" y="0">Smartwatch</tspan></text>
  <text class="st1" transform="translate(111.51 482.15)"><tspan x="0" y="0">Bluetooth </tspan><tspan x="-7.48" y="15">Connectivity</tspan></text>
  <text class="st1" transform="translate(30.3 362.48)"><tspan x="0" y="0">Device-charge</tspan></text>
  <text class="st2" transform="translate(344.91 227.03)"><tspan x="0" y="0">People who are </tspan><tspan x="1.01" y="15">eco-conscious</tspan></text>
  <text class="st4" transform="translate(519.23 217.98)"><tspan x="0" y="0">Intended Users</tspan></text>
  <text class="st7" transform="translate(716 234.27)"><tspan x="0" y="0">Design Features</tspan></text>
  <text class="st7" transform="translate(382.28 379.61)"><tspan x="0" y="0">Challenges</tspan></text>
  <text class="st7" transform="translate(526.04 643.22)"><tspan x="0" y="0">Notifications</tspan></text>
  <text class="st7" transform="translate(838.47 458.28)"><tspan x="0" y="0">How can we </tspan><tspan x="-14.93" y="15">encourage users </tspan><tspan x="17.94" y="30">to use</tspan></text>
  <text class="st7" transform="translate(699.28 635.72)"><tspan x="0" y="0">Different </tspan><tspan x="-7.43" y="15">Categories</tspan></text>
</svg>