<?xml version="1.0" encoding="UTF-8"?>
<svg id="Layer_1" xmlns="http://www.w3.org/2000/svg" version="1.1" viewBox="0 0 4009 2004">
  <!-- Generator: Adobe Illustrator 29.2.0, SVG Export Plug-In . SVG Version: 2.1.0 Build 108)  -->
  <defs>
    <style>
      .st0 {
        font-family: Poppins-Regular, Poppins;
        font-size: 47.99px;
      }

      .st1 {
        fill: #757575;
      }

      .st2 {
        fill: #fff;
        stroke: #535cd4;
        stroke-width: 6px;
      }
    </style>
  </defs>
  <path class="st1" d="M317.5,313.31c0-.83-.67-1.5-1.5-1.5s-1.5.67-1.5,1.5h3ZM314.94,422.37c.59.58,1.54.58,2.12,0l9.55-9.55c.58-.59.58-1.54,0-2.12-.59-.58-1.54-.58-2.12,0l-8.48,8.49-8.48-8.49c-.59-.58-1.54-.58-2.12,0-.58.59-.58,1.54,0,2.12l9.55,9.55ZM314.5,313.31v108h3v-108h-3Z"/>
  <path class="st1" d="M317.5,736.31c0-.83-.67-1.5-1.5-1.5s-1.5.67-1.5,1.5h3ZM314.94,845.37c.59.59,1.54.59,2.12,0l9.55-9.55c.58-.59.58-1.54,0-2.12-.59-.59-1.54-.59-2.12,0l-8.48,8.49-8.48-8.49c-.59-.59-1.54-.59-2.12,0-.58.59-.58,1.54,0,2.12l9.55,9.55ZM314.5,736.31v108h3v-108h-3Z"/>
  <path class="st1" d="M317.5,1157.31c0-.83-.67-1.5-1.5-1.5s-1.5.67-1.5,1.5h3ZM314.94,1270.37c.59.59,1.54.59,2.12,0l9.55-9.55c.58-.58.58-1.53,0-2.12-.59-.58-1.54-.58-2.12,0l-8.48,8.49-8.48-8.49c-.59-.58-1.54-.58-2.12,0-.58.59-.58,1.54,0,2.12l9.55,9.55ZM314.5,1157.31v112h3v-112h-3Z"/>
  <path class="st1" d="M317.5,1582.31c0-.83-.67-1.5-1.5-1.5s-1.5.67-1.5,1.5h3ZM314.94,1691.37c.59.59,1.54.59,2.12,0l9.55-9.55c.58-.58.58-1.53,0-2.12-.59-.58-1.54-.58-2.12,0l-8.48,8.49-8.48-8.49c-.59-.58-1.54-.58-2.12,0-.58.59-.58,1.54,0,2.12l9.55,9.55ZM314.5,1582.31v108h3v-108h-3Z"/>
  <path class="st1" d="M615,1846.81c-.83,0-1.5.67-1.5,1.5s.67,1.5,1.5,1.5v-3ZM688.06,1849.37c.59-.59.59-1.53,0-2.12l-9.55-9.55c-.59-.58-1.54-.58-2.12,0-.59.59-.59,1.54,0,2.12l8.49,8.49-8.49,8.49c-.59.58-.59,1.53,0,2.12.59.58,1.54.58,2.12,0l9.55-9.55ZM615,1849.81h72v-3h-72v3Z"/>
  <path class="st1" d="M608,150.81c-.83,0-1.5.67-1.5,1.5s.67,1.5,1.5,1.5v-3ZM702.06,153.37c.59-.59.59-1.54,0-2.12l-9.55-9.55c-.59-.59-1.54-.59-2.12,0-.59.59-.59,1.54,0,2.12l8.49,8.49-8.49,8.49c-.59.59-.59,1.54,0,2.12.59.59,1.54.59,2.12,0l9.55-9.55ZM608,153.81h93v-3h-93v3Z"/>
  <path class="st1" d="M1283.01,153.4c-.83,0-1.5.66-1.51,1.49-.01.83.66,1.51,1.49,1.51l.02-3ZM1377.05,156.8c.59-.58.6-1.53.02-2.12l-9.46-9.63c-.58-.59-1.53-.6-2.12-.02-.59.58-.6,1.53-.02,2.12l8.41,8.56-8.56,8.41c-.59.58-.6,1.53-.02,2.12.58.59,1.53.6,2.12.02l9.63-9.46ZM1282.99,156.4l93,.83.02-3-93-.83-.02,3Z"/>
  <path class="st1" d="M1663.5,316.31c0-.83-.67-1.5-1.5-1.5s-1.5.67-1.5,1.5h3ZM1660.94,419.37c.59.58,1.53.58,2.12,0l9.55-9.55c.58-.59.58-1.54,0-2.12-.59-.58-1.54-.58-2.12,0l-8.49,8.49-8.49-8.49c-.58-.58-1.53-.58-2.12,0-.58.59-.58,1.54,0,2.12l9.55,9.55ZM1660.5,316.31v102h3v-102h-3Z"/>
  <path class="st1" d="M1952,574.81c-.83,0-1.5.67-1.5,1.5s.67,1.5,1.5,1.5v-3ZM2619.94,843.37c.59.59,1.53.59,2.12,0l9.55-9.55c.58-.59.58-1.54,0-2.12-.59-.59-1.54-.59-2.12,0l-8.49,8.49-8.49-8.49c-.58-.59-1.53-.59-2.12,0-.58.59-.58,1.54,0,2.12l9.55,9.55ZM1952,577.81h645v-3h-645v3ZM2619.5,600.31v242h3v-242h-3ZM2597,577.81c12.43,0,22.5,10.07,22.5,22.5h3c0-14.08-11.42-25.5-25.5-25.5v3Z"/>
  <path class="st1" d="M966.5,1690.31c0,.83.67,1.5,1.5,1.5s1.5-.67,1.5-1.5h-3ZM2332.06,1001.37c.59-.59.59-1.53,0-2.12l-9.55-9.55c-.58-.59-1.53-.59-2.12,0-.58.59-.58,1.54,0,2.12l8.49,8.48-8.49,8.49c-.58.58-.58,1.53,0,2.12.59.58,1.54.58,2.12,0l9.55-9.55ZM969.5,1690.31v-666h-3v666h3ZM992,1001.81h1339v-3H992v3ZM969.5,1024.31c0-12.43,10.07-22.5,22.5-22.5v-3c-14.08,0-25.5,11.42-25.5,25.5h3Z"/>
  <path class="st1" d="M2622.5,1158.31c0-.83-.67-1.5-1.5-1.5s-1.5.67-1.5,1.5h3ZM1660.94,1748.37c.59.59,1.53.59,2.12,0l9.55-9.55c.58-.58.58-1.53,0-2.12-.59-.58-1.54-.58-2.12,0l-8.49,8.49-8.49-8.49c-.58-.58-1.53-.58-2.12,0-.58.59-.58,1.54,0,2.12l9.55,9.55ZM2619.5,1158.31v270.5h3v-270.5h-3ZM2597,1451.31h-911v3h911v-3ZM1660.5,1476.81v270.5h3v-270.5h-3ZM1686,1451.31c-14.08,0-25.5,11.42-25.5,25.5h3c0-12.43,10.07-22.5,22.5-22.5v-3ZM2619.5,1428.81c0,12.43-10.07,22.5-22.5,22.5v3c14.08,0,25.5-11.42,25.5-25.5h-3Z"/>
  <path class="st1" d="M2622.5,1158.31c0-.83-.67-1.5-1.5-1.5s-1.5.67-1.5,1.5h3ZM1660.94,1748.37c.59.59,1.53.59,2.12,0l9.55-9.55c.58-.58.58-1.53,0-2.12-.59-.58-1.54-.58-2.12,0l-8.49,8.49-8.49-8.49c-.58-.58-1.53-.58-2.12,0-.58.59-.58,1.54,0,2.12l9.55,9.55ZM2619.5,1158.31v270.5h3v-270.5h-3ZM2597,1451.31h-911v3h911v-3ZM1660.5,1476.81v270.5h3v-270.5h-3ZM1686,1451.31c-14.08,0-25.5,11.42-25.5,25.5h3c0-12.43,10.07-22.5,22.5-22.5v-3ZM2619.5,1428.81c0,12.43-10.07,22.5-22.5,22.5v3c14.08,0,25.5-11.42,25.5-25.5h-3Z"/>
  <path class="st1" d="M2622.5,1154.31c0-.83-.67-1.5-1.5-1.5s-1.5.67-1.5,1.5h3ZM2357.94,1748.37c.59.59,1.53.59,2.12,0l9.55-9.55c.58-.58.58-1.53,0-2.12-.59-.58-1.54-.58-2.12,0l-8.49,8.49-8.49-8.49c-.58-.58-1.53-.58-2.12,0-.58.59-.58,1.54,0,2.12l9.55,9.55ZM2619.5,1154.31v274.5h3v-274.5h-3ZM2597,1451.31h-214v3h214v-3ZM2357.5,1476.81v270.5h3v-270.5h-3ZM2383,1451.31c-14.08,0-25.5,11.42-25.5,25.5h3c0-12.43,10.07-22.5,22.5-22.5v-3ZM2619.5,1428.81c0,12.43-10.07,22.5-22.5,22.5v3c14.08,0,25.5-11.42,25.5-25.5h-3Z"/>
  <path class="st1" d="M2622.5,1154.31c0-.83-.67-1.5-1.5-1.5s-1.5.67-1.5,1.5h3ZM3054.94,1748.37c.59.59,1.53.59,2.12,0l9.55-9.55c.58-.58.58-1.53,0-2.12-.59-.58-1.54-.58-2.12,0l-8.49,8.49-8.49-8.49c-.58-.58-1.53-.58-2.12,0-.58.59-.58,1.54,0,2.12l9.55,9.55ZM2619.5,1154.31v274.5h3v-274.5h-3ZM2645,1454.31h387v-3h-387v3ZM3054.5,1476.81v270.5h3v-270.5h-3ZM3032,1454.31c12.43,0,22.5,10.07,22.5,22.5h3c0-14.08-11.42-25.5-25.5-25.5v3ZM2619.5,1428.81c0,14.08,11.42,25.5,25.5,25.5v-3c-12.43,0-22.5-10.07-22.5-22.5h-3Z"/>
  <path class="st1" d="M1956,156.81c-.83,0-1.5.67-1.5,1.5s.67,1.5,1.5,1.5v-3ZM2054.06,159.37c.59-.59.59-1.54,0-2.12l-9.55-9.55c-.58-.59-1.53-.59-2.12,0-.58.59-.58,1.54,0,2.12l8.49,8.49-8.49,8.49c-.58.59-.58,1.54,0,2.12.59.59,1.54.59,2.12,0l9.55-9.55ZM1956,159.81h97v-3h-97v3Z"/>
  <path class="st1" d="M2634,156.81c-.83,0-1.5.67-1.5,1.5s.67,1.5,1.5,1.5v-3ZM2728.06,159.37c.59-.59.59-1.54,0-2.12l-9.55-9.55c-.58-.59-1.53-.59-2.12,0-.58.59-.58,1.54,0,2.12l8.49,8.49-8.49,8.49c-.58.59-.58,1.54,0,2.12.59.59,1.54.59,2.12,0l9.55-9.55ZM2634,159.81h93v-3h-93v3Z"/>
  <path class="st1" d="M3309,156.81c-.83,0-1.5.67-1.5,1.5s.67,1.5,1.5,1.5v-3ZM3403.06,159.37c.59-.59.59-1.54,0-2.12l-9.55-9.55c-.58-.59-1.53-.59-2.12,0-.58.59-.58,1.54,0,2.12l8.49,8.49-8.49,8.49c-.58.59-.58,1.54,0,2.12.59.59,1.54.59,2.12,0l9.55-9.55ZM3309,159.81h93v-3h-93v3Z"/>
  <path class="st1" d="M3682.5,316.31c0-.83-.67-1.5-1.5-1.5s-1.5.67-1.5,1.5h3ZM3679.94,419.37c.59.58,1.53.58,2.12,0l9.55-9.55c.58-.59.58-1.54,0-2.12-.59-.58-1.54-.58-2.12,0l-8.49,8.49-8.49-8.49c-.58-.58-1.53-.58-2.12,0-.58.59-.58,1.54,0,2.12l9.55,9.55ZM3679.5,316.31v102h3v-102h-3Z"/>
  <path class="st1" d="M3682.5,736.31c0-.83-.67-1.5-1.5-1.5s-1.5.67-1.5,1.5h3ZM3679.94,845.37c.59.59,1.53.59,2.12,0l9.55-9.55c.58-.59.58-1.54,0-2.12-.59-.59-1.54-.59-2.12,0l-8.49,8.49-8.49-8.49c-.58-.59-1.53-.59-2.12,0-.58.59-.58,1.54,0,2.12l9.55,9.55ZM3679.5,736.31v108h3v-108h-3Z"/>
  <path class="st1" d="M2622.5,1158.31c0-.83-.67-1.5-1.5-1.5s-1.5.67-1.5,1.5h3ZM3751.94,1748.37c.59.59,1.53.59,2.12,0l9.55-9.55c.58-.58.58-1.53,0-2.12-.59-.58-1.54-.58-2.12,0l-8.49,8.49-8.49-8.49c-.58-.58-1.53-.58-2.12,0-.58.59-.58,1.54,0,2.12l9.55,9.55ZM2619.5,1158.31v270.5h3v-270.5h-3ZM2645,1454.31h1084v-3h-1084v3ZM3751.5,1476.81v270.5h3v-270.5h-3ZM3729,1454.31c12.43,0,22.5,10.07,22.5,22.5h3c0-14.08-11.42-25.5-25.5-25.5v3ZM2619.5,1428.81c0,14.08,11.42,25.5,25.5,25.5v-3c-12.43,0-22.5-10.07-22.5-22.5h-3Z"/>
  <rect class="st2" x="1384.5" y="1760.05" width="566" height="176" rx="53" ry="53"/>
  <text class="st0" transform="translate(1570.59 1865.8)"><tspan x="0" y="0">Sunlight</tspan></text>
  <rect class="st2" x="2077.5" y="1760.05" width="566" height="176" rx="53" ry="53"/>
  <text class="st0" transform="translate(2238.54 1865.8)"><tspan x="0" y="0">Air Quality</tspan></text>
  <rect class="st2" x="2773.75" y="1760.05" width="566" height="176" rx="53" ry="53"/>
  <text class="st0" transform="translate(2949.81 1865.8)"><tspan x="0" y="0">Humidity</tspan></text>
  <rect class="st2" x="3409.2" y="1760.05" width="566" height="176" rx="53" ry="53"/>
  <text class="st0" transform="translate(3535.45 1865.8)"><tspan x="0" y="0">Temperature</tspan></text>
  <rect class="st2" x="2336" y="850.77" width="566" height="302" rx="53" ry="53"/>
  <text class="st0" transform="translate(2416.5 990.73)"><tspan x="0" y="0">Factors affecting </tspan><tspan x="49.38" y="57.58">plant growth</tspan></text>
  <rect class="st2" x="3409.84" y="428.21" width="566" height="302" rx="53" ry="53"/>
  <text class="st0" transform="translate(3472.92 568.18)"><tspan x="0" y="0">Buys plants based </tspan><tspan x="49.74" y="57.58">on suggestion</tspan></text>
  <rect class="st2" x="3409.84" y="850.56" width="566" height="302" rx="53" ry="53"/>
  <text class="st0" transform="translate(3544.95 990.53)"><tspan x="0" y="0">Keeps it at a </tspan><tspan x="-22.03" y="57.58">suitable place</tspan></text>
  <rect class="st2" x="1383.83" y="428.48" width="566" height="302" rx="53" ry="53"/>
  <text class="st0" transform="translate(1467.78 597.24)"><tspan x="0" y="0">Knowledge Body</tspan></text>
  <rect class="st2" x="707.73" y="1697.31" width="566" height="302" rx="53" ry="53"/>
  <text class="st0" transform="translate(770.33 1866.07)"><tspan x="0" y="0">Lack of knowledge</tspan></text>
  <rect class="st2" x="33.16" y="1697.31" width="566" height="302" rx="53" ry="53"/>
  <text class="st0" transform="translate(143.07 1837.28)"><tspan x="0" y="0">Wonders what</tspan><tspan x="32.49" y="57.58">went wrong</tspan></text>
  <rect class="st2" x="33.16" y="427.84" width="566" height="302" rx="53" ry="53"/>
  <text class="st0" transform="translate(117.21 596.6)"><tspan x="0" y="0">Buy potted plant</tspan></text>
  <rect class="st2" x="33.16" y="851" width="566" height="302" rx="53" ry="53"/>
  <text class="st0" transform="translate(163.15 990.96)"><tspan x="0" y="0">Places it at a </tspan><tspan x="-18" y="57.58">random place</tspan></text>
  <rect class="st2" x="33.16" y="1274.16" width="566" height="302" rx="53" ry="53"/>
  <text class="st0" transform="translate(111.69 1442.91)"><tspan x="0" y="0">The plant withers</tspan></text>
  <rect class="st2" x="33.16" y="4.69" width="566" height="302" rx="53" ry="53"/>
  <text class="st0" transform="translate(131.53 144.65)"><tspan x="0" y="0">User decides to </tspan><tspan x="43.07" y="57.58">grow plants</tspan></text>
  <rect class="st2" x="708.5" y="4.69" width="566" height="302" rx="53" ry="53"/>
  <text class="st0" transform="translate(782.61 173.44)"><tspan x="0" y="0">Research’s online</tspan></text>
  <rect class="st2" x="2059.17" y="4.69" width="566" height="302" rx="53" ry="53"/>
  <text class="st0" transform="translate(2196.87 173.44)"><tspan x="0" y="0">Purchases it</tspan></text>
  <rect class="st2" x="2734.5" y="4.69" width="566" height="302" rx="53" ry="53"/>
  <text class="st0" transform="translate(2780.57 144.65)"><tspan x="0" y="0">Places it at planned </tspan><tspan x="16.24" y="57.58">place in the house</tspan></text>
  <rect class="st2" x="3409.84" y="4.69" width="566" height="302" rx="53" ry="53"/>
  <text class="st0" transform="translate(3505.14 144.65)"><tspan x="0" y="0">Leaflink collects </tspan><tspan x="-29.32" y="57.58">and displays data</tspan></text>
  <rect class="st2" x="1383.83" y="4.69" width="566" height="302" rx="53" ry="53"/>
  <text class="st0" transform="translate(1494.3 144.65)"><tspan x="0" y="0">Comes across </tspan><tspan x="83.66" y="57.58">Leaflink</tspan></text>
</svg>