<svg width="360" height="800" viewBox="0 0 360 800" fill="none" xmlns="http://www.w3.org/2000/svg">
<rect width="360" height="800" fill="#F6F6F8"/>
<rect width="360" height="71" transform="translate(0 729)" fill="#DBDBDB"/>
<circle cx="180" cy="764" r="20" fill="#BEBEBE"/>
<circle cx="290" cy="764" r="20" fill="#BEBEBE"/>
<circle cx="71" cy="764" r="20" fill="#BEBEBE"/>
<circle cx="320" cy="50" r="25" fill="#D9D9D9"/>
<line x1="15.5" y1="44.5" x2="33.5" y2="44.5" stroke="black" stroke-linecap="round"/>
<line x1="15.5" y1="49.5" x2="33.5" y2="49.5" stroke="black" stroke-linecap="round"/>
<line x1="15.5" y1="54.5" x2="33.5" y2="54.5" stroke="black" stroke-linecap="round"/>
<rect x="15" y="318" width="330" height="298" rx="8" fill="#E7E6E6"/>
<rect x="269" y="181" width="75" height="75" rx="8" fill="#D9D9D9"/>
<path d="M19.18 117.78H23.78V120H16.38V106.04H19.18V117.78ZM30.4797 120.18C29.413 120.18 28.453 119.947 27.5997 119.48C26.7464 119 26.073 118.327 25.5797 117.46C25.0997 116.593 24.8597 115.593 24.8597 114.46C24.8597 113.327 25.1064 112.327 25.5997 111.46C26.1064 110.593 26.793 109.927 27.6597 109.46C28.5264 108.98 29.493 108.74 30.5597 108.74C31.6264 108.74 32.593 108.98 33.4597 109.46C34.3264 109.927 35.0064 110.593 35.4997 111.46C36.0064 112.327 36.2597 113.327 36.2597 114.46C36.2597 115.593 35.9997 116.593 35.4797 117.46C34.973 118.327 34.2797 119 33.3997 119.48C32.533 119.947 31.5597 120.18 30.4797 120.18ZM30.4797 117.74C30.9864 117.74 31.4597 117.62 31.8997 117.38C32.353 117.127 32.713 116.753 32.9797 116.26C33.2464 115.767 33.3797 115.167 33.3797 114.46C33.3797 113.407 33.0997 112.6 32.5397 112.04C31.993 111.467 31.3197 111.18 30.5197 111.18C29.7197 111.18 29.0464 111.467 28.4997 112.04C27.9664 112.6 27.6997 113.407 27.6997 114.46C27.6997 115.513 27.9597 116.327 28.4797 116.9C29.013 117.46 29.6797 117.74 30.4797 117.74ZM41.1136 110.64C41.4736 110.053 41.9403 109.593 42.5136 109.26C43.1003 108.927 43.7669 108.76 44.5136 108.76V111.7H43.7736C42.8936 111.7 42.2269 111.907 41.7736 112.32C41.3336 112.733 41.1136 113.453 41.1136 114.48V120H38.3136V108.92H41.1136V110.64ZM56.6995 114.22C56.6995 114.62 56.6729 114.98 56.6195 115.3H48.5195C48.5862 116.1 48.8662 116.727 49.3595 117.18C49.8529 117.633 50.4595 117.86 51.1795 117.86C52.2195 117.86 52.9595 117.413 53.3995 116.52H56.4195C56.0995 117.587 55.4862 118.467 54.5795 119.16C53.6729 119.84 52.5595 120.18 51.2395 120.18C50.1729 120.18 49.2129 119.947 48.3595 119.48C47.5195 119 46.8595 118.327 46.3795 117.46C45.9129 116.593 45.6795 115.593 45.6795 114.46C45.6795 113.313 45.9129 112.307 46.3795 111.44C46.8462 110.573 47.4995 109.907 48.3395 109.44C49.1795 108.973 50.1462 108.74 51.2395 108.74C52.2929 108.74 53.2329 108.967 54.0595 109.42C54.8995 109.873 55.5462 110.52 55.9995 111.36C56.4662 112.187 56.6995 113.14 56.6995 114.22ZM53.7995 113.42C53.7862 112.7 53.5262 112.127 53.0195 111.7C52.5129 111.26 51.8929 111.04 51.1595 111.04C50.4662 111.04 49.8795 111.253 49.3995 111.68C48.9329 112.093 48.6462 112.673 48.5395 113.42H53.7995ZM72.5033 108.76C73.8633 108.76 74.9566 109.18 75.7833 110.02C76.6233 110.847 77.0433 112.007 77.0433 113.5V120H74.2433V113.88C74.2433 113.013 74.0233 112.353 73.5833 111.9C73.1433 111.433 72.5433 111.2 71.7833 111.2C71.0233 111.2 70.4166 111.433 69.9633 111.9C69.5233 112.353 69.3033 113.013 69.3033 113.88V120H66.5033V113.88C66.5033 113.013 66.2833 112.353 65.8433 111.9C65.4033 111.433 64.8033 111.2 64.0433 111.2C63.2699 111.2 62.6566 111.433 62.2033 111.9C61.7633 112.353 61.5433 113.013 61.5433 113.88V120H58.7433V108.92H61.5433V110.26C61.9033 109.793 62.3633 109.427 62.9233 109.16C63.4966 108.893 64.1233 108.76 64.8033 108.76C65.6699 108.76 66.4433 108.947 67.1233 109.32C67.8033 109.68 68.3299 110.2 68.7033 110.88C69.0633 110.24 69.5833 109.727 70.2633 109.34C70.9566 108.953 71.7033 108.76 72.5033 108.76ZM87.2659 106.04V120H84.4659V106.04H87.2659ZM92.8323 110.52C93.1923 110.013 93.6857 109.593 94.3123 109.26C94.9523 108.913 95.679 108.74 96.4923 108.74C97.439 108.74 98.2923 108.973 99.0523 109.44C99.8257 109.907 100.432 110.573 100.872 111.44C101.326 112.293 101.552 113.287 101.552 114.42C101.552 115.553 101.326 116.56 100.872 117.44C100.432 118.307 99.8257 118.98 99.0523 119.46C98.2923 119.94 97.439 120.18 96.4923 120.18C95.679 120.18 94.959 120.013 94.3323 119.68C93.719 119.347 93.219 118.927 92.8323 118.42V125.28H90.0323V108.92H92.8323V110.52ZM98.6923 114.42C98.6923 113.753 98.5523 113.18 98.2723 112.7C98.0057 112.207 97.6457 111.833 97.1923 111.58C96.7523 111.327 96.2723 111.2 95.7523 111.2C95.2457 111.2 94.7657 111.333 94.3123 111.6C93.8723 111.853 93.5123 112.227 93.2323 112.72C92.9657 113.213 92.8323 113.793 92.8323 114.46C92.8323 115.127 92.9657 115.707 93.2323 116.2C93.5123 116.693 93.8723 117.073 94.3123 117.34C94.7657 117.593 95.2457 117.72 95.7523 117.72C96.2723 117.72 96.7523 117.587 97.1923 117.32C97.6457 117.053 98.0057 116.673 98.2723 116.18C98.5523 115.687 98.6923 115.1 98.6923 114.42ZM107.827 120.18C106.92 120.18 106.107 120.02 105.387 119.7C104.667 119.367 104.094 118.92 103.667 118.36C103.254 117.8 103.027 117.18 102.987 116.5H105.807C105.86 116.927 106.067 117.28 106.427 117.56C106.8 117.84 107.26 117.98 107.807 117.98C108.34 117.98 108.754 117.873 109.047 117.66C109.354 117.447 109.507 117.173 109.507 116.84C109.507 116.48 109.32 116.213 108.947 116.04C108.587 115.853 108.007 115.653 107.207 115.44C106.38 115.24 105.7 115.033 105.167 114.82C104.647 114.607 104.194 114.28 103.807 113.84C103.434 113.4 103.247 112.807 103.247 112.06C103.247 111.447 103.42 110.887 103.767 110.38C104.127 109.873 104.634 109.473 105.287 109.18C105.954 108.887 106.734 108.74 107.627 108.74C108.947 108.74 110 109.073 110.787 109.74C111.574 110.393 112.007 111.28 112.087 112.4H109.407C109.367 111.96 109.18 111.613 108.847 111.36C108.527 111.093 108.094 110.96 107.547 110.96C107.04 110.96 106.647 111.053 106.367 111.24C106.1 111.427 105.967 111.687 105.967 112.02C105.967 112.393 106.154 112.68 106.527 112.88C106.9 113.067 107.48 113.26 108.267 113.46C109.067 113.66 109.727 113.867 110.247 114.08C110.767 114.293 111.214 114.627 111.587 115.08C111.974 115.52 112.174 116.107 112.187 116.84C112.187 117.48 112.007 118.053 111.647 118.56C111.3 119.067 110.794 119.467 110.127 119.76C109.474 120.04 108.707 120.18 107.827 120.18ZM124.945 108.92V120H122.125V118.6C121.765 119.08 121.292 119.46 120.705 119.74C120.132 120.007 119.505 120.14 118.825 120.14C117.959 120.14 117.192 119.96 116.525 119.6C115.859 119.227 115.332 118.687 114.945 117.98C114.572 117.26 114.385 116.407 114.385 115.42V108.92H117.185V115.02C117.185 115.9 117.405 116.58 117.845 117.06C118.285 117.527 118.885 117.76 119.645 117.76C120.419 117.76 121.025 117.527 121.465 117.06C121.905 116.58 122.125 115.9 122.125 115.02V108.92H124.945ZM141.468 108.76C142.828 108.76 143.921 109.18 144.748 110.02C145.588 110.847 146.008 112.007 146.008 113.5V120H143.208V113.88C143.208 113.013 142.988 112.353 142.548 111.9C142.108 111.433 141.508 111.2 140.748 111.2C139.988 111.2 139.381 111.433 138.928 111.9C138.488 112.353 138.268 113.013 138.268 113.88V120H135.468V113.88C135.468 113.013 135.248 112.353 134.808 111.9C134.368 111.433 133.768 111.2 133.008 111.2C132.235 111.2 131.621 111.433 131.168 111.9C130.728 112.353 130.508 113.013 130.508 113.88V120H127.708V108.92H130.508V110.26C130.868 109.793 131.328 109.427 131.888 109.16C132.461 108.893 133.088 108.76 133.768 108.76C134.635 108.76 135.408 108.947 136.088 109.32C136.768 109.68 137.295 110.2 137.668 110.88C138.028 110.24 138.548 109.727 139.228 109.34C139.921 108.953 140.668 108.76 141.468 108.76ZM158.311 106.04C159.777 106.04 161.064 106.327 162.171 106.9C163.291 107.473 164.151 108.293 164.751 109.36C165.364 110.413 165.671 111.64 165.671 113.04C165.671 114.44 165.364 115.667 164.751 116.72C164.151 117.76 163.291 118.567 162.171 119.14C161.064 119.713 159.777 120 158.311 120H153.431V106.04H158.311ZM158.211 117.62C159.677 117.62 160.811 117.22 161.611 116.42C162.411 115.62 162.811 114.493 162.811 113.04C162.811 111.587 162.411 110.453 161.611 109.64C160.811 108.813 159.677 108.4 158.211 108.4H156.231V117.62H158.211ZM172.687 120.18C171.62 120.18 170.66 119.947 169.807 119.48C168.953 119 168.28 118.327 167.787 117.46C167.307 116.593 167.067 115.593 167.067 114.46C167.067 113.327 167.313 112.327 167.807 111.46C168.313 110.593 169 109.927 169.867 109.46C170.733 108.98 171.7 108.74 172.767 108.74C173.833 108.74 174.8 108.98 175.667 109.46C176.533 109.927 177.213 110.593 177.707 111.46C178.213 112.327 178.467 113.327 178.467 114.46C178.467 115.593 178.207 116.593 177.687 117.46C177.18 118.327 176.487 119 175.607 119.48C174.74 119.947 173.767 120.18 172.687 120.18ZM172.687 117.74C173.193 117.74 173.667 117.62 174.107 117.38C174.56 117.127 174.92 116.753 175.187 116.26C175.453 115.767 175.587 115.167 175.587 114.46C175.587 113.407 175.307 112.6 174.747 112.04C174.2 111.467 173.527 111.18 172.727 111.18C171.927 111.18 171.253 111.467 170.707 112.04C170.173 112.6 169.907 113.407 169.907 114.46C169.907 115.513 170.167 116.327 170.687 116.9C171.22 117.46 171.887 117.74 172.687 117.74ZM183.321 105.2V120H180.521V105.2H183.321ZM191.007 120.18C189.94 120.18 188.98 119.947 188.127 119.48C187.274 119 186.6 118.327 186.107 117.46C185.627 116.593 185.387 115.593 185.387 114.46C185.387 113.327 185.634 112.327 186.127 111.46C186.634 110.593 187.32 109.927 188.187 109.46C189.054 108.98 190.02 108.74 191.087 108.74C192.154 108.74 193.12 108.98 193.987 109.46C194.854 109.927 195.534 110.593 196.027 111.46C196.534 112.327 196.787 113.327 196.787 114.46C196.787 115.593 196.527 116.593 196.007 117.46C195.5 118.327 194.807 119 193.927 119.48C193.06 119.947 192.087 120.18 191.007 120.18ZM191.007 117.74C191.514 117.74 191.987 117.62 192.427 117.38C192.88 117.127 193.24 116.753 193.507 116.26C193.774 115.767 193.907 115.167 193.907 114.46C193.907 113.407 193.627 112.6 193.067 112.04C192.52 111.467 191.847 111.18 191.047 111.18C190.247 111.18 189.574 111.467 189.027 112.04C188.494 112.6 188.227 113.407 188.227 114.46C188.227 115.513 188.487 116.327 189.007 116.9C189.54 117.46 190.207 117.74 191.007 117.74ZM201.641 110.64C202.001 110.053 202.468 109.593 203.041 109.26C203.628 108.927 204.294 108.76 205.041 108.76V111.7H204.301C203.421 111.7 202.754 111.907 202.301 112.32C201.861 112.733 201.641 113.453 201.641 114.48V120H198.841V108.92H201.641V110.64Z" fill="black"/>
<path d="M18.024 163.528H21.784V165H16.2V153.88H18.024V163.528ZM27.1334 165.144C26.3014 165.144 25.5494 164.957 24.8774 164.584C24.2054 164.2 23.6774 163.667 23.2934 162.984C22.9094 162.291 22.7174 161.491 22.7174 160.584C22.7174 159.688 22.9147 158.893 23.3094 158.2C23.704 157.507 24.2427 156.973 24.9254 156.6C25.608 156.227 26.3707 156.04 27.2134 156.04C28.056 156.04 28.8187 156.227 29.5014 156.6C30.184 156.973 30.7227 157.507 31.1174 158.2C31.512 158.893 31.7094 159.688 31.7094 160.584C31.7094 161.48 31.5067 162.275 31.1014 162.968C30.696 163.661 30.1414 164.2 29.4374 164.584C28.744 164.957 27.976 165.144 27.1334 165.144ZM27.1334 163.56C27.6027 163.56 28.04 163.448 28.4454 163.224C28.8614 163 29.1974 162.664 29.4534 162.216C29.7094 161.768 29.8374 161.224 29.8374 160.584C29.8374 159.944 29.7147 159.405 29.4694 158.968C29.224 158.52 28.8987 158.184 28.4934 157.96C28.088 157.736 27.6507 157.624 27.1814 157.624C26.712 157.624 26.2747 157.736 25.8694 157.96C25.4747 158.184 25.16 158.52 24.9254 158.968C24.6907 159.405 24.5734 159.944 24.5734 160.584C24.5734 161.533 24.8134 162.269 25.2934 162.792C25.784 163.304 26.3974 163.56 27.1334 163.56ZM35.3365 157.464C35.6032 157.016 35.9552 156.669 36.3925 156.424C36.8405 156.168 37.3685 156.04 37.9765 156.04V157.928H37.5125C36.7978 157.928 36.2538 158.109 35.8805 158.472C35.5178 158.835 35.3365 159.464 35.3365 160.36V165H33.5125V156.184H35.3365V157.464ZM47.7331 160.376C47.7331 160.707 47.7118 161.005 47.6691 161.272H40.9331C40.9865 161.976 41.2478 162.541 41.7171 162.968C42.1865 163.395 42.7625 163.608 43.4451 163.608C44.4265 163.608 45.1198 163.197 45.5251 162.376H47.4931C47.2265 163.187 46.7411 163.853 46.0371 164.376C45.3438 164.888 44.4798 165.144 43.4451 165.144C42.6025 165.144 41.8451 164.957 41.1731 164.584C40.5118 164.2 39.9891 163.667 39.6051 162.984C39.2318 162.291 39.0451 161.491 39.0451 160.584C39.0451 159.677 39.2265 158.883 39.5891 158.2C39.9625 157.507 40.4798 156.973 41.1411 156.6C41.8131 156.227 42.5811 156.04 43.4451 156.04C44.2771 156.04 45.0185 156.221 45.6691 156.584C46.3198 156.947 46.8265 157.459 47.1891 158.12C47.5518 158.771 47.7331 159.523 47.7331 160.376ZM45.8291 159.8C45.8185 159.128 45.5785 158.589 45.1091 158.184C44.6398 157.779 44.0585 157.576 43.3651 157.576C42.7358 157.576 42.1971 157.779 41.7491 158.184C41.3011 158.579 41.0345 159.117 40.9491 159.8H45.8291ZM60.2001 156.04C60.8935 156.04 61.5121 156.184 62.0561 156.472C62.6108 156.76 63.0428 157.187 63.3521 157.752C63.6721 158.317 63.8321 159 63.8321 159.8V165H62.0241V160.072C62.0241 159.283 61.8268 158.68 61.4321 158.264C61.0375 157.837 60.4988 157.624 59.8161 157.624C59.1335 157.624 58.5895 157.837 58.1841 158.264C57.7895 158.68 57.5921 159.283 57.5921 160.072V165H55.7841V160.072C55.7841 159.283 55.5868 158.68 55.1921 158.264C54.7975 157.837 54.2588 157.624 53.5761 157.624C52.8935 157.624 52.3495 157.837 51.9441 158.264C51.5495 158.68 51.3521 159.283 51.3521 160.072V165H49.5281V156.184H51.3521V157.192C51.6508 156.829 52.0295 156.547 52.4881 156.344C52.9468 156.141 53.4375 156.04 53.9601 156.04C54.6641 156.04 55.2935 156.189 55.8481 156.488C56.4028 156.787 56.8295 157.219 57.1281 157.784C57.3948 157.251 57.8108 156.829 58.3761 156.52C58.9415 156.2 59.5495 156.04 60.2001 156.04ZM72.1334 153.88V165H70.3094V153.88H72.1334ZM76.3521 157.48C76.6615 157.075 77.0828 156.733 77.6161 156.456C78.1495 156.179 78.7521 156.04 79.4241 156.04C80.1921 156.04 80.8908 156.232 81.5201 156.616C82.1601 156.989 82.6615 157.517 83.0241 158.2C83.3868 158.883 83.5681 159.667 83.5681 160.552C83.5681 161.437 83.3868 162.232 83.0241 162.936C82.6615 163.629 82.1601 164.173 81.5201 164.568C80.8908 164.952 80.1921 165.144 79.4241 165.144C78.7521 165.144 78.1548 165.011 77.6321 164.744C77.1095 164.467 76.6828 164.125 76.3521 163.72V169.192H74.5281V156.184H76.3521V157.48ZM81.7121 160.552C81.7121 159.944 81.5841 159.421 81.3281 158.984C81.0828 158.536 80.7521 158.2 80.3361 157.976C79.9308 157.741 79.4935 157.624 79.0241 157.624C78.5655 157.624 78.1281 157.741 77.7121 157.976C77.3068 158.211 76.9761 158.552 76.7201 159C76.4748 159.448 76.3521 159.976 76.3521 160.584C76.3521 161.192 76.4748 161.725 76.7201 162.184C76.9761 162.632 77.3068 162.973 77.7121 163.208C78.1281 163.443 78.5655 163.56 79.0241 163.56C79.4935 163.56 79.9308 163.443 80.3361 163.208C80.7521 162.963 81.0828 162.611 81.3281 162.152C81.5841 161.693 81.7121 161.16 81.7121 160.552ZM88.5719 165.144C87.8785 165.144 87.2545 165.021 86.6999 164.776C86.1559 164.52 85.7239 164.179 85.4039 163.752C85.0839 163.315 84.9132 162.829 84.8919 162.296H86.7799C86.8119 162.669 86.9879 162.984 87.3079 163.24C87.6385 163.485 88.0492 163.608 88.5399 163.608C89.0519 163.608 89.4465 163.512 89.7239 163.32C90.0119 163.117 90.1559 162.861 90.1559 162.552C90.1559 162.221 89.9959 161.976 89.6759 161.816C89.3665 161.656 88.8705 161.48 88.1879 161.288C87.5265 161.107 86.9879 160.931 86.5719 160.76C86.1559 160.589 85.7932 160.328 85.4839 159.976C85.1852 159.624 85.0359 159.16 85.0359 158.584C85.0359 158.115 85.1745 157.688 85.4519 157.304C85.7292 156.909 86.1239 156.6 86.6359 156.376C87.1585 156.152 87.7559 156.04 88.4279 156.04C89.4305 156.04 90.2359 156.296 90.8439 156.808C91.4625 157.309 91.7932 157.997 91.8359 158.872H90.0119C89.9799 158.477 89.8199 158.163 89.5319 157.928C89.2439 157.693 88.8545 157.576 88.3639 157.576C87.8839 157.576 87.5159 157.667 87.2599 157.848C87.0039 158.029 86.8759 158.269 86.8759 158.568C86.8759 158.803 86.9612 159 87.1319 159.16C87.3025 159.32 87.5105 159.448 87.7559 159.544C88.0012 159.629 88.3639 159.741 88.8439 159.88C89.4839 160.051 90.0065 160.227 90.4119 160.408C90.8279 160.579 91.1852 160.835 91.4839 161.176C91.7825 161.517 91.9372 161.971 91.9479 162.536C91.9479 163.037 91.8092 163.485 91.5319 163.88C91.2545 164.275 90.8599 164.584 90.3479 164.808C89.8465 165.032 89.2545 165.144 88.5719 165.144ZM101.903 156.184V165H100.079V163.96C99.7908 164.323 99.4121 164.611 98.9428 164.824C98.4841 165.027 97.9934 165.128 97.4708 165.128C96.7774 165.128 96.1534 164.984 95.5988 164.696C95.0548 164.408 94.6228 163.981 94.3028 163.416C93.9934 162.851 93.8388 162.168 93.8388 161.368V156.184H95.6468V161.096C95.6468 161.885 95.8441 162.493 96.2388 162.92C96.6334 163.336 97.1721 163.544 97.8548 163.544C98.5374 163.544 99.0761 163.336 99.4708 162.92C99.8761 162.493 100.079 161.885 100.079 161.096V156.184H101.903ZM114.981 156.04C115.675 156.04 116.293 156.184 116.837 156.472C117.392 156.76 117.824 157.187 118.133 157.752C118.453 158.317 118.613 159 118.613 159.8V165H116.805V160.072C116.805 159.283 116.608 158.68 116.213 158.264C115.819 157.837 115.28 157.624 114.597 157.624C113.915 157.624 113.371 157.837 112.965 158.264C112.571 158.68 112.373 159.283 112.373 160.072V165H110.565V160.072C110.565 159.283 110.368 158.68 109.973 158.264C109.579 157.837 109.04 157.624 108.357 157.624C107.675 157.624 107.131 157.837 106.725 158.264C106.331 158.68 106.133 159.283 106.133 160.072V165H104.309V156.184H106.133V157.192C106.432 156.829 106.811 156.547 107.269 156.344C107.728 156.141 108.219 156.04 108.741 156.04C109.445 156.04 110.075 156.189 110.629 156.488C111.184 156.787 111.611 157.219 111.909 157.784C112.176 157.251 112.592 156.829 113.157 156.52C113.723 156.2 114.331 156.04 114.981 156.04Z" fill="black"/>
<path d="M21.8021 268.26H24.2421V269H20.8921V262.03H21.8021V268.26ZM27.5985 269.09C27.0851 269.09 26.6185 268.973 26.1985 268.74C25.7851 268.507 25.4585 268.177 25.2185 267.75C24.9851 267.317 24.8685 266.817 24.8685 266.25C24.8685 265.69 24.9885 265.197 25.2285 264.77C25.4751 264.337 25.8085 264.007 26.2285 263.78C26.6485 263.547 27.1185 263.43 27.6385 263.43C28.1585 263.43 28.6285 263.547 29.0485 263.78C29.4685 264.007 29.7985 264.333 30.0385 264.76C30.2851 265.187 30.4085 265.683 30.4085 266.25C30.4085 266.817 30.2818 267.317 30.0285 267.75C29.7818 268.177 29.4451 268.507 29.0185 268.74C28.5918 268.973 28.1185 269.09 27.5985 269.09ZM27.5985 268.29C27.9251 268.29 28.2318 268.213 28.5185 268.06C28.8051 267.907 29.0351 267.677 29.2085 267.37C29.3885 267.063 29.4785 266.69 29.4785 266.25C29.4785 265.81 29.3918 265.437 29.2185 265.13C29.0451 264.823 28.8185 264.597 28.5385 264.45C28.2585 264.297 27.9551 264.22 27.6285 264.22C27.2951 264.22 26.9885 264.297 26.7085 264.45C26.4351 264.597 26.2151 264.823 26.0485 265.13C25.8818 265.437 25.7985 265.81 25.7985 266.25C25.7985 266.697 25.8785 267.073 26.0385 267.38C26.2051 267.687 26.4251 267.917 26.6985 268.07C26.9718 268.217 27.2718 268.29 27.5985 268.29ZM32.515 264.41C32.675 264.097 32.9016 263.853 33.195 263.68C33.495 263.507 33.8583 263.42 34.285 263.42V264.36H34.045C33.025 264.36 32.515 264.913 32.515 266.02V269H31.605V263.52H32.515V264.41ZM40.3354 266.05C40.3354 266.223 40.3254 266.407 40.3054 266.6H35.9254C35.9588 267.14 36.1421 267.563 36.4754 267.87C36.8154 268.17 37.2254 268.32 37.7054 268.32C38.0988 268.32 38.4254 268.23 38.6854 268.05C38.9521 267.863 39.1388 267.617 39.2454 267.31H40.2254C40.0788 267.837 39.7854 268.267 39.3454 268.6C38.9054 268.927 38.3588 269.09 37.7054 269.09C37.1854 269.09 36.7188 268.973 36.3054 268.74C35.8988 268.507 35.5788 268.177 35.3454 267.75C35.1121 267.317 34.9954 266.817 34.9954 266.25C34.9954 265.683 35.1088 265.187 35.3354 264.76C35.5621 264.333 35.8788 264.007 36.2854 263.78C36.6988 263.547 37.1721 263.43 37.7054 263.43C38.2254 263.43 38.6854 263.543 39.0854 263.77C39.4854 263.997 39.7921 264.31 40.0054 264.71C40.2254 265.103 40.3354 265.55 40.3354 266.05ZM39.3954 265.86C39.3954 265.513 39.3188 265.217 39.1654 264.97C39.0121 264.717 38.8021 264.527 38.5354 264.4C38.2754 264.267 37.9854 264.2 37.6654 264.2C37.2054 264.2 36.8121 264.347 36.4854 264.64C36.1654 264.933 35.9821 265.34 35.9354 265.86H39.3954ZM48.1266 263.42C48.5533 263.42 48.9333 263.51 49.2666 263.69C49.5999 263.863 49.8633 264.127 50.0566 264.48C50.2499 264.833 50.3466 265.263 50.3466 265.77V269H49.4466V265.9C49.4466 265.353 49.3099 264.937 49.0366 264.65C48.7699 264.357 48.4066 264.21 47.9466 264.21C47.4733 264.21 47.0966 264.363 46.8166 264.67C46.5366 264.97 46.3966 265.407 46.3966 265.98V269H45.4966V265.9C45.4966 265.353 45.3599 264.937 45.0866 264.65C44.8199 264.357 44.4566 264.21 43.9966 264.21C43.5233 264.21 43.1466 264.363 42.8666 264.67C42.5866 264.97 42.4466 265.407 42.4466 265.98V269H41.5366V263.52H42.4466V264.31C42.6266 264.023 42.8666 263.803 43.1666 263.65C43.4733 263.497 43.8099 263.42 44.1766 263.42C44.6366 263.42 45.0433 263.523 45.3966 263.73C45.7499 263.937 46.0133 264.24 46.1866 264.64C46.3399 264.253 46.5933 263.953 46.9466 263.74C47.2999 263.527 47.6933 263.42 48.1266 263.42ZM55.4154 262.03V269H54.5054V262.03H55.4154ZM57.8763 264.53C58.0563 264.217 58.323 263.957 58.6763 263.75C59.0363 263.537 59.453 263.43 59.9263 263.43C60.413 263.43 60.853 263.547 61.2463 263.78C61.6463 264.013 61.9596 264.343 62.1863 264.77C62.413 265.19 62.5263 265.68 62.5263 266.24C62.5263 266.793 62.413 267.287 62.1863 267.72C61.9596 268.153 61.6463 268.49 61.2463 268.73C60.853 268.97 60.413 269.09 59.9263 269.09C59.4596 269.09 59.0463 268.987 58.6863 268.78C58.333 268.567 58.063 268.303 57.8763 267.99V271.6H56.9663V263.52H57.8763V264.53ZM61.5963 266.24C61.5963 265.827 61.513 265.467 61.3463 265.16C61.1796 264.853 60.953 264.62 60.6663 264.46C60.3863 264.3 60.0763 264.22 59.7363 264.22C59.403 264.22 59.093 264.303 58.8063 264.47C58.5263 264.63 58.2996 264.867 58.1263 265.18C57.9596 265.487 57.8763 265.843 57.8763 266.25C57.8763 266.663 57.9596 267.027 58.1263 267.34C58.2996 267.647 58.5263 267.883 58.8063 268.05C59.093 268.21 59.403 268.29 59.7363 268.29C60.0763 268.29 60.3863 268.21 60.6663 268.05C60.953 267.883 61.1796 267.647 61.3463 267.34C61.513 267.027 61.5963 266.66 61.5963 266.24ZM65.6641 269.09C65.2441 269.09 64.8674 269.02 64.5341 268.88C64.2008 268.733 63.9374 268.533 63.7441 268.28C63.5508 268.02 63.4441 267.723 63.4241 267.39H64.3641C64.3908 267.663 64.5174 267.887 64.7441 268.06C64.9774 268.233 65.2808 268.32 65.6541 268.32C66.0008 268.32 66.2741 268.243 66.4741 268.09C66.6741 267.937 66.7741 267.743 66.7741 267.51C66.7741 267.27 66.6674 267.093 66.4541 266.98C66.2408 266.86 65.9108 266.743 65.4641 266.63C65.0574 266.523 64.7241 266.417 64.4641 266.31C64.2108 266.197 63.9908 266.033 63.8041 265.82C63.6241 265.6 63.5341 265.313 63.5341 264.96C63.5341 264.68 63.6174 264.423 63.7841 264.19C63.9508 263.957 64.1874 263.773 64.4941 263.64C64.8008 263.5 65.1508 263.43 65.5441 263.43C66.1508 263.43 66.6408 263.583 67.0141 263.89C67.3874 264.197 67.5874 264.617 67.6141 265.15H66.7041C66.6841 264.863 66.5674 264.633 66.3541 264.46C66.1474 264.287 65.8674 264.2 65.5141 264.2C65.1874 264.2 64.9274 264.27 64.7341 264.41C64.5408 264.55 64.4441 264.733 64.4441 264.96C64.4441 265.14 64.5008 265.29 64.6141 265.41C64.7341 265.523 64.8808 265.617 65.0541 265.69C65.2341 265.757 65.4808 265.833 65.7941 265.92C66.1874 266.027 66.5074 266.133 66.7541 266.24C67.0008 266.34 67.2108 266.493 67.3841 266.7C67.5641 266.907 67.6574 267.177 67.6641 267.51C67.6641 267.81 67.5808 268.08 67.4141 268.32C67.2474 268.56 67.0108 268.75 66.7041 268.89C66.4041 269.023 66.0574 269.09 65.6641 269.09ZM73.8087 263.52V269H72.8987V268.19C72.7254 268.47 72.482 268.69 72.1687 268.85C71.862 269.003 71.522 269.08 71.1487 269.08C70.722 269.08 70.3387 268.993 69.9987 268.82C69.6587 268.64 69.3887 268.373 69.1887 268.02C68.9954 267.667 68.8987 267.237 68.8987 266.73V263.52H69.7987V266.61C69.7987 267.15 69.9354 267.567 70.2087 267.86C70.482 268.147 70.8554 268.29 71.3287 268.29C71.8154 268.29 72.1987 268.14 72.4787 267.84C72.7587 267.54 72.8987 267.103 72.8987 266.53V263.52H73.8087ZM81.9352 263.42C82.3619 263.42 82.7419 263.51 83.0752 263.69C83.4085 263.863 83.6719 264.127 83.8652 264.48C84.0585 264.833 84.1552 265.263 84.1552 265.77V269H83.2552V265.9C83.2552 265.353 83.1185 264.937 82.8452 264.65C82.5785 264.357 82.2152 264.21 81.7552 264.21C81.2819 264.21 80.9052 264.363 80.6252 264.67C80.3452 264.97 80.2052 265.407 80.2052 265.98V269H79.3052V265.9C79.3052 265.353 79.1685 264.937 78.8952 264.65C78.6285 264.357 78.2652 264.21 77.8052 264.21C77.3319 264.21 76.9552 264.363 76.6752 264.67C76.3952 264.97 76.2552 265.407 76.2552 265.98V269H75.3452V263.52H76.2552V264.31C76.4352 264.023 76.6752 263.803 76.9752 263.65C77.2819 263.497 77.6185 263.42 77.9852 263.42C78.4452 263.42 78.8519 263.523 79.2052 263.73C79.5585 263.937 79.8219 264.24 79.9952 264.64C80.1485 264.253 80.4019 263.953 80.7552 263.74C81.1085 263.527 81.5019 263.42 81.9352 263.42Z" fill="black"/>
<path d="M106.302 268.26H108.742V269H105.392V262.03H106.302V268.26ZM112.098 269.09C111.585 269.09 111.118 268.973 110.698 268.74C110.285 268.507 109.958 268.177 109.718 267.75C109.485 267.317 109.368 266.817 109.368 266.25C109.368 265.69 109.488 265.197 109.728 264.77C109.975 264.337 110.308 264.007 110.728 263.78C111.148 263.547 111.618 263.43 112.138 263.43C112.658 263.43 113.128 263.547 113.548 263.78C113.968 264.007 114.298 264.333 114.538 264.76C114.785 265.187 114.908 265.683 114.908 266.25C114.908 266.817 114.782 267.317 114.528 267.75C114.282 268.177 113.945 268.507 113.518 268.74C113.092 268.973 112.618 269.09 112.098 269.09ZM112.098 268.29C112.425 268.29 112.732 268.213 113.018 268.06C113.305 267.907 113.535 267.677 113.708 267.37C113.888 267.063 113.978 266.69 113.978 266.25C113.978 265.81 113.892 265.437 113.718 265.13C113.545 264.823 113.318 264.597 113.038 264.45C112.758 264.297 112.455 264.22 112.128 264.22C111.795 264.22 111.488 264.297 111.208 264.45C110.935 264.597 110.715 264.823 110.548 265.13C110.382 265.437 110.298 265.81 110.298 266.25C110.298 266.697 110.378 267.073 110.538 267.38C110.705 267.687 110.925 267.917 111.198 268.07C111.472 268.217 111.772 268.29 112.098 268.29ZM117.015 264.41C117.175 264.097 117.402 263.853 117.695 263.68C117.995 263.507 118.358 263.42 118.785 263.42V264.36H118.545C117.525 264.36 117.015 264.913 117.015 266.02V269H116.105V263.52H117.015V264.41ZM124.835 266.05C124.835 266.223 124.825 266.407 124.805 266.6H120.425C120.459 267.14 120.642 267.563 120.975 267.87C121.315 268.17 121.725 268.32 122.205 268.32C122.599 268.32 122.925 268.23 123.185 268.05C123.452 267.863 123.639 267.617 123.745 267.31H124.725C124.579 267.837 124.285 268.267 123.845 268.6C123.405 268.927 122.859 269.09 122.205 269.09C121.685 269.09 121.219 268.973 120.805 268.74C120.399 268.507 120.079 268.177 119.845 267.75C119.612 267.317 119.495 266.817 119.495 266.25C119.495 265.683 119.609 265.187 119.835 264.76C120.062 264.333 120.379 264.007 120.785 263.78C121.199 263.547 121.672 263.43 122.205 263.43C122.725 263.43 123.185 263.543 123.585 263.77C123.985 263.997 124.292 264.31 124.505 264.71C124.725 265.103 124.835 265.55 124.835 266.05ZM123.895 265.86C123.895 265.513 123.819 265.217 123.665 264.97C123.512 264.717 123.302 264.527 123.035 264.4C122.775 264.267 122.485 264.2 122.165 264.2C121.705 264.2 121.312 264.347 120.985 264.64C120.665 264.933 120.482 265.34 120.435 265.86H123.895ZM132.627 263.42C133.053 263.42 133.433 263.51 133.767 263.69C134.1 263.863 134.363 264.127 134.557 264.48C134.75 264.833 134.847 265.263 134.847 265.77V269H133.947V265.9C133.947 265.353 133.81 264.937 133.537 264.65C133.27 264.357 132.907 264.21 132.447 264.21C131.973 264.21 131.597 264.363 131.317 264.67C131.037 264.97 130.897 265.407 130.897 265.98V269H129.997V265.9C129.997 265.353 129.86 264.937 129.587 264.65C129.32 264.357 128.957 264.21 128.497 264.21C128.023 264.21 127.647 264.363 127.367 264.67C127.087 264.97 126.947 265.407 126.947 265.98V269H126.037V263.52H126.947V264.31C127.127 264.023 127.367 263.803 127.667 263.65C127.973 263.497 128.31 263.42 128.677 263.42C129.137 263.42 129.543 263.523 129.897 263.73C130.25 263.937 130.513 264.24 130.687 264.64C130.84 264.253 131.093 263.953 131.447 263.74C131.8 263.527 132.193 263.42 132.627 263.42ZM139.915 262.03V269H139.005V262.03H139.915ZM142.376 264.53C142.556 264.217 142.823 263.957 143.176 263.75C143.536 263.537 143.953 263.43 144.426 263.43C144.913 263.43 145.353 263.547 145.746 263.78C146.146 264.013 146.46 264.343 146.686 264.77C146.913 265.19 147.026 265.68 147.026 266.24C147.026 266.793 146.913 267.287 146.686 267.72C146.46 268.153 146.146 268.49 145.746 268.73C145.353 268.97 144.913 269.09 144.426 269.09C143.96 269.09 143.546 268.987 143.186 268.78C142.833 268.567 142.563 268.303 142.376 267.99V271.6H141.466V263.52H142.376V264.53ZM146.096 266.24C146.096 265.827 146.013 265.467 145.846 265.16C145.68 264.853 145.453 264.62 145.166 264.46C144.886 264.3 144.576 264.22 144.236 264.22C143.903 264.22 143.593 264.303 143.306 264.47C143.026 264.63 142.8 264.867 142.626 265.18C142.46 265.487 142.376 265.843 142.376 266.25C142.376 266.663 142.46 267.027 142.626 267.34C142.8 267.647 143.026 267.883 143.306 268.05C143.593 268.21 143.903 268.29 144.236 268.29C144.576 268.29 144.886 268.21 145.166 268.05C145.453 267.883 145.68 267.647 145.846 267.34C146.013 267.027 146.096 266.66 146.096 266.24ZM150.164 269.09C149.744 269.09 149.367 269.02 149.034 268.88C148.701 268.733 148.437 268.533 148.244 268.28C148.051 268.02 147.944 267.723 147.924 267.39H148.864C148.891 267.663 149.017 267.887 149.244 268.06C149.477 268.233 149.781 268.32 150.154 268.32C150.501 268.32 150.774 268.243 150.974 268.09C151.174 267.937 151.274 267.743 151.274 267.51C151.274 267.27 151.167 267.093 150.954 266.98C150.741 266.86 150.411 266.743 149.964 266.63C149.557 266.523 149.224 266.417 148.964 266.31C148.711 266.197 148.491 266.033 148.304 265.82C148.124 265.6 148.034 265.313 148.034 264.96C148.034 264.68 148.117 264.423 148.284 264.19C148.451 263.957 148.687 263.773 148.994 263.64C149.301 263.5 149.651 263.43 150.044 263.43C150.651 263.43 151.141 263.583 151.514 263.89C151.887 264.197 152.087 264.617 152.114 265.15H151.204C151.184 264.863 151.067 264.633 150.854 264.46C150.647 264.287 150.367 264.2 150.014 264.2C149.687 264.2 149.427 264.27 149.234 264.41C149.041 264.55 148.944 264.733 148.944 264.96C148.944 265.14 149.001 265.29 149.114 265.41C149.234 265.523 149.381 265.617 149.554 265.69C149.734 265.757 149.981 265.833 150.294 265.92C150.687 266.027 151.007 266.133 151.254 266.24C151.501 266.34 151.711 266.493 151.884 266.7C152.064 266.907 152.157 267.177 152.164 267.51C152.164 267.81 152.081 268.08 151.914 268.32C151.747 268.56 151.511 268.75 151.204 268.89C150.904 269.023 150.557 269.09 150.164 269.09ZM158.309 263.52V269H157.399V268.19C157.225 268.47 156.982 268.69 156.669 268.85C156.362 269.003 156.022 269.08 155.649 269.08C155.222 269.08 154.839 268.993 154.499 268.82C154.159 268.64 153.889 268.373 153.689 268.02C153.495 267.667 153.399 267.237 153.399 266.73V263.52H154.299V266.61C154.299 267.15 154.435 267.567 154.709 267.86C154.982 268.147 155.355 268.29 155.829 268.29C156.315 268.29 156.699 268.14 156.979 267.84C157.259 267.54 157.399 267.103 157.399 266.53V263.52H158.309ZM166.435 263.42C166.862 263.42 167.242 263.51 167.575 263.69C167.909 263.863 168.172 264.127 168.365 264.48C168.559 264.833 168.655 265.263 168.655 265.77V269H167.755V265.9C167.755 265.353 167.619 264.937 167.345 264.65C167.079 264.357 166.715 264.21 166.255 264.21C165.782 264.21 165.405 264.363 165.125 264.67C164.845 264.97 164.705 265.407 164.705 265.98V269H163.805V265.9C163.805 265.353 163.669 264.937 163.395 264.65C163.129 264.357 162.765 264.21 162.305 264.21C161.832 264.21 161.455 264.363 161.175 264.67C160.895 264.97 160.755 265.407 160.755 265.98V269H159.845V263.52H160.755V264.31C160.935 264.023 161.175 263.803 161.475 263.65C161.782 263.497 162.119 263.42 162.485 263.42C162.945 263.42 163.352 263.523 163.705 263.73C164.059 263.937 164.322 264.24 164.495 264.64C164.649 264.253 164.902 263.953 165.255 263.74C165.609 263.527 166.002 263.42 166.435 263.42Z" fill="black"/>
<path d="M191.302 268.26H193.742V269H190.392V262.03H191.302V268.26ZM197.098 269.09C196.585 269.09 196.118 268.973 195.698 268.74C195.285 268.507 194.958 268.177 194.718 267.75C194.485 267.317 194.368 266.817 194.368 266.25C194.368 265.69 194.488 265.197 194.728 264.77C194.975 264.337 195.308 264.007 195.728 263.78C196.148 263.547 196.618 263.43 197.138 263.43C197.658 263.43 198.128 263.547 198.548 263.78C198.968 264.007 199.298 264.333 199.538 264.76C199.785 265.187 199.908 265.683 199.908 266.25C199.908 266.817 199.782 267.317 199.528 267.75C199.282 268.177 198.945 268.507 198.518 268.74C198.092 268.973 197.618 269.09 197.098 269.09ZM197.098 268.29C197.425 268.29 197.732 268.213 198.018 268.06C198.305 267.907 198.535 267.677 198.708 267.37C198.888 267.063 198.978 266.69 198.978 266.25C198.978 265.81 198.892 265.437 198.718 265.13C198.545 264.823 198.318 264.597 198.038 264.45C197.758 264.297 197.455 264.22 197.128 264.22C196.795 264.22 196.488 264.297 196.208 264.45C195.935 264.597 195.715 264.823 195.548 265.13C195.382 265.437 195.298 265.81 195.298 266.25C195.298 266.697 195.378 267.073 195.538 267.38C195.705 267.687 195.925 267.917 196.198 268.07C196.472 268.217 196.772 268.29 197.098 268.29ZM202.015 264.41C202.175 264.097 202.402 263.853 202.695 263.68C202.995 263.507 203.358 263.42 203.785 263.42V264.36H203.545C202.525 264.36 202.015 264.913 202.015 266.02V269H201.105V263.52H202.015V264.41ZM209.835 266.05C209.835 266.223 209.825 266.407 209.805 266.6H205.425C205.459 267.14 205.642 267.563 205.975 267.87C206.315 268.17 206.725 268.32 207.205 268.32C207.599 268.32 207.925 268.23 208.185 268.05C208.452 267.863 208.639 267.617 208.745 267.31H209.725C209.579 267.837 209.285 268.267 208.845 268.6C208.405 268.927 207.859 269.09 207.205 269.09C206.685 269.09 206.219 268.973 205.805 268.74C205.399 268.507 205.079 268.177 204.845 267.75C204.612 267.317 204.495 266.817 204.495 266.25C204.495 265.683 204.609 265.187 204.835 264.76C205.062 264.333 205.379 264.007 205.785 263.78C206.199 263.547 206.672 263.43 207.205 263.43C207.725 263.43 208.185 263.543 208.585 263.77C208.985 263.997 209.292 264.31 209.505 264.71C209.725 265.103 209.835 265.55 209.835 266.05ZM208.895 265.86C208.895 265.513 208.819 265.217 208.665 264.97C208.512 264.717 208.302 264.527 208.035 264.4C207.775 264.267 207.485 264.2 207.165 264.2C206.705 264.2 206.312 264.347 205.985 264.64C205.665 264.933 205.482 265.34 205.435 265.86H208.895ZM217.627 263.42C218.053 263.42 218.433 263.51 218.767 263.69C219.1 263.863 219.363 264.127 219.557 264.48C219.75 264.833 219.847 265.263 219.847 265.77V269H218.947V265.9C218.947 265.353 218.81 264.937 218.537 264.65C218.27 264.357 217.907 264.21 217.447 264.21C216.973 264.21 216.597 264.363 216.317 264.67C216.037 264.97 215.897 265.407 215.897 265.98V269H214.997V265.9C214.997 265.353 214.86 264.937 214.587 264.65C214.32 264.357 213.957 264.21 213.497 264.21C213.023 264.21 212.647 264.363 212.367 264.67C212.087 264.97 211.947 265.407 211.947 265.98V269H211.037V263.52H211.947V264.31C212.127 264.023 212.367 263.803 212.667 263.65C212.973 263.497 213.31 263.42 213.677 263.42C214.137 263.42 214.543 263.523 214.897 263.73C215.25 263.937 215.513 264.24 215.687 264.64C215.84 264.253 216.093 263.953 216.447 263.74C216.8 263.527 217.193 263.42 217.627 263.42ZM224.915 262.03V269H224.005V262.03H224.915ZM227.376 264.53C227.556 264.217 227.823 263.957 228.176 263.75C228.536 263.537 228.953 263.43 229.426 263.43C229.913 263.43 230.353 263.547 230.746 263.78C231.146 264.013 231.46 264.343 231.686 264.77C231.913 265.19 232.026 265.68 232.026 266.24C232.026 266.793 231.913 267.287 231.686 267.72C231.46 268.153 231.146 268.49 230.746 268.73C230.353 268.97 229.913 269.09 229.426 269.09C228.96 269.09 228.546 268.987 228.186 268.78C227.833 268.567 227.563 268.303 227.376 267.99V271.6H226.466V263.52H227.376V264.53ZM231.096 266.24C231.096 265.827 231.013 265.467 230.846 265.16C230.68 264.853 230.453 264.62 230.166 264.46C229.886 264.3 229.576 264.22 229.236 264.22C228.903 264.22 228.593 264.303 228.306 264.47C228.026 264.63 227.8 264.867 227.626 265.18C227.46 265.487 227.376 265.843 227.376 266.25C227.376 266.663 227.46 267.027 227.626 267.34C227.8 267.647 228.026 267.883 228.306 268.05C228.593 268.21 228.903 268.29 229.236 268.29C229.576 268.29 229.886 268.21 230.166 268.05C230.453 267.883 230.68 267.647 230.846 267.34C231.013 267.027 231.096 266.66 231.096 266.24ZM235.164 269.09C234.744 269.09 234.367 269.02 234.034 268.88C233.701 268.733 233.437 268.533 233.244 268.28C233.051 268.02 232.944 267.723 232.924 267.39H233.864C233.891 267.663 234.017 267.887 234.244 268.06C234.477 268.233 234.781 268.32 235.154 268.32C235.501 268.32 235.774 268.243 235.974 268.09C236.174 267.937 236.274 267.743 236.274 267.51C236.274 267.27 236.167 267.093 235.954 266.98C235.741 266.86 235.411 266.743 234.964 266.63C234.557 266.523 234.224 266.417 233.964 266.31C233.711 266.197 233.491 266.033 233.304 265.82C233.124 265.6 233.034 265.313 233.034 264.96C233.034 264.68 233.117 264.423 233.284 264.19C233.451 263.957 233.687 263.773 233.994 263.64C234.301 263.5 234.651 263.43 235.044 263.43C235.651 263.43 236.141 263.583 236.514 263.89C236.887 264.197 237.087 264.617 237.114 265.15H236.204C236.184 264.863 236.067 264.633 235.854 264.46C235.647 264.287 235.367 264.2 235.014 264.2C234.687 264.2 234.427 264.27 234.234 264.41C234.041 264.55 233.944 264.733 233.944 264.96C233.944 265.14 234.001 265.29 234.114 265.41C234.234 265.523 234.381 265.617 234.554 265.69C234.734 265.757 234.981 265.833 235.294 265.92C235.687 266.027 236.007 266.133 236.254 266.24C236.501 266.34 236.711 266.493 236.884 266.7C237.064 266.907 237.157 267.177 237.164 267.51C237.164 267.81 237.081 268.08 236.914 268.32C236.747 268.56 236.511 268.75 236.204 268.89C235.904 269.023 235.557 269.09 235.164 269.09ZM243.309 263.52V269H242.399V268.19C242.225 268.47 241.982 268.69 241.669 268.85C241.362 269.003 241.022 269.08 240.649 269.08C240.222 269.08 239.839 268.993 239.499 268.82C239.159 268.64 238.889 268.373 238.689 268.02C238.495 267.667 238.399 267.237 238.399 266.73V263.52H239.299V266.61C239.299 267.15 239.435 267.567 239.709 267.86C239.982 268.147 240.355 268.29 240.829 268.29C241.315 268.29 241.699 268.14 241.979 267.84C242.259 267.54 242.399 267.103 242.399 266.53V263.52H243.309ZM251.435 263.42C251.862 263.42 252.242 263.51 252.575 263.69C252.909 263.863 253.172 264.127 253.365 264.48C253.559 264.833 253.655 265.263 253.655 265.77V269H252.755V265.9C252.755 265.353 252.619 264.937 252.345 264.65C252.079 264.357 251.715 264.21 251.255 264.21C250.782 264.21 250.405 264.363 250.125 264.67C249.845 264.97 249.705 265.407 249.705 265.98V269H248.805V265.9C248.805 265.353 248.669 264.937 248.395 264.65C248.129 264.357 247.765 264.21 247.305 264.21C246.832 264.21 246.455 264.363 246.175 264.67C245.895 264.97 245.755 265.407 245.755 265.98V269H244.845V263.52H245.755V264.31C245.935 264.023 246.175 263.803 246.475 263.65C246.782 263.497 247.119 263.42 247.485 263.42C247.945 263.42 248.352 263.523 248.705 263.73C249.059 263.937 249.322 264.24 249.495 264.64C249.649 264.253 249.902 263.953 250.255 263.74C250.609 263.527 251.002 263.42 251.435 263.42Z" fill="black"/>
<path d="M18.024 300.528H21.784V302H16.2V290.88H18.024V300.528ZM27.1334 302.144C26.3014 302.144 25.5494 301.957 24.8774 301.584C24.2054 301.2 23.6774 300.667 23.2934 299.984C22.9094 299.291 22.7174 298.491 22.7174 297.584C22.7174 296.688 22.9147 295.893 23.3094 295.2C23.704 294.507 24.2427 293.973 24.9254 293.6C25.608 293.227 26.3707 293.04 27.2134 293.04C28.056 293.04 28.8187 293.227 29.5014 293.6C30.184 293.973 30.7227 294.507 31.1174 295.2C31.512 295.893 31.7094 296.688 31.7094 297.584C31.7094 298.48 31.5067 299.275 31.1014 299.968C30.696 300.661 30.1414 301.2 29.4374 301.584C28.744 301.957 27.976 302.144 27.1334 302.144ZM27.1334 300.56C27.6027 300.56 28.04 300.448 28.4454 300.224C28.8614 300 29.1974 299.664 29.4534 299.216C29.7094 298.768 29.8374 298.224 29.8374 297.584C29.8374 296.944 29.7147 296.405 29.4694 295.968C29.224 295.52 28.8987 295.184 28.4934 294.96C28.088 294.736 27.6507 294.624 27.1814 294.624C26.712 294.624 26.2747 294.736 25.8694 294.96C25.4747 295.184 25.16 295.52 24.9254 295.968C24.6907 296.405 24.5734 296.944 24.5734 297.584C24.5734 298.533 24.8134 299.269 25.2934 299.792C25.784 300.304 26.3974 300.56 27.1334 300.56ZM35.3365 294.464C35.6032 294.016 35.9552 293.669 36.3925 293.424C36.8405 293.168 37.3685 293.04 37.9765 293.04V294.928H37.5125C36.7978 294.928 36.2538 295.109 35.8805 295.472C35.5178 295.835 35.3365 296.464 35.3365 297.36V302H33.5125V293.184H35.3365V294.464ZM47.7331 297.376C47.7331 297.707 47.7118 298.005 47.6691 298.272H40.9331C40.9865 298.976 41.2478 299.541 41.7171 299.968C42.1865 300.395 42.7625 300.608 43.4451 300.608C44.4265 300.608 45.1198 300.197 45.5251 299.376H47.4931C47.2265 300.187 46.7411 300.853 46.0371 301.376C45.3438 301.888 44.4798 302.144 43.4451 302.144C42.6025 302.144 41.8451 301.957 41.1731 301.584C40.5118 301.2 39.9891 300.667 39.6051 299.984C39.2318 299.291 39.0451 298.491 39.0451 297.584C39.0451 296.677 39.2265 295.883 39.5891 295.2C39.9625 294.507 40.4798 293.973 41.1411 293.6C41.8131 293.227 42.5811 293.04 43.4451 293.04C44.2771 293.04 45.0185 293.221 45.6691 293.584C46.3198 293.947 46.8265 294.459 47.1891 295.12C47.5518 295.771 47.7331 296.523 47.7331 297.376ZM45.8291 296.8C45.8185 296.128 45.5785 295.589 45.1091 295.184C44.6398 294.779 44.0585 294.576 43.3651 294.576C42.7358 294.576 42.1971 294.779 41.7491 295.184C41.3011 295.579 41.0345 296.117 40.9491 296.8H45.8291ZM60.2001 293.04C60.8935 293.04 61.5121 293.184 62.0561 293.472C62.6108 293.76 63.0428 294.187 63.3521 294.752C63.6721 295.317 63.8321 296 63.8321 296.8V302H62.0241V297.072C62.0241 296.283 61.8268 295.68 61.4321 295.264C61.0375 294.837 60.4988 294.624 59.8161 294.624C59.1335 294.624 58.5895 294.837 58.1841 295.264C57.7895 295.68 57.5921 296.283 57.5921 297.072V302H55.7841V297.072C55.7841 296.283 55.5868 295.68 55.1921 295.264C54.7975 294.837 54.2588 294.624 53.5761 294.624C52.8935 294.624 52.3495 294.837 51.9441 295.264C51.5495 295.68 51.3521 296.283 51.3521 297.072V302H49.5281V293.184H51.3521V294.192C51.6508 293.829 52.0295 293.547 52.4881 293.344C52.9468 293.141 53.4375 293.04 53.9601 293.04C54.6641 293.04 55.2935 293.189 55.8481 293.488C56.4028 293.787 56.8295 294.219 57.1281 294.784C57.3948 294.251 57.8108 293.829 58.3761 293.52C58.9415 293.2 59.5495 293.04 60.2001 293.04Z" fill="black"/>
<g style="mix-blend-mode:multiply" clip-path="url(#clip0_1_166)">
<path d="M305.75 228C305.75 228.332 305.882 228.649 306.116 228.884C306.351 229.118 306.668 229.25 307 229.25C307.332 229.25 307.649 229.118 307.884 228.884C308.118 228.649 308.25 228.332 308.25 228V219.25H317C317.332 219.25 317.649 219.118 317.884 218.884C318.118 218.649 318.25 218.332 318.25 218C318.25 217.668 318.118 217.351 317.884 217.116C317.649 216.882 317.332 216.75 317 216.75H308.25V208C308.25 207.668 308.118 207.351 307.884 207.116C307.649 206.882 307.332 206.75 307 206.75C306.668 206.75 306.351 206.882 306.116 207.116C305.882 207.351 305.75 207.668 305.75 208V216.75H297C296.668 216.75 296.351 216.882 296.116 217.116C295.882 217.351 295.75 217.668 295.75 218C295.75 218.332 295.882 218.649 296.116 218.884C296.351 219.118 296.668 219.25 297 219.25H305.75V228Z" fill="#D9D9D9"/>
</g>
<rect x="15" y="181" width="75" height="75" rx="8" fill="#D9D9D9"/>
<g style="mix-blend-mode:multiply">
<path d="M58 210C57.4696 210 56.9609 210.211 56.5858 210.586C56.2107 210.961 56 211.47 56 212C56 212.53 56.2107 213.039 56.5858 213.414C56.9609 213.789 57.4696 214 58 214C58.5304 214 59.0391 213.789 59.4142 213.414C59.7893 213.039 60 212.53 60 212C60 211.47 59.7893 210.961 59.4142 210.586C59.0391 210.211 58.5304 210 58 210ZM54 212C54 210.939 54.4214 209.922 55.1716 209.172C55.9217 208.421 56.9391 208 58 208C59.0609 208 60.0783 208.421 60.8284 209.172C61.5786 209.922 62 210.939 62 212C62 213.061 61.5786 214.078 60.8284 214.828C60.0783 215.579 59.0609 216 58 216C56.9391 216 55.9217 215.579 55.1716 214.828C54.4214 214.078 54 213.061 54 212ZM50.928 214.124L55.347 221.139L57.928 217.164L64.966 228H42.188L50.928 214.124ZM50.928 217.876L45.812 226H61.282L57.928 220.836L55.321 224.85L50.928 217.876Z" fill="#C8C8C8"/>
</g>
<rect x="99" y="181" width="75" height="75" rx="8" fill="#D9D9D9"/>
<g style="mix-blend-mode:multiply">
<path d="M142 210C141.47 210 140.961 210.211 140.586 210.586C140.211 210.961 140 211.47 140 212C140 212.53 140.211 213.039 140.586 213.414C140.961 213.789 141.47 214 142 214C142.53 214 143.039 213.789 143.414 213.414C143.789 213.039 144 212.53 144 212C144 211.47 143.789 210.961 143.414 210.586C143.039 210.211 142.53 210 142 210ZM138 212C138 210.939 138.421 209.922 139.172 209.172C139.922 208.421 140.939 208 142 208C143.061 208 144.078 208.421 144.828 209.172C145.579 209.922 146 210.939 146 212C146 213.061 145.579 214.078 144.828 214.828C144.078 215.579 143.061 216 142 216C140.939 216 139.922 215.579 139.172 214.828C138.421 214.078 138 213.061 138 212ZM134.928 214.124L139.347 221.139L141.928 217.164L148.966 228H126.188L134.928 214.124ZM134.928 217.876L129.812 226H145.282L141.928 220.836L139.321 224.85L134.928 217.876Z" fill="#C8C8C8"/>
</g>
<rect x="184" y="181" width="75" height="75" rx="8" fill="#D9D9D9"/>
<g style="mix-blend-mode:multiply">
<path d="M227 210C226.47 210 225.961 210.211 225.586 210.586C225.211 210.961 225 211.47 225 212C225 212.53 225.211 213.039 225.586 213.414C225.961 213.789 226.47 214 227 214C227.53 214 228.039 213.789 228.414 213.414C228.789 213.039 229 212.53 229 212C229 211.47 228.789 210.961 228.414 210.586C228.039 210.211 227.53 210 227 210ZM223 212C223 210.939 223.421 209.922 224.172 209.172C224.922 208.421 225.939 208 227 208C228.061 208 229.078 208.421 229.828 209.172C230.579 209.922 231 210.939 231 212C231 213.061 230.579 214.078 229.828 214.828C229.078 215.579 228.061 216 227 216C225.939 216 224.922 215.579 224.172 214.828C223.421 214.078 223 213.061 223 212ZM219.928 214.124L224.347 221.139L226.928 217.164L233.966 228H211.188L219.928 214.124ZM219.928 217.876L214.812 226H230.282L226.928 220.836L224.321 224.85L219.928 217.876Z" fill="#C8C8C8"/>
</g>
<rect x="24" y="382" width="94" height="94" rx="8" fill="#D9D9D9"/>
<rect x="24" y="495" width="94" height="94" rx="8" fill="#D9D9D9"/>
<rect x="242" y="382" width="94" height="94" rx="8" fill="#D9D9D9"/>
<rect x="133" y="382" width="94" height="94" rx="8" fill="#D9D9D9"/>
<rect x="134" y="495" width="94" height="94" rx="8" fill="#D9D9D9"/>
<rect x="29" y="388" width="31" height="31" rx="6" fill="#FDFDFD"/>
<rect x="29" y="501" width="31" height="31" rx="6" fill="#FDFDFD"/>
<rect x="248" y="388" width="31" height="31" rx="6" fill="#FDFDFD"/>
<rect x="139" y="388" width="31" height="31" rx="6" fill="#FDFDFD"/>
<rect x="139" y="501" width="31" height="31" rx="6" fill="#FDFDFD"/>
<path d="M70.016 407.112H72.944V408H68.924V399.636H70.016V407.112ZM76.9717 408.108C76.3557 408.108 75.7957 407.968 75.2917 407.688C74.7957 407.408 74.4037 407.012 74.1157 406.5C73.8357 405.98 73.6957 405.38 73.6957 404.7C73.6957 404.028 73.8397 403.436 74.1277 402.924C74.4237 402.404 74.8237 402.008 75.3277 401.736C75.8317 401.456 76.3957 401.316 77.0197 401.316C77.6437 401.316 78.2077 401.456 78.7117 401.736C79.2157 402.008 79.6117 402.4 79.8997 402.912C80.1957 403.424 80.3437 404.02 80.3437 404.7C80.3437 405.38 80.1917 405.98 79.8877 406.5C79.5917 407.012 79.1877 407.408 78.6757 407.688C78.1637 407.968 77.5957 408.108 76.9717 408.108ZM76.9717 407.148C77.3637 407.148 77.7317 407.056 78.0757 406.872C78.4197 406.688 78.6957 406.412 78.9037 406.044C79.1197 405.676 79.2277 405.228 79.2277 404.7C79.2277 404.172 79.1237 403.724 78.9157 403.356C78.7077 402.988 78.4357 402.716 78.0997 402.54C77.7637 402.356 77.3997 402.264 77.0077 402.264C76.6077 402.264 76.2397 402.356 75.9037 402.54C75.5757 402.716 75.3117 402.988 75.1117 403.356C74.9117 403.724 74.8117 404.172 74.8117 404.7C74.8117 405.236 74.9077 405.688 75.0997 406.056C75.2997 406.424 75.5637 406.7 75.8917 406.884C76.2197 407.06 76.5797 407.148 76.9717 407.148ZM82.8715 402.492C83.0635 402.116 83.3355 401.824 83.6875 401.616C84.0475 401.408 84.4835 401.304 84.9955 401.304V402.432H84.7075C83.4835 402.432 82.8715 403.096 82.8715 404.424V408H81.7795V401.424H82.8715V402.492ZM92.256 404.46C92.256 404.668 92.244 404.888 92.22 405.12H86.964C87.004 405.768 87.224 406.276 87.624 406.644C88.032 407.004 88.524 407.184 89.1 407.184C89.572 407.184 89.964 407.076 90.276 406.86C90.596 406.636 90.82 406.34 90.948 405.972H92.124C91.948 406.604 91.596 407.12 91.068 407.52C90.54 407.912 89.884 408.108 89.1 408.108C88.476 408.108 87.916 407.968 87.42 407.688C86.932 407.408 86.548 407.012 86.268 406.5C85.988 405.98 85.848 405.38 85.848 404.7C85.848 404.02 85.984 403.424 86.256 402.912C86.528 402.4 86.908 402.008 87.396 401.736C87.892 401.456 88.46 401.316 89.1 401.316C89.724 401.316 90.276 401.452 90.756 401.724C91.236 401.996 91.604 402.372 91.86 402.852C92.124 403.324 92.256 403.86 92.256 404.46ZM91.128 404.232C91.128 403.816 91.036 403.46 90.852 403.164C90.668 402.86 90.416 402.632 90.096 402.48C89.784 402.32 89.436 402.24 89.052 402.24C88.5 402.24 88.028 402.416 87.636 402.768C87.252 403.12 87.032 403.608 86.976 404.232H91.128ZM101.605 401.304C102.117 401.304 102.573 401.412 102.973 401.628C103.373 401.836 103.689 402.152 103.921 402.576C104.153 403 104.269 403.516 104.269 404.124V408H103.189V404.28C103.189 403.624 103.025 403.124 102.697 402.78C102.377 402.428 101.941 402.252 101.389 402.252C100.821 402.252 100.369 402.436 100.033 402.804C99.6974 403.164 99.5294 403.688 99.5294 404.376V408H98.4494V404.28C98.4494 403.624 98.2854 403.124 97.9574 402.78C97.6374 402.428 97.2014 402.252 96.6494 402.252C96.0814 402.252 95.6294 402.436 95.2934 402.804C94.9574 403.164 94.7894 403.688 94.7894 404.376V408H93.6974V401.424H94.7894V402.372C95.0054 402.028 95.2934 401.764 95.6534 401.58C96.0214 401.396 96.4254 401.304 96.8654 401.304C97.4174 401.304 97.9054 401.428 98.3294 401.676C98.7534 401.924 99.0694 402.288 99.2774 402.768C99.4614 402.304 99.7654 401.944 100.189 401.688C100.613 401.432 101.085 401.304 101.605 401.304Z" fill="black"/>
<path d="M70.016 520.112H72.944V521H68.924V512.636H70.016V520.112ZM76.9717 521.108C76.3557 521.108 75.7957 520.968 75.2917 520.688C74.7957 520.408 74.4037 520.012 74.1157 519.5C73.8357 518.98 73.6957 518.38 73.6957 517.7C73.6957 517.028 73.8397 516.436 74.1277 515.924C74.4237 515.404 74.8237 515.008 75.3277 514.736C75.8317 514.456 76.3957 514.316 77.0197 514.316C77.6437 514.316 78.2077 514.456 78.7117 514.736C79.2157 515.008 79.6117 515.4 79.8997 515.912C80.1957 516.424 80.3437 517.02 80.3437 517.7C80.3437 518.38 80.1917 518.98 79.8877 519.5C79.5917 520.012 79.1877 520.408 78.6757 520.688C78.1637 520.968 77.5957 521.108 76.9717 521.108ZM76.9717 520.148C77.3637 520.148 77.7317 520.056 78.0757 519.872C78.4197 519.688 78.6957 519.412 78.9037 519.044C79.1197 518.676 79.2277 518.228 79.2277 517.7C79.2277 517.172 79.1237 516.724 78.9157 516.356C78.7077 515.988 78.4357 515.716 78.0997 515.54C77.7637 515.356 77.3997 515.264 77.0077 515.264C76.6077 515.264 76.2397 515.356 75.9037 515.54C75.5757 515.716 75.3117 515.988 75.1117 516.356C74.9117 516.724 74.8117 517.172 74.8117 517.7C74.8117 518.236 74.9077 518.688 75.0997 519.056C75.2997 519.424 75.5637 519.7 75.8917 519.884C76.2197 520.06 76.5797 520.148 76.9717 520.148ZM82.8715 515.492C83.0635 515.116 83.3355 514.824 83.6875 514.616C84.0475 514.408 84.4835 514.304 84.9955 514.304V515.432H84.7075C83.4835 515.432 82.8715 516.096 82.8715 517.424V521H81.7795V514.424H82.8715V515.492ZM92.256 517.46C92.256 517.668 92.244 517.888 92.22 518.12H86.964C87.004 518.768 87.224 519.276 87.624 519.644C88.032 520.004 88.524 520.184 89.1 520.184C89.572 520.184 89.964 520.076 90.276 519.86C90.596 519.636 90.82 519.34 90.948 518.972H92.124C91.948 519.604 91.596 520.12 91.068 520.52C90.54 520.912 89.884 521.108 89.1 521.108C88.476 521.108 87.916 520.968 87.42 520.688C86.932 520.408 86.548 520.012 86.268 519.5C85.988 518.98 85.848 518.38 85.848 517.7C85.848 517.02 85.984 516.424 86.256 515.912C86.528 515.4 86.908 515.008 87.396 514.736C87.892 514.456 88.46 514.316 89.1 514.316C89.724 514.316 90.276 514.452 90.756 514.724C91.236 514.996 91.604 515.372 91.86 515.852C92.124 516.324 92.256 516.86 92.256 517.46ZM91.128 517.232C91.128 516.816 91.036 516.46 90.852 516.164C90.668 515.86 90.416 515.632 90.096 515.48C89.784 515.32 89.436 515.24 89.052 515.24C88.5 515.24 88.028 515.416 87.636 515.768C87.252 516.12 87.032 516.608 86.976 517.232H91.128ZM101.605 514.304C102.117 514.304 102.573 514.412 102.973 514.628C103.373 514.836 103.689 515.152 103.921 515.576C104.153 516 104.269 516.516 104.269 517.124V521H103.189V517.28C103.189 516.624 103.025 516.124 102.697 515.78C102.377 515.428 101.941 515.252 101.389 515.252C100.821 515.252 100.369 515.436 100.033 515.804C99.6974 516.164 99.5294 516.688 99.5294 517.376V521H98.4494V517.28C98.4494 516.624 98.2854 516.124 97.9574 515.78C97.6374 515.428 97.2014 515.252 96.6494 515.252C96.0814 515.252 95.6294 515.436 95.2934 515.804C94.9574 516.164 94.7894 516.688 94.7894 517.376V521H93.6974V514.424H94.7894V515.372C95.0054 515.028 95.2934 514.764 95.6534 514.58C96.0214 514.396 96.4254 514.304 96.8654 514.304C97.4174 514.304 97.9054 514.428 98.3294 514.676C98.7534 514.924 99.0694 515.288 99.2774 515.768C99.4614 515.304 99.7654 514.944 100.189 514.688C100.613 514.432 101.085 514.304 101.605 514.304Z" fill="black"/>
<path d="M289.016 407.112H291.944V408H287.924V399.636H289.016V407.112ZM295.972 408.108C295.356 408.108 294.796 407.968 294.292 407.688C293.796 407.408 293.404 407.012 293.116 406.5C292.836 405.98 292.696 405.38 292.696 404.7C292.696 404.028 292.84 403.436 293.128 402.924C293.424 402.404 293.824 402.008 294.328 401.736C294.832 401.456 295.396 401.316 296.02 401.316C296.644 401.316 297.208 401.456 297.712 401.736C298.216 402.008 298.612 402.4 298.9 402.912C299.196 403.424 299.344 404.02 299.344 404.7C299.344 405.38 299.192 405.98 298.888 406.5C298.592 407.012 298.188 407.408 297.676 407.688C297.164 407.968 296.596 408.108 295.972 408.108ZM295.972 407.148C296.364 407.148 296.732 407.056 297.076 406.872C297.42 406.688 297.696 406.412 297.904 406.044C298.12 405.676 298.228 405.228 298.228 404.7C298.228 404.172 298.124 403.724 297.916 403.356C297.708 402.988 297.436 402.716 297.1 402.54C296.764 402.356 296.4 402.264 296.008 402.264C295.608 402.264 295.24 402.356 294.904 402.54C294.576 402.716 294.312 402.988 294.112 403.356C293.912 403.724 293.812 404.172 293.812 404.7C293.812 405.236 293.908 405.688 294.1 406.056C294.3 406.424 294.564 406.7 294.892 406.884C295.22 407.06 295.58 407.148 295.972 407.148ZM301.871 402.492C302.063 402.116 302.335 401.824 302.687 401.616C303.047 401.408 303.483 401.304 303.995 401.304V402.432H303.707C302.483 402.432 301.871 403.096 301.871 404.424V408H300.779V401.424H301.871V402.492ZM311.256 404.46C311.256 404.668 311.244 404.888 311.22 405.12H305.964C306.004 405.768 306.224 406.276 306.624 406.644C307.032 407.004 307.524 407.184 308.1 407.184C308.572 407.184 308.964 407.076 309.276 406.86C309.596 406.636 309.82 406.34 309.948 405.972H311.124C310.948 406.604 310.596 407.12 310.068 407.52C309.54 407.912 308.884 408.108 308.1 408.108C307.476 408.108 306.916 407.968 306.42 407.688C305.932 407.408 305.548 407.012 305.268 406.5C304.988 405.98 304.848 405.38 304.848 404.7C304.848 404.02 304.984 403.424 305.256 402.912C305.528 402.4 305.908 402.008 306.396 401.736C306.892 401.456 307.46 401.316 308.1 401.316C308.724 401.316 309.276 401.452 309.756 401.724C310.236 401.996 310.604 402.372 310.86 402.852C311.124 403.324 311.256 403.86 311.256 404.46ZM310.128 404.232C310.128 403.816 310.036 403.46 309.852 403.164C309.668 402.86 309.416 402.632 309.096 402.48C308.784 402.32 308.436 402.24 308.052 402.24C307.5 402.24 307.028 402.416 306.636 402.768C306.252 403.12 306.032 403.608 305.976 404.232H310.128ZM320.605 401.304C321.117 401.304 321.573 401.412 321.973 401.628C322.373 401.836 322.689 402.152 322.921 402.576C323.153 403 323.269 403.516 323.269 404.124V408H322.189V404.28C322.189 403.624 322.025 403.124 321.697 402.78C321.377 402.428 320.941 402.252 320.389 402.252C319.821 402.252 319.369 402.436 319.033 402.804C318.697 403.164 318.529 403.688 318.529 404.376V408H317.449V404.28C317.449 403.624 317.285 403.124 316.957 402.78C316.637 402.428 316.201 402.252 315.649 402.252C315.081 402.252 314.629 402.436 314.293 402.804C313.957 403.164 313.789 403.688 313.789 404.376V408H312.697V401.424H313.789V402.372C314.005 402.028 314.293 401.764 314.653 401.58C315.021 401.396 315.425 401.304 315.865 401.304C316.417 401.304 316.905 401.428 317.329 401.676C317.753 401.924 318.069 402.288 318.277 402.768C318.461 402.304 318.765 401.944 319.189 401.688C319.613 401.432 320.085 401.304 320.605 401.304Z" fill="black"/>
<path d="M180.016 407.112H182.944V408H178.924V399.636H180.016V407.112ZM186.972 408.108C186.356 408.108 185.796 407.968 185.292 407.688C184.796 407.408 184.404 407.012 184.116 406.5C183.836 405.98 183.696 405.38 183.696 404.7C183.696 404.028 183.84 403.436 184.128 402.924C184.424 402.404 184.824 402.008 185.328 401.736C185.832 401.456 186.396 401.316 187.02 401.316C187.644 401.316 188.208 401.456 188.712 401.736C189.216 402.008 189.612 402.4 189.9 402.912C190.196 403.424 190.344 404.02 190.344 404.7C190.344 405.38 190.192 405.98 189.888 406.5C189.592 407.012 189.188 407.408 188.676 407.688C188.164 407.968 187.596 408.108 186.972 408.108ZM186.972 407.148C187.364 407.148 187.732 407.056 188.076 406.872C188.42 406.688 188.696 406.412 188.904 406.044C189.12 405.676 189.228 405.228 189.228 404.7C189.228 404.172 189.124 403.724 188.916 403.356C188.708 402.988 188.436 402.716 188.1 402.54C187.764 402.356 187.4 402.264 187.008 402.264C186.608 402.264 186.24 402.356 185.904 402.54C185.576 402.716 185.312 402.988 185.112 403.356C184.912 403.724 184.812 404.172 184.812 404.7C184.812 405.236 184.908 405.688 185.1 406.056C185.3 406.424 185.564 406.7 185.892 406.884C186.22 407.06 186.58 407.148 186.972 407.148ZM192.871 402.492C193.063 402.116 193.335 401.824 193.687 401.616C194.047 401.408 194.483 401.304 194.995 401.304V402.432H194.707C193.483 402.432 192.871 403.096 192.871 404.424V408H191.779V401.424H192.871V402.492ZM202.256 404.46C202.256 404.668 202.244 404.888 202.22 405.12H196.964C197.004 405.768 197.224 406.276 197.624 406.644C198.032 407.004 198.524 407.184 199.1 407.184C199.572 407.184 199.964 407.076 200.276 406.86C200.596 406.636 200.82 406.34 200.948 405.972H202.124C201.948 406.604 201.596 407.12 201.068 407.52C200.54 407.912 199.884 408.108 199.1 408.108C198.476 408.108 197.916 407.968 197.42 407.688C196.932 407.408 196.548 407.012 196.268 406.5C195.988 405.98 195.848 405.38 195.848 404.7C195.848 404.02 195.984 403.424 196.256 402.912C196.528 402.4 196.908 402.008 197.396 401.736C197.892 401.456 198.46 401.316 199.1 401.316C199.724 401.316 200.276 401.452 200.756 401.724C201.236 401.996 201.604 402.372 201.86 402.852C202.124 403.324 202.256 403.86 202.256 404.46ZM201.128 404.232C201.128 403.816 201.036 403.46 200.852 403.164C200.668 402.86 200.416 402.632 200.096 402.48C199.784 402.32 199.436 402.24 199.052 402.24C198.5 402.24 198.028 402.416 197.636 402.768C197.252 403.12 197.032 403.608 196.976 404.232H201.128ZM211.605 401.304C212.117 401.304 212.573 401.412 212.973 401.628C213.373 401.836 213.689 402.152 213.921 402.576C214.153 403 214.269 403.516 214.269 404.124V408H213.189V404.28C213.189 403.624 213.025 403.124 212.697 402.78C212.377 402.428 211.941 402.252 211.389 402.252C210.821 402.252 210.369 402.436 210.033 402.804C209.697 403.164 209.529 403.688 209.529 404.376V408H208.449V404.28C208.449 403.624 208.285 403.124 207.957 402.78C207.637 402.428 207.201 402.252 206.649 402.252C206.081 402.252 205.629 402.436 205.293 402.804C204.957 403.164 204.789 403.688 204.789 404.376V408H203.697V401.424H204.789V402.372C205.005 402.028 205.293 401.764 205.653 401.58C206.021 401.396 206.425 401.304 206.865 401.304C207.417 401.304 207.905 401.428 208.329 401.676C208.753 401.924 209.069 402.288 209.277 402.768C209.461 402.304 209.765 401.944 210.189 401.688C210.613 401.432 211.085 401.304 211.605 401.304Z" fill="black"/>
<path d="M180.016 520.112H182.944V521H178.924V512.636H180.016V520.112ZM186.972 521.108C186.356 521.108 185.796 520.968 185.292 520.688C184.796 520.408 184.404 520.012 184.116 519.5C183.836 518.98 183.696 518.38 183.696 517.7C183.696 517.028 183.84 516.436 184.128 515.924C184.424 515.404 184.824 515.008 185.328 514.736C185.832 514.456 186.396 514.316 187.02 514.316C187.644 514.316 188.208 514.456 188.712 514.736C189.216 515.008 189.612 515.4 189.9 515.912C190.196 516.424 190.344 517.02 190.344 517.7C190.344 518.38 190.192 518.98 189.888 519.5C189.592 520.012 189.188 520.408 188.676 520.688C188.164 520.968 187.596 521.108 186.972 521.108ZM186.972 520.148C187.364 520.148 187.732 520.056 188.076 519.872C188.42 519.688 188.696 519.412 188.904 519.044C189.12 518.676 189.228 518.228 189.228 517.7C189.228 517.172 189.124 516.724 188.916 516.356C188.708 515.988 188.436 515.716 188.1 515.54C187.764 515.356 187.4 515.264 187.008 515.264C186.608 515.264 186.24 515.356 185.904 515.54C185.576 515.716 185.312 515.988 185.112 516.356C184.912 516.724 184.812 517.172 184.812 517.7C184.812 518.236 184.908 518.688 185.1 519.056C185.3 519.424 185.564 519.7 185.892 519.884C186.22 520.06 186.58 520.148 186.972 520.148ZM192.871 515.492C193.063 515.116 193.335 514.824 193.687 514.616C194.047 514.408 194.483 514.304 194.995 514.304V515.432H194.707C193.483 515.432 192.871 516.096 192.871 517.424V521H191.779V514.424H192.871V515.492ZM202.256 517.46C202.256 517.668 202.244 517.888 202.22 518.12H196.964C197.004 518.768 197.224 519.276 197.624 519.644C198.032 520.004 198.524 520.184 199.1 520.184C199.572 520.184 199.964 520.076 200.276 519.86C200.596 519.636 200.82 519.34 200.948 518.972H202.124C201.948 519.604 201.596 520.12 201.068 520.52C200.54 520.912 199.884 521.108 199.1 521.108C198.476 521.108 197.916 520.968 197.42 520.688C196.932 520.408 196.548 520.012 196.268 519.5C195.988 518.98 195.848 518.38 195.848 517.7C195.848 517.02 195.984 516.424 196.256 515.912C196.528 515.4 196.908 515.008 197.396 514.736C197.892 514.456 198.46 514.316 199.1 514.316C199.724 514.316 200.276 514.452 200.756 514.724C201.236 514.996 201.604 515.372 201.86 515.852C202.124 516.324 202.256 516.86 202.256 517.46ZM201.128 517.232C201.128 516.816 201.036 516.46 200.852 516.164C200.668 515.86 200.416 515.632 200.096 515.48C199.784 515.32 199.436 515.24 199.052 515.24C198.5 515.24 198.028 515.416 197.636 515.768C197.252 516.12 197.032 516.608 196.976 517.232H201.128ZM211.605 514.304C212.117 514.304 212.573 514.412 212.973 514.628C213.373 514.836 213.689 515.152 213.921 515.576C214.153 516 214.269 516.516 214.269 517.124V521H213.189V517.28C213.189 516.624 213.025 516.124 212.697 515.78C212.377 515.428 211.941 515.252 211.389 515.252C210.821 515.252 210.369 515.436 210.033 515.804C209.697 516.164 209.529 516.688 209.529 517.376V521H208.449V517.28C208.449 516.624 208.285 516.124 207.957 515.78C207.637 515.428 207.201 515.252 206.649 515.252C206.081 515.252 205.629 515.436 205.293 515.804C204.957 516.164 204.789 516.688 204.789 517.376V521H203.697V514.424H204.789V515.372C205.005 515.028 205.293 514.764 205.653 514.58C206.021 514.396 206.425 514.304 206.865 514.304C207.417 514.304 207.905 514.428 208.329 514.676C208.753 514.924 209.069 515.288 209.277 515.768C209.461 515.304 209.765 514.944 210.189 514.688C210.613 514.432 211.085 514.304 211.605 514.304Z" fill="black"/>
<path d="M59.8947 448L57.0347 443.7L54.5147 448H50.6347L55.1347 440.86L50.5347 433.96H54.5147L57.3347 438.2L59.8147 433.96H63.6947L59.2347 441.04L63.8747 448H59.8947ZM74.1916 448L71.3316 443.7L68.8116 448H64.9316L69.4316 440.86L64.8316 433.96H68.8116L71.6316 438.2L74.1116 433.96H77.9916L73.5316 441.04L78.1716 448H74.1916ZM88.4884 448L85.6284 443.7L83.1084 448H79.2284L83.7284 440.86L79.1284 433.96H83.1084L85.9284 438.2L88.4084 433.96H92.2884L87.8284 441.04L92.4684 448H88.4884Z" fill="black"/>
<path d="M59.8947 561L57.0347 556.7L54.5147 561H50.6347L55.1347 553.86L50.5347 546.96H54.5147L57.3347 551.2L59.8147 546.96H63.6947L59.2347 554.04L63.8747 561H59.8947ZM74.1916 561L71.3316 556.7L68.8116 561H64.9316L69.4316 553.86L64.8316 546.96H68.8116L71.6316 551.2L74.1116 546.96H77.9916L73.5316 554.04L78.1716 561H74.1916ZM88.4884 561L85.6284 556.7L83.1084 561H79.2284L83.7284 553.86L79.1284 546.96H83.1084L85.9284 551.2L88.4084 546.96H92.2884L87.8284 554.04L92.4684 561H88.4884Z" fill="black"/>
<path d="M278.895 448L276.035 443.7L273.515 448H269.635L274.135 440.86L269.535 433.96H273.515L276.335 438.2L278.815 433.96H282.695L278.235 441.04L282.875 448H278.895ZM293.192 448L290.332 443.7L287.812 448H283.932L288.432 440.86L283.832 433.96H287.812L290.632 438.2L293.112 433.96H296.992L292.532 441.04L297.172 448H293.192ZM307.488 448L304.628 443.7L302.108 448H298.228L302.728 440.86L298.128 433.96H302.108L304.928 438.2L307.408 433.96H311.288L306.828 441.04L311.468 448H307.488Z" fill="black"/>
<path d="M169.895 448L167.035 443.7L164.515 448H160.635L165.135 440.86L160.535 433.96H164.515L167.335 438.2L169.815 433.96H173.695L169.235 441.04L173.875 448H169.895ZM184.192 448L181.332 443.7L178.812 448H174.932L179.432 440.86L174.832 433.96H178.812L181.632 438.2L184.112 433.96H187.992L183.532 441.04L188.172 448H184.192ZM198.488 448L195.628 443.7L193.108 448H189.228L193.728 440.86L189.128 433.96H193.108L195.928 438.2L198.408 433.96H202.288L197.828 441.04L202.468 448H198.488Z" fill="black"/>
<path d="M169.895 561L167.035 556.7L164.515 561H160.635L165.135 553.86L160.535 546.96H164.515L167.335 551.2L169.815 546.96H173.695L169.235 554.04L173.875 561H169.895ZM184.192 561L181.332 556.7L178.812 561H174.932L179.432 553.86L174.832 546.96H178.812L181.632 551.2L184.112 546.96H187.992L183.532 554.04L188.172 561H184.192ZM198.488 561L195.628 556.7L193.108 561H189.228L193.728 553.86L189.128 546.96H193.108L195.928 551.2L198.408 546.96H202.288L197.828 554.04L202.468 561H198.488Z" fill="black"/>
<rect x="24" y="327" width="228" height="36" rx="18" fill="#D9D9D9"/>
<g filter="url(#filter0_d_1_166)">
<rect x="24" y="327" width="75" height="36" rx="18" fill="#FDFDFD"/>
</g>
<path d="M43.4476 348.112H46.3756V349H42.3556V340.636H43.4476V348.112ZM50.4033 349.108C49.7873 349.108 49.2273 348.968 48.7233 348.688C48.2273 348.408 47.8353 348.012 47.5473 347.5C47.2673 346.98 47.1273 346.38 47.1273 345.7C47.1273 345.028 47.2713 344.436 47.5593 343.924C47.8553 343.404 48.2553 343.008 48.7593 342.736C49.2633 342.456 49.8273 342.316 50.4513 342.316C51.0753 342.316 51.6393 342.456 52.1433 342.736C52.6473 343.008 53.0433 343.4 53.3313 343.912C53.6273 344.424 53.7753 345.02 53.7753 345.7C53.7753 346.38 53.6233 346.98 53.3193 347.5C53.0233 348.012 52.6193 348.408 52.1073 348.688C51.5953 348.968 51.0273 349.108 50.4033 349.108ZM50.4033 348.148C50.7953 348.148 51.1633 348.056 51.5073 347.872C51.8513 347.688 52.1273 347.412 52.3353 347.044C52.5513 346.676 52.6593 346.228 52.6593 345.7C52.6593 345.172 52.5553 344.724 52.3473 344.356C52.1393 343.988 51.8673 343.716 51.5313 343.54C51.1953 343.356 50.8313 343.264 50.4393 343.264C50.0393 343.264 49.6713 343.356 49.3353 343.54C49.0073 343.716 48.7433 343.988 48.5433 344.356C48.3433 344.724 48.2433 345.172 48.2433 345.7C48.2433 346.236 48.3393 346.688 48.5313 347.056C48.7313 347.424 48.9953 347.7 49.3233 347.884C49.6513 348.06 50.0113 348.148 50.4033 348.148ZM56.3031 343.492C56.4951 343.116 56.7671 342.824 57.1191 342.616C57.4791 342.408 57.9151 342.304 58.4271 342.304V343.432H58.1391C56.9151 343.432 56.3031 344.096 56.3031 345.424V349H55.2111V342.424H56.3031V343.492ZM65.6877 345.46C65.6877 345.668 65.6757 345.888 65.6517 346.12H60.3957C60.4357 346.768 60.6557 347.276 61.0557 347.644C61.4637 348.004 61.9557 348.184 62.5317 348.184C63.0037 348.184 63.3957 348.076 63.7077 347.86C64.0277 347.636 64.2517 347.34 64.3797 346.972H65.5557C65.3797 347.604 65.0277 348.12 64.4997 348.52C63.9717 348.912 63.3157 349.108 62.5317 349.108C61.9077 349.108 61.3477 348.968 60.8517 348.688C60.3637 348.408 59.9797 348.012 59.6997 347.5C59.4197 346.98 59.2797 346.38 59.2797 345.7C59.2797 345.02 59.4157 344.424 59.6877 343.912C59.9597 343.4 60.3397 343.008 60.8277 342.736C61.3237 342.456 61.8917 342.316 62.5317 342.316C63.1557 342.316 63.7077 342.452 64.1877 342.724C64.6677 342.996 65.0357 343.372 65.2917 343.852C65.5557 344.324 65.6877 344.86 65.6877 345.46ZM64.5597 345.232C64.5597 344.816 64.4677 344.46 64.2837 344.164C64.0997 343.86 63.8477 343.632 63.5277 343.48C63.2157 343.32 62.8677 343.24 62.4837 343.24C61.9317 343.24 61.4597 343.416 61.0677 343.768C60.6837 344.12 60.4637 344.608 60.4077 345.232H64.5597ZM75.0371 342.304C75.5491 342.304 76.0051 342.412 76.4051 342.628C76.8051 342.836 77.1211 343.152 77.3531 343.576C77.5851 344 77.7011 344.516 77.7011 345.124V349H76.6211V345.28C76.6211 344.624 76.4571 344.124 76.1291 343.78C75.8091 343.428 75.3731 343.252 74.8211 343.252C74.2531 343.252 73.8011 343.436 73.4651 343.804C73.1291 344.164 72.9611 344.688 72.9611 345.376V349H71.8811V345.28C71.8811 344.624 71.7171 344.124 71.3891 343.78C71.0691 343.428 70.6331 343.252 70.0811 343.252C69.5131 343.252 69.0611 343.436 68.7251 343.804C68.3891 344.164 68.2211 344.688 68.2211 345.376V349H67.1291V342.424H68.2211V343.372C68.4371 343.028 68.7251 342.764 69.0851 342.58C69.4531 342.396 69.8571 342.304 70.2971 342.304C70.8491 342.304 71.3371 342.428 71.7611 342.676C72.1851 342.924 72.5011 343.288 72.7091 343.768C72.8931 343.304 73.1971 342.944 73.6211 342.688C74.0451 342.432 74.5171 342.304 75.0371 342.304Z" fill="black"/>
<path d="M121.448 348.112H124.376V349H120.356V340.636H121.448V348.112ZM128.403 349.108C127.787 349.108 127.227 348.968 126.723 348.688C126.227 348.408 125.835 348.012 125.547 347.5C125.267 346.98 125.127 346.38 125.127 345.7C125.127 345.028 125.271 344.436 125.559 343.924C125.855 343.404 126.255 343.008 126.759 342.736C127.263 342.456 127.827 342.316 128.451 342.316C129.075 342.316 129.639 342.456 130.143 342.736C130.647 343.008 131.043 343.4 131.331 343.912C131.627 344.424 131.775 345.02 131.775 345.7C131.775 346.38 131.623 346.98 131.319 347.5C131.023 348.012 130.619 348.408 130.107 348.688C129.595 348.968 129.027 349.108 128.403 349.108ZM128.403 348.148C128.795 348.148 129.163 348.056 129.507 347.872C129.851 347.688 130.127 347.412 130.335 347.044C130.551 346.676 130.659 346.228 130.659 345.7C130.659 345.172 130.555 344.724 130.347 344.356C130.139 343.988 129.867 343.716 129.531 343.54C129.195 343.356 128.831 343.264 128.439 343.264C128.039 343.264 127.671 343.356 127.335 343.54C127.007 343.716 126.743 343.988 126.543 344.356C126.343 344.724 126.243 345.172 126.243 345.7C126.243 346.236 126.339 346.688 126.531 347.056C126.731 347.424 126.995 347.7 127.323 347.884C127.651 348.06 128.011 348.148 128.403 348.148ZM134.303 343.492C134.495 343.116 134.767 342.824 135.119 342.616C135.479 342.408 135.915 342.304 136.427 342.304V343.432H136.139C134.915 343.432 134.303 344.096 134.303 345.424V349H133.211V342.424H134.303V343.492ZM143.688 345.46C143.688 345.668 143.676 345.888 143.652 346.12H138.396C138.436 346.768 138.656 347.276 139.056 347.644C139.464 348.004 139.956 348.184 140.532 348.184C141.004 348.184 141.396 348.076 141.708 347.86C142.028 347.636 142.252 347.34 142.38 346.972H143.556C143.38 347.604 143.028 348.12 142.5 348.52C141.972 348.912 141.316 349.108 140.532 349.108C139.908 349.108 139.348 348.968 138.852 348.688C138.364 348.408 137.98 348.012 137.7 347.5C137.42 346.98 137.28 346.38 137.28 345.7C137.28 345.02 137.416 344.424 137.688 343.912C137.96 343.4 138.34 343.008 138.828 342.736C139.324 342.456 139.892 342.316 140.532 342.316C141.156 342.316 141.708 342.452 142.188 342.724C142.668 342.996 143.036 343.372 143.292 343.852C143.556 344.324 143.688 344.86 143.688 345.46ZM142.56 345.232C142.56 344.816 142.468 344.46 142.284 344.164C142.1 343.86 141.848 343.632 141.528 343.48C141.216 343.32 140.868 343.24 140.484 343.24C139.932 343.24 139.46 343.416 139.068 343.768C138.684 344.12 138.464 344.608 138.408 345.232H142.56ZM153.037 342.304C153.549 342.304 154.005 342.412 154.405 342.628C154.805 342.836 155.121 343.152 155.353 343.576C155.585 344 155.701 344.516 155.701 345.124V349H154.621V345.28C154.621 344.624 154.457 344.124 154.129 343.78C153.809 343.428 153.373 343.252 152.821 343.252C152.253 343.252 151.801 343.436 151.465 343.804C151.129 344.164 150.961 344.688 150.961 345.376V349H149.881V345.28C149.881 344.624 149.717 344.124 149.389 343.78C149.069 343.428 148.633 343.252 148.081 343.252C147.513 343.252 147.061 343.436 146.725 343.804C146.389 344.164 146.221 344.688 146.221 345.376V349H145.129V342.424H146.221V343.372C146.437 343.028 146.725 342.764 147.085 342.58C147.453 342.396 147.857 342.304 148.297 342.304C148.849 342.304 149.337 342.428 149.761 342.676C150.185 342.924 150.501 343.288 150.709 343.768C150.893 343.304 151.197 342.944 151.621 342.688C152.045 342.432 152.517 342.304 153.037 342.304Z" fill="#A1A1A1"/>
<path d="M199.448 348.112H202.376V349H198.356V340.636H199.448V348.112ZM206.403 349.108C205.787 349.108 205.227 348.968 204.723 348.688C204.227 348.408 203.835 348.012 203.547 347.5C203.267 346.98 203.127 346.38 203.127 345.7C203.127 345.028 203.271 344.436 203.559 343.924C203.855 343.404 204.255 343.008 204.759 342.736C205.263 342.456 205.827 342.316 206.451 342.316C207.075 342.316 207.639 342.456 208.143 342.736C208.647 343.008 209.043 343.4 209.331 343.912C209.627 344.424 209.775 345.02 209.775 345.7C209.775 346.38 209.623 346.98 209.319 347.5C209.023 348.012 208.619 348.408 208.107 348.688C207.595 348.968 207.027 349.108 206.403 349.108ZM206.403 348.148C206.795 348.148 207.163 348.056 207.507 347.872C207.851 347.688 208.127 347.412 208.335 347.044C208.551 346.676 208.659 346.228 208.659 345.7C208.659 345.172 208.555 344.724 208.347 344.356C208.139 343.988 207.867 343.716 207.531 343.54C207.195 343.356 206.831 343.264 206.439 343.264C206.039 343.264 205.671 343.356 205.335 343.54C205.007 343.716 204.743 343.988 204.543 344.356C204.343 344.724 204.243 345.172 204.243 345.7C204.243 346.236 204.339 346.688 204.531 347.056C204.731 347.424 204.995 347.7 205.323 347.884C205.651 348.06 206.011 348.148 206.403 348.148ZM212.303 343.492C212.495 343.116 212.767 342.824 213.119 342.616C213.479 342.408 213.915 342.304 214.427 342.304V343.432H214.139C212.915 343.432 212.303 344.096 212.303 345.424V349H211.211V342.424H212.303V343.492ZM221.688 345.46C221.688 345.668 221.676 345.888 221.652 346.12H216.396C216.436 346.768 216.656 347.276 217.056 347.644C217.464 348.004 217.956 348.184 218.532 348.184C219.004 348.184 219.396 348.076 219.708 347.86C220.028 347.636 220.252 347.34 220.38 346.972H221.556C221.38 347.604 221.028 348.12 220.5 348.52C219.972 348.912 219.316 349.108 218.532 349.108C217.908 349.108 217.348 348.968 216.852 348.688C216.364 348.408 215.98 348.012 215.7 347.5C215.42 346.98 215.28 346.38 215.28 345.7C215.28 345.02 215.416 344.424 215.688 343.912C215.96 343.4 216.34 343.008 216.828 342.736C217.324 342.456 217.892 342.316 218.532 342.316C219.156 342.316 219.708 342.452 220.188 342.724C220.668 342.996 221.036 343.372 221.292 343.852C221.556 344.324 221.688 344.86 221.688 345.46ZM220.56 345.232C220.56 344.816 220.468 344.46 220.284 344.164C220.1 343.86 219.848 343.632 219.528 343.48C219.216 343.32 218.868 343.24 218.484 343.24C217.932 343.24 217.46 343.416 217.068 343.768C216.684 344.12 216.464 344.608 216.408 345.232H220.56ZM231.037 342.304C231.549 342.304 232.005 342.412 232.405 342.628C232.805 342.836 233.121 343.152 233.353 343.576C233.585 344 233.701 344.516 233.701 345.124V349H232.621V345.28C232.621 344.624 232.457 344.124 232.129 343.78C231.809 343.428 231.373 343.252 230.821 343.252C230.253 343.252 229.801 343.436 229.465 343.804C229.129 344.164 228.961 344.688 228.961 345.376V349H227.881V345.28C227.881 344.624 227.717 344.124 227.389 343.78C227.069 343.428 226.633 343.252 226.081 343.252C225.513 343.252 225.061 343.436 224.725 343.804C224.389 344.164 224.221 344.688 224.221 345.376V349H223.129V342.424H224.221V343.372C224.437 343.028 224.725 342.764 225.085 342.58C225.453 342.396 225.857 342.304 226.297 342.304C226.849 342.304 227.337 342.428 227.761 342.676C228.185 342.924 228.501 343.288 228.709 343.768C228.893 343.304 229.197 342.944 229.621 342.688C230.045 342.432 230.517 342.304 231.037 342.304Z" fill="#A1A1A1"/>
<rect x="264" y="335.5" width="72" height="19" rx="9.5" stroke="#636267"/>
<path d="M272.18 347.76H274.62V348.5H271.27V341.53H272.18V347.76ZM277.976 348.59C277.463 348.59 276.996 348.473 276.576 348.24C276.163 348.007 275.836 347.677 275.596 347.25C275.363 346.817 275.246 346.317 275.246 345.75C275.246 345.19 275.366 344.697 275.606 344.27C275.853 343.837 276.186 343.507 276.606 343.28C277.026 343.047 277.496 342.93 278.016 342.93C278.536 342.93 279.006 343.047 279.426 343.28C279.846 343.507 280.176 343.833 280.416 344.26C280.663 344.687 280.786 345.183 280.786 345.75C280.786 346.317 280.66 346.817 280.406 347.25C280.16 347.677 279.823 348.007 279.396 348.24C278.97 348.473 278.496 348.59 277.976 348.59ZM277.976 347.79C278.303 347.79 278.61 347.713 278.896 347.56C279.183 347.407 279.413 347.177 279.586 346.87C279.766 346.563 279.856 346.19 279.856 345.75C279.856 345.31 279.77 344.937 279.596 344.63C279.423 344.323 279.196 344.097 278.916 343.95C278.636 343.797 278.333 343.72 278.006 343.72C277.673 343.72 277.366 343.797 277.086 343.95C276.813 344.097 276.593 344.323 276.426 344.63C276.26 344.937 276.176 345.31 276.176 345.75C276.176 346.197 276.256 346.573 276.416 346.88C276.583 347.187 276.803 347.417 277.076 347.57C277.35 347.717 277.65 347.79 277.976 347.79ZM281.643 345.75C281.643 345.183 281.756 344.69 281.983 344.27C282.21 343.843 282.523 343.513 282.923 343.28C283.33 343.047 283.793 342.93 284.313 342.93C284.986 342.93 285.54 343.093 285.973 343.42C286.413 343.747 286.703 344.2 286.843 344.78H285.863C285.77 344.447 285.586 344.183 285.313 343.99C285.046 343.797 284.713 343.7 284.313 343.7C283.793 343.7 283.373 343.88 283.053 344.24C282.733 344.593 282.573 345.097 282.573 345.75C282.573 346.41 282.733 346.92 283.053 347.28C283.373 347.64 283.793 347.82 284.313 347.82C284.713 347.82 285.046 347.727 285.313 347.54C285.58 347.353 285.763 347.087 285.863 346.74H286.843C286.696 347.3 286.403 347.75 285.963 348.09C285.523 348.423 284.973 348.59 284.313 348.59C283.793 348.59 283.33 348.473 282.923 348.24C282.523 348.007 282.21 347.677 281.983 347.25C281.756 346.823 281.643 346.323 281.643 345.75ZM287.717 345.74C287.717 345.18 287.83 344.69 288.057 344.27C288.284 343.843 288.594 343.513 288.987 343.28C289.387 343.047 289.83 342.93 290.317 342.93C290.797 342.93 291.214 343.033 291.567 343.24C291.92 343.447 292.184 343.707 292.357 344.02V343.02H293.277V348.5H292.357V347.48C292.177 347.8 291.907 348.067 291.547 348.28C291.194 348.487 290.78 348.59 290.307 348.59C289.82 348.59 289.38 348.47 288.987 348.23C288.594 347.99 288.284 347.653 288.057 347.22C287.83 346.787 287.717 346.293 287.717 345.74ZM292.357 345.75C292.357 345.337 292.274 344.977 292.107 344.67C291.94 344.363 291.714 344.13 291.427 343.97C291.147 343.803 290.837 343.72 290.497 343.72C290.157 343.72 289.847 343.8 289.567 343.96C289.287 344.12 289.064 344.353 288.897 344.66C288.73 344.967 288.647 345.327 288.647 345.74C288.647 346.16 288.73 346.527 288.897 346.84C289.064 347.147 289.287 347.383 289.567 347.55C289.847 347.71 290.157 347.79 290.497 347.79C290.837 347.79 291.147 347.71 291.427 347.55C291.714 347.383 291.94 347.147 292.107 346.84C292.274 346.527 292.357 346.163 292.357 345.75ZM295.925 343.77V347C295.925 347.267 295.982 347.457 296.095 347.57C296.208 347.677 296.405 347.73 296.685 347.73H297.355V348.5H296.535C296.028 348.5 295.648 348.383 295.395 348.15C295.142 347.917 295.015 347.533 295.015 347V343.77H294.305V343.02H295.015V341.64H295.925V343.02H297.355V343.77H295.925ZM298.928 342.13C298.754 342.13 298.608 342.07 298.488 341.95C298.368 341.83 298.308 341.683 298.308 341.51C298.308 341.337 298.368 341.19 298.488 341.07C298.608 340.95 298.754 340.89 298.928 340.89C299.094 340.89 299.234 340.95 299.348 341.07C299.468 341.19 299.528 341.337 299.528 341.51C299.528 341.683 299.468 341.83 299.348 341.95C299.234 342.07 299.094 342.13 298.928 342.13ZM299.368 343.02V348.5H298.458V343.02H299.368ZM303.308 348.59C302.795 348.59 302.328 348.473 301.908 348.24C301.495 348.007 301.168 347.677 300.928 347.25C300.695 346.817 300.578 346.317 300.578 345.75C300.578 345.19 300.698 344.697 300.938 344.27C301.185 343.837 301.518 343.507 301.938 343.28C302.358 343.047 302.828 342.93 303.348 342.93C303.868 342.93 304.338 343.047 304.758 343.28C305.178 343.507 305.508 343.833 305.748 344.26C305.995 344.687 306.118 345.183 306.118 345.75C306.118 346.317 305.992 346.817 305.738 347.25C305.492 347.677 305.155 348.007 304.728 348.24C304.302 348.473 303.828 348.59 303.308 348.59ZM303.308 347.79C303.635 347.79 303.942 347.713 304.228 347.56C304.515 347.407 304.745 347.177 304.918 346.87C305.098 346.563 305.188 346.19 305.188 345.75C305.188 345.31 305.102 344.937 304.928 344.63C304.755 344.323 304.528 344.097 304.248 343.95C303.968 343.797 303.665 343.72 303.338 343.72C303.005 343.72 302.698 343.797 302.418 343.95C302.145 344.097 301.925 344.323 301.758 344.63C301.592 344.937 301.508 345.31 301.508 345.75C301.508 346.197 301.588 346.573 301.748 346.88C301.915 347.187 302.135 347.417 302.408 347.57C302.682 347.717 302.982 347.79 303.308 347.79ZM309.985 342.92C310.652 342.92 311.192 343.123 311.605 343.53C312.018 343.93 312.225 344.51 312.225 345.27V348.5H311.325V345.4C311.325 344.853 311.188 344.437 310.915 344.15C310.642 343.857 310.268 343.71 309.795 343.71C309.315 343.71 308.932 343.86 308.645 344.16C308.365 344.46 308.225 344.897 308.225 345.47V348.5H307.315V343.02H308.225V343.8C308.405 343.52 308.648 343.303 308.955 343.15C309.268 342.997 309.612 342.92 309.985 342.92Z" fill="#636267"/>
<path d="M329.5 343.5L326.5 346.5L323.5 343.5" stroke="#636267" stroke-linecap="round"/>
<path d="M299.947 601.44L297.859 607H296.803L294.707 601.44H295.683L297.331 606.064L298.987 601.44H299.947ZM301.173 602.008C301.008 602.008 300.869 601.952 300.757 601.84C300.645 601.728 300.589 601.589 300.589 601.424C300.589 601.259 300.645 601.12 300.757 601.008C300.869 600.896 301.008 600.84 301.173 600.84C301.333 600.84 301.469 600.896 301.581 601.008C301.693 601.12 301.749 601.259 301.749 601.424C301.749 601.589 301.693 601.728 301.581 601.84C301.469 601.952 301.333 602.008 301.173 602.008ZM301.621 602.592V607H300.709V602.592H301.621ZM306.859 604.688C306.859 604.853 306.848 605.003 306.827 605.136H303.459C303.485 605.488 303.616 605.771 303.851 605.984C304.085 606.197 304.373 606.304 304.715 606.304C305.205 606.304 305.552 606.099 305.755 605.688H306.739C306.605 606.093 306.363 606.427 306.011 606.688C305.664 606.944 305.232 607.072 304.715 607.072C304.293 607.072 303.915 606.979 303.579 606.792C303.248 606.6 302.987 606.333 302.795 605.992C302.608 605.645 302.515 605.245 302.515 604.792C302.515 604.339 302.605 603.941 302.787 603.6C302.973 603.253 303.232 602.987 303.563 602.8C303.899 602.613 304.283 602.52 304.715 602.52C305.131 602.52 305.501 602.611 305.827 602.792C306.152 602.973 306.405 603.229 306.587 603.56C306.768 603.885 306.859 604.261 306.859 604.688ZM305.907 604.4C305.901 604.064 305.781 603.795 305.547 603.592C305.312 603.389 305.021 603.288 304.675 603.288C304.36 603.288 304.091 603.389 303.867 603.592C303.643 603.789 303.509 604.059 303.467 604.4H305.907ZM313.676 602.592L312.308 607H311.348L310.46 603.744L309.572 607H308.612L307.236 602.592H308.164L309.084 606.136L310.02 602.592H310.972L311.868 606.12L312.78 602.592H313.676ZM322.292 601.44V607H321.38V603.192L319.684 607H319.052L317.348 603.192V607H316.436V601.44H317.42L319.372 605.8L321.316 601.44H322.292ZM325.403 607.072C324.987 607.072 324.611 606.979 324.275 606.792C323.939 606.6 323.675 606.333 323.483 605.992C323.291 605.645 323.195 605.245 323.195 604.792C323.195 604.344 323.293 603.947 323.491 603.6C323.688 603.253 323.957 602.987 324.299 602.8C324.64 602.613 325.021 602.52 325.443 602.52C325.864 602.52 326.245 602.613 326.587 602.8C326.928 602.987 327.197 603.253 327.395 603.6C327.592 603.947 327.691 604.344 327.691 604.792C327.691 605.24 327.589 605.637 327.387 605.984C327.184 606.331 326.907 606.6 326.555 606.792C326.208 606.979 325.824 607.072 325.403 607.072ZM325.403 606.28C325.637 606.28 325.856 606.224 326.059 606.112C326.267 606 326.435 605.832 326.563 605.608C326.691 605.384 326.755 605.112 326.755 604.792C326.755 604.472 326.693 604.203 326.571 603.984C326.448 603.76 326.285 603.592 326.083 603.48C325.88 603.368 325.661 603.312 325.427 603.312C325.192 603.312 324.973 603.368 324.771 603.48C324.573 603.592 324.416 603.76 324.299 603.984C324.181 604.203 324.123 604.472 324.123 604.792C324.123 605.267 324.243 605.635 324.483 605.896C324.728 606.152 325.035 606.28 325.403 606.28ZM329.504 603.232C329.638 603.008 329.814 602.835 330.032 602.712C330.256 602.584 330.52 602.52 330.824 602.52V603.464H330.592C330.235 603.464 329.963 603.555 329.776 603.736C329.595 603.917 329.504 604.232 329.504 604.68V607H328.592V602.592H329.504V603.232ZM335.703 604.688C335.703 604.853 335.692 605.003 335.671 605.136H332.303C332.329 605.488 332.46 605.771 332.695 605.984C332.929 606.197 333.217 606.304 333.559 606.304C334.049 606.304 334.396 606.099 334.599 605.688H335.582C335.449 606.093 335.207 606.427 334.855 606.688C334.508 606.944 334.076 607.072 333.559 607.072C333.137 607.072 332.759 606.979 332.423 606.792C332.092 606.6 331.831 606.333 331.639 605.992C331.452 605.645 331.359 605.245 331.359 604.792C331.359 604.339 331.449 603.941 331.631 603.6C331.817 603.253 332.076 602.987 332.407 602.8C332.743 602.613 333.127 602.52 333.559 602.52C333.975 602.52 334.345 602.611 334.671 602.792C334.996 602.973 335.249 603.229 335.431 603.56C335.612 603.885 335.703 604.261 335.703 604.688ZM334.751 604.4C334.745 604.064 334.625 603.795 334.391 603.592C334.156 603.389 333.865 603.288 333.519 603.288C333.204 603.288 332.935 603.389 332.711 603.592C332.487 603.789 332.353 604.059 332.311 604.4H334.751Z" fill="#04A5FF"/>
<defs>
<filter id="filter0_d_1_166" x="21" y="325" width="81" height="42" filterUnits="userSpaceOnUse" color-interpolation-filters="sRGB">
<feFlood flood-opacity="0" result="BackgroundImageFix"/>
<feColorMatrix in="SourceAlpha" type="matrix" values="0 0 0 0 0 0 0 0 0 0 0 0 0 0 0 0 0 0 127 0" result="hardAlpha"/>
<feOffset dy="1"/>
<feGaussianBlur stdDeviation="1.5"/>
<feComposite in2="hardAlpha" operator="out"/>
<feColorMatrix type="matrix" values="0 0 0 0 0 0 0 0 0 0 0 0 0 0 0 0 0 0 0.15 0"/>
<feBlend mode="normal" in2="BackgroundImageFix" result="effect1_dropShadow_1_166"/>
<feBlend mode="normal" in="SourceGraphic" in2="effect1_dropShadow_1_166" result="shape"/>
</filter>
<clipPath id="clip0_1_166">
<rect width="30" height="30" fill="white" transform="translate(292 203)"/>
</clipPath>
</defs>
</svg>
