<?xml version="1.0" encoding="UTF-8"?>
<svg id="Layer_1" xmlns="http://www.w3.org/2000/svg" xmlns:xlink="http://www.w3.org/1999/xlink" version="1.1" viewBox="0 0 605 433">
  <!-- Generator: Adobe Illustrator 29.2.0, SVG Export Plug-In . SVG Version: 2.1.0 Build 108)  -->
  <defs>
    <style>
      .st0, .st1, .st2, .st3, .st4, .st5, .st6 {
        stroke-miterlimit: 10;
      }

      .st0, .st2 {
        stroke: #535cd4;
      }

      .st0, .st5 {
        fill: #fff;
      }

      .st7 {
        fill: #8aaf15;
      }

      .st8 {
        fill: #b4b4b4;
        stroke-linejoin: round;
      }

      .st8, .st6 {
        stroke: #292929;
      }

      .st9 {
        fill: #515902;
      }

      .st10 {
        fill: #6d7f00;
      }

      .st1 {
        stroke: #000;
      }

      .st1, .st2, .st3, .st6 {
        fill: none;
      }

      .st11 {
        opacity: .3;
      }

      .st12 {
        opacity: .15;
      }

      .st13 {
        fill: #8b9937;
      }

      .st2 {
        stroke-width: 3px;
      }

      .st3, .st4, .st5 {
        stroke: #1a2e35;
      }

      .st14 {
        fill: #383838;
      }

      .st15 {
        fill: #afd354;
      }

      .st16 {
        fill: #5c7008;
      }

      .st4 {
        fill: #1a2e35;
      }
    </style>
  </defs>
  <rect class="st0" x="2.5" y="1.5" width="600" height="430" rx="20" ry="20"/>
  <g class="st11">
    <g>
      <g>
        <line class="st1" x1="523.1" y1="110.03" x2="572.51" y2="110.03"/>
        <line class="st1" x1="523.1" y1="127.19" x2="572.51" y2="127.19"/>
        <line class="st1" x1="546.46" y1="127.19" x2="546.46" y2="143.68"/>
        <line class="st1" x1="546.46" y1="93.66" x2="546.46" y2="110.16"/>
        <line class="st1" x1="573.8" y1="110.56" x2="573.8" y2="127.05"/>
        <line class="st1" x1="520.65" y1="110.34" x2="520.65" y2="126.84"/>
      </g>
      <g>
        <line class="st1" x1="549.88" y1="161.48" x2="599.3" y2="161.48"/>
        <line class="st1" x1="549.88" y1="178.63" x2="599.3" y2="178.63"/>
        <line class="st1" x1="573.24" y1="178.63" x2="573.24" y2="195.12"/>
        <line class="st1" x1="573.24" y1="145.1" x2="573.24" y2="161.6"/>
        <line class="st1" x1="600.58" y1="162" x2="600.58" y2="178.5"/>
        <line class="st1" x1="547.43" y1="161.79" x2="547.43" y2="178.28"/>
      </g>
      <line class="st1" x1="520.67" y1="144.67" x2="602.5" y2="144.67"/>
    </g>
    <g>
      <g>
        <line class="st1" x1="523.1" y1="216.08" x2="572.51" y2="216.08"/>
        <line class="st1" x1="523.1" y1="233.23" x2="572.51" y2="233.23"/>
        <line class="st1" x1="546.46" y1="233.23" x2="546.46" y2="249.73"/>
        <line class="st1" x1="546.46" y1="199.71" x2="546.46" y2="216.2"/>
        <line class="st1" x1="573.8" y1="216.61" x2="573.8" y2="233.1"/>
        <line class="st1" x1="520.65" y1="216.39" x2="520.65" y2="232.89"/>
      </g>
      <g>
        <line class="st1" x1="549.88" y1="267.52" x2="599.3" y2="267.52"/>
        <line class="st1" x1="549.88" y1="284.68" x2="599.3" y2="284.68"/>
        <line class="st1" x1="573.24" y1="284.68" x2="573.24" y2="301.17"/>
        <line class="st1" x1="573.24" y1="251.15" x2="573.24" y2="267.65"/>
        <line class="st1" x1="600.58" y1="268.05" x2="600.58" y2="284.55"/>
        <line class="st1" x1="547.43" y1="267.84" x2="547.43" y2="284.33"/>
      </g>
      <line class="st1" x1="520.67" y1="250.72" x2="602.5" y2="250.72"/>
    </g>
    <g>
      <g>
        <line class="st1" x1="12.21" y1="110.03" x2="61.63" y2="110.03"/>
        <line class="st1" x1="12.21" y1="127.19" x2="61.63" y2="127.19"/>
        <line class="st1" x1="35.57" y1="127.19" x2="35.57" y2="143.68"/>
        <line class="st1" x1="35.57" y1="93.66" x2="35.57" y2="110.16"/>
        <line class="st1" x1="62.91" y1="110.56" x2="62.91" y2="127.05"/>
        <line class="st1" x1="9.76" y1="110.34" x2="9.76" y2="126.84"/>
      </g>
      <g>
        <line class="st1" x1="39" y1="161.48" x2="88.42" y2="161.48"/>
        <line class="st1" x1="39" y1="178.63" x2="88.42" y2="178.63"/>
        <line class="st1" x1="62.36" y1="178.63" x2="62.36" y2="195.12"/>
        <line class="st1" x1="62.36" y1="145.1" x2="62.36" y2="161.6"/>
        <line class="st1" x1="89.7" y1="162" x2="89.7" y2="178.5"/>
        <line class="st1" x1="36.55" y1="161.79" x2="36.55" y2="178.28"/>
      </g>
      <line class="st1" x1="9.78" y1="144.67" x2="91.62" y2="144.67"/>
    </g>
    <g>
      <g>
        <line class="st1" x1="12.21" y1="333.62" x2="61.63" y2="333.62"/>
        <line class="st1" x1="12.21" y1="350.78" x2="61.63" y2="350.78"/>
        <line class="st1" x1="35.57" y1="350.78" x2="35.57" y2="367.27"/>
        <line class="st1" x1="35.57" y1="317.25" x2="35.57" y2="333.75"/>
        <line class="st1" x1="62.91" y1="334.15" x2="62.91" y2="350.64"/>
        <line class="st1" x1="9.76" y1="333.93" x2="9.76" y2="350.43"/>
      </g>
      <g>
        <line class="st1" x1="39" y1="385.06" x2="88.42" y2="385.06"/>
        <line class="st1" x1="39" y1="402.22" x2="88.42" y2="402.22"/>
        <line class="st1" x1="62.36" y1="402.22" x2="62.36" y2="418.71"/>
        <line class="st1" x1="62.36" y1="368.69" x2="62.36" y2="385.19"/>
        <line class="st1" x1="89.7" y1="385.59" x2="89.7" y2="402.09"/>
        <line class="st1" x1="36.55" y1="385.38" x2="36.55" y2="401.87"/>
      </g>
      <line class="st1" x1="9.78" y1="368.26" x2="91.62" y2="368.26"/>
    </g>
    <g>
      <g>
        <line class="st1" x1="515.73" y1="331.58" x2="565.15" y2="331.58"/>
        <line class="st1" x1="515.73" y1="348.73" x2="565.15" y2="348.73"/>
        <line class="st1" x1="539.09" y1="348.73" x2="539.09" y2="365.23"/>
        <line class="st1" x1="539.09" y1="315.21" x2="539.09" y2="331.7"/>
        <line class="st1" x1="566.43" y1="332.11" x2="566.43" y2="348.6"/>
        <line class="st1" x1="513.28" y1="331.89" x2="513.28" y2="348.39"/>
      </g>
      <g>
        <line class="st1" x1="542.52" y1="383.02" x2="591.94" y2="383.02"/>
        <line class="st1" x1="542.52" y1="400.18" x2="591.94" y2="400.18"/>
        <line class="st1" x1="565.88" y1="400.18" x2="565.88" y2="416.67"/>
        <line class="st1" x1="565.88" y1="366.65" x2="565.88" y2="383.15"/>
        <line class="st1" x1="593.22" y1="383.55" x2="593.22" y2="400.04"/>
        <line class="st1" x1="540.07" y1="383.33" x2="540.07" y2="399.83"/>
      </g>
      <line class="st1" x1="513.3" y1="366.22" x2="595.14" y2="366.22"/>
    </g>
    <g>
      <line class="st1" x1="11.46" y1="4.82" x2="11.46" y2="18.66"/>
      <g>
        <line class="st1" x1="14.89" y1="36.45" x2="64.31" y2="36.45"/>
        <line class="st1" x1="14.89" y1="53.61" x2="64.31" y2="53.61"/>
        <line class="st1" x1="38.25" y1="53.61" x2="38.25" y2="70.1"/>
        <line class="st1" x1="38.25" y1="20.08" x2="38.25" y2="36.58"/>
        <line class="st1" x1="65.59" y1="36.98" x2="65.59" y2="53.48"/>
        <line class="st1" x1="12.44" y1="36.77" x2="12.44" y2="53.26"/>
      </g>
      <line class="st1" x1="2.5" y1="19.65" x2="67.51" y2="19.65"/>
    </g>
    <g>
      <line class="st1" x1="145.39" y1="414.35" x2="194.81" y2="414.35"/>
      <line class="st1" x1="145.39" y1="431.5" x2="194.81" y2="431.5"/>
      <line class="st1" x1="168.75" y1="397.98" x2="168.75" y2="414.47"/>
      <line class="st1" x1="196.09" y1="414.88" x2="196.09" y2="431.37"/>
    </g>
    <g>
      <line class="st1" x1="336.76" y1="414.35" x2="386.17" y2="414.35"/>
      <line class="st1" x1="360.12" y1="397.98" x2="360.12" y2="414.47"/>
      <line class="st1" x1="387.46" y1="414.88" x2="387.46" y2="431.37"/>
    </g>
    <g>
      <line class="st1" x1="282.61" y1="414.35" x2="332.03" y2="414.35"/>
      <line class="st1" x1="282.61" y1="431.5" x2="332.03" y2="431.5"/>
      <line class="st1" x1="305.98" y1="397.98" x2="305.98" y2="414.47"/>
      <line class="st1" x1="333.31" y1="414.88" x2="333.31" y2="431.37"/>
    </g>
    <g>
      <line class="st1" x1="529.02" y1="27.25" x2="578.44" y2="27.25"/>
      <line class="st1" x1="529.02" y1="44.4" x2="578.44" y2="44.4"/>
      <line class="st1" x1="552.38" y1="10.88" x2="552.38" y2="27.37"/>
      <line class="st1" x1="579.72" y1="27.78" x2="579.72" y2="44.27"/>
    </g>
    <g>
      <g>
        <line class="st1" x1="12.21" y1="216.08" x2="61.63" y2="216.08"/>
        <line class="st1" x1="12.21" y1="233.23" x2="61.63" y2="233.23"/>
        <line class="st1" x1="35.57" y1="233.23" x2="35.57" y2="249.73"/>
        <line class="st1" x1="35.57" y1="199.71" x2="35.57" y2="216.2"/>
        <line class="st1" x1="62.91" y1="216.61" x2="62.91" y2="233.1"/>
        <line class="st1" x1="9.76" y1="216.39" x2="9.76" y2="232.89"/>
      </g>
      <g>
        <line class="st1" x1="39" y1="267.52" x2="88.42" y2="267.52"/>
        <line class="st1" x1="39" y1="284.68" x2="88.42" y2="284.68"/>
        <line class="st1" x1="62.36" y1="284.68" x2="62.36" y2="301.17"/>
        <line class="st1" x1="62.36" y1="251.15" x2="62.36" y2="267.65"/>
        <line class="st1" x1="89.7" y1="268.05" x2="89.7" y2="284.55"/>
        <line class="st1" x1="36.55" y1="267.84" x2="36.55" y2="284.33"/>
      </g>
      <line class="st1" x1="9.78" y1="250.72" x2="91.62" y2="250.72"/>
    </g>
  </g>
  <g>
    <rect class="st12" x="145.53" y="20.77" width="311.92" height="232.69"/>
    <g>
      <g>
        <g>
          <path class="st8" d="M149.41,28.65v190.29c41.56-71.61,61.05-150.3,68.9-190.29h-68.9Z"/>
          <path class="st8" d="M149.21,253.46v149.86h31.98c-9.07-50.63-23.82-115.19-31.98-149.86Z"/>
        </g>
        <path class="st6" d="M166.56,95.65c-3.36,16.08-7.57,34.6-12.75,55.11"/>
        <path class="st6" d="M178.44,28.15s-2.73,22.62-10.48,60.7"/>
        <path class="st6" d="M198.3,28.65s-5.89,30.94-10.46,54.01"/>
      </g>
      <g>
        <path class="st8" d="M454.25,28.65v190.29c-41.56-71.61-61.05-150.3-68.9-190.29h68.9Z"/>
        <path class="st8" d="M453.77,253.46v149.86h-31.98c9.07-50.63,23.82-115.19,31.98-149.86Z"/>
      </g>
      <path class="st6" d="M446.38,175.01c2.31,7.33,4.68,14.51,7.09,21.33"/>
      <path class="st6" d="M417.4,64.65s11.87,54.61,27.14,104.45"/>
      <path class="st6" d="M443.56,108.24c.58,2.72,1.18,5.46,1.79,8.19"/>
      <path class="st6" d="M429.59,30.32s4.76,33.38,12.52,71.04"/>
      <path class="st8" d="M155.36,350.38c-.6-7.78-1.27-16.14-2.02-24.87"/>
      <path class="st8" d="M158.84,401.98s-.96-17.72-2.88-43.66"/>
      <path class="st8" d="M439.48,386.42c-.34,3.01-.62,5.76-.82,8.11"/>
      <path class="st8" d="M449.05,318.75s-5.71,36.12-8.8,61.16"/>
    </g>
    <path class="st5" d="M142.43,17.77l-.7,394.26h318.57l.7-394.26H142.43ZM453.69,403.32H149.05l.7-374.91h304.63l-.7,374.91Z"/>
    <g>
      <line class="st3" x1="302.42" y1="91.12" x2="257.41" y2="136.13"/>
      <line class="st3" x1="316.13" y1="77.41" x2="306.64" y2="86.9"/>
      <line class="st3" x1="266.36" y1="138.43" x2="248.62" y2="156.17"/>
      <line class="st3" x1="283.78" y1="121.01" x2="270.47" y2="134.33"/>
    </g>
    <g>
      <rect class="st5" x="149.76" y="92.1" width="304.63" height="9.82"/>
      <rect class="st5" x="270.41" y="55.38" width="63.33" height="9.82" transform="translate(241.78 362.36) rotate(-90)"/>
    </g>
    <g>
      <polygon class="st5" points="460.35 431.5 142.38 431.5 124.71 411.81 478.01 411.81 460.35 431.5"/>
      <polygon class="st4" points="465.97 425.24 478.01 411.81 124.71 411.81 136.76 425.24 465.97 425.24"/>
      <rect class="st5" x="121.11" y="412.05" width="360.51" height="7.84"/>
    </g>
    <g>
      <line class="st3" x1="375.25" y1="210.82" x2="419.19" y2="166.88"/>
      <line class="st3" x1="357.29" y1="223.95" x2="351.4" y2="229.84"/>
      <line class="st3" x1="383.82" y1="197.42" x2="362.39" y2="218.86"/>
    </g>
  </g>
  <g>
    <path class="st9" d="M322.84,345.14c-.75-3.48-3.74-5-6.72-3.1-1.79,1.14-3.4,2.86-4.55,4.67-3.68,5.81-4.9,12.39-5.2,19.15-.06,1.26-.8,1.22-1.58,1.09-.01-2.4.43-4.85,1.06-7.33,1.03-4.04.09-7.86,1.24-11.87,2.09-7.28,4.36-14.51,6.34-21.82,1.01-3.72,1.54-7.57.39-11.4-.95-3.15-3.71-3.94-5.87-1.5-1.77,2-3.46,4.23-4.59,6.64-2.94,6.29-3.83,13.04-3.7,19.94.03,1.81.08,3.63.12,5.44-.58-1.26-.89-2.54-1.14-3.82-.9-4.53-1.81-9.05-.72-13.69,1.84-7.79,3.72-15.58,5.42-23.41,1.02-4.7,1.58-9.49.43-14.27-.84-3.48-3.57-4.3-5.95-1.65-1.53,1.71-2.88,3.71-3.84,5.79-.55,1.19-.99,2.43-1.4,3.72-.24-5.04.02-9.31,1.46-14.32,1.89-6.55,3.81-13.09,5.33-19.73.56-2.44.15-5.14-.07-7.69-.14-1.64-1.13-3.01-2.85-3.42-1.69-.4-2.86.61-3.86,1.84-3.36,4.14-4.58,9.09-5.27,14.21-.8,5.9-.76,12.19-.02,18.24-.56-2.14-1.26-4.25-2.04-6.31-.64-1.68-2.06-3.21-4.23-2.84-2.07.36-3.65,2.12-3.99,3.98-.73,3.89.01,7.83.66,11.35,1.26,6.86,4.99,12.63,9.48,17.88,2.43,2.83,2.92,6.42,4.14,9.75-1.08-.9-1.95-1.95-2.93-2.88-2.24-2.13-4.66-1.64-5.89,1.21-1.78,4.15-.62,8.11,1.19,11.85,2.74,5.66,7.23,9.98,11.49,14.47,1.62,1.7,2.39,3.97,3.08,6.12.69,2.15.88,4.17.94,6.17-2.22-4.31-5.26-8.1-9.27-11.22-2.15-1.67-4.67-3.1-7.26-3.9-4.15-1.29-7.09,1.66-6.42,5.97.1.62.28,1.23.45,1.83,1.3,4.41,3.73,8.21,6.92,11.39,5.68,5.64,11.59,11.04,17.42,16.53,2.75,2.59,5.03,5.47,6.21,9.12,1.13,3.48,2.25,6.97,3.43,10.43.3.88.79,1.7,1.19,2.55.19-.08.38-.17.57-.25-.18-.56-.35-1.12-.55-1.67-3.01-7.9-3.05-15.41,1.41-23.07,3.38-5.8,5.88-12.15,8.34-18.42,1.45-3.68,2.04-7.7,1.17-11.73ZM290.03,303.6s0,.01,0,.02c-.02,0-.02,0,0-.02ZM302.98,367.82c0,.05,0,.1,0,.16-.02-.08-.05-.15-.07-.23.01,0,.04.03.07.06ZM303.05,368.06s.04.01.04.01c0,0-.02,0-.04-.01Z"/>
    <path class="st13" d="M313.99,385.24c-1.47,1.02-4.29,3.67-5.8,4.72-.46-.88-.91-1.67-1.3-2.5-1.14-2.39-8.72-11.69-4.4-31.35.69-3.12,6.38-16.07,15.79-25.24.09-.14.18-.28.24-.46-8.61,6.29-18.08,9.72-28.83,8.9,8.61-3.24,17.23-6.49,25.85-9.74l-.04-.13c-.81.18-1.62.4-2.44.55-1.88.33-3.77.65-5.66.93-1.63.24-3.27.42-4.91.61-1.48.17-2.97.29-4.45.47-1.77.22-3.53.47-5.29.75-2.48.4-4.9,1.03-7.29,1.89.51-.93,4.15-3.22,6.69-4.27,2.46-1.01,5.01-1.71,7.62-2.29-.27-.03-.53-.08-.8-.09-3.3-.06-6.57-.38-9.8-1.04-2.78-.57-5.48-1.41-8.02-2.69-.04-.02-.07-.05-.12-.08.84.05,1.65.11,2.47.15,1.03.06,2.06.15,3.08.15,2.5.01,5,0,7.5-.03,1.57-.02,3.14-.07,4.7-.09,1.64-.03,3.28-.12,4.92-.06,2.46.08,4.92.25,7.38.38.11,0,.23,0,.37-.09-.12-.05-.24-.11-.36-.14-5.63-1.57-11.15-3.5-16.68-5.4-3.65-1.25-7.3-2.51-11.08-3.28-2.15-.44-4.33-.76-6.41-1.11.18-.04.48-.11.78-.17.31-.06.62-.12.94-.17,1.9-.28,3.81-.4,5.72-.37,2.52.04,5,.34,7.46.82,6.16,1.2,11.99,3.39,17.71,5.92.43.19.87.38,1.35.48-.32-.17-.63-.36-.96-.51-4.27-2-8.53-4.03-12.82-6-6.44-2.95-12.91-5.84-19.13-9.26-.15-.08-.3-.17-.47-.26.48-.09,5.57,1.04,9.49,2.2,3.13.92,6.24,1.91,9.33,2.97,3.08,1.06,6.05,2.41,9,3.84-8.06-6.15-14.57-13.59-19.2-22.65,2.33,2.26,4.64,4.55,7.01,6.77,2.4,2.24,4.83,4.45,7.3,6.62,2.45,2.15,1.71.21-.91-2.67-2.89-3.19-5.51-6.61-7.57-10.41-.53-.98-1-1.99-1.43-3.01,3.95,3.27,7.9,6.54,11.85,9.81.05-.03.09-.07.14-.1-3.41-5.12-6.46-10.41-8.23-16.35,4.9,5.44,9.8,10.87,14.76,16.38-2.76-7.07-5.48-14.07-8.21-21.06,3.39,3.44,6.3,7.22,8.86,11.27,2.56,4.03,4.71,8.27,6.57,12.68-2.63-10.53-4.43-21.17-4.99-32.04.66,1.53,1.33,3.05,1.96,4.58.65,1.57,1.28,3.14,1.89,4.73.6,1.57,1.17,3.15,1.73,4.74.56,1.6,1.09,3.21,1.6,4.83.5,1.59.97,3.19,1.49,4.78-.02-8.9.52-17.71,3.39-26.23.29,7.91,1.24,15.77,1.89,23.65.04,0,.08,0,.11,0,.04-.47.08-.94.11-1.41.09-1.43.15-2.87.27-4.3.16-1.8.33-3.61.58-5.4.33-2.31.65-4.62,1.15-6.9.49-2.28,1.19-4.51,1.8-6.76.01-.04.04-.07.07-.12.04.76.08,1.51.12,2.26.1,2.29.18,4.58.3,6.87.09,1.79.24,3.59.35,5.38.13,2.21.26,4.43.37,6.65.04.84.06,1.68.09,2.52,0,.14.01.28.08.43,2.64-7.99,5.27-15.98,7.91-23.98.05.01.1.03.15.04-.02,8.98-1.22,17.82-3.28,26.56.04,0,.08.02.12.03,3.44-8.44,6.87-16.89,10.31-25.33-.39,7.85-1.81,15.51-4.06,23.02l.13.05c4.07-7.07,8.14-14.14,12.21-21.22-2.15,10.45-5.9,20.3-10.87,29.72,6.31-7.62,12.62-15.23,18.92-22.85-.07.97-3.33,7.86-5.15,11.17-1.98,3.6-4.15,7.09-6.46,10.49.04.03.07.06.11.1,2.45-2.3,4.9-4.61,7.37-6.9,2.48-2.3,4.97-4.59,7.49-6.85-4.04,7.51-9.06,14.31-14.75,20.65,6.79-4.9,13.89-9.19,21.98-11.62-7.49,5.29-14.17,11.54-21.13,17.48,7.64-4,15.47-7.56,23.57-10.52-7.36,6.01-15.15,11.4-23.31,16.27,7.94-3.09,15.92-5.99,24.19-8.08-8.88,5.99-18.11,11.31-28.26,15.2,9.11-.89,18.08-1.77,27.04-2.64,0,.04.01.09.02.13-9.67,4.56-19.85,7.15-30.51,8.04,10.37.55,20.65,1.68,30.82,3.78-1.66.09-3.32.2-4.98.27-1.65.08-3.31.16-4.96.19-3.17.05-6.33.1-9.5.08-2.31-.02-4.61-.14-6.92-.24-.9-.04-1.8-.13-2.72-.12,7.84,1.98,15.54,4.33,23.04,7.37-11.43-.95-22.7-2.77-33.65-6.27,10.2,5.22,20.41,10.44,30.61,15.66-.02.05-.05.1-.07.15-10.67-2.12-20.71-5.88-30.09-11.41,3.9,3.02,7.83,5.99,11.7,9.06,3.87,3.07,7.59,6.31,11.14,9.75-9.25-4.29-17.92-9.49-25.72-16.11,6.15,7.14,12.08,14.44,17.28,22.31-4.12-3.04-7.97-6.38-11.68-9.9.98,1.72,1.99,3.42,2.94,5.15.95,1.74,1.77,3.54,2.42,5.43-5.49-6.09-11.39-11.83-16.04-18.67,2.14,5.8,3.9,11.7,4.86,17.82-4.09-6.13-7.54-12.58-9.97-19.55-.05,0-.1.02-.15.03,0,3.19.08,6.38,0,9.57-.07,3.2-.28,6.39-.49,9.59-2.07-5.27-3.22-10.71-3.55-16.36-.7,3.61-1.19,7.25-1.69,10.89-1.91-4.44-2.45-9.08-2.09-13.89-.07.12-.14.23-.2.35-2.31,5.38-5.4,8.47-6.7,14.19-.48,2.09-4.15,14.77,5.97,27.47Z"/>
    <g>
      <g>
        <path class="st15" d="M287.79,338.43c-3.2,2.18-6,5.06-8.78,7.69,2.28-4.71,5.04-9.38,8.78-13.17-.03-1.31-.09-2.64-.17-4-.41-6.94-1.65-13.37-3.44-19.24-1.84,3.04-4.01,5.83-6.96,7.69,2.35-4.6,2.98-9.6,4.51-14.54-1.39-3.4-2.96-6.56-4.65-9.48-.65,2.33-1.44,4.68-3.22,6.61.62-4.26-.15-8.41-.55-12.49-2.4-3.38-4.91-6.31-7.39-8.75-.45,2.55-.63,5.24-2.64,6.73.53-3.18.13-6.2-.02-9.17-3.9-3.34-7.55-5.39-10.33-5.99-2.09,4.26-2.81,10.72-2.37,18.42,5.33,1.06,10.46,3.55,14.77,6.75-4.77-1.55-9.54-3.1-14.53-3.54.52,5.56,1.59,11.65,3.14,17.95,2.97.13,5.75,2.06,8.41,2.81-2.64.5-5.19-.23-7.78-.36,1.08,4.09,2.35,8.25,3.8,12.39.42,1.2.84,2.43,1.26,3.68,4.14,1.73,7.93,4.07,11.7,6.62-3.44-.78-6.83-2.14-10.43-2.72.32,1.01.64,2.02.95,3.04,4.2,1.26,8.26,2.87,11.55,5.56-3.46-1.56-6.98-2.3-10.7-2.73,5.72,19.37,9.9,40.56,8.06,48.99,4.61-5.98,5.22-7.04,5.22-7.04,0,0,7.43-9.12,10.51-27.7-2.24,1.06-4.1,2.9-5.23,4.99,1.07-2.94,3.3-5.55,5.67-7.91.45-3.4.76-7.09.85-11.07Z"/>
        <path class="st15" d="M276.67,329.93c-2.84-34.34-23.73-59.63-23.73-59.63-2.09,4.26-2.81,10.72-2.37,18.42,5.33,1.06,10.46,3.55,14.77,6.75-4.77-1.55-9.54-3.1-14.53-3.54.52,5.56,1.59,11.65,3.14,17.95,2.97.13,5.75,2.06,8.41,2.81-2.64.5-5.19-.23-7.78-.36,1.08,4.09,2.35,8.25,3.8,12.39.42,1.2.84,2.43,1.26,3.68,4.14,1.73,7.93,4.07,11.7,6.62-3.44-.78-6.83-2.14-10.43-2.72.32,1.01.64,2.02.95,3.04,4.2,1.26,8.26,2.87,11.55,5.56-3.46-1.56-6.98-2.3-10.7-2.73,5.72,19.37,9.9,40.56,8.06,48.99,4.61-5.98,7.99-32.02,5.91-57.23Z"/>
      </g>
      <path class="st15" d="M270.33,386.96c.47-1.11.88-2.3,1.26-3.47.38-1.18.72-2.38,1.04-3.58l.46-1.81c.15-.6.28-1.21.42-1.82.29-1.21.51-2.44.76-3.66.93-4.89,1.55-9.85,1.97-14.82l.15-1.86c.05-.62.1-1.24.13-1.87l.2-3.74c.04-.62.05-1.25.07-1.87l.05-1.87c.02-1.25.08-2.49.06-3.74-.01-2.5.02-4.99-.1-7.48-.01-.62-.06-1.24-.1-1.87l-.12-1.87-.17-1.86c-.05-.62-.11-1.24-.2-1.86-1.14-9.91-3.73-19.64-7.41-28.92-1.84-4.64-3.96-9.17-6.32-13.58-2.36-4.41-4.98-8.67-7.77-12.82,2.82,4.13,5.48,8.37,7.87,12.76,2.39,4.39,4.55,8.91,6.44,13.55,3.76,9.27,6.44,19.01,7.66,28.95.09.62.15,1.24.21,1.87l.19,1.87.14,1.87c.04.63.1,1.25.12,1.88.13,2.5.12,5.01.16,7.51.03,1.25-.02,2.5-.03,3.75l-.03,1.88c-.01.63-.02,1.25-.05,1.88l-.17,3.75c-.02.63-.07,1.25-.11,1.87l-.14,1.87c-.38,4.99-.97,9.98-1.86,14.91-.23,1.23-.45,2.47-.73,3.69-.14.61-.26,1.23-.41,1.84l-.45,1.83c-.32,1.22-.65,2.43-1.03,3.63-.38,1.21-.77,2.39-1.27,3.58l-.87-.39Z"/>
    </g>
    <g>
      <path class="st16" d="M352.71,303.98c4.12-9.4,7.42-17.41-.15-18.07-3.94-.34-8.23,1.15-12.4,3.77-.84,2.72-.91,5.63-1.74,8.19-.63-1.67-1.38-3.64-2.07-5.47-5.06,4.06-9.72,9.56-13.05,15.15,1.17,6.78,2.62,13.18,4.61,19.81-3.41-3.96-5.88-8.27-7.97-13-.58,1.49-1.03,2.94-1.33,4.34-3.02,13.89-9.99,18.58-19.3,31.62-9.31,13.04,3.8,38.46,3.8,38.46-.26-4.13,6.81-13.8,18.05-22.36-3.63-.54-7.12-1.79-10.66-2.5,5.95-.61,11.75-.9,17.41-2.23,9.3-6.57,15.23-15.16,17.49-24.48-5.98,3.07-12.77,3.98-19.33,5.51,7.39-2.8,13.86-6.74,20.21-10.82.19-2.1.21-4.22.05-6.36-.33-4.16,1.23-9.18,3.25-14.24-4.49,1.27-9.16,1.83-13.76,1.57,6.09-1.74,11.53-5.23,16.89-8.92Z"/>
      <g>
        <path class="st16" d="M303.57,391.68s-.06.03-.09.04c-.26.08-.54-.06-.62-.33-2.85-9.09.51-29.91,10.98-40.07.84-.81,1.64-1.58,2.41-2.31,8.57-8.2,12.88-12.31,14.4-29.01,1.68-18.43,21.04-31.73,21.24-31.86.24-.15.54-.09.69.13.15.23.09.54-.13.69-.19.13-19.17,13.17-20.8,31.13-1.56,17.07-6.23,21.54-14.7,29.64-.77.73-1.57,1.5-2.4,2.31-10.05,9.75-13.44,30.42-10.73,39.06.07.23-.03.47-.23.58Z"/>
        <g>
          <path class="st16" d="M350.03,300.5s0,0,0,0l-15.23,8.02c-.15.08-.33.02-.4-.13-.08-.15-.04-.3.13-.4l15.23-8.02c.15-.08.33-.02.4.13.08.14.02.32-.12.4Z"/>
          <path class="st16" d="M331.28,320.3s-.04.02-.06.02c-.16.05-.32-.04-.37-.2l-4.34-13.94c-.05-.16.04-.33.2-.37.16-.05.32.04.37.2l4.34,13.94c.04.14-.02.28-.14.35Z"/>
          <path class="st16" d="M322.56,343.79s-.05.02-.08.03c-.16.03-.32-.07-.35-.23l-3.86-17.68c-.03-.16.07-.32.23-.35.16-.03.32.07.35.23l3.86,17.68c.03.13-.03.26-.15.32Z"/>
          <path class="st16" d="M341.27,331s-.01,0-.02,0l-14.51,7.02c-.15.07-.33,0-.4-.14-.07-.15-.01-.33.14-.4l14.51-7.02c.15-.07.33,0,.4.14.07.14.01.31-.12.39Z"/>
          <path class="st16" d="M329.46,352.94s-.06.03-.09.03l-19,3.71c-.16.03-.32-.07-.35-.24-.03-.16.07-.32.24-.35l19-3.71c.16-.03.32.07.35.24.03.13-.04.26-.15.32Z"/>
          <path class="st16" d="M305.89,365.87s-.03.01-.04.02c-.15.06-.33-.02-.38-.17l-4.8-12.82c-.06-.15.02-.33.17-.38.15-.06.33.02.38.17l4.8,12.82c.05.14,0,.29-.13.36Z"/>
        </g>
      </g>
    </g>
    <g>
      <path class="st16" d="M308.72,342.77c-.52-2.23-1.35-4.38-2.48-6.41-4.64-8.36,1.26-28.97-7.25-25.94-8.52,3.03-13.61,20.17-11.58,29.49.44,2.04.65,3.87.68,5.59,2.2,2.97,3.78,6.27,4.72,9.75-1.53-2.14-3.07-4.28-4.91-6.16-.55,4.59-2.17,8.93-3.45,15.5-2.05,10.56,13.05,22.42,13.05,22.42-1.5-2.8.83-12.71,6.91-22.33,4.02-6.36,5.55-13.04,4.79-19.25-2.26,2.38-4.65,4.6-8.02,5.5,3.18-1.97,5.41-5.01,7.54-8.16Z"/>
      <g>
        <path class="st16" d="M298.46,388.75c-.13.07-.29.04-.4-.08-4.27-4.75-8.03-18.4-4.47-27.52.28-.73.56-1.42.83-2.09,2.95-7.39,4.43-11.1.7-21.72-4.11-11.72,4-25.23,4.08-25.37.1-.16.3-.21.46-.11.16.1.21.3.11.46-.08.13-8.03,13.38-4.02,24.8,3.81,10.86,2.21,14.88-.71,22.19-.26.66-.54,1.35-.82,2.08-3.42,8.75.28,22.32,4.35,26.84.12.14.11.35-.02.47-.02.02-.05.04-.07.05Z"/>
        <g>
          <path class="st16" d="M294.38,329.24c-.07.03-.15.03-.21-.02-.09-.07-.1-.19-.04-.28l7.06-9.14c.07-.09.19-.1.28-.04.09.07.1.19.04.28l-7.06,9.14s-.04.04-.07.06Z"/>
          <path class="st16" d="M295.52,337.41c-.08.04-.18.02-.24-.05l-6.54-7.3c-.07-.08-.07-.21.02-.28.08-.07.21-.07.28.02l6.54,7.3c.07.08.07.21-.02.28-.01.01-.03.02-.04.03Z"/>
          <path class="st16" d="M296.74,354.19c-.08.04-.19.02-.25-.06l-7.28-9.72c-.07-.09-.05-.21.04-.28.09-.06.21-.05.28.04l7.29,9.72c.07.09.05.21-.04.28-.01,0-.02.01-.03.02Z"/>
          <path class="st16" d="M297.69,349.49c-.07.03-.15.03-.22-.03-.09-.07-.1-.2-.03-.28l6.9-8.33c.07-.09.2-.1.28-.03.09.07.1.2.03.28l-6.9,8.33s-.04.04-.07.05Z"/>
          <path class="st16" d="M292.94,365.41c-.09.04-.19.02-.25-.06-.06-.09-.04-.21.05-.28l10.56-7.57c.09-.07.21-.04.28.05.06.09.04.21-.05.28l-10.56,7.57s-.02.01-.03.02Z"/>
          <path class="st16" d="M292.72,372.31c-.07.04-.17.02-.23-.04l-6.5-6.49c-.08-.08-.08-.2,0-.28.08-.08.21-.08.28,0l6.5,6.49c.08.08.08.2,0,.28-.02.02-.03.03-.05.04Z"/>
        </g>
      </g>
    </g>
    <path class="st10" d="M229.77,326.86c4.19,2.72,8.46,5.3,13.28,6.75,2.94.88,5.94,1.57,8.79,2.75,1.94.81,3.77,1.82,5.66,2.76-3.22-2.87-6.97-5-10.47-7.48-3.53-2.5-7-5.06-10.16-8.03-2.4-2.71-3.79-6-5.27-9.23-.22-.48-.39-1.01-.47-1.53-.06-.38-.13-.86.33-1.11.42-.22.71.13,1,.33,1.3.91,2.25,2.18,3.45,3.21,4.46,5.64,11.23,10.3,13.48,10.8-2.69-2.39-4.18-7.13-5.66-10.01-2.51-4.92-4.96-9.88-6.59-15.19-.25-.81-.81-2.05-.14-2.43.78-.44,1.52.7,2.1,1.34,4.6,5.09,8.55,10.63,11.74,16.7,2.37,4.51,3.82,9.37,5.57,14.13.48,1.29,1.02,2.54,2.01,3.78-.2-1.9-.42-3.58-.56-5.27-.44-5.34-.92-10.69.08-16.02.07-.38-.13-.98.57-1.05.51,1.27,1.08,2.51,1.54,3.8,3.01,8.44,3.9,17.19,3.81,26.08,0,.43,0,.78.29,1.14.67.85,1.28,1.74,1.92,2.61.22.35.34.79.87.94-.31-3.15-.25-6.22.19-9.26.68-4.77,1.43-9.54,2.14-14.31.37-2.47.6-4.94.15-7.42.08-1.38-.43-2.74.02-4.22.25.19.35.46.47.72.25.53.54,1.03.75,1.57,1.48,3.82,2.23,7.81,2.75,11.85,1.01,7.76-.55,15.33-1.76,22.91-.14.87-.45,1.78-1.11,2.47-.23.24-.34.42-.1.74,1.57,2.07,3.13,4.15,4.89,6.49-.22-5.42.26-10.42,1.1-15.39.67-3.94,1.46-7.85,2.2-11.78.59-2.43.87-4.96,2.06-7.34.73.68.82,1.5.96,2.24,1.29,6.78,1.56,13.62.94,20.47-.46,5.1-2.23,9.87-4.21,14.56-.16.37-.44.7-.09,1.14,1.74,2.22,3.46,4.45,5.18,6.68-.14-3.42-.45-6.76-.49-10.11-.08-6.52.22-12.99,2.54-19.19.71-1.9,1.36-3.84,2.46-5.57.17-.26.33-.66.74-.54.31.09.35.45.4.72.15.69.3,1.38.39,2.08.85,6.45.89,12.93.82,19.41-.04,4.16-.19,8.34-1.16,12.41-.34,1.41-.55,2.98-2.12,3.76-.53.26-.05.54.1.74,1.14,1.54,7.22,10.82,8.35,12.37.33.45-5.23-.79-4.56-.69-1.39-1.63-8.11-10.33-9.21-11.78-.74-.98-1.52-1.59-2.79-1.31-5.25-.19-10.41-.79-15.38-2.63-6.67-2.47-13.11-5.36-18.82-9.68-.85-.64-1.8-1.2-2.23-2.27.5.05,1,.05,1.49.15,7.38,1.51,14.69,3.33,21.92,5.48,3.89,1.16,7.89,2.11,11.11,4.82.08.07.21.15.25.19-1.06-1.55-2.1-3.04-3.1-4.55-1.28-1.95-2.87-2.89-5.39-2.81-4.1.14-7.89-1.2-11.45-3.33-4.1-2.46-8.19-4.91-12.21-7.49-2.89-1.84-5.56-3.93-7.8-6.54-.03-.4-.52-.67-.22-1.44,10.85,3.82,21.32,8.45,31.77,13.94-.36-.52-.52-.77-.69-1-2.17-2.74-4.37-5.46-6.5-8.24-.52-.68-1.04-1.08-1.92-1.13-8.9-.51-16.51-4.24-23.42-9.56-3.04-2.34-5.52-5.22-7.45-8.57.33.1.59.28.86.45Z"/>
    <path class="st7" d="M290.7,368.71s0,0,0,0c0,0,0,0,0,0,0-.03-.02-.06-.02-.08-.33-1.22-.78-2.39-1.3-3.54-.52-1.15-1.07-2.28-1.65-3.4,0-.02-.02-.04-.03-.05,0,0,0,0,0,0,0,0,0,0,0,0-.81-1.57-1.66-3.13-2.55-4.66-.75-1.27-1.52-2.53-2.21-3.83-.67-1.24-1.26-2.53-1.87-3.8-1.76-3.63-4.22-6.72-7.22-9.39-.24-.21-.48-.42-.73-.62,0,0,0,0,0,0-.02-.01-.04-.03-.05-.04-.73-.59-1.48-1.16-2.23-1.73-.95-.73-1.91-1.44-2.88-2.15-.38-.28-.77-.56-1.15-.83-.53-.38-1.05-.75-1.58-1.13-.1-.07-.21-.12-.35-.21-.01,0-.02-.01-.03-.02,0,.11,0,.22-.01.32,0,.27-.01.52-.05.76-.12.87-.23,1.74-.37,2.6-.07.49-.15.98-.25,1.47-.06.32-.13.63-.19.95-.32,1.5-.68,3-.99,4.5-.15.72-.26,1.44-.32,2.16,0,0,0,.01,0,.02-.03.35-.05.7-.06,1.05,0,.02,0,.03,0,.05,0,.15,0,.3,0,.45,0,0,0,0,0,0,0,0,0,0,0,0,0,.19,0,.38,0,.57,0,.02,0,.04,0,.06.01.34.03.69.06,1.03,0,.02,0,.03,0,.05.03.35.08.69.13,1.04,0,.01,0,.02,0,.03.05.35.12.7.2,1.04,0,0,0,.02,0,.03.08.35.17.7.27,1.05,0,0,0,0,0,.01.03.12.07.24.11.36.34,1.13.71,2.24,1.07,3.36.54,1.65,1.08,3.3,1.49,4.99,0,0,0,0,0,.01,0,0,0,0,0,0,.13.56.25,1.13.34,1.7.18,1.11.57,2.18,1.06,3.2.7,1.45,1.39,2.91,2.1,4.36,0,.02.02.03.03.05.05.1.12.2.19.31,0,0,0,0,0,0,0,0,0,0,0,0,.18-.04.34-.08.5-.12.29-.08.58-.16.87-.24.33-.09.67-.19,1-.27.69-.19,1.35-.42,2-.69.3-.13.6-.26.9-.4.43-.2.85-.42,1.27-.64.08-.05.82-.56,1.31-.92,0,0,0,0,0,0,0,0,0,0,0,0,.19-.11.39-.2.58-.33.07-.05.13-.1.2-.15.11-.08.22-.17.32-.25-.06.18-.16.34-.27.48-.02.03-.05.07-.07.1-.13.15-.27.3-.4.45-1.02,1.13-2.11,2.17-3.39,2.99-.21.14-.43.27-.66.39-.93.51-1.85,1.04-2.84,1.45-.1.04-.18.11-.27.16,0,0,0,0,0,0,0,0,0,0,0,0,.01.04.02.07.02.1,0,0,0,0,0,0,0,.03.01.05.02.07.18.36.36.73.54,1.09.2.41.41.81.61,1.22.04.08.08.16.12.24.05.09.09.17.14.26.13.25.27.51.41.76.14.24.27.48.42.72.36.59.75,1.15,1.18,1.68.72.89,1.57,1.66,2.59,2.26.07.04.14.09.22.13.04.02.08.04.12.06.66.36,1.32.66,2.03.88.28.09.56.16.84.24.95.24,1.92.41,2.89.56.47.07.93.15,1.4.22.01.02.02.05.03.07.01.03.02.06.03.08.25.96.47,1.92.69,2.88.14.61.27,1.22.4,1.84.23,1.09.44,2.18.65,3.28.04.19.07.38.11.58.13.73.22,1.46.29,2.2.03.26.05.52.08.77.01.15.03.3.04.45.06.73.09,1.47.05,2.21,0,.06,0,.13,0,.19.16.38.28.53.5.55.07,0,.15,0,.25-.01,0-.02.03-.05.04-.07.01-.03.03-.06.03-.08-.03-2.48-.31-4.92-.72-7.34-.44-2.62-1.02-5.22-1.6-7.83.07-.07.13-.13.2-.18.16-.15.33-.29.49-.44.21-.19.43-.37.64-.56.31-.28.62-.56.92-.86.91-.93,1.76-1.92,2.3-3.12.1-.22.19-.43.28-.65.07-.17.14-.33.2-.5.07-.17.14-.34.2-.51.25-.68.47-1.37.62-2.07.04-.21.09-.42.12-.63.24-1.65.07-3.27-.35-4.87Z"/>
    <path class="st15" d="M325.89,366.03c3.27-.25,10.09-2.19,12.18-3.53,2.31-1.47,5.43-7.97,1.47-11.87-3.49,6.4-14.7,9.79-17.95,10.23-3.25.45-6.46-1.19.4-1.16,6.86.03,15.22-6.97,15.22-6.97,0,0,1.13-4.64-3.09-10.05-.54,4.53-8.46,10.29-11.04,11.36-2.58,1.07-6.16-.46-.25-2.83,5.91-2.37,10.47-8.48,10.19-10.06-.28-1.58-1.86-8.98-6.39-10.63.12,2.18-.9,10.1-2.59,12.63-1.69,2.53-5.27,3.42-3.52,1.01,3.26-3.36,5.91-10.47,4.92-17.5-9,2.22-9.39,5.45-9.73,7.49-.34,2.04.53,6-.72,5.76-1.25-.24-1.63-5.52.32-9.3,0,0-.97-.67-5.34.19-1.97,1.23-2.7,7.4-1.32,10.99,1.38,3.59,3.06,6.12.77,5.44-2.29-.68-2.7-7.89-1.67-12.84,0,0-3.44-1.5-6.51,1.11-1.2,2.86,1.34,11.47,3.78,13.39,2.44,1.93,3.6,5.26.28,3-3.32-2.25-6.86-10.76-8.72-16.18-2.91.9-7.45,3.54-8.5,6.26-.42,1.08-.28,2.3.15,3.5-1.82,1.52-4.41,6.57-3.15,9.37,1.33,2.96,6.07,7.27,10.46,8.36,4.4,1.09,7.03,3.51,1.82,3.46-5.21-.06-13.41-5.11-14.49-8.62-.44,3.97,2.32,9.56,5.3,12.48.5-.05-1.11,3.14,2.92,5.43,4.03,2.29,7.01-3.2,8.09-1.04,1.08,2.16-4.74,4.16-9.45,5.39,2.88,4.29,13.66,1.47,13.66,1.47l1.01-.68c1.25-2.12,2.92,4.7,5.94,6.68,3.03,1.97,10.38,1.58,13.91-.68-2.23-.28-6.63-3.77-8.15-5.79-1.52-2.02-1.52-4.72.83-1.57,2.35,3.15,6.08,6.5,7.96,6.96,1.87.46,7.06-.23,11.13-6.33-11.02-.28-19.82-7.95-16.95-6.06,2.86,1.89,10.89,3.91,15.57,3.3,1.49-1.08,3.46-4.87,2.92-8.86-4.59,3.28-17.84,2.73-17.03,1.78s3.32.22,10.03-.46c6.71-.68,11.13-3.63,9.04-7.49-2.09,2.62-7.62,3.29-13.73,3.45ZM315.47,366.79c-2.23-.89-.73-3.91,1.75-3.31,2.48.6,4.47-.01,4.47-.01,3.94-1.3,4.67.09,3.81,1.17-.86,1.07-7.8,3.04-10.03,2.15ZM304.69,356.95c2.13,2.73,5.62,3.85,2.43,4.15s-5.63-2.91-8.09-6.75c-2.46-3.84,1.58-2.62,5.66,2.6ZM291.42,350.41c1.95,2.12,4.22,3.22,3.21,4.87-.92,1.5-5.63-5.49-6.09-9.06.72,1.57,1.87,3.08,2.88,4.19ZM296.09,372.21c-2.28.06-2.01-2.24,3.38-3,5.39-.76,5.17-3,5.17-3,.03-.29-.07-.98.55-.77.62.21,1.48,1.55-.81,3.66-2.29,2.11-6.01,3.04-8.29,3.11Z"/>
    <rect class="st14" x="265.84" y="380.47" width="68.13" height="22.71" transform="translate(-.91 .7) rotate(-.13)"/>
  </g>
  <rect class="st2" x="2.5" y="1.5" width="600" height="430" rx="20" ry="20"/>
</svg>