<?xml version="1.0" encoding="UTF-8"?>
<svg id="Layer_1" xmlns="http://www.w3.org/2000/svg" xmlns:xlink="http://www.w3.org/1999/xlink" version="1.1" viewBox="0 0 605 433">
  <!-- Generator: Adobe Illustrator 29.2.0, SVG Export Plug-In . SVG Version: 2.1.0 Build 108)  -->
  <defs>
    <style>
      .st0, .st1, .st2, .st3, .st4, .st5, .st6, .st7, .st8 {
        fill: none;
      }

      .st1 {
        stroke: #696969;
      }

      .st1, .st2, .st3, .st4, .st5, .st8 {
        stroke-linecap: round;
      }

      .st1, .st2, .st4, .st5 {
        stroke-linejoin: round;
      }

      .st2, .st6 {
        stroke: #07986b;
      }

      .st9, .st10 {
        fill: #fff;
      }

      .st9, .st7 {
        stroke: #535cd4;
        stroke-miterlimit: 10;
      }

      .st3 {
        stroke: #e5e5ef;
      }

      .st11 {
        fill: url(#linear-gradient2);
      }

      .st12 {
        fill: url(#linear-gradient1);
      }

      .st4 {
        stroke: #c3c3c3;
      }

      .st13 {
        fill: url(#linear-gradient);
      }

      .st14 {
        fill: #919191;
      }

      .st5 {
        stroke: #5c5c5c;
      }

      .st15 {
        fill: #606060;
      }

      .st16 {
        fill: #757575;
      }

      .st17 {
        fill: #eaf5fc;
      }

      .st18 {
        clip-path: url(#clippath-1);
      }

      .st19 {
        clip-path: url(#clippath-3);
      }

      .st20 {
        clip-path: url(#clippath-2);
      }

      .st21 {
        fill: #575756;
      }

      .st22 {
        fill: #f6f6f8;
      }

      .st23 {
        fill: #666;
      }

      .st24 {
        fill: #878787;
      }

      .st25 {
        fill: #615e83;
      }

      .st26 {
        opacity: .33;
      }

      .st27 {
        opacity: .1;
      }

      .st7 {
        stroke-width: 3px;
      }

      .st8 {
        stroke: #bcbcbc;
      }

      .st28 {
        fill: #afafaf;
      }

      .st29 {
        fill: #8c8c8c;
      }

      .st30 {
        fill: #c2c2c2;
      }

      .st31 {
        fill: #07986b;
      }

      .st32 {
        fill: #1a1a1a;
      }

      .st33 {
        clip-path: url(#clippath);
      }

      .st34 {
        fill: #b2b2b2;
      }

      .st35 {
        fill: #cfcfcf;
      }

      .st36 {
        fill: #fcfcfe;
      }
    </style>
    <clipPath id="clippath">
      <rect class="st0" x="2.61" y=".97" width="600" height="430"/>
    </clipPath>
    <clipPath id="clippath-1">
      <rect class="st0" x="189.77" y="162.53" width="225.24" height="129.43" transform="translate(21.09 480.13) rotate(-78.88)"/>
    </clipPath>
    <linearGradient id="linear-gradient" x1="-194.66" y1="167.49" x2="-194.66" y2="138.81" gradientTransform="translate(480.53 381.74) rotate(11.12) scale(1.04 -1.07)" gradientUnits="userSpaceOnUse">
      <stop offset="0" stop-color="#07986b"/>
      <stop offset=".5" stop-color="#67b46e"/>
      <stop offset="1" stop-color="#fff"/>
    </linearGradient>
    <linearGradient id="linear-gradient1" y1="111.98" y2="83.3" xlink:href="#linear-gradient"/>
    <linearGradient id="linear-gradient2" x1="-194.66" y1="56.87" x2="-194.66" y2="28.2" xlink:href="#linear-gradient"/>
    <clipPath id="clippath-2">
      <rect class="st0" x="270.05" y="260.13" width="26.3" height="129.43" transform="translate(-90.16 540.08) rotate(-78.88)"/>
    </clipPath>
    <clipPath id="clippath-3">
      <rect class="st0" x="278.39" y="322.13" width="9.26" height="6.11" transform="translate(-90.64 540.18) rotate(-78.88)"/>
    </clipPath>
  </defs>
  <rect class="st9" x="2.39" y="2.03" width="600" height="430" rx="20" ry="20"/>
  <g class="st27">
    <g>
      <g>
        <path class="st14" d="M138.28,347.38c-3.16-26.31-6.31-52.62-9.47-78.92-1.07-8.9-1.65-19.25,4.86-25.42,7.34-6.94,20.21-4.03,26.92,3.51,6.71,7.55,8.75,18.08,9.99,28.1,3.08,24.94,2.87,50.28-.62,75.17-11.35-2.53-23.18-2.96-31.68-2.44Z"/>
        <g>
          <path class="st4" d="M140.28,253.34c-1.85,12.73-.29,25.68,1.26,38.44,2.09,17.21,4.19,34.42,6.28,51.63"/>
          <path class="st4" d="M155.42,256.25c8.19,29.28,12.58,59.62,13.04,90.01"/>
          <path class="st1" d="M131.59,253.92c-2.59-.5-5.18-.99-7.77-1.49"/>
          <path class="st1" d="M131.1,279.7c-1.76.39-3.53.77-5.29,1.16"/>
          <path class="st1" d="M135.73,312.43c-2.42.99-4.85,1.98-7.27,2.97"/>
          <path class="st1" d="M138.7,332.82c-2.37.15-4.73.31-7.1.46"/>
          <path class="st1" d="M145.97,265.66c-2.64-.77-5.29-1.54-7.93-2.31"/>
          <path class="st1" d="M146.3,289.29c-2.09.55-4.19,1.1-6.28,1.65"/>
          <path class="st1" d="M152.55,246.12c1.76-1.82,3.52-3.64,5.28-5.46"/>
          <path class="st1" d="M167.29,263.67c2.15-.61,4.3-1.21,6.45-1.82"/>
          <path class="st1" d="M167.13,283.67c2.64-.11,5.29-.22,7.93-.33"/>
          <path class="st1" d="M170.93,308.96h6.61"/>
          <path class="st1" d="M155.06,320.03c3.03-.11,6.06-.22,9.09-.33"/>
          <path class="st1" d="M149.28,326.81c-2.09-.33-4.19-.66-6.28-.99"/>
        </g>
      </g>
      <path class="st15" d="M121.74,359.4v-19.85h66.5v19.85c0,13.97-11.33,25.3-25.3,25.3h-15.9c-13.98,0-25.3-11.33-25.3-25.3Z"/>
    </g>
    <g>
      <g>
        <g>
          <path class="st30" d="M520.11,332.04c-2.01-13.08.51-26.79,6.57-38.39,2.11-4.04,5.34-7.39,9.27-9.68,15.7-9.12,34.25-13.3,52.33-11.69-13.09,9.14-23.45,22.13-30.75,37.19l-15.7-.41c5.02.73,10.04,1.45,14.33,3.05-9.5,8.56-20.96,14.93-36.05,19.93Z"/>
          <path class="st29" d="M512.75,354.83c3.52-16.41,8.56-32.78,17.83-46.78,9.27-14,23.24-25.48,41.6-28.94-15.95,5.26-29.78,16.25-39.36,30.05-9.58,13.8-15,30.29-16.51,47.01-.95-.91-1.89-1.83-3.56-1.34Z"/>
        </g>
        <g>
          <path class="st30" d="M508.33,316.24c8.36-13.25,13.64-28.43,15.33-44.01-4.88-.43-9.76-.86-14.64-1.29,4.71-.88,9.43-1.76,13.9-2.04-7.12-23.86-23.96-44.65-45.81-56.58,3.87,9.96,6.15,20.53,6.73,31.2,2.58-.89,5.35-1.19,8.05-.89-2.45.56-4.91,1.12-6.85,2.94-.09,17.12,2.77,34.26,9.53,50.67,2.57-.42,5.13-.85,7.7-1.27-2.22,1.33-4.45,2.67-6.67,4,1.91,6.83,6.2,12.98,12.73,17.27Z"/>
          <path class="st29" d="M505.76,359.03c5.47-42.89.4-77.8-10.57-115.22,8.3,17.68,12.46,37.06,14.35,56.49,1.89,19.43,1.55,39.01,1.21,58.53-1.55-.09-3.11-.18-4.99.2Z"/>
        </g>
        <g>
          <path class="st30" d="M489.45,293.8c-3.67,1.69-7.34,3.39-11.01,5.08,2.86-2.42,5.73-4.84,8.42-7.85-11.61-16.47-30.12-27.92-50.04-30.96,3.12,8.21,6.25,16.42,9.37,24.63,1.5-1.71,3.47-3.01,5.64-3.72-1.67,1.94-3.33,3.88-4.64,6.26,5.04,14.4,15.35,26.88,28.54,34.55,2.83-1.84,5.67-3.67,8.5-5.51-1.65,2.04-3.3,4.08-5.59,7.83,7.63,2.52,14.7,4.67,21.74,7.45-.23-2.07-2.1-24.6-10.93-37.76Z"/>
          <path class="st29" d="M508.38,360.34c.35-15.93-6.43-31.37-16-44.11-9.57-12.75-21.83-23.18-34.48-33.37,10.38,9.43,20.84,18.95,29.16,30.24,8.32,11.29,14.46,24.63,15.01,38.64.08,2.05.06,4.17.92,6.03.85,1.87,2.92,3.37,5.39,2.57Z"/>
        </g>
      </g>
      <g>
        <g>
          <polygon class="st24" points="477.8 384.7 465.2 352.25 524.7 352.25 524.7 384.7 477.8 384.7"/>
          <polygon class="st24" points="540.68 384.7 553.29 352.25 493.79 352.25 493.79 384.7 540.68 384.7"/>
        </g>
        <path class="st24" d="M462.21,355.66v-6.93c0-1.26,1.02-2.29,2.29-2.29h88.43c1.26,0,2.29,1.02,2.29,2.29v6.93c0,1.26-1.02,2.29-2.29,2.29h-88.44c-1.26,0-2.28-1.03-2.28-2.29Z"/>
        <line class="st5" x1="468.71" y1="357.94" x2="547.86" y2="357.94"/>
      </g>
    </g>
    <g>
      <g>
        <g>
          <path class="st23" d="M64.51,311.22c-3.36-4.53-5.94-9.64-7.59-15.03-.58-1.9-1.02-4.07-.02-5.78s4.04-2.11,4.78-.27c-.79-2.36-2.18-4.47-3.32-6.68-1.14-2.21-2.08-4.65-1.84-7.13.23-2.48,1.93-4.96,4.38-5.4,2.45-.44,5.17,1.96,4.48,4.36-1.69-4.27-2.91-8.73-3.62-13.26-.35-2.22-.28-5.05,1.75-6.01,2.47-1.18,4.93,1.58,6.29,3.95-1.91-2.82-3.87-5.76-4.41-9.13s.79-7.28,3.91-8.65c3.12-1.37,7.53,1.37,6.82,4.71-.47-2.16-1.3-4.23-1.81-6.38s-.69-4.48.14-6.53,2.88-3.72,5.09-3.55,4.08,2.66,3.2,4.69c.43-4.35,3.05-8.42,6.82-10.62,2.3-1.34,5.6-1.82,7.36.17,1.93,2.19.65,5.71-1.29,7.89-1.94,2.18-4.54,3.97-5.48,6.74,1.26-.94,2.57-1.9,4.12-2.19,1.54-.29,3.37.32,3.97,1.78.61,1.49-.27,3.16-1.21,4.46-2.92,4.06-6.77,7.44-11.17,9.81,1.58-.93,3.25-1.88,5.08-1.98,1.83-.09,3.87.98,4.21,2.78.29,1.58-.74,3.08-1.83,4.26-3.07,3.33-7.02,5.85-11.34,7.22,2-2.26,6.22-.99,7.35,1.81,1.14,2.8-.22,6.11-2.46,8.14-2.24,2.03-5.18,3.06-8.03,4.03,2.01-1.91,5.69.26,5.97,3.01.28,2.76-1.67,5.25-3.82,6.99-2.16,1.74-4.67,3.11-6.34,5.32.13-1.61,2.42-2.36,3.75-1.42,1.32.93,1.61,2.86,1.1,4.4-.52,1.54-1.66,2.76-2.8,3.92-3.85,3.88-7.94,7.48-12.19,9.57Z"/>
          <path class="st28" d="M62.85,333.91c-1.43-34.09,7.27-68.5,25.35-99-15.36,30.14-23.71,64.23-22.24,97.51-1.41,0-1.81-.47-3.11,1.49Z"/>
        </g>
        <g>
          <path class="st23" d="M56.31,319.37c2.56-4.83,4.1-10.2,4.49-15.66.11-1.58.08-3.33-.93-4.55s-3.35-1.34-3.97.12c-.73-1.63-.61-3.5-.34-5.27.27-1.76.68-3.54.48-5.31-.2-1.77-1.15-3.6-2.82-4.23-1.67-.64-3.93.51-3.94,2.29-.34-2.39.03-4.82-.12-7.22-.16-2.4-1.02-4.98-3.09-6.22-2.07-1.24-5.41-.2-5.66,2.2.18-2.81.36-5.71-.55-8.38s-3.19-5.08-6-5.24c-2.81-.16-5.63,2.74-4.69,5.4-.86-4.25-2.95-8.24-5.94-11.38-1.28-1.34-2.95-2.6-4.79-2.38-1.84.22-3.21,2.79-1.82,4.01-1.75-2.26-3.97-4.46-6.81-4.86-2.83-.4-6.1,1.96-5.6,4.77.7,3.87,6.94,4.43,7.95,8.23-1.12-1.47-3.74-.94-4.61.68-.87,1.63-.25,3.75,1.02,5.09s3.06,2.05,4.82,2.62c1.76.56,3.58,1.02,5.15,2-1.55-.96-3.77.44-4.03,2.24s.94,3.56,2.49,4.53c1.54.97,3.37,1.34,5.15,1.77,1.77.43,3.59.98,4.94,2.21-1.26-.21-2.56-.42-3.8-.13s-2.42,1.22-2.61,2.49c-.24,1.65,1.21,3.02,2.57,3.98,3.33,2.33,7.04,4.12,10.93,5.28-1.37-.16-2.8-.32-4.1.13-1.31.45-2.45,1.69-2.3,3.07.13,1.21,1.15,2.1,2.15,2.79,3.29,2.31,7.06,3.92,11.01,4.69-1.25-.19-2.56-.38-3.76.03-1.2.41-2.22,1.64-1.95,2.87.3,1.39,1.91,2,3.28,2.37,4.84,1.34,9.68,2.67,17.8,4.97Z"/>
          <path class="st28" d="M60.92,336.53c-4.42-33.53-19.39-58.52-47.07-76.48,20.83,16.17,40.87,41.32,43.8,75.62,1.74-.65,3.47-1.3,3.27.86Z"/>
        </g>
        <g>
          <path class="st23" d="M73.53,319.12c-1.69-3.92-2.1-8.38-1.17-12.55.3-1.32.79-2.7,1.89-3.49s2.95-.62,3.48.63c-1.07-3.86-.85-8.07.61-11.81.74-1.9,2.03-3.85,4.03-4.24,2-.39,4.25,1.95,3.1,3.63.03-3.45,1.37-6.88,3.69-9.44,1.15-1.27,2.71-2.39,4.42-2.23,1.7.16,3.17,2.22,2.22,3.65,1.31-3.42,3.84-6.36,7.03-8.16,1.35-.76,3-1.33,4.43-.73,1.43.6,2.1,2.83.83,3.72,3.07-1.94,6.97-2.52,10.47-1.55,1.67.46,3.52,1.73,3.28,3.44-.16,1.1-1.14,1.88-2.08,2.49-3.39,2.2-7.21,3.74-11.17,4.52,1.6-.24,3.27-.47,4.79.06,1.53.53,2.83,2.07,2.51,3.65-.33,1.63-2.09,2.49-3.66,3.05-3.74,1.35-7.6,2.41-11.51,3.16,1.46-1.18,3.91.11,4.24,1.95s-.94,3.68-2.56,4.61c-1.62.94-3.54,1.19-5.39,1.46-1.85.28-3.77.62-5.3,1.71.79-1.55,3.41-1.25,4.24.28.83,1.53.15,3.52-1.1,4.72-1.26,1.2-2.96,1.8-4.6,2.36-5.69,1.96-11.38,3.9-16.72,5.11Z"/>
          <path class="st28" d="M69.89,333.91c3.91-23.6,18.77-43.98,38.14-51.5-14.73,6.97-31.4,27.62-35.4,50-1.55-.31-1.86-.65-2.74,1.5Z"/>
        </g>
      </g>
      <g>
        <path class="st24" d="M36.31,361.5v-39.53h61v39.53c0,12.81-10.38,23.19-23.19,23.19h-14.61c-12.81,0-23.2-10.38-23.2-23.19Z"/>
        <line class="st5" x1="36.31" y1="331.07" x2="97.31" y2="331.07"/>
        <line class="st5" x1="36.31" y1="342.07" x2="97.31" y2="342.07"/>
        <line class="st5" x1="36.31" y1="353.07" x2="97.31" y2="353.07"/>
        <line class="st5" x1="36.31" y1="363.38" x2="97.31" y2="363.38"/>
        <line class="st5" x1="39.81" y1="374.04" x2="93.81" y2="374.04"/>
      </g>
    </g>
    <g>
      <rect class="st16" x="2.61" y="384.7" width="600" height="22.25"/>
      <rect class="st34" x="2.61" y="405.88" width="600" height="26.15"/>
    </g>
  </g>
  <g class="st33">
    <g>
      <path class="st21" d="M279.61,366.02c-6.94.66-14.64-4.26-13.04-12.75,1.63-8.66,10.7-10.08,16.89-6.65,3.79,2.1,6.5,6.02,5.78,11.21-1.3,5.22-5.32,7.79-9.63,8.19ZM203.51,347.81c-1.11,5.76-.18,11.99,6.73,13.77l.13.03,16.49,3.18c23.51,4.52,47.02,9.06,70.53,13.58,8.91,1.72,17.82,3.53,26.74,5.25-.33-.32-.65-.67-.94-1.04-1.87-2.41-2.61-5.95-.53-8.45,1.41-1.69,3.66-2.57,5.46-3.73,2.93-1.88,5.51-4.21,8.01-6.62,3.79-3.65,7.83-7.37,12.3-10.23l-1.55-2.07c-.25.13-.75.09-.91.05-37.75-7.27-75.51-14.55-113.26-21.83-5.2-1-10.4-2.01-15.61-3-.78-.03-1.87-.47-1.77-.97,4.76-24.67,9.51-49.34,14.26-74.01-3.69,7.5-7.96,14.78-11.79,22.12l-.08.16c-4.74,24.6-9.48,49.21-14.23,73.82Z"/>
      <path class="st10" d="M173.19,432.15c-1.49-.42-1.68.43-.23.83,12.4,3.51,25.4,2.15,36.67-4.18.36-.21-1.72-1.23-2.37-.88-10.42,5.86-22.53,7.49-34.07,4.22Z"/>
      <path class="st10" d="M207.83,207.06c-.52,2.01-1.18,4.01-1.93,5.98,2.02.21,3.95.6,5.91,1.22,3.13-3.55,3.88-8.35,4.58-12.91.54-3.51,3.58-17.12-2.85-17.15-.52.88-.96,1.85-1.31,2.88-2.18,6.47-2.68,13.4-4.39,19.98Z"/>
      <path class="st10" d="M180.77,472.36c-.37-.95-2.88-1.08-2.39.21,6.31,16.24,16.58,30.41,29.96,41.57.89.75,2.94.09,1.62-1.01-13.08-10.9-23.05-24.9-29.2-40.77Z"/>
      <path class="st32" d="M226.87,364.79l-16.49-3.18-.21,1.07c.06.02.12.03.18.04,2.75.54,5.51,1.07,8.27,1.6,1.57.3,3.14.61,4.71.9.04.1.12.22.26.34,9.62,8.59,9.91,21.73,7.81,33.58-.2,1.1,2.33,1.73,2.52.67,2.11-11.9,1.75-25.03-7.25-33.94l.21-1.08Z"/>
      <path class="st21" d="M314.89,94.58l25.79,4.98c.55.1,1.14.63,1.02,1.22-.22,1.16-.44,2.31-.67,3.47-.12.64-1.02.64-1.49.56l-25.43-4.9c-.11-.02-.23-.03-.35-.07h-.02s-.06-.03-.1-.03c-.03,0-.06-.03-.09-.03-.36-.11-.59-.3-.69-.52-.13-.18-.19-.4-.14-.64.22-1.16.44-2.31.67-3.47.12-.64,1.02-.64,1.49-.56ZM375.4,204.13c-2.86,14.82-5.71,29.63-8.56,44.45,1.83-2.84,4.63-4.79,8.51-4.84,4.73-24.59,9.47-49.16,14.21-73.74,2.77-14.39,5.55-28.79,8.32-43.18,1.28-6.62,2.9-13.28,3.85-19.96.95-6.69-3.15-11-9.27-12.18-5.34-1.03-10.68-2.06-16.02-3.09-18.33-3.53-36.65-7.06-54.98-10.6-16.01-3.08-32-6.17-48-9.25-1.17-.23-2.37-.5-3.58-.76-3.65-.73-7.36-1.14-10.58,1.29-3.21,2.41-3.8,5.76-4.48,9.32-4.88,25.32-9.76,50.63-14.64,75.95-2.23,11.61-4.47,23.23-6.71,34.84,2.21,4.83,3.77,9.96,4.66,15.2,4.93-25.59,9.87-51.2,14.8-76.79,1.75-9.14,3.52-18.27,5.28-27.41.07-.35.84-.29,1.05-.24.53.1,1.05.2,1.58.3,37.22,7.17,74.46,14.36,111.69,21.52,5.3,1.02,10.6,2.05,15.91,3.07.32.06,1.57.34,1.46.91-4.83,25.06-9.66,50.11-14.49,75.18ZM331.66,92.95c-.56,1.72-2.6,2.03-4.16,1.41-1.21-.49-2.14-1.54-1.87-2.94.29-1.55,1.7-2.07,3.09-1.87,1.56.23,3.1,1.37,3,3.02,0,.07,0,.14,0,.21,0,.06-.03.11-.06.17Z"/>
      <path class="st21" d="M269.08,353.95c-.33,1.73-.18,3.57.38,5.24,1.15,3.4,2.89,4.2,6.31,5.02,1.68.41,2.7.72,3.73.64.76-.06,1.52-.33,2.53-.94.6-.36,1.17-.8,1.68-1.27,1.63-1.51,2.5-3.38,3.02-5.49.27-1.95.2-3.88-.58-5.72-.34-.81-.74-1.48-1.28-2.19-.36-.57-.81-1.08-1.34-1.51-.1-.03-.22-.05-.32-.08-2.22-.53-4.44-1.06-6.66-1.6-3.76.48-6.78,4.39-7.46,7.89Z"/>
      <path class="st32" d="M266.57,353.27c-1.6,8.49,6.11,13.41,13.04,12.75l-.11-1.17c-1.02.08-2.05-.23-3.73-.64-3.41-.82-5.16-1.62-6.31-5.02-.56-1.67-.71-3.51-.38-5.24.68-3.5,3.7-7.42,7.46-7.89,2.22.54,4.44,1.07,6.66,1.6l.25-1.03c-6.19-3.43-15.26-2.01-16.89,6.65Z"/>
      <path class="st32" d="M282.02,363.91c-1.01.61-1.76.88-2.53.94l.11,1.17c4.31-.4,8.33-2.97,9.63-8.19.71-5.19-2-9.11-5.78-11.21l-.25,1.03c.1.03.22.05.32.08.53.43.97.94,1.34,1.51.54.71.94,1.38,1.28,2.19.78,1.84.85,3.78.58,5.72-.52,2.11-1.39,3.98-3.02,5.49-.5.47-1.08.91-1.68,1.27Z"/>
      <path class="st10" d="M315.44,98.29c7.75,1.49,15.49,2.98,23.24,4.47.1-.56.21-1.1.31-1.66l-23.24-4.48-.31,1.67Z"/>
      <path class="st10" d="M336.62,366.52c-1.86,1.7-3.8,3.33-5.91,4.72-1.64,1.09-4.02,2.04-5.51,3.6,2.09,1.02,4.09,2.18,5.95,3.57,2.7,2.02,2.48,1.89,5.71.18,1.13-.59,7.33-3.38,7.82-4.92.82-2.57-5.91-6.19-8.06-7.16Z"/>
      <path class="st32" d="M297.4,378.37c-23.51-4.52-47.02-9.06-70.53-13.58l-.21,1.08c13.81,2.67,27.62,5.32,41.43,7.99-.21.15-.27.38-.05.71,15.27,23.25,22.28,51.16,19.67,78.87-.11,1.21,2.41,1.82,2.51.68,2.64-28.03-4.31-56.26-19.77-79.81,5.07.98,10.14,1.95,15.21,2.94-.3.11-.48.36-.3.76,8.08,19.01,22.1,34.9,39.92,45.33.91.54,3.07-.06,1.61-.92-17.54-10.27-31.21-25.86-39.16-44.57-.03-.09-.1-.17-.19-.25,12.14,2.34,24.28,4.68,36.42,7.02l.19-1c-8.92-1.71-17.83-3.53-26.74-5.25Z"/>
      <path class="st32" d="M328.53,91.34l.19-1.78c-1.39-.2-2.81.32-3.09,1.87-.27,1.4.66,2.45,1.87,2.94l.93-1.23c-.05-.07-.17-.17-.21-.27-.1-.23-.12-.51-.08-.76.05-.29.18-.55.39-.76Z"/>
      <path class="st10" d="M328.97,91.12c-.15.07-.35.13-.44.22-.21.21-.34.47-.39.76-.04.25-.02.53.08.76.04.1.16.2.21.27,0,0,.03,0,.03,0,.1-.06.2-.1.3-.18.26-.23.37-.5.45-.83.04-.28.03-.57-.1-.83-.02-.03-.08-.1-.12-.17Z"/>
      <path class="st32" d="M329.2,92.11c-.08.32-.19.6-.45.83-.1.08-.19.12-.3.18,0,0-.02,0-.03,0l-.93,1.23c1.56.63,3.6.31,4.16-1.41.03-.05.05-.1.06-.17.02-.07.02-.14,0-.21.1-1.65-1.44-2.79-3-3.02l-.19,1.78c.1-.09.3-.15.44-.22.04.06.1.14.12.17.13.25.15.55.1.83Z"/>
      <path class="st17" d="M332.81,346.26c-1.54-.25-3.06-.63-4.54-1.13-4.04-1.32-7.78-3.51-10.77-6.53-3.6-3.63-8.53-11.82-2.97-15.87,5.17-3.76,12.46-3.63,18.04-6.8,7.02-3.98,13.03-9.84,20.96-12.04,1.82-9.48,3.65-18.97,5.48-28.45,7.69-39.92,15.38-79.83,23.08-119.76,1.72-8.93,3.44-17.86,5.17-26.79-37.23-7.17-74.46-14.35-111.69-21.53-4.98-.96-9.96-1.92-14.94-2.87-4.8,24.92-9.61,49.83-14.41,74.74-2.42,12.58-4.85,25.16-7.27,37.74,0,.51,0,1.02,0,1.55-.11,7.92-1.93,15.35-4.63,22.5-3.73,19.32-7.45,38.65-11.18,57.97-1.72,8.94-3.44,17.86-5.17,26.8,37.23,7.17,74.46,14.35,111.69,21.52l2.84.55.31-1.6Z"/>
      <path class="st10" d="M332.82,318.66c-.33-.15-.52-.32-.62-.51-2.54,1.14-5.17,2.01-8.06,2.79-2.5.68-5.87,1.38-7.89,3.23,2.28.8,4.28,1.99,6.17,3.56,3.18,2.63,4.91,6.24,9.56,5.45,2.45-.41,10.01-2.08,10.25-5.21.12-1.57-2.34-4.14-3.42-5.27-1.73-1.81-3.73-3.04-6-4.04Z"/>
      <path class="st17" d="M335.27,346.56c-.82-.07-1.64-.17-2.46-.3l-.31,1.6c4.03.78,8.07,1.55,12.1,2.34l.83-4.33c-3.31.7-6.71.99-10.16.69Z"/>
      <path class="st32" d="M340.68,99.55l-25.79-4.98c-.47-.09-1.37-.09-1.49.56-.23,1.16-.45,2.31-.67,3.47-.05.24,0,.46.14.64.1.23.33.41.69.52.03,0,.06.03.09.03.03,0,.06.03.1.03h.02c.12.03.23.05.35.07l25.43,4.9c.47.09,1.37.09,1.49-.56.23-1.16.45-2.31.67-3.47.12-.6-.47-1.12-1.02-1.22ZM338.68,102.76c-7.75-1.49-15.49-2.99-23.24-4.47l.31-1.67,23.24,4.48c-.1.56-.21,1.1-.31,1.66Z"/>
      <path class="st21" d="M348.44,353.54c2.03-1.3,4.15-2.43,6.37-3.28.53-2.78,1.07-5.55,1.61-8.33-2.64,1.32-5.38,2.42-8.21,3.24-.39,2.04-.78,4.08-1.18,6.12-.02.08-.07.14-.14.18l1.55,2.07Z"/>
      <path class="st21" d="M364.23,262.07c-2.65,13.75-5.3,27.49-7.94,41.23,2.59-.41,5.11-.38,7.59-.1,1.11-5.74,2.21-11.49,3.32-17.23.79-4.07,1.57-8.16,2.36-12.23-2.17-2.71-3.87-5.78-4.85-9.31-.21-.75-.37-1.54-.49-2.36Z"/>
      <path class="st10" d="M209.63,428.81c-11.26,6.33-24.27,7.69-36.67,4.18-1.45-.41-1.26-1.25.23-.83,11.54,3.27,23.65,1.64,34.07-4.22.65-.36,2.74.67,2.37.88ZM188.8,241.9c-7.71,10.42-17.08,19.55-24.42,30.25-6.5,9.48-9.66,20.16-12.71,31.1-2.98,10.69-5.53,21.51-7.72,32.39-4.89,24.34-9.26,50.37-6.08,75.22.03.25-.11.53-.32.68-9.09,6.62-18.19,13.24-27.28,19.85-22.42,16.31-44.84,32.62-67.26,48.93-28.44,20.7-56.89,41.4-85.34,62.1-27.17,19.78-54.35,39.55-81.52,59.33-18.61,13.55-37.23,27.09-55.83,40.65-.56.4-1.1.8-1.66,1.2H94.17c.15,0,.28.03.4.06l.49-1.5c22.44-22.2,44.86-44.41,67.75-66.14,11.75-11.15,23.6-22.22,35.83-32.85,7.73-6.72,15.7-14.23,24.78-19.16,1.49-.82,3.07-1.49,4.7-2.09,5.17-1.89,10.84-2.95,15.91-4.72,11.03-3.84,21.82-8.45,31.98-14.22,10.09-5.72,19.52-12.61,27.79-20.77,8-7.89,14.06-17.24,21.22-25.84,7.6-9.15,17.71-15.38,25.66-24.2,3.44-3.82,6.69-7.82,10.07-11.7,4.19-4.79,8.86-9.06,13.21-13.7,7.93-8.46,16.28-18.68,19.84-29.88,1.8-5.67,2.26-12.11-1.17-17.28-3.8-5.75-10.86-7.63-17.29-8.63-2.71-.43-5.46-.78-8.2-.96-.29-.02-.56-.03-.85-.04-5.09-.17-9.28,1.21-13.79,3.62-5.84,3.12-10.2,7.63-14.96,12.1,3.4,1.42,6.64,3.5,8.82,6.55,2.31,3.21-2.11,4.41-4.76,5.97-2.22,1.31-5.45,3.87-8.16,3.35-.87-.17-1.42-.63-2.1-1.11-2.32-1.61-4.38-3.28-6.83-4.63-.17.28-.31.58-.41.9-1.84,5.8,5.36,9.01,9.74,9.74,4.44.73,9.5.6,13.71-1.13,2.63-1.08,4.96-2.76,7.3-4.35,1.61-1.09,3.6-3.01,5.6-3.1,2.21-.1,5.18,1.37,7.3,1.88,3.56.83,8.71,2.62,12.35,1.48.8-.25,2.94.93,1.54,1.37-.63.2-1.29.33-1.96.41-5.41.67-12.38-1.95-17.18-3.23-.41-.11-1.17-.5-1.58-.43-.63.1-.05.34-.5.53-2.99,1.26-5.51,3.85-8.35,5.44-3.38,1.88-6.94,2.71-10.78,2.9-4.83.24-11.18-.26-15.49-3.23-.24-.04-.48-.1-.71-.14-.37-.07-.74-.14-1.11-.22-12.13-2.34-24.27-4.67-36.42-7.02.09.08.16.17.19.25,7.95,18.71,21.62,34.3,39.16,44.57,1.47.86-.69,1.46-1.61.92-17.82-10.43-31.85-26.32-39.92-45.33-.17-.4,0-.65.3-.76-5.06-.98-10.14-1.95-15.21-2.94,15.46,23.54,22.41,51.77,19.77,79.81-.1,1.14-2.62.53-2.51-.68,2.61-27.7-4.4-55.62-19.67-78.87-.22-.33-.16-.56.05-.71-13.81-2.67-27.62-5.32-41.43-7.99,9.01,8.91,9.36,22.04,7.25,33.94-.19,1.06-2.72.43-2.52-.67,2.1-11.85,1.82-24.99-7.81-33.58-.14-.12-.22-.23-.26-.34-1.57-.3-3.14-.6-4.71-.9-2.75-.53-5.51-1.06-8.27-1.6-.06,0-.12-.03-.18-.04-.05,0-.1,0-.16-.03-6.77-1.71-10.51-7.27-9.28-14.15.5-2.78,1.07-5.55,1.61-8.33,2.38-12.35,4.76-24.7,7.14-37.06,1.31-6.79,2.62-13.58,3.93-20.37-3.14,6.8-5.74,13.94-6.72,21.25-.09.68-.88.8-1.55.56-.56-.2-1.04-.64-.96-1.22,3.52-26.41,24.49-46.6,30.58-72.2,3.27-13.7,1.55-28.45-4.97-40.97-1.59-3.05-3.46-6.01-6.24-8.11-3.69-2.77-6.73-1.89-8.86.55,4.76.65,5.34,4.83,5.12,10.14-.31,7.4-.62,17.45-6.14,23.08-.32.33-.94.37-1.36.23-2.3-.8-4.56-1.27-7-1.46-4,9.81-10.38,19.05-16.49,27.31ZM178.38,472.57c-.5-1.29,2.01-1.16,2.39-.21,6.15,15.87,16.12,29.87,29.2,40.77,1.31,1.09-.73,1.75-1.62,1.01-13.38-11.15-23.66-25.33-29.96-41.57Z"/>
      <path class="st10" d="M340.7,332.69c-3.27,1.05-8.95,4.13-12.43,2.87-1.84-.67-3.21-2.58-4.58-3.87-2.61-2.48-5.16-4.79-8.62-5.9-1.31,2.95.43,6.93,2.01,9.42,2.74,4.28,6.9,7.16,11.57,8.71,3.93,1.31,8.23,1.68,12.32,1.16,4.37-.56,8.61-1.96,12.57-3.87,3.2-1.55,6.17-3.83,9.67-4.72,7.42-1.88,13.01,4.76,20.18,4.24.92-.07,2.68,1.24,1,1.36-.11,0-.23,0-.34,0-3,.15-5.65-.65-8.42-1.83-1.99-.85-4.02-2-6.15-2.49-3.93-.9-6.92.78-10.14,2.58-.57,3-1.16,5.99-1.73,8.98,2.36-.63,4.85-.94,7.46-.83.41.02.82.03,1.23.05,6.34.3,13.81,1.12,19.93,3.93.06-.05.13-.11.19-.17,3.31-2.92,6.17-6.49,8.72-10.04,3.96-5.51,6.11-10.18,3.51-16.98-3.33-8.7-8.91-15.12-18.19-17.26-7.41-1.7-15.25-4.89-22.93-3.41-7.47,1.43-13.25,6.2-19.45,10.28-1.3.86-2.59,1.6-3.88,2.26,4.05,1.84,7.43,4.72,9.59,8.66,2.22,4.08.94,5.56-3.11,6.85Z"/>
      <path class="st10" d="M366.82,255.12c-3.1,14.37,9.86,24.53,21.26,29.92,1.29.61.56,1.5-.42,1.48-.21,0-.43-.05-.65-.16-5.5-2.59-11-5.85-15.29-10.18-1.75,9.13-3.52,18.26-5.27,27.39,3.29.59,6.59,1.5,10.01,2.33,5.12,1.24,9.87,2.28,13.93,4.89.26-.24.5-.5.74-.76,3.32-3.68,4.67-8.76,6.13-13.41,2.01-6.41,4.25-12.78,5.98-19.26,1.35-5.08,2.41-11.01-1.19-15.42-1.94-2.37-4.7-3.89-7.46-5.25.3,2.61.23,6.66-1.79,7.84-1.75,1.01-4.78-1.39-6.2-2.15-2.03-1.08-4.05-2.19-6.04-3.33-1.06-.61-3.54-1.45-4.05-2.64-.48-1.13.47-2.26.73-3.32.59-2.41.39-4.72-.38-6.98-1.65-.43-3.38-.27-5.12.96-2.66,1.88-4.26,4.91-4.93,8.04Z"/>
      <path class="st32" d="M211.81,214.26c-1.95-.62-3.88-1.01-5.91-1.22.75-1.97,1.41-3.97,1.93-5.98,1.71-6.58,2.21-13.51,4.39-19.98.35-1.03.79-2.01,1.31-2.88,6.43.03,3.39,13.64,2.85,17.15-.69,4.57-1.45,9.36-4.58,12.91ZM331.15,378.42c-1.86-1.39-3.86-2.54-5.95-3.57,1.49-1.56,3.86-2.52,5.51-3.6,2.11-1.39,4.05-3.02,5.91-4.72,2.15.96,8.88,4.59,8.06,7.16-.49,1.55-6.69,4.33-7.82,4.92-3.22,1.71-3,1.84-5.71-.18ZM341.59,378.2c2.65-1.55,7.07-2.75,4.76-5.97-2.19-3.05-5.42-5.12-8.82-6.55,4.76-4.46,9.12-8.98,14.96-12.1,4.52-2.41,8.7-3.79,13.79-3.62l.06-1.41c-.42-.02-.83-.03-1.23-.05-2.61-.1-5.1.21-7.46.83.57-2.99,1.16-5.98,1.73-8.98,3.21-1.8,6.2-3.48,10.14-2.58,2.13.5,4.16,1.64,6.15,2.49,2.76,1.18,5.42,1.98,8.42,1.83.11,0,.23,0,.34,0,1.68-.12-.08-1.43-1-1.36-7.17.52-12.77-6.12-20.18-4.24-3.49.89-6.46,3.17-9.67,4.72-3.96,1.91-8.2,3.32-12.57,3.87-4.09.51-8.39.15-12.32-1.16l-.39,1.21c1.49.5,3,.88,4.54,1.13.82.13,1.64.23,2.46.3,3.45.3,6.85,0,10.16-.69l-.83,4.33c-4.03-.78-8.07-1.55-12.1-2.34l-2.84-.55c-37.23-7.17-74.46-14.35-111.69-21.52,1.73-8.94,3.45-17.86,5.17-26.8,3.73-19.32,7.45-38.65,11.18-57.97,2.7-7.16,4.52-14.58,4.63-22.5,0-.52,0-1.03,0-1.55,2.42-12.58,4.85-25.15,7.27-37.74,4.8-24.92,9.61-49.83,14.41-74.74l.2-1.04c-.53-.1-1.05-.2-1.58-.3-.21-.04-.98-.1-1.05.24-1.76,9.14-3.53,18.27-5.28,27.41-4.93,25.59-9.87,51.2-14.8,76.79-.89-5.24-2.45-10.37-4.66-15.2,2.24-11.61,4.48-23.23,6.71-34.84,4.88-25.32,9.76-50.63,14.64-75.95.69-3.56,1.27-6.9,4.48-9.32,3.22-2.42,6.93-2.01,10.58-1.29l.22-1.03c-3.87-.79-7.78-1.6-11.53.35-6.61,3.43-6.83,13.58-8.09,20.07-6.2,32.19-12.41,64.39-18.61,96.58-.1.54-.21,1.09-.31,1.62-2.97-5.32-8.84-12.39-15.69-10-7.76,2.71-8.07,16.03-9.37,22.55-2.31,11.59-7.9,21.73-14.34,31.53-5.71,8.73-12.36,16.66-19.15,24.56-6.44,7.5-12.83,15.24-16.95,24.3-3.27,7.2-5.26,15.12-7.35,22.73-2.43,8.88-4.58,17.83-6.46,26.84-3.76,17.92-6.67,36.12-7.59,54.42-.38,7.59-.83,15.72.43,23.25.35,2.09.75.76-.49,2.02-2.21,2.28-5.52,4.02-8.08,5.88-30.61,22.27-61.23,44.54-91.84,66.81-43.28,31.49-86.55,62.98-129.83,94.47-30.16,21.96-60.33,43.9-90.5,65.87-.31.23-.38.5-.3.76.15.51.84.98,1.36.98H94.36c.51,0,.83-.18.99-.43.03-.03.06-.04.09-.06l.5-.5-1.36-.93c-.12-.03-.25-.06-.4-.06H-181.34c.56-.4,1.1-.8,1.66-1.2,18.6-13.56,37.22-27.1,55.83-40.65,27.17-19.78,54.35-39.55,81.52-59.33,28.45-20.7,56.89-41.4,85.34-62.1,22.42-16.31,44.84-32.62,67.26-48.93,9.09-6.62,18.19-13.24,27.28-19.85.21-.15.36-.43.32-.68-3.18-24.85,1.19-50.88,6.08-75.22,2.19-10.88,4.74-21.7,7.72-32.39,3.05-10.94,6.21-21.63,12.71-31.1,7.34-10.7,16.71-19.83,24.42-30.25,6.11-8.27,12.5-17.51,16.49-27.31,2.44.19,4.7.66,7,1.46.43.15,1.04.1,1.36-.23,5.52-5.63,5.83-15.68,6.14-23.08.23-5.32-.36-9.49-5.12-10.14,2.13-2.44,5.17-3.32,8.86-.55,2.79,2.1,4.66,5.06,6.24,8.11,6.52,12.51,8.23,27.26,4.97,40.97-6.09,25.59-27.06,45.79-30.58,72.2-.08.58.4,1.02.96,1.22.67.24,1.46.12,1.55-.56.98-7.31,3.59-14.45,6.72-21.25-1.31,6.79-2.62,13.58-3.93,20.37-2.38,12.36-4.76,24.71-7.14,37.06-.54,2.78-1.1,5.55-1.61,8.33-1.22,6.88,2.51,12.44,9.28,14.15.06.02.1.02.16.03l.21-1.07-.13-.03c-6.91-1.78-7.84-8.02-6.73-13.77,4.74-24.61,9.48-49.22,14.23-73.82l.08-.16c3.83-7.34,8.09-14.63,11.79-22.12-4.75,24.67-9.5,49.34-14.26,74.01-.1.5.99.94,1.77.97,5.2,1,10.4,2.01,15.61,3,37.75,7.28,75.51,14.56,113.26,21.83.17.03.66.08.91-.05.07-.04.12-.1.14-.18.4-2.04.79-4.08,1.18-6.12,2.82-.82,5.57-1.92,8.21-3.24-.54,2.78-1.08,5.55-1.61,8.33-2.22.85-4.34,1.98-6.37,3.28-4.46,2.86-8.51,6.58-12.3,10.23-2.5,2.41-5.08,4.73-8.01,6.62-1.81,1.16-4.06,2.04-5.46,3.73-2.08,2.5-1.34,6.04.53,8.45.29.37.61.72.94,1.04l-.19,1c.37.08.74.15,1.11.22.23.04.47.1.71.14,4.32,2.97,10.67,3.47,15.49,3.23,3.84-.19,7.4-1.02,10.78-2.9,2.84-1.59,5.36-4.18,8.35-5.44.45-.19-.12-.43.5-.53.41-.07,1.17.32,1.58.43,4.79,1.29,11.77,3.9,17.18,3.23.68-.08,1.34-.21,1.96-.41,1.41-.44-.74-1.62-1.54-1.37-3.64,1.15-8.79-.64-12.35-1.48-2.13-.5-5.1-1.97-7.3-1.88-2,.09-4,2.01-5.6,3.1-2.34,1.59-4.66,3.27-7.3,4.35-4.21,1.73-9.28,1.86-13.71,1.13-4.38-.72-11.58-3.93-9.74-9.74.1-.32.24-.63.41-.9,2.46,1.35,4.52,3.02,6.83,4.63.69.48,1.23.95,2.1,1.11,2.71.52,5.94-2.04,8.16-3.35Z"/>
      <path class="st10" d="M378.98,256.3c.5,1.23,3.82,2.34,4.96,2.99,2,1.12,4.61,2.99,6.91,3.81,1.52-2,1.49-5.39,1.09-7.7-.08-.03-.16-.07-.23-.1-3.14-1.55-6.27-3.16-8.91-5.5-.96-.85-2-1.7-3.09-2.39.33,1.21.49,2.45.43,3.76-.03.85-1.39,4.57-1.16,5.13Z"/>
      <path class="st10" d="M383.58,214.75c-1.88,9.77-3.77,19.55-5.65,29.32,3.16.96,5.17,3.73,7.81,5.79.63.48,1.28.92,1.95,1.35,6.04-3.56,12.25-6.81,18.16-10.6,6.54-4.2,14.01-9.29,15.29-17.58,1.53-9.91-6.44-19.58-16.86-18.03-7.55,1.13-14.43,5.66-20.69,9.75Z"/>
      <path class="st32" d="M385.73,249.86c-2.64-2.07-4.65-4.84-7.81-5.79,1.88-9.77,3.77-19.55,5.65-29.32,6.26-4.09,13.14-8.62,20.69-9.75,10.42-1.55,18.39,8.12,16.86,18.03-1.28,8.29-8.75,13.37-15.29,17.58-5.91,3.8-12.12,7.04-18.16,10.6-.67-.43-1.32-.87-1.95-1.35ZM379.71,247.41c1.09.69,2.14,1.54,3.09,2.39,2.64,2.34,5.78,3.94,8.91,5.5.07.03.15.07.23.1.4,2.31.43,5.71-1.09,7.7-2.3-.83-4.92-2.69-6.91-3.81-1.14-.64-4.46-1.75-4.96-2.99-.23-.56,1.12-4.28,1.16-5.13.06-1.31-.1-2.55-.43-3.76ZM324.15,320.93c2.89-.78,5.51-1.65,8.06-2.79.1.19.29.36.62.51,2.27,1,4.27,2.23,6,4.04,1.08,1.13,3.54,3.7,3.42,5.27-.23,3.13-7.8,4.8-10.25,5.21-4.66.78-6.38-2.82-9.56-5.45-1.89-1.57-3.9-2.76-6.17-3.56,2.01-1.85,5.38-2.55,7.89-3.23ZM364.71,264.43c.97,3.53,2.67,6.6,4.85,9.31-.79,4.07-1.57,8.16-2.36,12.23-1.1,5.74-2.21,11.49-3.32,17.23-2.48-.29-5-.31-7.59.1,2.64-13.74,5.29-27.48,7.94-41.23.11.83.28,1.62.49,2.36ZM162.81,576.01c-22.89,21.73-45.31,43.95-67.75,66.14l-.49,1.5,1.36.93c2.25-2.23,4.5-4.46,6.75-6.69,4.76-4.71,9.51-9.41,14.28-14.11,21.52-21.26,43.17-42.41,65.41-62.92,11.13-10.27,22.34-20.6,34.4-29.77,2.01-1.53,4.1-3.17,6.31-4.57,1.38-.89,2.81-1.68,4.3-2.28,4.6-1.87,9.68-2.86,14.41-4.41,5.65-1.86,11.24-3.9,16.73-6.17,22.56-9.38,43.16-23.07,58.21-42.54,3.83-4.94,7.44-10.07,11.5-14.83,4.02-4.72,8.54-8.42,13.37-12.23,10.13-7.98,17.45-18.66,26.28-27.91,8.96-9.38,17.93-18.27,24.4-29.67,4.92-8.67,8.64-20.64,1.06-28.98-1.42-1.55-3.09-2.82-4.92-3.88,4.95-4.21,9.47-9.94,12.46-15.65,3.99-7.58-.72-16.56-5.55-22.68-.95-1.2-1.95-2.21-3.01-3.09.07-.03.14-.08.2-.13,4.31-4,5.82-10.14,7.51-15.55,2.34-7.47,5.52-15.16,6.71-22.93,1.26-8.22-2.3-13.47-9.35-17.29-2.54-1.38-5.23-2.54-7.77-3.93,13.2-7.69,43.63-20.17,31.86-39.96-8.81-14.81-25.76-7.5-37.39-.38,4.5-23.35,9.01-46.71,13.5-70.06,1.97-10.23,3.94-20.46,5.91-30.7.4-2.08,1.03-4.33.96-6.46-.23-6.98-6.06-10.09-12.05-11.25-33.71-6.5-67.42-12.99-101.13-19.49-6.59-1.27-13.19-2.54-19.78-3.81-.47-.1-.95-.19-1.42-.29l-.22,1.03c1.21.25,2.41.53,3.58.76,16,3.08,32,6.17,48,9.25,18.33,3.53,36.65,7.06,54.98,10.6,5.34,1.03,10.68,2.06,16.02,3.09,6.11,1.17,10.21,5.49,9.27,12.18-.95,6.68-2.57,13.34-3.85,19.96-2.77,14.39-5.55,28.79-8.32,43.18-4.74,24.58-9.48,49.16-14.21,73.74-3.88.04-6.68,2-8.51,4.84,2.85-14.82,5.71-29.63,8.56-44.45,4.83-25.06,9.66-50.12,14.49-75.18.11-.57-1.14-.85-1.46-.91-5.31-1.02-10.61-2.05-15.91-3.07-37.23-7.17-74.46-14.35-111.69-21.52l-.2,1.04c4.98.96,9.96,1.92,14.94,2.87,37.23,7.18,74.46,14.36,111.69,21.53-1.73,8.93-3.45,17.86-5.17,26.79-7.69,39.92-15.38,79.84-23.08,119.76-1.83,9.48-3.66,18.97-5.48,28.45-7.93,2.2-13.94,8.06-20.96,12.04-5.58,3.17-12.87,3.04-18.04,6.8-5.56,4.05-.63,12.24,2.97,15.87,2.99,3.02,6.73,5.21,10.77,6.53l.39-1.21c-4.67-1.55-8.83-4.43-11.57-8.71-1.59-2.49-3.33-6.47-2.01-9.42,3.46,1.11,6.01,3.41,8.62,5.9,1.36,1.29,2.74,3.2,4.58,3.87,3.48,1.27,9.16-1.82,12.43-2.87,4.05-1.29,5.33-2.77,3.11-6.85-2.15-3.94-5.54-6.82-9.59-8.66,1.29-.66,2.58-1.4,3.88-2.26,6.2-4.08,11.99-8.85,19.45-10.28,7.68-1.48,15.52,1.71,22.93,3.41,9.28,2.14,14.87,8.55,18.19,17.26,2.6,6.8.45,11.47-3.51,16.98-2.55,3.55-5.41,7.12-8.72,10.04-.06.05-.13.11-.19.17-6.12-2.81-13.59-3.63-19.93-3.93l-.06,1.41c.29.02.56.03.85.04,2.74.17,5.49.53,8.2.96,6.43,1,13.49,2.88,17.29,8.63,3.43,5.18,2.97,11.61,1.17,17.28-3.56,11.2-11.91,21.43-19.84,29.88-4.35,4.64-9.02,8.9-13.21,13.7-3.38,3.88-6.63,7.88-10.07,11.7-7.96,8.82-18.06,15.06-25.66,24.2-7.16,8.6-13.22,17.94-21.22,25.84-8.27,8.16-17.7,15.04-27.79,20.77-10.16,5.77-20.95,10.38-31.98,14.22-5.07,1.76-10.74,2.82-15.91,4.72-1.62.6-3.2,1.28-4.7,2.09-9.08,4.93-17.05,12.44-24.78,19.16-12.23,10.64-24.07,21.7-35.83,32.85ZM388.08,285.04c-11.4-5.38-24.36-15.55-21.26-29.92.67-3.14,2.28-6.17,4.93-8.04,1.74-1.22,3.47-1.39,5.12-.96.77,2.26.97,4.57.38,6.98-.26,1.06-1.21,2.19-.73,3.32.5,1.19,2.99,2.03,4.05,2.64,1.99,1.14,4,2.25,6.04,3.33,1.42.76,4.46,3.15,6.2,2.15,2.02-1.18,2.08-5.23,1.79-7.84,2.76,1.35,5.52,2.87,7.46,5.25,3.6,4.4,2.54,10.33,1.19,15.42-1.73,6.48-3.97,12.85-5.98,19.26-1.46,4.65-2.81,9.73-6.13,13.41-.23.27-.48.52-.74.76-4.06-2.61-8.81-3.65-13.93-4.89-3.42-.83-6.72-1.74-10.01-2.33,1.75-9.13,3.52-18.26,5.27-27.39,4.28,4.33,9.79,7.59,15.29,10.18.22.1.44.15.65.16.98.03,1.7-.87.42-1.48Z"/>
    </g>
  </g>
  <g class="st18">
    <g>
      <rect class="st22" x="189.77" y="162.53" width="225.24" height="129.43" transform="translate(21.09 480.13) rotate(-78.88)"/>
      <path d="M269.58,111.65l-.79,4.04-.64-.13.79-4.04.64.13ZM271.84,112.91c.24.05.45.14.62.29.18.14.3.33.37.56.07.23.07.49.02.78l-.37,1.89-.64-.13.35-1.79c.06-.29.03-.52-.08-.7-.11-.18-.28-.3-.52-.34s-.45,0-.62.12c-.17.12-.28.33-.34.62l-.35,1.79-.64-.13.63-3.2.64.13-.07.37c.13-.11.29-.19.46-.23.18-.04.36-.04.55,0ZM274.42,116.86c-.24-.05-.46-.14-.63-.26-.17-.13-.3-.28-.38-.46-.08-.18-.11-.37-.08-.56l.67.13c-.02.14.02.26.12.38.1.11.24.19.41.22s.33.03.44-.02c.12-.05.19-.14.21-.25.02-.12-.02-.22-.12-.3-.1-.08-.26-.18-.49-.3-.22-.11-.4-.21-.53-.3s-.24-.21-.33-.36c-.08-.15-.1-.33-.06-.54.03-.17.11-.32.24-.44.13-.12.29-.21.48-.26.2-.05.42-.04.66,0,.35.07.62.22.8.45.18.23.25.5.2.82l-.64-.13c.02-.15-.02-.27-.1-.38-.08-.11-.21-.17-.39-.21s-.31-.03-.41.02-.17.13-.19.24c-.02.09,0,.16.05.23.05.07.11.13.19.18.08.05.2.11.36.2.21.11.39.21.52.3.13.09.24.21.32.35.08.14.1.32.07.53-.04.18-.12.34-.24.46-.13.12-.29.21-.48.26-.19.05-.41.05-.65,0ZM277.35,113.61c-.12-.02-.21-.08-.27-.18-.06-.1-.08-.21-.06-.33s.08-.21.18-.28.2-.09.32-.06.2.08.26.18c.06.1.08.21.06.33s-.08.21-.18.28-.2.09-.31.07ZM277.59,114.1l-.63,3.2-.64-.13.63-3.2.64.13ZM279.69,114.46c.24.05.44.14.61.28.17.13.29.28.37.45l.09-.47.65.13-.64,3.26c-.06.29-.17.54-.33.75-.17.21-.38.36-.63.44-.25.09-.54.1-.85.04-.42-.08-.75-.25-.99-.51-.24-.26-.34-.56-.31-.92l.64.13c.02.18.09.33.23.46.14.14.32.23.54.27.26.05.48.01.67-.12.19-.13.32-.35.38-.66l.11-.54c-.14.13-.31.23-.52.3-.2.06-.42.07-.66.03-.27-.05-.51-.17-.7-.36-.19-.19-.33-.42-.41-.7-.08-.28-.08-.58-.02-.9s.18-.59.36-.82c.18-.22.4-.38.64-.47.25-.1.52-.12.79-.06ZM280.45,116.32c.04-.22.04-.42-.02-.6-.05-.18-.14-.33-.27-.44-.13-.11-.27-.19-.44-.22s-.33-.02-.49.04c-.16.05-.3.15-.42.3-.12.14-.2.32-.24.54s-.04.42.02.61c.06.18.15.34.27.45.13.11.28.19.44.22s.33.02.49-.04c.16-.06.3-.16.42-.3.12-.15.21-.33.25-.55ZM283.88,115.28c.24.05.44.14.6.28.17.14.28.33.35.55.07.23.07.49.02.78l-.37,1.89-.64-.13.35-1.79c.06-.29.03-.52-.08-.7-.11-.18-.28-.3-.52-.34s-.45,0-.62.12c-.17.12-.28.33-.34.62l-.35,1.79-.64-.13.85-4.3.64.13-.29,1.47c.14-.11.29-.19.47-.23.18-.04.38-.04.57,0ZM286.57,116.42l-.35,1.77c-.02.12-.01.21.03.28.05.06.14.11.27.13l.4.08-.11.55-.51-.1c-.29-.06-.5-.17-.62-.34-.13-.17-.16-.41-.1-.73l.35-1.77-.37-.07.11-.54.37.07.16-.8.65.13-.16.8.76.15-.11.54-.76-.15ZM288.51,119.63c-.24-.05-.46-.14-.63-.26-.17-.13-.3-.28-.38-.46-.08-.18-.11-.37-.08-.56l.67.13c-.02.14.02.26.12.38.1.11.24.19.41.22s.33.03.44-.02c.12-.05.19-.14.21-.25.02-.12-.02-.22-.12-.3-.1-.08-.26-.18-.49-.3-.22-.11-.4-.21-.53-.3s-.24-.21-.33-.36c-.08-.15-.1-.33-.06-.54.03-.17.11-.32.24-.44.13-.12.29-.21.48-.26.2-.05.42-.04.66,0,.35.07.62.22.8.45.18.23.25.5.2.82l-.64-.13c.02-.15-.02-.27-.1-.38-.08-.11-.21-.17-.39-.21s-.31-.03-.41.02c-.1.05-.17.13-.19.24-.02.09,0,.16.05.23s.11.13.19.18c.08.05.2.11.36.2.21.11.39.21.52.3.13.09.24.21.32.35.08.14.1.32.07.53-.04.18-.12.34-.24.46-.13.12-.29.21-.48.26-.19.05-.41.05-.65,0Z"/>
      <path class="st36" d="M266.49,120.91l109.37,21.5c1.95.38,3.26,2.06,2.93,3.75l-60.52,307.94c-.33,1.69-2.18,2.75-4.13,2.37l-109.37-21.5c-1.95-.38-3.26-2.06-2.93-3.75l60.52-307.94c.33-1.69,2.18-2.75,4.13-2.37Z"/>
      <path d="M265.21,141.44c-.05.25-.18.45-.38.58-.2.13-.47.17-.82.1l-.57-.11-.25,1.27-.39-.08.6-3.04.95.19c.33.07.57.2.71.4.14.2.19.43.14.69ZM264.08,141.79c.21.04.38.03.5-.05s.2-.2.23-.38c.07-.38-.1-.6-.52-.69l-.57-.11-.22,1.12.57.11ZM268.85,141.25l-.59,3.02-.39-.08.44-2.25-1.42,2.06-.27-.05-.53-2.45-.44,2.26-.39-.08.59-3.02.41.08.59,2.71,1.57-2.28.41.08ZM269.99,144.28c.42-.23.75-.41.99-.56.24-.15.45-.32.63-.5.18-.18.29-.37.33-.57.04-.19.02-.35-.05-.47-.07-.13-.2-.21-.4-.25s-.35,0-.49.1c-.13.1-.22.25-.27.46l-.37-.07c.08-.32.22-.56.44-.7.22-.14.47-.18.75-.13s.5.19.64.38c.14.2.18.44.12.74-.05.24-.16.46-.35.67-.18.2-.38.37-.59.51-.21.14-.48.29-.8.47l1.46.29-.07.33-2.04-.4.06-.28ZM272.59,145.15c-.07-.01-.13-.05-.17-.12-.04-.06-.05-.13-.04-.21s.05-.13.11-.18c.06-.04.13-.06.2-.04s.12.05.16.11c.04.06.05.13.04.21s-.05.13-.11.18c-.06.04-.12.06-.19.04ZM275.81,142.83l-1.49-.29-.2.99c.08-.08.19-.14.33-.17.14-.04.28-.04.43-.01.23.05.41.13.54.27.13.13.21.28.24.45.03.17.03.34,0,.52-.04.21-.12.39-.22.54s-.25.26-.43.32c-.17.07-.38.08-.61.03-.3-.06-.52-.18-.67-.38s-.22-.42-.21-.69l.38.07c0,.17.06.32.16.43.1.12.24.19.42.23.22.04.4,0,.54-.11.14-.12.23-.29.28-.52s.02-.41-.07-.56c-.09-.15-.24-.24-.46-.29-.15-.03-.29-.02-.42.04-.12.05-.22.14-.3.25l-.36-.07.35-1.78,1.84.36-.07.35Z"/>
      <path d="M253.71,199.96c-.05.25-.18.45-.38.58-.2.13-.47.17-.82.1l-.57-.11-.25,1.27-.39-.08.6-3.04.95.19c.33.07.57.2.71.4.14.2.19.43.14.69ZM252.58,200.32c.21.04.38.03.5-.05s.2-.2.23-.38c.07-.38-.1-.6-.52-.69l-.57-.11-.22,1.12.57.11ZM257.35,199.78l-.59,3.02-.39-.08.44-2.25-1.42,2.06-.27-.05-.53-2.45-.44,2.26-.39-.08.59-3.02.41.08.59,2.71,1.57-2.28.41.08ZM258.92,200.32l.07-.36.8.16-.62,3.15-.39-.08.55-2.79-.41-.08ZM260.15,201.79c.1-.5.25-.87.47-1.12.21-.25.52-.34.91-.26s.64.27.74.59c.1.31.11.72,0,1.22s-.26.89-.47,1.14-.52.34-.91.26-.64-.27-.75-.59c-.1-.31-.1-.72,0-1.23ZM261.9,202.13c.05-.25.07-.47.08-.65,0-.18-.03-.34-.11-.47-.08-.13-.21-.21-.4-.25s-.35-.01-.47.07c-.12.09-.21.22-.28.39-.07.17-.12.38-.17.63s-.08.48-.08.67c0,.18.04.34.11.47.08.13.22.21.41.25s.34.01.46-.08c.12-.09.22-.22.28-.39.07-.17.13-.39.18-.65Z"/>
      <path d="M242.97,256.2l-.6,3.04-.39-.08.27-1.38-1.5-.3-.27,1.38-.39-.08.6-3.04.39.08-.26,1.33,1.5.3.26-1.33.39.08ZM245.55,257.39l-.47,2.39-.39-.08.07-.35c-.1.11-.22.18-.37.23-.14.04-.29.05-.45.02-.18-.04-.34-.11-.46-.21-.13-.11-.22-.25-.27-.42-.05-.17-.06-.37-.01-.59l.28-1.4.38.07-.26,1.35c-.05.24-.02.43.07.58.09.15.24.24.44.28s.38,0,.53-.1c.14-.11.24-.29.29-.54l.26-1.31.39.08ZM249,258.02c.18.04.33.11.46.21.13.1.22.24.27.41.05.17.06.37.01.59l-.28,1.41-.38-.07.27-1.35c.05-.24.02-.43-.07-.58-.09-.15-.23-.24-.42-.28s-.37,0-.52.11c-.14.11-.24.29-.29.54l-.26,1.32-.38-.07.27-1.35c.05-.24.02-.43-.07-.58-.09-.15-.23-.24-.42-.28s-.37,0-.52.11c-.14.11-.24.29-.29.54l-.26,1.32-.39-.08.47-2.39.39.08-.07.34c.1-.11.22-.19.36-.23.14-.04.29-.05.45-.02.19.04.36.12.49.24.13.12.22.27.26.46.1-.16.23-.27.4-.33.17-.06.34-.08.53-.04ZM250.84,258.02c-.07-.01-.13-.05-.17-.12-.04-.06-.05-.13-.04-.21s.05-.13.11-.18c.06-.04.13-.06.2-.04s.12.05.16.11c.04.06.05.13.04.21s-.05.13-.11.18c-.06.04-.12.06-.19.04ZM250.95,258.45l-.47,2.39-.39-.08.47-2.39.39.08ZM251.23,259.73c.05-.24.14-.45.27-.61.13-.17.29-.29.48-.35.19-.07.39-.08.6-.04.18.04.34.11.48.23.14.11.24.25.29.41l.25-1.27.39.08-.63,3.23-.39-.08.09-.45c-.1.13-.24.22-.41.29-.17.06-.35.07-.55.03s-.38-.13-.53-.27c-.15-.14-.25-.31-.31-.52s-.06-.43-.02-.67ZM253.19,260.12c.04-.18.03-.34-.01-.49s-.12-.27-.23-.36c-.1-.1-.23-.16-.37-.19s-.28-.02-.41.03-.25.13-.34.25c-.1.12-.16.27-.2.45s-.03.35.01.5c.04.15.12.27.22.37.1.09.23.15.37.18s.28.02.41-.03c.14-.05.25-.13.35-.25.1-.12.16-.27.2-.45ZM254.74,258.79c-.07-.01-.13-.05-.17-.12-.04-.06-.05-.13-.04-.21s.05-.13.11-.18c.06-.04.13-.06.2-.04s.12.05.16.11c.04.06.05.13.04.21s-.05.13-.11.18c-.06.04-.12.06-.19.04ZM254.85,259.21l-.47,2.39-.39-.08.47-2.39.39.08ZM255.92,259.76l-.28,1.41c-.02.12-.02.2.02.26.04.06.12.1.24.12l.28.06-.07.34-.35-.07c-.21-.04-.37-.12-.45-.25-.09-.12-.11-.3-.06-.53l.28-1.41-.3-.06.06-.33.3.06.12-.6.39.08-.12.6.61.12-.06.33-.61-.12ZM259.05,260.04l-2.09,3.24-.4-.08.68-1.06-.47-2.55.43.08.35,2.08,1.1-1.8.4.08Z"/>
      <path d="M230.72,316.09l-.06.32-.8-.16-.53,2.72-.39-.08.53-2.72-.81-.16.06-.32,2,.39ZM232.97,318.35c-.01.08-.03.15-.06.24l-1.85-.36c-.03.24,0,.44.12.6.12.16.28.26.48.3.17.03.31.02.44-.04.13-.06.23-.15.3-.28l.41.08c-.11.22-.27.38-.48.49-.21.11-.46.13-.74.08-.22-.04-.41-.13-.56-.27-.15-.14-.26-.31-.32-.51-.06-.21-.07-.44-.02-.68s.14-.45.27-.62c.13-.17.29-.28.49-.35.19-.07.41-.08.63-.03s.41.13.56.26.25.29.31.49c.06.19.07.39.02.61ZM232.59,318.19c.03-.15.02-.29-.02-.41-.04-.12-.12-.22-.22-.3-.1-.08-.22-.13-.35-.16-.19-.04-.37,0-.54.09-.16.1-.27.26-.34.49l1.46.29ZM236.49,317.86c.18.04.33.11.46.21.13.1.22.24.27.41s.06.37.01.59l-.28,1.41-.38-.07.27-1.35c.05-.24.02-.43-.07-.58-.09-.15-.23-.24-.42-.28s-.37,0-.52.11c-.14.11-.24.29-.29.54l-.26,1.32-.38-.07.27-1.35c.05-.24.02-.43-.07-.58-.09-.15-.23-.24-.42-.28s-.37,0-.52.11c-.14.11-.24.29-.29.54l-.26,1.32-.39-.08.47-2.39.39.08-.07.34c.1-.11.22-.19.36-.23.14-.04.29-.05.45-.02.19.04.36.12.49.24.13.12.22.27.26.46.1-.16.23-.27.4-.33.17-.06.34-.08.53-.04ZM238.35,318.72c.1-.12.24-.21.41-.27.17-.06.36-.07.56-.04s.38.13.53.26c.15.14.25.31.31.51.06.2.07.43.02.67s-.14.45-.27.62c-.13.17-.29.29-.48.36-.19.07-.38.09-.59.05s-.36-.12-.5-.24c-.13-.12-.22-.26-.28-.41l-.31,1.57-.39-.08.69-3.52.39.08-.09.44ZM239.78,319.78c.04-.18.03-.34-.01-.49-.04-.15-.12-.27-.23-.36-.1-.09-.23-.15-.37-.18s-.28-.02-.42.03c-.13.05-.25.13-.35.25-.1.12-.16.27-.2.45s-.03.35.01.5c.05.15.12.27.23.37.11.09.23.15.37.18s.28.02.41-.03c.14-.05.25-.13.35-.25.1-.12.16-.28.2-.46ZM242.81,320.29c-.01.08-.03.15-.06.24l-1.85-.36c-.03.24,0,.44.12.6.12.16.28.26.48.3.17.03.31.02.44-.04.13-.06.23-.15.3-.28l.41.08c-.11.22-.27.38-.48.49-.21.11-.46.13-.74.08-.22-.04-.41-.13-.56-.27-.15-.14-.26-.31-.32-.51-.06-.21-.07-.44-.02-.68s.14-.45.27-.62c.13-.17.29-.28.49-.35.19-.07.41-.08.63-.03s.41.13.56.26c.15.13.25.29.31.49.06.19.07.39.02.61ZM242.43,320.13c.03-.15.02-.29-.02-.41-.04-.12-.12-.22-.22-.3-.1-.08-.22-.13-.35-.16-.19-.04-.37,0-.54.09-.16.1-.27.26-.34.49l1.46.29ZM243.85,319.75c.09-.12.21-.21.35-.26.14-.05.3-.06.48-.02l-.08.41-.1-.02c-.43-.08-.7.11-.79.6l-.26,1.3-.39-.08.47-2.39.39.08-.08.39ZM244.74,320.75c.05-.24.14-.45.27-.61.13-.17.29-.29.48-.35.19-.07.39-.08.59-.04s.37.12.5.24c.13.12.22.25.27.41l.09-.44.39.08-.47,2.39-.39-.08.09-.44c-.1.12-.24.22-.41.28-.17.06-.35.07-.55.03s-.38-.13-.53-.27c-.15-.14-.25-.31-.31-.52s-.06-.43-.02-.67ZM246.71,321.15c.04-.18.03-.34-.01-.49s-.12-.27-.23-.36c-.1-.1-.23-.16-.37-.19s-.28-.02-.41.03c-.13.05-.25.13-.34.25-.1.12-.16.27-.2.45s-.03.35.01.5c.04.15.12.27.22.37.1.09.23.15.37.18s.28.02.41-.03c.14-.05.25-.13.35-.25.1-.12.16-.27.2-.45ZM248.39,320.58l-.28,1.41c-.02.12-.02.2.02.26.04.06.12.1.24.12l.28.06-.07.34-.35-.07c-.21-.04-.37-.12-.45-.25-.09-.12-.11-.3-.06-.53l.28-1.41-.3-.06.06-.33.3.06.12-.6.39.08-.12.6.61.12-.06.33-.61-.12ZM251.58,320.87l-.47,2.39-.39-.08.07-.35c-.1.11-.22.18-.37.23-.14.04-.29.05-.45.02-.18-.04-.34-.11-.46-.21-.13-.11-.22-.25-.27-.42-.05-.17-.06-.37-.01-.59l.28-1.4.38.07-.26,1.35c-.05.24-.02.43.07.58.09.15.24.24.44.28s.38,0,.53-.1c.14-.11.24-.29.29-.54l.26-1.31.39.08ZM252.54,321.46c.09-.12.21-.21.35-.26.14-.05.3-.06.48-.02l-.08.41-.1-.02c-.43-.08-.7.11-.79.6l-.26,1.3-.39-.08.47-2.39.39.08-.08.39ZM255.71,322.82c-.01.08-.03.15-.06.24l-1.85-.36c-.03.24,0,.44.12.6.12.16.28.26.48.3.17.03.31.02.44-.04.13-.06.23-.15.3-.28l.41.08c-.11.22-.27.38-.48.49-.21.11-.46.13-.74.08-.22-.04-.41-.13-.56-.27-.15-.14-.26-.31-.32-.51-.06-.21-.07-.44-.02-.68s.14-.45.27-.62c.13-.17.29-.28.49-.35.19-.07.41-.08.63-.03s.41.13.56.26c.15.13.25.29.31.49.06.19.07.39.02.61ZM255.33,322.66c.03-.15.02-.29-.02-.41-.04-.12-.12-.22-.22-.3-.1-.08-.22-.13-.35-.16-.19-.04-.37,0-.54.09-.16.1-.27.26-.34.49l1.46.29Z"/>
      <path class="st8" d="M265.13,129.69l109.37,21.5"/>
      <path class="st25" d="M259.44,191.41l-.3,1.51-.19-.04.22-1.13-.71,1.03-.14-.03-.27-1.22-.22,1.13-.19-.04.3-1.51.21.04.3,1.35.79-1.14.21.04ZM260.26,193.15c-.14-.03-.26-.08-.36-.17-.1-.09-.17-.2-.21-.33-.04-.13-.05-.27-.02-.42s.09-.27.18-.38c.09-.11.2-.18.32-.22.13-.04.26-.05.39-.03s.26.09.36.17c.1.09.17.2.21.33.04.13.05.27.02.42s-.09.28-.18.38c-.09.11-.2.18-.32.22-.13.04-.26.05-.4.02ZM260.29,192.98c.1.02.2.01.29-.02.09-.03.17-.09.24-.17.07-.08.11-.18.13-.3s.02-.23,0-.33c-.03-.1-.08-.18-.15-.25-.07-.07-.16-.11-.26-.13s-.2-.01-.29.02c-.09.03-.17.09-.24.17-.06.08-.11.18-.13.3s-.02.23,0,.33c.03.1.08.18.15.25.07.07.16.11.26.13ZM262.54,193.59l-.19-.04-.54-1.36-.24,1.21-.19-.04.3-1.52.19.04.54,1.36.24-1.21.19.04-.3,1.52Z"/>
      <path class="st25" d="M275.72,194.6l-.03.16-.4-.08-.27,1.36-.19-.04.27-1.36-.4-.08.03-.16,1,.2ZM276.27,194.71l-.19.96c-.03.14-.01.24.04.32.05.08.14.13.25.15s.21,0,.28-.05c.08-.05.13-.15.16-.28l.19-.96.19.04-.19.96c-.02.13-.07.23-.14.31-.07.08-.15.13-.24.15-.09.03-.19.03-.29,0s-.19-.06-.27-.12c-.07-.06-.13-.14-.16-.23-.03-.1-.03-.21,0-.33l.19-.96.19.04ZM277.8,195.17l-.1.51.54.11-.03.16-.54-.11-.1.52.6.12-.03.16-.79-.16.3-1.52.79.16-.03.16-.6-.12Z"/>
      <path class="st25" d="M292.72,197.94l-.73,1.44-.22-.04-.1-1.29-.6,1.15-.21-.04-.11-1.6.21.04.07,1.35.61-1.22.22.04.09,1.35.58-1.22.21.04ZM293.22,198.21l-.1.51.54.11-.03.16-.54-.11-.1.52.6.12-.03.16-.79-.16.3-1.52.79.16-.03.16-.6-.12ZM294.73,198.33c.16.03.29.09.4.18.11.08.18.19.22.32.04.13.05.27.02.42s-.09.28-.17.39c-.08.1-.19.17-.32.21-.13.04-.27.04-.43,0l-.46-.09.3-1.52.46.09ZM294.47,199.69c.19.04.35.01.47-.07.12-.08.2-.22.24-.41s.02-.35-.07-.47c-.08-.13-.21-.21-.4-.24l-.27-.05-.23,1.2.27.05Z"/>
      <path class="st25" d="M308.99,201.14l-.03.16-.4-.08-.27,1.36-.19-.04.27-1.36-.4-.08.03-.16,1,.2ZM310.49,201.43l-.3,1.52-.19-.04.14-.69-.75-.15-.14.69-.19-.04.3-1.52.19.04-.13.67.75.15.13-.67.19.04ZM311.14,201.56l-.19.96c-.03.14-.01.24.04.32.05.08.14.13.25.15s.21,0,.28-.05c.08-.05.13-.15.16-.28l.19-.96.19.04-.19.96c-.02.13-.07.23-.14.31-.07.08-.15.13-.24.15-.09.03-.19.03-.29,0s-.19-.06-.27-.12c-.07-.06-.13-.14-.16-.23-.03-.1-.03-.21,0-.33l.19-.96.19.04Z"/>
      <path class="st25" d="M326.09,204.5l-.03.16-.64-.13-.1.51.52.1-.03.16-.52-.1-.13.68-.19-.04.3-1.52.83.16ZM326.93,206.24l-.23-.69-.23-.05-.12.62-.19-.04.3-1.52.48.09c.11.02.2.06.27.11.07.05.12.12.14.19s.03.15.01.24c-.02.1-.07.19-.14.26-.07.07-.17.1-.29.11l.25.71-.23-.05ZM326.5,205.35l.28.06c.1.02.19,0,.25-.03.06-.04.1-.11.12-.2s0-.17-.04-.22c-.04-.06-.11-.1-.22-.12l-.28-.06-.11.58ZM328.06,204.88l-.3,1.52-.19-.04.3-1.52.19.04Z"/>
      <path class="st25" d="M341.54,209.13c-.1-.02-.18-.05-.25-.1-.07-.05-.12-.11-.15-.18-.03-.07-.04-.15-.02-.23l.21.04c0,.07,0,.14.05.2.04.06.11.1.21.12s.17,0,.23-.03c.06-.04.1-.09.12-.17.01-.06,0-.11-.02-.15-.02-.04-.06-.08-.1-.11-.04-.03-.1-.06-.18-.1-.09-.05-.17-.09-.22-.12-.05-.04-.09-.09-.13-.15-.03-.06-.04-.14-.02-.24.02-.08.05-.15.1-.21.05-.06.12-.09.2-.11.08-.02.17-.02.27,0,.14.03.24.08.32.17.07.09.11.19.09.31l-.21-.04c0-.06-.02-.12-.06-.17-.04-.06-.11-.09-.19-.11-.08-.02-.15,0-.21.03-.06.03-.1.09-.11.16-.01.06,0,.1.02.14.02.04.06.08.1.1.04.03.1.06.18.1.09.05.16.09.22.13.05.04.1.09.13.15.03.06.04.14.02.24-.01.07-.05.14-.1.2-.05.06-.12.1-.2.13s-.17.03-.28,0ZM343.38,209.12l-.64-.13-.18.31-.2-.04.83-1.41.22.04.23,1.62-.2-.04-.05-.36ZM343.36,208.95l-.12-.82-.42.72.53.1ZM345.2,208.25l-.03.16-.4-.08-.27,1.36-.19-.04.27-1.36-.4-.08.03-.16,1,.2Z"/>
      <path class="st25" d="M357.8,212.33c-.1-.02-.18-.05-.25-.1-.07-.05-.12-.11-.15-.18-.03-.07-.04-.15-.02-.23l.21.04c0,.07,0,.14.05.2.04.06.11.1.21.12s.17,0,.23-.03c.06-.04.1-.09.12-.17.01-.06,0-.11-.02-.15s-.06-.08-.1-.11c-.04-.03-.1-.06-.18-.1-.09-.05-.17-.09-.22-.12-.05-.04-.09-.09-.13-.15-.03-.06-.04-.14-.02-.24.02-.08.05-.15.1-.21.05-.06.12-.09.2-.11.08-.02.17-.02.27,0,.14.03.24.08.32.17.07.09.11.19.09.31l-.21-.04c0-.06-.02-.12-.06-.17-.04-.06-.11-.09-.19-.11-.08-.02-.15,0-.21.03-.06.03-.1.09-.11.16-.01.06,0,.1.02.14.02.04.06.08.1.1.04.03.1.06.18.1.09.05.16.09.22.13.05.04.1.09.13.15.03.06.04.14.02.24-.01.07-.05.14-.1.2-.05.06-.12.1-.2.13s-.17.03-.28,0ZM359.19,211l-.19.96c-.03.14-.01.24.04.32.05.08.14.13.25.15s.21,0,.28-.05c.08-.05.13-.15.16-.28l.19-.96.19.04-.19.96c-.02.13-.07.23-.14.31-.07.08-.15.13-.24.15-.09.03-.19.03-.29,0s-.19-.06-.27-.12c-.07-.06-.13-.14-.16-.23-.03-.1-.03-.21,0-.33l.19-.96.19.04ZM361.42,213.02l-.19-.04-.54-1.36-.24,1.21-.19-.04.3-1.52.19.04.54,1.36.24-1.21.19.04-.3,1.52Z"/>
      <path class="st25" d="M255.9,185.02c.05-.25.13-.44.23-.56.11-.13.26-.17.46-.13s.32.14.37.29c.05.16.05.36,0,.61s-.13.44-.24.57-.26.17-.45.13-.32-.14-.37-.29c-.05-.16-.05-.36,0-.62ZM256.77,185.19c.02-.13.04-.24.04-.33,0-.09-.02-.17-.06-.23-.04-.06-.11-.1-.2-.12s-.17,0-.24.04c-.06.04-.11.11-.14.19-.03.08-.06.19-.09.32s-.04.24-.04.33c0,.09.02.17.06.23.04.06.11.11.2.12s.17,0,.23-.04c.06-.04.11-.11.14-.19.03-.09.06-.19.09-.32Z"/>
      <path class="st25" d="M255.59,178.18c.21-.11.37-.21.49-.28.12-.08.23-.16.31-.25.09-.09.15-.19.17-.29.02-.09.01-.17-.02-.24-.03-.06-.1-.11-.2-.12s-.18,0-.24.05c-.06.05-.11.13-.13.23l-.19-.04c.04-.16.11-.28.22-.35.11-.07.23-.09.38-.06s.25.09.32.19c.07.1.09.22.06.37-.02.12-.08.23-.18.33-.09.1-.19.18-.3.25-.11.07-.24.15-.4.23l.73.14-.03.17-1.02-.2.03-.14ZM256.96,177.77c.05-.25.13-.44.23-.56.11-.13.26-.17.46-.13s.32.14.37.29c.05.16.05.36,0,.61s-.13.44-.24.57c-.11.13-.26.17-.45.13s-.32-.14-.37-.29c-.05-.16-.05-.36,0-.62ZM257.83,177.95c.02-.13.04-.24.04-.33,0-.09-.02-.17-.06-.23-.04-.06-.11-.1-.2-.12s-.17,0-.24.04c-.06.04-.11.11-.14.19-.03.08-.06.19-.09.32s-.04.24-.04.33c0,.09.02.17.06.23.04.06.11.11.2.12s.17,0,.23-.04c.06-.04.11-.11.14-.19.03-.09.06-.19.09-.32Z"/>
      <path class="st25" d="M257.25,170.85l.03-.15.95-.91.23.05-.2,1.04.21.04-.03.17-.21-.04-.07.35-.19-.04.07-.35-.78-.15ZM258.24,170l-.73.72.57.11.16-.83ZM258.72,170.66c.05-.25.13-.44.23-.56.11-.13.26-.17.46-.13s.32.14.37.29c.05.16.05.36,0,.61s-.13.44-.24.57-.26.17-.45.13-.32-.14-.37-.29c-.05-.16-.05-.36,0-.62ZM259.59,170.84c.02-.13.04-.24.04-.33,0-.09-.02-.17-.06-.23-.04-.06-.11-.1-.2-.12s-.17,0-.24.04c-.06.04-.11.11-.14.19-.03.08-.06.19-.09.32s-.04.24-.04.33c0,.09.02.17.06.23.04.06.11.11.2.12s.17,0,.23-.04c.06-.04.11-.11.14-.19.03-.09.06-.19.09-.32Z"/>
      <path class="st25" d="M259.72,162.99c0-.17-.08-.27-.24-.3-.13-.02-.23,0-.31.1-.08.09-.14.24-.19.47.05-.07.11-.12.2-.15.08-.03.17-.03.27-.02.15.03.25.1.32.21.07.11.09.25.06.41-.02.1-.06.18-.11.25-.05.07-.12.12-.21.15-.08.03-.18.04-.29.02-.15-.03-.25-.08-.32-.17-.07-.08-.11-.19-.12-.31,0-.12,0-.27.04-.45.1-.53.34-.76.7-.69.14.03.24.09.3.18.06.09.09.2.08.32l-.18-.03ZM259.37,163.26c-.06-.01-.12-.01-.18,0-.06.01-.11.04-.15.09-.04.04-.07.1-.09.18-.02.11,0,.21.04.29.05.08.13.13.25.15.1.02.18,0,.25-.05.07-.05.12-.13.14-.24.02-.11.01-.21-.03-.28-.04-.08-.12-.13-.23-.15ZM260.13,163.49c.05-.25.13-.44.23-.56.11-.13.26-.17.46-.13s.32.14.37.29c.05.16.05.36,0,.61s-.13.44-.24.57-.26.17-.45.13-.32-.14-.37-.29c-.05-.16-.05-.36,0-.62ZM261,163.66c.02-.13.04-.24.04-.33,0-.09-.02-.17-.06-.23-.04-.06-.11-.1-.2-.12s-.17,0-.24.04c-.06.04-.11.11-.14.19-.03.08-.06.19-.09.32s-.04.24-.04.33c0,.09.02.17.06.23.04.06.11.11.2.12s.17,0,.23-.04c.06-.04.11-.11.14-.19.03-.09.06-.19.09-.32Z"/>
      <path class="st25" d="M260.49,156.09c-.07-.05-.12-.11-.15-.18-.03-.07-.04-.15-.02-.23.02-.08.05-.15.1-.2.05-.06.12-.1.2-.12.08-.02.18-.02.29,0s.19.06.26.11c.07.05.12.11.14.18.03.07.03.14.02.22-.02.08-.05.15-.11.21-.06.05-.13.09-.21.1.08.04.14.11.18.19.04.08.05.17.03.26s-.06.17-.12.24c-.06.06-.13.1-.22.13-.09.02-.19.02-.29,0s-.2-.06-.27-.11c-.07-.06-.12-.12-.16-.2-.03-.08-.04-.17-.02-.26s.06-.18.13-.24c.06-.06.14-.09.24-.1ZM261.13,155.86c.02-.09,0-.16-.04-.22-.05-.06-.12-.1-.22-.12s-.18-.01-.24.03c-.07.04-.11.1-.13.19-.02.08,0,.15.05.21.05.06.12.1.21.12s.18,0,.24-.03c.07-.04.11-.1.13-.18ZM260.73,156.22c-.1-.02-.19-.01-.27.03-.08.04-.12.1-.14.21-.02.09,0,.17.05.24.05.07.13.11.24.14s.2,0,.27-.03c.07-.04.12-.11.14-.21s0-.18-.05-.24c-.05-.07-.13-.11-.24-.13ZM261.54,156.31c.05-.25.13-.44.23-.56.11-.13.26-.17.46-.13s.32.14.37.29c.05.16.05.36,0,.61s-.13.44-.24.57-.26.17-.45.13-.32-.14-.37-.29c-.05-.16-.05-.36,0-.62ZM262.42,156.48c.02-.13.04-.24.04-.33,0-.09-.02-.17-.06-.23-.04-.06-.11-.1-.2-.12s-.17,0-.24.04c-.06.04-.11.11-.14.19-.03.08-.06.19-.09.32s-.04.24-.04.33c0,.09.02.17.06.23.04.06.11.11.2.12s.17,0,.23-.04c.06-.04.11-.11.14-.19.03-.09.06-.19.09-.32Z"/>
      <path class="st25" d="M261.01,148.13l.04-.18.4.08-.31,1.58-.19-.04.27-1.4-.2-.04ZM261.62,148.87c.05-.25.13-.44.23-.56.11-.13.26-.17.46-.13s.32.14.37.29c.05.16.05.36,0,.61s-.13.44-.24.57c-.11.13-.26.17-.45.13s-.32-.14-.37-.29c-.05-.16-.05-.36,0-.62ZM262.5,149.04c.02-.13.04-.24.04-.33,0-.09-.02-.17-.06-.23-.04-.06-.11-.1-.2-.12s-.17,0-.24.04c-.06.04-.11.11-.14.19-.03.08-.06.19-.09.32s-.04.24-.04.33c0,.09.02.17.06.23.04.06.11.11.2.12s.17,0,.23-.04c.06-.04.11-.11.14-.19.03-.09.06-.19.09-.32ZM262.95,149.13c.05-.25.13-.44.23-.56.11-.13.26-.17.46-.13s.32.14.37.29c.05.16.05.36,0,.61s-.13.44-.24.57-.26.17-.45.13-.32-.14-.37-.29c-.05-.16-.05-.36,0-.62ZM263.83,149.3c.02-.13.04-.24.04-.33,0-.09-.02-.17-.06-.23-.04-.06-.11-.1-.2-.12s-.17,0-.24.04c-.06.04-.11.11-.14.19-.03.08-.06.19-.09.32s-.04.24-.04.33c0,.09.02.17.06.23.04.06.11.11.2.12s.17,0,.23-.04c.06-.04.11-.11.14-.19.03-.09.06-.19.09-.32Z"/>
      <line class="st3" x1="266.07" y1="149.94" x2="370.35" y2="170.44"/>
      <line class="st3" x1="264.69" y1="156.98" x2="368.97" y2="177.47"/>
      <line class="st3" x1="263.3" y1="164.01" x2="367.58" y2="184.51"/>
      <line class="st3" x1="261.92" y1="171.05" x2="366.2" y2="191.55"/>
      <line class="st3" x1="260.54" y1="178.09" x2="364.82" y2="198.58"/>
      <line class="st3" x1="259" y1="185.88" x2="363.28" y2="206.38"/>
      <g class="st26">
        <path class="st13" d="M269,165.8c-2.29,2.47-5.35,2.72-6.6,2.54l-3.46,17.62,104.51,20.54,4.89-24.89c-1.91-.13-5.15-.09-8.29,4.65-3.93,5.93-7.14,1.04-8.51-.51-1.37-1.55-4.14-2.5-5.94-2.65-1.8-.15-4.66-.27-5.5-2.93s-1.86-4.47-5.56-4.58c-3.21-.51-4.59-.82-5.86-2.28-1.27-1.45-5.2-5.04-9.04-2.34-3.84,2.7-7.44,3.55-10.01-1.61-2.57-5.16-6.35-5.34-8.06-4.15s-3.53,5.48-7.22,6.12c-3.04.02-4.93.67-8.66,3.36-4.81,3.47-6.47-.75-7.41-5.67-.94-4.92-6.39-6.31-9.26-3.22Z"/>
      </g>
      <path class="st2" d="M262.57,168.34c1.24.18,4.29-.07,6.58-2.54,2.86-3.09,8.29-1.7,9.23,3.22.94,4.92,2.59,9.14,7.39,5.67,4.8-3.47,5.05-2.86,8.68-3.27,3.66-.41,4.46-4.07,7.41-6.13,1.71-1.19,5.23-1.1,7.78,4.06,2.56,5.16,6.14,4.3,9.97,1.6,3.83-2.7,7.75.88,9.01,2.33,1.27,1.45,2.98,2.16,5.84,2.27,3.56.13,4.71,1.93,5.54,4.58.84,2.65,3.69,2.77,5.48,2.92,1.79.15,4.56,1.1,5.92,2.65,1.36,1.55,4.56,6.43,8.48.5,3.14-4.74,6.76-4.74,8.39-4.6"/>
      <path class="st25" d="M247.99,249.62l-.3,1.51-.19-.04.22-1.13-.71,1.03-.14-.03-.27-1.22-.22,1.13-.19-.04.3-1.51.21.04.3,1.35.79-1.14.21.04ZM248.82,251.37c-.14-.03-.26-.08-.36-.17-.1-.09-.17-.2-.21-.33-.04-.13-.05-.27-.02-.42s.09-.27.18-.38c.09-.11.2-.18.32-.22.13-.04.26-.05.39-.03s.26.09.36.17c.1.09.17.2.21.33.04.13.05.27.02.42s-.09.28-.18.38c-.09.11-.2.18-.32.22-.13.04-.26.05-.4.02ZM248.85,251.2c.1.02.2.01.29-.02.09-.03.17-.09.24-.17.07-.08.11-.18.13-.3s.02-.23,0-.33c-.03-.1-.08-.18-.15-.25-.07-.07-.16-.11-.26-.13s-.2-.01-.29.02c-.09.03-.17.09-.24.17-.06.08-.11.18-.13.3s-.02.23,0,.33c.03.1.08.18.15.25.07.07.16.11.26.13ZM251.1,251.8l-.19-.04-.54-1.36-.24,1.21-.19-.04.3-1.52.19.04.54,1.36.24-1.21.19.04-.3,1.52Z"/>
      <path class="st25" d="M264.27,252.81l-.03.16-.4-.08-.27,1.36-.19-.04.27-1.36-.4-.08.03-.16,1,.2ZM264.83,252.92l-.19.96c-.03.14-.01.24.04.32.05.08.14.13.25.15s.21,0,.28-.05c.08-.05.13-.15.16-.28l.19-.96.19.04-.19.96c-.02.13-.07.23-.14.31-.07.08-.15.13-.24.15-.09.03-.19.03-.29,0s-.19-.06-.27-.12c-.07-.06-.13-.14-.16-.23-.03-.1-.03-.21,0-.33l.19-.96.19.04ZM266.36,253.39l-.1.51.54.11-.03.16-.54-.11-.1.52.6.12-.03.16-.79-.16.3-1.52.79.16-.03.16-.6-.12Z"/>
      <path class="st25" d="M281.28,256.16l-.73,1.44-.22-.04-.1-1.29-.6,1.15-.21-.04-.11-1.6.21.04.07,1.35.61-1.22.22.04.09,1.35.58-1.22.21.04ZM281.78,256.42l-.1.51.54.11-.03.16-.54-.11-.1.52.6.12-.03.16-.79-.16.3-1.52.79.16-.03.16-.6-.12ZM283.29,256.55c.16.03.29.09.4.18.11.08.18.19.22.32.04.13.05.27.02.42s-.09.28-.17.39c-.08.1-.19.17-.32.21-.13.04-.27.04-.43,0l-.46-.09.3-1.52.46.09ZM283.02,257.91c.19.04.35.01.47-.07.12-.08.2-.22.24-.41s.02-.35-.07-.47c-.08-.13-.21-.21-.4-.24l-.27-.05-.23,1.2.27.05Z"/>
      <path class="st25" d="M297.55,259.35l-.03.16-.4-.08-.27,1.36-.19-.04.27-1.36-.4-.08.03-.16,1,.2ZM299.05,259.65l-.3,1.52-.19-.04.14-.69-.75-.15-.14.69-.19-.04.3-1.52.19.04-.13.67.75.15.13-.67.19.04ZM299.69,259.77l-.19.96c-.03.14-.01.24.04.32.05.08.14.13.25.15s.21,0,.28-.05c.08-.05.13-.15.16-.28l.19-.96.19.04-.19.96c-.02.13-.07.23-.14.31-.07.08-.15.13-.24.15-.09.03-.19.03-.29,0s-.19-.06-.27-.12c-.07-.06-.13-.14-.16-.23-.03-.1-.03-.21,0-.33l.19-.96.19.04Z"/>
      <path class="st25" d="M314.65,262.71l-.03.16-.64-.13-.1.51.52.1-.03.16-.52-.1-.13.68-.19-.04.3-1.52.83.16ZM315.48,264.46l-.23-.69-.23-.05-.12.62-.19-.04.3-1.52.48.09c.11.02.2.06.27.11.07.05.12.12.14.19s.03.15.01.24c-.02.1-.07.19-.14.26-.07.07-.17.1-.29.11l.25.71-.23-.05ZM315.05,263.56l.28.06c.1.02.19,0,.25-.03.06-.04.1-.11.12-.2s0-.17-.04-.22c-.04-.06-.11-.1-.22-.12l-.28-.06-.11.58ZM316.61,263.1l-.3,1.52-.19-.04.3-1.52.19.04Z"/>
      <path class="st25" d="M330.09,267.34c-.1-.02-.18-.05-.25-.1-.07-.05-.12-.11-.15-.18-.03-.07-.04-.15-.02-.23l.21.04c0,.07,0,.14.05.2.04.06.11.1.21.12s.17,0,.23-.03c.06-.04.1-.09.12-.17.01-.06,0-.11-.02-.15-.02-.04-.06-.08-.1-.11-.04-.03-.1-.06-.18-.1-.09-.05-.17-.09-.22-.12-.05-.04-.09-.09-.13-.15-.03-.06-.04-.14-.02-.24.02-.08.05-.15.1-.21.05-.06.12-.09.2-.11.08-.02.17-.02.27,0,.14.03.24.09.32.17.07.09.11.19.09.31l-.21-.04c0-.06-.02-.12-.06-.17-.04-.06-.11-.09-.19-.11-.08-.02-.15,0-.21.03-.06.03-.1.09-.11.16-.01.06,0,.1.02.14.02.04.06.08.1.1.04.03.1.06.18.1.09.05.16.09.22.13.05.04.1.09.13.15.03.06.04.14.02.24-.01.07-.05.14-.1.2s-.12.1-.2.13-.17.03-.28,0ZM331.94,267.34l-.64-.13-.18.31-.2-.04.83-1.41.22.04.23,1.62-.2-.04-.05-.36ZM331.91,267.17l-.12-.82-.42.72.53.1ZM333.76,266.47l-.03.16-.4-.08-.27,1.36-.19-.04.27-1.36-.4-.08.03-.16,1,.2Z"/>
      <path class="st25" d="M346.36,270.54c-.1-.02-.18-.05-.25-.1-.07-.05-.12-.11-.15-.18-.03-.07-.04-.15-.02-.23l.21.04c0,.07,0,.14.05.2.04.06.11.1.21.12s.17,0,.23-.03c.06-.04.1-.09.12-.17.01-.06,0-.11-.02-.15-.02-.04-.06-.08-.1-.11-.04-.03-.1-.06-.18-.1-.09-.05-.17-.09-.22-.12-.05-.04-.09-.09-.13-.15-.03-.06-.04-.14-.02-.24.02-.08.05-.15.1-.21s.12-.09.2-.11c.08-.02.17-.02.27,0,.14.03.24.09.32.17.07.09.11.19.09.31l-.21-.04c0-.06-.02-.12-.06-.17-.04-.06-.11-.09-.19-.11-.08-.02-.15,0-.21.03-.06.03-.1.09-.11.16-.01.06,0,.1.02.14.02.04.06.08.1.1.04.03.1.06.18.1.09.05.16.09.22.13.05.04.1.09.13.15.03.06.04.14.02.24-.01.07-.05.14-.1.2s-.12.1-.2.13-.17.03-.28,0ZM347.75,269.22l-.19.96c-.03.14-.01.24.04.32.05.08.14.13.25.15s.21,0,.28-.05c.08-.05.13-.15.16-.28l.19-.96.19.04-.19.96c-.02.13-.07.23-.14.31-.07.08-.15.13-.24.15-.09.03-.19.03-.29,0s-.19-.06-.27-.12c-.07-.06-.13-.14-.16-.23-.03-.1-.03-.21,0-.33l.19-.96.19.04ZM349.98,271.24l-.19-.04-.54-1.36-.24,1.21-.19-.04.3-1.52.19.04.54,1.36.24-1.21.19.04-.3,1.52Z"/>
      <path class="st25" d="M244.46,243.24c.05-.25.13-.44.23-.56.11-.13.26-.17.46-.13s.32.14.37.29c.05.16.05.36,0,.61s-.13.44-.24.57-.26.17-.45.13-.32-.14-.37-.29c-.05-.16-.05-.36,0-.62ZM245.33,243.41c.02-.13.04-.24.04-.33,0-.09-.02-.17-.06-.23-.04-.06-.11-.1-.2-.12s-.17,0-.24.04c-.06.04-.11.11-.14.19-.03.08-.06.19-.09.32s-.04.24-.04.33c0,.09.02.17.06.23.04.06.11.11.2.12s.17,0,.23-.04c.06-.04.11-.11.14-.19.03-.09.06-.19.09-.32Z"/>
      <path class="st25" d="M244.15,236.39c.21-.11.37-.21.49-.28.12-.08.23-.16.31-.25.09-.09.15-.19.17-.29.02-.09.01-.17-.02-.24-.03-.06-.1-.11-.2-.12s-.18,0-.24.05c-.06.05-.11.13-.13.23l-.19-.04c.04-.16.11-.28.22-.35.11-.07.23-.09.38-.06s.25.09.32.19c.07.1.09.22.06.37-.02.12-.08.23-.18.33-.09.1-.19.18-.3.25-.11.07-.24.15-.4.23l.73.14-.03.17-1.02-.2.03-.14ZM245.52,235.99c.05-.25.13-.44.23-.56.11-.13.26-.17.46-.13s.32.14.37.29c.05.16.05.36,0,.61s-.13.44-.24.57c-.11.13-.26.17-.45.13s-.32-.14-.37-.29c-.05-.16-.05-.36,0-.62ZM246.39,236.16c.02-.13.04-.24.04-.33,0-.09-.02-.17-.06-.23-.04-.06-.11-.1-.2-.12s-.17,0-.24.04c-.06.04-.11.11-.14.19-.03.08-.06.19-.09.32s-.04.24-.04.33c0,.09.02.17.06.23.04.06.11.11.2.12s.17,0,.23-.04c.06-.04.11-.11.14-.19.03-.09.06-.19.09-.32Z"/>
      <path class="st25" d="M245.81,229.06l.03-.15.95-.91.23.05-.2,1.04.21.04-.03.17-.21-.04-.07.35-.19-.04.07-.35-.78-.15ZM246.8,228.21l-.73.72.57.11.16-.83ZM247.28,228.88c.05-.25.13-.44.23-.56.11-.13.26-.17.46-.13s.32.14.37.29c.05.16.05.36,0,.61s-.13.44-.24.57-.26.17-.45.13-.32-.14-.37-.29c-.05-.16-.05-.36,0-.62ZM248.15,229.05c.02-.13.04-.24.04-.33,0-.09-.02-.17-.06-.23-.04-.06-.11-.1-.2-.12s-.17,0-.24.04c-.06.04-.11.11-.14.19-.03.08-.06.19-.09.32s-.04.24-.04.33c0,.09.02.17.06.23.04.06.11.11.2.12s.17,0,.23-.04c.06-.04.11-.11.14-.19.03-.09.06-.19.09-.32Z"/>
      <path class="st25" d="M248.28,221.21c0-.17-.08-.27-.24-.3-.13-.02-.23,0-.31.1-.08.09-.14.24-.19.47.05-.07.11-.12.2-.15.08-.03.17-.03.27-.02.15.03.25.1.32.21.07.11.09.25.06.41-.02.1-.06.18-.11.25-.05.07-.12.12-.21.15-.08.03-.18.04-.29.02-.15-.03-.25-.08-.32-.17-.07-.08-.11-.19-.12-.31,0-.12,0-.27.04-.45.1-.53.34-.76.7-.69.14.03.24.09.3.18.06.09.09.2.08.32l-.18-.03ZM247.92,221.48c-.06-.01-.12-.01-.18,0-.06.01-.11.04-.15.09-.04.04-.07.1-.09.18-.02.11,0,.21.04.29.05.08.13.13.25.15.1.02.18,0,.25-.05.07-.05.12-.13.14-.24.02-.11.01-.21-.03-.28-.04-.08-.12-.13-.23-.15ZM248.69,221.7c.05-.25.13-.44.23-.56.11-.13.26-.17.46-.13s.32.14.37.29c.05.16.05.36,0,.61s-.13.44-.24.57-.26.17-.45.13-.32-.14-.37-.29c-.05-.16-.05-.36,0-.62ZM249.56,221.87c.02-.13.04-.24.04-.33,0-.09-.02-.17-.06-.23-.04-.06-.11-.1-.2-.12s-.17,0-.24.04c-.06.04-.11.11-.14.19-.03.08-.06.19-.09.32s-.04.24-.04.33c0,.09.02.17.06.23.04.06.11.11.2.12s.17,0,.23-.04c.06-.04.11-.11.14-.19.03-.09.06-.19.09-.32Z"/>
      <path class="st25" d="M249.05,214.3c-.07-.05-.12-.11-.15-.18-.03-.07-.04-.15-.02-.23.02-.08.05-.15.1-.2.05-.06.12-.1.2-.12.08-.02.18-.02.29,0s.19.06.26.11c.07.05.12.11.14.18.03.07.03.14.02.22-.02.08-.05.15-.11.21-.06.05-.13.09-.21.1.08.04.14.11.18.19.04.08.05.17.03.26s-.06.17-.12.24c-.06.06-.13.1-.22.13-.09.02-.19.02-.29,0s-.2-.06-.27-.11c-.07-.06-.12-.12-.16-.2-.03-.08-.04-.17-.02-.26s.06-.18.13-.24c.06-.06.14-.09.24-.1ZM249.69,214.08c.02-.09,0-.16-.04-.22-.05-.06-.12-.1-.22-.12s-.18-.01-.24.03c-.07.04-.11.1-.13.19-.02.08,0,.15.05.21.05.06.12.1.21.12s.18,0,.24-.03c.07-.04.11-.1.13-.18ZM249.29,214.44c-.1-.02-.19-.01-.27.03-.08.04-.12.1-.14.21-.02.09,0,.17.05.24.05.07.13.11.24.14s.2,0,.27-.03.12-.11.14-.21,0-.18-.05-.24c-.05-.07-.13-.11-.24-.13ZM250.1,214.52c.05-.25.13-.44.23-.56.11-.13.26-.17.46-.13s.32.14.37.29c.05.16.05.36,0,.61s-.13.44-.24.57-.26.17-.45.13-.32-.14-.37-.29c-.05-.16-.05-.36,0-.62ZM250.97,214.7c.02-.13.04-.24.04-.33,0-.09-.02-.17-.06-.23-.04-.06-.11-.1-.2-.12s-.17,0-.24.04c-.06.04-.11.11-.14.19-.03.08-.06.19-.09.32s-.04.24-.04.33c0,.09.02.17.06.23.04.06.11.11.2.12s.17,0,.23-.04c.06-.04.11-.11.14-.19.03-.09.06-.19.09-.32Z"/>
      <path class="st25" d="M249.57,206.35l.04-.18.4.08-.31,1.58-.19-.04.27-1.4-.2-.04ZM250.18,207.08c.05-.25.13-.44.23-.56.11-.13.26-.17.46-.13s.32.14.37.29c.05.16.05.36,0,.61s-.13.44-.24.57c-.11.13-.26.17-.45.13s-.32-.14-.37-.29c-.05-.16-.05-.36,0-.62ZM251.06,207.26c.02-.13.04-.24.04-.33,0-.09-.02-.17-.06-.23-.04-.06-.11-.1-.2-.12s-.17,0-.24.04c-.06.04-.11.11-.14.19-.03.08-.06.19-.09.32s-.04.24-.04.33c0,.09.02.17.06.23.04.06.11.11.2.12s.17,0,.23-.04c.06-.04.11-.11.14-.19.03-.09.06-.19.09-.32ZM251.51,207.35c.05-.25.13-.44.23-.56.11-.13.26-.17.46-.13s.32.14.37.29c.05.16.05.36,0,.61s-.13.44-.24.57-.26.17-.45.13-.32-.14-.37-.29c-.05-.16-.05-.36,0-.62ZM252.38,207.52c.02-.13.04-.24.04-.33,0-.09-.02-.17-.06-.23-.04-.06-.11-.1-.2-.12s-.17,0-.24.04c-.06.04-.11.11-.14.19-.03.08-.06.19-.09.32s-.04.24-.04.33c0,.09.02.17.06.23.04.06.11.11.2.12s.17,0,.23-.04c.06-.04.11-.11.14-.19.03-.09.06-.19.09-.32Z"/>
      <line class="st3" x1="254.63" y1="208.16" x2="358.91" y2="228.65"/>
      <line class="st3" x1="253.24" y1="215.19" x2="357.52" y2="235.69"/>
      <line class="st3" x1="251.86" y1="222.23" x2="356.14" y2="242.73"/>
      <line class="st3" x1="250.48" y1="229.27" x2="354.76" y2="249.76"/>
      <line class="st3" x1="249.09" y1="236.3" x2="353.37" y2="256.8"/>
      <line class="st3" x1="247.56" y1="244.1" x2="351.84" y2="264.59"/>
      <g class="st26">
        <path class="st12" d="M257.56,224.02c-2.29,2.47-5.35,2.72-6.6,2.54l-3.46,17.62,104.51,20.54,4.89-24.89c-1.91-.13-5.15-.09-8.29,4.65-3.93,5.93-7.14,1.04-8.51-.51-1.37-1.55-4.14-2.5-5.94-2.65-1.8-.15-4.66-.27-5.5-2.93-.84-2.65-1.86-4.47-5.56-4.58-3.21-.51-4.59-.82-5.86-2.28-1.27-1.45-5.2-5.04-9.04-2.34-3.84,2.7-7.44,3.55-10.01-1.61-2.57-5.16-6.35-5.34-8.06-4.15-1.71,1.19-3.53,5.48-7.22,6.12-3.04.02-4.93.67-8.66,3.36-4.81,3.47-6.47-.75-7.41-5.67-.94-4.92-6.39-6.31-9.26-3.22Z"/>
      </g>
      <path class="st2" d="M251.13,226.56c1.24.18,4.29-.07,6.58-2.54,2.86-3.09,8.29-1.7,9.23,3.22.94,4.92,2.59,9.14,7.39,5.67,4.8-3.47,5.05-2.86,8.68-3.27,3.66-.41,4.46-4.07,7.41-6.13,1.71-1.19,5.23-1.1,7.78,4.06,2.56,5.16,6.14,4.3,9.97,1.6,3.83-2.7,7.75.88,9.01,2.33,1.27,1.45,2.98,2.16,5.84,2.27,3.56.13,4.71,1.93,5.54,4.58.84,2.65,3.69,2.77,5.48,2.92,1.79.15,4.56,1.1,5.92,2.65,1.36,1.55,4.56,6.43,8.48.5,3.14-4.74,6.76-4.74,8.39-4.6"/>
      <path class="st25" d="M236.63,307.42l-.3,1.51-.19-.04.22-1.13-.71,1.03-.14-.03-.27-1.22-.22,1.13-.19-.04.3-1.51.21.04.3,1.35.79-1.14.21.04ZM237.46,309.17c-.14-.03-.26-.08-.36-.17-.1-.09-.17-.2-.21-.33-.04-.13-.05-.27-.02-.42s.09-.27.18-.38c.09-.11.2-.18.32-.22.13-.04.26-.05.39-.03s.26.09.36.17c.1.09.17.2.21.33.04.13.05.27.02.42s-.09.28-.18.38c-.09.11-.2.18-.32.22-.13.04-.26.05-.4.02ZM237.49,309c.1.02.2.01.29-.02.09-.03.17-.09.24-.17.07-.08.11-.18.13-.3s.02-.23,0-.33c-.03-.1-.08-.18-.15-.25-.07-.07-.16-.11-.26-.13s-.2-.01-.29.02c-.09.03-.17.09-.24.17-.06.08-.11.18-.13.3s-.02.23,0,.33c.03.1.08.18.15.25.07.07.16.11.26.13ZM239.74,309.6l-.19-.04-.54-1.36-.24,1.21-.19-.04.3-1.52.19.04.54,1.36.24-1.21.19.04-.3,1.52Z"/>
      <path class="st25" d="M252.91,310.61l-.03.16-.4-.08-.27,1.36-.19-.04.27-1.36-.4-.08.03-.16,1,.2ZM253.47,310.72l-.19.96c-.03.14-.01.24.04.32.05.08.14.13.25.15s.21,0,.28-.05c.08-.05.13-.15.16-.28l.19-.96.19.04-.19.96c-.02.13-.07.23-.14.31-.07.08-.15.13-.24.15-.09.03-.19.03-.29,0s-.19-.06-.27-.12c-.07-.06-.13-.14-.16-.23-.03-.1-.03-.21,0-.33l.19-.96.19.04ZM255,311.19l-.1.51.54.11-.03.16-.54-.11-.1.52.6.12-.03.16-.79-.16.3-1.52.79.16-.03.16-.6-.12Z"/>
      <path class="st25" d="M269.92,313.95l-.73,1.44-.22-.04-.1-1.29-.6,1.15-.21-.04-.11-1.6.21.04.07,1.35.61-1.22.22.04.09,1.35.58-1.22.21.04ZM270.42,314.22l-.1.51.54.11-.03.16-.54-.11-.1.52.6.12-.03.16-.79-.16.3-1.52.79.16-.03.16-.6-.12ZM271.93,314.35c.16.03.29.09.4.18.11.08.18.19.22.32.04.13.05.27.02.42s-.09.28-.17.39c-.08.1-.19.17-.32.21-.13.04-.27.04-.43,0l-.46-.09.3-1.52.46.09ZM271.66,315.71c.19.04.35.01.47-.07.12-.08.2-.22.24-.41s.02-.35-.07-.47c-.08-.13-.21-.21-.4-.24l-.27-.05-.23,1.2.27.05Z"/>
      <path class="st25" d="M286.19,317.15l-.03.16-.4-.08-.27,1.36-.19-.04.27-1.36-.4-.08.03-.16,1,.2ZM287.69,317.45l-.3,1.52-.19-.04.14-.69-.75-.15-.14.69-.19-.04.3-1.52.19.04-.13.67.75.15.13-.67.19.04ZM288.33,317.57l-.19.96c-.03.14-.01.24.04.32.05.08.14.13.25.15s.21,0,.28-.05c.08-.05.13-.15.16-.28l.19-.96.19.04-.19.96c-.02.13-.07.23-.14.31-.07.08-.15.13-.24.15-.09.03-.19.03-.29,0s-.19-.06-.27-.12c-.07-.06-.13-.14-.16-.23-.03-.1-.03-.21,0-.33l.19-.96.19.04Z"/>
      <path class="st25" d="M303.29,320.51l-.03.16-.64-.13-.1.51.52.1-.03.16-.52-.1-.13.68-.19-.04.3-1.52.83.16ZM304.12,322.26l-.23-.69-.23-.05-.12.62-.19-.04.3-1.52.48.09c.11.02.2.06.27.11.07.05.12.12.14.19s.03.15.01.24c-.02.1-.07.19-.14.26-.07.07-.17.1-.29.11l.25.71-.23-.05ZM303.69,321.36l.28.06c.1.02.19,0,.25-.03.06-.04.1-.11.12-.2s0-.17-.04-.22c-.04-.06-.11-.1-.22-.12l-.28-.06-.11.58ZM305.25,320.9l-.3,1.52-.19-.04.3-1.52.19.04Z"/>
      <path class="st25" d="M318.73,325.14c-.1-.02-.18-.05-.25-.1-.07-.05-.12-.11-.15-.18-.03-.07-.04-.15-.02-.23l.21.04c0,.07,0,.14.05.2.04.06.11.1.21.12s.17,0,.23-.03c.06-.04.1-.09.12-.17.01-.06,0-.11-.02-.15-.02-.04-.06-.08-.1-.11-.04-.03-.1-.06-.18-.1-.09-.05-.17-.09-.22-.12-.05-.04-.09-.09-.13-.15-.03-.06-.04-.14-.02-.24.02-.08.05-.15.1-.21.05-.06.12-.09.2-.11.08-.02.17-.02.27,0,.14.03.24.09.32.17.07.09.11.19.09.31l-.21-.04c0-.06-.02-.12-.06-.17-.04-.06-.11-.09-.19-.11-.08-.02-.15,0-.21.03-.06.03-.1.09-.11.16-.01.06,0,.1.02.14.02.04.06.08.1.1.04.03.1.06.18.1.09.05.16.09.22.13.05.04.1.09.13.15.03.06.04.14.02.24-.01.07-.05.14-.1.2s-.12.1-.2.13-.17.03-.28,0ZM320.58,325.14l-.64-.13-.18.31-.2-.04.83-1.41.22.04.23,1.62-.2-.04-.05-.36ZM320.55,324.97l-.12-.82-.42.72.53.1ZM322.4,324.27l-.03.16-.4-.08-.27,1.36-.19-.04.27-1.36-.4-.08.03-.16,1,.2Z"/>
      <path class="st25" d="M335,328.34c-.1-.02-.18-.05-.25-.1-.07-.05-.12-.11-.15-.18-.03-.07-.04-.15-.02-.23l.21.04c0,.07,0,.14.05.2.04.06.11.1.21.12s.17,0,.23-.03c.06-.04.1-.09.12-.17.01-.06,0-.11-.02-.15-.02-.04-.06-.08-.1-.11-.04-.03-.1-.06-.18-.1-.09-.05-.17-.09-.22-.12-.05-.04-.09-.09-.13-.15-.03-.06-.04-.14-.02-.24.02-.08.05-.15.1-.21s.12-.09.2-.11c.08-.02.17-.02.27,0,.14.03.24.09.32.17.07.09.11.19.09.31l-.21-.04c0-.06-.02-.12-.06-.17-.04-.06-.11-.09-.19-.11-.08-.02-.15,0-.21.03-.06.03-.1.09-.11.16-.01.06,0,.1.02.14.02.04.06.08.1.1.04.03.1.06.18.1.09.05.16.09.22.13.05.04.1.09.13.15.03.06.04.14.02.24-.01.07-.05.14-.1.2s-.12.1-.2.13-.17.03-.28,0ZM336.39,327.02l-.19.96c-.03.14-.01.24.04.32.05.08.14.13.25.15s.21,0,.28-.05c.08-.05.13-.15.16-.28l.19-.96.19.04-.19.96c-.02.13-.07.23-.14.31-.07.08-.15.13-.24.15-.09.03-.19.03-.29,0s-.19-.06-.27-.12c-.07-.06-.13-.14-.16-.23-.03-.1-.03-.21,0-.33l.19-.96.19.04ZM338.62,329.04l-.19-.04-.54-1.36-.24,1.21-.19-.04.3-1.52.19.04.54,1.36.24-1.21.19.04-.3,1.52Z"/>
      <path class="st25" d="M233.1,301.03c.05-.25.13-.44.23-.56.11-.13.26-.17.46-.13s.32.14.37.29c.05.16.05.36,0,.61s-.13.44-.24.57-.26.17-.45.13-.32-.14-.37-.29c-.05-.16-.05-.36,0-.62ZM233.97,301.21c.02-.13.04-.24.04-.33,0-.09-.02-.17-.06-.23-.04-.06-.11-.1-.2-.12s-.17,0-.24.04c-.06.04-.11.11-.14.19-.03.08-.06.19-.09.32s-.04.24-.04.33c0,.09.02.17.06.23.04.06.11.11.2.12s.17,0,.23-.04c.06-.04.11-.11.14-.19.03-.09.06-.19.09-.32Z"/>
      <path class="st25" d="M232.79,294.19c.21-.11.37-.21.49-.28.12-.08.23-.16.31-.25.09-.09.15-.19.17-.29.02-.09.01-.17-.02-.24-.03-.06-.1-.11-.2-.12s-.18,0-.24.05c-.06.05-.11.13-.13.23l-.19-.04c.04-.16.11-.28.22-.35.11-.07.23-.09.38-.06s.25.09.32.19c.07.1.09.22.06.37-.02.12-.08.23-.18.33-.09.1-.19.18-.3.25-.11.07-.24.15-.4.23l.73.14-.03.17-1.02-.2.03-.14ZM234.16,293.79c.05-.25.13-.44.23-.56.11-.13.26-.17.46-.13s.32.14.37.29c.05.16.05.36,0,.61s-.13.44-.24.57c-.11.13-.26.17-.45.13s-.32-.14-.37-.29c-.05-.16-.05-.36,0-.62ZM235.03,293.96c.02-.13.04-.24.04-.33,0-.09-.02-.17-.06-.23-.04-.06-.11-.1-.2-.12s-.17,0-.24.04c-.06.04-.11.11-.14.19-.03.08-.06.19-.09.32s-.04.24-.04.33c0,.09.02.17.06.23.04.06.11.11.2.12s.17,0,.23-.04c.06-.04.11-.11.14-.19.03-.09.06-.19.09-.32Z"/>
      <path class="st25" d="M234.45,286.86l.03-.15.95-.91.23.05-.2,1.04.21.04-.03.17-.21-.04-.07.35-.19-.04.07-.35-.78-.15ZM235.44,286.01l-.73.72.57.11.16-.83ZM235.92,286.68c.05-.25.13-.44.23-.56.11-.13.26-.17.46-.13s.32.14.37.29c.05.16.05.36,0,.61s-.13.44-.24.57-.26.17-.45.13-.32-.14-.37-.29c-.05-.16-.05-.36,0-.62ZM236.79,286.85c.02-.13.04-.24.04-.33,0-.09-.02-.17-.06-.23-.04-.06-.11-.1-.2-.12s-.17,0-.24.04c-.06.04-.11.11-.14.19-.03.08-.06.19-.09.32s-.04.24-.04.33c0,.09.02.17.06.23.04.06.11.11.2.12s.17,0,.23-.04c.06-.04.11-.11.14-.19.03-.09.06-.19.09-.32Z"/>
      <path class="st25" d="M236.92,279.01c0-.17-.08-.27-.24-.3-.13-.02-.23,0-.31.1-.08.09-.14.24-.19.47.05-.07.11-.12.2-.15.08-.03.17-.03.27-.02.15.03.25.1.32.21.07.11.09.25.06.41-.02.1-.06.18-.11.25-.05.07-.12.12-.21.15-.08.03-.18.04-.29.02-.15-.03-.25-.08-.32-.17-.07-.08-.11-.19-.12-.31,0-.12,0-.27.04-.45.1-.53.34-.76.7-.69.14.03.24.09.3.18.06.09.09.2.08.32l-.18-.03ZM236.56,279.28c-.06-.01-.12-.01-.18,0-.06.01-.11.04-.15.09-.04.04-.07.1-.09.18-.02.11,0,.21.04.29.05.08.13.13.25.15.1.02.18,0,.25-.05.07-.05.12-.13.14-.24.02-.11.01-.21-.03-.28-.04-.08-.12-.13-.23-.15ZM237.33,279.5c.05-.25.13-.44.23-.56.11-.13.26-.17.46-.13s.32.14.37.29c.05.16.05.36,0,.61s-.13.44-.24.57-.26.17-.45.13-.32-.14-.37-.29c-.05-.16-.05-.36,0-.62ZM238.2,279.67c.02-.13.04-.24.04-.33,0-.09-.02-.17-.06-.23-.04-.06-.11-.1-.2-.12s-.17,0-.24.04c-.06.04-.11.11-.14.19-.03.08-.06.19-.09.32s-.04.24-.04.33c0,.09.02.17.06.23.04.06.11.11.2.12s.17,0,.23-.04c.06-.04.11-.11.14-.19.03-.09.06-.19.09-.32Z"/>
      <path class="st25" d="M237.69,272.1c-.07-.05-.12-.11-.15-.18-.03-.07-.04-.15-.02-.23.02-.08.05-.15.1-.2.05-.06.12-.1.2-.12.08-.02.18-.02.29,0s.19.06.26.11c.07.05.12.11.14.18.03.07.03.14.02.22-.02.08-.05.15-.11.21-.06.05-.13.09-.21.1.08.04.14.11.18.19.04.08.05.17.03.26s-.06.17-.12.24c-.06.06-.13.1-.22.13-.09.02-.19.02-.29,0s-.2-.06-.27-.11c-.07-.06-.12-.12-.16-.2-.03-.08-.04-.17-.02-.26s.06-.18.13-.24c.06-.06.14-.09.24-.1ZM238.33,271.87c.02-.09,0-.16-.04-.22s-.12-.1-.22-.12-.18-.01-.24.03-.11.1-.13.19c-.02.08,0,.15.05.21.05.06.12.1.21.12s.18,0,.24-.03c.07-.04.11-.1.13-.18ZM237.93,272.24c-.1-.02-.19-.01-.27.03-.08.04-.12.1-.14.21-.02.09,0,.17.05.24.05.07.13.11.24.14s.2,0,.27-.03.12-.11.14-.21,0-.18-.05-.24c-.05-.07-.13-.11-.24-.13ZM238.74,272.32c.05-.25.13-.44.23-.56.11-.13.26-.17.46-.13s.32.14.37.29c.05.16.05.36,0,.61s-.13.44-.24.57-.26.17-.45.13-.32-.14-.37-.29c-.05-.16-.05-.36,0-.62ZM239.61,272.49c.02-.13.04-.24.04-.33,0-.09-.02-.17-.06-.23-.04-.06-.11-.1-.2-.12s-.17,0-.24.04c-.06.04-.11.11-.14.19-.03.08-.06.19-.09.32s-.04.24-.04.33c0,.09.02.17.06.23.04.06.11.11.2.12s.17,0,.23-.04c.06-.04.11-.11.14-.19.03-.09.06-.19.09-.32Z"/>
      <path class="st25" d="M238.21,264.15l.04-.18.4.08-.31,1.58-.19-.04.27-1.4-.2-.04ZM238.82,264.88c.05-.25.13-.44.23-.56.11-.13.26-.17.46-.13s.32.14.37.29c.05.16.05.36,0,.61s-.13.44-.24.57c-.11.13-.26.17-.45.13s-.32-.14-.37-.29c-.05-.16-.05-.36,0-.62ZM239.7,265.05c.02-.13.04-.24.04-.33,0-.09-.02-.17-.06-.23-.04-.06-.11-.1-.2-.12s-.17,0-.24.04c-.06.04-.11.11-.14.19-.03.08-.06.19-.09.32s-.04.24-.04.33c0,.09.02.17.06.23.04.06.11.11.2.12s.17,0,.23-.04c.06-.04.11-.11.14-.19.03-.09.06-.19.09-.32ZM240.15,265.14c.05-.25.13-.44.23-.56.11-.13.26-.17.46-.13s.32.14.37.29c.05.16.05.36,0,.61s-.13.44-.24.57-.26.17-.45.13-.32-.14-.37-.29c-.05-.16-.05-.36,0-.62ZM241.02,265.32c.02-.13.04-.24.04-.33,0-.09-.02-.17-.06-.23-.04-.06-.11-.1-.2-.12s-.17,0-.24.04c-.06.04-.11.11-.14.19-.03.08-.06.19-.09.32s-.04.24-.04.33c0,.09.02.17.06.23.04.06.11.11.2.12s.17,0,.23-.04c.06-.04.11-.11.14-.19.03-.09.06-.19.09-.32Z"/>
      <line class="st3" x1="243.27" y1="265.96" x2="347.55" y2="286.45"/>
      <line class="st3" x1="241.88" y1="272.99" x2="346.16" y2="293.49"/>
      <line class="st3" x1="240.5" y1="280.03" x2="344.78" y2="300.52"/>
      <line class="st3" x1="239.12" y1="287.06" x2="343.4" y2="307.56"/>
      <line class="st3" x1="237.73" y1="294.1" x2="342.01" y2="314.6"/>
      <line class="st3" x1="236.2" y1="301.9" x2="340.48" y2="322.39"/>
      <g class="st26">
        <path class="st11" d="M246.2,281.81c-2.29,2.47-5.35,2.72-6.6,2.54l-3.46,17.62,104.51,20.54,4.89-24.89c-1.91-.13-5.15-.09-8.29,4.65-3.93,5.93-7.14,1.04-8.51-.51s-4.14-2.5-5.94-2.65c-1.8-.15-4.66-.27-5.5-2.93-.84-2.65-1.86-4.47-5.56-4.58-3.21-.51-4.59-.82-5.86-2.28-1.27-1.45-5.2-5.04-9.04-2.34-3.84,2.7-7.44,3.55-10.01-1.61-2.57-5.16-6.35-5.34-8.06-4.15-1.71,1.19-3.53,5.48-7.22,6.12-3.04.02-4.93.67-8.66,3.36-4.81,3.47-6.47-.75-7.41-5.67-.94-4.92-6.39-6.31-9.26-3.22Z"/>
      </g>
      <path class="st2" d="M239.77,284.35c1.24.18,4.29-.07,6.58-2.54,2.86-3.09,8.29-1.7,9.23,3.22.94,4.92,2.59,9.14,7.39,5.67,4.8-3.47,5.05-2.86,8.68-3.27,3.66-.41,4.46-4.07,7.41-6.13,1.71-1.19,5.23-1.1,7.78,4.06,2.56,5.16,6.14,4.3,9.97,1.6,3.83-2.7,7.75.88,9.01,2.33,1.27,1.45,2.98,2.16,5.84,2.27,3.56.13,4.71,1.93,5.54,4.58.84,2.65,3.69,2.77,5.48,2.92,1.79.15,4.56,1.1,5.92,2.65,1.36,1.55,4.56,6.43,8.48.5,3.14-4.74,6.76-4.74,8.39-4.6"/>
      <path class="st25" d="M226.42,324.13l.04-.18.4.08-.31,1.58-.19-.04.27-1.4-.2-.04ZM227.03,324.86c.05-.25.13-.44.23-.56.11-.13.26-.17.46-.13s.32.14.37.29c.05.16.05.36,0,.61s-.13.44-.24.57c-.11.13-.26.17-.45.13s-.32-.14-.37-.29c-.05-.16-.05-.36,0-.62ZM227.91,325.03c.02-.13.04-.24.04-.33,0-.09-.02-.17-.06-.23-.04-.06-.11-.1-.2-.12s-.17,0-.24.04c-.06.04-.11.11-.14.19-.03.08-.06.19-.09.32s-.04.24-.04.33c0,.09.02.17.06.23.04.06.11.11.2.12s.17,0,.23-.04c.06-.04.11-.11.14-.19.03-.09.06-.19.09-.32ZM228.36,325.12c.05-.25.13-.44.23-.56.11-.13.26-.17.46-.13s.32.14.37.29c.05.16.05.36,0,.61s-.13.44-.24.57-.26.17-.45.13-.32-.14-.37-.29c-.05-.16-.05-.36,0-.62ZM229.24,325.3c.02-.13.04-.24.04-.33,0-.09-.02-.17-.06-.23-.04-.06-.11-.1-.2-.12s-.17,0-.24.04c-.06.04-.11.11-.14.19-.03.08-.06.19-.09.32s-.04.24-.04.33c0,.09.02.17.06.23.04.06.11.11.2.12s.17,0,.23-.04c.06-.04.11-.11.14-.19.03-.09.06-.19.09-.32Z"/>
      <line class="st3" x1="231.48" y1="325.94" x2="335.76" y2="346.43"/>
      <path class="st35" d="M264.46,133.66l.05-.24.53.1-.41,2.1-.26-.05.37-1.86-.27-.05ZM265.28,134.64c.07-.33.17-.58.31-.75.14-.17.35-.23.61-.17s.43.18.49.39c.07.21.07.48,0,.81s-.17.59-.31.76c-.14.17-.34.23-.61.17s-.43-.18-.5-.39-.07-.48,0-.82ZM266.45,134.87c.03-.17.05-.31.05-.43,0-.12-.02-.23-.08-.31-.05-.08-.14-.14-.27-.16s-.23,0-.31.05c-.08.06-.14.15-.19.26-.04.11-.08.25-.12.42s-.05.32-.06.45c0,.12.02.23.08.31.05.08.14.14.27.17s.23,0,.31-.05c.08-.06.14-.14.19-.26.05-.11.09-.26.12-.43ZM270.03,134.6l-.4,2.01-.26-.05.29-1.5-.94,1.37-.18-.04-.36-1.63-.3,1.5-.26-.05.4-2.01.28.05.4,1.81,1.05-1.52.27.05ZM270.13,135.87c.03-.16.09-.3.18-.41.09-.11.19-.19.32-.24.13-.05.26-.06.4-.03s.25.08.34.16c.09.08.15.17.18.27l.06-.29.26.05-.31,1.59-.26-.05.06-.3c-.07.08-.16.15-.27.19-.11.04-.23.05-.37.02s-.25-.09-.35-.18c-.1-.09-.17-.21-.2-.35-.04-.14-.04-.29-.01-.45ZM271.44,136.13c.02-.12.02-.23,0-.33-.03-.1-.08-.18-.15-.24-.07-.06-.15-.11-.25-.12s-.19-.01-.28.02c-.09.03-.16.09-.23.17-.06.08-.11.18-.13.3s-.02.23,0,.33c.03.1.08.18.15.24.07.06.15.1.25.12s.19.01.28-.02c.09-.03.17-.09.23-.17.06-.08.11-.18.13-.3ZM272.49,135.79c.06-.08.14-.14.23-.17.09-.03.2-.04.32-.02l-.05.27h-.07c-.29-.07-.46.06-.53.38l-.17.87-.26-.05.31-1.59.26.05-.05.26ZM273.09,136.46c.03-.16.09-.3.18-.41.09-.11.2-.19.32-.24.13-.05.27-.05.41-.02.19.04.34.12.44.23.11.12.16.27.17.44l-.28-.05c0-.1-.04-.19-.11-.26-.06-.07-.15-.12-.27-.14-.15-.03-.28,0-.39.09-.11.09-.18.22-.22.41s-.02.35.05.47c.07.12.18.2.32.23.11.02.21.01.3-.03.09-.04.15-.11.2-.2l.28.05c-.07.15-.18.27-.33.34-.14.07-.31.09-.49.05-.15-.03-.27-.09-.37-.18-.1-.09-.17-.2-.21-.34-.04-.14-.04-.29-.01-.46ZM275.83,136.14c.12.02.22.07.3.14.08.07.14.16.17.27.03.11.04.24,0,.39l-.18.94-.25-.05.18-.9c.03-.16.02-.29-.04-.39-.06-.1-.16-.16-.29-.19s-.25,0-.35.07c-.1.07-.16.19-.19.36l-.17.88-.26-.05.42-2.15.26.05-.15.79c.07-.07.15-.12.25-.15.1-.03.2-.03.32,0ZM277.85,137l-.04.22-1.13-.22.04-.22,1.13.22ZM279.11,136.54l.05-.24.53.1-.41,2.1-.26-.05.37-1.86-.27-.05ZM281.17,137.21c0-.22-.11-.36-.32-.4-.17-.03-.31,0-.41.13-.11.12-.19.33-.25.63.06-.09.15-.16.26-.19.11-.04.23-.05.36-.02.19.04.34.13.43.28.09.15.12.33.07.55-.03.13-.07.25-.15.34-.07.1-.16.16-.27.21-.11.04-.24.05-.38.02-.19-.04-.34-.11-.43-.22-.09-.11-.14-.25-.16-.41-.01-.17,0-.36.05-.59.14-.71.45-1.02.93-.93.18.04.32.12.4.24.09.12.12.27.11.43l-.24-.05ZM280.7,137.57c-.08-.02-.16-.01-.24,0-.08.02-.15.06-.21.12-.06.06-.09.14-.11.24-.03.15-.01.28.05.39.06.11.17.18.33.21.13.03.24,0,.34-.06.1-.07.16-.18.19-.32.03-.15.02-.28-.04-.38-.06-.1-.16-.17-.3-.2ZM284.69,137.48l-.4,2.01-.26-.05.29-1.5-.94,1.37-.18-.04-.36-1.63-.3,1.5-.26-.05.4-2.01.28.05.4,1.81,1.05-1.52.27.05ZM284.79,138.76c.03-.16.09-.3.18-.41.09-.11.19-.19.32-.24.13-.05.26-.05.4-.03s.25.08.34.16c.09.08.15.17.18.27l.06-.29.26.05-.31,1.59-.26-.05.06-.3c-.07.08-.16.15-.27.19-.11.04-.23.05-.37.02s-.25-.09-.35-.18c-.1-.09-.17-.21-.2-.35-.04-.14-.04-.29-.01-.45ZM286.1,139.02c.02-.12.02-.23,0-.33s-.08-.18-.15-.24c-.07-.06-.15-.11-.25-.12s-.19-.01-.28.02c-.09.03-.16.09-.23.17s-.11.18-.13.3-.02.23,0,.33c.03.1.08.18.15.24.07.06.15.1.25.12s.19.01.28-.02c.09-.03.17-.09.23-.17.06-.08.11-.18.13-.3ZM287.16,138.67c.06-.08.14-.14.23-.17.09-.03.2-.04.32-.02l-.05.27h-.07c-.29-.07-.46.06-.53.38l-.17.87-.26-.05.31-1.59.26.05-.05.26ZM287.75,139.34c.03-.16.09-.3.18-.41.09-.11.2-.19.32-.24.13-.05.27-.05.41-.02.19.04.34.12.44.23.11.12.16.27.17.44l-.28-.05c0-.1-.04-.19-.11-.26-.06-.07-.15-.12-.27-.14-.15-.03-.28,0-.39.09-.11.09-.18.22-.22.41s-.02.35.05.47c.07.12.18.2.32.23.11.02.21.01.3-.03.09-.04.15-.11.2-.2l.28.05c-.07.15-.18.27-.33.34-.14.07-.31.09-.49.05-.15-.03-.27-.09-.37-.18-.1-.09-.17-.2-.21-.34-.04-.14-.04-.29-.01-.46ZM290.49,139.03c.12.02.22.07.3.14.08.07.14.16.17.27.03.11.04.24,0,.39l-.18.94-.25-.05.18-.9c.03-.16.02-.29-.04-.39-.06-.1-.16-.16-.29-.19s-.25,0-.35.07c-.1.07-.16.19-.19.36l-.17.88-.26-.05.42-2.15.26.05-.15.79c.07-.07.15-.12.25-.15.1-.03.2-.03.32,0ZM291.93,140.77c.28-.15.5-.28.66-.38.16-.1.3-.21.42-.33.12-.12.2-.25.22-.38.02-.13.01-.23-.03-.31-.04-.09-.13-.14-.26-.17s-.24,0-.32.07c-.09.07-.14.17-.18.31l-.25-.05c.05-.22.15-.37.29-.47.14-.09.31-.12.5-.09s.34.12.43.26c.09.13.12.3.08.49-.03.16-.11.31-.23.44-.12.13-.25.25-.39.34-.14.09-.32.2-.53.31l.97.19-.04.22-1.36-.27.04-.19ZM293.76,140.24c.07-.33.17-.58.31-.75.14-.17.35-.23.61-.17s.43.18.49.39c.07.21.07.48,0,.81s-.17.59-.31.76c-.14.17-.34.23-.61.17s-.43-.18-.5-.39c-.07-.21-.07-.48,0-.82ZM294.92,140.47c.03-.17.05-.31.05-.43,0-.12-.02-.23-.08-.31-.05-.08-.14-.14-.27-.16s-.23,0-.31.05c-.08.06-.14.15-.19.26-.04.11-.08.25-.12.42s-.05.32-.06.45c0,.12.03.23.08.31.05.08.14.14.27.17s.23,0,.31-.05c.08-.06.14-.14.19-.26.05-.11.09-.26.12-.43ZM295.33,141.44c.28-.15.5-.28.66-.38.16-.1.3-.21.42-.33.12-.12.2-.25.22-.38.02-.13.01-.23-.03-.31-.04-.09-.13-.14-.26-.17s-.24,0-.32.07c-.09.07-.14.17-.18.31l-.25-.05c.05-.22.15-.37.29-.47.14-.09.31-.12.5-.09s.34.12.43.26c.09.13.12.3.08.49-.03.16-.11.31-.23.44-.12.13-.25.25-.39.34-.14.09-.32.2-.53.31l.97.19-.04.22-1.36-.27.04-.19ZM296.97,141.5l.04-.2,1.27-1.22.31.06-.27,1.38.28.06-.05.23-.28-.06-.09.47-.25-.05.09-.47-1.04-.21ZM298.29,140.37l-.98.96.76.15.22-1.11Z"/>
      <rect class="st0" x="275.27" y="51.76" width="4.08" height="3.95" transform="translate(171.1 315.48) rotate(-78.88)"/>
      <g class="st20">
        <g>
          <rect class="st22" x="270.05" y="260.13" width="26.3" height="129.43" transform="translate(-90.16 540.08) rotate(-78.88)"/>
          <path class="st6" d="M222.17,299.82l127.01,24.96"/>
          <path d="M241.44,312.29c.2.12.33.31.45.5.9,1.39,1.81,2.78,2.71,4.18.06.1.12.2.14.32.12.62-.34,1.14-.95,1.05-.05,0-.09-.02-.15-.03l-.02.11c-.17.87-.34,1.74-.51,2.61-.09.48-.46.8-.93.82-.08,0-.16,0-.24-.02-.45-.09-.9-.17-1.35-.26-.19-.04-.28-.16-.24-.37.13-.68.27-1.37.4-2.05.06-.32-.08-.53-.38-.59-.25-.05-.49-.1-.74-.15-.3-.06-.51.09-.57.4-.13.68-.27,1.36-.4,2.04-.05.23-.16.31-.38.27-.44-.09-.87-.17-1.31-.26-.58-.11-.91-.62-.79-1.21.17-.86.34-1.72.51-2.58l.02-.11c-.09-.02-.17-.04-.25-.06-.34-.13-.54-.42-.55-.8,0-.01,0-.03,0-.04l.05-.25c.1-.26.31-.41.52-.56,1.31-.9,2.62-1.81,3.92-2.72.2-.14.39-.28.63-.3l.41.08h0ZM240.91,321.08l.1.02c.33.06.66.12.98.2.29.07.55-.1.6-.42.18-.97.38-1.93.57-2.9.04-.2.16-.28.35-.25.12.02.25.05.37.07.13.02.25-.04.31-.16.08-.14.03-.26-.05-.39-.93-1.43-1.86-2.86-2.79-4.3-.15-.23-.3-.26-.52-.1-1.28.89-2.56,1.77-3.83,2.66-.15.1-.3.2-.45.31-.11.08-.15.19-.12.32.03.13.11.21.23.23.11.02.22.04.34.07.22.04.3.16.25.39-.19.97-.38,1.94-.57,2.91-.06.29.09.51.37.57.34.07.69.14,1.03.2.03,0,.06,0,.09.01l.02-.11c.11-.57.22-1.14.34-1.72.12-.6.61-.94,1.19-.83.25.05.5.1.75.15.58.12.9.62.79,1.21-.11.56-.22,1.11-.33,1.67l-.03.17h0Z"/>
          <g class="st19">
            <g>
              <path class="st31" d="M286.66,322.51l-1.42,7.21s-.02.02-.02.04c-.14.34-.41.5-.74.44-1.57-.31-3.15-.62-4.72-.93-.37-.07-.58-.41-.5-.81.46-2.35.92-4.69,1.38-7.04.08-.39.4-.63.75-.56.2.04.4.08.6.12l.17.03c-.02.1-.04.19-.05.28-.01.08-.02.16-.02.24,0,.5.31.88.76.98.43.09.86.17,1.3.26.58.11,1.06-.24,1.19-.88l.05-.23c.29.06.57.1.85.17.26.07.43.34.42.63,0,.02,0,.05,0,.07h0ZM282.39,326.43c-.14-.23-.28-.46-.42-.68-.07-.11-.14-.23-.21-.34-.04-.06-.09-.09-.16-.06-.05.02-.11.07-.12.12-.01.06,0,.14.04.19.22.36.44.71.66,1.06.09.15.16.17.31.06.63-.46,1.26-.91,1.89-1.37.02-.01.04-.03.06-.05.06-.06.08-.15.04-.23-.04-.08-.13-.1-.21-.06-.04.02-.07.05-.11.07-.58.42-1.17.85-1.76,1.28Z"/>
              <path class="st31" d="M284.07,320.67s.06.04.09.05c.19.12.31.3.32.55.01.14.04.19.17.21.15.03.31.06.46.09-.02.46-.22.83-.67.85-.05,0-.09,0-.14-.02-.44-.08-.87-.17-1.31-.26-.39-.08-.58-.41-.5-.83.02-.08.03-.16.05-.25l.25.05c.09.02.17.03.26.05.07.01.14,0,.17-.08.13-.3.36-.44.65-.46l.19.04h0Z"/>
            </g>
          </g>
          <path d="M330.09,329.79s.1.05.14.08c.36.2.53.6.45,1.03-.2,1.03-.41,2.06-.61,3.1-.14.7-.27,1.4-.41,2.1-.09.47-.48.78-.94.78-.07,0-.15-.02-.22-.03-1.37-.27-2.74-.54-4.11-.81-.06-.01-.11,0-.17.04-.66.46-1.32.92-1.98,1.37-.02.02-.04.03-.07.04-.07.04-.13.04-.2,0-.07-.04-.09-.11-.08-.19,0-.08.03-.15.04-.23l.26-1.35.02-.11c-.17-.03-.34-.07-.5-.1-.16-.03-.3-.09-.43-.19-.23-.19-.35-.44-.35-.75,0-.02,0-.04,0-.06.36-1.83.72-3.65,1.08-5.48,0-.01.02-.02.02-.04.11-.27.3-.46.57-.55.11-.04.23-.04.34-.06,2.38.47,4.75.93,7.13,1.4h0ZM322.36,336.88s.02.01.02.02c.02-.02.05-.05.07-.06.55-.38,1.09-.76,1.64-1.14.09-.06.17-.08.28-.06,1.41.28,2.82.56,4.23.83.36.07.64-.12.71-.49.34-1.71.67-3.43,1.01-5.14.07-.36-.11-.64-.46-.71-2.27-.45-4.54-.89-6.82-1.34-.08-.02-.17-.02-.25,0-.26.06-.4.24-.45.5-.25,1.29-.51,2.58-.76,3.87-.08.43-.17.86-.25,1.29-.07.35.12.63.45.69.21.04.42.08.63.12s.24.11.2.32l-.24,1.22-.02.09Z"/>
          <path d="M325.42,334.68c-.11-.02-.22-.04-.33-.07-.21-.04-.33-.2-.31-.41.02-.2.06-.39.1-.59.05-.24-.01-.45-.16-.63-.35-.42-.47-.92-.36-1.47.16-.8.94-1.4,1.73-1.34.9.07,1.57.8,1.55,1.72-.02.65-.32,1.15-.88,1.46-.23.13-.39.3-.43.58-.03.16-.06.31-.09.47-.05.26-.23.38-.48.34-.11-.02-.22-.04-.33-.07h0ZM326.01,333.64s.02-.02.02-.03c.11-.25.28-.43.52-.56.53-.28.8-.85.69-1.43-.11-.58-.57-1.01-1.15-1.06-.5-.05-1.03.26-1.27.73-.23.46-.18,1.04.16,1.43.18.21.28.44.29.72,0,.02.03.05.04.06.23.05.47.09.7.14h0ZM325.92,334.02l-.71-.14-.07.36.71.14.07-.36Z"/>
        </g>
      </g>
    </g>
  </g>
  <g>
    <path class="st10" d="M344.6,373.65c.82-2.57-5.91-6.19-8.06-7.16-1.86,1.7-3.8,3.33-5.91,4.72-1.64,1.09-4.02,2.04-5.51,3.6,2.09,1.02,4.09,2.18,5.95,3.57,2.7,2.02,2.48,1.89,5.71.18,1.13-.59,7.33-3.38,7.82-4.92Z"/>
    <path class="st10" d="M332.74,318.63c-.33-.15-.52-.32-.62-.51-2.54,1.14-5.17,2.01-8.06,2.79-2.5.68-5.87,1.38-7.89,3.23,2.28.8,4.28,1.99,6.17,3.56,3.18,2.63,4.91,6.24,9.56,5.45,2.45-.41,10.01-2.08,10.25-5.21.12-1.57-2.34-4.14-3.42-5.27-1.73-1.81-3.73-3.04-6-4.04Z"/>
    <path class="st10" d="M330,388.66c.17.48.26,1.18.09,1.73.1.1.18.22.23.25,1.04.96,1.99,1.99,2.9,3.07.26.3.41.68.44,1.05,14.76,2.21,29.46,4.91,44.12,7.69h0c6.64-7.55,12.96-16.22,15.93-25.59,1.81-5.67,2.26-12.11-1.16-17.27-3.8-5.75-10.87-7.64-17.3-8.64-2.71-.42-5.46-.78-8.2-.96-5.48-.36-9.87,1.03-14.63,3.58-5.84,3.12-10.2,7.63-14.96,12.1,3.4,1.42,6.64,3.5,8.82,6.55,2.31,3.22-2.11,4.41-4.75,5.97-2.22,1.31-5.45,3.87-8.17,3.35-.87-.17-1.41-.63-2.1-1.11-2.32-1.61-4.37-3.28-6.83-4.63-.17.28-.3.58-.41.9-1.84,5.8,5.36,9.01,9.74,9.74,4.45.73,9.51.6,13.72-1.13,2.63-1.08,4.95-2.76,7.3-4.34,1.61-1.09,3.6-3.01,5.59-3.11,2.21-.1,5.18,1.37,7.31,1.88,3.55.83,8.7,2.63,12.34,1.48.81-.25,2.94.93,1.54,1.37-.62.2-1.28.33-1.96.41-5.41.67-12.38-1.95-17.17-3.23-.42-.11-1.17-.5-1.58-.43-.63.11-.06.34-.51.53-2.99,1.26-5.51,3.85-8.35,5.44-3.38,1.88-6.94,2.71-10.77,2.9-4.84.24-11.19-.26-15.5-3.23-.16-.03-.31-.06-.47-.1h0c.35.3.62.66.76,1.09,1.71.3,3.4.96,4.02,2.71Z"/>
    <path class="st10" d="M357.47,304.62c-7.47,1.43-13.25,6.2-19.45,10.28-1.3.86-2.59,1.6-3.88,2.26,4.05,1.84,7.43,4.72,9.59,8.66,2.22,4.08.94,5.56-3.11,6.85-3.27,1.05-8.95,4.13-12.43,2.87-1.84-.67-3.21-2.58-4.58-3.87-2.61-2.48-5.16-4.79-8.62-5.9-1.31,2.95.43,6.93,2.01,9.42,2.6,4.06,6.49,6.87,10.86,8.47,4.13,1.5,8.69,1.95,13.03,1.41,4.37-.56,8.61-1.96,12.57-3.87,3.2-1.55,6.17-3.83,9.67-4.72,7.42-1.88,13.01,4.76,20.18,4.24.92-.07,2.68,1.24,1,1.36-.11,0-.23,0-.34,0-3,.15-5.65-.65-8.42-1.83-1.99-.85-4.02-2-6.15-2.49-3.93-.9-6.92.78-10.14,2.58-.57,3-1.16,5.99-1.73,8.98,2.36-.63,4.85-.94,7.46-.83,6.58.26,14.64.99,21.16,3.99.06-.05.13-.11.19-.17,3.31-2.92,6.17-6.49,8.72-10.04,3.96-5.51,6.11-10.18,3.51-16.98-3.33-8.7-8.91-15.12-18.19-17.26-2.65-.61-5.35-1.41-8.08-2.12-4.91-1.27-9.92-2.24-14.85-1.29Z"/>
    <path class="st32" d="M342.16,327.94c-.23,3.13-7.8,4.8-10.25,5.21-4.66.78-6.38-2.82-9.56-5.45-1.89-1.57-3.9-2.76-6.17-3.56,2.01-1.85,5.38-2.55,7.89-3.23,2.89-.78,5.51-1.65,8.06-2.79.1.19.29.36.62.51,2.27,1,4.27,2.23,6,4.04,1.08,1.13,3.54,3.7,3.42,5.27ZM343.73,325.82c-2.15-3.94-5.54-6.82-9.59-8.66,1.29-.66,2.58-1.4,3.88-2.26,6.2-4.08,11.99-8.85,19.45-10.28,4.93-.95,9.94.03,14.85,1.29l.26-.97c-2.08-.52-4.15-1.02-6.21-1.39.11-.57.23-1.16.33-1.73-.76.1-1.5.21-2.26.3-.15.02-.3.04-.45.05-.06.33-.13.67-.19,1-2.49-.29-5-.31-7.6.1.03-.14.05-.29.08-.43h0c-.88.03-1.75.03-2.64,0-.07.34-.13.69-.2,1.02-7.93,2.2-13.94,8.06-20.95,12.05-5.58,3.17-12.87,3.03-18.04,6.79-5.56,4.05-.63,12.24,2.96,15.87,2.81,2.83,6.28,4.93,10.02,6.28l.43-1.2c-4.38-1.6-8.27-4.4-10.86-8.47-1.59-2.49-3.33-6.47-2.01-9.42,3.46,1.11,6.01,3.41,8.62,5.9,1.36,1.29,2.74,3.2,4.58,3.87,3.48,1.27,9.16-1.82,12.43-2.87,4.05-1.29,5.33-2.77,3.11-6.85Z"/>
    <path class="st32" d="M330.63,371.22c2.11-1.39,4.05-3.02,5.91-4.72,2.15.96,8.88,4.59,8.06,7.16-.49,1.55-6.69,4.33-7.82,4.92-3.22,1.71-3,1.84-5.71-.18-1.86-1.39-3.86-2.54-5.95-3.57,1.49-1.56,3.86-2.52,5.51-3.6ZM337.44,365.66c4.76-4.46,9.12-8.98,14.96-12.1,4.76-2.54,9.15-3.93,14.63-3.58,2.74.17,5.49.54,8.2.96,6.43,1,13.5,2.89,17.3,8.64,3.42,5.17,2.97,11.6,1.16,17.27-2.97,9.37-9.29,18.05-15.93,25.59h0c.8.16,1.61.3,2.41.46,4.46-5.08,8.6-10.4,12.03-16.45,4.92-8.67,8.65-20.64,1.07-28.97-1.42-1.56-3.09-2.83-4.93-3.89,4.95-4.21,9.48-9.94,12.47-15.65,3.98-7.58-.73-16.56-5.56-22.68-.95-1.2-1.95-2.21-3.01-3.09.08-.03.15-.08.2-.13.5-.46.95-.96,1.38-1.47-.81-.3-1.62-.63-2.41-.97-.12.14-.23.28-.36.42-.23.26-.48.51-.73.76-4.07-2.61-8.82-3.65-13.94-4.88-1.29-.31-2.54-.63-3.8-.95l-.26.97c2.73.71,5.43,1.51,8.08,2.12,9.28,2.14,14.87,8.55,18.19,17.26,2.6,6.8.45,11.47-3.51,16.98-2.55,3.55-5.41,7.12-8.72,10.04-.06.05-.13.11-.19.17-6.52-3-14.58-3.73-21.16-3.99-2.61-.1-5.1.21-7.46.83.57-2.99,1.16-5.98,1.73-8.98,3.21-1.8,6.2-3.48,10.14-2.58,2.13.5,4.16,1.64,6.15,2.49,2.76,1.18,5.42,1.98,8.42,1.83.11,0,.23,0,.34,0,1.68-.12-.08-1.43-1-1.36-7.17.52-12.77-6.12-20.18-4.24-3.49.89-6.46,3.17-9.67,4.72-3.96,1.91-8.2,3.32-12.57,3.87-4.33.55-8.89.1-13.03-1.41l-.43,1.2c2.5.9,5.12,1.47,7.76,1.69,3.45.29,6.84,0,10.15-.7-.02.1-.04.21-.06.31.03,0,.05,0,.08,0,.11,0,.23-.03.34-.03.21-.03.41-.07.62-.12.13-.07.26-.14.4-.2.46-.22.91-.39,1.39-.51l.03-.13c2.81-.82,5.56-1.92,8.2-3.24-.54,2.78-1.07,5.56-1.61,8.33-7.1,2.74-13.17,8.21-18.66,13.51-2.51,2.41-5.08,4.73-8.02,6.62-1.81,1.16-4.06,2.04-5.46,3.74-2.08,2.49-1.34,6.03.53,8.45.3.36.61.71.94,1.04-.17-.03-.32-.06-.49-.1l.16.16c.14.14.23.3.3.49.44.18.84.42,1.18.71h0c.16.03.31.06.47.09,4.32,2.97,10.67,3.47,15.5,3.23,3.83-.19,7.39-1.02,10.77-2.9,2.84-1.59,5.36-4.18,8.35-5.44.45-.19-.11-.42.51-.53.41-.07,1.16.32,1.58.43,4.79,1.29,11.76,3.9,17.17,3.23.69-.08,1.35-.21,1.96-.41,1.41-.44-.73-1.62-1.54-1.37-3.64,1.16-8.79-.64-12.34-1.48-2.14-.5-5.11-1.97-7.31-1.88-2,.1-3.99,2.01-5.59,3.11-2.34,1.58-4.66,3.27-7.3,4.34-4.21,1.73-9.28,1.86-13.72,1.13-4.38-.72-11.58-3.93-9.74-9.74.1-.32.24-.63.41-.9,2.47,1.35,4.52,3.02,6.83,4.63.69.48,1.23.95,2.1,1.11,2.72.52,5.95-2.04,8.17-3.35,2.64-1.55,7.06-2.74,4.75-5.97-2.18-3.05-5.42-5.12-8.82-6.55Z"/>
  </g>
  <rect class="st7" x="2.61" y="2.03" width="600" height="430" rx="20" ry="20"/>
</svg>