<?xml version="1.0" encoding="UTF-8"?>
<svg id="Layer_1" xmlns="http://www.w3.org/2000/svg" xmlns:xlink="http://www.w3.org/1999/xlink" version="1.1" viewBox="0 0 605 433">
  <!-- Generator: Adobe Illustrator 29.2.0, SVG Export Plug-In . SVG Version: 2.1.0 Build 108)  -->
  <defs>
    <style>
      .st0, .st1, .st2, .st3, .st4 {
        fill: #fff;
      }

      .st0, .st5 {
        stroke: #535cd4;
      }

      .st0, .st5, .st6 {
        stroke-miterlimit: 10;
      }

      .st7 {
        fill: #8fa02e;
      }

      .st8 {
        fill: #1a2e35;
      }

      .st9 {
        fill: #cd7a63;
      }

      .st1, .st10, .st4 {
        opacity: .3;
      }

      .st11, .st12 {
        fill: #e7e7e7;
      }

      .st11, .st13, .st3, .st4 {
        isolation: isolate;
      }

      .st14, .st15 {
        stroke-linecap: round;
        stroke-linejoin: round;
      }

      .st14, .st15, .st5, .st6 {
        fill: none;
      }

      .st14, .st15, .st6 {
        stroke: #1a2e35;
      }

      .st16 {
        fill: #007cff;
      }

      .st15, .st6 {
        stroke-width: .75px;
      }

      .st17 {
        opacity: .2;
      }

      .st18 {
        opacity: .1;
      }

      .st19 {
        fill: #597828;
      }

      .st20 {
        fill: #e1e1e1;
      }

      .st5 {
        stroke-width: 3px;
      }

      .st21 {
        fill: #f5f5f5;
      }

      .st13 {
        fill: #f0f0f0;
      }

      .st22 {
        fill: #ececec;
      }
    </style>
  </defs>
  <rect class="st0" x="2.48" y="1.5" width="600" height="430" rx="20" ry="20"/>
  <g>
    <g>
      <g>
        <g>
          <path class="st20" d="M495.99,292.26h-180.75c-3.23,0-5.86-2.63-5.86-5.86V23.13c0-3.23,2.63-5.86,5.86-5.86h180.75c3.23,0,5.86,2.63,5.86,5.86v263.27c0,3.23-2.63,5.86-5.86,5.86ZM315.24,17.51c-3.09,0-5.61,2.52-5.61,5.61v263.27c0,3.09,2.52,5.61,5.61,5.61h180.75c3.09,0,5.61-2.52,5.61-5.61V23.13c0-3.09-2.52-5.61-5.61-5.61h-180.75Z"/>
          <path class="st20" d="M287.56,292.26H106.82c-3.23,0-5.86-2.63-5.86-5.86V23.13c0-3.23,2.63-5.86,5.86-5.86h180.75c3.23,0,5.86,2.63,5.86,5.86v263.27c0,3.23-2.63,5.86-5.86,5.86ZM106.82,17.51c-3.09,0-5.61,2.52-5.61,5.61v263.27c0,3.09,2.52,5.61,5.61,5.61h180.75c3.09,0,5.61-2.52,5.61-5.61V23.13c0-3.09-2.52-5.61-5.61-5.61H106.82Z"/>
        </g>
        <rect class="st20" x="52.07" y="353.33" width="500" height=".25"/>
      </g>
      <rect class="st20" x="103.74" y="367.6" width="16.06" height=".25"/>
      <rect class="st20" x="222.42" y="364.89" width="53.53" height=".25"/>
      <rect class="st20" x="120.8" y="376.89" width="36.25" height=".25"/>
      <rect class="st20" x="430.42" y="364.76" width="43.19" height=".25"/>
      <rect class="st20" x="482.52" y="364.76" width="6.33" height=".25"/>
      <rect class="st20" x="368.28" y="370.99" width="53.89" height=".25"/>
    </g>
    <g>
      <rect class="st12" x="324.49" y="33.33" width="154.13" height="170.55"/>
      <rect class="st21" x="331.27" y="40.09" width="140.97" height="157.39"/>
      <polygon class="st2" points="371.11 40.09 331.27 189.29 331.27 108.52 349.5 40.09 371.11 40.09"/>
      <polygon class="st2" points="388.91 40.09 346.9 197.48 338.97 197.48 380.99 40.09 388.91 40.09"/>
      <polygon class="st2" points="472.23 83.01 472.23 163.79 463.31 197.48 441.7 197.48 472.23 83.01"/>
      <rect class="st12" x="398.81" y="33.33" width="5.47" height="170.55"/>
      <rect class="st12" x="327.16" y="67.94" width="148.49" height="5.47"/>
    </g>
    <g id="freepik--Shelf--inject-343">
      <rect class="st20" x="202.81" y="73.55" width="6.95" height="279.71"/>
      <polygon class="st12" points="242.56 353.25 235.6 353.25 208.4 73.55 215.36 73.55 242.56 353.25"/>
      <rect class="st20" x="164.42" y="266.97" width="20.05" height="20.05"/>
      <polygon class="st20" points="197.28 216.29 204.32 192.9 208.02 193.83 200.53 217.5 197.28 216.29"/>
      <polygon class="st20" points="181.69 203.1 171.59 205.54 168.64 215.49 175.79 223.02 185.89 220.6 188.84 210.65 181.69 203.1"/>
      <path class="st20" d="M193.53,216.56h0c-1.34,0-2.43-1.09-2.43-2.43v-4.55c0-1.34,1.09-2.42,2.43-2.42h0c1.34,0,2.42,1.08,2.42,2.42v4.55c0,1.34-1.08,2.43-2.42,2.43Z"/>
      <rect class="st12" x="162.37" y="213.07" width="41.96" height="19"/>
      <g>
        <polygon class="st20" points="193.63 52.25 187.71 69.81 198.64 69.81 193.63 52.25"/>
        <polygon class="st12" points="214.25 69.81 193.63 69.81 187.71 41.13 208.32 41.13 214.25 69.81"/>
        <polygon class="st3" points="195.79 67.06 191 43.88 206.17 43.88 210.96 67.06 195.79 67.06"/>
      </g>
      <g>
        <polygon class="st20" points="177.61 157.95 171.7 175.51 182.62 175.51 177.61 157.95"/>
        <polygon class="st12" points="198.23 175.51 177.61 175.51 171.7 146.83 192.3 146.83 198.23 175.51"/>
        <polygon class="st3" points="179.77 172.76 174.99 149.57 190.15 149.57 194.94 172.76 179.77 172.76"/>
      </g>
      <rect class="st20" x="143.72" y="119.16" width="94.75" height="6.09"/>
      <rect class="st13" x="173.9" y="119.16" width="64.57" height="6.09"/>
      <rect class="st20" x="143.72" y="175.11" width="94.75" height="6.09"/>
      <rect class="st13" x="173.9" y="175.11" width="64.57" height="6.09"/>
      <rect class="st20" x="143.72" y="231.06" width="94.75" height="6.09"/>
      <rect class="st13" x="173.9" y="231.06" width="64.57" height="6.09"/>
      <rect class="st20" x="143.72" y="287.01" width="94.75" height="6.09"/>
      <rect class="st13" x="173.9" y="287.01" width="64.57" height="6.09"/>
      <rect class="st20" x="143.72" y="73.55" width="6.95" height="279.71"/>
      <polygon class="st12" points="183.47 353.25 176.51 353.25 149.32 73.55 156.28 73.55 183.47 353.25"/>
      <rect class="st20" x="143.72" y="68.84" width="94.75" height="6.09"/>
      <rect class="st13" x="173.9" y="68.84" width="64.57" height="6.09"/>
      <path class="st20" d="M163.7,59.18c-1.1-2.67-1-5.69.27-8.29,2.19-4.08,2.83-5.08,1.36-5.93-1.47-.84-2.03,3.29-2.03,3.29-.7-1.87-.77-3.91-.2-5.82.97-2.98,1.58-7.83.24-8.35s-.24,6.05-1.36,8.29c-.59-1.58-.96-3.22-1.13-4.89-.15-2.39.1-6.2-.95-7.18-1.05-.98-1.71-.31-.69,4.96.62,3.14.96,6.32,1.02,9.51,0,0-2.27-6.92-3.79-7.12-1.52-.2-1.52,2.04-.22,3.98s3.82,5.44,4.24,7.22c0,0-2.5-5.21-4.73-3.6-2.23,1.6,1.94,4.73,3.81,5.87,1.86,1.14,3.17,8.26,3.17,8.26l.99-.22Z"/>
      <path class="st22" d="M162.19,60.83c1.07-2.68.93-5.7-.37-8.28-2.24-4.08-2.88-5.04-1.5-5.9s2.07,3.26,2.07,3.26c.67-1.88.72-3.92.14-5.83-1.01-2.96-1.67-7.8-.35-8.33,1.32-.53.33,6.03,1.49,8.26.57-1.58.93-3.23,1.07-4.91.12-2.39-.16-6.2.87-7.19,1.03-.99,1.71-.34.75,4.96-.58,3.14-.88,6.32-.91,9.51,0,0,2.19-6.95,3.71-7.18,1.52-.23,1.55,2.03.26,3.98-1.29,1.96-3.75,5.44-4.08,7.29,0,0,2.42-5.25,4.68-3.68,2.26,1.56-1.89,4.77-3.74,5.93-1.85,1.16-3.07,8.32-3.07,8.32l-1.02-.22Z"/>
      <polygon class="st20" points="170.78 57.84 155.4 57.84 156.65 68.84 169.55 68.84 170.78 57.84"/>
      <path class="st20" d="M197.96,114.27v4.21h.68v.68h-31.49c-1.54,0-2.79-1.25-2.79-2.79s1.25-2.79,2.79-2.79h31.49v.68h-.68Z"/>
      <path class="st4" d="M197.96,114.27v4.21h.68v.68h-15.9c-1.54,0-2.79-1.25-2.79-2.79s1.25-2.79,2.79-2.79h15.9v.68h-.68Z"/>
      <path class="st3" d="M197.96,114.27v4.21h-15.22c-1.17.02-2.14-.91-2.16-2.08,0,0,0-.02,0-.03,0-1.16.92-2.1,2.08-2.11h15.3Z"/>
      <path class="st20" d="M201.35,108.7v4.21h.68v.68h-31.49c-1.54,0-2.79-1.25-2.79-2.79s1.25-2.79,2.79-2.79h31.49v.68h-.68Z"/>
      <path class="st11" d="M201.35,108.7v4.21h.68v.68h-15.9c-1.54,0-2.79-1.25-2.79-2.79s1.25-2.79,2.79-2.79h15.9v.68h-.68Z"/>
      <path class="st3" d="M201.35,108.7v4.21h-15.22c-1.16,0-2.1-.95-2.11-2.11,0-1.16.92-2.1,2.08-2.11,0,0,.02,0,.03,0h15.22Z"/>
      <path class="st20" d="M197.09,103.12v4.21h.68v.68h-31.49c-1.54,0-2.79-1.25-2.79-2.79s1.25-2.79,2.79-2.79h31.49v.68h-.68Z"/>
      <path class="st11" d="M197.09,103.12v4.21h.68v.68h-15.83c-1.54,0-2.79-1.25-2.79-2.79s1.25-2.79,2.79-2.79h15.9v.68h-.75Z"/>
      <path class="st3" d="M197.09,103.12v4.21h-15.15c-1.17.03-2.14-.89-2.17-2.07,0,0,0-.02,0-.03-.02-1.16.91-2.11,2.06-2.12.04,0,.07,0,.11,0h15.15Z"/>
      <path class="st12" d="M202.77,258.23h0c3.81,0,6.9,3.09,6.9,6.9v10.18c0,3.81-3.09,6.9-6.9,6.9h0c-3.81,0-6.9-3.09-6.9-6.9v-10.18c0-3.81,3.09-6.9,6.9-6.9Z"/>
      <rect class="st12" x="201.09" y="276.02" width="3.34" height="11"/>
      <rect class="st12" x="197.54" y="285.97" width="10.45" height="1.03"/>
    </g>
    <path class="st21" d="M509.05,419.16c0,3.39-93.52,6.13-208.87,6.13s-208.87-2.75-208.87-6.13,93.52-6.13,208.87-6.13,208.87,2.75,208.87,6.13Z"/>
    <g>
      <path class="st7" d="M448.46,308.42s-1.08,27.49,2.15,35.04c3.23,7.55,12.2,11.48,13.64,19.93,1.44,8.46,8.97,25.07,8.97,25.07h3.59s-5.38-23.86-8.61-31.41c-3.23-7.55-9.33-15.71-12.2-23.26-2.87-7.55-7.54-25.37-7.54-25.37Z"/>
      <path class="st10" d="M471.69,378.18c-2.01-5.08-4.15-11.09-4.83-15.1-.91-5.37-4.4-9-7.78-12.51-2.43-2.53-4.72-4.91-5.99-7.86-1.19-2.79-1.77-8.98-2.02-15.51.85,2.76,1.7,5.33,2.43,7.27,1.59,4.18,4.12,8.52,6.57,12.71,2.07,3.55,4.21,7.21,5.67,10.62,1.73,4.05,4.14,13.09,5.96,20.39Z"/>
      <path class="st7" d="M460.1,265.83s2.78,23.26,2.42,29.9c-.36,6.64-2.09,29.9.03,36.24,2.12,6.34,15.76,40.78,15.76,46.51v9.97h7.9s-7.9-49.53-8.61-57.09c-.72-7.55-5.03-12.08-6.1-18.73-1.08-6.64-2.15-29.6-3.23-34.43-1.08-4.83-8.16-12.38-8.16-12.38Z"/>
      <path class="st10" d="M480.94,386.25v-7.76c0-4.26-5.87-20.27-12.4-37.72-1.63-4.36-2.92-7.8-3.46-9.39-1.76-5.26-.6-24.44-.11-32.63.07-1.16.13-2.15.17-2.92.22-4.09-.68-14.04-1.45-21.41.96,1.51,1.72,3,1.99,4.2.54,2.41,1.11,10.03,1.66,17.4.53,7.04,1.03,13.69,1.55,16.92.53,3.29,1.79,6.08,3,8.78,1.4,3.11,2.72,6.05,3.08,9.83.63,6.63,6.6,44.44,8.23,54.7h-2.27Z"/>
      <path class="st10" d="M476.78,327.14s-3.77,11.41-3.76,15.89c0,4.48,1.88,23.34,1.88,23.34l2.79,8.19,1.48-28.18-1.71-16.06-.69-3.19Z"/>
      <path class="st7" d="M479.75,233.21c-.36,1.21-7.8,33.22-6.59,47.12,1.21,13.89,6.95,27.79,6.59,35.34-.36,7.55-3.48,16.31-3.36,25.07.12,8.76,1.92,47.72,1.92,47.72h5.03s.36-48.33,2.87-55.27c2.51-6.95,6.82-19.93,6.1-30.2-.72-10.27-4.31-32.32-6.1-41.98-1.79-9.67-6.46-27.79-6.46-27.79Z"/>
      <path class="st10" d="M480.76,384.33c-.46-10.2-1.63-36.66-1.73-43.62-.07-4.73.86-9.53,1.77-14.18.73-3.77,1.42-7.34,1.59-10.78.19-4.04-1.17-9.49-2.75-15.79-1.53-6.09-3.25-12.98-3.85-19.8-.76-8.66,1.96-24.74,4.13-35.55,1.35,5.58,2.86,12.14,3.71,16.72,1.76,9.5,5.36,31.51,6.07,41.77.51,7.25-1.45,16.88-5.99,29.43-2.2,6.07-2.8,39.46-2.95,51.79Z"/>
      <path class="st7" d="M507.03,278.51s-5.74,12.99-12.56,25.67c-6.82,12.69-6.1,29.3-6.1,38.96s-2.15,45.31-2.15,45.31h2.87s-1.64-22.35,3.31-34.73c4.95-12.38,4.95-24.12,6.38-30.64,1.44-6.52,8.26-16.48,9.69-24.03,1.44-7.55-1.44-20.54-1.44-20.54Z"/>
      <path class="st10" d="M490.81,350.62c.11-3.09.18-5.69.18-7.46,0-.8,0-1.65-.01-2.55-.06-9.68-.14-24.31,5.88-35.51,3.45-6.41,6.64-12.94,8.95-17.82.44,3.82.68,8.2.07,11.43-.72,3.76-2.93,8.32-5.08,12.73-2,4.1-3.88,7.98-4.6,11.25-.45,2.04-.75,4.49-1.11,7.32-.73,5.87-1.62,13.05-4.28,20.61Z"/>
      <path class="st7" d="M511.34,319.89s-9.98,16.57-15.58,22.63c-5.6,6.06-7.99,17.52-7.99,17.52l1.32,28.41s6.5-31.41,8.46-35.64c1.95-4.23,9.58-9.67,11.33-14.8,1.75-5.13,2.47-18.12,2.47-18.12Z"/>
      <path class="st10" d="M490.4,360.21c.36-1.58,2.71-11.22,7.43-16.33,2.85-3.08,6.71-8.67,9.91-13.56-.36,2.74-.82,5.4-1.4,7.09-.82,2.42-3.38,5.13-5.86,7.76-2.25,2.39-4.37,4.64-5.39,6.84-.91,1.97-2.64,8.98-4.31,16.32l-.38-8.13Z"/>
      <path class="st8" d="M501.43,373.69h-39.67c-.49,1.14-7.68,21.58-7.68,21.58l11.74,23.47h31.57l11.74-23.47s-7.19-20.44-7.68-21.58Z"/>
      <polygon class="st1" points="457.79 394.43 464.5 376.98 484.32 376.98 479.18 394.49 469.29 399.16 457.79 394.43"/>
      <path class="st2" d="M476.27,272.17c-.54,7.96.41,15.74,2.83,23.34-3.73-7.03-4.77-15.62-2.83-23.34h0Z"/>
      <path class="st2" d="M486.21,334.55c3.25-9.79,6.35-19.98,6.18-30.38,1.64,9.78-1.78,21.64-6.18,30.38h0Z"/>
    </g>
    <g>
      <g>
        <g>
          <path class="st7" d="M308.27,195.87c-4.36-6.83-14.74-7.94-21.6-3.62-6.86,4.31-10.39,12.61-10.96,20.69-.57,8.08,1.38,16.11,3.32,23.97,1.13-17.65,13.39-34.11,29.99-40.23l-.75-.82Z"/>
          <g class="st10">
            <path class="st2" d="M308.27,195.87c-4.36-6.83-14.74-7.94-21.6-3.62-6.86,4.31-10.39,12.61-10.96,20.69-.57,8.08,1.38,16.11,3.32,23.97,1.13-17.65,13.39-34.11,29.99-40.23l-.75-.82Z"/>
          </g>
          <path class="st19" d="M281.21,213.1c.57-7.2,3.69-13.24,8.39-16.2,1.75-1.1,3.96-1.71,6.22-1.71,1.05,0,2.04.12,2.96.36-7.11,4.32-13.17,10.43-17.57,17.54Z"/>
        </g>
        <g>
          <path class="st7" d="M448.52,232.65c-3.54-3.92-9.96-5.44-14.3-2.43l-.9.06c7.26,9.9,11.74,21.82,12.8,34.06,3.77-4.82,6.08-10.76,6.57-16.86.43-5.26-.63-10.91-4.18-14.83Z"/>
          <g class="st10">
            <path class="st2" d="M448.52,232.65c-3.54-3.92-9.96-5.44-14.3-2.43l-.9.06c7.26,9.9,11.74,21.82,12.8,34.06,3.77-4.82,6.08-10.76,6.57-16.86.43-5.26-.63-10.91-4.18-14.83Z"/>
          </g>
          <path class="st19" d="M447.27,244.64c-1.22-3.27-2.68-6.46-4.36-9.53.57.34,1.1.76,1.53,1.24,1.73,1.91,2.72,4.86,2.83,8.29Z"/>
        </g>
        <g>
          <path class="st6" d="M323.62,234.46c8.36-5.69,20.06-5.99,28.7-.74"/>
          <path class="st6" d="M309.24,196.31c20.53,2.23,37.52,18.15,46.74,36.63,9.22,18.48,12.01,39.39,14.68,59.86"/>
          <path class="st6" d="M353.03,143.3c15.61,39.6,10.73,82.29,19.47,123.94"/>
          <path class="st6" d="M378.14,121.96c-3.92,57.6-5.99,115.33-6.21,173.07"/>
          <path class="st6" d="M374.98,292.53c-5.08-37.16,1.82-75.93,12.15-111.99"/>
          <path class="st6" d="M377.97,294.12c1.13-27.22,2.26-54.54,7.17-81.34,4.91-26.8,13.75-53.23,29.14-75.71"/>
          <path class="st6" d="M378.9,277.27c3.38-13.13,6.84-26.36,12.84-38.52,6.01-12.16,14.81-23.32,26.68-29.88,11.87-6.56,27.07-7.9,38.95-1.37"/>
          <path class="st6" d="M383.48,259.62c3.42-6.6,6.94-13.21,11.66-18.95,4.72-5.74,10.75-10.63,17.85-12.83,7.1-2.2,15.33-1.41,21.23,3.11"/>
        </g>
        <g>
          <path class="st7" d="M340.01,175.96c2.35-2.96,5.28-5.6,8.85-6.84,3.57-1.24,7.86-.86,10.69,1.64,2.93,2.59,3.78,6.99,2.85,10.79-.93,3.8-3.39,7.06-6.2,9.78-5.49,5.31-12.36,8.91-18.64,13.26-6.28,4.35-12.26,9.88-14.48,17.19-6.77-12.2-10.54-26.04-10.9-39.99-.17-6.88.87-14.58,6.21-18.92,4.28-3.48,10.86-3.79,15.44-.72,4.58,3.07,6.8,9.27,5.21,14.55l.97-.75Z"/>
          <g class="st10">
            <path class="st2" d="M340.01,175.96c2.35-2.96,5.28-5.6,8.85-6.84,3.57-1.24,7.86-.86,10.69,1.64,2.93,2.59,3.78,6.99,2.85,10.79-.93,3.8-3.39,7.06-6.2,9.78-5.49,5.31-12.36,8.91-18.64,13.26-6.28,4.35-12.26,9.88-14.48,17.19-6.77-12.2-10.54-26.04-10.9-39.99-.17-6.88.87-14.58,6.21-18.92,4.28-3.48,10.86-3.79,15.44-.72,4.58,3.07,6.8,9.27,5.21,14.55l.97-.75Z"/>
          </g>
          <path class="st19" d="M323.48,209.83c-3.57-8.95-5.56-18.53-5.8-28.18-.18-7.22,1.23-12.11,4.18-14.51,1.25-1.01,2.99-1.6,4.78-1.6,1.52,0,2.99.42,4.13,1.18,2.58,1.73,3.9,5.42,3,8.39l-2.38,13.83,11.26-9.46.42-.53c2.08-2.62,5.46-3.9,7.59-4.64.72-.25,1.5-.38,2.25-.38,1.23,0,2.29.34,2.99.95,1.17,1.04,1.66,3.29,1.15,5.36-.56,2.26-2.13,4.67-4.68,7.14-3.42,3.31-7.56,5.95-11.94,8.75-2.02,1.29-4.04,2.58-6.01,3.94-4.54,3.14-8.17,6.38-10.94,9.77Z"/>
          <path class="st15" d="M339.3,176.63c-5.36,6.78-9.53,14.49-12.26,22.68"/>
          <path class="st15" d="M337.11,178.76c-2.38-1.16-5.16-1.47-7.73-.85-2.57.62-4.91,2.16-6.49,4.28"/>
          <path class="st15" d="M334.39,184.02c3.23,3.69,4.41,9.08,3,13.78"/>
          <path class="st15" d="M330.47,189.42c-3.64-.9-7.76.63-9.93,3.69"/>
        </g>
        <g>
          <path class="st7" d="M384.01,215.45c-3.58-2.61-8.91-2.46-12.34.34l.32-.84c.34-3.02-1.76-5.97-4.54-7.22-2.77-1.25-6.03-1.02-8.91-.05-8.42,2.85-13.75,11.56-15.17,20.34-1.42,8.77.36,17.72,2.14,26.42,7.37-7.3,16.32-13,26.05-16.59,6.16-2.27,13.46-4.44,15.87-10.54,1.63-4.12.14-9.25-3.43-11.86Z"/>
          <g class="st10">
            <path class="st2" d="M384.01,215.45c-3.58-2.61-8.91-2.46-12.34.34l.32-.84c.34-3.02-1.76-5.97-4.54-7.22-2.77-1.25-6.03-1.02-8.91-.05-8.42,2.85-13.75,11.56-15.17,20.34-1.42,8.77.36,17.72,2.14,26.42,7.37-7.3,16.32-13,26.05-16.59,6.16-2.27,13.46-4.44,15.87-10.54,1.63-4.12.14-9.25-3.43-11.86Z"/>
          </g>
          <path class="st19" d="M347.26,249.08c-1.31-6.86-2.26-13.84-1.16-20.63,1.42-8.77,6.65-15.91,13.33-18.17,1.29-.44,2.6-.66,3.79-.66s2.2.21,3.11.62c1.75.79,2.97,2.51,2.95,4.11l-3.95,10.2,8.09-6.62c1.25-1.02,2.9-1.58,4.67-1.58,1.6,0,3.12.47,4.3,1.34,2.57,1.88,3.66,5.66,2.5,8.62-1.76,4.44-7.32,6.45-12.69,8.4l-1.57.57c-8.5,3.13-16.49,7.87-23.36,13.82Z"/>
          <path class="st15" d="M372.04,215.66c-9.33,5.87-16.86,14.55-21.36,24.61"/>
          <path class="st15" d="M359.06,227.22c.78,2.21,1.23,4.53,1.35,6.86"/>
          <path class="st15" d="M363.49,222.2c-5.23-1.46-11.12-.37-15.48,2.87"/>
          <path class="st15" d="M370.39,217.23c.96,3.97,1.17,8.12.61,12.17"/>
        </g>
        <g>
          <path class="st7" d="M419.63,220.02c-1.67-1.76-3.96-3.16-6.38-2.99-2.26.16-4.4,2.13-4.33,4.34-1.35-2.41-5.6-3.61-8.29-3.08-2.91.57-5.16,3.51-4.95,6.47.17,2.28,1.6,4.3,3.32,5.81,1.72,1.51,3.75,2.61,5.62,3.93,6.58,4.66,11.05,12.19,12,20.2,3.08-5.43,6.12-11.02,7.25-17.15,1.13-6.13.06-13-4.23-17.52Z"/>
          <g class="st10">
            <path class="st2" d="M419.63,220.02c-1.67-1.76-3.96-3.16-6.38-2.99-2.26.16-4.4,2.13-4.33,4.34-1.35-2.41-5.6-3.61-8.29-3.08-2.91.57-5.16,3.51-4.95,6.47.17,2.28,1.6,4.3,3.32,5.81,1.72,1.51,3.75,2.61,5.62,3.93,6.58,4.66,11.05,12.19,12,20.2,3.08-5.43,6.12-11.02,7.25-17.15,1.13-6.13.06-13-4.23-17.52Z"/>
          </g>
          <path class="st19" d="M410.97,223.31s.51-1.12,2.67-.79c.31,0,1.11.35,2,1.28,2.67,2.81,3.74,7.69,2.81,12.74-.24,1.32-.6,2.63-1.04,3.93-2.45-4.1-5.72-7.71-9.61-10.47-.71-.51-1.45-.98-2.19-1.46-1.11-.72-2.17-1.41-2.99-2.12-.96-.84-1.42-1.64-1.45-2.06,0-.21.31-.62.51-.67.09-.02.2-.02.31-.02,1.03,0,8.73-.58,8.99-.36"/>
          <path class="st15" d="M408.74,221.03c6.07,5.53,9.7,13.65,9.79,21.86"/>
          <path class="st15" d="M411.19,224.23c-1.29,2.56-2.11,5.35-2.42,8.2"/>
          <path class="st15" d="M414.96,228.11c2.33,1,4.34,2.76,5.63,4.94"/>
        </g>
        <g>
          <path class="st7" d="M468.99,204.42c-1.39-1.46-3.29-2.62-5.3-2.48-1.88.13-3.65,1.77-3.6,3.6-1.12-2-4.65-2.99-6.89-2.56-2.42.47-4.29,2.91-4.11,5.37.14,1.89,1.33,3.57,2.76,4.82,1.43,1.25,3.11,2.17,4.66,3.27,5.46,3.87,9.17,10.12,9.96,16.77,2.55-4.5,5.08-9.15,6.02-14.24.94-5.09.05-10.79-3.51-14.55Z"/>
          <g class="st10">
            <path class="st2" d="M468.99,204.42c-1.39-1.46-3.29-2.62-5.3-2.48-1.88.13-3.65,1.77-3.6,3.6-1.12-2-4.65-2.99-6.89-2.56-2.42.47-4.29,2.91-4.11,5.37.14,1.89,1.33,3.57,2.76,4.82,1.43,1.25,3.11,2.17,4.66,3.27,5.46,3.87,9.17,10.12,9.96,16.77,2.55-4.5,5.08-9.15,6.02-14.24.94-5.09.05-10.79-3.51-14.55Z"/>
          </g>
          <path class="st19" d="M465.04,205.63h-1.72c-1.41.33-1.17,1.93-1.17,1.93,0,0-3.47-1.83-5.83-1.62-2.37.21-1.4,2.52-1.4,2.52.14.17.32.36.56.57.63.55,1.48,1.1,2.37,1.68.62.4,1.24.81,1.85,1.24,2.77,1.97,5.18,4.44,7.12,7.24.1-.4.19-.81.26-1.22.72-3.9-.04-10.22-2.05-12.34Z"/>
          <path class="st15" d="M460.2,205.34c4.75,4.81,7.72,11.33,8.25,18.07"/>
          <path class="st15" d="M462.26,208.26c-1.27,1.59-1.87,3.7-1.64,5.73"/>
          <path class="st15" d="M465.39,211.75c2.02.31,3.9,1.45,5.11,3.09"/>
        </g>
        <g>
          <path class="st7" d="M332.8,232.83c-2.43-.97-6.43.55-8.84.78.03-3.93-6.04-7.03-9.9-6.31-3.86.72-6.85,3.81-9,7.1-5.54,8.44-7.29,19.27-4.68,29.03,1.2-4.68,4.49-8.64,8.48-11.37,3.99-2.72,8.65-4.31,13.36-5.42,2.66-.63,5.41-1.13,7.83-2.41,2.42-1.28,4.52-3.54,4.79-6.26.26-2.6.4-4.16-2.03-5.14Z"/>
          <g class="st10">
            <path class="st2" d="M332.8,232.83c-2.43-.97-6.43.55-8.84.78.03-3.93-6.04-7.03-9.9-6.31-3.86.72-6.85,3.81-9,7.1-5.54,8.44-7.29,19.27-4.68,29.03,1.2-4.68,4.49-8.64,8.48-11.37,3.99-2.72,8.65-4.31,13.36-5.42,2.66-.63,5.41-1.13,7.83-2.41,2.42-1.28,4.52-3.54,4.79-6.26.26-2.6.4-4.16-2.03-5.14Z"/>
          </g>
          <path class="st19" d="M328.88,238.28c-.31.36-.78.75-1.42,1.09-1.42.75-3.31,1.18-5.3,1.63l-1.21.28c-6.32,1.49-11.15,3.47-15.2,6.23-.13.09-.25.18-.38.26.78-3.68,2.22-7.22,4.28-10.36,1.78-2.72,3.71-4.39,5.41-4.71h.02c1.33,0,2.62-.19,3.06,1.59l-.24,1.69,7.41-.8s5.2.43,3.56,3.09Z"/>
          <path class="st15" d="M302.15,254.27c2.97-9.99,11.6-18.08,21.77-20.4"/>
          <path class="st15" d="M318.15,236.38c.72,2.32.9,4.81.51,7.21"/>
          <path class="st15" d="M313.77,238.31c-.95-.94-2.23-1.53-3.56-1.64"/>
          <path class="st15" d="M308.84,243.12c-.34,1.44-.33,2.95,0,4.39"/>
        </g>
        <g>
          <path class="st7" d="M408.86,119.92c-.49-6.84-2.68-14.33-8.62-17.76-7.44-4.3-17.29.05-22.68,6.74-4.57-3.09-10.1-6.31-15.28-4.41-5.81,2.13-7.65,10.12-5.01,15.72,2.64,5.6,8.34,9.09,14.06,11.46,5.72,2.37,11.82,3.98,17,7.37,5.18,3.38,9.42,9.17,8.7,15.32,7.39-11.08,12.78-21.15,11.83-34.44Z"/>
          <g class="st10">
            <path class="st2" d="M408.86,119.92c-.49-6.84-2.68-14.33-8.62-17.76-7.44-4.3-17.29.05-22.68,6.74-4.57-3.09-10.1-6.31-15.28-4.41-5.81,2.13-7.65,10.12-5.01,15.72,2.64,5.6,8.34,9.09,14.06,11.46,5.72,2.37,11.82,3.98,17,7.37,5.18,3.38,9.42,9.17,8.7,15.32,7.39-11.08,12.78-21.15,11.83-34.44Z"/>
          </g>
          <path class="st19" d="M401.86,120.42c-.21-2.89-1.12-9.87-5.13-12.19-.9-.52-1.91-.78-3.07-.78-3.49,0-5.6,2.22-8.38,5.66-1.67-1.13-11.32-3.21-13.82-3.21-.32,0-3.39-.49-6.77,1.16-.59.29-1,.98-1.17,1.4-.6,1.46-.56,3.37.09,4.75,1.42,3.02,4.92,5.7,10.4,7.97,1.62.67,3.28,1.28,4.92,1.88,4.39,1.61,8.93,3.28,13.23,6.09,2.11,1.38,4.22,3.16,6.07,5.27,2.77-5.91,4.1-11.56,3.63-18.02Z"/>
          <path class="st15" d="M377.55,108.9c6.93,2.35,12.94,7.42,16.9,13.57,3.96,6.15,5.77,13.66,5.05,20.94"/>
          <path class="st15" d="M383.97,112.37c-2.15,4.58-3.34,10.5-2.82,15.53"/>
          <path class="st15" d="M391.55,118.04c3.72-.47,7.64,1.12,9.98,4.05"/>
        </g>
        <g>
          <path class="st7" d="M464.25,141.48c-5.67-9.83-15.39-17.23-26.36-20.09-1.79-4.72-7.76-6.92-12.62-5.54-4.85,1.38-8.5,5.58-10.48,10.22-1.98,4.64-2.53,9.75-3.06,14.76,10.66-3.93,28.69.28,38.45,6.1,9.76,5.82,16.66,16.19,18.27,27.44,3.02-10.93,1.48-23.06-4.19-32.88Z"/>
          <g class="st10">
            <path class="st2" d="M464.25,141.48c-5.67-9.83-15.39-17.23-26.36-20.09-1.79-4.72-7.76-6.92-12.62-5.54-4.85,1.38-8.5,5.58-10.48,10.22-1.98,4.64-2.53,9.75-3.06,14.76,10.66-3.93,28.69.28,38.45,6.1,9.76,5.82,16.66,16.19,18.27,27.44,3.02-10.93,1.48-23.06-4.19-32.88Z"/>
          </g>
          <path class="st19" d="M461.88,149.24c-2.63-2.71-5.61-5.09-8.89-7.05-8.43-5.03-21-8.41-31.29-8.41-1.2,0-2.37.05-3.5.13.38-2,.9-3.93,1.65-5.71,1.55-3.64,4.14-6.29,6.92-7.08.46-.13.95-.2,1.47-.2,2.04,0,3.98,1.03,4.5,2.4l1.01,2.65,2.75.72c9.49,2.47,18.08,9.02,22.99,17.52.92,1.6,1.72,3.28,2.39,5.01Z"/>
          <path class="st15" d="M412.22,140.62c6.02-8.95,15.51-15.5,26.02-17.96"/>
          <path class="st15" d="M423.85,129.04c5.38-1.79,11.48-1.29,16.49,1.35"/>
        </g>
        <g>
          <path class="st7" d="M442.83,171.99c-2.25-6.72-7.17-12.85-13.9-15.09-6.73-2.24-14.75,1.5-17.95,7.83h0c-5.93-4.53-14.58-5.74-21.02-1.97-6.44,3.78-9.54,12.85-5.84,19.33,3.22,5.63,9.99,7.94,16.09,10.15,14.76,5.36,28.77,12.76,41.52,21.92.31-7.08,1.72-14.07,2.49-21.12.77-7.05.86-14.33-1.39-21.06Z"/>
          <g class="st10">
            <path class="st2" d="M442.83,171.99c-2.25-6.72-7.17-12.85-13.9-15.09-6.73-2.24-14.75,1.5-17.95,7.83h0c-5.93-4.53-14.58-5.74-21.02-1.97-6.44,3.78-9.54,12.85-5.84,19.33,3.22,5.63,9.99,7.94,16.09,10.15,14.76,5.36,28.77,12.76,41.52,21.92.31-7.08,1.72-14.07,2.49-21.12.77-7.05.86-14.33-1.39-21.06Z"/>
          </g>
          <path class="st19" d="M437.14,204.4c-11-7.05-22.75-12.86-35.05-17.33l-.61-.22c-5.15-1.87-10.47-3.8-12.58-7.49-2.07-3.63-.17-9.5,3.84-11.85,1.66-.97,3.68-1.49,5.82-1.49,3.2,0,6.5,1.12,9.07,3.08l16.38,8.99-7.34-13.68c1.68-1.72,4.37-2.8,7.24-2.8,1.15,0,2.26.17,3.28.51,4.54,1.51,8.53,5.96,10.42,11.61,1.66,4.94,2,10.72,1.14,18.72-.28,2.54-.64,5.07-1,7.6-.21,1.43-.41,2.89-.61,4.35Z"/>
          <path class="st15" d="M410.55,164.02c8.22,7.35,16.39,16.08,22.61,30.19"/>
          <path class="st15" d="M415.73,169.19c-2.06,4.19-2.88,8.98-2.33,13.62"/>
          <path class="st15" d="M422.34,175.81c5.37-.35,10.85,1.37,15.05,4.73"/>
          <path class="st15" d="M429.33,188.29c-1.38,2.49-1.66,5.57-.76,8.28"/>
        </g>
        <g>
          <path class="st7" d="M346.91,125.31c-6.88-4.34-16.69-3.33-22.54,2.33-7.78-2.4-16.58-1.25-23.5,3.05-6.91,4.3-11.83,11.69-13.11,19.74,9.09-7.05,20.57-10.97,32.07-10.96,11.51,0,25.59.14,34.67,7.19,2.59-7.72-.72-17-7.6-21.34Z"/>
          <g class="st10">
            <path class="st2" d="M346.91,125.31c-6.88-4.34-16.69-3.33-22.54,2.33-7.78-2.4-16.58-1.25-23.5,3.05-6.91,4.3-11.83,11.69-13.11,19.74,9.09-7.05,20.57-10.97,32.07-10.96,11.51,0,25.59.14,34.67,7.19,2.59-7.72-.72-17-7.6-21.34Z"/>
          </g>
          <path class="st19" d="M349.39,137.62c-9.59-3.65-20.8-3.66-29.55-3.66-6.23,0-12.4,1.02-18.26,2.97.7-.57,1.44-1.09,2.21-1.57,3.58-2.23,7.94-3.45,12.29-3.45,2.3,0,4.55.33,6.68.99l3.11.96,2.34-2.26c2.28-2.21,5.59-3.47,9.07-3.47,2.47,0,4.79.64,6.7,1.84,2.65,1.67,4.57,4.54,5.42,7.66Z"/>
          <path class="st15" d="M354.51,146.66c-2.41-6.31-4.57-9.34-9.64-13.3-5.07-3.96-13.9-6.4-20.31-5.89"/>
          <path class="st15" d="M339.53,130.27c-4.86.24-9.65,1.86-13.65,4.62"/>
          <path class="st15" d="M335.5,128.52c-.12-1.67-.38-3.33-.76-4.96"/>
        </g>
        <g>
          <path class="st8" d="M407,270.09h-63.92c-1.77,0-3.2-1.43-3.2-3.2h0c0-1.77,1.43-3.2,3.2-3.2h63.92c1.77,0,3.2,1.43,3.2,3.2h0c0,1.77-1.43,3.2-3.2,3.2Z"/>
          <path class="st8" d="M378.31,268.66h-32.87s4.41,5.5,4.65,13.76c.22,7.56-1.83,31.61,21.18,35.63h7.04c23.02-4.02,20.97-28.07,21.18-35.63.24-8.26,4.65-13.76,4.65-13.76h-25.83Z"/>
          <polygon class="st18" points="346.41 270.09 403.17 270.09 401.52 273.29 347.79 273.29 346.41 270.09"/>
          <rect class="st8" x="362.17" y="313.51" width="25.52" height="4.54"/>
        </g>
        <path class="st2" d="M286.33,195.6c2.86-4.65,10.18-5.94,14.45-2.53-5.08-.53-9.86.3-14.45,2.53h0Z"/>
        <path class="st2" d="M420.16,134.82c16.52-3.28,34.91,3.63,45.16,16.99-12.25-11.21-28.56-17.36-45.16-16.99h0Z"/>
        <path class="st2" d="M365.65,107.72c-1.46.22-2.49,1.26-3.08,2.44-1.81,3.68-.34,8.06,1.97,11.22,3.28,4.57,8.62,7.01,13.39,9.9-2.8-.74-5.54-1.67-8.15-3.04-5.3-2.67-9.97-8-9.55-14.28.1-2.87,2.15-6.59,5.43-6.23h0Z"/>
        <path class="st2" d="M295.62,141.15c5.67-5.29,14.4-7.38,21.85-5.21-7.58.68-14.78,2.38-21.85,5.21h0Z"/>
        <path class="st2" d="M325.64,162.19c-6.14,2.5-8.21,9.23-8.4,15.33-.11,2.11-.1,4.28-.28,6.47-1.28-4.24-1.91-8.75-.77-13.13,1.14-4.27,4.77-8.63,9.45-8.66h0Z"/>
        <path class="st2" d="M320.22,231.96c-2.76-1.13-5.19-1.66-8.17-1.82,2.14-2.77,7.4-1.59,8.17,1.82h0Z"/>
        <path class="st2" d="M369.22,213.57c-6.1-2.96-13.4-.36-16.89,5.24-1.21,1.81-2.11,3.86-2.77,6.08-.32-4.75,2.13-9.65,6.2-12.25,4.04-2.57,10.05-2.58,13.46.93h0Z"/>
        <path class="st2" d="M401.26,220.64c-1.16,2.19-1.26,4.16-.38,6.47-3.64-.44-3.28-6.44.38-6.47h0Z"/>
        <path class="st2" d="M437.79,232.54c2.26.39,3.78,2.92,3.04,5.1-1.82-1.18-2.86-2.94-3.04-5.1h0Z"/>
        <path class="st2" d="M453.17,205.12c-.06,2.37.45,4.07,1.77,6.04-3.31.59-4.87-4.76-1.77-6.04h0Z"/>
        <path class="st2" d="M395.24,166.94c-5.77,2.51-6.89,9.83-3.58,14.73,1.05,1.65,2.45,3.12,4.09,4.45-2.03-.6-3.91-1.84-5.34-3.53-4.73-5.12-2.8-15.07,4.83-15.66h0Z"/>
        <path class="st1" d="M353.03,275.93s1.37,3.23,1.48,8.71c.06,3.13-1.3,10.25,1.46,17.22,2.76,6.97,8.43,10.37,8.43,10.37h4.86s-8.59-5.84-10.37-15.72c-1.78-9.89-.82-15.74-5.86-20.59Z"/>
      </g>
      <g>
        <polygon class="st9" points="424.02 330.78 350.32 330.78 329.15 330.78 329.15 317.8 424.02 317.8 424.02 330.78"/>
        <polygon class="st9" points="329.15 418.91 345.34 324.58 362.18 324.58 336.73 419.16 329.15 418.91"/>
        <polygon class="st9" points="427.14 418.91 410.95 324.58 394.1 324.58 419.55 419.16 427.14 418.91"/>
        <polygon class="st17" points="343.23 339.92 344.27 330.78 360.51 330.78 358.05 339.92 343.23 339.92"/>
        <polygon class="st17" points="395.77 330.78 412.01 330.78 413.44 339.11 398.01 339.11 395.77 330.78"/>
      </g>
    </g>
    <g>
      <path class="st14" d="M185.62,351.25c4.64-22.34,7.81-43.77,16.68-64.79,3.41-8.08,7.5-16.02,13.45-22.47,5.95-6.45,13.98-11.32,22.72-12.06s18.09,3.21,22.46,10.82"/>
      <g>
        <path class="st7" d="M252.47,271.57c-4.74,1.26-8.71,5.15-10.02,9.83-1.72-3.42-3.46-6.92-3.92-10.72-.46-3.8.61-8.03,3.65-10.45,2.66-2.12,6.4-2.51,9.7-1.76s6.26,2.48,9.1,4.29c.77-5.44,2.47-10.05,6.64-12.26,4.17-2.21,8.14-1.85,12.18.49,4.04,2.34,7.07,6.02,9.8,9.77-4.63-.74-9.45-.35-13.92,1.11-.94.31-1.99.79-2.25,1.73-.42,1.54,1.59,2.62,3.2,2.56,3.52-.15,6.73-2.7,10.24-2.39,2.99.26,5.41,2.64,6.58,5.36,1.17,2.72,1.32,5.75,1.45,8.72-4.06-2.93-8.98-4.69-14.03-5.03-.98-.06-2.18.05-2.6.93-.47.99.45,2.04,1.33,2.69,2.33,1.73,4.94,3.08,7.71,3.99,1.69.56,3.52,1,4.76,2.26,1.47,1.49,1.75,3.83,1.24,5.87-.51,2.04-1.68,3.85-2.84,5.62-1.58-4.9-6.07-8.74-11.21-9.58-.45,2.39,1.13,4.64,2.81,6.38,1.68,1.74,3.64,3.44,4.22,5.79.53,2.12-.21,4.41-1.47,6.23-1.26,1.82-3,3.26-4.72,4.67l-1.85.29c-4.64-.65-9.18-1.97-13.42-3.92,1.2-3.41,2.18-6.89,2.93-10.42.23-1.05.43-2.17.08-3.18-.35-1.01-1.46-1.84-2.5-1.51-.89.29-1.36,1.25-1.67,2.12-1.5,4.19-1.99,8.73-1.4,13.11-2.64-.23-5.1-1.86-6.3-4.19-1.2-2.32-1.12-5.26.22-7.55.86-1.46,2.15-2.61,3.32-3.85,1.17-1.23,2.27-2.64,2.57-4.3.3-1.65-.44-3.59-2.03-4.15-2.12-.75-4.27,1.16-5.48,3.07-2.51,3.98-3.58,8.8-2.99,13.42-3.17-2.2-5.12-6.01-5.06-9.86.07-3.85,2.16-7.64,5.41-9.82,1.02-.68,2.18-1.24,2.88-2.24.7-1,.67-2.64-.43-3.15-.58-.27-1.27-.16-1.9.01Z"/>
        <path class="st7" d="M276.4,300.79c-1.37-14.06-7.01-27.68-15.98-38.6"/>
        <g class="st10">
          <path class="st7" d="M252.47,271.57c-4.74,1.26-8.71,5.15-10.02,9.83-1.72-3.42-3.46-6.92-3.92-10.72-.46-3.8.61-8.03,3.65-10.45,2.66-2.12,6.4-2.51,9.7-1.76s6.26,2.48,9.1,4.29c.77-5.44,2.47-10.05,6.64-12.26,4.17-2.21,8.14-1.85,12.18.49,4.04,2.34,7.07,6.02,9.8,9.77-4.63-.74-9.45-.35-13.92,1.11-.94.31-1.99.79-2.25,1.73-.42,1.54,1.59,2.62,3.2,2.56,3.52-.15,6.73-2.7,10.24-2.39,2.99.26,5.41,2.64,6.58,5.36,1.17,2.72,1.32,5.75,1.45,8.72-4.06-2.93-8.98-4.69-14.03-5.03-.98-.06-2.18.05-2.6.93-.47.99.45,2.04,1.33,2.69,2.33,1.73,4.94,3.08,7.71,3.99,1.69.56,3.52,1,4.76,2.26,1.47,1.49,1.75,3.83,1.24,5.87-.51,2.04-1.68,3.85-2.84,5.62-1.58-4.9-6.07-8.74-11.21-9.58-.45,2.39,1.13,4.64,2.81,6.38,1.68,1.74,3.64,3.44,4.22,5.79.53,2.12-.21,4.41-1.47,6.23-1.26,1.82-3,3.26-4.72,4.67l-1.85.29c-4.64-.65-9.18-1.97-13.42-3.92,1.2-3.41,2.18-6.89,2.93-10.42.23-1.05.43-2.17.08-3.18-.35-1.01-1.46-1.84-2.5-1.51-.89.29-1.36,1.25-1.67,2.12-1.5,4.19-1.99,8.73-1.4,13.11-2.64-.23-5.1-1.86-6.3-4.19-1.2-2.32-1.12-5.26.22-7.55.86-1.46,2.15-2.61,3.32-3.85,1.17-1.23,2.27-2.64,2.57-4.3.3-1.65-.44-3.59-2.03-4.15-2.12-.75-4.27,1.16-5.48,3.07-2.51,3.98-3.58,8.8-2.99,13.42-3.17-2.2-5.12-6.01-5.06-9.86.07-3.85,2.16-7.64,5.41-9.82,1.02-.68,2.18-1.24,2.88-2.24.7-1,.67-2.64-.43-3.15-.58-.27-1.27-.16-1.9.01Z"/>
        </g>
        <g class="st18">
          <path class="st7" d="M278.23,304.2c-3.01-.46-5.95-1.22-8.78-2.27.76-2.48,1.42-5,1.96-7.53.32-1.51.61-3.28-.05-5.19-.84-2.4-3.11-4.08-5.54-4.08-.04,0-.07,0-.11,0,.01-.06.02-.12.04-.18.66-3.62-1.26-7.2-4.46-8.33-.71-.25-1.46-.38-2.21-.38-.29,0-.59.02-.88.06.79-1.41,1.02-3.11.61-4.66-.41-1.54-1.44-2.8-2.84-3.46-.73-.34-1.53-.52-2.38-.52s-1.58.17-2.06.3c-3.31.88-6.3,2.76-8.6,5.25-.32-.99-.56-1.99-.68-2.99-.35-2.93.54-5.71,2.27-7.09,1.35-1.07,3.08-1.3,4.29-1.3.75,0,1.51.09,2.27.26,2.78.63,5.44,2.22,7.92,3.8l4.88,3.1.81-5.72c.74-5.23,2.19-8.16,4.7-9.49,1.32-.7,2.58-1.04,3.83-1.04,1.49,0,3.04.48,4.74,1.46,1.25.73,2.41,1.63,3.49,2.64-2.35.25-4.66.74-6.91,1.48-2.55.84-4.13,2.28-4.68,4.28-.44,1.59-.11,3.27.91,4.61,1.25,1.65,3.45,2.67,5.74,2.67.1,0,.2,0,.3,0,.1,0,.2,0,.3-.02-1.28.71-1.91,1.72-2.17,2.28-.93,1.95-.76,4.88,2.48,7.28.68.51,1.39.99,2.11,1.43l-3.21-.53-.68,3.57c-.61,3.18.67,6.44,3.79,9.67.24.25.48.49.72.74,1.18,1.2,2.3,2.33,2.56,3.36.21.86-.14,2.09-.92,3.21-.81,1.17-1.97,2.21-3.24,3.27l-.28.04ZM289.77,286.07c-.5-.51-1.03-.99-1.59-1.43.54.2,1,.42,1.24.67.17.17.28.44.35.77ZM290.23,271.11c-2.9-1.12-5.97-1.8-9.11-2.01-.1,0-.2-.01-.3-.02.63-.21,1.24-.43,1.82-.65,1.35-.5,2.62-.97,3.63-.97.09,0,.18,0,.27.01,1.54.14,2.86,1.67,3.49,3.12.07.17.14.34.2.51Z"/>
        </g>
      </g>
      <g>
        <path class="st16" d="M141.35,313.92c3.92,2.96,6.12,8.05,5.58,12.88,2.88-2.52,5.81-5.1,7.67-8.45,1.86-3.35,2.47-7.66.56-11.06-1.67-2.97-4.98-4.74-8.32-5.29-3.34-.56-6.74-.06-10.04.54,1.34-5.33,1.5-10.24-1.53-13.86-3.03-3.62-6.84-4.78-11.46-4.14-4.62.64-8.82,2.91-12.76,5.36,4.56,1.06,8.88,3.24,12.48,6.28.75.64,1.54,1.48,1.43,2.45-.19,1.59-2.46,1.83-3.93,1.16-3.21-1.46-5.22-5.04-8.58-6.08-2.87-.88-6.01.41-8.12,2.48s-3.39,4.83-4.63,7.53c4.87-1.18,10.09-.96,14.89.63.93.31,2,.87,2.06,1.84.06,1.1-1.19,1.72-2.25,1.99-2.81.72-5.74.99-8.65.79-1.78-.12-3.64-.4-5.26.3-1.92.83-3.06,2.89-3.36,4.97-.3,2.08.11,4.2.51,6.27,3.31-3.94,8.91-5.8,14-4.65-.48,2.38-2.79,3.87-5.01,4.86-2.21.98-4.67,1.82-6.09,3.77-1.29,1.77-1.47,4.17-.99,6.33.48,2.16,1.55,4.15,2.61,6.1l1.6.97c4.55,1.15,9.25,1.63,13.91,1.43.18-3.61.58-7.21,1.21-10.76.19-1.06.42-2.17,1.13-2.98s2.05-1.15,2.88-.45c.72.6.79,1.67.75,2.6-.19,4.45-1.45,8.83-3.65,12.67,2.53.78,5.42.19,7.41-1.5,1.99-1.7,3.02-4.45,2.64-7.07-.24-1.68-1-3.23-1.62-4.81-.62-1.58-1.11-3.3-.76-4.95.34-1.65,1.76-3.15,3.45-3.08,2.25.11,3.52,2.68,3.92,4.91.82,4.63,0,9.51-2.28,13.56,3.77-.84,7.01-3.63,8.4-7.23s.88-7.89-1.31-11.13c-.69-1.02-1.55-1.97-1.82-3.16-.27-1.19.37-2.69,1.58-2.76.64-.03,1.24.34,1.76.73Z"/>
        <path class="st14" d="M108.18,331.96c6.58-12.51,16.93-23,29.35-29.73"/>
        <path class="st7" d="M141.35,313.92c3.92,2.96,6.12,8.05,5.58,12.88,2.88-2.52,5.81-5.1,7.67-8.45,1.86-3.35,2.47-7.66.56-11.06-1.67-2.97-4.98-4.74-8.32-5.29-3.34-.56-6.74-.06-10.04.54,1.34-5.33,1.5-10.24-1.53-13.86-3.03-3.62-6.84-4.78-11.46-4.14-4.62.64-8.82,2.91-12.76,5.36,4.56,1.06,8.88,3.24,12.48,6.28.75.64,1.54,1.48,1.43,2.45-.19,1.59-2.46,1.83-3.93,1.16-3.21-1.46-5.22-5.04-8.58-6.08-2.87-.88-6.01.41-8.12,2.48s-3.39,4.83-4.63,7.53c4.87-1.18,10.09-.96,14.89.63.93.31,2,.87,2.06,1.84.06,1.1-1.19,1.72-2.25,1.99-2.81.72-5.74.99-8.65.79-1.78-.12-3.64-.4-5.26.3-1.92.83-3.06,2.89-3.36,4.97-.3,2.08.11,4.2.51,6.27,3.31-3.94,8.91-5.8,14-4.65-.48,2.38-2.79,3.87-5.01,4.86-2.21.98-4.67,1.82-6.09,3.77-1.29,1.77-1.47,4.17-.99,6.33.48,2.16,1.55,4.15,2.61,6.1l1.6.97c4.55,1.15,9.25,1.63,13.91,1.43.18-3.61.58-7.21,1.21-10.76.19-1.06.42-2.17,1.13-2.98s2.05-1.15,2.88-.45c.72.6.79,1.67.75,2.6-.19,4.45-1.45,8.83-3.65,12.67,2.53.78,5.42.19,7.41-1.5,1.99-1.7,3.02-4.45,2.64-7.07-.24-1.68-1-3.23-1.62-4.81-.62-1.58-1.11-3.3-.76-4.95.34-1.65,1.76-3.15,3.45-3.08,2.25.11,3.52,2.68,3.92,4.91.82,4.63,0,9.51-2.28,13.56,3.77-.84,7.01-3.63,8.4-7.23s.88-7.89-1.31-11.13c-.69-1.02-1.55-1.97-1.82-3.16-.27-1.19.37-2.69,1.58-2.76.64-.03,1.24.34,1.76.73Z"/>
        <path class="st7" d="M113.03,334.31c-2.41-.14-4.81-.49-7.17-1.03-.64-1.23-1.19-2.41-1.44-3.52-.25-1.1-.1-1.96.15-2.29.42-.58,1.85-1.19,3.11-1.73.32-.14.65-.28.97-.42,4.51-2,7.16-4.83,7.88-8.44l.9-4.47c2.75-1.29,4.36-3.7,4.2-6.48-.01-.23-.04-.52-.11-.85.38.05.77.07,1.16.07,3.85,0,6.82-2.44,7.24-5.92.3-2.52-.77-4.83-3.16-6.85-1.13-.95-2.31-1.83-3.55-2.63.43-.1.86-.18,1.28-.24.58-.08,1.13-.12,1.64-.12,2.24,0,3.83.75,5.31,2.51.95,1.14,2.04,3.35.52,9.43l-1.89,7.52,7.63-1.38c2.32-.42,4.24-.7,6.07-.7.82,0,1.56.06,2.26.17,2.18.36,4.01,1.44,4.78,2.81.87,1.55.65,3.98-.57,6.18-.11.21-.23.41-.36.61-1.31-2.57-3.18-4.85-5.5-6.61-.57-.43-2.31-1.74-4.69-1.74h-.36c-1.91.11-3.69,1.07-4.88,2.65-.75,1-1.23,2.19-1.42,3.43-.54-.15-1.11-.23-1.69-.26-.12,0-.24,0-.36,0-3.52,0-6.68,2.42-7.89,5.9-.42-.08-.85-.12-1.29-.12-2.08,0-4.16.94-5.55,2.52-1.68,1.91-2.08,4.19-2.3,5.41-.39,2.18-.69,4.39-.92,6.6Z"/>
      </g>
      <path class="st10" d="M131.27,285.49s-2.56,13.54,4.54,24.83l1.73,2.25s5.47-5.91,7.85-8.15,3.11-2.19,3.11-2.19c0,0-3.59-.99-7.9,0,0,0-3.18-14.38-9.32-16.74Z"/>
      <path class="st14" d="M203.61,208.64c-8.89,14.9-14.81,31.57-17.3,48.74"/>
      <path class="st14" d="M185.77,342.79c-.91,8.07,1.3,25.34,1.3,31.02"/>
      <path class="st14" d="M194.82,372c2.68-10.9,5.44-21.99,11.17-31.64,5.73-9.66,14.98-17.85,26.08-19.55,6.49-.99,14.04.84,17.37,6.49"/>
      <path class="st14" d="M143.68,231.83c9.12-1.01,18.64,2.48,24.95,9.14,6.31,6.67,9.27,16.35,7.77,25.41"/>
      <path class="st7" d="M194.37,193.83c-6.43-3.22-10.9-10.03-11.31-17.21-3.55,4.46-7.16,9.03-9.02,14.42-1.86,5.39-1.66,11.84,1.95,16.25,3.16,3.86,8.42,5.51,13.4,5.4s9.79-1.78,14.45-3.57c-.61,8.12.38,15.32,5.69,19.75,5.3,4.43,11.13,5.06,17.68,2.85,6.55-2.21,12.07-6.68,17.19-11.33-6.89-.28-13.7-2.25-19.68-5.69-1.26-.72-2.61-1.73-2.69-3.17-.12-2.36,3.12-3.35,5.42-2.78,5.02,1.24,8.84,5.9,13.97,6.47,4.38.49,8.62-2.25,11.17-5.86,2.54-3.61,3.71-7.97,4.84-12.24-6.77,3.07-14.41,4.19-21.77,3.2-1.42-.19-3.12-.71-3.45-2.11-.37-1.58,1.3-2.83,2.76-3.52,3.9-1.82,8.08-3.03,12.35-3.54,2.61-.32,5.39-.43,7.57-1.89,2.58-1.73,3.72-5.05,3.64-8.16-.08-3.11-1.2-6.08-2.31-8.99-3.82,6.66-11.49,10.91-19.16,10.63.1-3.6,3.09-6.41,6.05-8.45,2.97-2.04,6.32-3.94,7.9-7.18,1.43-2.93,1.09-6.47-.15-9.48-1.24-3.01-3.29-5.61-5.32-8.16l-2.57-.97c-6.89-.42-13.83.18-20.55,1.77.65,5.3.96,10.65.93,15.99,0,1.6-.07,3.28-.9,4.64-.83,1.37-2.68,2.24-4.07,1.46-1.2-.68-1.56-2.21-1.73-3.57-.84-6.53-.1-13.25,2.13-19.44-3.87-.43-7.92,1.22-10.39,4.24-2.47,3.02-3.27,7.32-2.07,11.03.77,2.37,2.27,4.42,3.56,6.56,1.29,2.13,2.43,4.5,2.34,6.99-.09,2.49-1.77,5.08-4.24,5.43-3.29.47-5.78-2.93-6.91-6.06-2.35-6.51-2.38-13.84-.07-20.36-5.26,2.27-9.27,7.22-10.39,12.84-1.12,5.62.69,11.73,4.68,15.84,1.25,1.29,2.74,2.44,3.43,4.1.7,1.66.13,4.02-1.61,4.45-.92.23-1.88-.15-2.73-.57Z"/>
      <path class="st7" d="M220.27,229.24c-3.04,0-5.78-1.05-8.37-3.22-3.6-3.01-4.99-8.29-4.36-16.61l.44-5.87-5.49,2.11c-4.22,1.62-8.72,3.22-13.2,3.32h-.39c-4.21,0-7.97-1.51-10.04-4.04-2.95-3.6-2.61-8.9-1.31-12.67.87-2.52,2.22-4.9,3.78-7.19,2.27,5.16,6.29,9.55,11.37,12.09.96.48,2.27,1.04,3.82,1.04.5,0,.99-.06,1.47-.18,1.72-.42,3.13-1.57,3.96-3.23.95-1.89,1.03-4.3.2-6.29-.84-2-2.27-3.38-3.43-4.49-.26-.25-.52-.5-.77-.76-3.12-3.21-4.57-8.12-3.7-12.52.25-1.25.69-2.47,1.29-3.62-.02,3.96.66,7.92,2.01,11.68,1.49,4.14,4.86,8.57,9.81,8.57.38,0,.76-.03,1.13-.08,4.08-.58,7.27-4.44,7.43-8.98.04-1.17-.1-2.29-.36-3.35.29.24.61.47.96.67.9.51,1.93.78,2.98.78,2.41,0,4.8-1.39,6.11-3.55,1.41-2.34,1.43-4.98,1.43-6.55.02-4.35-.18-8.73-.59-13.06,4.03-.74,8.13-1.12,12.23-1.12,1.15,0,2.32.03,3.47.09l1.07.4c1.63,2.07,3.22,4.2,4.15,6.45.97,2.36,1.06,4.76.24,6.43-.92,1.9-3.1,3.35-5.4,4.89-.42.28-.84.56-1.26.85-5.04,3.46-7.55,7.2-7.67,11.42l-.1,3.69,3.69.13c.28.01.56.01.84.01,6.24,0,12.34-2.47,16.92-6.62.07.45.11.9.12,1.34.06,2.17-.72,4.12-1.99,4.97-1.12.75-2.92.95-4.82,1.16-.38.04-.75.08-1.12.13-4.68.57-9.22,1.87-13.48,3.87-3.73,1.75-5.53,4.64-4.81,7.73.36,1.57,1.7,4.31,6.58,4.96,1.9.26,3.83.39,5.76.38,3.63,0,7.28-.46,10.8-1.35-.59,1.5-1.29,2.91-2.18,4.17-1.86,2.63-4.64,4.34-7.1,4.34-.2,0-.41-.01-.61-.03-1.93-.22-3.91-1.46-6.01-2.78-2.16-1.36-4.6-2.89-7.49-3.61-.71-.18-1.47-.27-2.24-.27-2.46,0-4.69.87-6.14,2.39-1.15,1.22-1.74,2.8-1.65,4.46.2,3.7,3.47,5.59,4.55,6.21,3.97,2.28,8.27,3.97,12.72,5-2.97,2.21-6.13,4.1-9.55,5.26-2.05.69-3.98,1.04-5.72,1.04ZM212.91,169.01c-.24-.39-.49-.79-.74-1.18-.95-1.51-1.86-2.93-2.32-4.35-.82-2.52-.26-5.47,1.41-7.52.63-.77,1.42-1.41,2.3-1.9-1.04,4.9-1.27,9.98-.66,14.95Z"/>
      <path class="st7" d="M220.27,224.24c-1.87,0-3.46-.64-5.16-2.06-2.22-1.86-3.07-5.92-2.58-12.4l1.03-13.74-8.67,3.34c.59-.7,1.11-1.47,1.54-2.33.73-1.46,1.16-3.05,1.27-4.68.5-.01,1.01-.05,1.5-.12,5.53-.78,10.03-5.25,11.35-10.89,3.8-.34,7.32-2.54,9.36-5.91,2.13-3.52,2.15-7.3,2.16-9.11.01-2.93-.07-5.88-.24-8.83,2.29-.25,4.59-.38,6.88-.38.57,0,1.14,0,1.72.02.96,1.29,1.84,2.59,2.34,3.82.54,1.33.43,2.19.37,2.35-.33.67-2.34,2.01-3.68,2.91-.46.31-.89.59-1.31.88-6.37,4.37-9.67,9.55-9.84,15.4l-.17,6.18c-3.71,2.9-5.43,7.09-4.49,11.39-2.88.47-5.48,1.78-7.34,3.76-2.11,2.22-3.18,5.12-3.02,8.17.15,2.93,1.5,7.08,7.05,10.27.95.54,1.91,1.06,2.89,1.54-1.08.28-2.07.43-2.96.43ZM188.84,203.97c-2.59,0-5.01-.87-6.11-2.21-1.31-1.59-1.36-4.31-.8-6.66,2.42,2.69,5.31,4.91,8.53,6.53,1.01.51,2.45,1.14,4.21,1.42-1.87.52-3.72.87-5.49.92h-.34Z"/>
      <path class="st10" d="M267.99,292.39s5.3-.46,11.22,3.52c5.92,3.98,5.62,7.09,5.62,7.09,0,0-10.49.27-13.36,3.51l-4.8-1.67-.82-7.05,2.14-5.4Z"/>
      <path class="st7" d="M263.93,313.1c2.24-6.87,8.9-11.89,16.84-12.69-5.74-3.47-11.62-7-18.04-8.66-6.42-1.66-13.59-1.12-17.75,2.88-3.64,3.5-4.38,9.06-3.19,14.26,1.19,5.19,4.07,10.12,7.06,14.88-9.21-.21-17.05,1.2-20.88,6.96-3.83,5.76-3.3,11.87.57,18.58,3.86,6.71,10.03,12.24,16.32,17.33-1.15-7.2-.39-14.41,2.18-20.82.54-1.35,1.38-2.81,2.98-2.97,2.61-.25,4.4,3.08,4.26,5.5-.32,5.3-4.72,9.52-4.27,14.91.38,4.6,4.35,8.88,8.92,11.34,4.57,2.46,9.7,3.46,14.71,4.41-4.87-6.9-7.75-14.8-8.2-22.54-.09-1.5.13-3.29,1.63-3.7,1.69-.46,3.44,1.21,4.52,2.7,2.87,3.97,5.1,8.27,6.59,12.7.91,2.7,1.62,5.59,3.72,7.79,2.49,2.6,6.44,3.62,9.9,3.37s6.55-1.57,9.56-2.87c-8.26-3.64-14.64-11.41-15.96-19.43,4.05-.08,7.83,2.88,10.74,5.87,2.91,2.99,5.75,6.38,9.7,7.86,3.58,1.34,7.46.8,10.57-.65,3.11-1.45,5.57-3.72,7.99-5.97l.54-2.73c-1-7.2-3.14-14.42-6.34-21.34-5.79.95-11.71,1.55-17.69,1.8-1.79.07-3.68.1-5.38-.69-1.7-.79-3.08-2.68-2.49-4.17.5-1.28,2.14-1.74,3.63-1.99,7.12-1.22,14.8-.8,22.2,1.21-.34-4.06-3.04-8.2-6.95-10.61s-8.88-3.03-12.77-1.58c-2.49.93-4.47,2.59-6.58,4.05-2.11,1.46-4.52,2.77-7.32,2.8-2.81.04-6.05-1.58-6.97-4.14-1.22-3.41,2.05-6.18,5.31-7.52,6.78-2.79,14.97-3.2,22.76-1.13-3.65-5.37-10.05-9.29-16.57-10.16-6.52-.87-12.97,1.33-16.72,5.7-1.17,1.37-2.15,2.98-3.86,3.8-1.7.81-4.47.35-5.32-1.45-.45-.95-.24-1.97.06-2.88Z"/>
      <g class="st18">
        <path class="st7" d="M290.78,375.63c-2.52,0-4.83-.84-6.18-2.25-1.22-1.28-1.82-3.12-2.5-5.24-.13-.39-.25-.78-.38-1.16-1.61-4.8-4-9.41-7.1-13.69-1.17-1.61-3.62-4.32-6.95-4.32-.53,0-1.06.07-1.57.21-1.11.3-4.7,1.75-4.36,7.51.34,5.71,1.84,11.4,4.39,16.81-1.89-.56-3.72-1.26-5.42-2.18-3.93-2.12-6.74-5.48-6.98-8.37-.16-1.94.74-3.92,1.79-6.22,1.08-2.36,2.3-5.03,2.49-8.16.15-2.51-.87-5.32-2.6-7.16-1.4-1.49-3.21-2.31-5.1-2.31-.21,0-.42,0-.64.03-2.73.26-4.77,2.04-6.08,5.29-1.73,4.31-2.71,8.94-2.93,13.69-3.49-3.25-6.65-6.77-8.89-10.67-3.35-5.82-3.56-10.34-.69-14.66,2.41-3.63,7.52-5.32,16.07-5.32.53,0,1.07,0,1.62.02l6.92.16-3.68-5.86c-2.74-4.36-5.5-9.01-6.58-13.73-1.02-4.46-.22-8.47,2.14-10.74,1.83-1.75,4.83-2.72,8.45-2.72,1.86,0,3.87.26,5.8.76,3.31.86,6.52,2.29,9.66,3.96-5.25,2.68-9.28,7.15-11.07,12.64-.45,1.37-.92,3.44.11,5.63,1.16,2.45,3.78,3.97,6.85,3.97,1.22,0,2.41-.26,3.44-.75,2.11-1,3.38-2.61,4.41-3.9.22-.28.44-.56.67-.83,2.46-2.87,6.6-4.59,11.07-4.59.77,0,1.56.05,2.33.16,1.77.24,3.55.75,5.24,1.49-4.35.21-8.59,1.12-12.35,2.67-6.14,2.53-9.12,7.44-7.4,12.23,1.56,4.34,6.4,6.6,10.38,6.6h.14c2.45-.03,4.59-.75,6.4-1.66-.87.62-1.66,1.49-2.13,2.7-1.42,3.64,1.12,7.38,4.4,8.91,2.07.96,4.18,1.07,5.58,1.07.51,0,1.02-.02,1.53-.04,5.13-.21,10.26-.69,15.28-1.41,2.35,5.61,3.97,11.35,4.82,17.12l-.18.91c-1.91,1.75-3.9,3.46-6.15,4.51-1.49.7-3.1,1.07-4.65,1.07-1.07,0-2.1-.18-3.04-.53-2.62-.98-4.81-3.28-7.13-5.71-.4-.42-.8-.84-1.21-1.26-4.59-4.71-8.92-7-13.24-7l-4.54.09.7,4.24c1.11,6.77,5.17,13.22,10.94,17.85-.38.06-.75.1-1.13.13-.25.02-.5.03-.76.03ZM293.16,332.14c.54-.33,1.05-.66,1.52-.99.47-.33.94-.66,1.4-1,1.47-1.07,2.87-2.07,4.35-2.63.96-.36,2.04-.54,3.21-.54,2.19,0,4.42.64,6.3,1.8,1.04.64,1.98,1.46,2.76,2.39-2.62-.37-5.25-.56-7.87-.56-2.99,0-5.95.25-8.81.73-.58.1-1.69.29-2.86.79Z"/>
      </g>
      <path class="st7" d="M310.18,362.79c-.47,0-.91-.07-1.29-.22-1.54-.57-3.34-2.47-5.25-4.47-.42-.44-.83-.87-1.25-1.3-5.58-5.73-11.08-8.51-16.82-8.51l-8.46.17c-2.73-2.92-6.02-4.5-9.45-4.5-.98,0-1.96.13-2.9.39-.68.19-1.38.46-2.06.82-.55-2.67-1.84-5.24-3.67-7.18-2.36-2.5-5.46-3.88-8.74-3.88-.37,0-.75.02-1.13.06-2.65.26-7.52,1.69-10.22,8.4-.58,1.46-1.09,2.94-1.53,4.46-.48-.7-.92-1.38-1.32-2.07-3.05-5.29-2.1-7.54-.86-9.4,1.34-2.02,5.46-3.09,11.91-3.09.5,0,1,0,1.5.02l16.22.37-5.75-9.16c2.21,1.81,5.1,2.84,8.25,2.84.66,0,1.32-.05,1.97-.14.1,1.1.34,2.2.73,3.3,2.32,6.47,8.84,9.6,14.25,9.89.72,4.17,3.82,7.78,7.54,9.51,3.31,1.54,6.6,1.54,7.68,1.54.58,0,1.16-.02,1.73-.04,3.96-.17,7.92-.48,11.83-.94,1.23,3.44,2.16,6.92,2.79,10.4-1.03.86-2.11,1.65-3.17,2.14-.84.39-1.72.6-2.54.6ZM255.19,317.45c-2.14-3.49-4.12-7.11-4.9-10.51-.69-3.01-.13-5.19.73-6.02.67-.64,2.33-1.33,4.98-1.33,1.44,0,3.02.21,4.55.6.34.09.69.19,1.04.29-2.7,2.83-4.73,6.19-5.95,9.91-.81,2.49-.96,4.86-.44,7.05Z"/>
      <path class="st7" d="M138.06,249.72c1.94,6.92,0,14.81-4.93,19.95,5.58-.38,11.29-.79,16.43-3.04,5.13-2.25,9.67-6.74,10.46-12.38.69-4.93-1.6-9.93-5-13.54-3.4-3.61-7.79-6.04-12.18-8.27,6.28-5.02,10.82-10.6,10.51-17.5-.32-6.9-3.73-11.63-9.68-14.98-5.95-3.35-12.85-4.43-19.61-5.07,4.37,5.28,7.48,11.64,8.97,18.38.31,1.41.49,3.09-.51,4.12-1.62,1.68-4.49-.05-5.61-2.13-2.44-4.55-1.61-10.5-4.61-14.68-2.56-3.57-7.36-4.86-11.66-4.31-4.3.55-8.23,2.63-12.07,4.67,6.72,2.94,12.6,7.82,16.78,13.93.81,1.18,1.56,2.79.76,3.97-.9,1.33-2.91.95-4.38.33-3.91-1.65-7.56-3.93-10.77-6.74-1.96-1.71-3.89-3.69-6.4-4.32-2.97-.74-6.13.65-8.32,2.81-2.19,2.16-3.6,4.99-4.97,7.76,7.35-1.66,15.53,1.14,20.42,7-2.67,2.35-6.69,2.04-10.14,1.22-3.45-.82-7.05-2.02-10.44-1-3.07.92-5.4,3.55-6.76,6.49-1.36,2.94-1.87,6.21-2.37,9.42l1,2.55c4.28,5.37,9.33,10.1,14.93,13.99,3.41-4.05,7.07-7.88,10.95-11.46,1.16-1.07,2.42-2.15,3.95-2.46,1.54-.31,3.4.47,3.76,2.03.31,1.34-.56,2.64-1.43,3.69-4.16,5.02-9.52,9-15.48,11.52,2.26,3.16,6.14,5.03,9.97,4.82,3.82-.21,7.47-2.51,9.35-5.9,1.2-2.17,1.69-4.65,2.38-7.05.68-2.39,1.64-4.82,3.5-6.44,1.86-1.61,4.85-2.11,6.74-.53,2.53,2.12,1.72,6.25.21,9.19-3.15,6.12-8.43,11.07-14.68,13.76,5.13,2.36,11.38,1.99,16.19-.97s8.03-8.41,8.35-14.12c.1-1.79-.05-3.67.68-5.3.74-1.63,2.82-2.81,4.29-1.81.78.53,1.14,1.49,1.4,2.41Z"/>
      <g class="st10">
        <path d="M138.61,252.34s3.5-12.55,14.21-13.7c0,0,2.46,2.2,2.76,2.69.3.49-17.12,18.03-17.12,18.03,0,0,.52-2.45.15-7.03Z"/>
      </g>
      <path class="st7" d="M118,266.84c2.89-2.66,5.32-5.83,7.14-9.38,2.79-5.43,2.35-10.83-1.13-13.75-1.43-1.2-3.23-1.84-5.21-1.84-2.28,0-4.61.88-6.37,2.4-.82.71-1.5,1.5-2.07,2.34-.02-.33-.07-.66-.14-1-.67-2.94-3.43-4.99-6.71-4.99-.48,0-.96.05-1.42.14-2.66.53-4.59,2.31-5.74,3.38-3.14,2.89-6.15,5.96-9,9.16-4.1-3.16-7.83-6.8-11.1-10.85l-.43-1.08c.41-2.6.89-5.22,1.91-7.44,1.05-2.29,2.72-3.97,4.44-4.48.52-.16,1.1-.23,1.75-.23,1.6,0,3.4.45,5.31.93.49.12.97.24,1.45.36,2,.48,3.77.71,5.42.71,3.26,0,5.97-.93,8.04-2.75l2.73-2.4-2.33-2.79c-4.11-4.91-10.19-8.06-16.62-8.69.29-.36.59-.71.92-1.02,1.22-1.2,2.77-1.94,4.05-1.94.26,0,.52.03.75.09,1.27.32,2.6,1.51,4.01,2.77.28.25.56.5.84.74,3.52,3.08,7.49,5.56,11.77,7.37.93.39,2.37.86,3.89.86,2.14,0,3.92-.9,5.03-2.54.89-1.32,1.97-4.13-.77-8.15-3.16-4.63-7.15-8.56-11.74-11.62,1.46-.56,2.94-.99,4.42-1.18.48-.06.96-.09,1.45-.09,2.91,0,5.42,1.07,6.71,2.87,1.13,1.58,1.55,3.89,1.99,6.33.45,2.5.96,5.34,2.36,7.95,1.23,2.3,4.04,4.77,7.29,4.77,1.63,0,3.15-.64,4.28-1.81,2.55-2.64,1.73-6.31,1.47-7.52-.98-4.46-2.62-8.76-4.82-12.74,3.52.7,6.94,1.76,10.01,3.49,5.14,2.89,7.54,6.57,7.79,11.91.22,4.76-2.59,9.21-9.11,14.42l-4.51,3.61,5.15,2.62c3.97,2.02,8.11,4.27,11.16,7.51,2.99,3.18,4.49,7.09,4.02,10.47-.64,4.6-4.69,7.92-8.26,9.48-2.37,1.04-4.96,1.64-7.62,2.03,2.23-5.15,2.74-11.07,1.2-16.53-.37-1.33-1.08-3.25-2.89-4.48-.97-.66-2.12-1.01-3.31-1.01-2.65,0-5.31,1.8-6.47,4.37-.88,1.96-.93,3.94-.97,5.54,0,.36-.02.72-.04,1.08-.25,4.47-2.83,8.85-6.58,11.16-1.05.64-2.19,1.14-3.39,1.47ZM99.06,262.75c-.84,0-1.69-.15-2.5-.44,4.17-2.49,7.95-5.68,11.11-9.4-.11.39-.21.79-.32,1.19-.46,1.73-.89,3.35-1.61,4.65-1.27,2.28-3.74,3.84-6.3,3.99-.13,0-.26.01-.38.01Z"/>
      <path class="st7" d="M147.41,257.93c.32-3.55.01-7.14-.95-10.57-.19-.69-.61-2.18-1.59-3.78,1.42.94,2.72,1.96,3.79,3.1,1.9,2.02,2.97,4.51,2.71,6.35-.27,1.95-2.02,3.73-3.96,4.89ZM86.9,246.41c-2.08-1.87-4.03-3.88-5.85-6.01.29-1.61.66-3.16,1.22-4.39.55-1.2,1.2-1.71,1.37-1.79,0,0,0,0,0,0,.02,0,.11-.01.28-.01.98,0,2.48.38,4.08.78.51.13,1.02.25,1.52.37,2.39.57,4.54.84,6.58.84,4.51,0,8.33-1.35,11.34-4l4.49-3.95c.7.12,1.45.19,2.22.19,3.68,0,6.93-1.62,8.98-4.46,2.13,1.65,4.79,2.8,7.75,2.8s5.8-1.19,7.88-3.34c2.02-2.09,4.13-5.87,2.75-12.07-.22-.99-.46-1.97-.74-2.94,2.99,2.07,3.71,4.22,3.84,6.9.09,1.86-.57,4.96-7.24,10.29l-10.57,8.45,8.17,4.16c-2.46.1-4.84,1.02-6.8,2.54-.3-.31-.63-.61-.97-.9-2.35-1.97-5.26-3.01-8.42-3.01-2.45,0-4.92.66-7.09,1.85-2.14-1.95-5.03-3.1-8.2-3.1-.81,0-1.62.08-2.4.24-4.03.81-6.81,3.37-8.14,4.6-2.07,1.91-4.1,3.9-6.07,5.96Z"/>
      <path class="st16" d="M205.59,265.28c9.07-1.48,18.81,2.21,24.61,9.34.33-7.28.65-14.72-1.46-21.7-2.11-6.97-7.15-13.51-14.19-15.36-6.16-1.62-12.85.6-17.92,4.45-5.08,3.85-8.81,9.18-12.29,14.52-5.46-8.87-11.88-15.57-20.69-16.19s-15.32,3.1-20.44,10.29-7.5,15.96-9.31,24.61c7.35-4.87,15.88-7.94,24.65-8.86,1.84-.19,4-.17,5.16,1.27,1.9,2.35-.72,5.8-3.53,6.94-6.13,2.48-13.57.52-19.32,3.77-4.91,2.78-7.24,8.8-7.17,14.44.07,5.64,2.13,11.04,4.16,16.3,4.71-8.25,11.78-15.14,20.15-19.63,1.62-.87,3.77-1.6,5.15-.39,1.56,1.36.78,3.9-.23,5.71-2.67,4.81-6.1,9.19-10.13,12.93-2.46,2.28-5.26,4.48-6.42,7.63-1.38,3.73-.07,8.02,2.35,11.18,2.42,3.16,5.81,5.4,9.13,7.58-1.03-9.76,3.72-19.91,11.87-25.37,2.6,3.8,1.61,8.95.06,13.29-1.55,4.34-3.59,8.81-2.8,13.35.72,4.1,3.72,7.51,7.26,9.71,3.54,2.19,7.61,3.34,11.62,4.46l3.38-.92c7.44-4.73,14.19-10.56,19.95-17.23-4.65-5.01-8.97-10.31-12.95-15.87-1.19-1.66-2.38-3.45-2.55-5.48-.17-2.03,1.1-4.33,3.13-4.56,1.75-.2,3.27,1.12,4.47,2.4,5.76,6.13,10.04,13.65,12.37,21.73,4.34-2.45,7.29-7.2,7.58-12.17.29-4.98-2.1-10.03-6.12-12.97-2.57-1.88-5.66-2.88-8.6-4.12s-5.89-2.84-7.66-5.49c-1.78-2.65-1.98-6.58.32-8.8,3.06-2.95,8.19-1.3,11.7,1.1,7.31,4.98,12.83,12.55,15.34,21.03,3.75-6.29,4.19-14.43,1.13-21.08-3.05-6.65-9.51-11.63-16.72-12.9-2.26-.4-4.67-.48-6.63-1.67-1.96-1.19-3.15-4.07-1.67-5.82.79-.93,2.06-1.26,3.26-1.45Z"/>
      <path class="st7" d="M205.59,265.28c9.07-1.48,18.81,2.21,24.61,9.34.33-7.28.65-14.72-1.46-21.7-2.11-6.97-7.15-13.51-14.19-15.36-6.16-1.62-12.85.6-17.92,4.45-5.08,3.85-8.81,9.18-12.29,14.52-5.46-8.87-11.88-15.57-20.69-16.19s-15.32,3.1-20.44,10.29-7.5,15.96-9.31,24.61c7.35-4.87,15.88-7.94,24.65-8.86,1.84-.19,4-.17,5.16,1.27,1.9,2.35-.72,5.8-3.53,6.94-6.13,2.48-13.57.52-19.32,3.77-4.91,2.78-7.24,8.8-7.17,14.44.07,5.64,2.13,11.04,4.16,16.3,4.71-8.25,11.78-15.14,20.15-19.63,1.62-.87,3.77-1.6,5.15-.39,1.56,1.36.78,3.9-.23,5.71-2.67,4.81-6.1,9.19-10.13,12.93-2.46,2.28-5.26,4.48-6.42,7.63-1.38,3.73-.07,8.02,2.35,11.18,2.42,3.16,5.81,5.4,9.13,7.58-1.03-9.76,3.72-19.91,11.87-25.37,2.6,3.8,1.61,8.95.06,13.29-1.55,4.34-3.59,8.81-2.8,13.35.72,4.1,3.72,7.51,7.26,9.71,3.54,2.19,7.61,3.34,11.62,4.46l3.38-.92c7.44-4.73,14.19-10.56,19.95-17.23-4.65-5.01-8.97-10.31-12.95-15.87-1.19-1.66-2.38-3.45-2.55-5.48-.17-2.03,1.1-4.33,3.13-4.56,1.75-.2,3.27,1.12,4.47,2.4,5.76,6.13,10.04,13.65,12.37,21.73,4.34-2.45,7.29-7.2,7.58-12.17.29-4.98-2.1-10.03-6.12-12.97-2.57-1.88-5.66-2.88-8.6-4.12s-5.89-2.84-7.66-5.49c-1.78-2.65-1.98-6.58.32-8.8,3.06-2.95,8.19-1.3,11.7,1.1,7.31,4.98,12.83,12.55,15.34,21.03,3.75-6.29,4.19-14.43,1.13-21.08-3.05-6.65-9.51-11.63-16.72-12.9-2.26-.4-4.67-.48-6.63-1.67-1.96-1.19-3.15-4.07-1.67-5.82.79-.93,2.06-1.26,3.26-1.45Z"/>
      <path class="st7" d="M185.88,345.68c-3.4-.96-6.83-2.01-9.67-3.76-3.06-1.89-5.09-4.51-5.55-7.18-.51-2.93.7-6.19,1.98-9.65.22-.61.45-1.21.66-1.81,2.51-7.03,2.34-12.48-.5-16.64l-2.08-3.05-3.07,2.06c-7.16,4.8-12.03,12.84-13.32,21.36-.99-.85-1.89-1.75-2.65-2.74-1.9-2.48-2.61-5.47-1.81-7.63.69-1.86,2.49-3.49,4.4-5.22.36-.32.71-.64,1.06-.96,4.34-4.02,7.99-8.68,10.86-13.86,2.3-4.15,2.08-8.01-.58-10.33-1.16-1.01-2.64-1.55-4.27-1.55s-3.27.5-5.09,1.47c-6.69,3.59-12.68,8.69-17.37,14.73-.83-2.71-1.42-5.44-1.45-8.16-.06-4.92,2.01-9.3,5.28-11.15,2.37-1.34,5.47-1.54,8.75-1.76,3.33-.22,6.77-.44,10.14-1.8,3.01-1.22,5.53-3.94,6.27-6.77.56-2.16.12-4.27-1.24-5.96-1.47-1.82-3.69-2.74-6.59-2.74-.57,0-1.18.03-1.86.11-6.45.68-12.78,2.44-18.66,5.18,1.51-5.38,3.56-10.6,6.74-15.06,4.27-6,9.21-8.8,15.55-8.8.52,0,1.06.02,1.6.06,6.35.44,12,5.03,17.78,14.43l3.08,5.01,3.21-4.93c3.21-4.92,6.73-10.02,11.42-13.59,3.54-2.69,7.71-4.23,11.44-4.23,1.13,0,2.24.14,3.28.41,6.16,1.63,10.02,7.7,11.58,12.84,1.2,3.97,1.54,8.2,1.55,12.47-4.98-3.35-10.98-5.24-17.11-5.24-1.55,0-3.11.12-4.62.37-1.01.17-3.71.6-5.5,2.72-1.27,1.5-1.78,3.44-1.45,5.47.39,2.38,1.93,4.66,4.03,5.94,2.18,1.33,4.49,1.66,6.52,1.95.47.07.94.13,1.4.21,5.96,1.04,11.45,5.28,13.97,10.78,1.25,2.74,1.79,5.83,1.64,8.88-3.16-5.32-7.46-9.94-12.62-13.46-1.82-1.24-5.49-3.32-9.6-3.32-2.66,0-5.01.91-6.79,2.63-3.43,3.31-3.78,9.14-.82,13.55,2.42,3.61,6.25,5.55,9.31,6.84.65.27,1.3.54,1.96.8,2.18.87,4.24,1.7,5.89,2.9,3.01,2.2,4.82,6.02,4.6,9.74-.12,2.12-.9,4.2-2.15,5.93-2.64-6.58-6.51-12.66-11.37-17.83-1.45-1.54-3.73-3.59-6.84-3.59-.25,0-.51.01-.77.04-4.36.49-6.73,4.83-6.42,8.57.24,2.95,1.73,5.24,3.24,7.34,3.39,4.74,7.07,9.34,10.96,13.71-4.9,5.25-10.42,9.88-16.47,13.77l-1.84.5Z"/>
      <path class="st7" d="M185.81,340.46c-2.6-.76-5.03-1.6-6.97-2.79-2.15-1.33-3.09-2.83-3.26-3.79-.28-1.6.75-4.37,1.74-7.05.23-.63.46-1.25.68-1.86,3.04-8.53,2.68-15.64-1.07-21.14l-4.88-7.15-.53.36c2.33-5.59,1.39-11.02-2.64-14.53-.7-.61-1.46-1.13-2.28-1.54,2.97-2.09,5.23-5.15,6.08-8.43.95-3.68.16-7.45-2.19-10.35-1.7-2.1-4.89-4.6-10.48-4.6-.75,0-1.53.04-2.38.13-3.26.34-6.47.93-9.62,1.77.71-1.37,1.47-2.62,2.3-3.78,3.34-4.69,6.77-6.69,11.48-6.69.41,0,.83.02,1.25.04,2.89.2,7.48,1.67,13.87,12.06l7.22,11.74,7.52-11.55c2.97-4.55,6.2-9.26,10.25-12.33,2.65-2.01,5.8-3.21,8.42-3.21.7,0,1.38.08,2.01.25,4.18,1.1,6.96,5.78,8.07,9.46.26.85.48,1.74.66,2.69-3.69-1.25-7.57-1.91-11.44-1.91-1.82,0-3.65.15-5.43.44-1.37.22-5.53.9-8.51,4.42-2.23,2.63-3.14,6.01-2.57,9.5.41,2.53,1.58,4.91,3.28,6.83-1.19.62-2.28,1.41-3.27,2.37-4.84,4.67-5.7,12.52-2.22,18.75-4.14,2.64-6.26,7.7-5.89,12.22.35,4.22,2.33,7.29,4.16,9.84,2.59,3.61,5.34,7.16,8.23,10.58-3.57,3.43-7.45,6.54-11.58,9.27ZM142.84,289.45c.51-1.73,1.41-2.98,2.31-3.49.78-.44,1.92-.68,3.26-.84-1.93,1.33-3.8,2.78-5.58,4.34Z"/>
      <path class="st14" d="M184.8,255.54c-5.95,13.72-6.49,31.81-6.12,46.75.37,14.95,1.58,26.87,4.1,41.6"/>
      <path class="st14" d="M247.15,322.64c24.86,9.95,47.96,24.3,67.9,42.19"/>
      <path class="st14" d="M202.29,210.7c9.25-18.2,21.54-34.86,36.21-49.07"/>
      <path class="st14" d="M83.42,241.33c18.75-8.74,40.11-11.78,60.55-8.61"/>
      <rect class="st8" x="145.46" y="358.75" width="81.69" height="13.36"/>
      <polygon class="st8" points="151.53 369.66 160.91 420.67 211.7 420.67 220.82 369.66 151.53 369.66"/>
      <polygon class="st10" points="151.99 372.11 220.27 372.11 219.29 378.17 153.1 378.17 151.99 372.11"/>
      <path class="st1" d="M158.37,382.64l7.75,34.1s12.31,1.33,12.47,0c.16-1.33-6.32-34.1-6.32-34.1h-13.89Z"/>
      <path class="st2" d="M174.32,249.7c-12.25-7.58-22.57-3.65-30.35,7.68,2.09-5.89,6.82-11.03,12.96-12.95,6.23-1.54,13.17.56,17.39,5.27h0Z"/>
      <path class="st2" d="M139.21,202.24c6.03.63,10.84,7.3,9.52,13.23-1.66-5.43-4.89-9.94-9.52-13.23h0Z"/>
      <path class="st2" d="M179.31,190.25c-1.21,5.87.84,11.67,5.44,15.51-6.55-1.32-9.72-10.38-5.44-15.51h0Z"/>
      <path class="st2" d="M248.75,295.26c-3.49,5.12-2.94,11.06-1.55,16.68.46,1.91,1,3.84,1.36,5.85-4.45-6.35-7.18-17.28.19-22.53h0Z"/>
    </g>
  </g>
  <rect class="st5" x="2.52" y="1.5" width="600" height="430" rx="20" ry="20"/>
</svg>