<?xml version="1.0" encoding="UTF-8"?>
<svg id="Layer_1" xmlns="http://www.w3.org/2000/svg" xmlns:xlink="http://www.w3.org/1999/xlink" version="1.1" viewBox="0 0 605 433">
  <!-- Generator: Adobe Illustrator 29.2.0, SVG Export Plug-In . SVG Version: 2.1.0 Build 108)  -->
  <defs>
    <style>
      .st0, .st1, .st2, .st3, .st4 {
        fill: none;
      }

      .st1 {
        stroke: #696969;
      }

      .st1, .st2, .st3 {
        stroke-linecap: round;
        stroke-linejoin: round;
      }

      .st5, .st6 {
        fill: #fff;
      }

      .st5, .st4 {
        stroke: #535cd4;
        stroke-miterlimit: 10;
      }

      .st2 {
        stroke: #c3c3c3;
      }

      .st7 {
        fill: #919191;
      }

      .st3 {
        stroke: #5c5c5c;
      }

      .st8 {
        fill: #606060;
      }

      .st9 {
        fill: #757575;
      }

      .st10 {
        font-family: Poppins-Medium, Poppins;
        font-size: 12.11px;
        font-weight: 500;
      }

      .st11 {
        fill: #eaf5fc;
      }

      .st12 {
        fill: #575756;
      }

      .st13 {
        fill: #666;
      }

      .st14 {
        fill: #878787;
      }

      .st15 {
        opacity: .1;
      }

      .st4 {
        stroke-width: 3px;
      }

      .st16 {
        fill: #afafaf;
      }

      .st17 {
        fill: #8c8c8c;
      }

      .st18 {
        fill: #c2c2c2;
      }

      .st19 {
        fill: #1a1a1a;
      }

      .st20 {
        clip-path: url(#clippath);
      }

      .st21 {
        fill: #b2b2b2;
      }
    </style>
    <clipPath id="clippath">
      <rect class="st0" x="2.19" y="1.5" width="600" height="430"/>
    </clipPath>
  </defs>
  <rect class="st5" x="2.81" y="1.5" width="600" height="430" rx="20" ry="20"/>
  <g class="st15">
    <g>
      <g>
        <path class="st7" d="M137.85,346.85c-3.16-26.31-6.31-52.62-9.47-78.92-1.07-8.9-1.65-19.25,4.86-25.42,7.34-6.94,20.21-4.03,26.92,3.51,6.71,7.55,8.75,18.08,9.99,28.1,3.08,24.94,2.87,50.28-.62,75.17-11.35-2.53-23.18-2.96-31.68-2.44Z"/>
        <g>
          <path class="st2" d="M139.85,252.81c-1.85,12.73-.29,25.68,1.26,38.44,2.09,17.21,4.19,34.42,6.28,51.63"/>
          <path class="st2" d="M154.99,255.72c8.19,29.28,12.58,59.62,13.04,90.01"/>
          <path class="st1" d="M131.16,253.39c-2.59-.5-5.18-.99-7.77-1.49"/>
          <path class="st1" d="M130.67,279.17c-1.76.39-3.53.77-5.29,1.16"/>
          <path class="st1" d="M135.3,311.9c-2.42.99-4.85,1.98-7.27,2.97"/>
          <path class="st1" d="M138.27,332.29c-2.37.15-4.73.31-7.1.46"/>
          <path class="st1" d="M145.54,265.13c-2.64-.77-5.29-1.54-7.93-2.31"/>
          <path class="st1" d="M145.87,288.76c-2.09.55-4.19,1.1-6.28,1.65"/>
          <path class="st1" d="M152.12,245.59l5.28-5.46"/>
          <path class="st1" d="M166.86,263.14c2.15-.61,4.3-1.21,6.45-1.82"/>
          <path class="st1" d="M166.7,283.14c2.64-.11,5.29-.22,7.93-.33"/>
          <path class="st1" d="M170.5,308.43h6.61"/>
          <path class="st1" d="M154.63,319.5l9.09-.33"/>
          <path class="st1" d="M148.85,326.28c-2.09-.33-4.19-.66-6.28-.99"/>
        </g>
      </g>
      <path class="st8" d="M121.31,358.87v-19.85h66.5v19.85c0,13.97-11.33,25.3-25.3,25.3h-15.9c-13.98,0-25.3-11.33-25.3-25.3Z"/>
    </g>
    <g>
      <g>
        <g>
          <path class="st18" d="M519.69,331.51c-2.01-13.08.51-26.79,6.57-38.39,2.11-4.04,5.34-7.39,9.27-9.68,15.7-9.12,34.25-13.3,52.33-11.69-13.09,9.14-23.45,22.13-30.75,37.19l-15.7-.41c5.02.73,10.04,1.45,14.33,3.05-9.5,8.56-20.96,14.93-36.05,19.93Z"/>
          <path class="st17" d="M512.33,354.3c3.52-16.41,8.56-32.78,17.83-46.78,9.27-14,23.24-25.48,41.6-28.94-15.95,5.26-29.78,16.25-39.36,30.05-9.58,13.8-15,30.29-16.51,47.01-.95-.91-1.89-1.83-3.56-1.34Z"/>
        </g>
        <g>
          <path class="st18" d="M507.91,315.71c8.36-13.25,13.64-28.43,15.33-44.01-4.88-.43-9.76-.86-14.64-1.29,4.71-.88,9.43-1.76,13.9-2.04-7.12-23.86-23.96-44.65-45.81-56.58,3.87,9.96,6.15,20.53,6.73,31.2,2.58-.89,5.35-1.19,8.05-.89-2.45.56-4.91,1.12-6.85,2.94-.09,17.12,2.77,34.26,9.53,50.67,2.57-.42,5.13-.85,7.7-1.27-2.22,1.33-4.45,2.67-6.67,4,1.91,6.83,6.2,12.98,12.73,17.27Z"/>
          <path class="st17" d="M505.34,358.5c5.47-42.89.4-77.8-10.57-115.22,8.3,17.68,12.46,37.06,14.35,56.49,1.89,19.43,1.55,39.01,1.21,58.53-1.55-.09-3.11-.18-4.99.2Z"/>
        </g>
        <g>
          <path class="st18" d="M489.03,293.27c-3.67,1.69-7.34,3.39-11.01,5.08,2.86-2.42,5.73-4.84,8.42-7.85-11.61-16.47-30.12-27.92-50.04-30.96,3.12,8.21,6.25,16.42,9.37,24.63,1.5-1.71,3.47-3.01,5.64-3.72-1.67,1.94-3.33,3.88-4.64,6.26,5.04,14.4,15.35,26.88,28.54,34.55,2.83-1.84,5.67-3.67,8.5-5.51-1.65,2.04-3.3,4.08-5.59,7.83,7.63,2.52,14.7,4.67,21.74,7.45-.23-2.07-2.1-24.6-10.93-37.76Z"/>
          <path class="st17" d="M507.96,359.81c.35-15.93-6.43-31.37-16-44.11-9.57-12.75-21.83-23.18-34.48-33.37,10.38,9.43,20.84,18.95,29.16,30.24s14.46,24.63,15.01,38.64c.08,2.05.06,4.17.92,6.03.85,1.87,2.92,3.37,5.39,2.57Z"/>
        </g>
      </g>
      <g>
        <g>
          <polygon class="st14" points="477.38 384.17 464.78 351.72 524.28 351.72 524.28 384.17 477.38 384.17"/>
          <polygon class="st14" points="540.26 384.17 552.87 351.72 493.37 351.72 493.37 384.17 540.26 384.17"/>
        </g>
        <path class="st14" d="M461.79,355.13v-6.93c0-1.26,1.02-2.29,2.29-2.29h88.43c1.26,0,2.29,1.02,2.29,2.29v6.93c0,1.26-1.02,2.29-2.29,2.29h-88.44c-1.26-.01-2.28-1.03-2.28-2.29Z"/>
        <line class="st3" x1="468.29" y1="357.41" x2="547.44" y2="357.41"/>
      </g>
    </g>
    <g>
      <g>
        <g>
          <path class="st13" d="M64.09,310.69c-3.36-4.53-5.94-9.64-7.59-15.03-.58-1.9-1.02-4.07-.02-5.78s4.04-2.11,4.78-.27c-.79-2.36-2.18-4.47-3.32-6.68-1.14-2.21-2.08-4.65-1.84-7.13.23-2.48,1.93-4.96,4.38-5.4,2.45-.44,5.17,1.96,4.48,4.36-1.69-4.27-2.91-8.73-3.62-13.26-.35-2.22-.28-5.05,1.75-6.01,2.47-1.18,4.93,1.58,6.29,3.95-1.91-2.82-3.87-5.76-4.41-9.13s.79-7.28,3.91-8.65,7.53,1.37,6.82,4.71c-.47-2.16-1.3-4.23-1.81-6.38s-.69-4.48.14-6.53,2.88-3.72,5.09-3.55,4.08,2.66,3.2,4.69c.43-4.35,3.05-8.42,6.82-10.62,2.3-1.34,5.6-1.82,7.36.17,1.93,2.19.65,5.71-1.29,7.89-1.94,2.18-4.54,3.97-5.48,6.74,1.26-.94,2.57-1.9,4.12-2.19,1.54-.29,3.37.32,3.97,1.78.61,1.49-.27,3.16-1.21,4.46-2.92,4.06-6.77,7.44-11.17,9.81,1.58-.93,3.25-1.88,5.08-1.98,1.83-.09,3.87.98,4.21,2.78.29,1.58-.74,3.08-1.83,4.26-3.07,3.33-7.02,5.85-11.34,7.22,2-2.26,6.22-.99,7.35,1.81,1.14,2.8-.22,6.11-2.46,8.14s-5.18,3.06-8.03,4.03c2.01-1.91,5.69.26,5.97,3.01.28,2.76-1.67,5.25-3.82,6.99-2.16,1.74-4.67,3.11-6.34,5.32.13-1.61,2.42-2.36,3.75-1.42,1.32.93,1.61,2.86,1.1,4.4-.52,1.54-1.66,2.76-2.8,3.92-3.85,3.88-7.94,7.48-12.19,9.57Z"/>
          <path class="st16" d="M62.43,333.38c-1.43-34.09,7.27-68.5,25.35-99-15.36,30.14-23.71,64.23-22.24,97.51-1.41.01-1.81-.47-3.11,1.49Z"/>
        </g>
        <g>
          <path class="st13" d="M55.89,318.84c2.56-4.83,4.1-10.2,4.49-15.66.11-1.58.08-3.33-.93-4.55s-3.35-1.34-3.97.12c-.73-1.63-.61-3.5-.34-5.27.27-1.76.68-3.54.48-5.31-.2-1.77-1.15-3.6-2.82-4.23-1.67-.64-3.93.51-3.94,2.29-.34-2.39.03-4.82-.12-7.22-.16-2.4-1.02-4.98-3.09-6.22s-5.41-.2-5.66,2.2c.18-2.81.36-5.71-.55-8.38s-3.19-5.08-6-5.24-5.63,2.74-4.69,5.4c-.86-4.25-2.95-8.24-5.94-11.38-1.28-1.34-2.95-2.6-4.79-2.38s-3.21,2.79-1.82,4.01c-1.75-2.26-3.97-4.46-6.81-4.86-2.83-.4-6.1,1.96-5.6,4.77.7,3.87,6.94,4.43,7.95,8.23-1.12-1.47-3.74-.94-4.61.68-.87,1.63-.25,3.75,1.02,5.09s3.06,2.05,4.82,2.62c1.76.56,3.58,1.02,5.15,2-1.55-.96-3.77.44-4.03,2.24s.94,3.56,2.49,4.53c1.54.97,3.37,1.34,5.15,1.77,1.77.43,3.59.98,4.94,2.21-1.26-.21-2.56-.42-3.8-.13s-2.42,1.22-2.61,2.49c-.24,1.65,1.21,3.02,2.57,3.98,3.33,2.33,7.04,4.12,10.93,5.28-1.37-.16-2.8-.32-4.1.13-1.31.45-2.45,1.69-2.3,3.07.13,1.21,1.15,2.1,2.15,2.79,3.29,2.31,7.06,3.92,11.01,4.69-1.25-.19-2.56-.38-3.76.03-1.2.41-2.22,1.64-1.95,2.87.3,1.39,1.91,2,3.28,2.37,4.84,1.34,9.68,2.67,17.8,4.97Z"/>
          <path class="st16" d="M60.5,336c-4.42-33.53-19.39-58.52-47.07-76.48,20.83,16.17,40.87,41.32,43.8,75.62,1.74-.65,3.47-1.3,3.27.86Z"/>
        </g>
        <g>
          <path class="st13" d="M73.11,318.59c-1.69-3.92-2.1-8.38-1.17-12.55.3-1.32.79-2.7,1.89-3.49s2.95-.62,3.48.63c-1.07-3.86-.85-8.07.61-11.81.74-1.9,2.03-3.85,4.03-4.24s4.25,1.95,3.1,3.63c.03-3.45,1.37-6.88,3.69-9.44,1.15-1.27,2.71-2.39,4.42-2.23,1.7.16,3.17,2.22,2.22,3.65,1.31-3.42,3.84-6.36,7.03-8.16,1.35-.76,3-1.33,4.43-.73s2.1,2.83.83,3.72c3.07-1.94,6.97-2.52,10.47-1.55,1.67.46,3.52,1.73,3.28,3.44-.16,1.1-1.14,1.88-2.08,2.49-3.39,2.2-7.21,3.74-11.17,4.52,1.6-.24,3.27-.47,4.79.06,1.53.53,2.83,2.07,2.51,3.65-.33,1.63-2.09,2.49-3.66,3.05-3.74,1.35-7.6,2.41-11.51,3.16,1.46-1.18,3.91.11,4.24,1.95s-.94,3.68-2.56,4.61c-1.62.94-3.54,1.19-5.39,1.46-1.85.28-3.77.62-5.3,1.71.79-1.55,3.41-1.25,4.24.28.83,1.53.15,3.52-1.1,4.72-1.26,1.2-2.96,1.8-4.6,2.36-5.69,1.96-11.38,3.9-16.72,5.11Z"/>
          <path class="st16" d="M69.47,333.38c3.91-23.6,18.77-43.98,38.14-51.5-14.73,6.97-31.4,27.62-35.4,50-1.55-.31-1.86-.65-2.74,1.5Z"/>
        </g>
      </g>
      <g>
        <path class="st14" d="M35.89,360.97v-39.53h61v39.53c0,12.81-10.38,23.19-23.19,23.19h-14.61c-12.81.01-23.2-10.38-23.2-23.19Z"/>
        <line class="st3" x1="35.89" y1="330.54" x2="96.89" y2="330.54"/>
        <line class="st3" x1="35.89" y1="341.54" x2="96.89" y2="341.54"/>
        <line class="st3" x1="35.89" y1="352.54" x2="96.89" y2="352.54"/>
        <line class="st3" x1="35.89" y1="362.85" x2="96.89" y2="362.85"/>
        <line class="st3" x1="39.39" y1="373.51" x2="93.39" y2="373.51"/>
      </g>
    </g>
    <g>
      <rect class="st9" x="2.19" y="384.17" width="600" height="22.25"/>
      <rect class="st21" x="2.19" y="405.35" width="600" height="26.15"/>
    </g>
  </g>
  <g class="st20">
    <g>
      <path class="st19" d="M-186.07,644.35c-.31.23-.38.5-.31.76.15.51.85.98,1.36.98H93.94c.52,0,.83-.17.99-.43.03-.02.06-.03.09-.06l.5-.5c2.26-2.22,4.51-4.46,6.76-6.69,4.75-4.7,9.51-9.41,14.27-14.11,21.53-21.26,43.17-42.41,65.41-62.92,11.13-10.26,22.35-20.6,34.4-29.77,2.01-1.53,4.1-3.17,6.31-4.57,1.39-.89,2.81-1.67,4.31-2.28,4.6-1.87,9.67-2.86,14.4-4.41,5.65-1.85,11.24-3.89,16.73-6.17,22.56-9.38,43.16-23.07,58.22-42.53,3.83-4.95,7.43-10.07,11.5-14.84,4.02-4.71,8.53-8.42,13.37-12.23,10.12-7.97,17.44-18.66,26.28-27.91,8.95-9.38,17.92-18.26,24.4-29.67,4.92-8.67,8.65-20.64,1.07-28.97-1.42-1.56-3.09-2.83-4.93-3.89,4.95-4.2,9.48-9.94,12.47-15.65,3.98-7.58-.73-16.55-5.56-22.68-.95-1.2-1.95-2.21-3.01-3.09.08-.03.15-.08.2-.13,4.32-4,5.82-10.13,7.52-15.55,2.34-7.47,5.52-15.16,6.71-22.92,1.26-8.22-2.3-13.48-9.36-17.3-2.54-1.38-5.23-2.53-7.77-3.93,13.2-7.68,43.64-20.17,31.86-39.96-8.81-14.81-25.75-7.5-37.38-.38l13.5-70.06c1.97-10.23,3.94-20.46,5.91-30.69.41-2.08,1.04-4.33.96-6.47-.23-6.98-6.06-10.08-12.05-11.24-33.71-6.5-67.41-12.99-101.12-19.49-6.6-1.28-13.19-2.54-19.79-3.81-4.33-.84-8.75-2.13-12.96.05-6.61,3.44-6.83,13.58-8.08,20.07-6.21,32.19-12.41,64.39-18.62,96.58-.1.55-.21,1.09-.31,1.62-2.97-5.31-8.83-12.38-15.69-10-7.76,2.71-8.07,16.03-9.37,22.55-2.31,11.59-7.9,21.73-14.33,31.53-5.72,8.73-12.37,16.66-19.15,24.56-6.44,7.5-12.83,15.24-16.95,24.31-3.27,7.19-5.27,15.11-7.36,22.72-2.43,8.88-4.57,17.83-6.46,26.84-3.75,17.92-6.66,36.12-7.58,54.43-.38,7.58-.83,15.71.43,23.25.35,2.09.75.75-.49,2.01-2.21,2.28-5.52,4.02-8.08,5.88-30.61,22.27-61.22,44.54-91.83,66.82-43.28,31.48-86.55,62.97-129.83,94.47-30.17,21.96-60.34,43.9-90.5,65.87ZM-91,644.13h-90.76c.55-.41,1.1-.81,1.65-1.21,18.61-13.55,37.22-27.1,55.83-40.65,27.17-19.78,54.36-39.55,81.53-59.33,28.44-20.7,56.89-41.39,85.34-62.09,22.42-16.32,44.83-32.63,67.25-48.94,9.09-6.62,18.19-13.23,27.29-19.84.2-.15.35-.43.31-.69-3.18-24.85,1.19-50.88,6.08-75.22,2.19-10.88,4.74-21.69,7.73-32.39,3.05-10.94,6.2-21.63,12.7-31.09,7.34-10.71,16.71-19.83,24.42-30.26,6.11-8.27,12.51-17.5,16.5-27.31,2.43.18,4.7.66,7,1.46.43.15,1.03.1,1.36-.23,5.51-5.63,5.83-15.67,6.14-23.08.22-5.32-.36-9.49-5.12-10.14,2.14-2.44,5.18-3.31,8.86-.54,2.79,2.09,4.66,5.05,6.24,8.1,6.53,12.51,8.23,27.26,4.98,40.97-6.09,25.59-27.06,45.79-30.59,72.2-.08.58.41,1.03.97,1.23.67.23,1.46.11,1.55-.56.97-7.32,3.58-14.45,6.71-21.26-1.31,6.79-2.61,13.58-3.93,20.37-2.38,12.36-4.76,24.71-7.14,37.07-.54,2.77-1.11,5.54-1.61,8.32-1.23,6.89,2.5,12.44,9.28,14.16.06,0,.1,0,.17.02l.21-1.07-.13-.03c-6.91-1.78-7.85-8.02-6.74-13.77,4.74-24.6,9.48-49.22,14.23-73.82l.08-.16c3.83-7.34,8.1-14.63,11.79-22.11-4.76,24.66-9.51,49.33-14.26,74-.1.51.99.95,1.76.97,5.2,1,10.4,2.01,15.61,3l113.26,21.83c.18.03.76.09.98-.11.03-.03.07-.08.08-.13.39-2.04.78-4.08,1.18-6.12,2.81-.82,5.56-1.92,8.2-3.24-.53,2.78-1.07,5.56-1.61,8.33-2.22.86-4.34,1.98-6.37,3.28-4.46,2.86-8.51,6.58-12.3,10.23-2.5,2.41-5.08,4.73-8.02,6.62-1.81,1.16-4.06,2.04-5.46,3.74-2.08,2.49-1.34,6.03.54,8.45.29.36.6.71.93,1.04-8.92-1.72-17.82-3.53-26.73-5.25-8.92-1.72-17.83-3.44-26.75-5.16l-.21,1.09c5.07.98,10.14,1.95,15.22,2.94-.31.12-.48.36-.3.76,8.08,19.01,22.1,34.9,39.92,45.33.92.54,3.07-.06,1.61-.92-17.53-10.27-31.2-25.86-39.15-44.56-.04-.1-.11-.18-.19-.26,12.51,2.41,25.01,4.83,37.53,7.23.23.04.47.1.7.14,4.32,2.97,10.67,3.47,15.5,3.23,3.83-.19,7.39-1.02,10.77-2.9,2.84-1.59,5.36-4.18,8.35-5.44.45-.19-.11-.42.51-.53.41-.07,1.16.32,1.58.43,4.79,1.29,11.76,3.9,17.17,3.23.69-.08,1.35-.21,1.97-.41,1.4-.44-.74-1.62-1.55-1.37-3.64,1.16-8.79-.64-12.34-1.48-2.13-.5-5.11-1.97-7.31-1.88-2,.1-3.99,2.02-5.59,3.11-2.34,1.58-4.66,3.27-7.3,4.34-4.21,1.73-9.28,1.86-13.72,1.13-4.37-.72-11.57-3.93-9.74-9.74.1-.32.24-.62.41-.9,2.47,1.35,4.52,3.02,6.83,4.63.69.48,1.23.95,2.1,1.12,2.72.51,5.95-2.04,8.17-3.36,2.64-1.55,7.06-2.74,4.75-5.97-2.18-3.05-5.42-5.12-8.82-6.55,4.76-4.46,9.12-8.98,14.96-12.1,4.76-2.54,9.15-3.93,14.63-3.58,2.74.17,5.49.54,8.2.96,6.43,1,13.5,2.89,17.3,8.64,3.42,5.18,2.97,11.6,1.17,17.27-3.56,11.21-11.92,21.43-19.84,29.88-4.35,4.64-9.02,8.9-13.22,13.7-3.38,3.87-6.62,7.88-10.07,11.7-7.95,8.82-18.06,15.05-25.66,24.2-7.15,8.6-13.22,17.94-21.22,25.84-8.26,8.16-17.7,15.04-27.79,20.77-10.16,5.77-20.94,10.38-31.97,14.22-5.07,1.76-10.75,2.82-15.91,4.72-1.63.59-3.21,1.27-4.71,2.08-9.07,4.93-17.05,12.44-24.78,19.16-12.22,10.64-24.07,21.7-35.82,32.85-22.89,21.73-45.32,43.95-67.75,66.14l-.5,1.5c-.12-.03-.25-.05-.39-.05H-91ZM205.48,213.57c.75-1.98,1.41-3.97,1.93-5.98,1.71-6.59,2.22-13.52,4.4-19.99.35-1.02.78-2.01,1.3-2.88,6.43.03,3.39,13.64,2.86,17.15-.69,4.58-1.46,9.36-4.59,12.91-1.95-.61-3.87-1.01-5.91-1.21ZM217.56,326.31c1.72-8.93,3.44-17.86,5.17-26.79,3.72-19.33,7.44-38.66,11.17-57.98,2.71-7.15,4.52-14.58,4.64-22.5,0-.51,0-1.02,0-1.54,2.42-12.58,4.85-25.16,7.27-37.74,4.8-24.91,9.61-49.83,14.4-74.74,4.99.96,9.96,1.92,14.95,2.88,37.22,7.17,74.46,14.35,111.68,21.52-1.72,8.93-3.44,17.86-5.16,26.79-7.69,39.92-15.39,79.84-23.08,119.76-1.82,9.48-3.66,18.96-5.48,28.44-7.93,2.2-13.94,8.06-20.95,12.05-5.58,3.17-12.87,3.03-18.04,6.8-5.56,4.04-.63,12.23,2.97,15.86,4.09,4.13,9.6,6.71,15.31,7.67.82.13,1.64.23,2.46.3,3.45.29,6.84,0,10.16-.7l-.83,4.33c-4.03-.78-8.06-1.55-12.09-2.34-.96-.18-1.9-.36-2.86-.55-37.22-7.17-74.46-14.35-111.68-21.52ZM233.04,192.92c2.23-11.62,4.47-23.23,6.71-34.85,4.88-25.32,9.75-50.63,14.63-75.94.69-3.56,1.27-6.9,4.49-9.33,4.28-3.22,9.44-1.43,14.16-.53,16,3.08,32,6.17,47.99,9.25,18.33,3.53,36.65,7.07,54.98,10.6,5.34,1.03,10.68,2.06,16.02,3.09,6.11,1.17,10.21,5.49,9.27,12.18-.94,6.69-2.57,13.34-3.85,19.97-2.77,14.39-5.54,28.78-8.32,43.17-4.73,24.58-9.48,49.16-14.21,73.74-3.87.04-6.67,2-8.51,4.85,2.86-14.83,5.71-29.64,8.56-44.46,4.83-25.06,9.66-50.12,14.49-75.18.11-.57-1.13-.85-1.46-.91-5.31-1.02-10.6-2.05-15.91-3.07-37.75-7.28-75.51-14.56-113.26-21.83-.22-.03-.99-.1-1.06.24-1.76,9.14-3.52,18.27-5.28,27.41-4.93,25.6-9.87,51.2-14.8,76.79-.88-5.24-2.44-10.37-4.65-15.19ZM316.67,335.73c-1.58-2.49-3.33-6.47-2.01-9.41,3.47,1.1,6.02,3.4,8.62,5.89,1.35,1.29,2.74,3.2,4.57,3.87,3.48,1.28,9.17-1.82,12.44-2.87,4.04-1.29,5.32-2.76,3.1-6.85-2.15-3.94-5.53-6.82-9.59-8.66,1.29-.66,2.58-1.4,3.89-2.26,6.19-4.08,11.98-8.85,19.45-10.28,7.67-1.48,15.51,1.72,22.92,3.42,9.28,2.13,14.88,8.55,18.19,17.25,2.61,6.81.46,11.47-3.5,16.98-2.56,3.55-5.41,7.12-8.73,10.04-.06.05-.12.11-.19.17-6.52-3-14.58-3.73-21.16-3.99-2.61-.1-5.09.21-7.46.84.58-3,1.16-5.99,1.74-8.99,3.2-1.8,6.2-3.48,10.14-2.57,2.13.49,4.15,1.63,6.15,2.48,2.76,1.18,5.42,1.98,8.42,1.83.11,0,.22,0,.33,0,1.69-.12-.07-1.42-.99-1.36-7.18.52-12.78-6.12-20.18-4.24-3.49.89-6.46,3.17-9.67,4.72-3.95,1.92-8.2,3.32-12.57,3.87-8.94,1.13-18.85-1.98-23.89-9.87ZM315.84,324.69c2.01-1.84,5.38-2.55,7.88-3.23,2.9-.78,5.51-1.65,8.06-2.79.1.19.3.37.62.51,2.28,1,4.28,2.24,6,4.05,1.08,1.12,3.55,3.69,3.43,5.26-.23,3.13-7.81,4.8-10.25,5.21-4.66.78-6.39-2.82-9.57-5.45-1.89-1.56-3.9-2.76-6.17-3.56ZM324.79,375.37c1.48-1.56,3.86-2.52,5.5-3.6,2.11-1.39,4.05-3.02,5.91-4.73,2.15.96,8.88,4.59,8.06,7.16-.49,1.55-6.69,4.33-7.82,4.93-3.21,1.7-3,1.84-5.71-.18-1.86-1.4-3.86-2.55-5.94-3.58ZM355.86,303.82l7.95-41.22c.11.82.27,1.61.48,2.35.98,3.53,2.68,6.61,4.85,9.31-.78,4.07-1.57,8.16-2.35,12.23-1.1,5.75-2.21,11.49-3.32,17.23-2.49-.29-5-.31-7.6.1ZM366.03,304.1c1.76-9.14,3.52-18.26,5.28-27.4,4.27,4.33,9.78,7.59,15.28,10.18.23.1.44.16.66.16.98.03,1.7-.87.42-1.48-11.41-5.38-24.37-15.55-21.27-29.92.68-3.14,2.28-6.16,4.94-8.04,1.73-1.22,3.46-1.39,5.11-.96.77,2.26.98,4.57.39,6.98-.26,1.07-1.22,2.19-.74,3.32.5,1.19,2.99,2.03,4.05,2.64,2,1.14,4.01,2.25,6.04,3.33,1.42.76,4.45,3.15,6.19,2.14,2.03-1.17,2.08-5.23,1.79-7.84,2.77,1.35,5.52,2.87,7.46,5.25,3.6,4.4,2.55,10.34,1.2,15.42-1.74,6.48-3.97,12.86-5.98,19.26-1.46,4.66-2.81,9.73-6.13,13.42-.24.26-.49.51-.74.76-4.07-2.61-8.82-3.65-13.93-4.88-3.43-.83-6.72-1.75-10.02-2.33ZM377.5,244.6c1.88-9.78,3.77-19.55,5.65-29.33,6.27-4.09,13.14-8.62,20.7-9.74,10.41-1.55,18.39,8.11,16.86,18.02-1.28,8.29-8.75,13.37-15.29,17.58-5.91,3.8-12.12,7.04-18.16,10.6-.66-.43-1.31-.86-1.94-1.35-2.65-2.07-4.66-4.84-7.82-5.78ZM378.57,256.83c-.23-.57,1.12-4.28,1.16-5.13.06-1.32-.1-2.56-.43-3.77,1.09.69,2.14,1.55,3.1,2.4,2.63,2.33,5.77,3.93,8.9,5.49.08.03.16.07.23.11.4,2.3.44,5.7-1.09,7.69-2.3-.82-4.91-2.69-6.9-3.81-1.15-.64-4.46-1.75-4.96-2.98Z"/>
      <path class="st6" d="M-181.76,644.13H93.75c.14,0,.27.02.39.05l.5-1.5c22.43-22.2,44.86-44.41,67.75-66.14,11.75-11.15,23.6-22.22,35.82-32.85,7.73-6.72,15.71-14.23,24.78-19.16,1.49-.82,3.07-1.49,4.71-2.08,5.16-1.9,10.84-2.96,15.91-4.72,11.03-3.84,21.81-8.45,31.97-14.22,10.09-5.72,19.53-12.61,27.79-20.77,8-7.89,14.07-17.24,21.22-25.84,7.6-9.15,17.72-15.38,25.66-24.2,3.45-3.82,6.69-7.83,10.07-11.7,4.19-4.8,8.87-9.07,13.22-13.7,7.92-8.46,16.28-18.67,19.84-29.88,1.8-5.67,2.25-12.1-1.17-17.27-3.8-5.75-10.87-7.64-17.3-8.64-2.71-.42-5.46-.78-8.2-.96-5.48-.36-9.87,1.03-14.63,3.58-5.84,3.12-10.2,7.64-14.96,12.1,3.4,1.42,6.64,3.5,8.82,6.55,2.31,3.22-2.11,4.41-4.75,5.97-2.22,1.32-5.45,3.87-8.17,3.36-.87-.17-1.41-.64-2.1-1.12-2.32-1.61-4.37-3.28-6.83-4.63-.17.29-.3.58-.41.9-1.83,5.8,5.37,9.01,9.74,9.74,4.45.73,9.51.6,13.72-1.13,2.63-1.08,4.95-2.76,7.3-4.34,1.61-1.09,3.6-3.01,5.59-3.11,2.21-.1,5.18,1.37,7.31,1.88,3.55.83,8.7,2.63,12.34,1.48.81-.25,2.94.93,1.55,1.37-.63.2-1.29.33-1.97.41-5.41.67-12.38-1.95-17.17-3.23-.42-.11-1.17-.5-1.58-.43-.63.11-.06.34-.51.53-2.99,1.26-5.51,3.85-8.35,5.44-3.38,1.88-6.94,2.71-10.77,2.9-4.84.24-11.19-.26-15.5-3.23-.23-.04-.47-.1-.7-.14-12.51-2.41-25.02-4.82-37.53-7.23.08.08.15.17.19.26,7.95,18.7,21.62,34.3,39.15,44.56,1.47.86-.69,1.46-1.61.92-17.81-10.43-31.84-26.32-39.92-45.33-.17-.4,0-.64.3-.76-5.07-.98-10.14-1.95-15.22-2.94,15.46,23.54,22.42,51.77,19.78,79.81-.1,1.14-2.63.53-2.52-.68,2.61-27.7-4.39-55.61-19.67-78.86-.22-.34-.15-.57.05-.72-13.81-2.67-27.62-5.32-41.43-7.98,9.01,8.9,9.37,22.03,7.25,33.94-.19,1.05-2.71.43-2.52-.68,2.11-11.85,1.82-24.99-7.8-33.58-.14-.12-.23-.23-.27-.33-1.56-.3-3.14-.61-4.7-.91-2.76-.53-5.51-1.06-8.28-1.59-.06-.02-.11-.03-.17-.05-.06,0-.1,0-.17-.02-6.77-1.72-10.51-7.27-9.28-14.16.5-2.78,1.07-5.55,1.61-8.32,2.38-12.36,4.76-24.71,7.14-37.07,1.31-6.79,2.61-13.58,3.93-20.37-3.14,6.81-5.74,13.94-6.71,21.26-.09.67-.88.79-1.55.56-.56-.2-1.05-.65-.97-1.23,3.53-26.41,24.5-46.6,30.59-72.2,3.26-13.7,1.55-28.45-4.98-40.97-1.58-3.05-3.46-6.01-6.24-8.1-3.68-2.77-6.72-1.9-8.86.54,4.76.65,5.34,4.83,5.12,10.14-.31,7.41-.63,17.45-6.14,23.08-.33.33-.94.38-1.36.23-2.3-.8-4.57-1.28-7-1.46-4,9.81-10.39,19.04-16.5,27.31-7.71,10.43-17.08,19.55-24.42,30.26-6.5,9.47-9.65,20.15-12.7,31.09-2.99,10.7-5.54,21.51-7.73,32.39-4.89,24.34-9.26,50.37-6.08,75.22.03.26-.11.54-.31.69-9.09,6.62-18.19,13.23-27.29,19.84-22.42,16.31-44.83,32.62-67.25,48.94-28.45,20.7-56.89,41.39-85.34,62.09-27.17,19.78-54.36,39.55-81.53,59.33-18.61,13.55-37.22,27.1-55.83,40.65-.55.4-1.1.8-1.65,1.21ZM172.54,433.52c-1.45-.42-1.26-1.26.23-.84,11.53,3.27,23.65,1.64,34.07-4.21.64-.36,2.73.67,2.36.87-11.26,6.33-24.27,7.69-36.66,4.19ZM177.96,473.09c-.5-1.29,2.01-1.16,2.38-.21,6.16,15.87,16.13,29.87,29.21,40.77,1.31,1.09-.74,1.76-1.63,1.01-13.37-11.14-23.66-25.33-29.95-41.57Z"/>
      <path class="st6" d="M172.77,432.68c-1.49-.42-1.68.43-.23.84,12.39,3.5,25.4,2.15,36.66-4.19.36-.2-1.72-1.23-2.36-.87-10.42,5.85-22.54,7.48-34.07,4.21Z"/>
      <path class="st6" d="M180.34,472.89c-.36-.95-2.88-1.08-2.38.21,6.3,16.24,16.58,30.42,29.95,41.57.89.76,2.94.09,1.63-1.01-13.08-10.9-23.05-24.9-29.21-40.77Z"/>
      <path class="st12" d="M203.09,348.34c-1.11,5.76-.17,11.99,6.74,13.77l.13.03c5.5,1.06,10.99,2.12,16.48,3.18,14.6,2.81,29.19,5.62,43.79,8.43,8.92,1.72,17.83,3.44,26.75,5.16,8.91,1.71,17.81,3.53,26.73,5.25-.33-.33-.64-.68-.93-1.04-1.88-2.42-2.61-5.96-.54-8.45,1.41-1.7,3.66-2.58,5.46-3.74,2.94-1.88,5.51-4.21,8.02-6.62,3.79-3.65,7.83-7.37,12.3-10.23l-1.49-2.12c-.23.2-.8.14-.98.11l-113.26-21.83c-5.2-1-10.4-2.01-15.61-3-.77-.03-1.87-.46-1.76-.97,4.75-24.67,9.5-49.34,14.26-74-3.69,7.49-7.96,14.77-11.79,22.11l-.08.16c-4.74,24.6-9.48,49.22-14.23,73.82ZM279.19,366.56c-6.94.66-14.64-4.27-13.04-12.76,1.62-8.66,10.69-10.08,16.88-6.65,3.79,2.1,6.5,6.02,5.78,11.21-1.3,5.21-5.32,7.79-9.62,8.2Z"/>
      <path class="st6" d="M207.4,207.59c-.52,2.01-1.18,4-1.93,5.98,2.03.2,3.96.6,5.91,1.21,3.13-3.55,3.89-8.34,4.59-12.91.53-3.51,3.57-17.12-2.86-17.15-.52.88-.96,1.86-1.3,2.88-2.18,6.47-2.69,13.4-4.4,19.99Z"/>
      <path class="st19" d="M209.96,362.14l-.21,1.07c.06.02.11.03.17.05,2.76.53,5.51,1.06,8.28,1.59,1.56.3,3.14.61,4.7.91.04.1.13.21.27.33,9.61,8.59,9.91,21.73,7.8,33.58-.19,1.1,2.33,1.73,2.52.68,2.12-11.91,1.76-25.04-7.25-33.94l.21-1.09c-5.5-1.06-10.99-2.12-16.48-3.18Z"/>
      <path class="st11" d="M222.72,299.52c-1.73,8.93-3.45,17.86-5.17,26.79,37.22,7.17,74.46,14.35,111.68,21.52.96.18,1.9.36,2.86.55l.3-1.59c-5.71-.96-11.22-3.53-15.31-7.67-3.6-3.63-8.53-11.82-2.97-15.86,5.17-3.77,12.46-3.63,18.04-6.8,7.01-3.99,13.02-9.85,20.95-12.05,1.82-9.48,3.66-18.97,5.48-28.44,7.69-39.92,15.39-79.84,23.08-119.76,1.72-8.93,3.44-17.86,5.16-26.79-37.22-7.17-74.46-14.35-111.68-21.52-4.99-.96-9.96-1.92-14.95-2.88-4.79,24.92-9.6,49.83-14.4,74.74-2.42,12.58-4.85,25.16-7.27,37.74,0,.51,0,1.02,0,1.54-.12,7.92-1.93,15.35-4.64,22.5-3.73,19.32-7.45,38.65-11.17,57.98Z"/>
      <path class="st19" d="M226.44,365.32l-.21,1.09c13.81,2.66,27.62,5.32,41.43,7.98-.2.15-.27.38-.05.72,15.28,23.25,22.28,51.15,19.67,78.86-.11,1.21,2.41,1.82,2.52.68,2.64-28.03-4.32-56.26-19.78-79.81l.21-1.09c-14.6-2.81-29.19-5.63-43.79-8.43Z"/>
      <path class="st12" d="M239.75,158.07c-2.24,11.62-4.48,23.23-6.71,34.85,2.21,4.82,3.77,9.95,4.65,15.19,4.93-25.59,9.87-51.19,14.8-76.79,1.76-9.14,3.52-18.27,5.28-27.41.07-.35.84-.28,1.06-.24,37.75,7.28,75.51,14.56,113.26,21.83,5.31,1.02,10.6,2.04,15.91,3.07.33.06,1.57.34,1.46.91-4.83,25.06-9.66,50.12-14.49,75.18-2.85,14.82-5.71,29.63-8.56,44.46,1.84-2.85,4.64-4.8,8.51-4.85,4.73-24.58,9.48-49.16,14.21-73.74,2.78-14.39,5.55-28.78,8.32-43.17,1.28-6.63,2.91-13.28,3.85-19.97.95-6.69-3.15-11-9.27-12.18-5.34-1.03-10.68-2.06-16.02-3.09-18.33-3.53-36.65-7.06-54.98-10.6-16-3.08-32-6.17-47.99-9.25-4.72-.9-9.87-2.69-14.16.53-3.22,2.42-3.8,5.77-4.49,9.33-4.88,25.31-9.75,50.62-14.63,75.94ZM312.44,99.77c-.12-.18-.18-.4-.14-.63.23-1.16.45-2.32.67-3.47.12-.64,1.03-.64,1.5-.55,8.59,1.65,17.19,3.31,25.79,4.97.55.1,1.14.63,1.02,1.22-.23,1.16-.45,2.31-.67,3.47-.12.64-1.03.64-1.5.55-8.47-1.63-16.94-3.27-25.42-4.9-.12,0-.23-.03-.35-.07h-.02s-.06-.03-.1-.03-.06-.02-.1-.03c-.36-.11-.58-.3-.69-.52ZM327.07,94.89c-1.21-.49-2.13-1.54-1.87-2.94.3-1.55,1.71-2.08,3.11-1.87,1.55.24,3.08,1.38,2.99,3.02,0,.07.02.14,0,.21,0,.06-.03.11-.07.17-.56,1.73-2.59,2.04-4.16,1.41Z"/>
      <path class="st19" d="M266.15,353.8c-1.6,8.49,6.11,13.42,13.04,12.76l-.11-1.18c-1.03.08-2.07-.23-3.73-.63-3.41-.83-5.16-1.62-6.31-5.03-.56-1.67-.71-3.51-.38-5.24.68-3.5,3.71-7.42,7.46-7.89,2.22.54,4.45,1.07,6.66,1.61l.25-1.04c-6.19-3.43-15.26-2.01-16.88,6.65Z"/>
      <path class="st12" d="M268.66,354.48c-.33,1.73-.18,3.57.38,5.24,1.15,3.4,2.89,4.2,6.31,5.03,1.67.4,2.7.71,3.73.63.76-.06,1.52-.33,2.53-.94.59-.36,1.17-.79,1.68-1.27,1.62-1.51,2.49-3.38,3.02-5.48.26-1.95.2-3.88-.58-5.72-.35-.82-.75-1.49-1.28-2.19-.37-.57-.82-1.08-1.34-1.51-.11-.03-.22-.05-.33-.08-2.21-.54-4.44-1.07-6.66-1.61-3.75.48-6.78,4.39-7.46,7.89Z"/>
      <path class="st19" d="M279.08,365.38l.11,1.18c4.31-.41,8.32-2.99,9.62-8.2.71-5.19-2-9.11-5.78-11.21l-.25,1.04c.11.03.22.05.33.08.52.43.96.94,1.34,1.51.53.7.93,1.37,1.28,2.19.78,1.84.84,3.77.58,5.72-.53,2.1-1.4,3.97-3.02,5.48-.5.48-1.09.91-1.68,1.27-1.01.61-1.77.88-2.53.94Z"/>
      <path class="st19" d="M312.3,99.13c-.04.23.02.45.14.63.11.23.34.41.69.52.03.02.06.03.1.03s.05.03.1.03h.02c.11.03.23.06.35.07,8.48,1.63,16.95,3.27,25.42,4.9.47.1,1.38.1,1.5-.55.22-1.16.44-2.32.67-3.47.11-.59-.48-1.12-1.02-1.22-8.6-1.66-17.2-3.32-25.79-4.97-.47-.1-1.38-.1-1.5.55-.22,1.16-.44,2.31-.67,3.47ZM315.01,98.81c.1-.56.22-1.11.32-1.67l23.24,4.48c-.1.56-.22,1.11-.32,1.67l-23.24-4.48Z"/>
      <path class="st6" d="M314.65,326.32c-1.31,2.94.43,6.92,2.01,9.41,5.04,7.89,14.96,11,23.89,9.87,4.37-.56,8.62-1.95,12.57-3.87,3.21-1.55,6.18-3.82,9.67-4.72,7.41-1.88,13,4.76,20.18,4.24.92-.06,2.68,1.24.99,1.36-.11,0-.22,0-.33,0-3,.15-5.65-.65-8.42-1.83-2-.85-4.02-2-6.15-2.48-3.93-.91-6.93.77-10.14,2.57-.58,3-1.16,5.99-1.74,8.99,2.37-.63,4.85-.95,7.46-.84,6.58.26,14.64.99,21.16,3.99.07-.05.13-.11.19-.17,3.32-2.92,6.17-6.49,8.73-10.04,3.96-5.51,6.11-10.17,3.5-16.98-3.32-8.7-8.91-15.12-18.19-17.25-7.41-1.7-15.25-4.9-22.92-3.42-7.48,1.43-13.26,6.2-19.45,10.28-1.31.86-2.6,1.6-3.89,2.26,4.06,1.84,7.44,4.72,9.59,8.66,2.22,4.09.94,5.56-3.1,6.85-3.27,1.05-8.95,4.14-12.44,2.87-1.83-.67-3.21-2.58-4.57-3.87-2.61-2.48-5.16-4.79-8.62-5.89Z"/>
      <path class="st6" d="M315.33,97.14c-.1.56-.22,1.11-.32,1.67l23.24,4.48c.1-.56.22-1.11.32-1.67l-23.24-4.48Z"/>
      <path class="st6" d="M323.72,321.46c-2.49.68-5.87,1.39-7.88,3.23,2.27.8,4.27,2,6.17,3.56,3.18,2.63,4.91,6.24,9.57,5.45,2.44-.41,10.01-2.08,10.25-5.21.12-1.57-2.35-4.14-3.43-5.26-1.72-1.81-3.73-3.05-6-4.05-.32-.14-.52-.32-.62-.51-2.54,1.14-5.16,2.01-8.06,2.79Z"/>
      <path class="st19" d="M325.21,91.95c-.26,1.4.66,2.45,1.87,2.94l.93-1.23c-.05-.06-.17-.17-.21-.27-.1-.23-.11-.51-.07-.76.05-.3.18-.56.39-.76l.2-1.79c-1.4-.21-2.81.32-3.11,1.87Z"/>
      <path class="st19" d="M328,93.65l-.93,1.23c1.57.63,3.6.32,4.16-1.41.03-.05.06-.1.07-.17.02-.07,0-.14,0-.21.1-1.64-1.43-2.78-2.99-3.02l-.2,1.79c.1-.1.3-.16.43-.23.05.07.1.14.12.17.13.26.15.55.11.83-.08.32-.2.61-.46.83-.09.08-.19.12-.29.18,0,0-.03,0-.03,0Z"/>
      <path class="st6" d="M330.29,371.78c-1.63,1.08-4.02,2.03-5.5,3.6,2.08,1.02,4.08,2.18,5.94,3.58,2.7,2.02,2.49,1.88,5.71.18,1.13-.6,7.33-3.39,7.82-4.93.82-2.57-5.91-6.19-8.06-7.16-1.86,1.71-3.8,3.34-5.91,4.73Z"/>
      <path class="st6" d="M327.72,92.63c-.04.24-.03.52.07.76.04.1.16.21.21.27,0,0,.03,0,.03,0,.1-.06.2-.1.29-.18.26-.22.38-.5.46-.83.03-.28.02-.56-.11-.83-.02-.03-.07-.1-.12-.17-.14.07-.34.13-.43.23-.21.2-.34.46-.39.76Z"/>
      <path class="st11" d="M332.4,346.79l-.3,1.59c4.03.78,8.06,1.55,12.09,2.34l.83-4.33c-3.32.71-6.71.99-10.16.7-.82-.07-1.64-.17-2.46-.3Z"/>
      <path class="st12" d="M346.54,351.95l1.49,2.12c2.02-1.3,4.14-2.42,6.37-3.28.54-2.77,1.08-5.55,1.61-8.33-2.64,1.32-5.38,2.42-8.2,3.24-.4,2.04-.79,4.08-1.18,6.12,0,.05-.04.1-.08.13Z"/>
      <path class="st12" d="M363.81,262.6l-7.95,41.22c2.6-.41,5.11-.38,7.6-.1,1.1-5.74,2.21-11.48,3.32-17.23.78-4.07,1.57-8.16,2.35-12.23-2.16-2.7-3.86-5.78-4.85-9.31-.21-.75-.36-1.54-.48-2.35Z"/>
      <path class="st6" d="M371.31,276.7c-1.76,9.14-3.52,18.26-5.28,27.4,3.3.58,6.59,1.5,10.02,2.33,5.12,1.23,9.86,2.27,13.93,4.88.25-.24.5-.5.74-.76,3.32-3.69,4.67-8.76,6.13-13.42,2.01-6.4,4.24-12.78,5.98-19.26,1.35-5.07,2.41-11.01-1.2-15.42-1.94-2.37-4.69-3.89-7.46-5.25.3,2.61.24,6.67-1.79,7.84-1.75,1.02-4.78-1.38-6.19-2.14-2.03-1.09-4.05-2.2-6.04-3.33-1.06-.61-3.54-1.45-4.05-2.64-.48-1.13.48-2.25.74-3.32.59-2.41.38-4.72-.39-6.98-1.65-.43-3.38-.27-5.11.96-2.67,1.88-4.26,4.91-4.94,8.04-3.1,14.37,9.86,24.53,21.27,29.92,1.29.61.56,1.5-.42,1.48-.22,0-.43-.05-.66-.16-5.5-2.59-11-5.84-15.28-10.18Z"/>
      <path class="st6" d="M383.15,215.28c-1.88,9.78-3.77,19.55-5.65,29.33,3.16.95,5.17,3.72,7.82,5.78.63.49,1.28.92,1.94,1.35,6.04-3.56,12.25-6.81,18.16-10.6,6.55-4.2,14.02-9.29,15.29-17.58,1.53-9.91-6.44-19.58-16.86-18.02-7.56,1.12-14.43,5.65-20.7,9.74Z"/>
      <path class="st6" d="M379.72,251.7c-.03.85-1.39,4.56-1.16,5.13.5,1.23,3.81,2.34,4.96,2.98,2,1.12,4.6,3,6.9,3.81,1.53-2,1.49-5.39,1.09-7.69-.07-.04-.15-.08-.23-.11-3.14-1.55-6.27-3.16-8.9-5.49-.96-.85-2.01-1.71-3.1-2.4.33,1.21.5,2.45.43,3.77Z"/>
    </g>
  </g>
  <g>
    <path class="st9" d="M35.8,91.13h-3.07l6.9-19.16h3.34l6.9,19.16h-3.07l-5.42-15.68h-.15l-5.43,15.68ZM36.32,83.62h9.96v2.43h-9.96v-2.43Z"/>
    <path class="st9" d="M59.15,76.75v2.25h-8.12v-2.25h8.12ZM53.25,91.13v-16.04c0-.9.2-1.65.59-2.24s.91-1.04,1.56-1.34c.65-.3,1.35-.44,2.11-.44.56,0,1.04.04,1.44.14.4.09.7.17.89.25l-.66,2.26c-.13-.04-.3-.08-.5-.14-.21-.05-.46-.08-.75-.08-.68,0-1.17.17-1.46.5s-.44.82-.44,1.46v15.66h-2.8Z"/>
    <path class="st9" d="M68.73,76.75v2.25h-7.85v-2.25h7.85ZM62.99,73.31h2.8v13.59c0,.54.08.95.24,1.22.16.27.37.46.63.55s.54.14.85.14c.22,0,.42-.02.59-.05s.3-.06.39-.07l.51,2.31c-.16.06-.39.13-.69.19-.3.07-.67.1-1.12.11-.74.01-1.42-.12-2.06-.39s-1.15-.7-1.54-1.27c-.39-.57-.59-1.29-.59-2.16v-14.17Z"/>
    <path class="st9" d="M77.87,91.42c-1.42,0-2.63-.3-3.65-.91-1.02-.61-1.81-1.47-2.36-2.57-.55-1.11-.83-2.41-.83-3.9s.28-2.77.83-3.89c.55-1.12,1.33-2,2.32-2.63s2.16-.95,3.49-.95c.81,0,1.6.13,2.36.4.76.27,1.44.69,2.05,1.26.6.57,1.08,1.32,1.43,2.23.35.91.52,2.02.52,3.33v.99h-11.42v-2.1h8.68c0-.74-.15-1.39-.45-1.96s-.72-1.02-1.26-1.35c-.54-.33-1.17-.5-1.9-.5-.79,0-1.47.19-2.05.58-.58.38-1.03.88-1.35,1.5s-.47,1.28-.47,2v1.64c0,.96.17,1.78.51,2.45.34.67.82,1.19,1.43,1.54s1.33.53,2.14.53c.53,0,1.01-.08,1.45-.23.44-.15.81-.38,1.13-.69.32-.31.56-.68.73-1.13l2.65.48c-.21.78-.59,1.46-1.14,2.04-.55.58-1.23,1.04-2.05,1.36-.82.32-1.75.48-2.8.48Z"/>
    <path class="st9" d="M87.15,91.13v-14.37h2.7v2.28h.15c.26-.77.73-1.38,1.39-1.83.66-.45,1.42-.67,2.26-.67.17,0,.38,0,.62.02s.43.03.57.05v2.68c-.11-.03-.31-.07-.6-.11-.29-.04-.57-.06-.86-.06-.66,0-1.25.14-1.76.42-.51.28-.92.66-1.22,1.15-.3.49-.45,1.05-.45,1.67v8.78h-2.8Z"/>
    <path class="st9" d="M108.43,91.44c-.91,0-1.73-.17-2.47-.51s-1.32-.83-1.75-1.48-.64-1.44-.64-2.39c0-.81.16-1.48.47-2,.31-.52.73-.94,1.26-1.25.53-.3,1.12-.54,1.78-.69.66-.16,1.32-.27,2-.36.86-.1,1.56-.18,2.1-.25.54-.07.93-.17,1.17-.32.24-.15.37-.39.37-.73v-.07c0-.82-.23-1.45-.69-1.9s-1.14-.67-2.04-.67-1.68.21-2.22.62c-.54.42-.91.88-1.12,1.38l-2.63-.6c.31-.87.77-1.58,1.37-2.12.6-.54,1.3-.93,2.08-1.18s1.61-.37,2.48-.37c.57,0,1.18.07,1.83.2.65.13,1.25.38,1.81.73s1.03.86,1.39,1.52c.36.66.54,1.51.54,2.56v9.54h-2.73v-1.96h-.11c-.18.36-.45.72-.81,1.07-.36.35-.83.64-1.39.87-.57.23-1.25.35-2.04.35ZM109.04,89.2c.77,0,1.44-.15,1.99-.46s.97-.71,1.26-1.2.44-1.03.44-1.6v-1.85c-.1.1-.29.19-.58.28-.28.08-.61.16-.97.21-.36.06-.71.11-1.06.16-.34.05-.63.09-.86.12-.54.07-1.04.18-1.48.35-.45.16-.8.39-1.07.7-.27.3-.4.7-.4,1.2,0,.69.26,1.21.77,1.57.51.35,1.16.53,1.96.53Z"/>
    <path class="st9" d="M130.21,91.13l-5.31-19.16h3.04l3.73,14.84h.18l3.88-14.84h3.01l3.88,14.85h.18l3.72-14.85h3.05l-5.32,19.16h-2.91l-4.03-14.35h-.15l-4.03,14.35h-2.92Z"/>
    <path class="st9" d="M156.78,91.42c-1.42,0-2.63-.3-3.65-.91-1.02-.61-1.81-1.47-2.36-2.57-.55-1.11-.83-2.41-.83-3.9s.28-2.77.83-3.89c.55-1.12,1.33-2,2.32-2.63s2.16-.95,3.49-.95c.81,0,1.6.13,2.36.4.76.27,1.44.69,2.05,1.26.6.57,1.08,1.32,1.43,2.23.35.91.52,2.02.52,3.33v.99h-11.42v-2.1h8.68c0-.74-.15-1.39-.45-1.96s-.72-1.02-1.26-1.35c-.54-.33-1.17-.5-1.9-.5-.79,0-1.47.19-2.05.58-.58.38-1.03.88-1.35,1.5s-.47,1.28-.47,2v1.64c0,.96.17,1.78.51,2.45.34.67.82,1.19,1.43,1.54s1.33.53,2.14.53c.53,0,1.01-.08,1.45-.23.44-.15.81-.38,1.13-.69.32-.31.56-.68.73-1.13l2.65.48c-.21.78-.59,1.46-1.14,2.04-.55.58-1.23,1.04-2.05,1.36-.82.32-1.75.48-2.8.48Z"/>
    <path class="st9" d="M172.25,91.42c-1.42,0-2.63-.3-3.65-.91-1.02-.61-1.81-1.47-2.36-2.57-.55-1.11-.83-2.41-.83-3.9s.28-2.77.83-3.89c.55-1.12,1.33-2,2.32-2.63s2.16-.95,3.49-.95c.81,0,1.6.13,2.36.4.76.27,1.44.69,2.05,1.26.6.57,1.08,1.32,1.43,2.23.35.91.52,2.02.52,3.33v.99h-11.42v-2.1h8.68c0-.74-.15-1.39-.45-1.96s-.72-1.02-1.26-1.35c-.54-.33-1.17-.5-1.9-.5-.79,0-1.47.19-2.05.58-.58.38-1.03.88-1.35,1.5s-.47,1.28-.47,2v1.64c0,.96.17,1.78.51,2.45.34.67.82,1.19,1.43,1.54s1.33.53,2.14.53c.53,0,1.01-.08,1.45-.23.44-.15.81-.38,1.13-.69.32-.31.56-.68.73-1.13l2.65.48c-.21.78-.59,1.46-1.14,2.04-.55.58-1.23,1.04-2.05,1.36-.82.32-1.75.48-2.8.48Z"/>
    <path class="st9" d="M181.53,91.13v-19.16h2.8v19.16h-2.8ZM184.11,86.25l-.02-3.42h.49l5.73-6.08h3.35l-6.53,6.92h-.44l-2.57,2.57ZM190.61,91.13l-5.15-6.83,1.93-1.96,6.65,8.79h-3.43Z"/>
    <path class="st9" d="M198.04,91.3c-.51,0-.95-.18-1.32-.55-.37-.37-.55-.81-.55-1.32s.18-.95.55-1.31c.37-.37.81-.55,1.32-.55s.95.18,1.32.55c.37.36.55.8.55,1.31,0,.34-.09.66-.26.94-.17.28-.4.51-.68.68-.28.17-.59.25-.94.25Z"/>
    <path class="st9" d="M205.49,91.3c-.51,0-.95-.18-1.32-.55-.37-.37-.55-.81-.55-1.32s.18-.95.55-1.31c.37-.37.81-.55,1.32-.55s.95.18,1.32.55c.37.36.55.8.55,1.31,0,.34-.09.66-.26.94-.17.28-.4.51-.68.68-.28.17-.59.25-.94.25Z"/>
    <path class="st9" d="M212.95,91.3c-.51,0-.95-.18-1.32-.55-.37-.37-.55-.81-.55-1.32s.18-.95.55-1.31c.37-.37.81-.55,1.32-.55s.95.18,1.32.55c.37.36.55.8.55,1.31,0,.34-.09.66-.26.94-.17.28-.4.51-.68.68-.28.17-.59.25-.94.25Z"/>
  </g>
  <g>
    <rect class="st6" x="247.36" y="162.32" width="119.98" height="88.85" rx="9.01" ry="9.01" transform="translate(43.97 -53.71) rotate(10.75)"/>
    <text class="st10" transform="translate(277.65 186.99) rotate(10.75)"><tspan x="0" y="0">There is an</tspan><tspan x="-7.67" y="16.77">update in the</tspan><tspan x="-20.31" y="33.53">status of your pot</tspan></text>
  </g>
  <rect class="st4" x="2.81" y="1.5" width="600" height="430" rx="20" ry="20"/>
</svg>