<?xml version="1.0" encoding="UTF-8"?>
<svg xmlns="http://www.w3.org/2000/svg" xmlns:xlink="http://www.w3.org/1999/xlink" version="1.1" viewBox="0 0 605 433">
  <!-- Generator: Adobe Illustrator 29.2.0, SVG Export Plug-In . SVG Version: 2.1.0 Build 108)  -->
  <defs>
    <style>
      .st0, .st1, .st2, .st3, .st4, .st5, .st6, .st7 {
        fill: none;
      }

      .st1 {
        stroke: #696969;
      }

      .st1, .st2, .st3, .st4, .st6 {
        stroke-linecap: round;
        stroke-linejoin: round;
      }

      .st8 {
        fill: #f1f1f1;
      }

      .st9, .st10, .st11 {
        fill: #fff;
      }

      .st9, .st10, .st5, .st7 {
        stroke-miterlimit: 10;
      }

      .st9, .st7 {
        stroke: #535cd4;
      }

      .st12 {
        fill: #dfdfdf;
      }

      .st2 {
        stroke: #c3c3c3;
      }

      .st13 {
        fill: #919191;
      }

      .st3 {
        stroke: #5c5c5c;
      }

      .st14 {
        fill: #606060;
      }

      .st15 {
        fill: #757575;
      }

      .st4, .st10 {
        stroke: #000;
      }

      .st16 {
        isolation: isolate;
      }

      .st17 {
        fill: #8aaf15;
      }

      .st18 {
        mix-blend-mode: multiply;
      }

      .st19 {
        fill: #3d3d3d;
      }

      .st20 {
        fill: #515902;
      }

      .st21 {
        fill: #6d7f00;
      }

      .st22 {
        fill: #666;
      }

      .st23 {
        fill: #878787;
      }

      .st5 {
        stroke: #646464;
      }

      .st6 {
        stroke: #b1b1b1;
      }

      .st24 {
        opacity: .1;
      }

      .st25 {
        fill: #8b9937;
      }

      .st7 {
        stroke-width: 3px;
      }

      .st26 {
        fill: #383838;
      }

      .st27 {
        fill: #afd354;
      }

      .st28 {
        fill: #afafaf;
      }

      .st29 {
        fill: #5c7008;
      }

      .st30 {
        fill: #8c8c8c;
      }

      .st31 {
        fill: #191919;
      }

      .st32 {
        fill: #c2c2c2;
      }

      .st33 {
        clip-path: url(#clippath);
      }

      .st34 {
        fill: #b2b2b2;
      }
    </style>
    <clipPath id="clippath">
      <rect class="st0" x="175.89" y="12.45" width="253.22" height="418.17"/>
    </clipPath>
  </defs>
  <g class="st16">
    <g id="Layer_1">
      <g>
        <rect class="st9" x="2.5" y="1.08" width="600" height="430" rx="20" ry="20"/>
        <g class="st24">
          <g>
            <g>
              <path class="st13" d="M138.16,346.43c-3.16-26.31-6.31-52.62-9.47-78.92-1.07-8.9-1.65-19.25,4.86-25.42,7.34-6.94,20.21-4.03,26.92,3.51,6.71,7.55,8.75,18.08,9.99,28.1,3.08,24.94,2.87,50.28-.62,75.17-11.35-2.53-23.18-2.96-31.68-2.44Z"/>
              <g>
                <path class="st2" d="M140.16,252.39c-1.85,12.73-.29,25.68,1.26,38.44,2.09,17.21,4.19,34.42,6.28,51.63"/>
                <path class="st2" d="M155.3,255.3c8.19,29.28,12.58,59.62,13.04,90.01"/>
                <path class="st1" d="M131.47,252.97c-2.59-.5-5.18-.99-7.77-1.49"/>
                <path class="st1" d="M130.98,278.75c-1.76.39-3.53.77-5.29,1.16"/>
                <path class="st1" d="M135.61,311.48c-2.42.99-4.85,1.98-7.27,2.97"/>
                <path class="st1" d="M138.58,331.87c-2.37.15-4.73.31-7.1.46"/>
                <path class="st1" d="M145.85,264.71c-2.64-.77-5.29-1.54-7.93-2.31"/>
                <path class="st1" d="M146.18,288.34c-2.09.55-4.19,1.1-6.28,1.65"/>
                <path class="st1" d="M152.43,245.17l5.28-5.46"/>
                <path class="st1" d="M167.17,262.72c2.15-.61,4.3-1.21,6.45-1.82"/>
                <path class="st1" d="M167.01,282.72c2.64-.11,5.29-.22,7.93-.33"/>
                <path class="st1" d="M170.81,308.01h6.61"/>
                <path class="st1" d="M154.94,319.08l9.09-.33"/>
                <path class="st1" d="M149.16,325.86c-2.09-.33-4.19-.66-6.28-.99"/>
              </g>
            </g>
            <path class="st14" d="M121.62,358.45v-19.85h66.5v19.85c0,13.97-11.33,25.3-25.3,25.3h-15.9c-13.98,0-25.3-11.33-25.3-25.3Z"/>
          </g>
          <g>
            <g>
              <g>
                <path class="st32" d="M520,331.09c-2.01-13.08.51-26.79,6.57-38.39,2.11-4.04,5.34-7.39,9.27-9.68,15.7-9.12,34.25-13.3,52.33-11.69-13.09,9.14-23.45,22.13-30.75,37.19l-15.7-.41c5.02.73,10.04,1.45,14.33,3.05-9.5,8.56-20.96,14.93-36.05,19.93Z"/>
                <path class="st30" d="M512.64,353.88c3.52-16.41,8.56-32.78,17.83-46.78,9.27-14,23.24-25.48,41.6-28.94-15.95,5.26-29.78,16.25-39.36,30.05-9.58,13.8-15,30.29-16.51,47.01-.95-.91-1.89-1.83-3.56-1.34Z"/>
              </g>
              <g>
                <path class="st32" d="M508.22,315.29c8.36-13.25,13.64-28.43,15.33-44.01-4.88-.43-9.76-.86-14.64-1.29,4.71-.88,9.43-1.76,13.9-2.04-7.12-23.86-23.96-44.65-45.81-56.58,3.87,9.96,6.15,20.53,6.73,31.2,2.58-.89,5.35-1.19,8.05-.89-2.45.56-4.91,1.12-6.85,2.94-.09,17.12,2.77,34.26,9.53,50.67,2.57-.42,5.13-.85,7.7-1.27-2.22,1.33-4.45,2.67-6.67,4,1.91,6.83,6.2,12.98,12.73,17.27Z"/>
                <path class="st30" d="M505.65,358.08c5.47-42.89.4-77.8-10.57-115.22,8.3,17.68,12.46,37.06,14.35,56.49,1.89,19.43,1.55,39.01,1.21,58.53-1.55-.09-3.11-.18-4.99.2Z"/>
              </g>
              <g>
                <path class="st32" d="M489.34,292.85c-3.67,1.69-7.34,3.39-11.01,5.08,2.86-2.42,5.73-4.84,8.42-7.85-11.61-16.47-30.12-27.92-50.04-30.96,3.12,8.21,6.25,16.42,9.37,24.63,1.5-1.71,3.47-3.01,5.64-3.72-1.67,1.94-3.33,3.88-4.64,6.26,5.04,14.4,15.35,26.88,28.54,34.55,2.83-1.84,5.67-3.67,8.5-5.51-1.65,2.04-3.3,4.08-5.59,7.83,7.63,2.52,14.7,4.67,21.74,7.45-.23-2.07-2.1-24.6-10.93-37.76Z"/>
                <path class="st30" d="M508.27,359.39c.35-15.93-6.43-31.37-16-44.11-9.57-12.75-21.83-23.18-34.48-33.37,10.38,9.43,20.84,18.95,29.16,30.24,8.32,11.29,14.46,24.63,15.01,38.64.08,2.05.06,4.17.92,6.03.85,1.87,2.92,3.37,5.39,2.57Z"/>
              </g>
            </g>
            <g>
              <g>
                <polygon class="st23" points="477.69 383.75 465.09 351.3 524.59 351.3 524.59 383.75 477.69 383.75"/>
                <polygon class="st23" points="540.57 383.75 553.18 351.3 493.68 351.3 493.68 383.75 540.57 383.75"/>
              </g>
              <path class="st23" d="M462.1,354.71v-6.93c0-1.26,1.02-2.29,2.29-2.29h88.43c1.26,0,2.29,1.02,2.29,2.29v6.93c0,1.26-1.02,2.29-2.29,2.29h-88.44c-1.26-.01-2.28-1.03-2.28-2.29Z"/>
              <line class="st3" x1="468.6" y1="356.99" x2="547.75" y2="356.99"/>
            </g>
          </g>
          <g>
            <g>
              <g>
                <path class="st22" d="M64.4,310.27c-3.36-4.53-5.94-9.64-7.59-15.03-.58-1.9-1.02-4.07-.02-5.78s4.04-2.11,4.78-.27c-.79-2.36-2.18-4.47-3.32-6.68-1.14-2.21-2.08-4.65-1.84-7.13.23-2.48,1.93-4.96,4.38-5.4,2.45-.44,5.17,1.96,4.48,4.36-1.69-4.27-2.91-8.73-3.62-13.26-.35-2.22-.28-5.05,1.75-6.01,2.47-1.18,4.93,1.58,6.29,3.95-1.91-2.82-3.87-5.76-4.41-9.13s.79-7.28,3.91-8.65,7.53,1.37,6.82,4.71c-.47-2.16-1.3-4.23-1.81-6.38s-.69-4.48.14-6.53,2.88-3.72,5.09-3.55,4.08,2.66,3.2,4.69c.43-4.35,3.05-8.42,6.82-10.62,2.3-1.34,5.6-1.82,7.36.17,1.93,2.19.65,5.71-1.29,7.89-1.94,2.18-4.54,3.97-5.48,6.74,1.26-.94,2.57-1.9,4.12-2.19,1.54-.29,3.37.32,3.97,1.78.61,1.49-.27,3.16-1.21,4.46-2.92,4.06-6.77,7.44-11.17,9.81,1.58-.93,3.25-1.88,5.08-1.98,1.83-.09,3.87.98,4.21,2.78.29,1.58-.74,3.08-1.83,4.26-3.07,3.33-7.02,5.85-11.34,7.22,2-2.26,6.22-.99,7.35,1.81,1.14,2.8-.22,6.11-2.46,8.14s-5.18,3.06-8.03,4.03c2.01-1.91,5.69.26,5.97,3.01.28,2.76-1.67,5.25-3.82,6.99-2.16,1.74-4.67,3.11-6.34,5.32.13-1.61,2.42-2.36,3.75-1.42,1.32.93,1.61,2.86,1.1,4.4-.52,1.54-1.66,2.76-2.8,3.92-3.85,3.88-7.94,7.48-12.19,9.57Z"/>
                <path class="st28" d="M62.74,332.96c-1.43-34.09,7.27-68.5,25.35-99-15.36,30.14-23.71,64.23-22.24,97.51-1.41.01-1.81-.47-3.11,1.49Z"/>
              </g>
              <g>
                <path class="st22" d="M56.2,318.42c2.56-4.83,4.1-10.2,4.49-15.66.11-1.58.08-3.33-.93-4.55s-3.35-1.34-3.97.12c-.73-1.63-.61-3.5-.34-5.27.27-1.76.68-3.54.48-5.31-.2-1.77-1.15-3.6-2.82-4.23-1.67-.64-3.93.51-3.94,2.29-.34-2.39.03-4.82-.12-7.22-.16-2.4-1.02-4.98-3.09-6.22s-5.41-.2-5.66,2.2c.18-2.81.36-5.71-.55-8.38s-3.19-5.08-6-5.24-5.63,2.74-4.69,5.4c-.86-4.25-2.95-8.24-5.94-11.38-1.28-1.34-2.95-2.6-4.79-2.38s-3.21,2.79-1.82,4.01c-1.75-2.26-3.97-4.46-6.81-4.86-2.83-.4-6.1,1.96-5.6,4.77.7,3.87,6.94,4.43,7.95,8.23-1.12-1.47-3.74-.94-4.61.68-.87,1.63-.25,3.75,1.02,5.09s3.06,2.05,4.82,2.62c1.76.56,3.58,1.02,5.15,2-1.55-.96-3.77.44-4.03,2.24s.94,3.56,2.49,4.53c1.54.97,3.37,1.34,5.15,1.77,1.77.43,3.59.98,4.94,2.21-1.26-.21-2.56-.42-3.8-.13s-2.42,1.22-2.61,2.49c-.24,1.65,1.21,3.02,2.57,3.98,3.33,2.33,7.04,4.12,10.93,5.28-1.37-.16-2.8-.32-4.1.13-1.31.45-2.45,1.69-2.3,3.07.13,1.21,1.15,2.1,2.15,2.79,3.29,2.31,7.06,3.92,11.01,4.69-1.25-.19-2.56-.38-3.76.03-1.2.41-2.22,1.64-1.95,2.87.3,1.39,1.91,2,3.28,2.37,4.84,1.34,9.68,2.67,17.8,4.97Z"/>
                <path class="st28" d="M60.81,335.58c-4.42-33.53-19.39-58.52-47.07-76.48,20.83,16.17,40.87,41.32,43.8,75.62,1.74-.65,3.47-1.3,3.27.86Z"/>
              </g>
              <g>
                <path class="st22" d="M73.42,318.17c-1.69-3.92-2.1-8.38-1.17-12.55.3-1.32.79-2.7,1.89-3.49s2.95-.62,3.48.63c-1.07-3.86-.85-8.07.61-11.81.74-1.9,2.03-3.85,4.03-4.24s4.25,1.95,3.1,3.63c.03-3.45,1.37-6.88,3.69-9.44,1.15-1.27,2.71-2.39,4.42-2.23,1.7.16,3.17,2.22,2.22,3.65,1.31-3.42,3.84-6.36,7.03-8.16,1.35-.76,3-1.33,4.43-.73s2.1,2.83.83,3.72c3.07-1.94,6.97-2.52,10.47-1.55,1.67.46,3.52,1.73,3.28,3.44-.16,1.1-1.14,1.88-2.08,2.49-3.39,2.2-7.21,3.74-11.17,4.52,1.6-.24,3.27-.47,4.79.06,1.53.53,2.83,2.07,2.51,3.65-.33,1.63-2.09,2.49-3.66,3.05-3.74,1.35-7.6,2.41-11.51,3.16,1.46-1.18,3.91.11,4.24,1.95s-.94,3.68-2.56,4.61c-1.62.94-3.54,1.19-5.39,1.46-1.85.28-3.77.62-5.3,1.71.79-1.55,3.41-1.25,4.24.28.83,1.53.15,3.52-1.1,4.72-1.26,1.2-2.96,1.8-4.6,2.36-5.69,1.96-11.38,3.9-16.72,5.11Z"/>
                <path class="st28" d="M69.78,332.96c3.91-23.6,18.77-43.98,38.14-51.5-14.73,6.97-31.4,27.62-35.4,50-1.55-.31-1.86-.65-2.74,1.5Z"/>
              </g>
            </g>
            <g>
              <path class="st23" d="M36.2,360.55v-39.53h61v39.53c0,12.81-10.38,23.19-23.19,23.19h-14.61c-12.81.01-23.2-10.38-23.2-23.19Z"/>
              <line class="st3" x1="36.2" y1="330.12" x2="97.2" y2="330.12"/>
              <line class="st3" x1="36.2" y1="341.12" x2="97.2" y2="341.12"/>
              <line class="st3" x1="36.2" y1="352.12" x2="97.2" y2="352.12"/>
              <line class="st3" x1="36.2" y1="362.43" x2="97.2" y2="362.43"/>
              <line class="st3" x1="39.7" y1="373.09" x2="93.7" y2="373.09"/>
            </g>
          </g>
          <g>
            <rect class="st15" x="2.5" y="383.75" width="600" height="22.25"/>
            <rect class="st34" x="2.5" y="404.93" width="600" height="26.15"/>
          </g>
        </g>
        <g class="st33">
          <g>
            <g>
              <g>
                <path class="st10" d="M250.42,293.63l-2.68,6.63-1.7,4.19-17.26,42.69s-34.85-11.7-34.7-12.45c.09-.44,8.52-21.8,15.55-39.54,1.66-4.21,3.25-8.22,4.62-11.69,2.79-7.03,4.71-11.89,4.71-11.89l31.45,22.05Z"/>
                <path class="st19" d="M247.74,300.26l-1.7,4.19c-12.71.92-25.69-2.39-36.41-9.3,1.66-4.21,3.25-8.22,4.62-11.69,10.99,5.39,22.11,10.52,33.35,15.36l.13,1.43Z"/>
              </g>
              <path class="st8" d="M214.89,274.13l-3.99,14.78s18.97,16.79,36.87,15.99l4.42-9.91-37.3-20.85Z"/>
              <g>
                <path class="st10" d="M418.25,347.14c0,5-43.62,5.63-43.62,5.63l-14.43-43.38-4.61-14.89-1.07-3.47,33.88-18.18s2.32,6.33,5.49,15.17c.13.36.25.72.38,1.07,6.97,19.45,23.99,54.68,23.99,58.04Z"/>
                <path class="st19" d="M393.87,288.03c-13.78,3.69-26.12,6.14-38.29,6.48l4.61,14.89c13.26-2.45,25.62-9.77,34.06-20.29l-.38-1.07Z"/>
              </g>
              <path class="st8" d="M391.93,272.86l3.32,15.41s-12.52,14.69-38.58,14.69l-6-14.88,41.25-15.22Z"/>
              <g>
                <g>
                  <path class="st12" d="M290.6,207.03s-37.71,3.24-41.58,3.41c0,0-11.22,43.57-9.14,63.93,2.09,20.36,15.75,45.28,15.75,45.28,0,0,39.94,10.62,95.32-.86,0,0,9.33-33.78,8.63-50.92-.51-12.26-9.09-63.09-9.09-63.09l-22.99,1.21-36.89,1.03Z"/>
                  <path class="st12" d="M258.66,314.78s-60.02,65.18-64.71,124.5l168.67-1.59s-8.98-97.06-11.68-121.79l-92.28-1.12Z"/>
                  <path class="st12" d="M254.35,220.09l-4.45-9.42s-6.92-6.03-15.75-.22c-9.67,6.38-29.08,48.75-28.61,55.73.92,13.63,32.16,26.93,46.32,26.93l2.49-73.02Z"/>
                  <path class="st12" d="M345.98,212.34l2.45-7.45s5.58-3.98,13.23-2.65c7.65,1.33,37.43,53.86,37,65.75-.3,8.42-27.69,26.11-41.92,22.26"/>
                </g>
                <g>
                  <path class="st6" d="M256.9,319.61c29.81,8.34,62.05,7.75,91.54-1.65"/>
                  <path class="st6" d="M243.79,228.11c-4.67,20.78-4.83,42.56-.49,63.42"/>
                  <path class="st6" d="M235.12,244.22c-.1,6.58,1.58,13.19,4.82,18.92"/>
                  <path class="st6" d="M219.8,282.2c-3.36-3.85-5.02-9.12-4.47-14.19"/>
                  <path class="st6" d="M235.44,289.18c-2.01-1.92-3.15-4.71-3.06-7.49.03-.97.2-1.97-.1-2.88-.33-1.04-1.21-1.84-2.2-2.3s-2.08-.66-3.16-.84c-1.11-.19-2.49-.27-3.13.66-.52.75-.24,1.78.15,2.6.77,1.63,1.91,3.09,3.32,4.22"/>
                  <path class="st6" d="M352.4,220.92c5.81,21.75,7.72,44.97,5.31,67.36"/>
                  <path class="st6" d="M363.69,240.27c.66,7.55-1.04,15.29-4.82,21.87"/>
                  <path class="st6" d="M386.74,263.4c2.32,6.04,2.18,13-.42,18.92"/>
                  <path class="st6" d="M370.05,289.72c1.31-1.64,1.51-3.88,1.56-5.98s.04-4.3,1.05-6.14c.78-1.43,2.25-2.56,3.88-2.62s3.3,1.15,3.49,2.77c.17,1.57-.95,2.95-2,4.13"/>
                  <path class="st6" d="M247.18,392.06c11.25,20.17,32.15,35.14,55.64,39.86"/>
                </g>
              </g>
              <g>
                <path class="st10" d="M330.91,241.49c-10.76,7.73-38.78,10.78-56.35,4.04-17.56-6.74-17.79-35.8-17.79-35.8,12.73-1.14,22.16-2.96,23.2-3.99.2-.2.33-1.16.42-2.59h0c.38-6.06-.05-20.39-.05-20.39l15.76.83,18.62.98s.03.42.07,1.14c.06.81.15,2.01.27,3.4.45,5.12,1.36,12.93,2.88,14.23,2.29,1.98,24.58,1.98,24.58,1.98,0,0,1.34,26.87-11.59,36.17Z"/>
                <path class="st19" d="M315.05,189.11c-3.93,5.5-9.49,9.84-15.8,12.28-5.97,2.31-12.57,2.9-18.86,1.76h0c.38-6.06-.05-20.39-.05-20.39l15.76.83c6.11.58,12.31,1.26,18.69,2.12.06.81.15,2.01.27,3.4Z"/>
              </g>
              <g>
                <g>
                  <path class="st10" d="M247.51,141.61c-1.59-2.48-3.23-5.03-5.64-6.74-2.4-1.7-5.78-2.39-8.3-.89-2.95,1.76-3.74,5.71-3.49,9.13.45,6.1,3.33,11.98,7.86,16.1s10.66,6.4,16.78,6.26c-1.17-8.31-2.72-16.82-7.21-23.86Z"/>
                  <path class="st10" d="M337.39,129.97c.78-2.84,1.6-5.76,3.39-8.1,1.79-2.34,4.81-3.99,7.67-3.3,3.34.8,5.8,4.54,6.57,7.89,1.6,6.93-.04,12.4-3.16,17.66-3.11,5.26-7.8,9.33-14.32,10.78-1.34-8.29-2.39-16.88-.17-24.93Z"/>
                </g>
                <path class="st10" d="M248.08,150.6s-55.33-95.11,26.85-106.85c93.44-13.35,63.67,97.65,63.67,97.65,14.21,29.36-23.72,51.25-38.89,53.74-16.97,2.55-58.7-19.97-51.63-44.54Z"/>
                <g>
                  <g>
                    <path class="st31" d="M269.65,186.19c-7.12-4.18-16.55-12.03-20.54-21.26-5.65-1.23-11.89-5.63-14.91-10.03-3.02-4.4-4.72-10.02-3.89-15.29,7.37.66,14.2-3.21,16.56-10.03,2.36-6.83,2.3-14.38,5.17-21,2.2-5.08,5.99-9.31,8.5-14.25,5.13-10.09,4.46-22.13,2.1-33.86-2.67-6.38-7.05-8.14-15.03-11.81-24.5,0-35.82,31.09-29.67,59.83,1.85,8.63,5.69,17.72,2.39,25.91-2.25,5.6-7.73,10.58-6.47,16.49.93,4.33,5.3,7.19,6.62,11.42,1.58,5.07-1.55,10.23-3.79,15.04-2.25,4.81-3.17,11.55,2.67,15.26,4.14-3.13,10.05-1.94,14.87-.03,4.82,1.91,9.79,4.47,14.91,3.66,8.42-1.35,13.57-10.7,20.49-10.07Z"/>
                    <path class="st31" d="M324.29,183.41c4.15,2.67,9.38,2.4,14.27,1.75s9.67-2.12,14.59-2.53c4.92-.42,10.23.36,13.96,3.59,6.97-7.92,6.29-18.38,3.49-26.96-2.81-8.58-7.37-16.8-7.82-25.82-.28-5.44.99-10.87,2.73-16.04,1.42-4.24,3.19-8.81,1.74-13.03-1.7-4.95-7.1-7.44-10.56-11.35-4.01-4.54-5.3-10.86-5.65-16.92-.35-6.05.07-12.18-1.21-18.11-2.67-12.3-12.66-22.21-24.33-26.87-11.68-4.67-24.81-4.62-37.15-2.17-16.4,3.27-31.94,10.74-45.24,22.3,3.57,8.41,7.15,16.81,11.64,24.05,2.13,5.1,7.11,8.62,12.44,10.12s10.98,1.24,16.47.55c5.22-.66,11.15-1.49,15.15,1.93,3.48,2.97,4.08,8.04,6.22,12.1,2.58,4.89,7.69,8.34,13.19,8.9,3.73.38,7.58-.49,11.22.42,6.44,1.61,9.69,7.43,12.55,13.54,3.85,1.94,7.84,3.2,12.24,2.39,5.49,13-6.94,27.01-12.51,28.03-.25,12.21-6.99,22.32-17.43,30.14Z"/>
                  </g>
                  <g class="st18">
                    <path class="st5" d="M234.95,70c-6.57,8.07-6.63,19.51-5.72,29.87s2.37,21.33-2.03,30.76c-1.91,4.08-4.89,7.84-5.33,12.32-1.03,10.39,11.77,18.41,10.63,28.78-.35,3.19-2.02,6.05-3.22,9.02-1.21,2.97-1.95,6.45-.48,9.3"/>
                    <path class="st5" d="M243.43,167.07c2.91,4.18,2.74,9.68,2.63,14.78s.15,10.71,3.62,14.44"/>
                    <path class="st5" d="M252.33,80.84c-6.14,10.49-12.49,21.89-11.35,34,.4,4.32,1.77,8.53,1.85,12.86.08,4.33-1.5,9.12-5.36,11.11"/>
                    <path class="st5" d="M319.58,52.31c6.24,1.19,11.17,6.24,14.03,11.91,2.87,5.67,4.05,12.02,5.55,18.2,1.5,6.18,3.47,12.45,7.55,17.32,2.92,3.48,6.82,6.13,9.23,9.97,3.22,5.14,3.27,11.64,2.41,17.65-.86,6-2.51,11.95-2.35,18,.17,6.32,2.29,12.41,3.08,18.68.79,6.27-.09,13.34-4.75,17.59"/>
                    <path class="st5" d="M346.38,160.03c.14,8.59-2.6,17.21-7.67,24.14"/>
                    <path class="st5" d="M316.85,85.15c-1.34,3.88.93,8.22,4.13,10.79,3.2,2.57,7.21,3.86,10.94,5.56,3.74,1.7,7.48,4.07,9.14,7.83,1.23,2.78,1.15,5.94,1.82,8.91.66,2.97,2.52,6.11,5.52,6.56"/>
                  </g>
                </g>
              </g>
            </g>
            <g>
              <path class="st20" d="M333.47,288.04c-1.25-4.62-5.36-6.46-9.24-3.7-2.33,1.65-4.37,4.07-5.78,6.58-4.54,8.05-5.73,16.96-5.67,26.06.01,1.7-.99,1.69-2.04,1.57-.18-3.22.25-6.54.93-9.91,1.11-5.49-.41-10.56.85-16.01,2.31-9.92,4.86-19.78,7.02-29.73,1.1-5.06,1.55-10.27-.26-15.33-1.49-4.17-5.25-5.03-7.98-1.61-2.24,2.81-4.36,5.91-5.7,9.22-3.51,8.64-4.25,17.76-3.6,27.02.17,2.43.35,4.86.53,7.29-.86-1.65-1.36-3.35-1.8-5.06-1.52-6.02-3.05-12.02-1.9-18.33,1.94-10.59,3.93-21.17,5.68-31.79,1.05-6.38,1.47-12.84-.4-19.19-1.36-4.62-5.08-5.53-8.1-1.81-1.94,2.4-3.61,5.17-4.76,8.03-.66,1.64-1.16,3.33-1.63,5.09-.66-6.75-.62-12.5.98-19.33,2.09-8.92,4.22-17.84,5.81-26.85.58-3.31-.14-6.9-.62-10.32-.3-2.2-1.73-3.96-4.06-4.4-2.3-.43-3.8,1.01-5.06,2.74-4.22,5.79-5.52,12.52-6.1,19.43-.67,7.97-.18,16.41,1.22,24.49-.9-2.83-1.98-5.62-3.17-8.33-.97-2.21-2.98-4.17-5.87-3.52-2.75.62-4.75,3.1-5.09,5.61-.71,5.27.55,10.5,1.66,15.19,2.16,9.13,7.56,16.62,13.95,23.35,3.46,3.64,4.36,8.42,6.23,12.81-1.51-1.14-2.75-2.48-4.13-3.67-3.15-2.71-6.37-1.89-7.82,2.02-2.1,5.69-.28,10.93,2.41,15.83,4.06,7.41,10.38,12.9,16.42,18.64,2.29,2.18,3.48,5.17,4.56,8,1.07,2.84,1.47,5.54,1.69,8.21-3.28-5.64-7.61-10.52-13.21-14.43-2.99-2.09-6.49-3.84-10.01-4.74-5.66-1.44-9.41,2.71-8.21,8.45.17.82.46,1.63.74,2.43,2.04,5.83,5.57,10.77,10.07,14.81,8.01,7.19,16.32,14.03,24.52,21,3.86,3.28,7.13,7.01,8.96,11.82,1.75,4.6,3.5,9.2,5.31,13.77.46,1.17,1.18,2.23,1.77,3.34.25-.13.5-.25.75-.38-.28-.73-.54-1.48-.86-2.2-4.58-10.4-5.15-20.48.32-31.07,4.14-8.01,7.06-16.71,9.94-25.3,1.69-5.04,2.21-10.48.77-15.82ZM286.58,234.52s0,.02,0,.03c-.03,0-.02,0,0-.03ZM308.36,319.85c0,.07,0,.14,0,.22-.04-.1-.07-.2-.11-.3.02,0,.05.03.1.08ZM308.47,320.17s.05.01.05.01c-.01,0-.03,0-.05-.01Z"/>
              <path class="st25" d="M324.33,342.47c-1.91,1.47-5.51,5.22-7.46,6.73-.68-1.15-1.33-2.18-1.91-3.26-1.69-3.14-12.51-15.09-8.05-41.78.71-4.23,7.47-22.01,19.47-34.97.11-.2.22-.39.29-.63-11.13,9.03-23.61,14.28-38.09,13.92,11.33-4.94,22.68-9.9,34.03-14.85l-.06-.17c-1.08.3-2.15.65-3.24.9-2.5.57-5.01,1.14-7.53,1.64-2.18.43-4.37.79-6.56,1.16-1.98.33-3.97.59-5.94.94-2.36.42-4.71.87-7.05,1.37-3.3.71-6.51,1.72-9.66,3.03.62-1.28,5.35-4.61,8.69-6.19,3.23-1.53,6.61-2.63,10.07-3.6-.36-.02-.72-.08-1.08-.07-4.43.14-8.84-.07-13.23-.73-3.77-.57-7.45-1.52-10.95-3.06-.05-.02-.1-.06-.16-.1,1.13.01,2.23.03,3.33.03,1.38,0,2.77.06,4.15,0,3.36-.15,6.71-.35,10.07-.55,2.1-.13,4.2-.3,6.31-.45,2.2-.15,4.4-.38,6.6-.42,3.31-.07,6.62,0,9.94,0,.15,0,.3-.02.48-.15-.16-.06-.33-.13-.49-.16-7.67-1.72-15.21-3.94-22.76-6.11-4.98-1.43-9.97-2.86-15.1-3.64-2.92-.44-5.87-.72-8.68-1.06.24-.06.64-.18,1.04-.28.41-.11.83-.21,1.25-.29,2.53-.51,5.08-.79,7.66-.89,3.38-.12,6.73.11,10.08.58,8.35,1.18,16.33,3.73,24.17,6.74.6.23,1.2.46,1.85.56-.44-.21-.87-.44-1.32-.62-5.87-2.4-11.73-4.83-17.63-7.17-8.85-3.52-17.74-6.95-26.31-11.12-.21-.1-.42-.21-.65-.32.64-.15,7.55,1.02,12.89,2.3,4.26,1.02,8.51,2.13,12.72,3.34,4.21,1.21,8.29,2.82,12.34,4.54-11.24-7.7-20.49-17.25-27.33-29.09,3.29,2.87,6.54,5.79,9.87,8.61,3.37,2.85,6.79,5.64,10.25,8.39,3.43,2.72,2.3.17-1.4-3.52-4.1-4.09-7.85-8.49-10.87-13.46-.78-1.28-1.48-2.6-2.13-3.94,5.53,4.12,11.06,8.24,16.58,12.36.06-.05.12-.1.18-.14-4.92-6.64-9.38-13.54-12.17-21.39,6.95,6.96,13.89,13.92,20.94,20.98-4.18-9.3-8.32-18.51-12.46-27.71,4.79,4.38,8.95,9.26,12.67,14.52,3.71,5.24,6.88,10.78,9.69,16.57-4.25-13.95-7.4-28.12-8.89-42.67.98,2.01,1.99,4,2.95,6.02.98,2.06,1.94,4.13,2.86,6.22.91,2.07,1.79,4.15,2.64,6.25.86,2.11,1.69,4.24,2.48,6.37.79,2.1,1.52,4.22,2.32,6.31-.64-11.94-.52-23.81,2.76-35.44.93,10.6,2.74,21.08,4.15,31.62.05,0,.1,0,.15-.01.02-.63.05-1.26.06-1.89.03-1.93,0-3.86.07-5.79.09-2.43.2-4.86.41-7.29.28-3.12.56-6.25,1.07-9.33.51-3.09,1.29-6.14,1.95-9.2.01-.05.05-.1.08-.17.11,1.02.22,2.02.31,3.02.29,3.07.56,6.14.87,9.2.25,2.4.57,4.8.83,7.2.33,2.96.65,5.93.96,8.9.12,1.12.2,2.25.3,3.38.02.19.04.38.14.57,2.99-10.91,5.98-21.82,8.97-32.73.07.02.14.03.21.05.58,12.06-.42,24.01-2.58,35.88.06.01.11.02.17.03,4.04-11.57,8.07-23.14,12.11-34.71,0,10.57-1.37,20.95-3.88,31.18l.18.06c4.98-9.77,9.96-19.54,14.94-29.32-2.18,14.18-6.54,27.66-12.56,40.64,7.95-10.66,15.89-21.31,23.84-31.97-.02,1.31-3.93,10.78-6.14,15.34-2.41,4.97-5.08,9.8-7.95,14.52.05.04.1.08.15.12,3.14-3.25,6.27-6.52,9.42-9.76,3.17-3.26,6.35-6.5,9.58-9.7-4.91,10.36-11.18,19.82-18.39,28.73,8.79-7.04,18.02-13.29,28.72-17.1-9.69,7.61-18.23,16.46-27.18,24.91,9.99-5.89,20.25-11.21,30.92-15.74-9.47,8.57-19.55,16.34-30.18,23.43,10.44-4.69,20.97-9.13,31.92-12.51-11.51,8.65-23.54,16.43-36.9,22.34,12.17-1.82,24.14-3.61,36.12-5.4.01.06.02.12.04.18-12.67,6.78-26.16,10.96-40.41,12.88,13.95.03,27.84.84,41.63,2.97-2.22.24-4.44.49-6.66.71-2.21.22-4.43.44-6.64.59-4.25.29-8.5.57-12.75.76-3.1.14-6.2.12-9.3.15-1.21.01-2.43-.05-3.66.02,10.65,2.13,21.16,4.75,31.43,8.32-15.41-.49-30.67-2.16-45.61-6.12,14.05,6.31,28.11,12.62,42.16,18.93-.03.07-.06.14-.09.21-14.46-2.11-28.2-6.48-41.18-13.26,5.44,3.78,10.93,7.51,16.32,11.36,5.4,3.86,10.62,7.95,15.62,12.33-12.71-5.12-24.71-11.52-35.63-19.87,8.75,9.16,17.2,18.56,24.72,28.77-5.73-3.8-11.13-8.02-16.35-12.5,1.44,2.24,2.91,4.45,4.3,6.71,1.4,2.27,2.62,4.64,3.62,7.12-7.79-7.81-16.1-15.1-22.8-23.96,3.27,7.64,6.04,15.44,7.75,23.58-5.91-7.95-10.98-16.37-14.72-25.57-.07.02-.13.03-.2.05.23,4.28.54,8.56.66,12.85.12,4.3.06,8.6,0,12.9-3.14-6.93-5.06-14.16-5.89-21.71-.7,4.9-1.1,9.81-1.52,14.73-2.87-5.83-3.91-12.02-3.75-18.5-.08.16-.18.32-.24.49-2.73,7.38-6.67,11.74-8.03,19.51-.5,2.84-4.56,20.11,9.89,36.47Z"/>
              <g>
                <g>
                  <path class="st27" d="M285.95,281.43c-4.15,3.15-7.71,7.2-11.26,10.92,2.75-6.48,6.12-12.93,10.88-18.28-.13-1.75-.3-3.54-.5-5.36-1.03-9.28-3.13-17.83-5.94-25.59-2.26,4.21-4.98,8.09-8.82,10.8,2.84-6.34,3.34-13.09,5.06-19.83-2.1-4.47-4.43-8.61-6.89-12.41-.71,3.17-1.62,6.38-3.87,9.09.53-5.76-.78-11.28-1.59-16.73-3.45-4.38-7.02-8.13-10.51-11.23-.43,3.45-.49,7.07-3.08,9.21.49-4.3-.24-8.34-.66-12.31-5.46-4.22-10.51-6.72-14.28-7.34-2.51,5.86-3.04,14.59-1.92,24.89,7.23,1.05,14.29,4.05,20.29,8.06-6.51-1.76-13.02-3.51-19.74-3.76,1.08,7.43,2.93,15.53,5.44,23.88,3.99-.03,7.87,2.37,11.48,3.2-3.51.85-6.98.04-10.47.04,1.73,5.42,3.72,10.91,5.95,16.37.65,1.59,1.3,3.21,1.94,4.85,5.68,2.03,10.93,4.93,16.16,8.08-4.67-.81-9.31-2.41-14.19-2.94.5,1.33.99,2.67,1.48,4.02,5.72,1.4,11.29,3.28,15.88,6.67-4.75-1.86-9.53-2.61-14.55-2.93,9,25.61,16.06,53.78,14.18,65.21,5.78-8.34,6.53-9.8,6.53-9.8,0,0,9.34-12.75,12.22-37.9-2.94,1.58-5.3,4.18-6.68,7.05,1.23-4.02,4.05-7.68,7.07-11.01.38-4.6.53-9.57.39-14.92Z"/>
                  <path class="st27" d="M270.45,270.78c-6.16-45.91-35.93-78.42-35.93-78.42-2.51,5.86-3.04,14.59-1.92,24.89,7.23,1.05,14.29,4.05,20.29,8.06-6.51-1.76-13.02-3.51-19.74-3.76,1.08,7.43,2.93,15.53,5.44,23.88,3.99-.03,7.87,2.37,11.48,3.2-3.51.85-6.98.04-10.47.04,1.73,5.42,3.72,10.91,5.95,16.37.65,1.59,1.3,3.21,1.94,4.85,5.68,2.03,10.93,4.93,16.16,8.08-4.67-.81-9.31-2.41-14.19-2.94.5,1.33.99,2.67,1.48,4.02,5.72,1.4,11.29,3.28,15.88,6.67-4.75-1.86-9.53-2.61-14.55-2.93,9,25.61,16.06,53.78,14.18,65.21,5.78-8.34,8.53-43.52,4.01-77.22Z"/>
                </g>
                <path class="st27" d="M265.84,347.78c.56-1.52,1.03-3.14,1.45-4.75.43-1.61.8-3.24,1.15-4.87l.5-2.46c.16-.82.29-1.65.44-2.47.3-1.64.52-3.31.76-4.96.91-6.63,1.4-13.33,1.63-20.03l.08-2.51c.03-.84.05-1.68.05-2.51v-5.03c.02-.84,0-1.68-.03-2.51l-.07-2.51c-.05-1.68-.06-3.35-.17-5.03-.19-3.35-.32-6.71-.64-10.04-.06-.84-.17-1.67-.26-2.5l-.29-2.5-.36-2.49c-.12-.83-.24-1.66-.39-2.48-2.21-13.23-6.35-26.11-11.93-38.32-2.79-6.11-5.95-12.04-9.41-17.8-3.46-5.75-7.28-11.29-11.3-16.67,4.07,5.35,7.93,10.86,11.44,16.59,3.51,5.73,6.72,11.65,9.57,17.74,5.68,12.18,9.94,25.07,12.27,38.34.16.83.29,1.66.41,2.49l.38,2.5.31,2.51c.1.84.22,1.67.28,2.51.35,3.35.51,6.71.72,10.07.13,1.68.15,3.36.21,5.04l.09,2.52c.03.84.06,1.68.06,2.52l.03,5.05c.01.84,0,1.68-.03,2.52l-.06,2.52c-.17,6.73-.61,13.46-1.48,20.15-.23,1.67-.44,3.34-.73,5-.14.83-.26,1.67-.42,2.5l-.48,2.49c-.34,1.65-.7,3.3-1.13,4.94-.42,1.65-.87,3.26-1.46,4.9l-1.19-.46Z"/>
              </g>
              <g>
                <path class="st29" d="M370.75,230.75c4.89-12.91,8.77-23.88-1.43-24.24-5.31-.19-10.96,2.11-16.39,5.91-.95,3.71-.84,7.62-1.78,11.12-.96-2.19-2.1-4.8-3.15-7.2-6.52,5.8-12.39,13.5-16.49,21.23,2.04,9.03,4.42,17.52,7.54,26.28-4.85-5.08-8.46-10.7-11.59-16.9-.67,2.04-1.18,4.02-1.49,5.91-3.11,18.85-12.14,25.63-23.74,43.76-11.61,18.14,7.73,51.37,7.73,51.37-.63-5.52,8.19-18.99,22.71-31.25-4.91-.48-9.68-1.92-14.48-2.62,7.94-1.22,15.72-2.01,23.22-4.19,12.04-9.45,19.41-21.39,21.8-34.06-7.81,4.53-16.87,6.22-25.57,8.73,9.73-4.26,18.14-10,26.39-15.9.12-2.83,0-5.68-.37-8.54-.72-5.56,1.02-12.41,3.38-19.34-5.94,2.01-12.18,3.09-18.36,3.05,8.06-2.76,15.12-7.81,22.06-13.12Z"/>
                <g>
                  <path class="st29" d="M310.78,351.84s-.08.04-.12.06c-.35.13-.73-.05-.86-.39-4.45-12-1.36-40.19,12-54.54,1.07-1.15,2.09-2.23,3.08-3.27,10.95-11.59,16.44-17.4,17.34-39.93,1-24.86,26.08-44.03,26.33-44.22.31-.22.71-.16.94.13.22.29.16.71-.13.94-.25.19-24.83,18.99-25.8,43.21-.92,23.03-6.89,29.34-17.71,40.8-.98,1.04-2,2.12-3.07,3.26-12.83,13.77-15.96,41.75-11.73,53.17.11.3,0,.63-.27.8Z"/>
                  <g>
                    <path class="st29" d="M366.92,226.25s0,0,0,0l-19.89,11.81c-.19.11-.44.05-.55-.14-.11-.19-.08-.4.14-.55l19.89-11.81c.19-.11.44-.05.55.14.11.19.05.43-.13.54Z"/>
                    <path class="st29" d="M343.1,254.12s-.05.03-.07.04c-.21.08-.44-.03-.51-.24l-6.78-18.42c-.08-.21.03-.44.24-.51.21-.08.44.03.51.24l6.78,18.42c.07.18,0,.38-.16.48Z"/>
                    <path class="st29" d="M332.99,286.25s-.07.04-.11.05c-.21.06-.43-.07-.49-.28l-6.39-23.47c-.06-.21.07-.43.28-.49.21-.06.43.07.49.28l6.39,23.47c.05.17-.03.35-.17.44Z"/>
                    <path class="st29" d="M357.24,267.79s-.01,0-.02.01l-19,10.41c-.19.11-.44.04-.54-.16-.11-.19-.04-.45.16-.54l19-10.41c.19-.11.44-.04.54.16.1.19.04.42-.14.53Z"/>
                    <path class="st29" d="M342.89,298.06s-.07.04-.12.05l-25.26,6.28c-.22.05-.43-.08-.49-.29-.05-.22.08-.43.29-.49l25.26-6.28c.22-.05.43.08.49.29.04.17-.03.35-.18.44Z"/>
                    <path class="st29" d="M312.13,317.03s-.04.02-.05.03c-.2.09-.44,0-.53-.21l-7.32-16.88c-.09-.2.01-.44.21-.53.2-.09.44,0,.53.21l7.32,16.88c.08.18.01.4-.15.5Z"/>
                  </g>
                </g>
              </g>
              <g>
                <path class="st29" d="M314.35,285.83c-.85-2.96-2.11-5.78-3.76-8.43-6.8-10.9-.28-38.98-11.51-34.32-11.23,4.65-16.89,28.01-13.53,40.38.74,2.71,1.14,5.15,1.29,7.45,3.15,3.83,5.51,8.16,7,12.77-2.2-2.77-4.41-5.54-7.01-7.93-.43,6.2-2.31,12.14-3.57,21.04-2.03,14.31,19.05,29.2,19.05,29.2-2.2-3.66.25-17.12,7.74-30.44,4.96-8.81,6.56-17.88,5.12-26.17-2.87,3.35-5.93,6.49-10.39,7.93,4.14-2.86,6.92-7.09,9.57-11.47Z"/>
                <g>
                  <path class="st29" d="M303.72,348.26c-.17.1-.39.07-.54-.07-6.06-6.09-12.04-24.15-7.88-36.64.33-1,.66-1.95.97-2.86,3.45-10.13,5.18-15.21-.55-29.21-6.32-15.45,3.64-34.15,3.74-34.34.12-.22.39-.3.61-.18.22.12.3.39.18.61-.1.18-9.86,18.51-3.7,33.57,5.86,14.31,3.98,19.83.57,29.84-.31.91-.63,1.85-.96,2.85-3.99,11.99,1.9,29.94,7.67,35.73.17.18.17.46,0,.63-.03.03-.06.05-.1.07Z"/>
                  <g>
                    <path class="st29" d="M294.17,268.64c-.09.05-.2.05-.29-.01-.12-.09-.15-.25-.07-.37l8.85-12.76c.09-.12.25-.15.37-.07.12.09.15.25.07.37l-8.85,12.76s-.06.06-.09.08Z"/>
                    <path class="st29" d="M296.26,279.54c-.1.06-.24.04-.32-.05l-9.27-9.35c-.1-.11-.1-.28,0-.38.11-.1.28-.1.38,0l9.27,9.35c.1.11.1.28,0,.38-.02.02-.04.03-.06.04Z"/>
                    <path class="st29" d="M299.05,301.97c-.11.06-.25.04-.34-.06l-10.44-12.54c-.09-.11-.08-.28.03-.38.12-.09.28-.08.38.03l10.44,12.54c.09.11.08.28-.03.38-.01.01-.03.02-.04.03Z"/>
                    <path class="st29" d="M300,295.6c-.09.05-.2.05-.29-.02-.12-.09-.14-.26-.05-.38l8.7-11.65c.09-.12.26-.14.38-.05.12.09.14.26.05.38l-8.7,11.65s-.05.06-.08.07Z"/>
                    <path class="st29" d="M294.72,317.3c-.11.06-.26.04-.34-.07-.09-.12-.07-.29.04-.38l13.66-10.88c.11-.09.29-.07.38.04.09.12.07.29-.04.38l-13.66,10.88s-.02.02-.04.02Z"/>
                    <path class="st29" d="M294.9,326.58c-.1.06-.22.04-.31-.03l-9.17-8.26c-.11-.1-.12-.27-.02-.38.1-.11.27-.12.38-.02l9.17,8.26c.11.1.12.27.02.38-.02.02-.04.04-.07.05Z"/>
                  </g>
                </g>
              </g>
              <path class="st21" d="M207.27,269.87c5.81,3.36,11.72,6.54,18.29,8.15,4.01.99,8.09,1.7,11.99,3.09,2.66.95,5.19,2.19,7.79,3.31-4.52-3.64-9.7-6.23-14.56-9.32-4.9-3.12-9.75-6.31-14.19-10.08-3.4-3.47-5.49-7.79-7.7-12.03-.33-.63-.6-1.33-.74-2.03-.1-.5-.23-1.15.36-1.51.54-.32.96.12,1.36.37,1.8,1.13,3.18,2.78,4.85,4.07,6.38,7.26,15.78,13.06,18.83,13.58-3.77-3.03-6.1-9.29-8.28-13.06-3.71-6.43-7.34-12.92-9.89-19.93-.39-1.07-1.23-2.7-.36-3.25,1.02-.64,2.09.84,2.91,1.66,6.52,6.51,12.2,13.68,16.91,21.62,3.5,5.89,5.77,12.32,8.45,18.58.73,1.7,1.55,3.34,2.96,4.94-.4-2.53-.81-4.78-1.11-7.03-.96-7.14-1.97-14.28-.98-21.51.07-.51-.24-1.3.69-1.44.78,1.66,1.62,3.3,2.32,5,4.62,11.12,6.41,22.81,6.9,34.75.02.58.06,1.05.46,1.51.95,1.1,1.84,2.25,2.76,3.37.32.45.5,1.04,1.23,1.2-.63-4.21-.75-8.33-.38-12.44.59-6.46,1.27-12.9,1.9-19.35.32-3.34.46-6.67-.31-9.98,0-1.85-.76-3.65-.27-5.67.35.24.5.6.68.94.37.69.8,1.35,1.11,2.06,2.24,5.03,3.52,10.33,4.51,15.72,1.89,10.35.31,20.61-.79,30.88-.13,1.18-.49,2.42-1.32,3.39-.29.33-.43.59-.08,1,2.25,2.67,4.48,5.36,7.01,8.38-.66-7.26-.37-14.01.43-20.73.63-5.33,1.43-10.64,2.15-15.96.63-3.31.82-6.72,2.26-9.99,1.03.87,1.2,1.95,1.44,2.93,2.2,9.01,3.03,18.17,2.66,27.42-.27,6.88-2.31,13.4-4.65,19.83-.19.51-.54.96-.05,1.53,2.48,2.86,4.94,5.74,7.41,8.61-.42-4.59-1.07-9.04-1.35-13.54-.56-8.75-.59-17.45,2.1-25.93.82-2.6,1.56-5.24,2.93-7.64.2-.36.4-.91.96-.78.42.1.49.58.59.94.25.91.5,1.83.67,2.76,1.58,8.6,2.07,17.3,2.43,26,.23,5.59.32,11.2-.7,16.74-.36,1.92-.54,4.04-2.59,5.19-.69.39-.03.73.19.99,1.63,1.99,10.44,14.04,12.06,16.04.47.58-7.07-.7-6.17-.61-1.98-2.1-11.6-13.31-13.17-15.19-1.06-1.26-2.15-2.03-3.83-1.56-7.05.11-14.03-.35-20.83-2.48-9.12-2.86-17.97-6.3-25.93-11.7-1.18-.8-2.5-1.49-3.15-2.89.67.03,1.35,0,2.01.11,10.01,1.53,19.95,3.46,29.79,5.86,5.3,1.29,10.73,2.29,15.25,5.71.11.09.29.19.35.23-1.53-2.01-3.03-3.94-4.47-5.9-1.85-2.53-4.05-3.69-7.43-3.4-5.5.47-10.68-1.07-15.59-3.69-5.67-3.02-11.33-6.04-16.91-9.22-4-2.28-7.73-4.9-10.92-8.25-.07-.54-.75-.86-.4-1.92,14.82,4.38,29.2,9.88,43.61,16.54-.52-.68-.74-1-1-1.29-3.1-3.54-6.24-7.04-9.29-10.62-.75-.88-1.47-1.38-2.65-1.38-11.98-.07-22.45-4.56-32.1-11.23-4.24-2.93-7.77-6.63-10.58-11,.45.12.81.34,1.18.55Z"/>
              <path class="st17" d="M291.93,321.88s0,0,0,0c0,0,0,0,0,0-.01-.04-.03-.07-.04-.11-.52-1.61-1.22-3.16-1.99-4.67-.77-1.51-1.6-2.99-2.44-4.45-.01-.02-.03-.05-.04-.07,0,0,0,0,0,0,0,0,0,0,0,0-1.19-2.06-2.44-4.08-3.75-6.08-1.09-1.66-2.21-3.29-3.23-4.99-.98-1.62-1.86-3.3-2.77-4.97-2.61-4.75-6.13-8.73-10.34-12.11-.33-.27-.67-.53-1.02-.78,0,0,0,0,0,0-.02-.02-.05-.04-.07-.05-1.02-.75-2.07-1.45-3.11-2.17-1.32-.92-2.67-1.8-4.01-2.69-.53-.35-1.07-.7-1.61-1.04-.73-.47-1.47-.94-2.2-1.41-.13-.09-.28-.15-.49-.26-.01,0-.03-.01-.04-.02,0,.15,0,.29,0,.43,0,.37.02.7-.01,1.02-.1,1.17-.2,2.35-.31,3.52-.07.67-.14,1.33-.23,1.99-.06.43-.13.86-.2,1.29-.32,2.04-.7,4.07-1.02,6.11-.15.98-.24,1.95-.28,2.92,0,0,0,.02,0,.03-.02.47-.02.94-.01,1.41,0,.02,0,.04,0,.06,0,.2.01.4.02.61,0,0,0,0,0,0,0,0,0,0,0,0,.01.26.03.51.05.77,0,.03,0,.05,0,.08.04.46.09.92.15,1.38,0,.02,0,.04,0,.06.07.46.15.92.24,1.38,0,.02,0,.03,0,.05.1.46.21.93.34,1.39,0,.01,0,.02,0,.03.13.46.27.92.43,1.39,0,0,0,.01,0,.02.06.16.11.32.17.48.53,1.49,1.11,2.96,1.67,4.43.83,2.18,1.68,4.36,2.34,6.6,0,0,0,.01,0,.02,0,0,0,0,0,.01.22.75.41,1.5.58,2.26.32,1.48.91,2.88,1.64,4.22,1.03,1.91,2.07,3.81,3.11,5.71.01.02.03.04.04.07.08.13.17.26.28.4,0,0,0,0,0,0,0,0,0,0,0,0,.24-.07.45-.12.66-.19.39-.13.77-.25,1.16-.38.44-.15.88-.29,1.33-.44.91-.3,1.78-.66,2.64-1.07.4-.19.79-.39,1.18-.6.56-.3,1.12-.62,1.66-.95.11-.07,1.06-.81,1.69-1.32,0,0,0,0,0,0,0,0,0,0,0,0,.25-.16.51-.3.75-.48.09-.07.17-.14.26-.21.14-.12.28-.24.42-.36-.07.25-.19.46-.32.66-.03.05-.06.1-.09.14-.17.21-.34.43-.51.64-1.29,1.58-2.68,3.05-4.35,4.25-.28.2-.56.39-.85.57-1.21.75-2.42,1.53-3.72,2.13-.13.06-.24.15-.36.23,0,0,0,0,0,0,0,0,0,0,0,0,.02.05.03.1.04.14,0,0,0,0,0,0,.01.04.02.07.04.1.27.48.53.95.8,1.43.3.53.6,1.06.91,1.59.06.1.12.21.18.31.07.11.14.23.2.34.2.33.4.66.61.99.2.31.4.63.61.94.52.77,1.09,1.5,1.7,2.17,1.03,1.14,2.22,2.12,3.64,2.86.1.05.2.11.3.16.06.03.11.05.17.08.91.43,1.82.8,2.79,1.05.38.1.76.18,1.15.26,1.29.26,2.6.42,3.92.56.63.06,1.26.14,1.89.21.02.03.03.06.04.09.02.04.04.08.05.11.4,1.27.77,2.54,1.12,3.82.23.81.45,1.62.66,2.44.38,1.45.74,2.9,1.09,4.36.06.26.13.51.19.77.23.97.39,1.95.54,2.94.05.34.1.69.15,1.03.03.2.06.4.08.6.13.98.22,1.96.21,2.97,0,.09,0,.17,0,.26.25.49.42.69.7.71.1,0,.21,0,.33-.04.01-.03.03-.07.05-.1.02-.04.03-.08.03-.11-.21-3.33-.75-6.58-1.46-9.81-.77-3.49-1.73-6.94-2.68-10.4.09-.09.17-.18.25-.26.21-.21.42-.42.63-.62.27-.27.55-.53.82-.8.4-.4.8-.8,1.17-1.22,1.16-1.31,2.23-2.69,2.88-4.34.12-.3.23-.6.33-.9.08-.23.16-.45.24-.68.08-.23.16-.47.23-.7.29-.93.54-1.87.7-2.82.05-.28.09-.57.11-.86.2-2.23-.13-4.39-.81-6.51Z"/>
              <path class="st27" d="M338.99,315.87c4.37-.56,13.4-3.64,16.11-5.57,3.01-2.14,6.75-11.07,1.16-16.03-4.25,8.84-19.07,14.14-23.4,14.97-4.34.82-8.75-1.16.46-1.59,9.21-.43,19.96-10.4,19.96-10.4,0,0,1.2-6.3-4.84-13.28-.42,6.11-10.65,14.39-14.04,16-3.39,1.61-8.3-.19-.53-3.78,7.77-3.59,13.47-12.1,12.99-14.2-.48-2.1-3.12-11.92-9.3-13.83.31,2.92-.52,13.63-2.61,17.13s-6.84,4.95-4.65,1.6c4.14-4.73,7.22-14.46,5.41-23.83-11.94,3.59-12.24,7.96-12.55,10.73-.32,2.76,1.12,8.01-.57,7.78-1.69-.23-2.57-7.3-.21-12.51,0,0-1.35-.83-7.15.62-2.57,1.79-3.12,10.12-1.02,14.85,2.1,4.73,4.53,8,1.41,7.24-3.11-.76-4.17-10.4-3.12-17.12,0,0-4.72-1.78-8.66,1.93-1.41,3.92,2.58,15.3,5.99,17.72,3.4,2.42,5.2,6.81.58,4.01-4.61-2.8-9.95-13.97-12.81-21.13-3.84,1.4-9.75,5.26-10.98,8.99-.49,1.48-.22,3.1.44,4.69-2.34,2.16-5.47,9.12-3.59,12.8,1.98,3.88,8.64,9.34,14.62,10.5,5.98,1.16,9.68,4.24,2.68,4.51-6.99.28-18.35-5.94-20.04-10.58-.31,5.37,3.77,12.68,7.96,16.4.67-.1-1.27,4.3,4.29,7.09,5.56,2.8,9.19-4.77,10.79-1.95,1.6,2.82-6.08,5.91-12.31,7.88,4.16,5.56,18.44,1.04,18.44,1.04l1.31-.98c1.53-2.93,4.23,6.11,8.44,8.55,4.2,2.44,14.04,1.41,18.62-1.87-3.02-.23-9.16-4.61-11.34-7.22-2.18-2.61-2.37-6.23,1.01-2.17,3.38,4.07,8.61,8.31,11.16,8.8,2.54.49,9.45-.8,14.51-9.26-14.81.38-27.14-9.31-23.17-6.98,3.97,2.34,14.89,4.51,21.13,3.37,1.93-1.55,4.31-6.77,3.32-12.09-5.94,4.72-23.77,4.88-22.74,3.56s4.47.07,13.43-1.3c8.96-1.37,14.69-5.64,11.63-10.67-2.63,3.66-10,4.93-18.19,5.57ZM325.06,317.61c-3.06-1.04-1.25-5.19,2.12-4.56,3.38.63,6-.32,6-.32,5.21-2.01,6.28-.19,5.2,1.31-1.08,1.5-10.26,4.61-13.32,3.57ZM309.91,305.14c3.05,3.52,7.8,4.79,3.54,5.41s-7.75-3.52-11.32-8.51c-3.57-4.99,1.94-3.62,7.77,3.11ZM291.65,297.26c2.76,2.72,5.89,4.04,4.64,6.32-1.13,2.07-7.94-6.99-8.79-11.75,1.07,2.06,2.72,4.01,4.15,5.43ZM299.41,326.2c-3.06.24-2.85-2.86,4.33-4.26,7.18-1.39,6.73-4.38,6.73-4.38.02-.4-.16-1.31.69-1.07.85.24,2.09,1.98-.84,4.97-2.93,2.99-7.86,4.5-10.91,4.74Z"/>
              <rect class="st26" x="260.09" y="337.02" width="91.57" height="30.52" transform="translate(-18.31 16.77) rotate(-3.05)"/>
              <g id="DvVduW.tif">
                <g>
                  <path class="st11" d="M296.18,357.49c.1,0,.2,0,.3,0,2.16-.11,4.32-.23,6.48-.35.21-.01.28.04.29.26.11,2.18.23,4.35.34,6.53v.26c-2.35.13-4.69.25-7.04.38-.13-2.36-.25-4.71-.38-7.07ZM301.88,358.64c-1.41.08-2.8.15-4.2.22l.22,4.19c1.41-.08,2.8-.15,4.2-.22l-.22-4.19Z"/>
                  <path class="st11" d="M319.24,339.32l.38,7.05h-.26c-2.17.13-4.35.24-6.52.37-.22.01-.27-.05-.28-.26-.11-2.16-.23-4.32-.34-6.48,0-.1-.02-.2-.03-.3,2.36-.13,4.71-.25,7.07-.38ZM318.12,345.02l-.22-4.2-4.19.22.22,4.2c1.41-.07,2.8-.15,4.19-.22Z"/>
                  <path class="st11" d="M302.35,340.22c.01.31.02.62.03.93.05,1.01.11,2.01.16,3.02v.26c-1.41.08-2.8.15-4.21.22l-.07-1.39,2.76-.15s.04-.05.04-.07c-.05-.92-.1-1.84-.16-2.76l1.45-.08Z"/>
                  <path class="st11" d="M295.73,349.07c1.39-.07,2.79-.15,4.2-.22l.22,4.19-1.38.07-.15-2.79c-.96.05-1.89.1-2.82.15l-.07-1.4Z"/>
                  <path class="st11" d="M299.49,340.37l.07,1.4-2.8.15.15,2.81-1.42.08-.22-4.21c1.4-.07,2.81-.15,4.21-.22Z"/>
                  <path class="st11" d="M295.88,351.87l1.4-.07.15,2.8,1.4-.07.07,1.41-2.8.15-.22-4.21Z"/>
                  <path class="st11" d="M295.58,346.21c.09,0,.19,0,.28,0,1.21-.06,2.43-.13,3.64-.19.09,0,.18,0,.29-.02l.08,1.41-.29.02c-1.21.06-2.43.13-3.64.19-.09,0-.19.02-.28.03-.03-.48-.05-.97-.08-1.45Z"/>
                  <path class="st11" d="M310.77,339.77l.07,1.39-3.51.19-.07-1.39,3.51-.19Z"/>
                  <path class="st11" d="M305.86,340.03l.07,1.39-2.11.11-.07-1.39c.7-.04,1.4-.07,2.11-.11Z"/>
                  <path class="st11" d="M320.5,363.27c-2.35.13-4.68.25-7.03.37v-.26c-.13-2.17-.24-4.34-.36-6.5-.01-.2.02-.28.25-.3,2.18-.11,4.37-.23,6.55-.34.07,0,.14,0,.22-.01.13,2.35.25,4.69.38,7.04ZM314.6,357.95l.22,4.2c1.41-.08,2.8-.15,4.2-.22-.08-1.41-.15-2.8-.22-4.2-1.4.07-2.78.15-4.2.22Z"/>
                  <path class="st11" d="M310.04,352.52c-.1-1.88-.2-3.74-.3-5.62-.71.04-1.39.07-2.09.11l-.07-1.4,3.48-.19c.12,2.34.25,4.67.37,7.02l-1.4.07Z"/>
                  <path class="st11" d="M304.58,355.64l-1.41.07-.07-1.39c.92-.05,1.85-.1,2.8-.15l.15,2.8c.72-.04,1.4-.07,2.11-.11l.07,1.4c-1.16.06-2.31.12-3.5.19l-.15-2.8Z"/>
                  <path class="st11" d="M301.61,352.96l-.15-2.78,1.39-.07.07,1.38,4.92-.26.07,1.4c-2.1.11-4.2.22-6.31.34Z"/>
                  <path class="st11" d="M315.7,352.21l-.22-4.19c1.39-.07,2.78-.15,4.19-.22l.07,1.38c-.92.05-1.84.1-2.79.15.05.95.1,1.87.15,2.81l-1.4.07Z"/>
                  <path class="st11" d="M305.53,347.11l-1.4.07-.22-4.21c1.17-.06,2.32-.12,3.49-.19l.07,1.39-2.09.11.15,2.82Z"/>
                  <path class="st11" d="M308.4,361.09l-.07-1.39,2.09-.11-.15-2.81,1.41-.07.22,4.2c-1.16.06-2.32.12-3.49.19Z"/>
                  <path class="st11" d="M318.59,353.49l-.15-2.8,1.39-.07.22,4.19-2.79.15-.07-1.39,1.39-.07Z"/>
                  <path class="st11" d="M307.7,348.43l.07,1.38c-1.17.06-2.32.12-3.49.19l-.07-1.38c1.16-.06,2.32-.12,3.49-.19Z"/>
                  <path class="st11" d="M311.52,353.88l.07,1.38c-1.16.06-2.32.12-3.49.19l-.07-1.38c1.15-.06,2.31-.12,3.49-.19Z"/>
                  <path class="st11" d="M308.45,362.52l.07,1.38-3.49.19-.07-1.38c1.17-.06,2.32-.12,3.49-.19Z"/>
                  <path class="st11" d="M302.62,345.88l.15,2.79-1.38.07-.15-2.79,1.38-.07Z"/>
                  <path class="st11" d="M313.03,355.18l-.07-1.38,2.79-.15.07,1.38c-.93.05-1.85.1-2.79.15Z"/>
                  <path class="st11" d="M310.92,342.61l.07,1.37-2.09.11-.07-1.37,2.09-.11Z"/>
                  <path class="st11" d="M306.97,361.17l-2.08.11-.07-1.38,2.08-.11.07,1.38Z"/>
                  <path class="st11" d="M312.04,363.72c-.7.04-1.38.07-2.08.11l-.07-1.38,2.08-.11.07,1.38Z"/>
                  <path class="st11" d="M314.26,352.3l-1.38.07-.07-1.39c.46-.02.91-.05,1.38-.07l.07,1.39Z"/>
                  <path class="st11" d="M312.66,348.17l1.38-.07.07,1.38-1.38.07-.07-1.38Z"/>
                  <path class="st11" d="M300.28,354.47c.47-.02.92-.05,1.38-.07l.07,1.38-1.38.07-.07-1.38Z"/>
                  <path class="st11" d="M299.24,361.58l-.07-1.37,1.38-.07.07,1.37-1.38.07Z"/>
                  <path class="st11" d="M316.64,343.68l-1.38.07-.07-1.38,1.38-.07.07,1.38Z"/>
                  <path class="st11" d="M317.54,360.6l-1.37.07-.07-1.38c.45-.02.91-.05,1.37-.07l.07,1.38Z"/>
                </g>
              </g>
            </g>
            <path class="st10" d="M302.12,366.56c-.29-3.4-16.85-.66-20.02-1.2-3.17-.53-13.44-3.06-13.44-3.06,0,0,11.68-.45,15.16-.94,3.49-.48,12.13-3.15,14.44-4.92,2.32-1.77.36-4.73-1.46-5.32-1.82-.59-19.8,1.38-23.02.73-3.23-.65-15.43-3.59-15.43-3.59,2.18-2.42,7.87-2.95,10.98-4.72,3.1-1.77,4.66-7.07,3.26-8.98-1.4-1.91-7.86,2.51-11.51,3.46-3.65.94-7.6.75-12.07,2.41-2.82,1.05-6.92,5.02-9.55,7.79-4.1-2.36-7.24-6.22-9.99-10.17-.34-.51-.68-1.02-1.04-1.52-3.12-4.61-6.16-9.41-10.65-12.69-4.75-3.46-11.72-4.73-16.03-1.31-3.7,3.5-6.57,7.87-8.46,13.04-1.36,3.73-1.39,7.8-.15,11.58,1.12,3.42,2.55,6.75,4.27,9.98,3.17,5.95,8.56,10.42,14.99,12.42,8.97,2.8,18.37,4.2,27.77,4.17,3.45,3.19,16.05,6.64,19.06,7.27,3.12.66,7.39,5.24,11.24,4.99,3.85-.25,9.78-6.59,9.78-6.59,0,0,2.6-.31,6.52-.87,3.92-.55,7.32-4.92,7.32-4.92,6.35-.46,8.34-3.65,8.05-7.05Z"/>
            <g>
              <path class="st4" d="M296.26,373.17c-10.81,1.7-21.92,1.47-32.65-.66"/>
              <path class="st4" d="M280.83,379.34c-6.33.94-12.84.62-19.04-.93"/>
            </g>
            <path class="st10" d="M417.27,345.81c-4.56-5.77-16.58-10.94-21.92-9.09-5.34,1.86-10.34,8.59-17.27,12.64-4.84,2.83-13.49,4.33-18.26,4.98-2.76-2.49-6.13-4.3-9.77-5.27-2.05-.54-4.24-.42-6.2.4-5.99,2.5-12.17,2.1-18.5.16-2.84-.88-9.95,3-.74,7.94,3.08,1.65,6.24,2.86,10.63,4.84-3.58,1.73-7.06,3.65-10.47,5.7-2.19,1.31-4.81,1.69-7.28,1.03-5.3-1.41-10.63-2.76-16.02-3.78-1-.19-2.02-.37-3.03-.2-1,.17-2,.74-2.39,1.68-.71,1.7.8,3.53,2.42,4.42,1.61.89,3.55,1.44,4.76,2.95,2.4,2.89,5.22,5.42,8.83,7.92,1.53,1.05,3.33,1.65,5.18,1.63,15.43-.16,30.82-2.39,45.37-6.47,12.31,2.49,34.15,1.35,44.34.62,3.95-.29,7.59-2.28,9.87-5.52,4.14-5.91,8.65-16.18.44-26.56Z"/>
            <path class="st4" d="M301.55,372.77c6.79,4.18,14.36,7.08,22.21,8.52"/>
          </g>
        </g>
        <rect class="st7" x="2.5" y="1.08" width="600" height="430" rx="20" ry="20"/>
      </g>
    </g>
  </g>
</svg>