<?xml version="1.0" encoding="UTF-8"?>
<svg id="Layer_1" xmlns="http://www.w3.org/2000/svg" xmlns:xlink="http://www.w3.org/1999/xlink" version="1.1" viewBox="0 0 1265.39 566.48">
  <!-- Generator: Adobe Illustrator 29.2.1, SVG Export Plug-In . SVG Version: 2.1.0 Build 116)  -->
  <defs>
    <style>
      .st0, .st1, .st2 {
        fill: none;
      }

      .st3 {
        fill: #469e99;
      }

      .st4 {
        fill: #53a7d3;
      }

      .st5 {
        fill: #db7b7e;
      }

      .st6 {
        fill: #303030;
        font-family: Poppins-Medium, Poppins;
        font-size: 15px;
        font-weight: 500;
      }

      .st7 {
        fill: #ff8275;
      }

      .st8, .st9 {
        fill: #372737;
      }

      .st10 {
        fill: #ff8e43;
      }

      .st11 {
        fill: #a24e4c;
      }

      .st12 {
        fill: #ffcaa8;
      }

      .st13 {
        fill: #008138;
      }

      .st1 {
        stroke-width: 1.41px;
      }

      .st1, .st2 {
        stroke: #845c6a;
        stroke-miterlimit: 10;
      }

      .st14 {
        fill: #b6e1c4;
      }

      .st15 {
        fill: #278180;
      }

      .st16 {
        fill: #ff9586;
      }

      .st17 {
        fill: #893a35;
      }

      .st18 {
        fill: #ec7a6b;
      }

      .st9 {
        opacity: .1;
      }

      .st19 {
        fill: #4b85b1;
      }

      .st20 {
        clip-path: url(#clippath);
      }
    </style>
    <clipPath id="clippath">
      <path class="st0" d="M786.66,504.74c-11.79-31.69-81.91-47.37-98.34-56.96-12.98,7.55-28.8,11.99-45.9,11.99-14.85,0-28.75-3.36-40.65-9.18-23.03,9.8-81.82,25.38-92.53,54.15-12.19,32.77-16.77,61.73-16.77,61.73h310.95s-4.57-28.96-16.77-61.73Z"/>
    </clipPath>
  </defs>
  <g>
    <path class="st14" d="M122.68,21.59c-6.9-.61-14.55-.94-19.95,3.39-3.8,3.05-5.73,7.96-6.2,12.82-.47,4.85.35,9.73,1.17,14.53,4.44,25.98,8.88,51.95,13.32,77.93.87,5.07,1.95,10.56,5.81,13.96,4.27,3.77,10.57,3.81,16.26,3.65,30.74-.86,61.48-1.73,92.22-2.59,11.99,14.82,23.98,29.65,35.97,44.47,1.26-13.83,2.52-27.66,3.78-41.49,6.5-3.39,10.74-10.13,12.68-17.19,1.95-7.06,1.88-14.51,1.66-21.83-.47-15.87-1.58-31.72-3.31-47.5-.59-5.38-1.49-11.23-5.46-14.9-3-2.78-7.21-3.76-11.21-4.62-45.1-9.67-90.79-16.57-136.74-20.63Z"/>
    <g>
      <path class="st13" d="M275.96,48.38c-1.1-2.83-3.19-5.26-5.82-6.79-.66-.38-1.34-.72-2.05-.98-.65-.27-1.58-.52-2.2-.63-1.47-.28-2.72-.4-4.09-.61l-8.06-1.13-64.52-9.02-64.55-8.84-8.07-1.11-4.03-.55c-1.34-.18-2.64-.4-4.22-.47-1.51.01-3.03.22-4.47.7-1.43.51-2.79,1.19-3.99,2.12-2.4,1.84-4.16,4.48-4.92,7.42-.17.74-.32,1.46-.38,2.25l-.06,1.19.06,1.02c.12,1.52.32,2.74.47,4.13l.99,8.08,1.98,16.17,8.15,64.64,1.02,8.08c.19,1.37.28,2.63.57,4.11.31,1.43.86,2.8,1.62,4.05,1.51,2.5,3.87,4.46,6.6,5.49.69.25,1.38.45,2.1.59.73.13,1.51.23,2.15.23,1.44.03,2.74,0,4.11,0l32.57-.24,62.44-.58c.52.81,1.06,1.64,1.64,2.5,1.47,2.22,3.08,4.55,4.69,6.88,1.64,2.31,3.27,4.63,4.84,6.77,1.56,2.15,3.09,4.11,4.36,5.81,1.27,1.7,2.42,3.07,3.18,4.05.79.96,1.24,1.51,1.24,1.51,0,0-.36-.61-.99-1.69-.66-1.05-1.54-2.59-2.7-4.38-1.16-1.78-2.47-3.89-3.95-6.1-1.47-2.22-3.08-4.55-4.69-6.88-1.64-2.31-3.27-4.63-4.85-6.77-.43-.59-.85-1.16-1.27-1.72h1.21s-1.22-.02-1.22-.02c-1.1-1.47-2.16-2.84-3.08-4.07-.03-.04-.05-.07-.08-.11l3.34.03,38.23,55.02,1.43,2.06.16-2.51,3.15-49.36c2.6-.21,5.16-1.1,7.21-2.74,2.34-1.82,4.1-4.44,4.79-7.35.39-1.49.43-3.04.42-4.33l.04-4.07.07-8.14.19-32.57.18-32.57c0-1.39.04-2.65,0-4.13-.06-1.51-.38-3.02-.93-4.43ZM274.04,56.94l-.07,32.57-.05,32.57v8.14s.02,4.07.02,4.07c.03,1.42-.02,2.61-.31,3.75-.54,2.39-1.96,4.55-3.88,6.07-1.91,1.56-4.37,2.36-6.83,2.41h0s0,0,0,0l-.67.36-.46.71-2.56,47.89-37.71-52.56-.11-.16h-.19s-4.04.04-4.04.04c-1.03-1.34-1.95-2.45-2.59-3.28-.79-.96-1.24-1.51-1.24-1.51,0,0,.36.61.99,1.68.5.79,1.12,1.87,1.9,3.11l-31.61.32,32.02.32c.13.21.26.41.4.62.7,1.08,1.47,2.28,2.28,3.55l-62.41-.58-32.57-.24c-1.34-.01-2.76,0-4.03-.04-.71-.02-1.28-.11-1.89-.22-.62-.13-1.22-.31-1.81-.53-2.35-.92-4.37-2.63-5.64-4.79-.64-1.08-1.1-2.26-1.36-3.49-.22-1.18-.34-2.64-.5-3.96l-.94-8.09-7.5-64.72-1.93-16.17-.96-8.09c-.31-2.74-.81-5.3-.14-7.57.61-2.33,2.02-4.43,3.94-5.89.96-.74,2.04-1.27,3.17-1.67,1.14-.37,2.34-.53,3.54-.54,1.14.05,2.53.27,3.87.46l4.03.57,8.06,1.13,64.52,9.06,64.54,8.89,8.07,1.11c1.31.19,2.76.35,3.96.57.36.05.63.14.89.21.26.07.54.15.82.27.56.2,1.1.47,1.62.76,2.07,1.19,3.73,3.1,4.6,5.33.44,1.11.69,2.3.75,3.49.05,1.23,0,2.68.02,4.01Z"/>
      <path class="st13" d="M143.28,19.17c-1.76-.17-2.77-.27-2.77-.27,0,0,.99.21,2.73.57,1.74.33,4.22.86,7.21,1.39,2.99.52,6.47,1.19,10.21,1.8,3.74.63,7.74,1.25,11.74,1.87,4,.59,8,1.18,11.76,1.69,3.76.52,7.28.92,10.29,1.31,3.01.38,5.53.61,7.29.81,1.76.17,2.77.27,2.77.27,0,0-.99-.21-2.73-.57-1.74-.33-4.22-.86-7.21-1.38-2.99-.52-6.47-1.18-10.21-1.8-3.74-.63-7.74-1.25-11.74-1.88-4-.59-8-1.19-11.76-1.69-3.76-.52-7.28-.92-10.29-1.31-3.01-.39-5.53-.61-7.29-.81Z"/>
    </g>
  </g>
  <g>
    <g>
      <g>
        <g>
          <path class="st7" d="M1133.56,505.19c-12.11-32.53-86.15-48.07-99.11-57.5-16.64-12.11-11.35-52.2-11.35-52.2l-27.24.72-27.24-.72s5.3,40.1-11.35,52.2c-12.97,9.43-87.01,24.97-99.11,57.5-12.11,32.53-16.64,61.28-16.64,61.28h308.69s-4.54-28.75-16.64-61.28Z"/>
          <path class="st18" d="M963.58,440.22c12.75-1.3,25.57-3.89,36.67-10.1,8.09-4.53,15.38-9.87,22.14-15.89-.4-10.3.71-18.75.71-18.75l-27.24.72-27.24-.72s3.77,28.54-5.05,44.73Z"/>
        </g>
        <g>
          <path class="st15" d="M1135.71,504.74c-11.79-31.69-81.91-47.37-98.34-56.96-12.98,7.55-28.8,11.99-45.9,11.99-14.85,0-28.75-3.36-40.65-9.18-23.03,9.8-81.82,25.38-92.53,54.15-12.19,32.77-16.77,61.73-16.77,61.73h310.95s-4.57-28.96-16.77-61.73Z"/>
          <path class="st3" d="M950.81,450.59s9.92-6.44,12.18-16.39l65.6-3.17s2.26,13.12,11.31,18.1c0,0-47.89,27.35-89.09,1.46Z"/>
        </g>
      </g>
      <g>
        <g>
          <path class="st18" d="M950.13,332.98c-4.4-13.65-14.82-10.49-15.79-10.16-1.02.12-11.79,1.72-9.93,15.94,1.87,14.3,10.17,22.05,17.95,19.78,8.01-1.27,12.19-11.83,7.77-25.55Z"/>
          <path class="st18" d="M1040.23,332.98c4.4-13.65,14.82-10.49,15.79-10.16,1.02.12,11.79,1.72,9.93,15.94-1.87,14.3-10.17,22.05-17.95,19.78-8.01-1.27-12.19-11.83-7.77-25.55Z"/>
          <path class="st7" d="M1049.31,311.51c-5.45-59.83-50.94-56.48-55.22-56.03-4.29-.45-49.77-3.8-55.22,56.03-5.48,60.19,21.32,99.49,55.22,97.33,33.9,2.16,60.71-37.14,55.22-97.33Z"/>
        </g>
        <g>
          <path class="st12" d="M1049.63,344.4c15.61-38.68,8.82-84.83,8.82-84.83,5.43-18.32-1.36-35.29-1.36-35.29,0,11.54-10.18,25.79-10.18,25.79,8.82-13.57,1.36-40.72,1.36-40.72-5.43,10.18-29.18,27.82-29.18,27.82l11.54-16.97c-27.14-1.36-44.11,12.22-44.11,12.22l12.89-14.25c-36.65,3.39-51.58,28.5-51.58,28.5-37.32,15.61-8.82,100.44-8.82,100.44h4.07v-31.22s13.57-6.79,12.89-41.4c0,0,33.93,10.86,74.65,0,0,0-4.75,35.29,14.93,38.68l-.68,31.9,4.75-.68Z"/>
          <path class="st9" d="M988.63,279.23c-7.45-3.22-14.69-7.04-21.22-11.57-8.85-6.15-14.46-14.19-17.84-23.44-1.15,1.52-1.73,2.46-1.73,2.46-37.32,15.61-8.82,100.44-8.82,100.44h4.07v-31.22s13.57-6.79,12.89-41.4c0,0,13.05,4.14,32.65,4.73Z"/>
        </g>
      </g>
    </g>
    <g>
      <g>
        <g>
          <path class="st11" d="M784.51,505.19c-12.11-32.53-86.15-48.07-99.11-57.5-16.64-12.11-11.35-52.2-11.35-52.2l-27.24.72-27.24-.72s5.3,40.1-11.35,52.2c-12.97,9.43-87.01,24.97-99.11,57.5-12.11,32.53-16.64,61.28-16.64,61.28h308.69s-4.54-28.75-16.64-61.28Z"/>
          <path class="st17" d="M614.53,440.22c12.75-1.3,25.57-3.89,36.67-10.1,8.09-4.53,15.38-9.87,22.14-15.89-.4-10.3.71-18.75.71-18.75l-27.24.72-27.24-.72s3.77,28.54-5.05,44.73Z"/>
        </g>
        <g>
          <path class="st10" d="M786.66,504.74c-11.79-31.69-81.91-47.37-98.34-56.96-12.98,7.55-28.8,11.99-45.9,11.99-14.85,0-28.75-3.36-40.65-9.18-23.03,9.8-81.82,25.38-92.53,54.15-12.19,32.77-16.77,61.73-16.77,61.73h310.95s-4.57-28.96-16.77-61.73Z"/>
          <g class="st20">
            <g>
              <line class="st1" x1="757.39" y1="450.26" x2="757.39" y2="597.87"/>
              <line class="st1" x1="738.26" y1="450.26" x2="738.26" y2="597.87"/>
              <line class="st1" x1="719.14" y1="450.26" x2="719.14" y2="597.87"/>
              <line class="st1" x1="700.02" y1="450.26" x2="700.02" y2="597.87"/>
              <line class="st1" x1="680.9" y1="450.26" x2="680.9" y2="597.87"/>
              <line class="st1" x1="661.77" y1="450.26" x2="661.77" y2="597.87"/>
              <line class="st1" x1="642.65" y1="450.26" x2="642.65" y2="597.87"/>
              <line class="st1" x1="623.53" y1="450.26" x2="623.53" y2="597.87"/>
              <line class="st1" x1="604.4" y1="450.26" x2="604.4" y2="597.87"/>
              <line class="st1" x1="585.28" y1="450.26" x2="585.28" y2="597.87"/>
              <line class="st1" x1="566.16" y1="450.26" x2="566.16" y2="597.87"/>
              <line class="st1" x1="547.04" y1="450.26" x2="547.04" y2="597.87"/>
              <line class="st1" x1="527.91" y1="450.26" x2="527.91" y2="597.87"/>
              <line class="st1" x1="508.79" y1="450.26" x2="508.79" y2="597.87"/>
              <line class="st1" x1="776.51" y1="450.26" x2="776.51" y2="597.87"/>
              <line class="st2" x1="482.33" y1="493.82" x2="806.01" y2="493.82"/>
              <line class="st2" x1="482.33" y1="512.94" x2="806.01" y2="512.94"/>
              <line class="st2" x1="482.33" y1="532.07" x2="806.01" y2="532.07"/>
              <line class="st2" x1="482.33" y1="551.19" x2="806.01" y2="551.19"/>
              <line class="st2" x1="482.33" y1="474.7" x2="806.01" y2="474.7"/>
            </g>
          </g>
        </g>
      </g>
      <g>
        <g>
          <path class="st17" d="M601.08,332.98c-4.4-13.65-14.82-10.49-15.79-10.16-1.02.12-11.79,1.72-9.93,15.94,1.87,14.3,10.17,22.05,17.95,19.78,8.01-1.27,12.19-11.83,7.77-25.55Z"/>
          <path class="st17" d="M691.18,332.98c4.4-13.65,14.82-10.49,15.79-10.16,1.02.12,11.79,1.72,9.93,15.94-1.87,14.3-10.17,22.05-17.95,19.78-8.01-1.27-12.19-11.83-7.77-25.55Z"/>
          <path class="st11" d="M700.27,311.51c-5.45-59.83-50.94-56.48-55.22-56.03-4.29-.45-49.77-3.8-55.22,56.03-5.48,60.19,21.32,99.49,55.22,97.33,33.9,2.16,60.71-37.14,55.22-97.33Z"/>
        </g>
        <g>
          <path class="st8" d="M586.64,277.22s-3.05,74.82,5.6,109.94c6.51,26.43,25.45,33.59,25.45,33.59,0,0,44.79,17.3,69.73-10.69,7.18-8.06,18.32-50.39,13.23-126.22l-18.32-7.63s3.05,37.15,12.22,41.74c0,0-2.69,66.4-14.25,74.31-9.67,6.62,6.62-30.54-12.22-30.03-18.83.51-19.34,1.02-19.34,1.02,0,0-33.59-5.6-33.08,7.63.51,13.23,4.07,21.89-.51,21.89s-21.38-10.69-18.32-80.42c0,0,9.67-3.56,9.67-27.99,0-32.13-19.85-7.13-19.85-7.13Z"/>
          <path class="st8" d="M604.46,273.14s14.64,19.85,32.06,19.85c9.67,0,0-16.8,0-16.8,0,0,13.74,21.38,27.99,20.87,14.25-.51,2.04-20.87,2.04-20.87,0,0,10.69,21.89,23.92,20.87,13.23-1.02,2.04-22.39,2.04-22.39,0,0,6.11,22.9,18.83,19.85,12.72-3.05-3.05-22.9-3.05-22.9,0,0,10.69,10.18,15.27,9.67,4.58-.51,4.58-14.25-11.2-20.87,0,0,15.78-.51,16.29-8.14.58-8.65-9.67-11.71-33.08-9.16,0,0,19.34-8.14,15.27-15.27-4.07-7.13-21.38,3.05-21.38,3.05,0,0,17.3-9.67,7.13-17.3-8.35-6.27-51.91-6.11-78.38,25.45,0,0,54.97-29.01,48.35-33.08-4.67-2.88-70.43,11.82-80.42,39.7-12.22,34.1-3.05,53.44.9,76.66l17.43-49.18Z"/>
        </g>
      </g>
    </g>
    <g>
      <g>
        <g>
          <path class="st16" d="M431.77,505.19c-12.11-32.53-86.15-48.07-99.11-57.5-16.64-12.11-11.35-52.2-11.35-52.2l-27.24.72-27.24-.72s5.3,40.1-11.35,52.2c-12.97,9.43-87.01,24.97-99.11,57.5-12.11,32.53-16.64,61.28-16.64,61.28h308.69s-4.54-28.75-16.64-61.28Z"/>
          <path class="st5" d="M261.79,440.22c12.75-1.3,25.57-3.89,36.67-10.1,8.09-4.53,15.38-9.87,22.14-15.89-.4-10.3.71-18.75.71-18.75l-27.24.72-27.24-.72s3.77,28.54-5.05,44.73Z"/>
        </g>
        <g>
          <path class="st19" d="M433.92,504.74c-9.43-25.34-56.12-40.43-82.87-50.37-11.63,13.42-32.29,22.36-55.84,22.36s-44.21-8.94-55.84-22.36c-26.75,9.94-73.44,25.04-82.87,50.37-12.19,32.77-16.77,61.73-16.77,61.73h310.95s-4.57-28.96-16.77-61.73Z"/>
          <path class="st4" d="M295.11,487.11c29.88,0,55.52-11.9,66.52-28.87-3.75-1.37-7.31-2.67-10.58-3.88-11.63,13.42-32.29,22.36-55.84,22.36s-44.21-8.94-55.84-22.36c-3.31,1.23-6.92,2.54-10.73,3.93,11.01,16.93,36.63,28.81,66.48,28.81Z"/>
        </g>
      </g>
      <g>
        <g>
          <path class="st5" d="M248.34,332.98c-4.4-13.65-14.82-10.49-15.79-10.16-1.02.12-11.79,1.72-9.93,15.94,1.87,14.3,10.17,22.05,17.95,19.78,8.01-1.27,12.19-11.83,7.77-25.55Z"/>
          <path class="st5" d="M336.41,332.98c4.4-13.65,14.82-10.49,15.79-10.16,1.02.12,11.79,1.72,9.93,15.94-1.87,14.3-10.17,22.05-17.95,19.78-8.01-1.27-12.19-11.83-7.77-25.55Z"/>
          <path class="st16" d="M347.53,311.51c-5.45-59.83-50.94-56.48-55.22-56.03-4.29-.45-49.77-3.8-55.22,56.03-5.48,60.19,21.32,99.49,55.22,97.33,33.9,2.16,60.71-37.14,55.22-97.33Z"/>
        </g>
        <g>
          <path class="st11" d="M237.25,341.01s-14.25-59.04-6.11-76.01c8.14-16.97,17.64-11.54,17.64-11.54,0,0,12.89-35.29,40.04-28.5,27.15,6.79,42.75,19,57,6.79,0,0,0,10.86-8.14,15.61,0,0,16.97,0,23.75-16.29,0,0,10.14,34.82-12.26,47.03,0,0,1.68,43.5.04,59.51l-6.11-.68s-3.39-23.07-5.43-52.25c0,0-35.29,19-78.04-14.25,0,0,6.11,22.39-18.32,36.65l2.04,31.22-6.11,2.71Z"/>
          <path class="st17" d="M324.17,288.96c-10.1-.69-20.21-2.92-28.41-6.07-18.35-7.05-34.13-27.96-35.37-48.21-7.8,8.42-11.6,18.79-11.6,18.79,0,0-9.5-5.43-17.64,11.54-8.14,16.97,6.11,76.01,6.11,76.01l6.11-2.71-2.04-31.22c24.43-14.25,18.32-36.65,18.32-36.65,26.66,20.74,50.42,21.15,64.52,18.53Z"/>
        </g>
      </g>
    </g>
  </g>
  <g>
    <path class="st14" d="M514.79,75.18c-4.07-6.58-12.48-8.43-20.01-9.53-56.11-8.19-113.47-7.28-169.3,2.69-6.33,1.13-13.15,2.67-17.33,7.67-4.17,4.98-4.61,12.09-4.86,18.64-.45,12.11-.91,24.22-1.36,36.34-.45,12.04-.36,25.6,7.98,34.1,5.37,5.48,13.29,7.67,20.87,7.56,7.58-.11,14.97-2.27,22.26-4.42-.98,13.26-1.96,26.52-2.94,39.77,6.61-7.16,13.23-14.32,19.84-21.48,4.37-4.73,8.85-9.55,14.48-12.56,8.31-4.44,18.12-4.47,27.49-4.39,26.27.21,52.54.42,78.81.63,6.11.05,13.07-.28,17.01-5.06,2.72-3.3,3.23-7.89,3.63-12.19,1.86-20.01,3.72-40.01,5.58-60.02.56-6.05,1.02-12.62-2.16-17.76Z"/>
    <g>
      <path class="st13" d="M509.03,147.67c-.12,4.09-.16,8.65-.32,13.25-.31,4.25-3.32,8.5-7.69,10.08-1.07.43-2.23.63-3.39.71l-.88.03h-.99s-1.98-.03-1.98-.03c-2.65-.02-5.33-.04-8.04-.06-5.41-.02-10.91-.04-16.4-.05-5.5.02-10.99.04-16.4.05-5.41.05-10.73.09-15.89.13-10.3.11-19.92.28-28.17.48-8.24.18-15.11.46-19.92.6-1.52.06-2.81.11-3.9.16l2.8-3.27,9.87-.19,10.43-.26c6.95-.24,13.9-.39,20.85-.73-6.95-.33-13.9-.49-20.85-.73l-10.43-.26-10.43-.2h-.52s-.37.4-.37.4l-4.86,5.36c-.1,0-.16,0-.16,0,0,0,.05,0,.15,0l-5.42,5.99-10.23,11.42-10.17,11.47-7.34,8.38c.13-6.01.22-12.02.34-18.03l.26-22.24v-1.08s-1.03.02-1.03.02c-5.7.13-11.41.24-17.11.44-5.7.18-11.41.33-17.11.59,5.7.26,11.41.41,17.11.59,5.35.18,10.7.29,16.04.41l-.08,1.96c-.44-.02-1.01-.04-1.7-.07-1.86-.09-4.59-.18-8.06-.29-3.47-.11-7.69-.24-12.52-.39-2.42-.05-4.99-.1-7.7-.15-.68-.01-1.36-.03-2.06-.04l-1-.02-1.06-.07c-1.28-.15-2.56-.48-3.81-1.06-2.47-1.13-4.6-3.23-5.8-5.86-.6-1.31-.99-2.74-1.09-4.23-.05-.71-.04-1.56-.03-2.4,0-.84.01-1.69.02-2.54.04-6.82.09-14.01.14-21.45.09-7.44-.03-15.12-.06-22.93-.06-7.81-.12-15.74-.19-23.68l-.12-5.95c0-1.95-.2-4.07.14-5.71.68-3.57,3.03-6.84,6.3-8.51,1.62-.85,3.42-1.38,5.26-1.48,1.91-.05,3.85-.03,5.76-.05,3.83-.02,7.61-.04,11.33-.07,14.88-.09,28.76-.17,40.66-.24,23.8-.18,39.67-.29,39.67-.29,0,0-15.87-.12-39.67-.29-11.9-.07-25.79-.15-40.66-.24-3.72-.02-7.5-.04-11.33-.07-1.92,0-3.85-.02-5.79-.03-2.02-.02-4.09.4-5.96,1.3-3.78,1.75-6.66,5.37-7.62,9.54-.5,2.25-.33,4.13-.42,6.13l-.12,5.95c-.06,7.93-.12,15.87-.19,23.68-.03,7.81-.15,15.5-.06,22.93.05,7.44.1,14.63.14,21.45,0,.85.01,1.7.02,2.54,0,.84,0,1.66.07,2.6.15,1.82.63,3.59,1.42,5.16,1.59,3.16,4.26,5.56,7.25,6.79,1.48.62,3.07.97,4.62,1.07l1.06.03,1.1-.02c.7-.01,1.38-.03,2.06-.04,2.71-.05,5.28-.1,7.7-.15,4.83-.15,9.05-.28,12.52-.39,3.47-.11,6.2-.2,8.06-.29.69-.03,1.25-.05,1.69-.07l-.79,19.13c-.26,7.41-.56,14.81-.76,22.22l-.11,4.19,2.78-3.14,10.16-11.48,10.09-11.54,10.04-11.59,6.59-7.7c1.13.05,2.51.1,4.15.17,4.81.14,11.68.42,19.92.6,8.24.2,17.86.37,28.17.48,5.15.04,10.48.09,15.89.13,5.41.02,10.91.04,16.4.05,5.5-.02,10.99-.04,16.4-.05,2.71-.02,5.39-.04,8.04-.06l1.98-.02c.64,0,1.32-.01,2.07-.07,1.44-.12,2.87-.42,4.18-.97,2.65-1.04,4.93-2.86,6.47-5.1,1.56-2.24,2.45-4.83,2.56-7.44.03-4.84-.15-9.22-.22-13.37-.18-8.24-.46-15.11-.59-19.92-.19-4.81-.3-7.56-.3-7.56,0,0-.11,2.75-.3,7.56-.13,4.81-.42,11.68-.59,19.92Z"/>
      <path class="st13" d="M507.69,68.97c-1.45-1.59-3.26-2.88-5.29-3.67-2-.81-4.33-1.07-6.3-1-15.69.19-31.38.42-43.14.76-5.88.16-10.79.29-14.22.39-3.43.12-5.39.19-5.39.19,0,0,1.96.07,5.39.19,3.43.09,8.33.23,14.22.39,11.77.35,27.45.57,43.14.76,1.94,0,3.57.3,5.19,1,1.59.71,2.99,1.76,4.13,3.03,1.13,1.28,1.98,2.78,2.45,4.38.48,1.64.54,3.15.52,5.09.02,7.35.19,14.22.4,20.1.19,5.88.5,10.79.74,14.22.1,1.72.2,3.06.29,3.98.08.92.12,1.41.12,1.41,0,0,.04-.49.12-1.41.09-.92.18-2.27.29-3.98.24-3.43.55-8.33.74-14.22.21-5.88.38-12.75.4-20.1.03-1.73.06-4-.62-6-.62-2.03-1.72-3.92-3.17-5.51Z"/>
      <path class="st13" d="M412.49,62.49c-7.28.04-14.56.07-21.38.1-6.82.03-13.19.18-18.65.24-5.46.07-10.01.23-13.19.29-3.18.1-5,.15-5,.15,0,0,1.82.06,5,.15,3.18.06,7.73.22,13.19.29,5.46.06,11.83.21,18.65.24,6.82.03,14.1.07,21.38.1,7.28-.04,14.56-.07,21.38-.1,6.82-.03,13.19-.18,18.65-.24,5.46-.07,10.01-.23,13.19-.29,3.18-.1,5-.15,5-.15,0,0-1.82-.06-5-.15-3.18-.06-7.73-.22-13.19-.29-5.46-.06-11.83-.21-18.65-.24-6.82-.03-14.1-.07-21.38-.1Z"/>
      <path class="st13" d="M512.68,94.75s.06.84.15,2.32c.06,1.48.22,3.59.29,6.12.07,2.53.2,5.49.25,8.65.07,3.17.08,6.54.1,9.92-.02,3.38-.03,6.75-.09,9.92-.05,3.17-.18,6.12-.25,8.65-.07,2.53-.23,4.64-.29,6.12-.1,1.48-.15,2.32-.15,2.32,0,0-.06-.84-.15-2.32-.06-1.48-.22-3.59-.29-6.12-.07-2.53-.2-5.49-.25-8.65-.07-3.17-.08-6.54-.09-9.92.02-3.38.03-6.75.1-9.92.05-3.17.18-6.12.25-8.65.07-2.53.23-4.64.29-6.12.1-1.48.15-2.32.15-2.32Z"/>
    </g>
  </g>
  <g>
    <path class="st14" d="M911.34,205.82c-3.42-5.53-10.5-7.09-16.83-8.01-47.19-6.89-95.43-6.12-142.39,2.26-5.33.95-11.06,2.24-14.58,6.45-3.51,4.19-3.88,10.16-4.09,15.68-.38,10.19-.76,20.37-1.15,30.56-.38,10.13-.3,21.53,6.71,28.68,4.52,4.61,11.18,6.45,17.56,6.36,6.38-.09,12.59-1.91,18.72-3.72-.82,11.15-1.65,22.3-2.47,33.45,5.56-6.02,11.13-12.04,16.69-18.06,3.67-3.98,7.44-8.03,12.18-10.56,6.99-3.74,15.24-3.76,23.12-3.7,22.1.18,44.19.35,66.29.53,5.14.04,10.99-.23,14.31-4.26,2.29-2.78,2.72-6.63,3.05-10.25,1.57-16.83,3.13-33.65,4.7-50.48.47-5.09.85-10.61-1.82-14.94Z"/>
    <g>
      <path class="st13" d="M906.49,266.78c-.1,3.44-.13,7.27-.27,11.14-.26,3.58-2.8,7.15-6.47,8.48-.9.36-1.87.53-2.85.6l-.74.03h-.83s-1.67-.02-1.67-.02c-2.23-.02-4.49-.03-6.76-.05-4.55-.02-9.17-.03-13.79-.05-4.62.02-9.24.03-13.79.04-4.55.04-9.03.08-13.36.11-8.67.09-16.76.23-23.69.41-6.93.15-12.71.39-16.76.5-1.28.05-2.37.1-3.28.13l2.35-2.75,8.3-.16,8.77-.22c5.85-.2,11.69-.33,17.54-.61-5.85-.28-11.69-.41-17.54-.61l-8.77-.22-8.77-.17h-.43s-.31.34-.31.34l-4.08,4.51c-.08,0-.13,0-.13,0,0,0,.05,0,.12,0l-4.56,5.04-8.6,9.61-8.55,9.65-6.17,7.05c.11-5.05.19-10.11.28-15.16l.22-18.7v-.91s-.86.02-.86.02c-4.8.11-9.6.2-14.39.37-4.8.15-9.6.28-14.39.5,4.8.22,9.6.35,14.39.5,4.5.16,9,.25,13.49.35l-.07,1.65c-.37-.02-.85-.04-1.43-.06-1.56-.08-3.86-.16-6.78-.25-2.92-.09-6.46-.2-10.53-.33-2.03-.04-4.2-.08-6.48-.13-.57-.01-1.15-.02-1.73-.03l-.84-.02-.89-.06c-1.08-.12-2.16-.41-3.2-.89-2.08-.95-3.87-2.72-4.87-4.93-.5-1.1-.83-2.31-.91-3.55-.04-.6-.03-1.31-.02-2.02,0-.71,0-1.42.01-2.14.04-5.73.08-11.78.12-18.04.08-6.26-.02-12.72-.05-19.29-.05-6.57-.1-13.24-.16-19.92l-.1-5c0-1.64-.17-3.42.12-4.8.57-3,2.55-5.75,5.3-7.16,1.36-.71,2.87-1.16,4.42-1.24,1.61-.04,3.24-.03,4.85-.05,3.22-.02,6.4-.04,9.53-.06,12.51-.07,24.19-.14,34.2-.2,20.02-.15,33.37-.25,33.37-.25,0,0-13.35-.1-33.37-.25-10.01-.06-21.69-.13-34.2-.2-3.13-.02-6.31-.04-9.53-.06-1.61,0-3.24-.02-4.87-.02-1.7-.01-3.44.34-5.02,1.09-3.18,1.47-5.6,4.52-6.41,8.02-.42,1.89-.28,3.48-.35,5.16l-.1,5c-.05,6.67-.11,13.35-.16,19.92-.03,6.57-.13,13.03-.05,19.29.04,6.26.08,12.3.12,18.04,0,.72,0,1.43.01,2.14,0,.7,0,1.39.06,2.19.13,1.53.53,3.02,1.2,4.34,1.34,2.66,3.58,4.68,6.1,5.71,1.25.52,2.58.82,3.88.9l.89.03.93-.02c.58-.01,1.16-.02,1.73-.03,2.28-.05,4.44-.09,6.48-.13,4.07-.13,7.61-.24,10.53-.33,2.92-.09,5.21-.17,6.78-.25.58-.02,1.05-.05,1.43-.06l-.67,16.09c-.22,6.23-.47,12.46-.64,18.69l-.09,3.53,2.34-2.64,8.55-9.65,8.49-9.71,8.44-9.75,5.54-6.48c.95.04,2.11.09,3.49.14,4.04.11,9.82.35,16.76.5,6.93.17,15.02.31,23.69.41,4.33.04,8.81.07,13.36.11,4.55.01,9.17.03,13.79.04,4.62-.02,9.24-.03,13.79-.05,2.28-.02,4.53-.03,6.76-.05l1.67-.02c.54,0,1.11-.01,1.74-.06,1.21-.1,2.41-.35,3.52-.81,2.23-.88,4.14-2.41,5.44-4.29,1.31-1.88,2.06-4.06,2.15-6.25.02-4.07-.12-7.75-.19-11.24-.15-6.93-.39-12.71-.5-16.76-.16-4.04-.26-6.36-.26-6.36,0,0-.09,2.31-.26,6.36-.11,4.04-.35,9.82-.5,16.76Z"/>
      <path class="st13" d="M905.36,200.59c-1.22-1.34-2.74-2.42-4.45-3.08-1.68-.68-3.64-.9-5.3-.84-13.19.16-26.39.35-36.29.64-4.95.13-9.07.25-11.96.33-2.89.1-4.54.16-4.54.16,0,0,1.65.06,4.54.16,2.89.08,7.01.19,11.96.33,9.9.29,23.09.48,36.29.64,1.63,0,3,.25,4.36.84,1.33.6,2.52,1.48,3.48,2.55.95,1.07,1.67,2.34,2.06,3.68.4,1.38.45,2.65.44,4.28.02,6.19.16,11.96.34,16.91.16,4.95.42,9.07.62,11.96.09,1.44.17,2.58.24,3.35.07.77.1,1.19.1,1.19,0,0,.04-.41.1-1.19.08-.77.15-1.91.24-3.35.2-2.89.46-7.01.62-11.96.18-4.95.32-10.72.34-16.91.03-1.45.05-3.37-.52-5.05-.52-1.71-1.45-3.3-2.67-4.64Z"/>
      <path class="st13" d="M825.3,195.14c-6.12.03-12.24.06-17.98.09-5.74.03-11.09.15-15.69.2-4.59.06-8.42.19-11.09.24-2.68.08-4.21.13-4.21.13,0,0,1.53.05,4.21.13,2.68.05,6.5.18,11.09.24,4.59.05,9.95.18,15.69.2,5.74.03,11.86.06,17.98.09,6.12-.03,12.24-.06,17.98-.09,5.74-.02,11.09-.15,15.69-.2,4.59-.06,8.42-.19,11.09-.24,2.68-.08,4.21-.13,4.21-.13,0,0-1.53-.05-4.21-.13-2.68-.05-6.5-.18-11.09-.24-4.59-.05-9.95-.18-15.69-.2-5.74-.03-11.86-.06-17.98-.09Z"/>
      <path class="st13" d="M909.57,222.27s.05.71.13,1.95c.05,1.24.18,3.02.24,5.15.06,2.13.17,4.62.21,7.28.06,2.66.07,5.5.08,8.34-.01,2.84-.02,5.68-.08,8.34-.04,2.66-.15,5.15-.21,7.28-.06,2.13-.19,3.91-.24,5.15-.08,1.24-.13,1.95-.13,1.95,0,0-.05-.71-.13-1.95-.05-1.24-.18-3.02-.24-5.15-.06-2.13-.17-4.62-.21-7.28-.06-2.66-.06-5.5-.08-8.34.01-2.84.02-5.68.08-8.34.04-2.66.15-5.15.21-7.28.06-2.13.19-3.91.24-5.15.08-1.24.13-1.95.13-1.95Z"/>
    </g>
  </g>
  <g>
    <path class="st14" d="M1141.95,68.64c-4.13-6.68-12.68-8.56-20.32-9.68-56.98-8.32-115.24-7.4-171.95,2.73-6.43,1.15-13.36,2.71-17.6,7.79-4.23,5.06-4.69,12.27-4.94,18.93-.46,12.3-.92,24.6-1.38,36.9-.46,12.23-.36,25.99,8.1,34.63,5.45,5.57,13.5,7.79,21.2,7.68,7.7-.11,15.21-2.31,22.61-4.49-.99,13.46-1.99,26.93-2.98,40.39,6.72-7.27,13.43-14.54,20.15-21.81,4.44-4.8,8.99-9.69,14.71-12.76,8.44-4.51,18.4-4.54,27.92-4.46,26.68.21,53.36.43,80.04.64,6.21.05,13.27-.28,17.28-5.14,2.76-3.35,3.28-8.01,3.69-12.38,1.89-20.32,3.78-40.64,5.67-60.96.57-6.15,1.03-12.82-2.19-18.04Z"/>
    <g>
      <path class="st13" d="M1136.09,142.26c-.12,4.16-.16,8.78-.32,13.46-.31,4.32-3.38,8.63-7.81,10.23-1.09.43-2.26.64-3.44.72l-.9.03h-1s-2.01-.03-2.01-.03c-2.69-.02-5.42-.04-8.17-.06-5.49-.02-11.08-.04-16.66-.06-5.58.02-11.16.04-16.66.05-5.49.05-10.9.09-16.13.14-10.47.11-20.23.28-28.61.49-8.37.18-15.35.47-20.23.61-1.55.06-2.86.12-3.96.16l2.84-3.32,10.03-.19,10.59-.26c7.06-.25,14.12-.4,21.18-.74-7.06-.34-14.12-.49-21.18-.74l-10.59-.26-10.59-.2h-.52s-.38.41-.38.41l-4.93,5.45c-.1,0-.16,0-.16,0,0,0,.05,0,.15,0l-5.51,6.08-10.38,11.6-10.33,11.65-7.45,8.51c.13-6.1.23-12.21.34-18.31l.26-22.58v-1.1s-1.04.02-1.04.02c-5.79.13-11.59.24-17.38.44-5.79.18-11.59.33-17.38.6,5.79.27,11.59.42,17.38.6,5.43.19,10.86.3,16.29.42l-.08,1.99c-.45-.02-1.03-.04-1.73-.07-1.89-.09-4.66-.19-8.18-.3-3.53-.11-7.81-.24-12.72-.4-2.46-.05-5.07-.1-7.82-.15-.69-.01-1.39-.03-2.09-.04l-1.01-.02-1.08-.08c-1.3-.15-2.6-.49-3.87-1.07-2.51-1.15-4.68-3.28-5.89-5.95-.61-1.33-1.01-2.78-1.1-4.29-.05-.72-.04-1.58-.03-2.44,0-.85.01-1.71.02-2.58.05-6.92.09-14.23.14-21.78.1-7.55-.03-15.36-.06-23.29-.06-7.93-.13-15.99-.19-24.05l-.12-6.04c0-1.98-.2-4.13.14-5.79.69-3.62,3.07-6.95,6.4-8.65,1.65-.86,3.47-1.4,5.34-1.5,1.94-.05,3.91-.03,5.85-.05,3.89-.02,7.73-.05,11.5-.07,15.11-.09,29.21-.17,41.3-.24,24.17-.18,40.29-.3,40.29-.3,0,0-16.12-.12-40.29-.3-12.09-.07-26.19-.15-41.3-.24-3.78-.02-7.62-.04-11.5-.07-1.95,0-3.91-.02-5.88-.03-2.06-.02-4.16.41-6.06,1.32-3.83,1.78-6.76,5.46-7.74,9.68-.51,2.28-.33,4.2-.42,6.23l-.12,6.04c-.06,8.06-.13,16.12-.19,24.05-.03,7.93-.16,15.74-.06,23.29.05,7.55.1,14.86.14,21.78,0,.87.01,1.73.02,2.58,0,.85,0,1.68.07,2.64.15,1.85.64,3.64,1.44,5.24,1.61,3.21,4.33,5.65,7.36,6.9,1.5.63,3.12.99,4.69,1.09l1.08.03,1.12-.02c.71-.01,1.4-.03,2.09-.04,2.75-.05,5.37-.11,7.82-.15,4.91-.15,9.19-.29,12.72-.4,3.53-.11,6.3-.2,8.18-.3.7-.03,1.27-.06,1.72-.07l-.81,19.42c-.26,7.52-.57,15.05-.77,22.57l-.11,4.26,2.83-3.19,10.32-11.66,10.25-11.72,10.19-11.77,6.7-7.82c1.15.05,2.55.1,4.21.17,4.88.14,11.86.43,20.23.61,8.37.21,18.14.38,28.61.49,5.23.04,10.64.09,16.13.14,5.49.02,11.08.04,16.66.05,5.58-.02,11.16-.04,16.66-.06,2.75-.02,5.47-.04,8.17-.06l2.01-.02c.65,0,1.34-.01,2.1-.07,1.46-.13,2.91-.42,4.25-.98,2.69-1.06,5-2.91,6.57-5.18,1.59-2.27,2.48-4.9,2.6-7.55.03-4.91-.15-9.36-.23-13.58-.18-8.37-.47-15.35-.6-20.23-.2-4.88-.31-7.67-.31-7.67,0,0-.11,2.79-.31,7.67-.14,4.88-.42,11.86-.6,20.23Z"/>
      <path class="st13" d="M1134.73,62.32c-1.47-1.62-3.31-2.93-5.37-3.72-2.03-.83-4.39-1.09-6.4-1.02-15.93.2-31.87.42-43.82.77-5.97.16-10.95.3-14.44.39-3.49.12-5.48.19-5.48.19,0,0,1.99.07,5.48.19,3.49.1,8.46.23,14.44.39,11.95.35,27.88.58,43.82.77,1.97,0,3.63.3,5.27,1.02,1.61.72,3.04,1.79,4.2,3.08,1.15,1.3,2.01,2.82,2.48,4.45.49,1.66.55,3.2.53,5.17.02,7.47.19,14.44.4,20.41.2,5.97.51,10.95.75,14.44.11,1.74.2,3.11.29,4.05.08.93.12,1.43.12,1.43,0,0,.04-.5.12-1.43.09-.93.19-2.3.29-4.05.24-3.49.55-8.46.75-14.44.21-5.97.38-12.95.4-20.41.03-1.76.06-4.07-.63-6.09-.63-2.06-1.75-3.99-3.22-5.6Z"/>
      <path class="st13" d="M1038.05,55.75c-7.39.04-14.78.07-21.71.11-6.93.03-13.4.18-18.94.24-5.54.07-10.16.23-13.4.29-3.23.1-5.08.15-5.08.15,0,0,1.85.06,5.08.15,3.23.06,7.85.22,13.4.29,5.54.07,12.01.21,18.94.24,6.93.03,14.32.07,21.71.11,7.39-.04,14.78-.07,21.71-.11,6.93-.03,13.4-.18,18.94-.24,5.54-.07,10.16-.23,13.4-.29,3.23-.1,5.08-.16,5.08-.16,0,0-1.85-.06-5.08-.16-3.23-.06-7.85-.22-13.4-.29-5.54-.07-12.01-.22-18.94-.24-6.93-.03-14.32-.07-21.71-.11Z"/>
      <path class="st13" d="M1139.8,88.51s.06.86.15,2.36c.06,1.5.22,3.64.29,6.22.07,2.57.2,5.57.25,8.79.07,3.22.08,6.64.1,10.07-.02,3.43-.03,6.86-.1,10.07-.05,3.22-.18,6.22-.25,8.79-.07,2.57-.23,4.72-.29,6.22-.1,1.5-.16,2.36-.16,2.36,0,0-.06-.86-.16-2.36-.06-1.5-.22-3.64-.29-6.22-.07-2.57-.21-5.57-.25-8.79-.07-3.22-.08-6.64-.1-10.07.02-3.43.03-6.86.1-10.07.05-3.22.18-6.22.25-8.79.07-2.57.23-4.72.29-6.22.1-1.5.15-2.36.15-2.36Z"/>
    </g>
  </g>
  <g>
    <path class="st14" d="M209.05,302.38c-5.79,6.15-15.45,5.97-23.87,5.33-4.76,11.07-9.51,22.14-14.27,33.21-3.94-6.45-7.88-12.89-11.83-19.34-2.1-3.43-4.32-6.99-7.76-9.09-4.93-3-11.15-2.34-16.89-1.76-28.07,2.85-56.57,1.36-84.19-4.4-6.76-1.41-13.83-3.27-18.69-8.17-7.79-7.84-7.29-20.42-6.28-31.42,1.59-17.13,3.17-34.26,4.76-51.39.29-3.15.64-6.47,2.49-9.03,2.72-3.78,7.8-4.82,12.4-5.52,47.62-7.28,96.1-8.94,144.1-4.96,6.61.55,14.04,1.66,17.89,7.06,2.53,3.55,2.87,8.17,3.12,12.52,1.25,21.67,2.49,43.34,3.74,65.01.44,7.69.56,16.33-4.72,21.94Z"/>
    <g>
      <path class="st13" d="M143.09,304.77l-9.44-.2c-6.29-.13-12.58-.25-18.88-.45,6.29-.19,12.58-.32,18.88-.45l9.44-.2,9.44-.13h.49s.21.46.21.46l10.9,23.82,9.36,20.89,5.27-17.73,6.36-20.84.27-.89h.92s3.63.02,3.63.02c.39-1.13.77-2.2,1.1-3.17.57-1.67,1.12-3.05,1.47-4.02.38-.96.59-1.51.59-1.51,0,0-.13.58-.35,1.59-.25,1-.55,2.45-1.01,4.16-.24.91-.5,1.91-.77,2.96l7.29.03h2.99s1.49.01,1.49.01c.44-.02.88-.02,1.32-.11,1.74-.24,3.41-1.05,4.7-2.25,1.31-1.19,2.25-2.78,2.67-4.5.12-.45.16-.8.23-1.27l.05-.75c.01-.14,0-.47.01-.69l.04-2.99.15-11.96c.12-7.97.16-15.94.35-23.92.17-7.97.3-15.94.55-23.92.25,7.97.37,15.94.55,23.92.19,7.97.23,15.94.35,23.92l.15,11.96.04,2.99c0,.27.01.44,0,.8l-.03.75c-.05.52-.11,1.16-.25,1.68-.5,2.16-1.66,4.16-3.29,5.66-1.61,1.51-3.7,2.55-5.9,2.88-.55.11-1.1.12-1.66.15h-1.5s-2.99.02-2.99.02l-7.95.03c-.04.14-.08.28-.12.43-.59,2.13-1.26,4.39-1.93,6.65-.7,2.25-1.39,4.51-2.08,6.6-.68,2.1-1.38,4.05-1.95,5.72-.57,1.67-1.12,3.05-1.47,4.02-.38.96-.59,1.51-.59,1.51,0,0,.13-.58.35-1.59.25-1,.55-2.45,1-4.16.46-1.71.95-3.72,1.55-5.84.59-2.13,1.26-4.39,1.93-6.65.7-2.25,1.39-4.51,2.08-6.6,0-.03.02-.06.03-.09h-1.87s-5.96,20.01-5.96,20.01l-6.38,20.84-.97,3.16-1.32-3.02-10.49-24-10.1-23.64-8.93-.12Z"/>
      <path class="st13" d="M172.54,197.34c10.1.12,19.8.17,29.12.34,2.51.21,4.83,1.27,6.56,2.94,1.73,1.65,2.85,3.86,3.17,6.13.1.57.11,1.14.13,1.7,0,.54,0,1.08-.01,1.61,0,1.07-.02,2.13-.02,3.18-.02,2.1-.03,4.16-.05,6.18-.27,32.28-.45,53.8-.45,53.8,0,0-.18-21.52-.45-53.8-.01-2.02-.03-4.08-.05-6.18,0-1.05-.02-2.11-.02-3.18-.01-1.09.03-2.14-.18-3.13-.65-4.07-4.4-7.57-8.7-7.78-9.17.02-18.98.18-29.04.26-10.09.14-20.51.1-31.1.16-10.59.04-21.35.07-32.11.11-21.52-.06-43.04-.12-63.21-.18-2.52-.02-5.02-.04-7.5-.06-1.3-.03-2.31-.01-3.4.27-1.07.27-2.08.73-2.98,1.36-1.8,1.24-3.11,3.17-3.63,5.23-.05.26-.14.47-.17.78-.03.26-.1.66-.1.81l-.09,1.76c-.06,1.17-.12,2.33-.19,3.49-.49,9.23-.95,17.96-1.38,26.02-.93,16.11-1.7,29.54-2.24,38.94-.58,9.4-.9,14.77-.9,14.77,0,0,.16-5.38.45-14.79.32-9.41.79-22.85,1.34-38.98.31-8.06.65-16.8,1.01-26.04.04-1.15.09-2.32.14-3.49l.07-1.76c.03-.44.07-.63.1-.95.02-.28.12-.64.18-.96.59-2.55,2.11-4.87,4.27-6.44,1.07-.79,2.3-1.38,3.6-1.74,1.27-.38,2.75-.43,3.93-.42,2.48-.02,4.98-.04,7.5-.06,20.17-.06,41.69-.12,63.21-.18,10.76.04,21.52.07,32.11.11,10.59.06,21.01.02,31.1.16Z"/>
      <path class="st13" d="M19.75,295.99c.1-1.02.2-2.01.29-2.99.76-7.81,1.5-14.31,1.97-18.87.52-4.55.82-7.15.82-7.15,0,0-.11,2.62-.3,7.19-.24,4.57-.51,11.11-.97,18.95-.06.98-.11,1.98-.17,3-.05,1.01-.14,2.09-.12,3.02.07.96.26,1.93.6,2.86.36.92.88,1.8,1.52,2.58,1.28,1.58,3.17,2.69,5.22,3.12l.73.11c.24.04.58.03.86.05.48.03,1.16,0,1.74,0,1.2-.01,2.42-.02,3.65-.03,4.9-.04,9.97-.07,15.12-.11,5.15-.01,10.38-.03,15.61-.04,5.23.02,10.46.03,15.61.05,5.15.04,10.22.08,15.12.11,9.81.09,18.97.24,26.81.41,7.85.15,14.39.39,18.97.5,4.58.16,7.19.26,7.19.26,0,0-2.62.09-7.19.26-4.58.11-11.12.35-18.97.5-7.85.17-17,.31-26.81.41-4.9.04-9.97.08-15.12.11-5.15.02-10.38.03-15.61.05-5.23-.02-10.46-.03-15.61-.04-5.15-.04-10.22-.08-15.12-.11-1.23-.01-2.44-.02-3.65-.03-.63-.01-1.14,0-1.86-.04-.31-.03-.57-.02-.91-.08l-1.02-.17c-2.55-.6-4.82-2.05-6.31-4.02-1.54-1.94-2.32-4.33-2.35-6.63.02-1.19.16-2.18.25-3.2Z"/>
      <path class="st13" d="M98.21,194.32c-4.24.03-8.77.06-13.3.09-4.53-.03-9.05-.06-13.3-.09-4.24-.03-8.2-.15-11.6-.2-3.39-.06-6.22-.19-8.2-.24-1.98-.08-3.11-.13-3.11-.13,0,0,1.13-.05,3.11-.13,1.98-.05,4.81-.18,8.2-.24,3.39-.05,7.35-.18,11.6-.2,4.24-.03,8.77-.06,13.3-.09,4.53.03,9.05.06,13.3.09,4.24.02,8.2.15,11.6.2,3.39.06,6.22.19,8.2.24,1.98.08,3.11.13,3.11.13,0,0-1.13.05-3.11.13-1.98.05-4.81.19-8.2.24-3.39.05-7.35.18-11.6.2Z"/>
    </g>
  </g>
  <g>
    <path class="st14" d="M539.4,184.23c6.13,6.51,16.35,6.31,25.27,5.64,5.04,11.72,10.07,23.44,15.11,35.15,4.17-6.82,8.35-13.65,12.52-20.47,2.22-3.63,4.58-7.4,8.21-9.62,5.21-3.18,11.8-2.48,17.88-1.86,29.71,3.02,59.89,1.44,89.12-4.66,7.15-1.49,14.64-3.46,19.79-8.65,8.24-8.3,7.72-21.61,6.64-33.26-1.68-18.13-3.36-36.26-5.03-54.4-.31-3.33-.68-6.85-2.64-9.56-2.88-4-8.26-5.1-13.13-5.84-50.41-7.7-101.72-9.47-152.54-5.25-6.99.58-14.87,1.76-18.94,7.48-2.68,3.76-3.04,8.65-3.3,13.26-1.32,22.94-2.64,45.88-3.96,68.81-.47,8.14-.59,17.29,5,23.23Z"/>
    <g>
      <path class="st13" d="M609.23,186.76l9.99-.21c6.66-.14,13.32-.27,19.98-.47-6.66-.21-13.32-.34-19.98-.47l-9.99-.21-9.99-.14h-.52s-.23.49-.23.49l-11.54,25.21-9.9,22.11-5.57-18.77-6.73-22.06-.29-.94h-.97s-3.84.02-3.84.02c-.41-1.2-.81-2.33-1.16-3.36-.6-1.77-1.19-3.23-1.56-4.25-.4-1.02-.63-1.6-.63-1.6,0,0,.13.61.37,1.68.26,1.06.58,2.59,1.06,4.4.26.96.53,2.02.82,3.14l-7.72.03h-3.16s-1.57.02-1.57.02c-.47-.03-.94-.02-1.39-.12-1.85-.26-3.61-1.11-4.98-2.38-1.39-1.25-2.38-2.94-2.82-4.76-.13-.47-.17-.85-.24-1.34l-.05-.79c-.01-.15,0-.49-.02-.73l-.04-3.16-.16-12.66c-.13-8.44-.17-16.88-.37-25.32-.18-8.44-.32-16.88-.58-25.32-.26,8.44-.39,16.88-.58,25.32-.2,8.44-.24,16.88-.37,25.32l-.16,12.66-.04,3.16c0,.29-.02.47,0,.85l.03.79c.05.55.12,1.23.27,1.77.53,2.28,1.76,4.4,3.48,5.99,1.71,1.6,3.92,2.7,6.24,3.05.58.11,1.17.13,1.76.16h1.59s3.16.02,3.16.02l8.42.04c.04.15.08.3.12.45.62,2.26,1.33,4.65,2.04,7.04.74,2.38,1.47,4.77,2.2,6.99.72,2.23,1.46,4.28,2.07,6.06.6,1.77,1.19,3.23,1.56,4.25.4,1.02.63,1.6.63,1.6,0,0-.13-.61-.37-1.68-.26-1.06-.58-2.59-1.06-4.4-.48-1.81-1-3.93-1.64-6.18-.62-2.26-1.33-4.65-2.04-7.04-.74-2.38-1.47-4.77-2.21-6.99,0-.03-.02-.06-.03-.09h1.98s6.31,21.18,6.31,21.18l6.75,22.06,1.03,3.35,1.4-3.2,11.1-25.41,10.69-25.02,9.45-.13Z"/>
      <path class="st13" d="M578.05,73.04c-10.69.13-20.96.18-30.82.36-2.65.23-5.12,1.35-6.94,3.12-1.84,1.75-3.02,4.09-3.36,6.49-.11.6-.11,1.2-.13,1.8,0,.57,0,1.14.01,1.71,0,1.13.02,2.25.02,3.36.02,2.22.03,4.4.05,6.54.29,34.17.48,56.95.48,56.95,0,0,.19-22.78.48-56.95.02-2.14.03-4.32.05-6.54,0-1.11.02-2.23.02-3.36.01-1.15-.03-2.27.19-3.32.69-4.31,4.66-8.01,9.21-8.24,9.71.02,20.09.19,30.75.28,10.68.15,21.71.1,32.92.17,11.21.04,22.6.08,33.99.12,22.78-.07,45.56-.13,66.91-.19,2.67-.02,5.32-.04,7.94-.06,1.37-.03,2.44-.01,3.6.29,1.13.28,2.2.78,3.15,1.44,1.9,1.32,3.29,3.35,3.84,5.54.06.28.15.49.18.83.03.28.1.69.11.85l.1,1.86c.07,1.24.13,2.47.2,3.69.52,9.77,1.01,19.01,1.46,27.54.98,17.06,1.8,31.27,2.37,41.22.61,9.95.96,15.63.96,15.63,0,0-.17-5.69-.48-15.65-.34-9.96-.83-24.19-1.42-41.26-.33-8.54-.69-17.78-1.07-27.56-.05-1.22-.1-2.45-.14-3.69l-.07-1.86c-.03-.46-.07-.66-.1-1.01-.02-.29-.13-.68-.19-1.02-.62-2.7-2.23-5.15-4.52-6.81-1.14-.83-2.44-1.46-3.82-1.84-1.35-.4-2.92-.45-4.16-.44-2.62-.02-5.27-.04-7.94-.06-21.35-.06-44.13-.13-66.91-.19-11.39.04-22.78.08-33.99.12-11.21.06-22.24.02-32.92.17Z"/>
      <path class="st13" d="M739.79,177.46c-.11-1.08-.21-2.13-.31-3.16-.8-8.27-1.59-15.15-2.09-19.97-.55-4.82-.86-7.57-.86-7.57,0,0,.12,2.77.32,7.61.26,4.84.54,11.76,1.03,20.06.06,1.04.12,2.1.18,3.17.06,1.07.15,2.22.13,3.2-.08,1.02-.27,2.04-.64,3.03-.38.98-.93,1.9-1.61,2.73-1.35,1.68-3.36,2.85-5.53,3.3l-.78.11c-.26.04-.61.03-.92.05-.5.03-1.23,0-1.84,0-1.28-.01-2.56-.02-3.86-.03-5.19-.04-10.56-.08-16.01-.12-5.45-.02-10.99-.03-16.53-.05-5.54.02-11.08.03-16.53.05-5.45.04-10.82.08-16.01.12-10.38.1-20.08.25-28.38.43-8.31.16-15.23.41-20.08.53-4.85.17-7.61.27-7.61.27,0,0,2.77.1,7.61.27,4.85.12,11.77.37,20.08.53,8.31.18,18,.33,28.38.43,5.19.04,10.56.08,16.01.12,5.45.02,10.99.03,16.53.05,5.54-.02,11.08-.03,16.53-.05,5.45-.04,10.82-.08,16.01-.12,1.3-.01,2.59-.02,3.86-.03.67-.02,1.21.01,1.97-.04.33-.03.6-.02.97-.08l1.08-.18c2.7-.64,5.1-2.17,6.68-4.25,1.63-2.05,2.45-4.58,2.49-7.02-.03-1.26-.17-2.3-.27-3.39Z"/>
      <path class="st13" d="M656.73,69.84c4.49.03,9.28.06,14.07.09,4.79-.03,9.58-.06,14.07-.09,4.49-.03,8.68-.16,12.28-.21,3.59-.06,6.59-.2,8.68-.26,2.1-.09,3.29-.14,3.29-.14,0,0-1.2-.05-3.29-.14-2.1-.06-5.09-.19-8.68-.26-3.59-.06-7.79-.19-12.28-.21-4.49-.03-9.28-.06-14.07-.09-4.79.03-9.58.06-14.07.09-4.49.02-8.68.16-12.28.21-3.59.06-6.59.2-8.68.26-2.1.09-3.29.14-3.29.14,0,0,1.2.05,3.29.14,2.1.06,5.09.2,8.68.26,3.59.06,7.79.19,12.28.21Z"/>
    </g>
  </g>
  <text class="st6" transform="translate(73.73 236.88)"><tspan x="0" y="0" xml:space="preserve"> “I leave my</tspan><tspan x="-25.87" y="20">computer on fairly</tspan><tspan x="21.07" y="40">often”</tspan></text>
  <text class="st6" transform="translate(148.8 83.97)"><tspan x="0" y="0" xml:space="preserve"> “Standby</tspan><tspan x="-28.72" y="20">uses less energy”</tspan></text>
  <text class="st6" transform="translate(325.67 101.75)"><tspan x="0" y="0">“If a device has like a</tspan><tspan x="13" y="20">standby mode, I&apos;ll</tspan><tspan x=".97" y="40">probably leave it on”</tspan></text>
  <text class="st6" transform="translate(572.33 120.19)"><tspan x="0" y="0">“Most of the time</tspan><tspan x="-20.51" y="20">I leave just everything </tspan><tspan x="20.18" y="40">plugged in”</tspan></text>
  <g>
    <path class="st14" d="M1219.94,189.23c6.36-.56,13.41-.87,18.39,3.13,3.5,2.81,5.28,7.34,5.72,11.81.43,4.47-.33,8.97-1.08,13.4-4.09,23.95-8.18,47.89-12.27,71.84-.8,4.68-1.8,9.73-5.36,12.87-3.94,3.47-9.74,3.52-14.99,3.37-28.34-.8-56.67-1.59-85.01-2.39-11.05,13.67-22.11,27.33-33.16,41-1.16-12.75-2.32-25.5-3.48-38.25-5.99-3.12-9.9-9.34-11.69-15.85-1.79-6.51-1.73-13.37-1.53-20.12.43-14.63,1.45-29.24,3.05-43.78.55-4.96,1.37-10.35,5.03-13.74,2.77-2.56,6.64-3.47,10.33-4.26,41.57-8.91,83.69-15.27,126.04-19.02Z"/>
    <g>
      <path class="st13" d="M1077.79,218.01c-.05,1.37,0,2.53,0,3.81l.16,30.03.18,30.03.07,7.51.03,3.75c-.01,1.19.03,2.62.39,3.99.64,2.68,2.26,5.09,4.42,6.77,1.89,1.51,4.25,2.33,6.64,2.52l2.9,45.5.15,2.32,1.32-1.9,35.24-50.72,3.08-.03s-.05.06-.08.1c-.85,1.13-1.82,2.39-2.84,3.75h-1.13s1.11.02,1.11.02c-.39.51-.78,1.04-1.17,1.58-1.45,1.97-2.96,4.11-4.47,6.24-1.48,2.15-2.97,4.3-4.32,6.34-1.37,2.03-2.57,3.98-3.64,5.62-1.07,1.64-1.89,3.06-2.49,4.04-.58.99-.91,1.55-.91,1.55,0,0,.42-.51,1.14-1.39.7-.9,1.76-2.16,2.93-3.73,1.17-1.57,2.58-3.37,4.02-5.36,1.45-1.97,2.96-4.11,4.47-6.24,1.48-2.15,2.97-4.3,4.32-6.34.53-.79,1.03-1.55,1.51-2.3l57.56.54,30.03.22c1.27,0,2.47.03,3.79,0,.6,0,1.31-.09,1.98-.21.66-.13,1.3-.32,1.93-.55,2.51-.95,4.69-2.76,6.08-5.06.7-1.15,1.21-2.42,1.5-3.73.27-1.37.35-2.53.53-3.79l.94-7.45,7.51-59.58,1.83-14.9.91-7.45c.14-1.28.33-2.41.44-3.8l.05-.94-.05-1.1c-.05-.73-.19-1.39-.35-2.08-.69-2.71-2.33-5.14-4.53-6.84-1.1-.85-2.36-1.49-3.68-1.96-1.33-.44-2.73-.63-4.12-.64-1.45.07-2.65.27-3.89.43l-3.72.51-7.44,1.02-59.5,8.15-59.48,8.31-7.43,1.04c-1.26.19-2.42.31-3.77.56-.57.11-1.43.33-2.03.58-.66.24-1.29.55-1.89.9-2.42,1.41-4.35,3.65-5.36,6.26-.51,1.3-.8,2.69-.86,4.08ZM1080.44,218.13c.05-1.1.28-2.2.69-3.22.8-2.06,2.33-3.82,4.24-4.92.48-.27.97-.52,1.49-.7.26-.11.51-.19.76-.25.24-.07.49-.15.82-.2,1.11-.21,2.44-.35,3.65-.53l7.44-1.02,59.49-8.19,59.47-8.35,7.43-1.04,3.72-.52c1.24-.17,2.52-.37,3.57-.42,1.11.01,2.21.15,3.26.5,1.04.37,2.04.87,2.92,1.54,1.76,1.35,3.07,3.28,3.63,5.43.62,2.09.15,4.45-.13,6.98l-.89,7.45-1.78,14.91-6.92,59.66-.86,7.46c-.16,1.21-.26,2.56-.47,3.65-.24,1.13-.66,2.22-1.25,3.21-1.18,1.99-3.04,3.57-5.2,4.42-.55.2-1.1.37-1.67.49-.56.1-1.08.19-1.74.2-1.18.04-2.48.02-3.72.04l-30.03.22-57.53.54c.75-1.17,1.46-2.28,2.11-3.27.13-.2.24-.38.37-.57l29.51-.3-29.14-.29c.71-1.15,1.29-2.13,1.75-2.87.58-.99.91-1.55.91-1.55,0,0-.42.51-1.14,1.39-.59.76-1.43,1.78-2.39,3.02l-3.72-.04h-.17s-.1.14-.1.14l-34.76,48.45-2.36-44.14-.43-.66-.62-.33h0s0,0,0,0c-2.27-.04-4.53-.78-6.29-2.22-1.77-1.41-3.08-3.4-3.57-5.6-.26-1.05-.31-2.15-.29-3.46v-3.75s.02-7.51.02-7.51l-.05-30.03-.06-30.03c0-1.23-.03-2.56.02-3.7Z"/>
      <path class="st13" d="M1200.96,187c1.63-.16,2.56-.24,2.56-.24,0,0-.91.19-2.51.52-1.6.3-3.89.79-6.64,1.28-2.76.48-5.96,1.09-9.41,1.66-3.45.59-7.13,1.15-10.82,1.73-3.69.54-7.38,1.09-10.84,1.56-3.46.48-6.71.85-9.48,1.2-2.78.35-5.1.56-6.72.75-1.63.16-2.56.25-2.56.25,0,0,.91-.19,2.51-.52,1.6-.3,3.89-.79,6.64-1.28,2.76-.48,5.96-1.09,9.41-1.66,3.45-.58,7.13-1.15,10.82-1.73,3.69-.54,7.38-1.09,10.84-1.56,3.46-.48,6.71-.85,9.48-1.2,2.77-.36,5.1-.56,6.72-.75Z"/>
    </g>
  </g>
  <text class="st6" transform="translate(775.08 234.68)"><tspan x="0" y="0">“I rarely use</tspan><tspan x="-36.79" y="20">energy saving mode”</tspan></text>
  <text class="st6" transform="translate(1106.2 249.28)"><tspan x="0" y="0">“I&apos;m aware this</tspan><tspan x="13.15" y="20">is an issue”</tspan></text>
  <g>
    <path class="st14" d="M890.75,14.92c6.36-.56,13.41-.87,18.39,3.13,3.5,2.81,5.28,7.34,5.72,11.81.43,4.47-.33,8.97-1.08,13.4-4.09,23.95-8.18,47.89-12.27,71.84-.8,4.68-1.8,9.73-5.36,12.87-3.94,3.47-9.74,3.52-14.99,3.37-28.34-.8-56.67-1.59-85.01-2.39-11.05,13.67-22.11,27.33-33.16,41-1.16-12.75-2.32-25.5-3.48-38.25-5.99-3.12-9.9-9.34-11.69-15.85-1.79-6.51-1.73-13.37-1.53-20.12.43-14.63,1.45-29.24,3.05-43.78.55-4.96,1.37-10.35,5.03-13.74,2.77-2.56,6.64-3.47,10.33-4.26,41.57-8.91,83.69-15.27,126.04-19.02Z"/>
    <g>
      <path class="st13" d="M748.61,43.7c-.05,1.37,0,2.53,0,3.81l.16,30.03.18,30.03.07,7.51.03,3.75c-.01,1.19.03,2.62.39,3.99.64,2.68,2.26,5.09,4.42,6.77,1.89,1.51,4.25,2.33,6.64,2.52l2.9,45.5.15,2.32,1.32-1.9,35.24-50.72,3.08-.03s-.05.06-.08.1c-.85,1.13-1.82,2.39-2.84,3.75h-1.13s1.11.02,1.11.02c-.39.51-.78,1.04-1.17,1.58-1.45,1.97-2.96,4.11-4.47,6.24-1.48,2.15-2.97,4.3-4.32,6.34-1.37,2.03-2.57,3.98-3.64,5.62-1.07,1.64-1.89,3.06-2.49,4.04-.58.99-.91,1.55-.91,1.55,0,0,.42-.51,1.14-1.39.7-.9,1.76-2.16,2.93-3.73,1.17-1.57,2.58-3.37,4.02-5.36,1.45-1.97,2.96-4.11,4.47-6.24,1.48-2.15,2.97-4.3,4.32-6.34.53-.79,1.03-1.55,1.51-2.3l57.56.54,30.03.22c1.27,0,2.47.03,3.79,0,.6,0,1.31-.09,1.98-.21.66-.13,1.3-.32,1.93-.55,2.51-.95,4.69-2.76,6.08-5.06.7-1.15,1.21-2.42,1.5-3.73.27-1.37.35-2.53.53-3.79l.94-7.45,7.51-59.58,1.83-14.9.91-7.45c.14-1.28.33-2.41.44-3.8l.05-.94-.05-1.1c-.05-.73-.19-1.39-.35-2.08-.69-2.71-2.33-5.14-4.53-6.84-1.1-.85-2.36-1.49-3.68-1.96-1.33-.44-2.73-.63-4.12-.64-1.45.07-2.65.27-3.89.43l-3.72.51-7.44,1.02-59.5,8.15-59.48,8.31-7.43,1.04c-1.26.19-2.42.31-3.77.56-.57.11-1.43.33-2.03.58-.66.24-1.29.55-1.89.9-2.42,1.41-4.35,3.65-5.36,6.26-.51,1.3-.8,2.69-.86,4.08ZM751.25,43.82c.05-1.1.28-2.2.69-3.22.8-2.06,2.33-3.82,4.24-4.92.48-.27.97-.52,1.49-.7.26-.11.51-.19.76-.25.24-.07.49-.15.82-.2,1.11-.21,2.44-.35,3.65-.53l7.44-1.02,59.49-8.19,59.47-8.35,7.43-1.04,3.72-.52c1.24-.17,2.52-.37,3.57-.42,1.11.01,2.21.15,3.26.5,1.04.37,2.04.87,2.92,1.54,1.76,1.35,3.07,3.28,3.63,5.43.62,2.09.15,4.45-.13,6.98l-.89,7.45-1.78,14.91-6.92,59.66-.86,7.46c-.16,1.21-.26,2.56-.47,3.65-.24,1.13-.66,2.22-1.25,3.21-1.18,1.99-3.04,3.57-5.2,4.42-.55.2-1.1.37-1.67.49-.56.1-1.08.19-1.74.2-1.18.04-2.48.02-3.72.04l-30.03.22-57.53.54c.75-1.17,1.46-2.28,2.11-3.27.13-.2.24-.38.37-.57l29.51-.3-29.14-.29c.71-1.15,1.29-2.13,1.75-2.87.58-.99.91-1.55.91-1.55,0,0-.42.51-1.14,1.39-.59.76-1.43,1.78-2.39,3.02l-3.72-.04h-.17s-.1.14-.1.14l-34.76,48.45-2.36-44.14-.43-.66-.62-.33h0s0,0,0,0c-2.27-.04-4.53-.78-6.29-2.22-1.77-1.41-3.08-3.4-3.57-5.6-.26-1.05-.31-2.15-.29-3.46v-3.75s.02-7.51.02-7.51l-.05-30.03-.06-30.03c0-1.23-.03-2.56.02-3.7Z"/>
      <path class="st13" d="M871.77,12.69c1.63-.16,2.56-.24,2.56-.24,0,0-.91.19-2.51.52-1.6.3-3.89.79-6.64,1.28-2.76.48-5.96,1.09-9.41,1.66-3.45.59-7.13,1.15-10.82,1.73-3.69.54-7.38,1.09-10.84,1.56-3.46.48-6.71.85-9.48,1.2-2.78.35-5.1.56-6.72.75-1.63.16-2.56.25-2.56.25,0,0,.91-.19,2.51-.52,1.6-.3,3.89-.79,6.64-1.28,2.76-.48,5.96-1.09,9.41-1.66,3.45-.58,7.13-1.15,10.82-1.73,3.69-.54,7.38-1.09,10.84-1.56,3.46-.48,6.71-.85,9.48-1.2,2.77-.36,5.1-.56,6.72-.75Z"/>
    </g>
  </g>
  <text class="st6" transform="translate(761.39 65.6)"><tspan x="0" y="0">“That&apos;s definitely a</tspan><tspan x="20.15" y="20">good feature</tspan><tspan x="39.96" y="40">to help”</tspan></text>
  <text class="st6" transform="translate(942.03 99.98)"><tspan x="0" y="0">“It’ll help in getting into</tspan><tspan x="14.22" y="20">a routine of turning</tspan><tspan x="48.09" y="40">things off”</tspan></text>
</svg>