<?xml version="1.0" encoding="UTF-8"?>
<svg id="Layer_1" xmlns="http://www.w3.org/2000/svg" version="1.1" viewBox="0 0 4009 2004">
  <!-- Generator: Adobe Illustrator 29.2.0, SVG Export Plug-In . SVG Version: 2.1.0 Build 108)  -->
  <defs>
    <style>
      .st0 {
        font-family: Poppins-Regular, Poppins;
        font-size: 47.99px;
      }

      .st1 {
        fill: #757575;
      }

      .st2 {
        fill: none;
        stroke: #07986b;
        stroke-width: 6px;
      }
    </style>
  </defs>
  <path class="st1" d="M287.5,315c0-.83-.67-1.5-1.5-1.5s-1.5.67-1.5,1.5h3ZM284.94,424.06c.59.58,1.54.58,2.12,0l9.55-9.55c.58-.59.58-1.54,0-2.12-.59-.58-1.54-.58-2.12,0l-8.48,8.49-8.48-8.49c-.59-.58-1.54-.58-2.12,0-.58.59-.58,1.54,0,2.12l9.55,9.55ZM284.5,315v108h3v-108h-3Z"/>
  <path class="st1" d="M287.5,738c0-.83-.67-1.5-1.5-1.5s-1.5.67-1.5,1.5h3ZM284.94,847.06c.59.59,1.54.59,2.12,0l9.55-9.55c.58-.59.58-1.54,0-2.12-.59-.59-1.54-.59-2.12,0l-8.48,8.49-8.48-8.49c-.59-.59-1.54-.59-2.12,0-.58.59-.58,1.54,0,2.12l9.55,9.55ZM284.5,738v108h3v-108h-3Z"/>
  <path class="st1" d="M287.5,1159c0-.83-.67-1.5-1.5-1.5s-1.5.67-1.5,1.5h3ZM284.94,1272.06c.59.59,1.54.59,2.12,0l9.55-9.55c.58-.58.58-1.53,0-2.12-.59-.58-1.54-.58-2.12,0l-8.48,8.49-8.48-8.49c-.59-.58-1.54-.58-2.12,0-.58.59-.58,1.54,0,2.12l9.55,9.55ZM284.5,1159v112h3v-112h-3Z"/>
  <path class="st1" d="M287.5,1584c0-.83-.67-1.5-1.5-1.5s-1.5.67-1.5,1.5h3ZM284.94,1693.06c.59.59,1.54.59,2.12,0l9.55-9.55c.58-.58.58-1.53,0-2.12-.59-.58-1.54-.58-2.12,0l-8.48,8.49-8.48-8.49c-.59-.58-1.54-.58-2.12,0-.58.59-.58,1.54,0,2.12l9.55,9.55ZM284.5,1584v108h3v-108h-3Z"/>
  <path class="st1" d="M576,1848.5c-.83,0-1.5.67-1.5,1.5s.67,1.5,1.5,1.5v-3ZM649.06,1851.06c.59-.59.59-1.53,0-2.12l-9.55-9.55c-.59-.58-1.54-.58-2.12,0-.59.59-.59,1.54,0,2.12l8.49,8.49-8.49,8.49c-.59.58-.59,1.53,0,2.12.59.58,1.54.58,2.12,0l9.55-9.55ZM576,1851.5h72v-3h-72v3Z"/>
  <path class="st1" d="M578,152.5c-.83,0-1.5.67-1.5,1.5s.67,1.5,1.5,1.5v-3ZM672.06,155.06c.59-.59.59-1.54,0-2.12l-9.55-9.55c-.59-.59-1.54-.59-2.12,0-.59.59-.59,1.54,0,2.12l8.49,8.49-8.49,8.49c-.59.59-.59,1.54,0,2.12.59.59,1.54.59,2.12,0l9.55-9.55ZM578,155.5h93v-3h-93v3Z"/>
  <path class="st1" d="M1253.01,155.09c-.83,0-1.5.66-1.51,1.49-.01.83.66,1.51,1.49,1.51l.02-3ZM1347.05,158.49c.59-.58.6-1.53.02-2.12l-9.46-9.63c-.58-.59-1.53-.6-2.12-.02-.59.58-.6,1.53-.02,2.12l8.41,8.56-8.56,8.41c-.59.58-.6,1.53-.02,2.12.58.59,1.53.6,2.12.02l9.63-9.46ZM1252.99,158.09l93,.83.02-3-93-.83-.02,3Z"/>
  <path class="st1" d="M1633.5,318c0-.83-.67-1.5-1.5-1.5s-1.5.67-1.5,1.5h3ZM1630.94,421.06c.59.58,1.53.58,2.12,0l9.55-9.55c.58-.59.58-1.54,0-2.12-.59-.58-1.54-.58-2.12,0l-8.49,8.49-8.49-8.49c-.58-.58-1.53-.58-2.12,0-.58.59-.58,1.54,0,2.12l9.55,9.55ZM1630.5,318v102h3v-102h-3Z"/>
  <path class="st1" d="M1922,576.5c-.83,0-1.5.67-1.5,1.5s.67,1.5,1.5,1.5v-3ZM2589.94,845.06c.59.59,1.53.59,2.12,0l9.55-9.55c.58-.59.58-1.54,0-2.12-.59-.59-1.54-.59-2.12,0l-8.49,8.49-8.49-8.49c-.58-.59-1.53-.59-2.12,0-.58.59-.58,1.54,0,2.12l9.55,9.55ZM1922,579.5h645v-3h-645v3ZM2589.5,602v242h3v-242h-3ZM2567,579.5c12.43,0,22.5,10.07,22.5,22.5h3c0-14.08-11.42-25.5-25.5-25.5v3Z"/>
  <path class="st1" d="M936.5,1692c0,.83.67,1.5,1.5,1.5s1.5-.67,1.5-1.5h-3ZM2302.06,1003.06c.59-.59.59-1.53,0-2.12l-9.55-9.55c-.58-.59-1.53-.59-2.12,0-.58.59-.58,1.54,0,2.12l8.49,8.48-8.49,8.49c-.58.58-.58,1.53,0,2.12.59.58,1.54.58,2.12,0l9.55-9.55ZM939.5,1692v-666h-3v666h3ZM962,1003.5h1339v-3H962v3ZM939.5,1026c0-12.43,10.07-22.5,22.5-22.5v-3c-14.08,0-25.5,11.42-25.5,25.5h3Z"/>
  <path class="st1" d="M2592.5,1160c0-.83-.67-1.5-1.5-1.5s-1.5.67-1.5,1.5h3ZM1630.94,1750.06c.59.59,1.53.59,2.12,0l9.55-9.55c.58-.58.58-1.53,0-2.12-.59-.58-1.54-.58-2.12,0l-8.49,8.49-8.49-8.49c-.58-.58-1.53-.58-2.12,0-.58.59-.58,1.54,0,2.12l9.55,9.55ZM2589.5,1160v270.5h3v-270.5h-3ZM2567,1453h-911v3h911v-3ZM1630.5,1478.5v270.5h3v-270.5h-3ZM1656,1453c-14.08,0-25.5,11.42-25.5,25.5h3c0-12.43,10.07-22.5,22.5-22.5v-3ZM2589.5,1430.5c0,12.43-10.07,22.5-22.5,22.5v3c14.08,0,25.5-11.42,25.5-25.5h-3Z"/>
  <path class="st1" d="M2592.5,1160c0-.83-.67-1.5-1.5-1.5s-1.5.67-1.5,1.5h3ZM1630.94,1750.06c.59.59,1.53.59,2.12,0l9.55-9.55c.58-.58.58-1.53,0-2.12-.59-.58-1.54-.58-2.12,0l-8.49,8.49-8.49-8.49c-.58-.58-1.53-.58-2.12,0-.58.59-.58,1.54,0,2.12l9.55,9.55ZM2589.5,1160v270.5h3v-270.5h-3ZM2567,1453h-911v3h911v-3ZM1630.5,1478.5v270.5h3v-270.5h-3ZM1656,1453c-14.08,0-25.5,11.42-25.5,25.5h3c0-12.43,10.07-22.5,22.5-22.5v-3ZM2589.5,1430.5c0,12.43-10.07,22.5-22.5,22.5v3c14.08,0,25.5-11.42,25.5-25.5h-3Z"/>
  <path class="st1" d="M2592.5,1156c0-.83-.67-1.5-1.5-1.5s-1.5.67-1.5,1.5h3ZM2327.94,1750.06c.59.59,1.53.59,2.12,0l9.55-9.55c.58-.58.58-1.53,0-2.12-.59-.58-1.54-.58-2.12,0l-8.49,8.49-8.49-8.49c-.58-.58-1.53-.58-2.12,0-.58.59-.58,1.54,0,2.12l9.55,9.55ZM2589.5,1156v274.5h3v-274.5h-3ZM2567,1453h-214v3h214v-3ZM2327.5,1478.5v270.5h3v-270.5h-3ZM2353,1453c-14.08,0-25.5,11.42-25.5,25.5h3c0-12.43,10.07-22.5,22.5-22.5v-3ZM2589.5,1430.5c0,12.43-10.07,22.5-22.5,22.5v3c14.08,0,25.5-11.42,25.5-25.5h-3Z"/>
  <path class="st1" d="M2592.5,1156c0-.83-.67-1.5-1.5-1.5s-1.5.67-1.5,1.5h3ZM3024.94,1750.06c.59.59,1.53.59,2.12,0l9.55-9.55c.58-.58.58-1.53,0-2.12-.59-.58-1.54-.58-2.12,0l-8.49,8.49-8.49-8.49c-.58-.58-1.53-.58-2.12,0-.58.59-.58,1.54,0,2.12l9.55,9.55ZM2589.5,1156v274.5h3v-274.5h-3ZM2615,1456h387v-3h-387v3ZM3024.5,1478.5v270.5h3v-270.5h-3ZM3002,1456c12.43,0,22.5,10.07,22.5,22.5h3c0-14.08-11.42-25.5-25.5-25.5v3ZM2589.5,1430.5c0,14.08,11.42,25.5,25.5,25.5v-3c-12.43,0-22.5-10.07-22.5-22.5h-3Z"/>
  <path class="st1" d="M1926,158.5c-.83,0-1.5.67-1.5,1.5s.67,1.5,1.5,1.5v-3ZM2024.06,161.06c.59-.59.59-1.54,0-2.12l-9.55-9.55c-.58-.59-1.53-.59-2.12,0-.58.59-.58,1.54,0,2.12l8.49,8.49-8.49,8.49c-.58.59-.58,1.54,0,2.12.59.59,1.54.59,2.12,0l9.55-9.55ZM1926,161.5h97v-3h-97v3Z"/>
  <path class="st1" d="M2604,158.5c-.83,0-1.5.67-1.5,1.5s.67,1.5,1.5,1.5v-3ZM2698.06,161.06c.59-.59.59-1.54,0-2.12l-9.55-9.55c-.58-.59-1.53-.59-2.12,0-.58.59-.58,1.54,0,2.12l8.49,8.49-8.49,8.49c-.58.59-.58,1.54,0,2.12.59.59,1.54.59,2.12,0l9.55-9.55ZM2604,161.5h93v-3h-93v3Z"/>
  <path class="st1" d="M3279,158.5c-.83,0-1.5.67-1.5,1.5s.67,1.5,1.5,1.5v-3ZM3373.06,161.06c.59-.59.59-1.54,0-2.12l-9.55-9.55c-.58-.59-1.53-.59-2.12,0-.58.59-.58,1.54,0,2.12l8.49,8.49-8.49,8.49c-.58.59-.58,1.54,0,2.12.59.59,1.54.59,2.12,0l9.55-9.55ZM3279,161.5h93v-3h-93v3Z"/>
  <path class="st1" d="M3652.5,318c0-.83-.67-1.5-1.5-1.5s-1.5.67-1.5,1.5h3ZM3649.94,421.06c.59.58,1.53.58,2.12,0l9.55-9.55c.58-.59.58-1.54,0-2.12-.59-.58-1.54-.58-2.12,0l-8.49,8.49-8.49-8.49c-.58-.58-1.53-.58-2.12,0-.58.59-.58,1.54,0,2.12l9.55,9.55ZM3649.5,318v102h3v-102h-3Z"/>
  <path class="st1" d="M3652.5,738c0-.83-.67-1.5-1.5-1.5s-1.5.67-1.5,1.5h3ZM3649.94,847.06c.59.59,1.53.59,2.12,0l9.55-9.55c.58-.59.58-1.54,0-2.12-.59-.59-1.54-.59-2.12,0l-8.49,8.49-8.49-8.49c-.58-.59-1.53-.59-2.12,0-.58.59-.58,1.54,0,2.12l9.55,9.55ZM3649.5,738v108h3v-108h-3Z"/>
  <path class="st1" d="M2592.5,1160c0-.83-.67-1.5-1.5-1.5s-1.5.67-1.5,1.5h3ZM3721.94,1750.06c.59.59,1.53.59,2.12,0l9.55-9.55c.58-.58.58-1.53,0-2.12-.59-.58-1.54-.58-2.12,0l-8.49,8.49-8.49-8.49c-.58-.58-1.53-.58-2.12,0-.58.59-.58,1.54,0,2.12l9.55,9.55ZM2589.5,1160v270.5h3v-270.5h-3ZM2615,1456h1084v-3h-1084v3ZM3721.5,1478.5v270.5h3v-270.5h-3ZM3699,1456c12.43,0,22.5,10.07,22.5,22.5h3c0-14.08-11.42-25.5-25.5-25.5v3ZM2589.5,1430.5c0,14.08,11.42,25.5,25.5,25.5v-3c-12.43,0-22.5-10.07-22.5-22.5h-3Z"/>
  <g>
    <g>
      <rect class="st2" x="1354.5" y="1761.74" width="566" height="176" rx="53" ry="53"/>
      <text class="st0" transform="translate(1540.59 1867.49)"><tspan x="0" y="0">Sunlight</tspan></text>
    </g>
    <g>
      <rect class="st2" x="2047.5" y="1761.74" width="566" height="176" rx="53" ry="53"/>
      <text class="st0" transform="translate(2208.54 1867.49)"><tspan x="0" y="0">Air Quality</tspan></text>
    </g>
    <g>
      <rect class="st2" x="2743.75" y="1761.74" width="566" height="176" rx="53" ry="53"/>
      <text class="st0" transform="translate(2919.81 1867.49)"><tspan x="0" y="0">Humidity</tspan></text>
    </g>
    <g>
      <rect class="st2" x="3379.2" y="1761.74" width="566" height="176" rx="53" ry="53"/>
      <text class="st0" transform="translate(3505.45 1867.49)"><tspan x="0" y="0">Temperature</tspan></text>
    </g>
  </g>
  <g>
    <rect class="st2" x="2306" y="852.45" width="566" height="302" rx="53" ry="53"/>
    <text class="st0" transform="translate(2386.5 992.42)"><tspan x="0" y="0">Factors affecting </tspan><tspan x="49.38" y="57.58">plant growth</tspan></text>
  </g>
  <g>
    <g>
      <rect class="st2" x="3379.84" y="429.9" width="566" height="302" rx="53" ry="53"/>
      <text class="st0" transform="translate(3442.92 569.86)"><tspan x="0" y="0">Buys plants based </tspan><tspan x="49.74" y="57.58">on suggestion</tspan></text>
    </g>
    <g>
      <rect class="st2" x="3379.84" y="852.25" width="566" height="302" rx="53" ry="53"/>
      <text class="st0" transform="translate(3514.95 992.21)"><tspan x="0" y="0">Keeps it at a </tspan><tspan x="-22.03" y="57.58">suitable place</tspan></text>
    </g>
    <g>
      <g>
        <rect class="st2" x="1353.83" y="430.17" width="566" height="302" rx="53" ry="53"/>
        <text class="st0" transform="translate(1437.78 598.92)"><tspan x="0" y="0">Knowledge Body</tspan></text>
      </g>
      <g>
        <g>
          <rect class="st2" x="677.73" y="1699" width="566" height="302" rx="53" ry="53"/>
          <text class="st0" transform="translate(740.33 1867.75)"><tspan x="0" y="0">Lack of knowledge</tspan></text>
        </g>
        <g>
          <g>
            <rect class="st2" x="3.16" y="1699" width="566" height="302" rx="53" ry="53"/>
            <text class="st0" transform="translate(113.07 1838.96)"><tspan x="0" y="0">Wonders what</tspan><tspan x="32.49" y="57.58">went wrong</tspan></text>
          </g>
          <g>
            <rect class="st2" x="3.16" y="429.53" width="566" height="302" rx="53" ry="53"/>
            <text class="st0" transform="translate(87.21 598.29)"><tspan x="0" y="0">Buy potted plant</tspan></text>
          </g>
          <g>
            <rect class="st2" x="3.16" y="852.69" width="566" height="302" rx="53" ry="53"/>
            <text class="st0" transform="translate(133.15 992.65)"><tspan x="0" y="0">Places it at a </tspan><tspan x="-18" y="57.58">random place</tspan></text>
          </g>
          <g>
            <rect class="st2" x="3.16" y="1275.84" width="566" height="302" rx="53" ry="53"/>
            <text class="st0" transform="translate(81.69 1444.6)"><tspan x="0" y="0">The plant withers</tspan></text>
          </g>
          <g>
            <g>
              <rect class="st2" x="3.16" y="6.37" width="566" height="302" rx="53" ry="53"/>
              <text class="st0" transform="translate(101.53 146.34)"><tspan x="0" y="0">User decides to </tspan><tspan x="43.07" y="57.58">grow plants</tspan></text>
            </g>
            <g>
              <rect class="st2" x="678.5" y="6.37" width="566" height="302" rx="53" ry="53"/>
              <text class="st0" transform="translate(752.61 175.13)"><tspan x="0" y="0">Research’s online</tspan></text>
            </g>
            <g>
              <rect class="st2" x="2029.17" y="6.37" width="566" height="302" rx="53" ry="53"/>
              <text class="st0" transform="translate(2166.86 175.13)"><tspan x="0" y="0">Purchases it</tspan></text>
            </g>
            <g>
              <rect class="st2" x="2704.5" y="6.37" width="566" height="302" rx="53" ry="53"/>
              <text class="st0" transform="translate(2750.57 146.34)"><tspan x="0" y="0">Places it at planned </tspan><tspan x="16.24" y="57.58">place in the house</tspan></text>
            </g>
            <g>
              <rect class="st2" x="3379.84" y="6.37" width="566" height="302" rx="53" ry="53"/>
              <text class="st0" transform="translate(3475.14 146.34)"><tspan x="0" y="0">Leaflink collects </tspan><tspan x="-29.32" y="57.58">and displays data</tspan></text>
            </g>
            <g>
              <rect class="st2" x="1353.83" y="6.37" width="566" height="302" rx="53" ry="53"/>
              <text class="st0" transform="translate(1464.3 146.34)"><tspan x="0" y="0">Comes across </tspan><tspan x="83.66" y="57.58">Leaflink</tspan></text>
            </g>
          </g>
        </g>
      </g>
    </g>
  </g>
</svg>