<?xml version="1.0" encoding="UTF-8"?>
<svg id="Layer_1" xmlns="http://www.w3.org/2000/svg" version="1.1" viewBox="0 0 1000.87 656.13">
  <!-- Generator: Adobe Illustrator 29.2.1, SVG Export Plug-In . SVG Version: 2.1.0 Build 116)  -->
  <defs>
    <style>
      .st0 {
        fill: #04ce00;
      }

      .st1 {
        fill: none;
        stroke: #ababab;
        stroke-linecap: round;
        stroke-miterlimit: 10;
      }

      .st2, .st3, .st4 {
        isolation: isolate;
      }

      .st5 {
        fill: #f90000;
      }

      .st3 {
        font-family: Poppins-Regular, Poppins;
        font-size: 18px;
      }

      .st3, .st4 {
        fill: #ababab;
      }

      .st4 {
        font-family: Poppins-Medium, Poppins;
        font-size: 17.41px;
        font-weight: 500;
      }
    </style>
  </defs>
  <line class="st1" x1="339.14" y1="542.66" x2="935.95" y2="542.66"/>
  <line class="st1" x1="339.14" y1="459.73" x2="935.95" y2="459.73"/>
  <line class="st1" x1="343.76" y1="45.06" x2="343.76" y2="542.66"/>
  <line class="st1" x1="339.14" y1="376.79" x2="935.95" y2="376.79"/>
  <line class="st1" x1="339.14" y1="293.86" x2="935.95" y2="293.86"/>
  <line class="st1" x1="339.14" y1="210.93" x2="935.95" y2="210.93"/>
  <line class="st1" x1="339.14" y1="127.99" x2="935.95" y2="127.99"/>
  <line class="st1" x1="339.14" y1="45.06" x2="935.95" y2="45.06"/>
  <path class="st5" d="M682.16,65.1v19.43c0,1.1-.9,2-2,2h-336.4v-23.43h336.4c1.1,0,2,.9,2,2Z"/>
  <path class="st0" d="M851.36,88.53v19.43c0,1.1-.9,2-2,2h-505.59v-23.43h505.59c1.1,0,2,.9,2,2Z"/>
  <g class="st2">
    <text class="st3" transform="translate(171.75 82.15)"><tspan x="0" y="0">Overall workflow </tspan></text>
    <text class="st3" transform="translate(195.9 104.95)"><tspan x="0" y="0">management</tspan></text>
  </g>
  <g class="st2">
    <text class="st4" transform="translate(697.92 81.25)"><tspan x="0" y="0">40%</tspan></text>
  </g>
  <g class="st2">
    <text class="st4" transform="translate(867.16 104.68)"><tspan x="0" y="0">60%</tspan></text>
  </g>
  <path class="st5" d="M766.75,148.04v19.43c0,1.1-.9,2-2,2h-420.99v-23.43h420.99c1.1,0,2,.9,2,2Z"/>
  <path class="st0" d="M766.75,171.46v19.43c0,1.1-.9,2-2,2h-420.99v-23.43h420.99c1.1,0,2,.9,2,2Z"/>
  <g class="st2">
    <text class="st4" transform="translate(782.59 175.9)"><tspan x="0" y="0">50%</tspan></text>
  </g>
  <path class="st5" d="M682.16,230.97v19.43c0,1.1-.9,2-2,2h-336.39v-23.43h336.39c1.1,0,2,.9,2,2Z"/>
  <path class="st0" d="M851.35,254.4v19.43c0,1.1-.9,2-2,2h-505.59v-23.43h505.59c1.1,0,2,.9,2,2Z"/>
  <g class="st2">
    <text class="st4" transform="translate(697.92 247.12)"><tspan x="0" y="0">40%</tspan></text>
  </g>
  <g class="st2">
    <text class="st4" transform="translate(867.16 270.55)"><tspan x="0" y="0">60%</tspan></text>
  </g>
  <path class="st5" d="M682.15,313.9v19.43c0,1.1-.9,2-2,2h-336.39v-23.43h336.39c1.1,0,2,.9,2,2Z"/>
  <path class="st0" d="M851.36,337.33v19.43c0,1.1-.9,2-2,2h-505.59v-23.43h505.59c1.1,0,2,.9,2,2Z"/>
  <g class="st2">
    <text class="st4" transform="translate(697.92 330.05)"><tspan x="0" y="0">40%</tspan></text>
  </g>
  <g class="st2">
    <text class="st4" transform="translate(867.16 353.48)"><tspan x="0" y="0">60%</tspan></text>
  </g>
  <path class="st5" d="M682.16,396.84v19.43c0,1.1-.9,2-2,2h-336.39v-23.43h336.39c1.1,0,2,.9,2,2Z"/>
  <path class="st0" d="M851.35,420.26v19.43c0,1.1-.9,2-2,2h-505.59v-23.43h505.59c1.1,0,2,.9,2,2Z"/>
  <g class="st2">
    <text class="st4" transform="translate(697.92 412.99)"><tspan x="0" y="0">40%</tspan></text>
  </g>
  <g class="st2">
    <text class="st4" transform="translate(867.16 436.41)"><tspan x="0" y="0">60%</tspan></text>
  </g>
  <path class="st5" d="M851.35,479.77v19.43c0,1.1-.9,2-2,2h-505.59v-23.43h505.59c1.1,0,2,.9,2,2Z"/>
  <path class="st0" d="M682.16,503.2v19.43c0,1.1-.9,2-2,2h-336.39v-23.43h336.39c1.1,0,2,.9,2,2h0Z"/>
  <g class="st2">
    <text class="st4" transform="translate(867.16 495.92)"><tspan x="0" y="0">60%</tspan></text>
  </g>
  <g class="st2">
    <text class="st4" transform="translate(697.92 519.35)"><tspan x="0" y="0">40%</tspan></text>
  </g>
  <g class="st2">
    <text class="st3" transform="translate(141.33 176.49)"><tspan x="0" y="0">Complexity of tasks</tspan></text>
  </g>
  <g class="st2">
    <text class="st3" transform="translate(105.37 259.42)"><tspan x="0" y="0">Regulatory compliance</tspan></text>
  </g>
  <g class="st2">
    <text class="st3" transform="translate(201.92 342.36)"><tspan x="0" y="0">Data security</tspan></text>
  </g>
  <g class="st2">
    <text class="st3" transform="translate(178.44 413.89)"><tspan x="0" y="0">Integration with </tspan></text>
    <text class="st3" transform="translate(170.57 436.69)"><tspan x="0" y="0">existing systems</tspan></text>
  </g>
  <g class="st2">
    <text class="st3" transform="translate(150.23 508.22)"><tspan x="0" y="0">Learning new tools</tspan></text>
  </g>
  <rect class="st5" x="451.45" y="582.25" width="28.18" height="28.18"/>
  <g class="st2">
    <text class="st4" transform="translate(453.72 636.48)"><tspan x="0" y="0">No</tspan></text>
  </g>
  <rect class="st0" x="533.49" y="582.25" width="28.18" height="28.18"/>
  <g class="st2">
    <text class="st4" transform="translate(532.3 636.48)"><tspan x="0" y="0">Yes</tspan></text>
  </g>
</svg>